; NON-PLATED HOLES START AT T1
; THROUGH (PLATED) HOLES START AT T100
M48
INCH
T100C0.038000
T101C0.022741
T102C0.010000
%
T100
X005548Y000572
X007548Y005674
X010548Y005674
X006548Y005674
X002548Y000572
X004548Y005674
X001548Y000572
X003548Y005674
X000548Y005674
X007548Y000572
X009548Y005674
X010548Y000572
X006548Y000572
X008548Y005674
X011548Y005674
X004548Y000572
X003548Y000572
X005548Y005674
X000548Y000572
X002548Y005674
X001548Y005674
X009548Y000572
X008548Y000572
X011548Y000572
T101
X005181Y004806
X006681Y004806
X003681Y004806
X006197Y001481
X008181Y004806
X005197Y001481
X006697Y001481
X007181Y004806
X008681Y004806
X007681Y004806
X003697Y001481
X004181Y004806
X005681Y004806
X003181Y004806
X004681Y004806
X008197Y001481
X007197Y001481
X008697Y001481
X007697Y001481
X004197Y001481
X005697Y001481
X006181Y004806
X003197Y001481
X004697Y001481
T102
X009544Y004473
X009544Y001816
X002555Y001835
X002555Y004473
T00
M30
