G04 MADE WITH FRITZING*
G04 WWW.FRITZING.ORG*
G04 DOUBLE SIDED*
G04 HOLES PLATED*
G04 CONTOUR ON CENTER OF CONTOUR VECTOR*
%ASAXBY*%
%FSLAX23Y23*%
%MOIN*%
%OFA0B0*%
%SFA1.0B1.0*%
%ADD10R,0.001000X0.001000*%
%LNSILK1*%
G90*
G70*
G36*
X44Y434D02*
X44Y433D01*
X38Y433D01*
X38Y432D01*
X36Y432D01*
X36Y431D01*
X35Y431D01*
X35Y430D01*
X36Y430D01*
X36Y429D01*
X37Y429D01*
X37Y428D01*
X38Y428D01*
X38Y427D01*
X39Y427D01*
X39Y425D01*
X40Y425D01*
X40Y424D01*
X41Y424D01*
X41Y423D01*
X42Y423D01*
X42Y422D01*
X217Y422D01*
X217Y421D01*
X222Y421D01*
X222Y420D01*
X225Y420D01*
X225Y419D01*
X227Y419D01*
X227Y418D01*
X229Y418D01*
X229Y417D01*
X230Y417D01*
X230Y416D01*
X231Y416D01*
X231Y415D01*
X232Y415D01*
X232Y414D01*
X233Y414D01*
X233Y412D01*
X234Y412D01*
X234Y411D01*
X235Y411D01*
X235Y409D01*
X236Y409D01*
X236Y408D01*
X238Y408D01*
X238Y406D01*
X239Y406D01*
X239Y403D01*
X240Y403D01*
X240Y243D01*
X252Y243D01*
X252Y412D01*
X251Y412D01*
X251Y416D01*
X249Y416D01*
X249Y418D01*
X248Y418D01*
X248Y420D01*
X247Y420D01*
X247Y421D01*
X246Y421D01*
X246Y423D01*
X245Y423D01*
X245Y424D01*
X244Y424D01*
X244Y425D01*
X243Y425D01*
X243Y427D01*
X242Y427D01*
X242Y428D01*
X240Y428D01*
X240Y429D01*
X239Y429D01*
X239Y430D01*
X236Y430D01*
X236Y431D01*
X234Y431D01*
X234Y432D01*
X231Y432D01*
X231Y433D01*
X227Y433D01*
X227Y434D01*
X44Y434D01*
G37*
D02*
G36*
X44Y422D02*
X44Y421D01*
X45Y421D01*
X45Y420D01*
X46Y420D01*
X46Y419D01*
X47Y419D01*
X47Y418D01*
X48Y418D01*
X48Y417D01*
X49Y417D01*
X49Y416D01*
X50Y416D01*
X50Y415D01*
X51Y415D01*
X51Y414D01*
X52Y414D01*
X52Y412D01*
X53Y412D01*
X53Y411D01*
X54Y411D01*
X54Y410D01*
X55Y410D01*
X55Y409D01*
X57Y409D01*
X57Y408D01*
X58Y408D01*
X58Y407D01*
X59Y407D01*
X59Y406D01*
X60Y406D01*
X60Y405D01*
X61Y405D01*
X61Y404D01*
X62Y404D01*
X62Y403D01*
X63Y403D01*
X63Y402D01*
X64Y402D01*
X64Y401D01*
X65Y401D01*
X65Y399D01*
X66Y399D01*
X66Y398D01*
X67Y398D01*
X67Y397D01*
X69Y397D01*
X69Y396D01*
X70Y396D01*
X70Y395D01*
X71Y395D01*
X71Y394D01*
X72Y394D01*
X72Y393D01*
X73Y393D01*
X73Y392D01*
X74Y392D01*
X74Y391D01*
X75Y391D01*
X75Y390D01*
X76Y390D01*
X76Y389D01*
X77Y389D01*
X77Y388D01*
X78Y388D01*
X78Y386D01*
X79Y386D01*
X79Y385D01*
X80Y385D01*
X80Y384D01*
X82Y384D01*
X82Y383D01*
X83Y383D01*
X83Y382D01*
X84Y382D01*
X84Y381D01*
X85Y381D01*
X85Y380D01*
X86Y380D01*
X86Y379D01*
X87Y379D01*
X87Y378D01*
X88Y378D01*
X88Y377D01*
X89Y377D01*
X89Y376D01*
X90Y376D01*
X90Y375D01*
X91Y375D01*
X91Y373D01*
X92Y373D01*
X92Y372D01*
X110Y372D01*
X110Y373D01*
X109Y373D01*
X109Y375D01*
X108Y375D01*
X108Y376D01*
X106Y376D01*
X106Y377D01*
X105Y377D01*
X105Y378D01*
X104Y378D01*
X104Y379D01*
X103Y379D01*
X103Y380D01*
X102Y380D01*
X102Y381D01*
X101Y381D01*
X101Y382D01*
X100Y382D01*
X100Y383D01*
X99Y383D01*
X99Y384D01*
X98Y384D01*
X98Y385D01*
X97Y385D01*
X97Y386D01*
X96Y386D01*
X96Y388D01*
X95Y388D01*
X95Y389D01*
X93Y389D01*
X93Y390D01*
X92Y390D01*
X92Y391D01*
X91Y391D01*
X91Y392D01*
X90Y392D01*
X90Y393D01*
X89Y393D01*
X89Y394D01*
X88Y394D01*
X88Y395D01*
X87Y395D01*
X87Y396D01*
X86Y396D01*
X86Y397D01*
X85Y397D01*
X85Y398D01*
X84Y398D01*
X84Y399D01*
X83Y399D01*
X83Y401D01*
X82Y401D01*
X82Y402D01*
X80Y402D01*
X80Y403D01*
X79Y403D01*
X79Y404D01*
X78Y404D01*
X78Y405D01*
X77Y405D01*
X77Y406D01*
X76Y406D01*
X76Y407D01*
X75Y407D01*
X75Y408D01*
X74Y408D01*
X74Y409D01*
X73Y409D01*
X73Y410D01*
X72Y410D01*
X72Y411D01*
X71Y411D01*
X71Y412D01*
X70Y412D01*
X70Y414D01*
X69Y414D01*
X69Y415D01*
X67Y415D01*
X67Y416D01*
X66Y416D01*
X66Y417D01*
X65Y417D01*
X65Y418D01*
X64Y418D01*
X64Y419D01*
X63Y419D01*
X63Y420D01*
X62Y420D01*
X62Y422D01*
X44Y422D01*
G37*
D02*
G36*
X213Y407D02*
X213Y406D01*
X212Y406D01*
X212Y405D01*
X210Y405D01*
X210Y404D01*
X218Y404D01*
X218Y402D01*
X219Y402D01*
X219Y399D01*
X218Y399D01*
X218Y397D01*
X221Y397D01*
X221Y398D01*
X222Y398D01*
X222Y403D01*
X221Y403D01*
X221Y405D01*
X220Y405D01*
X220Y406D01*
X219Y406D01*
X219Y407D01*
X213Y407D01*
G37*
D02*
G36*
X174Y406D02*
X174Y405D01*
X173Y405D01*
X173Y404D01*
X171Y404D01*
X171Y403D01*
X179Y403D01*
X179Y402D01*
X180Y402D01*
X180Y397D01*
X179Y397D01*
X179Y396D01*
X183Y396D01*
X183Y403D01*
X182Y403D01*
X182Y404D01*
X181Y404D01*
X181Y405D01*
X180Y405D01*
X180Y406D01*
X174Y406D01*
G37*
D02*
G36*
X138Y404D02*
X138Y403D01*
X136Y403D01*
X136Y402D01*
X135Y402D01*
X135Y401D01*
X142Y401D01*
X142Y399D01*
X143Y399D01*
X143Y395D01*
X142Y395D01*
X142Y394D01*
X147Y394D01*
X147Y396D01*
X148Y396D01*
X148Y398D01*
X147Y398D01*
X147Y401D01*
X145Y401D01*
X145Y402D01*
X144Y402D01*
X144Y403D01*
X143Y403D01*
X143Y404D01*
X138Y404D01*
G37*
D02*
G36*
X209Y404D02*
X209Y397D01*
X214Y397D01*
X214Y398D01*
X213Y398D01*
X213Y403D01*
X214Y403D01*
X214Y404D01*
X209Y404D01*
G37*
D02*
G36*
X170Y403D02*
X170Y396D01*
X175Y396D01*
X175Y397D01*
X174Y397D01*
X174Y402D01*
X176Y402D01*
X176Y403D01*
X170Y403D01*
G37*
D02*
G36*
X135Y401D02*
X135Y399D01*
X134Y399D01*
X134Y395D01*
X135Y395D01*
X135Y394D01*
X138Y394D01*
X138Y396D01*
X137Y396D01*
X137Y398D01*
X138Y398D01*
X138Y399D01*
X139Y399D01*
X139Y401D01*
X135Y401D01*
G37*
D02*
G36*
X209Y397D02*
X209Y396D01*
X221Y396D01*
X221Y397D01*
X209Y397D01*
G37*
D02*
G36*
X209Y397D02*
X209Y396D01*
X221Y396D01*
X221Y397D01*
X209Y397D01*
G37*
D02*
G36*
X171Y396D02*
X171Y395D01*
X182Y395D01*
X182Y396D01*
X171Y396D01*
G37*
D02*
G36*
X171Y396D02*
X171Y395D01*
X182Y395D01*
X182Y396D01*
X171Y396D01*
G37*
D02*
G36*
X209Y396D02*
X209Y395D01*
X208Y395D01*
X208Y394D01*
X207Y394D01*
X207Y393D01*
X206Y393D01*
X206Y392D01*
X205Y392D01*
X205Y391D01*
X204Y391D01*
X204Y390D01*
X203Y390D01*
X203Y389D01*
X202Y389D01*
X202Y388D01*
X201Y388D01*
X201Y386D01*
X200Y386D01*
X200Y385D01*
X199Y385D01*
X199Y384D01*
X197Y384D01*
X197Y383D01*
X196Y383D01*
X196Y382D01*
X195Y382D01*
X195Y381D01*
X194Y381D01*
X194Y380D01*
X193Y380D01*
X193Y379D01*
X192Y379D01*
X192Y378D01*
X191Y378D01*
X191Y377D01*
X190Y377D01*
X190Y376D01*
X189Y376D01*
X189Y375D01*
X188Y375D01*
X188Y373D01*
X187Y373D01*
X187Y372D01*
X186Y372D01*
X186Y371D01*
X184Y371D01*
X184Y370D01*
X183Y370D01*
X183Y369D01*
X182Y369D01*
X182Y368D01*
X181Y368D01*
X181Y367D01*
X180Y367D01*
X180Y366D01*
X179Y366D01*
X179Y365D01*
X178Y365D01*
X178Y364D01*
X177Y364D01*
X177Y363D01*
X176Y363D01*
X176Y362D01*
X175Y362D01*
X175Y360D01*
X174Y360D01*
X174Y359D01*
X173Y359D01*
X173Y358D01*
X171Y358D01*
X171Y357D01*
X170Y357D01*
X170Y356D01*
X169Y356D01*
X169Y331D01*
X168Y331D01*
X168Y326D01*
X171Y326D01*
X171Y355D01*
X173Y355D01*
X173Y356D01*
X174Y356D01*
X174Y357D01*
X175Y357D01*
X175Y358D01*
X176Y358D01*
X176Y359D01*
X177Y359D01*
X177Y360D01*
X178Y360D01*
X178Y362D01*
X179Y362D01*
X179Y363D01*
X180Y363D01*
X180Y364D01*
X181Y364D01*
X181Y365D01*
X182Y365D01*
X182Y366D01*
X183Y366D01*
X183Y367D01*
X184Y367D01*
X184Y368D01*
X186Y368D01*
X186Y369D01*
X187Y369D01*
X187Y370D01*
X188Y370D01*
X188Y371D01*
X189Y371D01*
X189Y372D01*
X190Y372D01*
X190Y373D01*
X191Y373D01*
X191Y375D01*
X192Y375D01*
X192Y376D01*
X193Y376D01*
X193Y377D01*
X194Y377D01*
X194Y378D01*
X195Y378D01*
X195Y379D01*
X196Y379D01*
X196Y380D01*
X197Y380D01*
X197Y381D01*
X199Y381D01*
X199Y382D01*
X200Y382D01*
X200Y383D01*
X201Y383D01*
X201Y384D01*
X202Y384D01*
X202Y385D01*
X203Y385D01*
X203Y386D01*
X204Y386D01*
X204Y388D01*
X205Y388D01*
X205Y389D01*
X206Y389D01*
X206Y390D01*
X207Y390D01*
X207Y391D01*
X208Y391D01*
X208Y392D01*
X209Y392D01*
X209Y393D01*
X210Y393D01*
X210Y394D01*
X219Y394D01*
X219Y395D01*
X220Y395D01*
X220Y396D01*
X209Y396D01*
G37*
D02*
G36*
X173Y395D02*
X173Y394D01*
X174Y394D01*
X174Y393D01*
X177Y393D01*
X177Y384D01*
X176Y384D01*
X176Y383D01*
X175Y383D01*
X175Y382D01*
X174Y382D01*
X174Y381D01*
X173Y381D01*
X173Y380D01*
X171Y380D01*
X171Y379D01*
X170Y379D01*
X170Y378D01*
X169Y378D01*
X169Y377D01*
X168Y377D01*
X168Y376D01*
X167Y376D01*
X167Y375D01*
X166Y375D01*
X166Y373D01*
X165Y373D01*
X165Y372D01*
X164Y372D01*
X164Y371D01*
X163Y371D01*
X163Y370D01*
X162Y370D01*
X162Y369D01*
X161Y369D01*
X161Y368D01*
X160Y368D01*
X160Y367D01*
X158Y367D01*
X158Y366D01*
X157Y366D01*
X157Y365D01*
X156Y365D01*
X156Y364D01*
X155Y364D01*
X155Y363D01*
X154Y363D01*
X154Y362D01*
X153Y362D01*
X153Y360D01*
X152Y360D01*
X152Y359D01*
X151Y359D01*
X151Y343D01*
X153Y343D01*
X153Y357D01*
X154Y357D01*
X154Y358D01*
X155Y358D01*
X155Y359D01*
X156Y359D01*
X156Y360D01*
X157Y360D01*
X157Y362D01*
X158Y362D01*
X158Y363D01*
X160Y363D01*
X160Y364D01*
X161Y364D01*
X161Y365D01*
X162Y365D01*
X162Y366D01*
X163Y366D01*
X163Y367D01*
X164Y367D01*
X164Y368D01*
X165Y368D01*
X165Y369D01*
X166Y369D01*
X166Y370D01*
X167Y370D01*
X167Y371D01*
X168Y371D01*
X168Y372D01*
X169Y372D01*
X169Y373D01*
X170Y373D01*
X170Y375D01*
X171Y375D01*
X171Y376D01*
X173Y376D01*
X173Y377D01*
X174Y377D01*
X174Y378D01*
X175Y378D01*
X175Y379D01*
X176Y379D01*
X176Y380D01*
X177Y380D01*
X177Y381D01*
X178Y381D01*
X178Y382D01*
X179Y382D01*
X179Y393D01*
X180Y393D01*
X180Y394D01*
X181Y394D01*
X181Y395D01*
X173Y395D01*
G37*
D02*
G36*
X135Y394D02*
X135Y393D01*
X147Y393D01*
X147Y394D01*
X135Y394D01*
G37*
D02*
G36*
X135Y394D02*
X135Y393D01*
X147Y393D01*
X147Y394D01*
X135Y394D01*
G37*
D02*
G36*
X135Y393D02*
X135Y391D01*
X140Y391D01*
X140Y390D01*
X141Y390D01*
X141Y391D01*
X144Y391D01*
X144Y392D01*
X145Y392D01*
X145Y393D01*
X135Y393D01*
G37*
D02*
G36*
X134Y391D02*
X134Y390D01*
X132Y390D01*
X132Y389D01*
X131Y389D01*
X131Y388D01*
X130Y388D01*
X130Y386D01*
X129Y386D01*
X129Y385D01*
X128Y385D01*
X128Y384D01*
X127Y384D01*
X127Y383D01*
X126Y383D01*
X126Y382D01*
X125Y382D01*
X125Y381D01*
X124Y381D01*
X124Y380D01*
X123Y380D01*
X123Y379D01*
X122Y379D01*
X122Y378D01*
X121Y378D01*
X121Y377D01*
X119Y377D01*
X119Y376D01*
X118Y376D01*
X118Y375D01*
X122Y375D01*
X122Y376D01*
X123Y376D01*
X123Y377D01*
X124Y377D01*
X124Y378D01*
X125Y378D01*
X125Y379D01*
X126Y379D01*
X126Y380D01*
X127Y380D01*
X127Y381D01*
X128Y381D01*
X128Y382D01*
X129Y382D01*
X129Y383D01*
X130Y383D01*
X130Y384D01*
X131Y384D01*
X131Y385D01*
X132Y385D01*
X132Y386D01*
X134Y386D01*
X134Y388D01*
X135Y388D01*
X135Y389D01*
X136Y389D01*
X136Y390D01*
X137Y390D01*
X137Y391D01*
X134Y391D01*
G37*
D02*
G36*
X145Y382D02*
X145Y381D01*
X144Y381D01*
X144Y380D01*
X143Y380D01*
X143Y379D01*
X151Y379D01*
X151Y378D01*
X152Y378D01*
X152Y373D01*
X151Y373D01*
X151Y372D01*
X155Y372D01*
X155Y379D01*
X154Y379D01*
X154Y380D01*
X153Y380D01*
X153Y381D01*
X152Y381D01*
X152Y382D01*
X145Y382D01*
G37*
D02*
G36*
X142Y379D02*
X142Y372D01*
X147Y372D01*
X147Y373D01*
X145Y373D01*
X145Y378D01*
X147Y378D01*
X147Y379D01*
X142Y379D01*
G37*
D02*
G36*
X114Y376D02*
X114Y375D01*
X116Y375D01*
X116Y376D01*
X114Y376D01*
G37*
D02*
G36*
X113Y375D02*
X113Y373D01*
X121Y373D01*
X121Y375D01*
X113Y375D01*
G37*
D02*
G36*
X113Y375D02*
X113Y373D01*
X121Y373D01*
X121Y375D01*
X113Y375D01*
G37*
D02*
G36*
X112Y373D02*
X112Y372D01*
X119Y372D01*
X119Y373D01*
X112Y373D01*
G37*
D02*
G36*
X93Y372D02*
X93Y371D01*
X119Y371D01*
X119Y372D01*
X93Y372D01*
G37*
D02*
G36*
X93Y372D02*
X93Y371D01*
X119Y371D01*
X119Y372D01*
X93Y372D01*
G37*
D02*
G36*
X143Y372D02*
X143Y371D01*
X154Y371D01*
X154Y372D01*
X143Y372D01*
G37*
D02*
G36*
X143Y372D02*
X143Y371D01*
X154Y371D01*
X154Y372D01*
X143Y372D01*
G37*
D02*
G36*
X95Y371D02*
X95Y370D01*
X96Y370D01*
X96Y369D01*
X97Y369D01*
X97Y368D01*
X98Y368D01*
X98Y367D01*
X99Y367D01*
X99Y366D01*
X100Y366D01*
X100Y365D01*
X101Y365D01*
X101Y364D01*
X102Y364D01*
X102Y363D01*
X103Y363D01*
X103Y362D01*
X104Y362D01*
X104Y360D01*
X105Y360D01*
X105Y359D01*
X106Y359D01*
X106Y358D01*
X108Y358D01*
X108Y357D01*
X125Y357D01*
X125Y358D01*
X124Y358D01*
X124Y359D01*
X123Y359D01*
X123Y360D01*
X122Y360D01*
X122Y362D01*
X121Y362D01*
X121Y363D01*
X119Y363D01*
X119Y364D01*
X118Y364D01*
X118Y367D01*
X119Y367D01*
X119Y368D01*
X121Y368D01*
X121Y369D01*
X122Y369D01*
X122Y370D01*
X121Y370D01*
X121Y371D01*
X95Y371D01*
G37*
D02*
G36*
X143Y371D02*
X143Y370D01*
X142Y370D01*
X142Y369D01*
X141Y369D01*
X141Y368D01*
X140Y368D01*
X140Y367D01*
X139Y367D01*
X139Y366D01*
X138Y366D01*
X138Y365D01*
X137Y365D01*
X137Y364D01*
X136Y364D01*
X136Y363D01*
X135Y363D01*
X135Y362D01*
X134Y362D01*
X134Y360D01*
X137Y360D01*
X137Y362D01*
X138Y362D01*
X138Y363D01*
X139Y363D01*
X139Y364D01*
X140Y364D01*
X140Y365D01*
X141Y365D01*
X141Y366D01*
X142Y366D01*
X142Y367D01*
X143Y367D01*
X143Y368D01*
X144Y368D01*
X144Y369D01*
X152Y369D01*
X152Y370D01*
X153Y370D01*
X153Y371D01*
X143Y371D01*
G37*
D02*
G36*
X203Y364D02*
X203Y363D01*
X202Y363D01*
X202Y362D01*
X201Y362D01*
X201Y360D01*
X208Y360D01*
X208Y359D01*
X209Y359D01*
X209Y355D01*
X208Y355D01*
X208Y354D01*
X213Y354D01*
X213Y360D01*
X212Y360D01*
X212Y362D01*
X210Y362D01*
X210Y363D01*
X209Y363D01*
X209Y364D01*
X203Y364D01*
G37*
D02*
G36*
X130Y362D02*
X130Y360D01*
X131Y360D01*
X131Y362D01*
X130Y362D01*
G37*
D02*
G36*
X129Y360D02*
X129Y359D01*
X136Y359D01*
X136Y360D01*
X129Y360D01*
G37*
D02*
G36*
X129Y360D02*
X129Y359D01*
X136Y359D01*
X136Y360D01*
X129Y360D01*
G37*
D02*
G36*
X201Y360D02*
X201Y359D01*
X200Y359D01*
X200Y354D01*
X204Y354D01*
X204Y356D01*
X203Y356D01*
X203Y358D01*
X204Y358D01*
X204Y359D01*
X205Y359D01*
X205Y360D01*
X201Y360D01*
G37*
D02*
G36*
X128Y359D02*
X128Y358D01*
X127Y358D01*
X127Y357D01*
X135Y357D01*
X135Y359D01*
X128Y359D01*
G37*
D02*
G36*
X109Y357D02*
X109Y356D01*
X136Y356D01*
X136Y357D01*
X109Y357D01*
G37*
D02*
G36*
X109Y357D02*
X109Y356D01*
X136Y356D01*
X136Y357D01*
X109Y357D01*
G37*
D02*
G36*
X110Y356D02*
X110Y355D01*
X111Y355D01*
X111Y354D01*
X112Y354D01*
X112Y353D01*
X113Y353D01*
X113Y352D01*
X114Y352D01*
X114Y351D01*
X115Y351D01*
X115Y350D01*
X116Y350D01*
X116Y348D01*
X117Y348D01*
X117Y347D01*
X118Y347D01*
X118Y346D01*
X119Y346D01*
X119Y345D01*
X121Y345D01*
X121Y344D01*
X122Y344D01*
X122Y343D01*
X123Y343D01*
X123Y342D01*
X124Y342D01*
X124Y341D01*
X141Y341D01*
X141Y342D01*
X140Y342D01*
X140Y343D01*
X139Y343D01*
X139Y344D01*
X138Y344D01*
X138Y345D01*
X137Y345D01*
X137Y346D01*
X136Y346D01*
X136Y347D01*
X135Y347D01*
X135Y348D01*
X134Y348D01*
X134Y350D01*
X132Y350D01*
X132Y351D01*
X134Y351D01*
X134Y352D01*
X135Y352D01*
X135Y353D01*
X136Y353D01*
X136Y354D01*
X137Y354D01*
X137Y356D01*
X110Y356D01*
G37*
D02*
G36*
X201Y354D02*
X201Y353D01*
X212Y353D01*
X212Y354D01*
X201Y354D01*
G37*
D02*
G36*
X201Y354D02*
X201Y353D01*
X212Y353D01*
X212Y354D01*
X201Y354D01*
G37*
D02*
G36*
X200Y353D02*
X200Y352D01*
X199Y352D01*
X199Y351D01*
X197Y351D01*
X197Y350D01*
X196Y350D01*
X196Y348D01*
X195Y348D01*
X195Y347D01*
X194Y347D01*
X194Y346D01*
X193Y346D01*
X193Y345D01*
X192Y345D01*
X192Y344D01*
X191Y344D01*
X191Y343D01*
X190Y343D01*
X190Y342D01*
X189Y342D01*
X189Y341D01*
X188Y341D01*
X188Y340D01*
X187Y340D01*
X187Y339D01*
X186Y339D01*
X186Y338D01*
X184Y338D01*
X184Y312D01*
X183Y312D01*
X183Y311D01*
X187Y311D01*
X187Y335D01*
X188Y335D01*
X188Y337D01*
X189Y337D01*
X189Y338D01*
X190Y338D01*
X190Y339D01*
X191Y339D01*
X191Y340D01*
X192Y340D01*
X192Y341D01*
X193Y341D01*
X193Y342D01*
X194Y342D01*
X194Y343D01*
X195Y343D01*
X195Y344D01*
X196Y344D01*
X196Y345D01*
X197Y345D01*
X197Y346D01*
X199Y346D01*
X199Y347D01*
X200Y347D01*
X200Y348D01*
X201Y348D01*
X201Y350D01*
X202Y350D01*
X202Y351D01*
X209Y351D01*
X209Y352D01*
X212Y352D01*
X212Y353D01*
X200Y353D01*
G37*
D02*
G36*
X147Y345D02*
X147Y344D01*
X145Y344D01*
X145Y343D01*
X149Y343D01*
X149Y344D01*
X148Y344D01*
X148Y345D01*
X147Y345D01*
G37*
D02*
G36*
X144Y343D02*
X144Y342D01*
X153Y342D01*
X153Y343D01*
X144Y343D01*
G37*
D02*
G36*
X144Y343D02*
X144Y342D01*
X153Y342D01*
X153Y343D01*
X144Y343D01*
G37*
D02*
G36*
X143Y342D02*
X143Y341D01*
X153Y341D01*
X153Y342D01*
X143Y342D01*
G37*
D02*
G36*
X125Y341D02*
X125Y340D01*
X152Y340D01*
X152Y341D01*
X125Y341D01*
G37*
D02*
G36*
X125Y341D02*
X125Y340D01*
X152Y340D01*
X152Y341D01*
X125Y341D01*
G37*
D02*
G36*
X126Y340D02*
X126Y339D01*
X127Y339D01*
X127Y338D01*
X128Y338D01*
X128Y337D01*
X129Y337D01*
X129Y335D01*
X130Y335D01*
X130Y334D01*
X131Y334D01*
X131Y333D01*
X132Y333D01*
X132Y332D01*
X134Y332D01*
X134Y331D01*
X135Y331D01*
X135Y330D01*
X136Y330D01*
X136Y329D01*
X137Y329D01*
X137Y328D01*
X138Y328D01*
X138Y327D01*
X139Y327D01*
X139Y326D01*
X140Y326D01*
X140Y325D01*
X141Y325D01*
X141Y324D01*
X158Y324D01*
X158Y325D01*
X157Y325D01*
X157Y326D01*
X156Y326D01*
X156Y327D01*
X155Y327D01*
X155Y328D01*
X154Y328D01*
X154Y329D01*
X153Y329D01*
X153Y330D01*
X152Y330D01*
X152Y331D01*
X151Y331D01*
X151Y332D01*
X150Y332D01*
X150Y335D01*
X151Y335D01*
X151Y337D01*
X152Y337D01*
X152Y338D01*
X153Y338D01*
X153Y340D01*
X126Y340D01*
G37*
D02*
G36*
X164Y328D02*
X164Y327D01*
X163Y327D01*
X163Y326D01*
X166Y326D01*
X166Y327D01*
X165Y327D01*
X165Y328D01*
X164Y328D01*
G37*
D02*
G36*
X217Y328D02*
X217Y327D01*
X215Y327D01*
X215Y326D01*
X214Y326D01*
X214Y325D01*
X213Y325D01*
X213Y324D01*
X221Y324D01*
X221Y318D01*
X225Y318D01*
X225Y319D01*
X226Y319D01*
X226Y322D01*
X225Y322D01*
X225Y325D01*
X223Y325D01*
X223Y326D01*
X222Y326D01*
X222Y327D01*
X220Y327D01*
X220Y328D01*
X217Y328D01*
G37*
D02*
G36*
X162Y326D02*
X162Y325D01*
X170Y325D01*
X170Y326D01*
X162Y326D01*
G37*
D02*
G36*
X162Y326D02*
X162Y325D01*
X170Y325D01*
X170Y326D01*
X162Y326D01*
G37*
D02*
G36*
X161Y325D02*
X161Y324D01*
X169Y324D01*
X169Y325D01*
X161Y325D01*
G37*
D02*
G36*
X142Y324D02*
X142Y322D01*
X169Y322D01*
X169Y324D01*
X142Y324D01*
G37*
D02*
G36*
X142Y324D02*
X142Y322D01*
X169Y322D01*
X169Y324D01*
X142Y324D01*
G37*
D02*
G36*
X213Y324D02*
X213Y322D01*
X212Y322D01*
X212Y319D01*
X213Y319D01*
X213Y318D01*
X216Y318D01*
X216Y324D01*
X213Y324D01*
G37*
D02*
G36*
X143Y322D02*
X143Y321D01*
X144Y321D01*
X144Y320D01*
X145Y320D01*
X145Y319D01*
X147Y319D01*
X147Y318D01*
X148Y318D01*
X148Y317D01*
X149Y317D01*
X149Y316D01*
X150Y316D01*
X150Y315D01*
X151Y315D01*
X151Y314D01*
X152Y314D01*
X152Y313D01*
X153Y313D01*
X153Y312D01*
X154Y312D01*
X154Y311D01*
X155Y311D01*
X155Y309D01*
X156Y309D01*
X156Y308D01*
X174Y308D01*
X174Y309D01*
X173Y309D01*
X173Y311D01*
X171Y311D01*
X171Y312D01*
X170Y312D01*
X170Y313D01*
X169Y313D01*
X169Y314D01*
X168Y314D01*
X168Y315D01*
X167Y315D01*
X167Y318D01*
X168Y318D01*
X168Y319D01*
X169Y319D01*
X169Y320D01*
X170Y320D01*
X170Y322D01*
X143Y322D01*
G37*
D02*
G36*
X213Y318D02*
X213Y317D01*
X225Y317D01*
X225Y318D01*
X213Y318D01*
G37*
D02*
G36*
X213Y318D02*
X213Y317D01*
X225Y317D01*
X225Y318D01*
X213Y318D01*
G37*
D02*
G36*
X214Y317D02*
X214Y316D01*
X213Y316D01*
X213Y315D01*
X217Y315D01*
X217Y314D01*
X220Y314D01*
X220Y315D01*
X222Y315D01*
X222Y316D01*
X223Y316D01*
X223Y317D01*
X214Y317D01*
G37*
D02*
G36*
X212Y315D02*
X212Y314D01*
X210Y314D01*
X210Y313D01*
X209Y313D01*
X209Y312D01*
X208Y312D01*
X208Y311D01*
X207Y311D01*
X207Y309D01*
X206Y309D01*
X206Y308D01*
X205Y308D01*
X205Y307D01*
X204Y307D01*
X204Y306D01*
X203Y306D01*
X203Y305D01*
X202Y305D01*
X202Y304D01*
X201Y304D01*
X201Y303D01*
X200Y303D01*
X200Y302D01*
X199Y302D01*
X199Y301D01*
X197Y301D01*
X197Y300D01*
X196Y300D01*
X196Y299D01*
X201Y299D01*
X201Y300D01*
X202Y300D01*
X202Y301D01*
X203Y301D01*
X203Y302D01*
X204Y302D01*
X204Y303D01*
X205Y303D01*
X205Y304D01*
X206Y304D01*
X206Y305D01*
X207Y305D01*
X207Y306D01*
X208Y306D01*
X208Y307D01*
X209Y307D01*
X209Y308D01*
X210Y308D01*
X210Y309D01*
X212Y309D01*
X212Y311D01*
X213Y311D01*
X213Y312D01*
X214Y312D01*
X214Y313D01*
X215Y313D01*
X215Y314D01*
X216Y314D01*
X216Y315D01*
X212Y315D01*
G37*
D02*
G36*
X179Y312D02*
X179Y311D01*
X181Y311D01*
X181Y312D01*
X179Y312D01*
G37*
D02*
G36*
X178Y311D02*
X178Y309D01*
X186Y309D01*
X186Y311D01*
X178Y311D01*
G37*
D02*
G36*
X178Y311D02*
X178Y309D01*
X186Y309D01*
X186Y311D01*
X178Y311D01*
G37*
D02*
G36*
X177Y309D02*
X177Y308D01*
X184Y308D01*
X184Y309D01*
X177Y309D01*
G37*
D02*
G36*
X157Y308D02*
X157Y307D01*
X184Y307D01*
X184Y308D01*
X157Y308D01*
G37*
D02*
G36*
X157Y308D02*
X157Y307D01*
X184Y307D01*
X184Y308D01*
X157Y308D01*
G37*
D02*
G36*
X158Y307D02*
X158Y306D01*
X160Y306D01*
X160Y305D01*
X161Y305D01*
X161Y304D01*
X162Y304D01*
X162Y303D01*
X163Y303D01*
X163Y302D01*
X164Y302D01*
X164Y301D01*
X165Y301D01*
X165Y300D01*
X166Y300D01*
X166Y299D01*
X167Y299D01*
X167Y298D01*
X168Y298D01*
X168Y296D01*
X169Y296D01*
X169Y295D01*
X187Y295D01*
X187Y296D01*
X186Y296D01*
X186Y298D01*
X184Y298D01*
X184Y299D01*
X183Y299D01*
X183Y300D01*
X182Y300D01*
X182Y303D01*
X183Y303D01*
X183Y304D01*
X184Y304D01*
X184Y305D01*
X186Y305D01*
X186Y307D01*
X158Y307D01*
G37*
D02*
G36*
X193Y300D02*
X193Y299D01*
X194Y299D01*
X194Y300D01*
X193Y300D01*
G37*
D02*
G36*
X192Y299D02*
X192Y298D01*
X200Y298D01*
X200Y299D01*
X192Y299D01*
G37*
D02*
G36*
X192Y299D02*
X192Y298D01*
X200Y298D01*
X200Y299D01*
X192Y299D01*
G37*
D02*
G36*
X191Y298D02*
X191Y296D01*
X190Y296D01*
X190Y295D01*
X197Y295D01*
X197Y296D01*
X199Y296D01*
X199Y298D01*
X191Y298D01*
G37*
D02*
G36*
X170Y295D02*
X170Y294D01*
X199Y294D01*
X199Y295D01*
X170Y295D01*
G37*
D02*
G36*
X170Y295D02*
X170Y294D01*
X199Y294D01*
X199Y295D01*
X170Y295D01*
G37*
D02*
G36*
X171Y294D02*
X171Y293D01*
X173Y293D01*
X173Y292D01*
X174Y292D01*
X174Y291D01*
X175Y291D01*
X175Y290D01*
X176Y290D01*
X176Y289D01*
X177Y289D01*
X177Y288D01*
X178Y288D01*
X178Y287D01*
X179Y287D01*
X179Y286D01*
X180Y286D01*
X180Y285D01*
X181Y285D01*
X181Y283D01*
X182Y283D01*
X182Y282D01*
X183Y282D01*
X183Y281D01*
X184Y281D01*
X184Y280D01*
X186Y280D01*
X186Y279D01*
X187Y279D01*
X187Y278D01*
X188Y278D01*
X188Y277D01*
X189Y277D01*
X189Y276D01*
X190Y276D01*
X190Y275D01*
X191Y275D01*
X191Y274D01*
X192Y274D01*
X192Y273D01*
X193Y273D01*
X193Y272D01*
X194Y272D01*
X194Y270D01*
X195Y270D01*
X195Y269D01*
X196Y269D01*
X196Y268D01*
X197Y268D01*
X197Y267D01*
X199Y267D01*
X199Y266D01*
X200Y266D01*
X200Y265D01*
X201Y265D01*
X201Y264D01*
X202Y264D01*
X202Y263D01*
X203Y263D01*
X203Y262D01*
X204Y262D01*
X204Y261D01*
X205Y261D01*
X205Y260D01*
X206Y260D01*
X206Y259D01*
X207Y259D01*
X207Y257D01*
X208Y257D01*
X208Y256D01*
X209Y256D01*
X209Y255D01*
X210Y255D01*
X210Y254D01*
X212Y254D01*
X212Y253D01*
X213Y253D01*
X213Y252D01*
X214Y252D01*
X214Y251D01*
X215Y251D01*
X215Y250D01*
X216Y250D01*
X216Y249D01*
X217Y249D01*
X217Y248D01*
X218Y248D01*
X218Y247D01*
X219Y247D01*
X219Y246D01*
X220Y246D01*
X220Y244D01*
X221Y244D01*
X221Y243D01*
X239Y243D01*
X239Y244D01*
X238Y244D01*
X238Y246D01*
X236Y246D01*
X236Y247D01*
X235Y247D01*
X235Y248D01*
X234Y248D01*
X234Y249D01*
X233Y249D01*
X233Y250D01*
X232Y250D01*
X232Y251D01*
X231Y251D01*
X231Y252D01*
X230Y252D01*
X230Y253D01*
X229Y253D01*
X229Y254D01*
X228Y254D01*
X228Y255D01*
X227Y255D01*
X227Y256D01*
X226Y256D01*
X226Y257D01*
X225Y257D01*
X225Y259D01*
X223Y259D01*
X223Y260D01*
X222Y260D01*
X222Y261D01*
X221Y261D01*
X221Y262D01*
X220Y262D01*
X220Y263D01*
X219Y263D01*
X219Y264D01*
X218Y264D01*
X218Y265D01*
X217Y265D01*
X217Y266D01*
X216Y266D01*
X216Y267D01*
X215Y267D01*
X215Y268D01*
X214Y268D01*
X214Y269D01*
X213Y269D01*
X213Y270D01*
X212Y270D01*
X212Y272D01*
X210Y272D01*
X210Y273D01*
X209Y273D01*
X209Y274D01*
X208Y274D01*
X208Y275D01*
X207Y275D01*
X207Y276D01*
X206Y276D01*
X206Y277D01*
X205Y277D01*
X205Y278D01*
X204Y278D01*
X204Y279D01*
X203Y279D01*
X203Y280D01*
X202Y280D01*
X202Y281D01*
X201Y281D01*
X201Y282D01*
X200Y282D01*
X200Y283D01*
X199Y283D01*
X199Y285D01*
X197Y285D01*
X197Y286D01*
X196Y286D01*
X196Y287D01*
X195Y287D01*
X195Y289D01*
X196Y289D01*
X196Y290D01*
X197Y290D01*
X197Y291D01*
X199Y291D01*
X199Y292D01*
X200Y292D01*
X200Y294D01*
X171Y294D01*
G37*
D02*
G36*
X222Y243D02*
X222Y242D01*
X252Y242D01*
X252Y243D01*
X222Y243D01*
G37*
D02*
G36*
X222Y243D02*
X222Y242D01*
X252Y242D01*
X252Y243D01*
X222Y243D01*
G37*
D02*
G36*
X223Y242D02*
X223Y241D01*
X225Y241D01*
X225Y240D01*
X226Y240D01*
X226Y239D01*
X227Y239D01*
X227Y238D01*
X228Y238D01*
X228Y237D01*
X229Y237D01*
X229Y236D01*
X230Y236D01*
X230Y235D01*
X231Y235D01*
X231Y234D01*
X232Y234D01*
X232Y233D01*
X233Y233D01*
X233Y231D01*
X234Y231D01*
X234Y230D01*
X235Y230D01*
X235Y229D01*
X236Y229D01*
X236Y228D01*
X238Y228D01*
X238Y227D01*
X239Y227D01*
X239Y226D01*
X240Y226D01*
X240Y225D01*
X241Y225D01*
X241Y224D01*
X242Y224D01*
X242Y223D01*
X243Y223D01*
X243Y222D01*
X244Y222D01*
X244Y221D01*
X245Y221D01*
X245Y220D01*
X246Y220D01*
X246Y218D01*
X247Y218D01*
X247Y217D01*
X248Y217D01*
X248Y216D01*
X249Y216D01*
X249Y218D01*
X251Y218D01*
X251Y222D01*
X252Y222D01*
X252Y242D01*
X223Y242D01*
G37*
D02*
G36*
X21Y417D02*
X21Y416D01*
X20Y416D01*
X20Y414D01*
X19Y414D01*
X19Y408D01*
X18Y408D01*
X18Y390D01*
X32Y390D01*
X32Y389D01*
X33Y389D01*
X33Y388D01*
X34Y388D01*
X34Y386D01*
X35Y386D01*
X35Y385D01*
X36Y385D01*
X36Y384D01*
X37Y384D01*
X37Y383D01*
X38Y383D01*
X38Y382D01*
X39Y382D01*
X39Y381D01*
X40Y381D01*
X40Y380D01*
X41Y380D01*
X41Y379D01*
X42Y379D01*
X42Y378D01*
X44Y378D01*
X44Y377D01*
X45Y377D01*
X45Y376D01*
X46Y376D01*
X46Y375D01*
X47Y375D01*
X47Y373D01*
X48Y373D01*
X48Y372D01*
X49Y372D01*
X49Y371D01*
X50Y371D01*
X50Y370D01*
X51Y370D01*
X51Y369D01*
X52Y369D01*
X52Y368D01*
X53Y368D01*
X53Y367D01*
X54Y367D01*
X54Y366D01*
X55Y366D01*
X55Y365D01*
X57Y365D01*
X57Y364D01*
X58Y364D01*
X58Y363D01*
X59Y363D01*
X59Y362D01*
X60Y362D01*
X60Y360D01*
X61Y360D01*
X61Y359D01*
X62Y359D01*
X62Y358D01*
X63Y358D01*
X63Y357D01*
X64Y357D01*
X64Y356D01*
X65Y356D01*
X65Y355D01*
X66Y355D01*
X66Y354D01*
X67Y354D01*
X67Y353D01*
X69Y353D01*
X69Y352D01*
X70Y352D01*
X70Y351D01*
X71Y351D01*
X71Y350D01*
X72Y350D01*
X72Y348D01*
X73Y348D01*
X73Y347D01*
X74Y347D01*
X74Y346D01*
X75Y346D01*
X75Y344D01*
X74Y344D01*
X74Y343D01*
X73Y343D01*
X73Y342D01*
X72Y342D01*
X72Y341D01*
X71Y341D01*
X71Y339D01*
X83Y339D01*
X83Y338D01*
X84Y338D01*
X84Y337D01*
X85Y337D01*
X85Y335D01*
X86Y335D01*
X86Y334D01*
X87Y334D01*
X87Y333D01*
X88Y333D01*
X88Y331D01*
X87Y331D01*
X87Y330D01*
X86Y330D01*
X86Y329D01*
X85Y329D01*
X85Y328D01*
X84Y328D01*
X84Y327D01*
X85Y327D01*
X85Y326D01*
X96Y326D01*
X96Y325D01*
X97Y325D01*
X97Y324D01*
X98Y324D01*
X98Y322D01*
X99Y322D01*
X99Y321D01*
X100Y321D01*
X100Y320D01*
X101Y320D01*
X101Y319D01*
X102Y319D01*
X102Y318D01*
X103Y318D01*
X103Y316D01*
X102Y316D01*
X102Y315D01*
X101Y315D01*
X101Y314D01*
X100Y314D01*
X100Y313D01*
X99Y313D01*
X99Y312D01*
X100Y312D01*
X100Y311D01*
X111Y311D01*
X111Y309D01*
X112Y309D01*
X112Y308D01*
X113Y308D01*
X113Y307D01*
X114Y307D01*
X114Y306D01*
X115Y306D01*
X115Y305D01*
X116Y305D01*
X116Y304D01*
X117Y304D01*
X117Y303D01*
X118Y303D01*
X118Y302D01*
X119Y302D01*
X119Y301D01*
X121Y301D01*
X121Y299D01*
X119Y299D01*
X119Y298D01*
X118Y298D01*
X118Y296D01*
X117Y296D01*
X117Y295D01*
X116Y295D01*
X116Y294D01*
X117Y294D01*
X117Y293D01*
X128Y293D01*
X128Y292D01*
X129Y292D01*
X129Y291D01*
X130Y291D01*
X130Y290D01*
X131Y290D01*
X131Y289D01*
X132Y289D01*
X132Y288D01*
X134Y288D01*
X134Y287D01*
X135Y287D01*
X135Y286D01*
X136Y286D01*
X136Y285D01*
X137Y285D01*
X137Y281D01*
X136Y281D01*
X136Y280D01*
X135Y280D01*
X135Y279D01*
X134Y279D01*
X134Y277D01*
X135Y277D01*
X135Y276D01*
X145Y276D01*
X145Y275D01*
X147Y275D01*
X147Y274D01*
X148Y274D01*
X148Y273D01*
X149Y273D01*
X149Y272D01*
X150Y272D01*
X150Y270D01*
X151Y270D01*
X151Y269D01*
X152Y269D01*
X152Y267D01*
X151Y267D01*
X151Y266D01*
X150Y266D01*
X150Y265D01*
X149Y265D01*
X149Y263D01*
X150Y263D01*
X150Y262D01*
X160Y262D01*
X160Y261D01*
X161Y261D01*
X161Y260D01*
X162Y260D01*
X162Y259D01*
X163Y259D01*
X163Y257D01*
X164Y257D01*
X164Y256D01*
X165Y256D01*
X165Y255D01*
X166Y255D01*
X166Y254D01*
X167Y254D01*
X167Y253D01*
X168Y253D01*
X168Y252D01*
X169Y252D01*
X169Y251D01*
X170Y251D01*
X170Y250D01*
X171Y250D01*
X171Y249D01*
X173Y249D01*
X173Y248D01*
X174Y248D01*
X174Y247D01*
X175Y247D01*
X175Y246D01*
X176Y246D01*
X176Y244D01*
X177Y244D01*
X177Y243D01*
X178Y243D01*
X178Y242D01*
X179Y242D01*
X179Y241D01*
X180Y241D01*
X180Y240D01*
X181Y240D01*
X181Y239D01*
X182Y239D01*
X182Y238D01*
X183Y238D01*
X183Y237D01*
X184Y237D01*
X184Y236D01*
X186Y236D01*
X186Y235D01*
X187Y235D01*
X187Y234D01*
X188Y234D01*
X188Y233D01*
X189Y233D01*
X189Y231D01*
X190Y231D01*
X190Y230D01*
X191Y230D01*
X191Y229D01*
X192Y229D01*
X192Y228D01*
X193Y228D01*
X193Y227D01*
X194Y227D01*
X194Y226D01*
X195Y226D01*
X195Y225D01*
X196Y225D01*
X196Y224D01*
X197Y224D01*
X197Y223D01*
X199Y223D01*
X199Y222D01*
X200Y222D01*
X200Y221D01*
X201Y221D01*
X201Y220D01*
X202Y220D01*
X202Y218D01*
X203Y218D01*
X203Y217D01*
X204Y217D01*
X204Y216D01*
X205Y216D01*
X205Y215D01*
X206Y215D01*
X206Y214D01*
X207Y214D01*
X207Y213D01*
X208Y213D01*
X208Y212D01*
X226Y212D01*
X226Y213D01*
X225Y213D01*
X225Y214D01*
X223Y214D01*
X223Y215D01*
X222Y215D01*
X222Y216D01*
X221Y216D01*
X221Y217D01*
X220Y217D01*
X220Y218D01*
X219Y218D01*
X219Y220D01*
X218Y220D01*
X218Y221D01*
X217Y221D01*
X217Y222D01*
X216Y222D01*
X216Y223D01*
X215Y223D01*
X215Y224D01*
X214Y224D01*
X214Y225D01*
X213Y225D01*
X213Y226D01*
X212Y226D01*
X212Y227D01*
X210Y227D01*
X210Y228D01*
X209Y228D01*
X209Y229D01*
X208Y229D01*
X208Y230D01*
X207Y230D01*
X207Y231D01*
X206Y231D01*
X206Y233D01*
X205Y233D01*
X205Y234D01*
X204Y234D01*
X204Y235D01*
X203Y235D01*
X203Y236D01*
X202Y236D01*
X202Y237D01*
X201Y237D01*
X201Y238D01*
X200Y238D01*
X200Y239D01*
X199Y239D01*
X199Y240D01*
X197Y240D01*
X197Y241D01*
X196Y241D01*
X196Y242D01*
X195Y242D01*
X195Y243D01*
X194Y243D01*
X194Y244D01*
X193Y244D01*
X193Y246D01*
X192Y246D01*
X192Y247D01*
X191Y247D01*
X191Y248D01*
X190Y248D01*
X190Y249D01*
X189Y249D01*
X189Y250D01*
X188Y250D01*
X188Y251D01*
X187Y251D01*
X187Y252D01*
X186Y252D01*
X186Y253D01*
X184Y253D01*
X184Y254D01*
X183Y254D01*
X183Y255D01*
X182Y255D01*
X182Y256D01*
X181Y256D01*
X181Y257D01*
X180Y257D01*
X180Y259D01*
X179Y259D01*
X179Y260D01*
X178Y260D01*
X178Y261D01*
X177Y261D01*
X177Y262D01*
X176Y262D01*
X176Y263D01*
X175Y263D01*
X175Y264D01*
X174Y264D01*
X174Y265D01*
X173Y265D01*
X173Y266D01*
X171Y266D01*
X171Y267D01*
X170Y267D01*
X170Y268D01*
X169Y268D01*
X169Y269D01*
X168Y269D01*
X168Y270D01*
X167Y270D01*
X167Y272D01*
X166Y272D01*
X166Y273D01*
X165Y273D01*
X165Y274D01*
X164Y274D01*
X164Y275D01*
X163Y275D01*
X163Y276D01*
X162Y276D01*
X162Y277D01*
X161Y277D01*
X161Y278D01*
X160Y278D01*
X160Y279D01*
X158Y279D01*
X158Y280D01*
X157Y280D01*
X157Y281D01*
X156Y281D01*
X156Y282D01*
X155Y282D01*
X155Y283D01*
X154Y283D01*
X154Y285D01*
X153Y285D01*
X153Y286D01*
X152Y286D01*
X152Y287D01*
X151Y287D01*
X151Y288D01*
X150Y288D01*
X150Y289D01*
X149Y289D01*
X149Y290D01*
X148Y290D01*
X148Y291D01*
X147Y291D01*
X147Y292D01*
X145Y292D01*
X145Y293D01*
X144Y293D01*
X144Y294D01*
X143Y294D01*
X143Y295D01*
X142Y295D01*
X142Y296D01*
X141Y296D01*
X141Y298D01*
X140Y298D01*
X140Y299D01*
X139Y299D01*
X139Y300D01*
X138Y300D01*
X138Y301D01*
X137Y301D01*
X137Y302D01*
X136Y302D01*
X136Y303D01*
X135Y303D01*
X135Y304D01*
X134Y304D01*
X134Y305D01*
X132Y305D01*
X132Y306D01*
X131Y306D01*
X131Y307D01*
X130Y307D01*
X130Y308D01*
X129Y308D01*
X129Y309D01*
X128Y309D01*
X128Y311D01*
X127Y311D01*
X127Y312D01*
X126Y312D01*
X126Y313D01*
X125Y313D01*
X125Y314D01*
X124Y314D01*
X124Y315D01*
X123Y315D01*
X123Y316D01*
X122Y316D01*
X122Y317D01*
X121Y317D01*
X121Y318D01*
X119Y318D01*
X119Y319D01*
X118Y319D01*
X118Y320D01*
X117Y320D01*
X117Y321D01*
X116Y321D01*
X116Y322D01*
X115Y322D01*
X115Y324D01*
X114Y324D01*
X114Y325D01*
X113Y325D01*
X113Y326D01*
X112Y326D01*
X112Y327D01*
X111Y327D01*
X111Y328D01*
X110Y328D01*
X110Y329D01*
X109Y329D01*
X109Y330D01*
X108Y330D01*
X108Y331D01*
X106Y331D01*
X106Y332D01*
X105Y332D01*
X105Y333D01*
X104Y333D01*
X104Y334D01*
X103Y334D01*
X103Y335D01*
X102Y335D01*
X102Y337D01*
X101Y337D01*
X101Y338D01*
X100Y338D01*
X100Y339D01*
X99Y339D01*
X99Y340D01*
X98Y340D01*
X98Y341D01*
X97Y341D01*
X97Y342D01*
X96Y342D01*
X96Y343D01*
X95Y343D01*
X95Y344D01*
X93Y344D01*
X93Y345D01*
X92Y345D01*
X92Y346D01*
X91Y346D01*
X91Y347D01*
X90Y347D01*
X90Y348D01*
X89Y348D01*
X89Y350D01*
X88Y350D01*
X88Y351D01*
X87Y351D01*
X87Y352D01*
X86Y352D01*
X86Y353D01*
X85Y353D01*
X85Y354D01*
X84Y354D01*
X84Y355D01*
X83Y355D01*
X83Y356D01*
X82Y356D01*
X82Y357D01*
X80Y357D01*
X80Y358D01*
X79Y358D01*
X79Y359D01*
X78Y359D01*
X78Y360D01*
X77Y360D01*
X77Y362D01*
X76Y362D01*
X76Y363D01*
X75Y363D01*
X75Y364D01*
X74Y364D01*
X74Y365D01*
X73Y365D01*
X73Y366D01*
X72Y366D01*
X72Y367D01*
X71Y367D01*
X71Y368D01*
X70Y368D01*
X70Y369D01*
X69Y369D01*
X69Y370D01*
X67Y370D01*
X67Y371D01*
X66Y371D01*
X66Y372D01*
X65Y372D01*
X65Y373D01*
X64Y373D01*
X64Y375D01*
X63Y375D01*
X63Y376D01*
X62Y376D01*
X62Y377D01*
X61Y377D01*
X61Y378D01*
X60Y378D01*
X60Y379D01*
X59Y379D01*
X59Y380D01*
X58Y380D01*
X58Y381D01*
X57Y381D01*
X57Y382D01*
X55Y382D01*
X55Y383D01*
X54Y383D01*
X54Y384D01*
X53Y384D01*
X53Y385D01*
X52Y385D01*
X52Y386D01*
X51Y386D01*
X51Y388D01*
X50Y388D01*
X50Y389D01*
X49Y389D01*
X49Y390D01*
X48Y390D01*
X48Y391D01*
X47Y391D01*
X47Y392D01*
X46Y392D01*
X46Y393D01*
X45Y393D01*
X45Y394D01*
X44Y394D01*
X44Y395D01*
X42Y395D01*
X42Y396D01*
X41Y396D01*
X41Y397D01*
X40Y397D01*
X40Y398D01*
X39Y398D01*
X39Y399D01*
X38Y399D01*
X38Y401D01*
X37Y401D01*
X37Y402D01*
X36Y402D01*
X36Y403D01*
X35Y403D01*
X35Y404D01*
X34Y404D01*
X34Y405D01*
X33Y405D01*
X33Y406D01*
X32Y406D01*
X32Y407D01*
X31Y407D01*
X31Y408D01*
X29Y408D01*
X29Y409D01*
X28Y409D01*
X28Y410D01*
X27Y410D01*
X27Y411D01*
X26Y411D01*
X26Y412D01*
X25Y412D01*
X25Y414D01*
X24Y414D01*
X24Y415D01*
X23Y415D01*
X23Y416D01*
X22Y416D01*
X22Y417D01*
X21Y417D01*
G37*
D02*
G36*
X18Y390D02*
X18Y225D01*
X19Y225D01*
X19Y221D01*
X20Y221D01*
X20Y217D01*
X21Y217D01*
X21Y215D01*
X22Y215D01*
X22Y213D01*
X23Y213D01*
X23Y212D01*
X49Y212D01*
X49Y213D01*
X46Y213D01*
X46Y214D01*
X44Y214D01*
X44Y215D01*
X42Y215D01*
X42Y216D01*
X40Y216D01*
X40Y217D01*
X39Y217D01*
X39Y218D01*
X38Y218D01*
X38Y220D01*
X37Y220D01*
X37Y221D01*
X36Y221D01*
X36Y222D01*
X35Y222D01*
X35Y223D01*
X34Y223D01*
X34Y225D01*
X33Y225D01*
X33Y227D01*
X32Y227D01*
X32Y230D01*
X31Y230D01*
X31Y235D01*
X29Y235D01*
X29Y390D01*
X18Y390D01*
G37*
D02*
G36*
X72Y339D02*
X72Y335D01*
X75Y335D01*
X75Y334D01*
X77Y334D01*
X77Y335D01*
X78Y335D01*
X78Y337D01*
X79Y337D01*
X79Y338D01*
X80Y338D01*
X80Y339D01*
X72Y339D01*
G37*
D02*
G36*
X71Y335D02*
X71Y334D01*
X70Y334D01*
X70Y333D01*
X69Y333D01*
X69Y332D01*
X67Y332D01*
X67Y331D01*
X66Y331D01*
X66Y330D01*
X65Y330D01*
X65Y329D01*
X64Y329D01*
X64Y328D01*
X63Y328D01*
X63Y327D01*
X62Y327D01*
X62Y326D01*
X61Y326D01*
X61Y325D01*
X60Y325D01*
X60Y324D01*
X59Y324D01*
X59Y322D01*
X58Y322D01*
X58Y321D01*
X57Y321D01*
X57Y320D01*
X55Y320D01*
X55Y319D01*
X48Y319D01*
X48Y318D01*
X47Y318D01*
X47Y317D01*
X46Y317D01*
X46Y316D01*
X53Y316D01*
X53Y315D01*
X54Y315D01*
X54Y311D01*
X53Y311D01*
X53Y309D01*
X58Y309D01*
X58Y316D01*
X57Y316D01*
X57Y318D01*
X58Y318D01*
X58Y319D01*
X59Y319D01*
X59Y320D01*
X60Y320D01*
X60Y321D01*
X61Y321D01*
X61Y322D01*
X62Y322D01*
X62Y324D01*
X63Y324D01*
X63Y325D01*
X64Y325D01*
X64Y326D01*
X65Y326D01*
X65Y327D01*
X66Y327D01*
X66Y328D01*
X67Y328D01*
X67Y329D01*
X69Y329D01*
X69Y330D01*
X70Y330D01*
X70Y331D01*
X71Y331D01*
X71Y332D01*
X72Y332D01*
X72Y333D01*
X73Y333D01*
X73Y334D01*
X74Y334D01*
X74Y335D01*
X71Y335D01*
G37*
D02*
G36*
X86Y326D02*
X86Y325D01*
X85Y325D01*
X85Y324D01*
X84Y324D01*
X84Y322D01*
X89Y322D01*
X89Y321D01*
X91Y321D01*
X91Y322D01*
X92Y322D01*
X92Y324D01*
X93Y324D01*
X93Y325D01*
X95Y325D01*
X95Y326D01*
X86Y326D01*
G37*
D02*
G36*
X84Y322D02*
X84Y298D01*
X83Y298D01*
X83Y296D01*
X82Y296D01*
X82Y295D01*
X80Y295D01*
X80Y294D01*
X79Y294D01*
X79Y293D01*
X78Y293D01*
X78Y292D01*
X77Y292D01*
X77Y291D01*
X76Y291D01*
X76Y290D01*
X75Y290D01*
X75Y289D01*
X74Y289D01*
X74Y288D01*
X73Y288D01*
X73Y287D01*
X72Y287D01*
X72Y286D01*
X71Y286D01*
X71Y285D01*
X70Y285D01*
X70Y283D01*
X69Y283D01*
X69Y282D01*
X72Y282D01*
X72Y283D01*
X73Y283D01*
X73Y285D01*
X74Y285D01*
X74Y286D01*
X75Y286D01*
X75Y287D01*
X76Y287D01*
X76Y288D01*
X77Y288D01*
X77Y289D01*
X78Y289D01*
X78Y290D01*
X79Y290D01*
X79Y291D01*
X80Y291D01*
X80Y292D01*
X82Y292D01*
X82Y293D01*
X83Y293D01*
X83Y294D01*
X84Y294D01*
X84Y295D01*
X85Y295D01*
X85Y296D01*
X86Y296D01*
X86Y322D01*
X84Y322D01*
G37*
D02*
G36*
X45Y316D02*
X45Y309D01*
X49Y309D01*
X49Y311D01*
X48Y311D01*
X48Y314D01*
X49Y314D01*
X49Y315D01*
X50Y315D01*
X50Y316D01*
X45Y316D01*
G37*
D02*
G36*
X101Y311D02*
X101Y309D01*
X100Y309D01*
X100Y308D01*
X99Y308D01*
X99Y307D01*
X104Y307D01*
X104Y306D01*
X106Y306D01*
X106Y307D01*
X108Y307D01*
X108Y308D01*
X109Y308D01*
X109Y309D01*
X110Y309D01*
X110Y311D01*
X101Y311D01*
G37*
D02*
G36*
X46Y309D02*
X46Y308D01*
X57Y308D01*
X57Y309D01*
X46Y309D01*
G37*
D02*
G36*
X46Y309D02*
X46Y308D01*
X57Y308D01*
X57Y309D01*
X46Y309D01*
G37*
D02*
G36*
X47Y308D02*
X47Y307D01*
X48Y307D01*
X48Y306D01*
X54Y306D01*
X54Y307D01*
X57Y307D01*
X57Y308D01*
X47Y308D01*
G37*
D02*
G36*
X99Y307D02*
X99Y279D01*
X98Y279D01*
X98Y278D01*
X97Y278D01*
X97Y277D01*
X96Y277D01*
X96Y276D01*
X95Y276D01*
X95Y275D01*
X93Y275D01*
X93Y274D01*
X92Y274D01*
X92Y273D01*
X91Y273D01*
X91Y272D01*
X90Y272D01*
X90Y270D01*
X89Y270D01*
X89Y269D01*
X88Y269D01*
X88Y268D01*
X87Y268D01*
X87Y267D01*
X86Y267D01*
X86Y266D01*
X85Y266D01*
X85Y265D01*
X84Y265D01*
X84Y264D01*
X83Y264D01*
X83Y263D01*
X82Y263D01*
X82Y262D01*
X80Y262D01*
X80Y261D01*
X79Y261D01*
X79Y260D01*
X78Y260D01*
X78Y259D01*
X77Y259D01*
X77Y257D01*
X76Y257D01*
X76Y256D01*
X75Y256D01*
X75Y255D01*
X74Y255D01*
X74Y254D01*
X73Y254D01*
X73Y253D01*
X72Y253D01*
X72Y252D01*
X71Y252D01*
X71Y251D01*
X70Y251D01*
X70Y250D01*
X69Y250D01*
X69Y249D01*
X67Y249D01*
X67Y248D01*
X66Y248D01*
X66Y247D01*
X65Y247D01*
X65Y246D01*
X64Y246D01*
X64Y244D01*
X63Y244D01*
X63Y243D01*
X62Y243D01*
X62Y242D01*
X61Y242D01*
X61Y241D01*
X60Y241D01*
X60Y240D01*
X59Y240D01*
X59Y239D01*
X62Y239D01*
X62Y240D01*
X63Y240D01*
X63Y241D01*
X64Y241D01*
X64Y242D01*
X65Y242D01*
X65Y243D01*
X66Y243D01*
X66Y244D01*
X67Y244D01*
X67Y246D01*
X69Y246D01*
X69Y247D01*
X70Y247D01*
X70Y248D01*
X71Y248D01*
X71Y249D01*
X72Y249D01*
X72Y250D01*
X73Y250D01*
X73Y251D01*
X74Y251D01*
X74Y252D01*
X75Y252D01*
X75Y253D01*
X76Y253D01*
X76Y254D01*
X77Y254D01*
X77Y255D01*
X78Y255D01*
X78Y256D01*
X79Y256D01*
X79Y257D01*
X80Y257D01*
X80Y259D01*
X82Y259D01*
X82Y260D01*
X83Y260D01*
X83Y261D01*
X84Y261D01*
X84Y262D01*
X85Y262D01*
X85Y263D01*
X86Y263D01*
X86Y264D01*
X87Y264D01*
X87Y265D01*
X88Y265D01*
X88Y266D01*
X89Y266D01*
X89Y267D01*
X90Y267D01*
X90Y268D01*
X91Y268D01*
X91Y269D01*
X92Y269D01*
X92Y270D01*
X93Y270D01*
X93Y272D01*
X95Y272D01*
X95Y273D01*
X96Y273D01*
X96Y274D01*
X97Y274D01*
X97Y275D01*
X98Y275D01*
X98Y276D01*
X99Y276D01*
X99Y277D01*
X100Y277D01*
X100Y278D01*
X101Y278D01*
X101Y306D01*
X102Y306D01*
X102Y307D01*
X99Y307D01*
G37*
D02*
G36*
X118Y293D02*
X118Y292D01*
X117Y292D01*
X117Y291D01*
X121Y291D01*
X121Y290D01*
X122Y290D01*
X122Y289D01*
X124Y289D01*
X124Y290D01*
X125Y290D01*
X125Y291D01*
X126Y291D01*
X126Y292D01*
X127Y292D01*
X127Y293D01*
X118Y293D01*
G37*
D02*
G36*
X116Y291D02*
X116Y275D01*
X115Y275D01*
X115Y274D01*
X114Y274D01*
X114Y273D01*
X113Y273D01*
X113Y272D01*
X112Y272D01*
X112Y270D01*
X111Y270D01*
X111Y269D01*
X110Y269D01*
X110Y268D01*
X109Y268D01*
X109Y267D01*
X108Y267D01*
X108Y266D01*
X106Y266D01*
X106Y265D01*
X105Y265D01*
X105Y264D01*
X104Y264D01*
X104Y263D01*
X103Y263D01*
X103Y262D01*
X102Y262D01*
X102Y261D01*
X101Y261D01*
X101Y260D01*
X100Y260D01*
X100Y259D01*
X99Y259D01*
X99Y257D01*
X98Y257D01*
X98Y256D01*
X97Y256D01*
X97Y255D01*
X96Y255D01*
X96Y254D01*
X95Y254D01*
X95Y253D01*
X93Y253D01*
X93Y252D01*
X92Y252D01*
X92Y251D01*
X91Y251D01*
X91Y250D01*
X90Y250D01*
X90Y240D01*
X89Y240D01*
X89Y239D01*
X88Y239D01*
X88Y238D01*
X87Y238D01*
X87Y237D01*
X96Y237D01*
X96Y235D01*
X97Y235D01*
X97Y234D01*
X96Y234D01*
X96Y231D01*
X100Y231D01*
X100Y237D01*
X99Y237D01*
X99Y238D01*
X98Y238D01*
X98Y239D01*
X97Y239D01*
X97Y240D01*
X95Y240D01*
X95Y241D01*
X93Y241D01*
X93Y250D01*
X95Y250D01*
X95Y251D01*
X96Y251D01*
X96Y252D01*
X97Y252D01*
X97Y253D01*
X98Y253D01*
X98Y254D01*
X99Y254D01*
X99Y255D01*
X100Y255D01*
X100Y256D01*
X101Y256D01*
X101Y257D01*
X102Y257D01*
X102Y259D01*
X103Y259D01*
X103Y260D01*
X104Y260D01*
X104Y261D01*
X105Y261D01*
X105Y262D01*
X106Y262D01*
X106Y263D01*
X108Y263D01*
X108Y264D01*
X109Y264D01*
X109Y265D01*
X110Y265D01*
X110Y266D01*
X111Y266D01*
X111Y267D01*
X112Y267D01*
X112Y268D01*
X113Y268D01*
X113Y269D01*
X114Y269D01*
X114Y270D01*
X115Y270D01*
X115Y272D01*
X116Y272D01*
X116Y273D01*
X117Y273D01*
X117Y274D01*
X118Y274D01*
X118Y275D01*
X119Y275D01*
X119Y291D01*
X116Y291D01*
G37*
D02*
G36*
X62Y283D02*
X62Y282D01*
X65Y282D01*
X65Y283D01*
X62Y283D01*
G37*
D02*
G36*
X60Y282D02*
X60Y281D01*
X71Y281D01*
X71Y282D01*
X60Y282D01*
G37*
D02*
G36*
X60Y282D02*
X60Y281D01*
X71Y281D01*
X71Y282D01*
X60Y282D01*
G37*
D02*
G36*
X59Y281D02*
X59Y280D01*
X58Y280D01*
X58Y279D01*
X66Y279D01*
X66Y274D01*
X70Y274D01*
X70Y275D01*
X71Y275D01*
X71Y278D01*
X70Y278D01*
X70Y281D01*
X59Y281D01*
G37*
D02*
G36*
X58Y279D02*
X58Y278D01*
X57Y278D01*
X57Y275D01*
X58Y275D01*
X58Y274D01*
X61Y274D01*
X61Y279D01*
X58Y279D01*
G37*
D02*
G36*
X136Y276D02*
X136Y275D01*
X135Y275D01*
X135Y274D01*
X138Y274D01*
X138Y273D01*
X140Y273D01*
X140Y274D01*
X141Y274D01*
X141Y275D01*
X142Y275D01*
X142Y276D01*
X136Y276D01*
G37*
D02*
G36*
X58Y274D02*
X58Y273D01*
X70Y273D01*
X70Y274D01*
X58Y274D01*
G37*
D02*
G36*
X58Y274D02*
X58Y273D01*
X70Y273D01*
X70Y274D01*
X58Y274D01*
G37*
D02*
G36*
X134Y274D02*
X134Y273D01*
X132Y273D01*
X132Y272D01*
X131Y272D01*
X131Y270D01*
X130Y270D01*
X130Y269D01*
X129Y269D01*
X129Y268D01*
X128Y268D01*
X128Y267D01*
X127Y267D01*
X127Y266D01*
X126Y266D01*
X126Y265D01*
X125Y265D01*
X125Y264D01*
X128Y264D01*
X128Y265D01*
X129Y265D01*
X129Y266D01*
X130Y266D01*
X130Y267D01*
X131Y267D01*
X131Y268D01*
X132Y268D01*
X132Y269D01*
X134Y269D01*
X134Y270D01*
X135Y270D01*
X135Y272D01*
X136Y272D01*
X136Y273D01*
X137Y273D01*
X137Y274D01*
X134Y274D01*
G37*
D02*
G36*
X59Y273D02*
X59Y272D01*
X60Y272D01*
X60Y270D01*
X62Y270D01*
X62Y269D01*
X65Y269D01*
X65Y270D01*
X67Y270D01*
X67Y272D01*
X69Y272D01*
X69Y273D01*
X59Y273D01*
G37*
D02*
G36*
X121Y265D02*
X121Y264D01*
X123Y264D01*
X123Y265D01*
X121Y265D01*
G37*
D02*
G36*
X117Y264D02*
X117Y263D01*
X127Y263D01*
X127Y264D01*
X117Y264D01*
G37*
D02*
G36*
X117Y264D02*
X117Y263D01*
X127Y263D01*
X127Y264D01*
X117Y264D01*
G37*
D02*
G36*
X116Y263D02*
X116Y262D01*
X115Y262D01*
X115Y261D01*
X124Y261D01*
X124Y260D01*
X125Y260D01*
X125Y256D01*
X124Y256D01*
X124Y255D01*
X123Y255D01*
X123Y254D01*
X127Y254D01*
X127Y255D01*
X128Y255D01*
X128Y261D01*
X127Y261D01*
X127Y263D01*
X116Y263D01*
G37*
D02*
G36*
X151Y262D02*
X151Y261D01*
X150Y261D01*
X150Y260D01*
X149Y260D01*
X149Y259D01*
X154Y259D01*
X154Y257D01*
X155Y257D01*
X155Y259D01*
X156Y259D01*
X156Y260D01*
X157Y260D01*
X157Y261D01*
X158Y261D01*
X158Y262D01*
X151Y262D01*
G37*
D02*
G36*
X115Y261D02*
X115Y259D01*
X114Y259D01*
X114Y257D01*
X115Y257D01*
X115Y254D01*
X121Y254D01*
X121Y255D01*
X118Y255D01*
X118Y260D01*
X119Y260D01*
X119Y261D01*
X115Y261D01*
G37*
D02*
G36*
X148Y259D02*
X148Y257D01*
X147Y257D01*
X147Y256D01*
X145Y256D01*
X145Y255D01*
X144Y255D01*
X144Y254D01*
X143Y254D01*
X143Y253D01*
X142Y253D01*
X142Y252D01*
X141Y252D01*
X141Y251D01*
X140Y251D01*
X140Y250D01*
X139Y250D01*
X139Y249D01*
X138Y249D01*
X138Y248D01*
X137Y248D01*
X137Y247D01*
X136Y247D01*
X136Y246D01*
X135Y246D01*
X135Y244D01*
X134Y244D01*
X134Y243D01*
X132Y243D01*
X132Y242D01*
X137Y242D01*
X137Y243D01*
X138Y243D01*
X138Y244D01*
X139Y244D01*
X139Y246D01*
X140Y246D01*
X140Y247D01*
X141Y247D01*
X141Y248D01*
X142Y248D01*
X142Y249D01*
X143Y249D01*
X143Y250D01*
X144Y250D01*
X144Y251D01*
X145Y251D01*
X145Y252D01*
X147Y252D01*
X147Y253D01*
X148Y253D01*
X148Y254D01*
X149Y254D01*
X149Y255D01*
X150Y255D01*
X150Y256D01*
X151Y256D01*
X151Y257D01*
X152Y257D01*
X152Y259D01*
X148Y259D01*
G37*
D02*
G36*
X116Y254D02*
X116Y253D01*
X127Y253D01*
X127Y254D01*
X116Y254D01*
G37*
D02*
G36*
X116Y254D02*
X116Y253D01*
X127Y253D01*
X127Y254D01*
X116Y254D01*
G37*
D02*
G36*
X117Y253D02*
X117Y252D01*
X119Y252D01*
X119Y251D01*
X124Y251D01*
X124Y252D01*
X126Y252D01*
X126Y253D01*
X117Y253D01*
G37*
D02*
G36*
X127Y243D02*
X127Y242D01*
X131Y242D01*
X131Y243D01*
X127Y243D01*
G37*
D02*
G36*
X126Y242D02*
X126Y241D01*
X136Y241D01*
X136Y242D01*
X126Y242D01*
G37*
D02*
G36*
X126Y242D02*
X126Y241D01*
X136Y241D01*
X136Y242D01*
X126Y242D01*
G37*
D02*
G36*
X125Y241D02*
X125Y240D01*
X130Y240D01*
X130Y239D01*
X132Y239D01*
X132Y234D01*
X136Y234D01*
X136Y235D01*
X137Y235D01*
X137Y238D01*
X136Y238D01*
X136Y240D01*
X135Y240D01*
X135Y241D01*
X125Y241D01*
G37*
D02*
G36*
X53Y240D02*
X53Y239D01*
X55Y239D01*
X55Y240D01*
X53Y240D01*
G37*
D02*
G36*
X124Y240D02*
X124Y239D01*
X123Y239D01*
X123Y234D01*
X127Y234D01*
X127Y236D01*
X126Y236D01*
X126Y238D01*
X127Y238D01*
X127Y239D01*
X129Y239D01*
X129Y240D01*
X124Y240D01*
G37*
D02*
G36*
X50Y239D02*
X50Y238D01*
X61Y238D01*
X61Y239D01*
X50Y239D01*
G37*
D02*
G36*
X50Y239D02*
X50Y238D01*
X61Y238D01*
X61Y239D01*
X50Y239D01*
G37*
D02*
G36*
X49Y238D02*
X49Y236D01*
X57Y236D01*
X57Y235D01*
X58Y235D01*
X58Y231D01*
X57Y231D01*
X57Y230D01*
X55Y230D01*
X55Y229D01*
X60Y229D01*
X60Y230D01*
X61Y230D01*
X61Y236D01*
X60Y236D01*
X60Y238D01*
X49Y238D01*
G37*
D02*
G36*
X87Y237D02*
X87Y236D01*
X86Y236D01*
X86Y233D01*
X87Y233D01*
X87Y231D01*
X90Y231D01*
X90Y237D01*
X87Y237D01*
G37*
D02*
G36*
X48Y236D02*
X48Y229D01*
X53Y229D01*
X53Y230D01*
X51Y230D01*
X51Y235D01*
X52Y235D01*
X52Y236D01*
X48Y236D01*
G37*
D02*
G36*
X124Y234D02*
X124Y233D01*
X136Y233D01*
X136Y234D01*
X124Y234D01*
G37*
D02*
G36*
X124Y234D02*
X124Y233D01*
X136Y233D01*
X136Y234D01*
X124Y234D01*
G37*
D02*
G36*
X125Y233D02*
X125Y231D01*
X126Y231D01*
X126Y230D01*
X128Y230D01*
X128Y229D01*
X131Y229D01*
X131Y230D01*
X134Y230D01*
X134Y231D01*
X135Y231D01*
X135Y233D01*
X125Y233D01*
G37*
D02*
G36*
X87Y231D02*
X87Y230D01*
X99Y230D01*
X99Y231D01*
X87Y231D01*
G37*
D02*
G36*
X87Y231D02*
X87Y230D01*
X99Y230D01*
X99Y231D01*
X87Y231D01*
G37*
D02*
G36*
X88Y230D02*
X88Y229D01*
X89Y229D01*
X89Y228D01*
X91Y228D01*
X91Y227D01*
X95Y227D01*
X95Y228D01*
X97Y228D01*
X97Y229D01*
X98Y229D01*
X98Y230D01*
X88Y230D01*
G37*
D02*
G36*
X49Y229D02*
X49Y228D01*
X60Y228D01*
X60Y229D01*
X49Y229D01*
G37*
D02*
G36*
X49Y229D02*
X49Y228D01*
X60Y228D01*
X60Y229D01*
X49Y229D01*
G37*
D02*
G36*
X50Y228D02*
X50Y227D01*
X52Y227D01*
X52Y226D01*
X57Y226D01*
X57Y227D01*
X59Y227D01*
X59Y228D01*
X50Y228D01*
G37*
D02*
G36*
X24Y212D02*
X24Y211D01*
X227Y211D01*
X227Y212D01*
X24Y212D01*
G37*
D02*
G36*
X24Y212D02*
X24Y211D01*
X227Y211D01*
X227Y212D01*
X24Y212D01*
G37*
D02*
G36*
X24Y211D02*
X24Y210D01*
X25Y210D01*
X25Y209D01*
X26Y209D01*
X26Y208D01*
X27Y208D01*
X27Y207D01*
X28Y207D01*
X28Y205D01*
X31Y205D01*
X31Y204D01*
X32Y204D01*
X32Y203D01*
X34Y203D01*
X34Y202D01*
X36Y202D01*
X36Y201D01*
X39Y201D01*
X39Y200D01*
X230Y200D01*
X230Y201D01*
X233Y201D01*
X233Y202D01*
X235Y202D01*
X235Y203D01*
X234Y203D01*
X234Y204D01*
X233Y204D01*
X233Y205D01*
X232Y205D01*
X232Y207D01*
X231Y207D01*
X231Y208D01*
X230Y208D01*
X230Y209D01*
X229Y209D01*
X229Y210D01*
X228Y210D01*
X228Y211D01*
X24Y211D01*
G37*
D02*
G54D10*
X0Y630D02*
X1207Y630D01*
X0Y629D02*
X1207Y629D01*
X0Y628D02*
X1207Y628D01*
X0Y627D02*
X1207Y627D01*
X0Y626D02*
X1207Y626D01*
X0Y625D02*
X1207Y625D01*
X0Y624D02*
X1207Y624D01*
X0Y623D02*
X1207Y623D01*
X0Y622D02*
X1207Y622D01*
X0Y621D02*
X1207Y621D01*
X0Y620D02*
X1207Y620D01*
X0Y619D02*
X1207Y619D01*
X0Y618D02*
X1208Y618D01*
X0Y617D02*
X1208Y617D01*
X0Y616D02*
X1208Y616D01*
X0Y615D02*
X1208Y615D01*
X0Y614D02*
X1208Y614D01*
X0Y613D02*
X9Y613D01*
X1171Y613D02*
X1177Y613D01*
X1199Y613D02*
X1208Y613D01*
X0Y612D02*
X9Y612D01*
X1199Y612D02*
X1208Y612D01*
X0Y611D02*
X9Y611D01*
X1199Y611D02*
X1208Y611D01*
X0Y610D02*
X9Y610D01*
X1199Y610D02*
X1208Y610D01*
X0Y609D02*
X9Y609D01*
X1199Y609D02*
X1208Y609D01*
X0Y608D02*
X9Y608D01*
X1199Y608D02*
X1208Y608D01*
X0Y607D02*
X9Y607D01*
X1199Y607D02*
X1208Y607D01*
X0Y606D02*
X9Y606D01*
X1199Y606D02*
X1208Y606D01*
X0Y605D02*
X9Y605D01*
X1199Y605D02*
X1208Y605D01*
X0Y604D02*
X9Y604D01*
X1199Y604D02*
X1208Y604D01*
X0Y603D02*
X9Y603D01*
X1199Y603D02*
X1208Y603D01*
X0Y602D02*
X9Y602D01*
X1199Y602D02*
X1208Y602D01*
X0Y601D02*
X9Y601D01*
X1199Y601D02*
X1208Y601D01*
X0Y600D02*
X9Y600D01*
X1199Y600D02*
X1208Y600D01*
X0Y599D02*
X9Y599D01*
X1199Y599D02*
X1208Y599D01*
X0Y598D02*
X9Y598D01*
X1199Y598D02*
X1208Y598D01*
X0Y597D02*
X9Y597D01*
X1199Y597D02*
X1208Y597D01*
X0Y596D02*
X9Y596D01*
X1199Y596D02*
X1208Y596D01*
X0Y595D02*
X9Y595D01*
X1199Y595D02*
X1208Y595D01*
X0Y594D02*
X9Y594D01*
X1199Y594D02*
X1208Y594D01*
X0Y593D02*
X9Y593D01*
X1199Y593D02*
X1208Y593D01*
X0Y592D02*
X9Y592D01*
X1198Y592D02*
X1208Y592D01*
X0Y591D02*
X9Y591D01*
X1198Y591D02*
X1208Y591D01*
X0Y590D02*
X9Y590D01*
X1198Y590D02*
X1208Y590D01*
X0Y589D02*
X9Y589D01*
X1198Y589D02*
X1208Y589D01*
X0Y588D02*
X9Y588D01*
X1198Y588D02*
X1208Y588D01*
X0Y587D02*
X9Y587D01*
X1198Y587D02*
X1208Y587D01*
X0Y586D02*
X9Y586D01*
X1198Y586D02*
X1208Y586D01*
X0Y585D02*
X9Y585D01*
X1199Y585D02*
X1208Y585D01*
X0Y584D02*
X9Y584D01*
X1199Y584D02*
X1208Y584D01*
X0Y583D02*
X9Y583D01*
X1199Y583D02*
X1208Y583D01*
X0Y582D02*
X9Y582D01*
X1199Y582D02*
X1208Y582D01*
X0Y581D02*
X9Y581D01*
X1199Y581D02*
X1208Y581D01*
X0Y580D02*
X9Y580D01*
X1199Y580D02*
X1208Y580D01*
X0Y579D02*
X9Y579D01*
X1199Y579D02*
X1208Y579D01*
X0Y578D02*
X9Y578D01*
X1199Y578D02*
X1208Y578D01*
X0Y577D02*
X9Y577D01*
X1199Y577D02*
X1208Y577D01*
X0Y576D02*
X9Y576D01*
X1199Y576D02*
X1208Y576D01*
X0Y575D02*
X9Y575D01*
X1199Y575D02*
X1208Y575D01*
X0Y574D02*
X9Y574D01*
X1199Y574D02*
X1208Y574D01*
X0Y573D02*
X9Y573D01*
X1199Y573D02*
X1208Y573D01*
X0Y572D02*
X9Y572D01*
X1199Y572D02*
X1208Y572D01*
X0Y571D02*
X9Y571D01*
X1199Y571D02*
X1208Y571D01*
X0Y570D02*
X9Y570D01*
X1199Y570D02*
X1208Y570D01*
X0Y569D02*
X9Y569D01*
X1199Y569D02*
X1208Y569D01*
X0Y568D02*
X9Y568D01*
X1199Y568D02*
X1208Y568D01*
X0Y567D02*
X9Y567D01*
X1199Y567D02*
X1208Y567D01*
X0Y566D02*
X9Y566D01*
X1199Y566D02*
X1208Y566D01*
X0Y565D02*
X9Y565D01*
X1199Y565D02*
X1208Y565D01*
X0Y564D02*
X9Y564D01*
X1199Y564D02*
X1208Y564D01*
X0Y563D02*
X9Y563D01*
X1199Y563D02*
X1208Y563D01*
X0Y562D02*
X9Y562D01*
X1199Y562D02*
X1208Y562D01*
X0Y561D02*
X9Y561D01*
X1199Y561D02*
X1208Y561D01*
X0Y560D02*
X9Y560D01*
X1199Y560D02*
X1208Y560D01*
X0Y559D02*
X9Y559D01*
X1199Y559D02*
X1208Y559D01*
X0Y558D02*
X9Y558D01*
X1199Y558D02*
X1208Y558D01*
X0Y557D02*
X9Y557D01*
X1199Y557D02*
X1208Y557D01*
X0Y556D02*
X9Y556D01*
X1199Y556D02*
X1208Y556D01*
X0Y555D02*
X9Y555D01*
X1199Y555D02*
X1208Y555D01*
X0Y554D02*
X9Y554D01*
X1199Y554D02*
X1208Y554D01*
X0Y553D02*
X9Y553D01*
X1199Y553D02*
X1208Y553D01*
X0Y552D02*
X9Y552D01*
X1199Y552D02*
X1208Y552D01*
X0Y551D02*
X9Y551D01*
X1199Y551D02*
X1208Y551D01*
X0Y550D02*
X9Y550D01*
X1199Y550D02*
X1208Y550D01*
X0Y549D02*
X9Y549D01*
X1199Y549D02*
X1208Y549D01*
X0Y548D02*
X9Y548D01*
X1199Y548D02*
X1208Y548D01*
X0Y547D02*
X9Y547D01*
X1199Y547D02*
X1208Y547D01*
X0Y546D02*
X9Y546D01*
X1199Y546D02*
X1208Y546D01*
X0Y545D02*
X9Y545D01*
X1199Y545D02*
X1208Y545D01*
X0Y544D02*
X9Y544D01*
X1199Y544D02*
X1208Y544D01*
X0Y543D02*
X9Y543D01*
X1199Y543D02*
X1208Y543D01*
X0Y542D02*
X9Y542D01*
X1199Y542D02*
X1208Y542D01*
X0Y541D02*
X9Y541D01*
X1199Y541D02*
X1208Y541D01*
X0Y540D02*
X9Y540D01*
X1199Y540D02*
X1208Y540D01*
X0Y539D02*
X9Y539D01*
X1199Y539D02*
X1208Y539D01*
X0Y538D02*
X9Y538D01*
X1199Y538D02*
X1208Y538D01*
X0Y537D02*
X9Y537D01*
X1199Y537D02*
X1208Y537D01*
X0Y536D02*
X9Y536D01*
X1199Y536D02*
X1208Y536D01*
X0Y535D02*
X9Y535D01*
X1199Y535D02*
X1208Y535D01*
X0Y534D02*
X9Y534D01*
X1199Y534D02*
X1208Y534D01*
X0Y533D02*
X9Y533D01*
X1199Y533D02*
X1208Y533D01*
X0Y532D02*
X9Y532D01*
X1199Y532D02*
X1208Y532D01*
X0Y531D02*
X9Y531D01*
X1199Y531D02*
X1208Y531D01*
X0Y530D02*
X9Y530D01*
X1199Y530D02*
X1208Y530D01*
X0Y529D02*
X9Y529D01*
X1199Y529D02*
X1208Y529D01*
X0Y528D02*
X9Y528D01*
X1199Y528D02*
X1208Y528D01*
X0Y527D02*
X9Y527D01*
X1199Y527D02*
X1208Y527D01*
X0Y526D02*
X9Y526D01*
X1199Y526D02*
X1208Y526D01*
X0Y525D02*
X9Y525D01*
X1199Y525D02*
X1208Y525D01*
X0Y524D02*
X9Y524D01*
X1199Y524D02*
X1208Y524D01*
X0Y523D02*
X1208Y523D01*
X0Y522D02*
X1208Y522D01*
X0Y521D02*
X1208Y521D01*
X0Y520D02*
X1208Y520D01*
X0Y519D02*
X1208Y519D01*
X0Y518D02*
X1207Y518D01*
X0Y517D02*
X1207Y517D01*
X0Y516D02*
X1207Y516D01*
X0Y515D02*
X1207Y515D01*
X0Y514D02*
X1207Y514D01*
X0Y513D02*
X7Y513D01*
X1200Y513D02*
X1207Y513D01*
X0Y512D02*
X7Y512D01*
X1200Y512D02*
X1207Y512D01*
X0Y511D02*
X7Y511D01*
X1200Y511D02*
X1207Y511D01*
X0Y510D02*
X7Y510D01*
X1200Y510D02*
X1207Y510D01*
X0Y509D02*
X7Y509D01*
X1200Y509D02*
X1207Y509D01*
X0Y508D02*
X7Y508D01*
X1200Y508D02*
X1207Y508D01*
X0Y507D02*
X7Y507D01*
X1200Y507D02*
X1207Y507D01*
X0Y506D02*
X7Y506D01*
X1200Y506D02*
X1207Y506D01*
X0Y505D02*
X7Y505D01*
X1200Y505D02*
X1207Y505D01*
X0Y504D02*
X7Y504D01*
X1200Y504D02*
X1207Y504D01*
X0Y503D02*
X7Y503D01*
X1200Y503D02*
X1207Y503D01*
X0Y502D02*
X7Y502D01*
X1200Y502D02*
X1207Y502D01*
X0Y501D02*
X7Y501D01*
X1200Y501D02*
X1207Y501D01*
X0Y500D02*
X7Y500D01*
X1200Y500D02*
X1207Y500D01*
X0Y499D02*
X7Y499D01*
X1200Y499D02*
X1207Y499D01*
X0Y498D02*
X7Y498D01*
X1200Y498D02*
X1207Y498D01*
X0Y497D02*
X7Y497D01*
X1200Y497D02*
X1207Y497D01*
X0Y496D02*
X7Y496D01*
X1200Y496D02*
X1207Y496D01*
X0Y495D02*
X7Y495D01*
X1200Y495D02*
X1207Y495D01*
X0Y494D02*
X7Y494D01*
X1200Y494D02*
X1207Y494D01*
X0Y493D02*
X7Y493D01*
X1200Y493D02*
X1207Y493D01*
X0Y492D02*
X7Y492D01*
X1200Y492D02*
X1207Y492D01*
X0Y491D02*
X7Y491D01*
X1200Y491D02*
X1207Y491D01*
X0Y490D02*
X7Y490D01*
X1200Y490D02*
X1207Y490D01*
X0Y489D02*
X7Y489D01*
X1200Y489D02*
X1207Y489D01*
X0Y488D02*
X7Y488D01*
X1200Y488D02*
X1207Y488D01*
X0Y487D02*
X7Y487D01*
X1200Y487D02*
X1207Y487D01*
X0Y486D02*
X7Y486D01*
X1200Y486D02*
X1207Y486D01*
X0Y485D02*
X7Y485D01*
X1200Y485D02*
X1207Y485D01*
X0Y484D02*
X7Y484D01*
X1200Y484D02*
X1207Y484D01*
X0Y483D02*
X7Y483D01*
X1200Y483D02*
X1207Y483D01*
X0Y482D02*
X7Y482D01*
X1200Y482D02*
X1207Y482D01*
X0Y481D02*
X7Y481D01*
X1200Y481D02*
X1207Y481D01*
X0Y480D02*
X7Y480D01*
X1200Y480D02*
X1207Y480D01*
X0Y479D02*
X7Y479D01*
X1200Y479D02*
X1207Y479D01*
X0Y478D02*
X7Y478D01*
X1200Y478D02*
X1207Y478D01*
X0Y477D02*
X7Y477D01*
X1200Y477D02*
X1207Y477D01*
X0Y476D02*
X7Y476D01*
X1200Y476D02*
X1207Y476D01*
X0Y475D02*
X7Y475D01*
X1200Y475D02*
X1207Y475D01*
X0Y474D02*
X7Y474D01*
X1200Y474D02*
X1207Y474D01*
X0Y473D02*
X7Y473D01*
X1200Y473D02*
X1207Y473D01*
X0Y472D02*
X7Y472D01*
X1200Y472D02*
X1207Y472D01*
X0Y471D02*
X7Y471D01*
X1200Y471D02*
X1207Y471D01*
X0Y470D02*
X7Y470D01*
X1200Y470D02*
X1207Y470D01*
X0Y469D02*
X7Y469D01*
X1200Y469D02*
X1207Y469D01*
X0Y468D02*
X7Y468D01*
X1200Y468D02*
X1207Y468D01*
X0Y467D02*
X7Y467D01*
X1200Y467D02*
X1207Y467D01*
X0Y466D02*
X7Y466D01*
X1200Y466D02*
X1207Y466D01*
X0Y465D02*
X7Y465D01*
X1200Y465D02*
X1207Y465D01*
X0Y464D02*
X7Y464D01*
X1200Y464D02*
X1207Y464D01*
X0Y463D02*
X7Y463D01*
X1200Y463D02*
X1207Y463D01*
X0Y462D02*
X7Y462D01*
X1200Y462D02*
X1207Y462D01*
X0Y461D02*
X7Y461D01*
X1200Y461D02*
X1207Y461D01*
X0Y460D02*
X7Y460D01*
X1200Y460D02*
X1207Y460D01*
X0Y459D02*
X7Y459D01*
X1200Y459D02*
X1207Y459D01*
X0Y458D02*
X7Y458D01*
X1200Y458D02*
X1207Y458D01*
X0Y457D02*
X7Y457D01*
X1200Y457D02*
X1207Y457D01*
X0Y456D02*
X7Y456D01*
X1200Y456D02*
X1207Y456D01*
X0Y455D02*
X7Y455D01*
X1200Y455D02*
X1207Y455D01*
X0Y454D02*
X7Y454D01*
X1200Y454D02*
X1207Y454D01*
X0Y453D02*
X7Y453D01*
X1200Y453D02*
X1207Y453D01*
X0Y452D02*
X7Y452D01*
X848Y452D02*
X848Y452D01*
X857Y452D02*
X857Y452D01*
X868Y452D02*
X873Y452D01*
X884Y452D02*
X889Y452D01*
X1200Y452D02*
X1207Y452D01*
X0Y451D02*
X7Y451D01*
X295Y451D02*
X300Y451D01*
X311Y451D02*
X321Y451D01*
X327Y451D02*
X335Y451D01*
X355Y451D02*
X360Y451D01*
X372Y451D02*
X379Y451D01*
X405Y451D02*
X409Y451D01*
X421Y451D02*
X429Y451D01*
X454Y451D02*
X459Y451D01*
X471Y451D02*
X475Y451D01*
X561Y451D02*
X570Y451D01*
X661Y451D02*
X671Y451D01*
X712Y451D02*
X713Y451D01*
X763Y451D02*
X770Y451D01*
X801Y451D02*
X804Y451D01*
X811Y451D02*
X813Y451D01*
X828Y451D02*
X832Y451D01*
X847Y451D02*
X849Y451D01*
X856Y451D02*
X858Y451D01*
X867Y451D02*
X874Y451D01*
X883Y451D02*
X890Y451D01*
X1200Y451D02*
X1207Y451D01*
X0Y450D02*
X7Y450D01*
X295Y450D02*
X301Y450D01*
X311Y450D02*
X321Y450D01*
X327Y450D02*
X336Y450D01*
X355Y450D02*
X360Y450D01*
X371Y450D02*
X381Y450D01*
X404Y450D02*
X410Y450D01*
X420Y450D02*
X430Y450D01*
X454Y450D02*
X459Y450D01*
X470Y450D02*
X476Y450D01*
X503Y450D02*
X509Y450D01*
X520Y450D02*
X529Y450D01*
X560Y450D02*
X570Y450D01*
X614Y450D02*
X619Y450D01*
X661Y450D02*
X671Y450D01*
X712Y450D02*
X714Y450D01*
X763Y450D02*
X771Y450D01*
X799Y450D02*
X805Y450D01*
X811Y450D02*
X813Y450D01*
X820Y450D02*
X821Y450D01*
X827Y450D02*
X834Y450D01*
X847Y450D02*
X849Y450D01*
X856Y450D02*
X858Y450D01*
X866Y450D02*
X868Y450D01*
X882Y450D02*
X884Y450D01*
X1200Y450D02*
X1207Y450D01*
X0Y449D02*
X7Y449D01*
X296Y449D02*
X298Y449D01*
X300Y449D02*
X302Y449D01*
X311Y449D02*
X312Y449D01*
X315Y449D02*
X316Y449D01*
X319Y449D02*
X321Y449D01*
X327Y449D02*
X328Y449D01*
X335Y449D02*
X337Y449D01*
X355Y449D02*
X360Y449D01*
X372Y449D02*
X381Y449D01*
X405Y449D02*
X410Y449D01*
X421Y449D02*
X430Y449D01*
X455Y449D02*
X459Y449D01*
X471Y449D02*
X476Y449D01*
X504Y449D02*
X509Y449D01*
X519Y449D02*
X529Y449D01*
X560Y449D02*
X571Y449D01*
X614Y449D02*
X619Y449D01*
X661Y449D02*
X662Y449D01*
X669Y449D02*
X671Y449D01*
X712Y449D02*
X713Y449D01*
X763Y449D02*
X770Y449D01*
X798Y449D02*
X804Y449D01*
X811Y449D02*
X814Y449D01*
X820Y449D02*
X821Y449D01*
X828Y449D02*
X835Y449D01*
X847Y449D02*
X849Y449D01*
X856Y449D02*
X858Y449D01*
X866Y449D02*
X867Y449D01*
X882Y449D02*
X883Y449D01*
X1200Y449D02*
X1207Y449D01*
X0Y448D02*
X7Y448D01*
X297Y448D02*
X298Y448D01*
X301Y448D02*
X303Y448D01*
X311Y448D02*
X311Y448D01*
X315Y448D02*
X316Y448D01*
X320Y448D02*
X320Y448D01*
X327Y448D02*
X328Y448D01*
X336Y448D02*
X337Y448D01*
X359Y448D02*
X360Y448D01*
X380Y448D02*
X381Y448D01*
X408Y448D02*
X410Y448D01*
X429Y448D02*
X430Y448D01*
X458Y448D02*
X459Y448D01*
X474Y448D02*
X476Y448D01*
X508Y448D02*
X509Y448D01*
X519Y448D02*
X521Y448D01*
X528Y448D02*
X530Y448D01*
X560Y448D02*
X562Y448D01*
X569Y448D02*
X571Y448D01*
X614Y448D02*
X615Y448D01*
X618Y448D02*
X619Y448D01*
X670Y448D02*
X671Y448D01*
X712Y448D02*
X713Y448D01*
X763Y448D02*
X764Y448D01*
X797Y448D02*
X799Y448D01*
X811Y448D02*
X814Y448D01*
X820Y448D02*
X821Y448D01*
X829Y448D02*
X831Y448D01*
X833Y448D02*
X835Y448D01*
X847Y448D02*
X849Y448D01*
X856Y448D02*
X858Y448D01*
X865Y448D02*
X867Y448D01*
X881Y448D02*
X883Y448D01*
X1200Y448D02*
X1207Y448D01*
X0Y447D02*
X7Y447D01*
X297Y447D02*
X298Y447D01*
X302Y447D02*
X303Y447D01*
X315Y447D02*
X316Y447D01*
X327Y447D02*
X328Y447D01*
X336Y447D02*
X337Y447D01*
X359Y447D02*
X360Y447D01*
X380Y447D02*
X381Y447D01*
X408Y447D02*
X410Y447D01*
X429Y447D02*
X430Y447D01*
X458Y447D02*
X459Y447D01*
X474Y447D02*
X476Y447D01*
X508Y447D02*
X509Y447D01*
X519Y447D02*
X521Y447D01*
X528Y447D02*
X530Y447D01*
X560Y447D02*
X562Y447D01*
X569Y447D02*
X571Y447D01*
X614Y447D02*
X615Y447D01*
X618Y447D02*
X619Y447D01*
X670Y447D02*
X671Y447D01*
X712Y447D02*
X713Y447D01*
X763Y447D02*
X764Y447D01*
X797Y447D02*
X798Y447D01*
X811Y447D02*
X815Y447D01*
X820Y447D02*
X821Y447D01*
X829Y447D02*
X831Y447D01*
X834Y447D02*
X836Y447D01*
X847Y447D02*
X849Y447D01*
X856Y447D02*
X857Y447D01*
X865Y447D02*
X866Y447D01*
X881Y447D02*
X882Y447D01*
X1200Y447D02*
X1207Y447D01*
X0Y446D02*
X7Y446D01*
X297Y446D02*
X298Y446D01*
X302Y446D02*
X304Y446D01*
X315Y446D02*
X316Y446D01*
X327Y446D02*
X328Y446D01*
X335Y446D02*
X337Y446D01*
X359Y446D02*
X360Y446D01*
X380Y446D02*
X381Y446D01*
X408Y446D02*
X410Y446D01*
X429Y446D02*
X430Y446D01*
X458Y446D02*
X459Y446D01*
X474Y446D02*
X476Y446D01*
X508Y446D02*
X509Y446D01*
X519Y446D02*
X521Y446D01*
X528Y446D02*
X530Y446D01*
X560Y446D02*
X562Y446D01*
X569Y446D02*
X571Y446D01*
X614Y446D02*
X615Y446D01*
X618Y446D02*
X619Y446D01*
X670Y446D02*
X671Y446D01*
X712Y446D02*
X713Y446D01*
X763Y446D02*
X764Y446D01*
X796Y446D02*
X798Y446D01*
X811Y446D02*
X815Y446D01*
X820Y446D02*
X821Y446D01*
X829Y446D02*
X831Y446D01*
X835Y446D02*
X836Y446D01*
X848Y446D02*
X849Y446D01*
X856Y446D02*
X857Y446D01*
X864Y446D02*
X866Y446D01*
X880Y446D02*
X882Y446D01*
X1200Y446D02*
X1207Y446D01*
X0Y445D02*
X7Y445D01*
X297Y445D02*
X298Y445D01*
X303Y445D02*
X304Y445D01*
X315Y445D02*
X316Y445D01*
X327Y445D02*
X336Y445D01*
X359Y445D02*
X360Y445D01*
X380Y445D02*
X381Y445D01*
X408Y445D02*
X410Y445D01*
X429Y445D02*
X430Y445D01*
X445Y445D02*
X445Y445D01*
X458Y445D02*
X459Y445D01*
X474Y445D02*
X476Y445D01*
X508Y445D02*
X509Y445D01*
X519Y445D02*
X521Y445D01*
X528Y445D02*
X530Y445D01*
X549Y445D02*
X549Y445D01*
X560Y445D02*
X571Y445D01*
X614Y445D02*
X615Y445D01*
X618Y445D02*
X619Y445D01*
X670Y445D02*
X671Y445D01*
X712Y445D02*
X713Y445D01*
X763Y445D02*
X764Y445D01*
X795Y445D02*
X797Y445D01*
X811Y445D02*
X812Y445D01*
X814Y445D02*
X816Y445D01*
X820Y445D02*
X821Y445D01*
X829Y445D02*
X831Y445D01*
X835Y445D02*
X837Y445D01*
X848Y445D02*
X850Y445D01*
X855Y445D02*
X857Y445D01*
X864Y445D02*
X865Y445D01*
X880Y445D02*
X881Y445D01*
X1200Y445D02*
X1207Y445D01*
X0Y444D02*
X7Y444D01*
X297Y444D02*
X298Y444D01*
X303Y444D02*
X304Y444D01*
X315Y444D02*
X316Y444D01*
X327Y444D02*
X335Y444D01*
X359Y444D02*
X360Y444D01*
X379Y444D02*
X381Y444D01*
X408Y444D02*
X410Y444D01*
X429Y444D02*
X430Y444D01*
X443Y444D02*
X448Y444D01*
X452Y444D02*
X453Y444D01*
X458Y444D02*
X459Y444D01*
X474Y444D02*
X476Y444D01*
X494Y444D02*
X496Y444D01*
X508Y444D02*
X509Y444D01*
X519Y444D02*
X521Y444D01*
X528Y444D02*
X530Y444D01*
X547Y444D02*
X552Y444D01*
X556Y444D02*
X557Y444D01*
X560Y444D02*
X571Y444D01*
X614Y444D02*
X615Y444D01*
X618Y444D02*
X619Y444D01*
X669Y444D02*
X671Y444D01*
X698Y444D02*
X702Y444D01*
X707Y444D02*
X707Y444D01*
X712Y444D02*
X713Y444D01*
X749Y444D02*
X753Y444D01*
X758Y444D02*
X758Y444D01*
X763Y444D02*
X764Y444D01*
X795Y444D02*
X796Y444D01*
X811Y444D02*
X812Y444D01*
X815Y444D02*
X816Y444D01*
X820Y444D02*
X821Y444D01*
X829Y444D02*
X831Y444D01*
X836Y444D02*
X837Y444D01*
X849Y444D02*
X850Y444D01*
X855Y444D02*
X856Y444D01*
X864Y444D02*
X865Y444D01*
X880Y444D02*
X881Y444D01*
X1200Y444D02*
X1207Y444D01*
X0Y443D02*
X7Y443D01*
X297Y443D02*
X298Y443D01*
X303Y443D02*
X305Y443D01*
X315Y443D02*
X316Y443D01*
X327Y443D02*
X328Y443D01*
X331Y443D02*
X333Y443D01*
X359Y443D02*
X360Y443D01*
X373Y443D02*
X380Y443D01*
X408Y443D02*
X410Y443D01*
X421Y443D02*
X430Y443D01*
X443Y443D02*
X453Y443D01*
X458Y443D02*
X459Y443D01*
X474Y443D02*
X476Y443D01*
X493Y443D02*
X499Y443D01*
X502Y443D02*
X503Y443D01*
X508Y443D02*
X509Y443D01*
X519Y443D02*
X521Y443D01*
X528Y443D02*
X530Y443D01*
X546Y443D02*
X556Y443D01*
X569Y443D02*
X571Y443D01*
X613Y443D02*
X620Y443D01*
X668Y443D02*
X670Y443D01*
X697Y443D02*
X707Y443D01*
X712Y443D02*
X713Y443D01*
X748Y443D02*
X758Y443D01*
X763Y443D02*
X770Y443D01*
X795Y443D02*
X796Y443D01*
X811Y443D02*
X812Y443D01*
X815Y443D02*
X816Y443D01*
X820Y443D02*
X821Y443D01*
X829Y443D02*
X831Y443D01*
X836Y443D02*
X837Y443D01*
X849Y443D02*
X851Y443D01*
X854Y443D02*
X856Y443D01*
X864Y443D02*
X865Y443D01*
X880Y443D02*
X881Y443D01*
X1200Y443D02*
X1207Y443D01*
X0Y442D02*
X7Y442D01*
X297Y442D02*
X298Y442D01*
X303Y442D02*
X304Y442D01*
X315Y442D02*
X316Y442D01*
X327Y442D02*
X328Y442D01*
X331Y442D02*
X333Y442D01*
X359Y442D02*
X360Y442D01*
X373Y442D02*
X380Y442D01*
X408Y442D02*
X410Y442D01*
X420Y442D02*
X430Y442D01*
X449Y442D02*
X451Y442D01*
X458Y442D02*
X459Y442D01*
X474Y442D02*
X476Y442D01*
X493Y442D02*
X494Y442D01*
X496Y442D02*
X503Y442D01*
X508Y442D02*
X509Y442D01*
X519Y442D02*
X521Y442D01*
X528Y442D02*
X530Y442D01*
X552Y442D02*
X555Y442D01*
X569Y442D02*
X571Y442D01*
X612Y442D02*
X621Y442D01*
X666Y442D02*
X669Y442D01*
X697Y442D02*
X697Y442D01*
X703Y442D02*
X707Y442D01*
X712Y442D02*
X713Y442D01*
X748Y442D02*
X748Y442D01*
X753Y442D02*
X757Y442D01*
X763Y442D02*
X771Y442D01*
X795Y442D02*
X796Y442D01*
X811Y442D02*
X812Y442D01*
X815Y442D02*
X817Y442D01*
X820Y442D02*
X821Y442D01*
X829Y442D02*
X831Y442D01*
X836Y442D02*
X837Y442D01*
X849Y442D02*
X851Y442D01*
X854Y442D02*
X856Y442D01*
X864Y442D02*
X865Y442D01*
X880Y442D02*
X881Y442D01*
X1200Y442D02*
X1207Y442D01*
X0Y441D02*
X7Y441D01*
X297Y441D02*
X298Y441D01*
X303Y441D02*
X304Y441D01*
X315Y441D02*
X316Y441D01*
X327Y441D02*
X328Y441D01*
X332Y441D02*
X334Y441D01*
X359Y441D02*
X360Y441D01*
X364Y441D02*
X365Y441D01*
X379Y441D02*
X381Y441D01*
X408Y441D02*
X410Y441D01*
X413Y441D02*
X414Y441D01*
X420Y441D02*
X422Y441D01*
X458Y441D02*
X459Y441D01*
X463Y441D02*
X464Y441D01*
X474Y441D02*
X476Y441D01*
X479Y441D02*
X480Y441D01*
X499Y441D02*
X501Y441D01*
X508Y441D02*
X509Y441D01*
X513Y441D02*
X513Y441D01*
X519Y441D02*
X521Y441D01*
X528Y441D02*
X530Y441D01*
X569Y441D02*
X571Y441D01*
X612Y441D02*
X622Y441D01*
X666Y441D02*
X668Y441D01*
X712Y441D02*
X722Y441D01*
X770Y441D02*
X771Y441D01*
X795Y441D02*
X796Y441D01*
X801Y441D02*
X805Y441D01*
X811Y441D02*
X812Y441D01*
X816Y441D02*
X817Y441D01*
X820Y441D02*
X821Y441D01*
X829Y441D02*
X831Y441D01*
X836Y441D02*
X837Y441D01*
X850Y441D02*
X851Y441D01*
X854Y441D02*
X855Y441D01*
X864Y441D02*
X866Y441D01*
X880Y441D02*
X882Y441D01*
X1200Y441D02*
X1207Y441D01*
X0Y440D02*
X7Y440D01*
X297Y440D02*
X298Y440D01*
X302Y440D02*
X304Y440D01*
X315Y440D02*
X316Y440D01*
X327Y440D02*
X328Y440D01*
X333Y440D02*
X334Y440D01*
X359Y440D02*
X360Y440D01*
X364Y440D02*
X365Y440D01*
X380Y440D02*
X381Y440D01*
X408Y440D02*
X410Y440D01*
X413Y440D02*
X414Y440D01*
X420Y440D02*
X421Y440D01*
X458Y440D02*
X459Y440D01*
X463Y440D02*
X464Y440D01*
X474Y440D02*
X476Y440D01*
X479Y440D02*
X480Y440D01*
X508Y440D02*
X509Y440D01*
X512Y440D02*
X513Y440D01*
X519Y440D02*
X521Y440D01*
X528Y440D02*
X530Y440D01*
X569Y440D02*
X571Y440D01*
X612Y440D02*
X613Y440D01*
X620Y440D02*
X622Y440D01*
X665Y440D02*
X667Y440D01*
X712Y440D02*
X722Y440D01*
X770Y440D02*
X771Y440D01*
X795Y440D02*
X796Y440D01*
X801Y440D02*
X805Y440D01*
X811Y440D02*
X812Y440D01*
X816Y440D02*
X818Y440D01*
X820Y440D02*
X821Y440D01*
X829Y440D02*
X831Y440D01*
X835Y440D02*
X837Y440D01*
X850Y440D02*
X855Y440D01*
X865Y440D02*
X866Y440D01*
X881Y440D02*
X882Y440D01*
X1200Y440D02*
X1207Y440D01*
X0Y439D02*
X7Y439D01*
X297Y439D02*
X298Y439D01*
X302Y439D02*
X303Y439D01*
X315Y439D02*
X316Y439D01*
X327Y439D02*
X328Y439D01*
X333Y439D02*
X335Y439D01*
X359Y439D02*
X360Y439D01*
X364Y439D02*
X365Y439D01*
X380Y439D02*
X381Y439D01*
X408Y439D02*
X410Y439D01*
X413Y439D02*
X414Y439D01*
X420Y439D02*
X421Y439D01*
X458Y439D02*
X459Y439D01*
X463Y439D02*
X464Y439D01*
X474Y439D02*
X476Y439D01*
X479Y439D02*
X480Y439D01*
X508Y439D02*
X509Y439D01*
X512Y439D02*
X513Y439D01*
X519Y439D02*
X521Y439D01*
X528Y439D02*
X530Y439D01*
X569Y439D02*
X571Y439D01*
X612Y439D02*
X613Y439D01*
X620Y439D02*
X622Y439D01*
X665Y439D02*
X667Y439D01*
X712Y439D02*
X713Y439D01*
X721Y439D02*
X722Y439D01*
X770Y439D02*
X771Y439D01*
X795Y439D02*
X796Y439D01*
X804Y439D02*
X805Y439D01*
X811Y439D02*
X812Y439D01*
X817Y439D02*
X818Y439D01*
X820Y439D02*
X821Y439D01*
X829Y439D02*
X831Y439D01*
X835Y439D02*
X836Y439D01*
X851Y439D02*
X854Y439D01*
X865Y439D02*
X867Y439D01*
X881Y439D02*
X883Y439D01*
X1200Y439D02*
X1207Y439D01*
X0Y438D02*
X7Y438D01*
X297Y438D02*
X298Y438D01*
X301Y438D02*
X303Y438D01*
X315Y438D02*
X316Y438D01*
X327Y438D02*
X328Y438D01*
X334Y438D02*
X335Y438D01*
X359Y438D02*
X360Y438D01*
X364Y438D02*
X365Y438D01*
X380Y438D02*
X381Y438D01*
X408Y438D02*
X410Y438D01*
X413Y438D02*
X414Y438D01*
X420Y438D02*
X421Y438D01*
X458Y438D02*
X459Y438D01*
X463Y438D02*
X464Y438D01*
X474Y438D02*
X476Y438D01*
X479Y438D02*
X480Y438D01*
X508Y438D02*
X509Y438D01*
X512Y438D02*
X513Y438D01*
X519Y438D02*
X521Y438D01*
X528Y438D02*
X530Y438D01*
X569Y438D02*
X571Y438D01*
X612Y438D02*
X613Y438D01*
X620Y438D02*
X622Y438D01*
X665Y438D02*
X667Y438D01*
X712Y438D02*
X713Y438D01*
X721Y438D02*
X722Y438D01*
X770Y438D02*
X771Y438D01*
X795Y438D02*
X796Y438D01*
X804Y438D02*
X805Y438D01*
X811Y438D02*
X812Y438D01*
X817Y438D02*
X821Y438D01*
X829Y438D02*
X831Y438D01*
X834Y438D02*
X836Y438D01*
X851Y438D02*
X854Y438D01*
X866Y438D02*
X867Y438D01*
X882Y438D02*
X884Y438D01*
X1200Y438D02*
X1207Y438D01*
X0Y437D02*
X7Y437D01*
X297Y437D02*
X298Y437D01*
X301Y437D02*
X302Y437D01*
X315Y437D02*
X316Y437D01*
X327Y437D02*
X328Y437D01*
X334Y437D02*
X336Y437D01*
X359Y437D02*
X360Y437D01*
X364Y437D02*
X365Y437D01*
X380Y437D02*
X381Y437D01*
X408Y437D02*
X410Y437D01*
X413Y437D02*
X414Y437D01*
X420Y437D02*
X421Y437D01*
X458Y437D02*
X459Y437D01*
X463Y437D02*
X464Y437D01*
X474Y437D02*
X476Y437D01*
X479Y437D02*
X480Y437D01*
X508Y437D02*
X509Y437D01*
X512Y437D02*
X513Y437D01*
X519Y437D02*
X521Y437D01*
X528Y437D02*
X530Y437D01*
X569Y437D02*
X571Y437D01*
X612Y437D02*
X613Y437D01*
X620Y437D02*
X622Y437D01*
X665Y437D02*
X667Y437D01*
X712Y437D02*
X713Y437D01*
X721Y437D02*
X722Y437D01*
X770Y437D02*
X771Y437D01*
X795Y437D02*
X796Y437D01*
X804Y437D02*
X805Y437D01*
X811Y437D02*
X812Y437D01*
X818Y437D02*
X821Y437D01*
X829Y437D02*
X831Y437D01*
X834Y437D02*
X835Y437D01*
X851Y437D02*
X854Y437D01*
X866Y437D02*
X873Y437D01*
X882Y437D02*
X889Y437D01*
X1200Y437D02*
X1207Y437D01*
X0Y436D02*
X7Y436D01*
X295Y436D02*
X302Y436D01*
X315Y436D02*
X316Y436D01*
X327Y436D02*
X328Y436D01*
X335Y436D02*
X337Y436D01*
X359Y436D02*
X361Y436D01*
X363Y436D02*
X365Y436D01*
X379Y436D02*
X381Y436D01*
X408Y436D02*
X410Y436D01*
X413Y436D02*
X414Y436D01*
X420Y436D02*
X422Y436D01*
X455Y436D02*
X464Y436D01*
X471Y436D02*
X480Y436D01*
X508Y436D02*
X509Y436D01*
X512Y436D02*
X513Y436D01*
X519Y436D02*
X521Y436D01*
X528Y436D02*
X530Y436D01*
X569Y436D02*
X571Y436D01*
X612Y436D02*
X613Y436D01*
X620Y436D02*
X622Y436D01*
X665Y436D02*
X667Y436D01*
X712Y436D02*
X713Y436D01*
X720Y436D02*
X722Y436D01*
X761Y436D02*
X763Y436D01*
X769Y436D02*
X771Y436D01*
X795Y436D02*
X797Y436D01*
X803Y436D02*
X805Y436D01*
X811Y436D02*
X812Y436D01*
X818Y436D02*
X821Y436D01*
X829Y436D02*
X831Y436D01*
X833Y436D02*
X835Y436D01*
X852Y436D02*
X853Y436D01*
X867Y436D02*
X874Y436D01*
X883Y436D02*
X890Y436D01*
X1200Y436D02*
X1207Y436D01*
X0Y435D02*
X7Y435D01*
X294Y435D02*
X301Y435D01*
X315Y435D02*
X316Y435D01*
X327Y435D02*
X328Y435D01*
X336Y435D02*
X337Y435D01*
X355Y435D02*
X365Y435D01*
X371Y435D02*
X381Y435D01*
X404Y435D02*
X414Y435D01*
X420Y435D02*
X430Y435D01*
X454Y435D02*
X464Y435D01*
X470Y435D02*
X480Y435D01*
X503Y435D02*
X513Y435D01*
X519Y435D02*
X529Y435D01*
X568Y435D02*
X571Y435D01*
X612Y435D02*
X622Y435D01*
X665Y435D02*
X667Y435D01*
X712Y435D02*
X722Y435D01*
X761Y435D02*
X771Y435D01*
X796Y435D02*
X804Y435D01*
X811Y435D02*
X812Y435D01*
X819Y435D02*
X821Y435D01*
X827Y435D02*
X834Y435D01*
X869Y435D02*
X873Y435D01*
X885Y435D02*
X889Y435D01*
X1200Y435D02*
X1207Y435D01*
X0Y434D02*
X7Y434D01*
X355Y434D02*
X364Y434D01*
X371Y434D02*
X380Y434D01*
X404Y434D02*
X414Y434D01*
X420Y434D02*
X430Y434D01*
X454Y434D02*
X463Y434D01*
X470Y434D02*
X479Y434D01*
X503Y434D02*
X513Y434D01*
X520Y434D02*
X529Y434D01*
X569Y434D02*
X570Y434D01*
X612Y434D02*
X621Y434D01*
X666Y434D02*
X666Y434D01*
X712Y434D02*
X721Y434D01*
X763Y434D02*
X770Y434D01*
X797Y434D02*
X803Y434D01*
X811Y434D02*
X812Y434D01*
X819Y434D02*
X821Y434D01*
X828Y434D02*
X833Y434D01*
X1200Y434D02*
X1207Y434D01*
X0Y433D02*
X7Y433D01*
X1200Y433D02*
X1207Y433D01*
X0Y432D02*
X7Y432D01*
X1200Y432D02*
X1207Y432D01*
X0Y431D02*
X7Y431D01*
X1200Y431D02*
X1207Y431D01*
X0Y430D02*
X7Y430D01*
X1200Y430D02*
X1207Y430D01*
X0Y429D02*
X7Y429D01*
X1200Y429D02*
X1207Y429D01*
X0Y428D02*
X7Y428D01*
X1200Y428D02*
X1207Y428D01*
X0Y427D02*
X7Y427D01*
X1200Y427D02*
X1207Y427D01*
X0Y426D02*
X7Y426D01*
X1200Y426D02*
X1207Y426D01*
X0Y425D02*
X7Y425D01*
X1200Y425D02*
X1207Y425D01*
X0Y424D02*
X7Y424D01*
X1200Y424D02*
X1207Y424D01*
X0Y423D02*
X7Y423D01*
X1200Y423D02*
X1207Y423D01*
X0Y422D02*
X7Y422D01*
X1200Y422D02*
X1207Y422D01*
X0Y421D02*
X7Y421D01*
X1200Y421D02*
X1207Y421D01*
X0Y420D02*
X7Y420D01*
X1200Y420D02*
X1207Y420D01*
X0Y419D02*
X7Y419D01*
X1200Y419D02*
X1207Y419D01*
X0Y418D02*
X7Y418D01*
X1200Y418D02*
X1207Y418D01*
X0Y417D02*
X7Y417D01*
X1200Y417D02*
X1207Y417D01*
X0Y416D02*
X7Y416D01*
X1200Y416D02*
X1207Y416D01*
X0Y415D02*
X7Y415D01*
X1200Y415D02*
X1207Y415D01*
X0Y414D02*
X7Y414D01*
X1200Y414D02*
X1207Y414D01*
X0Y413D02*
X7Y413D01*
X1200Y413D02*
X1207Y413D01*
X0Y412D02*
X7Y412D01*
X1200Y412D02*
X1207Y412D01*
X0Y411D02*
X7Y411D01*
X1200Y411D02*
X1207Y411D01*
X0Y410D02*
X7Y410D01*
X1200Y410D02*
X1207Y410D01*
X0Y409D02*
X7Y409D01*
X1200Y409D02*
X1207Y409D01*
X0Y408D02*
X7Y408D01*
X1200Y408D02*
X1207Y408D01*
X0Y407D02*
X7Y407D01*
X1200Y407D02*
X1207Y407D01*
X0Y406D02*
X7Y406D01*
X1200Y406D02*
X1207Y406D01*
X0Y405D02*
X7Y405D01*
X1200Y405D02*
X1207Y405D01*
X0Y404D02*
X7Y404D01*
X1200Y404D02*
X1207Y404D01*
X0Y403D02*
X7Y403D01*
X1200Y403D02*
X1207Y403D01*
X0Y402D02*
X7Y402D01*
X1200Y402D02*
X1207Y402D01*
X0Y401D02*
X7Y401D01*
X1200Y401D02*
X1207Y401D01*
X0Y400D02*
X7Y400D01*
X1200Y400D02*
X1207Y400D01*
X0Y399D02*
X7Y399D01*
X1200Y399D02*
X1207Y399D01*
X0Y398D02*
X7Y398D01*
X1200Y398D02*
X1207Y398D01*
X0Y397D02*
X7Y397D01*
X1200Y397D02*
X1207Y397D01*
X0Y396D02*
X7Y396D01*
X1200Y396D02*
X1207Y396D01*
X0Y395D02*
X7Y395D01*
X1200Y395D02*
X1207Y395D01*
X0Y394D02*
X7Y394D01*
X1200Y394D02*
X1207Y394D01*
X0Y393D02*
X7Y393D01*
X1200Y393D02*
X1207Y393D01*
X0Y392D02*
X7Y392D01*
X1200Y392D02*
X1207Y392D01*
X0Y391D02*
X7Y391D01*
X1200Y391D02*
X1207Y391D01*
X0Y390D02*
X7Y390D01*
X1200Y390D02*
X1207Y390D01*
X0Y389D02*
X7Y389D01*
X1200Y389D02*
X1207Y389D01*
X0Y388D02*
X7Y388D01*
X1200Y388D02*
X1207Y388D01*
X0Y387D02*
X7Y387D01*
X1200Y387D02*
X1207Y387D01*
X0Y386D02*
X7Y386D01*
X1200Y386D02*
X1207Y386D01*
X0Y385D02*
X7Y385D01*
X1200Y385D02*
X1207Y385D01*
X0Y384D02*
X7Y384D01*
X1200Y384D02*
X1207Y384D01*
X0Y383D02*
X7Y383D01*
X1200Y383D02*
X1207Y383D01*
X0Y382D02*
X7Y382D01*
X1200Y382D02*
X1207Y382D01*
X0Y381D02*
X7Y381D01*
X1200Y381D02*
X1207Y381D01*
X0Y380D02*
X7Y380D01*
X1200Y380D02*
X1207Y380D01*
X0Y379D02*
X7Y379D01*
X1200Y379D02*
X1207Y379D01*
X0Y378D02*
X7Y378D01*
X1200Y378D02*
X1207Y378D01*
X0Y377D02*
X7Y377D01*
X1200Y377D02*
X1207Y377D01*
X0Y376D02*
X7Y376D01*
X1200Y376D02*
X1207Y376D01*
X0Y375D02*
X7Y375D01*
X1200Y375D02*
X1207Y375D01*
X0Y374D02*
X7Y374D01*
X1200Y374D02*
X1207Y374D01*
X0Y373D02*
X7Y373D01*
X1200Y373D02*
X1207Y373D01*
X0Y372D02*
X7Y372D01*
X1200Y372D02*
X1207Y372D01*
X0Y371D02*
X7Y371D01*
X1200Y371D02*
X1207Y371D01*
X0Y370D02*
X7Y370D01*
X1200Y370D02*
X1207Y370D01*
X0Y369D02*
X7Y369D01*
X1200Y369D02*
X1207Y369D01*
X0Y368D02*
X7Y368D01*
X1200Y368D02*
X1207Y368D01*
X0Y367D02*
X7Y367D01*
X1200Y367D02*
X1207Y367D01*
X0Y366D02*
X7Y366D01*
X386Y366D02*
X394Y366D01*
X746Y366D02*
X754Y366D01*
X1200Y366D02*
X1207Y366D01*
X0Y365D02*
X7Y365D01*
X385Y365D02*
X396Y365D01*
X745Y365D02*
X756Y365D01*
X1200Y365D02*
X1207Y365D01*
X0Y364D02*
X7Y364D01*
X384Y364D02*
X397Y364D01*
X744Y364D02*
X756Y364D01*
X1200Y364D02*
X1207Y364D01*
X0Y363D02*
X7Y363D01*
X384Y363D02*
X397Y363D01*
X743Y363D02*
X757Y363D01*
X1200Y363D02*
X1207Y363D01*
X0Y362D02*
X7Y362D01*
X297Y362D02*
X308Y362D01*
X333Y362D02*
X345Y362D01*
X383Y362D02*
X397Y362D01*
X656Y362D02*
X688Y362D01*
X743Y362D02*
X757Y362D01*
X948Y362D02*
X985Y362D01*
X1020Y362D02*
X1057Y362D01*
X1101Y362D02*
X1123Y362D01*
X1200Y362D02*
X1207Y362D01*
X0Y361D02*
X7Y361D01*
X297Y361D02*
X309Y361D01*
X333Y361D02*
X345Y361D01*
X383Y361D02*
X397Y361D01*
X656Y361D02*
X692Y361D01*
X743Y361D02*
X757Y361D01*
X946Y361D02*
X988Y361D01*
X1018Y361D02*
X1060Y361D01*
X1100Y361D02*
X1125Y361D01*
X1200Y361D02*
X1207Y361D01*
X0Y360D02*
X7Y360D01*
X297Y360D02*
X310Y360D01*
X332Y360D02*
X345Y360D01*
X383Y360D02*
X397Y360D01*
X656Y360D02*
X694Y360D01*
X743Y360D02*
X757Y360D01*
X945Y360D02*
X989Y360D01*
X1017Y360D02*
X1061Y360D01*
X1099Y360D02*
X1126Y360D01*
X1200Y360D02*
X1207Y360D01*
X0Y359D02*
X7Y359D01*
X297Y359D02*
X310Y359D01*
X331Y359D02*
X345Y359D01*
X383Y359D02*
X397Y359D01*
X656Y359D02*
X696Y359D01*
X743Y359D02*
X757Y359D01*
X945Y359D02*
X990Y359D01*
X1017Y359D02*
X1062Y359D01*
X1098Y359D02*
X1126Y359D01*
X1200Y359D02*
X1207Y359D01*
X0Y358D02*
X7Y358D01*
X297Y358D02*
X311Y358D01*
X331Y358D02*
X345Y358D01*
X383Y358D02*
X397Y358D01*
X656Y358D02*
X697Y358D01*
X743Y358D02*
X757Y358D01*
X815Y358D02*
X815Y358D01*
X944Y358D02*
X991Y358D01*
X1016Y358D02*
X1063Y358D01*
X1098Y358D02*
X1127Y358D01*
X1200Y358D02*
X1207Y358D01*
X0Y357D02*
X7Y357D01*
X297Y357D02*
X312Y357D01*
X330Y357D02*
X345Y357D01*
X383Y357D02*
X397Y357D01*
X656Y357D02*
X698Y357D01*
X743Y357D02*
X757Y357D01*
X812Y357D02*
X817Y357D01*
X944Y357D02*
X992Y357D01*
X1016Y357D02*
X1064Y357D01*
X1098Y357D02*
X1127Y357D01*
X1200Y357D02*
X1207Y357D01*
X0Y356D02*
X7Y356D01*
X297Y356D02*
X313Y356D01*
X329Y356D02*
X345Y356D01*
X384Y356D02*
X397Y356D01*
X656Y356D02*
X699Y356D01*
X743Y356D02*
X757Y356D01*
X811Y356D02*
X818Y356D01*
X944Y356D02*
X992Y356D01*
X1016Y356D02*
X1064Y356D01*
X1098Y356D02*
X1127Y356D01*
X1200Y356D02*
X1207Y356D01*
X0Y355D02*
X7Y355D01*
X297Y355D02*
X313Y355D01*
X329Y355D02*
X345Y355D01*
X384Y355D02*
X397Y355D01*
X656Y355D02*
X700Y355D01*
X744Y355D02*
X757Y355D01*
X811Y355D02*
X819Y355D01*
X945Y355D02*
X993Y355D01*
X1017Y355D02*
X1064Y355D01*
X1098Y355D02*
X1127Y355D01*
X1200Y355D02*
X1207Y355D01*
X0Y354D02*
X7Y354D01*
X297Y354D02*
X314Y354D01*
X328Y354D02*
X345Y354D01*
X385Y354D02*
X396Y354D01*
X656Y354D02*
X701Y354D01*
X744Y354D02*
X756Y354D01*
X810Y354D02*
X819Y354D01*
X945Y354D02*
X993Y354D01*
X1017Y354D02*
X1065Y354D01*
X1098Y354D02*
X1127Y354D01*
X1200Y354D02*
X1207Y354D01*
X0Y353D02*
X7Y353D01*
X297Y353D02*
X315Y353D01*
X327Y353D02*
X345Y353D01*
X386Y353D02*
X395Y353D01*
X656Y353D02*
X702Y353D01*
X746Y353D02*
X755Y353D01*
X810Y353D02*
X819Y353D01*
X947Y353D02*
X993Y353D01*
X1019Y353D02*
X1065Y353D01*
X1098Y353D02*
X1127Y353D01*
X1200Y353D02*
X1207Y353D01*
X0Y352D02*
X7Y352D01*
X297Y352D02*
X315Y352D01*
X326Y352D02*
X345Y352D01*
X656Y352D02*
X666Y352D01*
X688Y352D02*
X702Y352D01*
X810Y352D02*
X819Y352D01*
X984Y352D02*
X993Y352D01*
X1056Y352D02*
X1065Y352D01*
X1098Y352D02*
X1107Y352D01*
X1118Y352D02*
X1127Y352D01*
X1200Y352D02*
X1207Y352D01*
X0Y351D02*
X7Y351D01*
X297Y351D02*
X316Y351D01*
X326Y351D02*
X345Y351D01*
X656Y351D02*
X665Y351D01*
X691Y351D02*
X703Y351D01*
X810Y351D02*
X819Y351D01*
X984Y351D02*
X993Y351D01*
X1056Y351D02*
X1065Y351D01*
X1098Y351D02*
X1107Y351D01*
X1118Y351D02*
X1127Y351D01*
X1200Y351D02*
X1207Y351D01*
X0Y350D02*
X7Y350D01*
X297Y350D02*
X317Y350D01*
X325Y350D02*
X345Y350D01*
X656Y350D02*
X665Y350D01*
X692Y350D02*
X703Y350D01*
X810Y350D02*
X819Y350D01*
X984Y350D02*
X993Y350D01*
X1056Y350D02*
X1065Y350D01*
X1098Y350D02*
X1107Y350D01*
X1118Y350D02*
X1127Y350D01*
X1200Y350D02*
X1207Y350D01*
X0Y349D02*
X7Y349D01*
X297Y349D02*
X317Y349D01*
X324Y349D02*
X345Y349D01*
X656Y349D02*
X665Y349D01*
X693Y349D02*
X704Y349D01*
X810Y349D02*
X819Y349D01*
X984Y349D02*
X993Y349D01*
X1056Y349D02*
X1065Y349D01*
X1098Y349D02*
X1107Y349D01*
X1118Y349D02*
X1127Y349D01*
X1200Y349D02*
X1207Y349D01*
X0Y348D02*
X7Y348D01*
X297Y348D02*
X318Y348D01*
X324Y348D02*
X345Y348D01*
X656Y348D02*
X665Y348D01*
X694Y348D02*
X704Y348D01*
X810Y348D02*
X819Y348D01*
X984Y348D02*
X993Y348D01*
X1056Y348D02*
X1065Y348D01*
X1098Y348D02*
X1107Y348D01*
X1118Y348D02*
X1127Y348D01*
X1200Y348D02*
X1207Y348D01*
X0Y347D02*
X7Y347D01*
X297Y347D02*
X319Y347D01*
X323Y347D02*
X334Y347D01*
X336Y347D02*
X345Y347D01*
X656Y347D02*
X665Y347D01*
X695Y347D02*
X704Y347D01*
X810Y347D02*
X819Y347D01*
X984Y347D02*
X993Y347D01*
X1056Y347D02*
X1065Y347D01*
X1098Y347D02*
X1107Y347D01*
X1118Y347D02*
X1127Y347D01*
X1200Y347D02*
X1207Y347D01*
X0Y346D02*
X7Y346D01*
X297Y346D02*
X306Y346D01*
X308Y346D02*
X320Y346D01*
X322Y346D02*
X334Y346D01*
X336Y346D02*
X345Y346D01*
X656Y346D02*
X665Y346D01*
X695Y346D02*
X705Y346D01*
X810Y346D02*
X819Y346D01*
X984Y346D02*
X993Y346D01*
X1056Y346D02*
X1065Y346D01*
X1098Y346D02*
X1107Y346D01*
X1118Y346D02*
X1127Y346D01*
X1200Y346D02*
X1207Y346D01*
X0Y345D02*
X7Y345D01*
X297Y345D02*
X306Y345D01*
X309Y345D02*
X333Y345D01*
X336Y345D02*
X345Y345D01*
X656Y345D02*
X665Y345D01*
X696Y345D02*
X705Y345D01*
X810Y345D02*
X819Y345D01*
X984Y345D02*
X993Y345D01*
X1056Y345D02*
X1065Y345D01*
X1098Y345D02*
X1107Y345D01*
X1118Y345D02*
X1127Y345D01*
X1200Y345D02*
X1207Y345D01*
X0Y344D02*
X7Y344D01*
X297Y344D02*
X306Y344D01*
X310Y344D02*
X332Y344D01*
X336Y344D02*
X345Y344D01*
X656Y344D02*
X665Y344D01*
X696Y344D02*
X705Y344D01*
X810Y344D02*
X819Y344D01*
X984Y344D02*
X993Y344D01*
X1056Y344D02*
X1065Y344D01*
X1098Y344D02*
X1107Y344D01*
X1118Y344D02*
X1127Y344D01*
X1200Y344D02*
X1207Y344D01*
X0Y343D02*
X7Y343D01*
X297Y343D02*
X306Y343D01*
X310Y343D02*
X331Y343D01*
X336Y343D02*
X345Y343D01*
X656Y343D02*
X665Y343D01*
X696Y343D02*
X705Y343D01*
X810Y343D02*
X819Y343D01*
X984Y343D02*
X993Y343D01*
X1056Y343D02*
X1065Y343D01*
X1098Y343D02*
X1107Y343D01*
X1118Y343D02*
X1127Y343D01*
X1200Y343D02*
X1207Y343D01*
X0Y342D02*
X7Y342D01*
X297Y342D02*
X306Y342D01*
X311Y342D02*
X331Y342D01*
X336Y342D02*
X345Y342D01*
X656Y342D02*
X665Y342D01*
X696Y342D02*
X705Y342D01*
X810Y342D02*
X819Y342D01*
X984Y342D02*
X993Y342D01*
X1056Y342D02*
X1065Y342D01*
X1098Y342D02*
X1107Y342D01*
X1118Y342D02*
X1127Y342D01*
X1200Y342D02*
X1207Y342D01*
X0Y341D02*
X7Y341D01*
X297Y341D02*
X306Y341D01*
X312Y341D02*
X330Y341D01*
X336Y341D02*
X345Y341D01*
X378Y341D02*
X393Y341D01*
X463Y341D02*
X485Y341D01*
X517Y341D02*
X517Y341D01*
X536Y341D02*
X547Y341D01*
X602Y341D02*
X617Y341D01*
X656Y341D02*
X665Y341D01*
X696Y341D02*
X705Y341D01*
X738Y341D02*
X753Y341D01*
X805Y341D02*
X840Y341D01*
X984Y341D02*
X993Y341D01*
X1056Y341D02*
X1065Y341D01*
X1098Y341D02*
X1107Y341D01*
X1118Y341D02*
X1127Y341D01*
X1200Y341D02*
X1207Y341D01*
X0Y340D02*
X7Y340D01*
X297Y340D02*
X306Y340D01*
X312Y340D02*
X329Y340D01*
X336Y340D02*
X345Y340D01*
X375Y340D02*
X395Y340D01*
X458Y340D02*
X487Y340D01*
X514Y340D02*
X519Y340D01*
X534Y340D02*
X552Y340D01*
X597Y340D02*
X620Y340D01*
X656Y340D02*
X665Y340D01*
X696Y340D02*
X705Y340D01*
X735Y340D02*
X755Y340D01*
X802Y340D02*
X842Y340D01*
X984Y340D02*
X993Y340D01*
X1056Y340D02*
X1065Y340D01*
X1098Y340D02*
X1107Y340D01*
X1118Y340D02*
X1127Y340D01*
X1200Y340D02*
X1207Y340D01*
X0Y339D02*
X7Y339D01*
X297Y339D02*
X306Y339D01*
X313Y339D02*
X329Y339D01*
X336Y339D02*
X345Y339D01*
X374Y339D02*
X396Y339D01*
X456Y339D02*
X488Y339D01*
X513Y339D02*
X520Y339D01*
X533Y339D02*
X554Y339D01*
X595Y339D02*
X622Y339D01*
X656Y339D02*
X665Y339D01*
X696Y339D02*
X705Y339D01*
X734Y339D02*
X756Y339D01*
X801Y339D02*
X843Y339D01*
X984Y339D02*
X993Y339D01*
X1056Y339D02*
X1065Y339D01*
X1098Y339D02*
X1107Y339D01*
X1118Y339D02*
X1127Y339D01*
X1200Y339D02*
X1207Y339D01*
X0Y338D02*
X7Y338D01*
X297Y338D02*
X306Y338D01*
X314Y338D02*
X328Y338D01*
X336Y338D02*
X345Y338D01*
X374Y338D02*
X397Y338D01*
X455Y338D02*
X489Y338D01*
X513Y338D02*
X521Y338D01*
X532Y338D02*
X555Y338D01*
X594Y338D02*
X624Y338D01*
X656Y338D02*
X665Y338D01*
X696Y338D02*
X705Y338D01*
X734Y338D02*
X757Y338D01*
X801Y338D02*
X844Y338D01*
X984Y338D02*
X993Y338D01*
X1056Y338D02*
X1065Y338D01*
X1098Y338D02*
X1107Y338D01*
X1118Y338D02*
X1127Y338D01*
X1200Y338D02*
X1207Y338D01*
X0Y337D02*
X7Y337D01*
X297Y337D02*
X306Y337D01*
X315Y337D02*
X327Y337D01*
X336Y337D02*
X345Y337D01*
X374Y337D02*
X397Y337D01*
X453Y337D02*
X489Y337D01*
X513Y337D02*
X521Y337D01*
X531Y337D02*
X556Y337D01*
X593Y337D02*
X625Y337D01*
X656Y337D02*
X665Y337D01*
X696Y337D02*
X705Y337D01*
X733Y337D02*
X757Y337D01*
X800Y337D02*
X844Y337D01*
X984Y337D02*
X993Y337D01*
X1056Y337D02*
X1065Y337D01*
X1098Y337D02*
X1107Y337D01*
X1118Y337D02*
X1127Y337D01*
X1200Y337D02*
X1207Y337D01*
X0Y336D02*
X7Y336D01*
X297Y336D02*
X306Y336D01*
X315Y336D02*
X327Y336D01*
X336Y336D02*
X345Y336D01*
X373Y336D02*
X397Y336D01*
X452Y336D02*
X489Y336D01*
X512Y336D02*
X522Y336D01*
X529Y336D02*
X557Y336D01*
X592Y336D02*
X626Y336D01*
X656Y336D02*
X665Y336D01*
X696Y336D02*
X705Y336D01*
X733Y336D02*
X757Y336D01*
X800Y336D02*
X844Y336D01*
X984Y336D02*
X993Y336D01*
X1056Y336D02*
X1065Y336D01*
X1098Y336D02*
X1107Y336D01*
X1118Y336D02*
X1127Y336D01*
X1200Y336D02*
X1207Y336D01*
X0Y335D02*
X7Y335D01*
X297Y335D02*
X306Y335D01*
X316Y335D02*
X326Y335D01*
X336Y335D02*
X345Y335D01*
X374Y335D02*
X397Y335D01*
X451Y335D02*
X489Y335D01*
X512Y335D02*
X522Y335D01*
X528Y335D02*
X558Y335D01*
X590Y335D02*
X627Y335D01*
X656Y335D02*
X665Y335D01*
X695Y335D02*
X705Y335D01*
X733Y335D02*
X757Y335D01*
X800Y335D02*
X844Y335D01*
X984Y335D02*
X993Y335D01*
X1056Y335D02*
X1065Y335D01*
X1098Y335D02*
X1107Y335D01*
X1118Y335D02*
X1127Y335D01*
X1200Y335D02*
X1207Y335D01*
X0Y334D02*
X7Y334D01*
X297Y334D02*
X306Y334D01*
X316Y334D02*
X325Y334D01*
X336Y334D02*
X345Y334D01*
X374Y334D02*
X397Y334D01*
X450Y334D02*
X489Y334D01*
X512Y334D02*
X522Y334D01*
X527Y334D02*
X559Y334D01*
X589Y334D02*
X628Y334D01*
X656Y334D02*
X665Y334D01*
X695Y334D02*
X705Y334D01*
X734Y334D02*
X757Y334D01*
X801Y334D02*
X844Y334D01*
X984Y334D02*
X993Y334D01*
X1056Y334D02*
X1065Y334D01*
X1098Y334D02*
X1107Y334D01*
X1118Y334D02*
X1127Y334D01*
X1200Y334D02*
X1207Y334D01*
X0Y333D02*
X7Y333D01*
X297Y333D02*
X306Y333D01*
X316Y333D02*
X325Y333D01*
X336Y333D02*
X345Y333D01*
X375Y333D02*
X397Y333D01*
X449Y333D02*
X488Y333D01*
X512Y333D02*
X522Y333D01*
X526Y333D02*
X559Y333D01*
X588Y333D02*
X629Y333D01*
X656Y333D02*
X665Y333D01*
X694Y333D02*
X704Y333D01*
X734Y333D02*
X757Y333D01*
X801Y333D02*
X843Y333D01*
X984Y333D02*
X993Y333D01*
X1056Y333D02*
X1065Y333D01*
X1098Y333D02*
X1107Y333D01*
X1118Y333D02*
X1127Y333D01*
X1200Y333D02*
X1207Y333D01*
X0Y332D02*
X7Y332D01*
X297Y332D02*
X306Y332D01*
X316Y332D02*
X325Y332D01*
X336Y332D02*
X345Y332D01*
X376Y332D02*
X397Y332D01*
X448Y332D02*
X487Y332D01*
X512Y332D02*
X522Y332D01*
X525Y332D02*
X560Y332D01*
X587Y332D02*
X630Y332D01*
X656Y332D02*
X665Y332D01*
X694Y332D02*
X704Y332D01*
X735Y332D02*
X757Y332D01*
X802Y332D02*
X842Y332D01*
X984Y332D02*
X993Y332D01*
X1056Y332D02*
X1065Y332D01*
X1098Y332D02*
X1107Y332D01*
X1118Y332D02*
X1127Y332D01*
X1200Y332D02*
X1207Y332D01*
X0Y331D02*
X7Y331D01*
X297Y331D02*
X306Y331D01*
X316Y331D02*
X325Y331D01*
X336Y331D02*
X345Y331D01*
X388Y331D02*
X397Y331D01*
X447Y331D02*
X463Y331D01*
X512Y331D02*
X522Y331D01*
X524Y331D02*
X538Y331D01*
X547Y331D02*
X560Y331D01*
X587Y331D02*
X602Y331D01*
X616Y331D02*
X631Y331D01*
X656Y331D02*
X665Y331D01*
X693Y331D02*
X704Y331D01*
X748Y331D02*
X757Y331D01*
X810Y331D02*
X820Y331D01*
X983Y331D02*
X993Y331D01*
X1056Y331D02*
X1065Y331D01*
X1098Y331D02*
X1107Y331D01*
X1118Y331D02*
X1127Y331D01*
X1200Y331D02*
X1207Y331D01*
X0Y330D02*
X7Y330D01*
X297Y330D02*
X306Y330D01*
X317Y330D02*
X325Y330D01*
X336Y330D02*
X345Y330D01*
X388Y330D02*
X397Y330D01*
X446Y330D02*
X460Y330D01*
X512Y330D02*
X537Y330D01*
X550Y330D02*
X561Y330D01*
X586Y330D02*
X599Y330D01*
X619Y330D02*
X631Y330D01*
X656Y330D02*
X665Y330D01*
X691Y330D02*
X703Y330D01*
X748Y330D02*
X757Y330D01*
X810Y330D02*
X819Y330D01*
X982Y330D02*
X993Y330D01*
X1056Y330D02*
X1065Y330D01*
X1098Y330D02*
X1107Y330D01*
X1118Y330D02*
X1127Y330D01*
X1200Y330D02*
X1207Y330D01*
X0Y329D02*
X7Y329D01*
X297Y329D02*
X306Y329D01*
X317Y329D02*
X324Y329D01*
X336Y329D02*
X345Y329D01*
X388Y329D02*
X397Y329D01*
X445Y329D02*
X459Y329D01*
X512Y329D02*
X536Y329D01*
X551Y329D02*
X561Y329D01*
X586Y329D02*
X598Y329D01*
X620Y329D02*
X632Y329D01*
X656Y329D02*
X665Y329D01*
X689Y329D02*
X703Y329D01*
X748Y329D02*
X757Y329D01*
X810Y329D02*
X819Y329D01*
X981Y329D02*
X992Y329D01*
X1056Y329D02*
X1065Y329D01*
X1098Y329D02*
X1107Y329D01*
X1118Y329D02*
X1127Y329D01*
X1200Y329D02*
X1207Y329D01*
X0Y328D02*
X7Y328D01*
X297Y328D02*
X306Y328D01*
X318Y328D02*
X324Y328D01*
X336Y328D02*
X345Y328D01*
X388Y328D02*
X397Y328D01*
X444Y328D02*
X458Y328D01*
X512Y328D02*
X535Y328D01*
X552Y328D02*
X561Y328D01*
X585Y328D02*
X597Y328D01*
X621Y328D02*
X632Y328D01*
X656Y328D02*
X702Y328D01*
X748Y328D02*
X757Y328D01*
X810Y328D02*
X819Y328D01*
X957Y328D02*
X992Y328D01*
X1024Y328D02*
X1065Y328D01*
X1095Y328D02*
X1130Y328D01*
X1200Y328D02*
X1207Y328D01*
X0Y327D02*
X7Y327D01*
X297Y327D02*
X306Y327D01*
X320Y327D02*
X322Y327D01*
X336Y327D02*
X345Y327D01*
X388Y327D02*
X397Y327D01*
X443Y327D02*
X457Y327D01*
X512Y327D02*
X533Y327D01*
X552Y327D02*
X561Y327D01*
X585Y327D02*
X595Y327D01*
X622Y327D02*
X633Y327D01*
X656Y327D02*
X701Y327D01*
X748Y327D02*
X757Y327D01*
X810Y327D02*
X819Y327D01*
X956Y327D02*
X991Y327D01*
X1021Y327D02*
X1065Y327D01*
X1093Y327D02*
X1132Y327D01*
X1200Y327D02*
X1207Y327D01*
X0Y326D02*
X7Y326D01*
X297Y326D02*
X306Y326D01*
X336Y326D02*
X345Y326D01*
X388Y326D02*
X397Y326D01*
X442Y326D02*
X455Y326D01*
X512Y326D02*
X532Y326D01*
X552Y326D02*
X561Y326D01*
X585Y326D02*
X595Y326D01*
X623Y326D02*
X633Y326D01*
X656Y326D02*
X701Y326D01*
X748Y326D02*
X757Y326D01*
X810Y326D02*
X819Y326D01*
X955Y326D02*
X991Y326D01*
X1020Y326D02*
X1065Y326D01*
X1092Y326D02*
X1133Y326D01*
X1200Y326D02*
X1207Y326D01*
X0Y325D02*
X7Y325D01*
X297Y325D02*
X306Y325D01*
X336Y325D02*
X345Y325D01*
X388Y325D02*
X397Y325D01*
X442Y325D02*
X454Y325D01*
X512Y325D02*
X531Y325D01*
X552Y325D02*
X561Y325D01*
X585Y325D02*
X594Y325D01*
X624Y325D02*
X633Y325D01*
X656Y325D02*
X700Y325D01*
X748Y325D02*
X757Y325D01*
X810Y325D02*
X819Y325D01*
X954Y325D02*
X990Y325D01*
X1019Y325D02*
X1064Y325D01*
X1091Y325D02*
X1134Y325D01*
X1200Y325D02*
X1207Y325D01*
X0Y324D02*
X7Y324D01*
X297Y324D02*
X306Y324D01*
X336Y324D02*
X345Y324D01*
X388Y324D02*
X397Y324D01*
X441Y324D02*
X453Y324D01*
X512Y324D02*
X530Y324D01*
X552Y324D02*
X561Y324D01*
X585Y324D02*
X594Y324D01*
X624Y324D02*
X633Y324D01*
X656Y324D02*
X699Y324D01*
X748Y324D02*
X757Y324D01*
X810Y324D02*
X819Y324D01*
X954Y324D02*
X989Y324D01*
X1018Y324D02*
X1064Y324D01*
X1090Y324D02*
X1135Y324D01*
X1200Y324D02*
X1207Y324D01*
X0Y323D02*
X7Y323D01*
X297Y323D02*
X306Y323D01*
X336Y323D02*
X345Y323D01*
X388Y323D02*
X397Y323D01*
X441Y323D02*
X452Y323D01*
X512Y323D02*
X529Y323D01*
X552Y323D02*
X561Y323D01*
X584Y323D02*
X593Y323D01*
X624Y323D02*
X633Y323D01*
X656Y323D02*
X698Y323D01*
X748Y323D02*
X757Y323D01*
X810Y323D02*
X819Y323D01*
X954Y323D02*
X989Y323D01*
X1017Y323D02*
X1063Y323D01*
X1089Y323D02*
X1136Y323D01*
X1200Y323D02*
X1207Y323D01*
X0Y322D02*
X7Y322D01*
X297Y322D02*
X306Y322D01*
X336Y322D02*
X345Y322D01*
X388Y322D02*
X397Y322D01*
X441Y322D02*
X451Y322D01*
X512Y322D02*
X528Y322D01*
X552Y322D02*
X561Y322D01*
X584Y322D02*
X593Y322D01*
X624Y322D02*
X633Y322D01*
X656Y322D02*
X699Y322D01*
X748Y322D02*
X757Y322D01*
X810Y322D02*
X819Y322D01*
X954Y322D02*
X990Y322D01*
X1017Y322D02*
X1062Y322D01*
X1089Y322D02*
X1136Y322D01*
X1200Y322D02*
X1207Y322D01*
X0Y321D02*
X7Y321D01*
X297Y321D02*
X306Y321D01*
X336Y321D02*
X345Y321D01*
X388Y321D02*
X397Y321D01*
X441Y321D02*
X450Y321D01*
X512Y321D02*
X526Y321D01*
X553Y321D02*
X561Y321D01*
X584Y321D02*
X593Y321D01*
X624Y321D02*
X633Y321D01*
X656Y321D02*
X700Y321D01*
X748Y321D02*
X757Y321D01*
X810Y321D02*
X819Y321D01*
X955Y321D02*
X991Y321D01*
X1017Y321D02*
X1062Y321D01*
X1088Y321D02*
X1136Y321D01*
X1200Y321D02*
X1207Y321D01*
X0Y320D02*
X7Y320D01*
X297Y320D02*
X306Y320D01*
X336Y320D02*
X345Y320D01*
X388Y320D02*
X397Y320D01*
X441Y320D02*
X450Y320D01*
X512Y320D02*
X525Y320D01*
X553Y320D02*
X560Y320D01*
X584Y320D02*
X593Y320D01*
X624Y320D02*
X633Y320D01*
X656Y320D02*
X701Y320D01*
X748Y320D02*
X757Y320D01*
X810Y320D02*
X819Y320D01*
X955Y320D02*
X991Y320D01*
X1016Y320D02*
X1060Y320D01*
X1088Y320D02*
X1137Y320D01*
X1200Y320D02*
X1207Y320D01*
X0Y319D02*
X7Y319D01*
X297Y319D02*
X306Y319D01*
X336Y319D02*
X345Y319D01*
X388Y319D02*
X397Y319D01*
X440Y319D02*
X450Y319D01*
X512Y319D02*
X524Y319D01*
X555Y319D02*
X559Y319D01*
X584Y319D02*
X593Y319D01*
X624Y319D02*
X633Y319D01*
X656Y319D02*
X702Y319D01*
X748Y319D02*
X757Y319D01*
X810Y319D02*
X819Y319D01*
X957Y319D02*
X992Y319D01*
X1016Y319D02*
X1058Y319D01*
X1088Y319D02*
X1137Y319D01*
X1200Y319D02*
X1207Y319D01*
X0Y318D02*
X7Y318D01*
X297Y318D02*
X306Y318D01*
X336Y318D02*
X345Y318D01*
X388Y318D02*
X397Y318D01*
X440Y318D02*
X450Y318D01*
X512Y318D02*
X523Y318D01*
X584Y318D02*
X593Y318D01*
X624Y318D02*
X633Y318D01*
X656Y318D02*
X666Y318D01*
X688Y318D02*
X702Y318D01*
X748Y318D02*
X757Y318D01*
X810Y318D02*
X819Y318D01*
X980Y318D02*
X992Y318D01*
X1016Y318D02*
X1025Y318D01*
X1088Y318D02*
X1097Y318D01*
X1128Y318D02*
X1137Y318D01*
X1200Y318D02*
X1207Y318D01*
X0Y317D02*
X7Y317D01*
X297Y317D02*
X306Y317D01*
X336Y317D02*
X345Y317D01*
X388Y317D02*
X397Y317D01*
X440Y317D02*
X450Y317D01*
X512Y317D02*
X522Y317D01*
X584Y317D02*
X593Y317D01*
X624Y317D02*
X633Y317D01*
X656Y317D02*
X665Y317D01*
X691Y317D02*
X703Y317D01*
X748Y317D02*
X757Y317D01*
X810Y317D02*
X819Y317D01*
X982Y317D02*
X992Y317D01*
X1016Y317D02*
X1025Y317D01*
X1088Y317D02*
X1097Y317D01*
X1128Y317D02*
X1137Y317D01*
X1200Y317D02*
X1207Y317D01*
X0Y316D02*
X7Y316D01*
X297Y316D02*
X306Y316D01*
X336Y316D02*
X345Y316D01*
X388Y316D02*
X397Y316D01*
X440Y316D02*
X450Y316D01*
X512Y316D02*
X522Y316D01*
X584Y316D02*
X593Y316D01*
X624Y316D02*
X633Y316D01*
X656Y316D02*
X665Y316D01*
X692Y316D02*
X704Y316D01*
X748Y316D02*
X757Y316D01*
X810Y316D02*
X819Y316D01*
X983Y316D02*
X993Y316D01*
X1016Y316D02*
X1025Y316D01*
X1088Y316D02*
X1097Y316D01*
X1128Y316D02*
X1137Y316D01*
X1200Y316D02*
X1207Y316D01*
X0Y315D02*
X7Y315D01*
X297Y315D02*
X306Y315D01*
X336Y315D02*
X345Y315D01*
X388Y315D02*
X397Y315D01*
X440Y315D02*
X450Y315D01*
X512Y315D02*
X522Y315D01*
X584Y315D02*
X593Y315D01*
X624Y315D02*
X633Y315D01*
X656Y315D02*
X665Y315D01*
X693Y315D02*
X704Y315D01*
X748Y315D02*
X757Y315D01*
X810Y315D02*
X819Y315D01*
X983Y315D02*
X993Y315D01*
X1016Y315D02*
X1025Y315D01*
X1088Y315D02*
X1097Y315D01*
X1128Y315D02*
X1137Y315D01*
X1200Y315D02*
X1207Y315D01*
X0Y314D02*
X7Y314D01*
X297Y314D02*
X306Y314D01*
X336Y314D02*
X345Y314D01*
X388Y314D02*
X397Y314D01*
X440Y314D02*
X450Y314D01*
X512Y314D02*
X522Y314D01*
X584Y314D02*
X593Y314D01*
X624Y314D02*
X633Y314D01*
X656Y314D02*
X665Y314D01*
X694Y314D02*
X704Y314D01*
X748Y314D02*
X757Y314D01*
X810Y314D02*
X819Y314D01*
X984Y314D02*
X993Y314D01*
X1016Y314D02*
X1025Y314D01*
X1088Y314D02*
X1097Y314D01*
X1128Y314D02*
X1137Y314D01*
X1200Y314D02*
X1207Y314D01*
X0Y313D02*
X7Y313D01*
X297Y313D02*
X306Y313D01*
X336Y313D02*
X345Y313D01*
X388Y313D02*
X397Y313D01*
X440Y313D02*
X450Y313D01*
X512Y313D02*
X522Y313D01*
X584Y313D02*
X593Y313D01*
X624Y313D02*
X633Y313D01*
X656Y313D02*
X665Y313D01*
X695Y313D02*
X705Y313D01*
X748Y313D02*
X757Y313D01*
X810Y313D02*
X819Y313D01*
X984Y313D02*
X993Y313D01*
X1016Y313D02*
X1025Y313D01*
X1088Y313D02*
X1097Y313D01*
X1128Y313D02*
X1137Y313D01*
X1200Y313D02*
X1207Y313D01*
X0Y312D02*
X7Y312D01*
X297Y312D02*
X306Y312D01*
X336Y312D02*
X345Y312D01*
X388Y312D02*
X397Y312D01*
X440Y312D02*
X450Y312D01*
X512Y312D02*
X522Y312D01*
X584Y312D02*
X593Y312D01*
X624Y312D02*
X633Y312D01*
X656Y312D02*
X665Y312D01*
X695Y312D02*
X705Y312D01*
X748Y312D02*
X757Y312D01*
X810Y312D02*
X819Y312D01*
X984Y312D02*
X993Y312D01*
X1016Y312D02*
X1025Y312D01*
X1088Y312D02*
X1097Y312D01*
X1128Y312D02*
X1137Y312D01*
X1200Y312D02*
X1207Y312D01*
X0Y311D02*
X7Y311D01*
X297Y311D02*
X306Y311D01*
X336Y311D02*
X345Y311D01*
X388Y311D02*
X397Y311D01*
X440Y311D02*
X450Y311D01*
X512Y311D02*
X522Y311D01*
X584Y311D02*
X593Y311D01*
X624Y311D02*
X633Y311D01*
X656Y311D02*
X665Y311D01*
X696Y311D02*
X705Y311D01*
X748Y311D02*
X757Y311D01*
X810Y311D02*
X819Y311D01*
X984Y311D02*
X993Y311D01*
X1016Y311D02*
X1025Y311D01*
X1088Y311D02*
X1097Y311D01*
X1128Y311D02*
X1137Y311D01*
X1200Y311D02*
X1207Y311D01*
X0Y310D02*
X7Y310D01*
X297Y310D02*
X306Y310D01*
X336Y310D02*
X345Y310D01*
X388Y310D02*
X397Y310D01*
X440Y310D02*
X450Y310D01*
X512Y310D02*
X522Y310D01*
X584Y310D02*
X593Y310D01*
X624Y310D02*
X633Y310D01*
X656Y310D02*
X665Y310D01*
X696Y310D02*
X705Y310D01*
X748Y310D02*
X757Y310D01*
X810Y310D02*
X819Y310D01*
X984Y310D02*
X993Y310D01*
X1016Y310D02*
X1025Y310D01*
X1088Y310D02*
X1097Y310D01*
X1128Y310D02*
X1137Y310D01*
X1200Y310D02*
X1207Y310D01*
X0Y309D02*
X7Y309D01*
X297Y309D02*
X306Y309D01*
X336Y309D02*
X345Y309D01*
X388Y309D02*
X397Y309D01*
X440Y309D02*
X450Y309D01*
X512Y309D02*
X522Y309D01*
X584Y309D02*
X593Y309D01*
X624Y309D02*
X633Y309D01*
X656Y309D02*
X665Y309D01*
X696Y309D02*
X705Y309D01*
X748Y309D02*
X757Y309D01*
X810Y309D02*
X819Y309D01*
X984Y309D02*
X993Y309D01*
X1016Y309D02*
X1025Y309D01*
X1088Y309D02*
X1097Y309D01*
X1128Y309D02*
X1137Y309D01*
X1200Y309D02*
X1207Y309D01*
X0Y308D02*
X7Y308D01*
X297Y308D02*
X306Y308D01*
X336Y308D02*
X345Y308D01*
X388Y308D02*
X397Y308D01*
X440Y308D02*
X450Y308D01*
X512Y308D02*
X522Y308D01*
X584Y308D02*
X593Y308D01*
X624Y308D02*
X633Y308D01*
X656Y308D02*
X665Y308D01*
X696Y308D02*
X705Y308D01*
X748Y308D02*
X757Y308D01*
X810Y308D02*
X819Y308D01*
X984Y308D02*
X993Y308D01*
X1016Y308D02*
X1025Y308D01*
X1088Y308D02*
X1097Y308D01*
X1128Y308D02*
X1137Y308D01*
X1200Y308D02*
X1207Y308D01*
X0Y307D02*
X7Y307D01*
X297Y307D02*
X306Y307D01*
X336Y307D02*
X345Y307D01*
X388Y307D02*
X397Y307D01*
X440Y307D02*
X450Y307D01*
X512Y307D02*
X522Y307D01*
X584Y307D02*
X593Y307D01*
X624Y307D02*
X633Y307D01*
X656Y307D02*
X665Y307D01*
X696Y307D02*
X705Y307D01*
X748Y307D02*
X757Y307D01*
X810Y307D02*
X819Y307D01*
X984Y307D02*
X993Y307D01*
X1016Y307D02*
X1025Y307D01*
X1088Y307D02*
X1097Y307D01*
X1128Y307D02*
X1137Y307D01*
X1200Y307D02*
X1207Y307D01*
X0Y306D02*
X7Y306D01*
X297Y306D02*
X306Y306D01*
X336Y306D02*
X345Y306D01*
X388Y306D02*
X397Y306D01*
X441Y306D02*
X450Y306D01*
X512Y306D02*
X522Y306D01*
X584Y306D02*
X593Y306D01*
X624Y306D02*
X633Y306D01*
X656Y306D02*
X665Y306D01*
X696Y306D02*
X705Y306D01*
X748Y306D02*
X757Y306D01*
X810Y306D02*
X819Y306D01*
X984Y306D02*
X993Y306D01*
X1016Y306D02*
X1025Y306D01*
X1088Y306D02*
X1097Y306D01*
X1128Y306D02*
X1137Y306D01*
X1200Y306D02*
X1207Y306D01*
X0Y305D02*
X7Y305D01*
X297Y305D02*
X306Y305D01*
X336Y305D02*
X345Y305D01*
X388Y305D02*
X397Y305D01*
X441Y305D02*
X450Y305D01*
X512Y305D02*
X522Y305D01*
X584Y305D02*
X593Y305D01*
X624Y305D02*
X633Y305D01*
X656Y305D02*
X665Y305D01*
X696Y305D02*
X705Y305D01*
X748Y305D02*
X757Y305D01*
X810Y305D02*
X819Y305D01*
X984Y305D02*
X993Y305D01*
X1016Y305D02*
X1025Y305D01*
X1088Y305D02*
X1097Y305D01*
X1128Y305D02*
X1137Y305D01*
X1200Y305D02*
X1207Y305D01*
X0Y304D02*
X7Y304D01*
X297Y304D02*
X306Y304D01*
X336Y304D02*
X345Y304D01*
X388Y304D02*
X397Y304D01*
X441Y304D02*
X450Y304D01*
X512Y304D02*
X522Y304D01*
X584Y304D02*
X593Y304D01*
X624Y304D02*
X633Y304D01*
X656Y304D02*
X665Y304D01*
X696Y304D02*
X705Y304D01*
X748Y304D02*
X757Y304D01*
X810Y304D02*
X819Y304D01*
X984Y304D02*
X993Y304D01*
X1016Y304D02*
X1025Y304D01*
X1088Y304D02*
X1097Y304D01*
X1128Y304D02*
X1137Y304D01*
X1200Y304D02*
X1207Y304D01*
X0Y303D02*
X7Y303D01*
X297Y303D02*
X306Y303D01*
X336Y303D02*
X345Y303D01*
X388Y303D02*
X397Y303D01*
X441Y303D02*
X451Y303D01*
X512Y303D02*
X522Y303D01*
X584Y303D02*
X593Y303D01*
X624Y303D02*
X633Y303D01*
X656Y303D02*
X665Y303D01*
X696Y303D02*
X705Y303D01*
X748Y303D02*
X757Y303D01*
X810Y303D02*
X819Y303D01*
X984Y303D02*
X993Y303D01*
X1016Y303D02*
X1025Y303D01*
X1088Y303D02*
X1097Y303D01*
X1128Y303D02*
X1137Y303D01*
X1200Y303D02*
X1207Y303D01*
X0Y302D02*
X7Y302D01*
X297Y302D02*
X306Y302D01*
X336Y302D02*
X345Y302D01*
X388Y302D02*
X397Y302D01*
X441Y302D02*
X452Y302D01*
X512Y302D02*
X522Y302D01*
X584Y302D02*
X594Y302D01*
X624Y302D02*
X633Y302D01*
X656Y302D02*
X665Y302D01*
X696Y302D02*
X705Y302D01*
X748Y302D02*
X757Y302D01*
X810Y302D02*
X819Y302D01*
X842Y302D02*
X847Y302D01*
X984Y302D02*
X993Y302D01*
X1016Y302D02*
X1025Y302D01*
X1088Y302D02*
X1097Y302D01*
X1128Y302D02*
X1137Y302D01*
X1200Y302D02*
X1207Y302D01*
X0Y301D02*
X7Y301D01*
X297Y301D02*
X306Y301D01*
X336Y301D02*
X345Y301D01*
X388Y301D02*
X397Y301D01*
X442Y301D02*
X454Y301D01*
X512Y301D02*
X522Y301D01*
X585Y301D02*
X594Y301D01*
X624Y301D02*
X633Y301D01*
X656Y301D02*
X665Y301D01*
X695Y301D02*
X705Y301D01*
X748Y301D02*
X757Y301D01*
X810Y301D02*
X819Y301D01*
X841Y301D02*
X848Y301D01*
X984Y301D02*
X993Y301D01*
X1016Y301D02*
X1025Y301D01*
X1088Y301D02*
X1097Y301D01*
X1128Y301D02*
X1137Y301D01*
X1200Y301D02*
X1207Y301D01*
X0Y300D02*
X7Y300D01*
X297Y300D02*
X306Y300D01*
X336Y300D02*
X345Y300D01*
X388Y300D02*
X397Y300D01*
X442Y300D02*
X455Y300D01*
X512Y300D02*
X522Y300D01*
X585Y300D02*
X594Y300D01*
X623Y300D02*
X633Y300D01*
X656Y300D02*
X665Y300D01*
X695Y300D02*
X705Y300D01*
X748Y300D02*
X757Y300D01*
X810Y300D02*
X819Y300D01*
X841Y300D02*
X849Y300D01*
X984Y300D02*
X993Y300D01*
X1016Y300D02*
X1025Y300D01*
X1088Y300D02*
X1097Y300D01*
X1128Y300D02*
X1137Y300D01*
X1200Y300D02*
X1207Y300D01*
X0Y299D02*
X7Y299D01*
X297Y299D02*
X306Y299D01*
X336Y299D02*
X345Y299D01*
X388Y299D02*
X397Y299D01*
X443Y299D02*
X456Y299D01*
X512Y299D02*
X522Y299D01*
X585Y299D02*
X595Y299D01*
X622Y299D02*
X633Y299D01*
X656Y299D02*
X665Y299D01*
X694Y299D02*
X704Y299D01*
X748Y299D02*
X757Y299D01*
X810Y299D02*
X819Y299D01*
X840Y299D02*
X849Y299D01*
X984Y299D02*
X993Y299D01*
X1016Y299D02*
X1025Y299D01*
X1088Y299D02*
X1097Y299D01*
X1128Y299D02*
X1137Y299D01*
X1200Y299D02*
X1207Y299D01*
X0Y298D02*
X7Y298D01*
X297Y298D02*
X306Y298D01*
X336Y298D02*
X345Y298D01*
X388Y298D02*
X397Y298D01*
X443Y298D02*
X457Y298D01*
X512Y298D02*
X522Y298D01*
X585Y298D02*
X596Y298D01*
X621Y298D02*
X633Y298D01*
X656Y298D02*
X665Y298D01*
X693Y298D02*
X704Y298D01*
X748Y298D02*
X757Y298D01*
X810Y298D02*
X820Y298D01*
X840Y298D02*
X849Y298D01*
X984Y298D02*
X993Y298D01*
X1016Y298D02*
X1025Y298D01*
X1088Y298D02*
X1097Y298D01*
X1128Y298D02*
X1137Y298D01*
X1200Y298D02*
X1207Y298D01*
X0Y297D02*
X7Y297D01*
X297Y297D02*
X306Y297D01*
X336Y297D02*
X345Y297D01*
X388Y297D02*
X397Y297D01*
X444Y297D02*
X458Y297D01*
X512Y297D02*
X522Y297D01*
X585Y297D02*
X597Y297D01*
X620Y297D02*
X632Y297D01*
X656Y297D02*
X665Y297D01*
X692Y297D02*
X704Y297D01*
X748Y297D02*
X757Y297D01*
X810Y297D02*
X820Y297D01*
X839Y297D02*
X849Y297D01*
X984Y297D02*
X993Y297D01*
X1016Y297D02*
X1025Y297D01*
X1088Y297D02*
X1097Y297D01*
X1128Y297D02*
X1137Y297D01*
X1200Y297D02*
X1207Y297D01*
X0Y296D02*
X7Y296D01*
X297Y296D02*
X306Y296D01*
X336Y296D02*
X345Y296D01*
X388Y296D02*
X397Y296D01*
X445Y296D02*
X459Y296D01*
X512Y296D02*
X522Y296D01*
X586Y296D02*
X598Y296D01*
X619Y296D02*
X632Y296D01*
X656Y296D02*
X665Y296D01*
X691Y296D02*
X703Y296D01*
X748Y296D02*
X757Y296D01*
X811Y296D02*
X821Y296D01*
X838Y296D02*
X849Y296D01*
X984Y296D02*
X993Y296D01*
X1016Y296D02*
X1025Y296D01*
X1088Y296D02*
X1097Y296D01*
X1128Y296D02*
X1137Y296D01*
X1200Y296D02*
X1207Y296D01*
X0Y295D02*
X7Y295D01*
X297Y295D02*
X306Y295D01*
X336Y295D02*
X345Y295D01*
X388Y295D02*
X397Y295D01*
X446Y295D02*
X461Y295D01*
X512Y295D02*
X522Y295D01*
X586Y295D02*
X600Y295D01*
X618Y295D02*
X631Y295D01*
X656Y295D02*
X665Y295D01*
X689Y295D02*
X703Y295D01*
X748Y295D02*
X757Y295D01*
X811Y295D02*
X822Y295D01*
X837Y295D02*
X848Y295D01*
X984Y295D02*
X993Y295D01*
X1016Y295D02*
X1025Y295D01*
X1088Y295D02*
X1097Y295D01*
X1128Y295D02*
X1137Y295D01*
X1200Y295D02*
X1207Y295D01*
X0Y294D02*
X7Y294D01*
X297Y294D02*
X306Y294D01*
X336Y294D02*
X345Y294D01*
X376Y294D02*
X409Y294D01*
X447Y294D02*
X486Y294D01*
X512Y294D02*
X522Y294D01*
X587Y294D02*
X630Y294D01*
X656Y294D02*
X702Y294D01*
X736Y294D02*
X769Y294D01*
X811Y294D02*
X848Y294D01*
X947Y294D02*
X993Y294D01*
X1016Y294D02*
X1062Y294D01*
X1088Y294D02*
X1137Y294D01*
X1200Y294D02*
X1207Y294D01*
X0Y293D02*
X7Y293D01*
X297Y293D02*
X306Y293D01*
X336Y293D02*
X345Y293D01*
X375Y293D02*
X411Y293D01*
X448Y293D02*
X488Y293D01*
X512Y293D02*
X522Y293D01*
X588Y293D02*
X630Y293D01*
X656Y293D02*
X701Y293D01*
X735Y293D02*
X770Y293D01*
X812Y293D02*
X848Y293D01*
X946Y293D02*
X993Y293D01*
X1016Y293D02*
X1063Y293D01*
X1088Y293D02*
X1137Y293D01*
X1200Y293D02*
X1207Y293D01*
X0Y292D02*
X7Y292D01*
X297Y292D02*
X306Y292D01*
X336Y292D02*
X345Y292D01*
X374Y292D02*
X411Y292D01*
X450Y292D02*
X488Y292D01*
X512Y292D02*
X522Y292D01*
X589Y292D02*
X629Y292D01*
X656Y292D02*
X700Y292D01*
X734Y292D02*
X771Y292D01*
X812Y292D02*
X847Y292D01*
X945Y292D02*
X993Y292D01*
X1016Y292D02*
X1064Y292D01*
X1088Y292D02*
X1137Y292D01*
X1200Y292D02*
X1207Y292D01*
X0Y291D02*
X7Y291D01*
X297Y291D02*
X306Y291D01*
X336Y291D02*
X345Y291D01*
X374Y291D02*
X412Y291D01*
X451Y291D02*
X489Y291D01*
X512Y291D02*
X522Y291D01*
X590Y291D02*
X628Y291D01*
X656Y291D02*
X700Y291D01*
X734Y291D02*
X772Y291D01*
X813Y291D02*
X846Y291D01*
X944Y291D02*
X992Y291D01*
X1016Y291D02*
X1065Y291D01*
X1089Y291D02*
X1136Y291D01*
X1200Y291D02*
X1207Y291D01*
X0Y290D02*
X7Y290D01*
X297Y290D02*
X306Y290D01*
X336Y290D02*
X345Y290D01*
X374Y290D02*
X412Y290D01*
X452Y290D02*
X489Y290D01*
X512Y290D02*
X522Y290D01*
X591Y290D02*
X627Y290D01*
X656Y290D02*
X699Y290D01*
X733Y290D02*
X772Y290D01*
X814Y290D02*
X846Y290D01*
X944Y290D02*
X992Y290D01*
X1016Y290D02*
X1065Y290D01*
X1089Y290D02*
X1136Y290D01*
X1200Y290D02*
X1207Y290D01*
X0Y289D02*
X7Y289D01*
X297Y289D02*
X306Y289D01*
X336Y289D02*
X345Y289D01*
X373Y289D02*
X412Y289D01*
X453Y289D02*
X489Y289D01*
X513Y289D02*
X521Y289D01*
X592Y289D02*
X625Y289D01*
X656Y289D02*
X697Y289D01*
X733Y289D02*
X772Y289D01*
X814Y289D02*
X845Y289D01*
X944Y289D02*
X991Y289D01*
X1016Y289D02*
X1065Y289D01*
X1090Y289D02*
X1135Y289D01*
X1200Y289D02*
X1207Y289D01*
X0Y288D02*
X7Y288D01*
X297Y288D02*
X305Y288D01*
X337Y288D02*
X345Y288D01*
X374Y288D02*
X412Y288D01*
X454Y288D02*
X489Y288D01*
X513Y288D02*
X521Y288D01*
X593Y288D02*
X624Y288D01*
X656Y288D02*
X696Y288D01*
X734Y288D02*
X772Y288D01*
X816Y288D02*
X844Y288D01*
X944Y288D02*
X990Y288D01*
X1016Y288D02*
X1065Y288D01*
X1091Y288D02*
X1134Y288D01*
X1200Y288D02*
X1207Y288D01*
X0Y287D02*
X7Y287D01*
X297Y287D02*
X305Y287D01*
X337Y287D02*
X345Y287D01*
X374Y287D02*
X412Y287D01*
X456Y287D02*
X489Y287D01*
X513Y287D02*
X521Y287D01*
X595Y287D02*
X623Y287D01*
X656Y287D02*
X695Y287D01*
X734Y287D02*
X771Y287D01*
X817Y287D02*
X842Y287D01*
X945Y287D02*
X989Y287D01*
X1016Y287D02*
X1064Y287D01*
X1092Y287D02*
X1133Y287D01*
X1200Y287D02*
X1207Y287D01*
X0Y286D02*
X7Y286D01*
X298Y286D02*
X304Y286D01*
X338Y286D02*
X344Y286D01*
X375Y286D02*
X411Y286D01*
X457Y286D02*
X488Y286D01*
X514Y286D02*
X520Y286D01*
X596Y286D02*
X621Y286D01*
X656Y286D02*
X693Y286D01*
X735Y286D02*
X771Y286D01*
X818Y286D02*
X841Y286D01*
X946Y286D02*
X988Y286D01*
X1016Y286D02*
X1063Y286D01*
X1093Y286D02*
X1132Y286D01*
X1200Y286D02*
X1207Y286D01*
X0Y285D02*
X7Y285D01*
X299Y285D02*
X303Y285D01*
X339Y285D02*
X343Y285D01*
X376Y285D02*
X409Y285D01*
X460Y285D02*
X486Y285D01*
X515Y285D02*
X519Y285D01*
X599Y285D02*
X619Y285D01*
X656Y285D02*
X690Y285D01*
X736Y285D02*
X769Y285D01*
X821Y285D02*
X838Y285D01*
X947Y285D02*
X986Y285D01*
X1016Y285D02*
X1062Y285D01*
X1095Y285D02*
X1130Y285D01*
X1200Y285D02*
X1207Y285D01*
X0Y284D02*
X7Y284D01*
X1200Y284D02*
X1207Y284D01*
X0Y283D02*
X7Y283D01*
X1200Y283D02*
X1207Y283D01*
X0Y282D02*
X7Y282D01*
X1200Y282D02*
X1207Y282D01*
X0Y281D02*
X7Y281D01*
X1200Y281D02*
X1207Y281D01*
X0Y280D02*
X7Y280D01*
X1200Y280D02*
X1207Y280D01*
X0Y279D02*
X7Y279D01*
X1200Y279D02*
X1207Y279D01*
X0Y278D02*
X7Y278D01*
X1200Y278D02*
X1207Y278D01*
X0Y277D02*
X7Y277D01*
X1200Y277D02*
X1207Y277D01*
X0Y276D02*
X7Y276D01*
X1200Y276D02*
X1207Y276D01*
X0Y275D02*
X7Y275D01*
X1200Y275D02*
X1207Y275D01*
X0Y274D02*
X7Y274D01*
X1200Y274D02*
X1207Y274D01*
X0Y273D02*
X7Y273D01*
X1200Y273D02*
X1207Y273D01*
X0Y272D02*
X7Y272D01*
X1200Y272D02*
X1207Y272D01*
X0Y271D02*
X7Y271D01*
X1200Y271D02*
X1207Y271D01*
X0Y270D02*
X7Y270D01*
X1200Y270D02*
X1207Y270D01*
X0Y269D02*
X7Y269D01*
X1200Y269D02*
X1207Y269D01*
X0Y268D02*
X7Y268D01*
X1200Y268D02*
X1207Y268D01*
X0Y267D02*
X7Y267D01*
X1200Y267D02*
X1207Y267D01*
X0Y266D02*
X7Y266D01*
X1200Y266D02*
X1207Y266D01*
X0Y265D02*
X7Y265D01*
X1200Y265D02*
X1207Y265D01*
X0Y264D02*
X7Y264D01*
X1200Y264D02*
X1207Y264D01*
X0Y263D02*
X7Y263D01*
X1200Y263D02*
X1207Y263D01*
X0Y262D02*
X7Y262D01*
X1200Y262D02*
X1207Y262D01*
X0Y261D02*
X7Y261D01*
X1200Y261D02*
X1207Y261D01*
X0Y260D02*
X7Y260D01*
X1200Y260D02*
X1207Y260D01*
X0Y259D02*
X7Y259D01*
X1200Y259D02*
X1207Y259D01*
X0Y258D02*
X7Y258D01*
X1200Y258D02*
X1207Y258D01*
X0Y257D02*
X7Y257D01*
X1200Y257D02*
X1207Y257D01*
X0Y256D02*
X7Y256D01*
X1200Y256D02*
X1207Y256D01*
X0Y255D02*
X7Y255D01*
X1200Y255D02*
X1207Y255D01*
X0Y254D02*
X7Y254D01*
X1200Y254D02*
X1207Y254D01*
X0Y253D02*
X7Y253D01*
X1200Y253D02*
X1207Y253D01*
X0Y252D02*
X7Y252D01*
X1200Y252D02*
X1207Y252D01*
X0Y251D02*
X7Y251D01*
X1200Y251D02*
X1207Y251D01*
X0Y250D02*
X7Y250D01*
X1200Y250D02*
X1207Y250D01*
X0Y249D02*
X7Y249D01*
X1200Y249D02*
X1207Y249D01*
X0Y248D02*
X7Y248D01*
X1200Y248D02*
X1207Y248D01*
X0Y247D02*
X7Y247D01*
X1200Y247D02*
X1207Y247D01*
X0Y246D02*
X7Y246D01*
X1200Y246D02*
X1207Y246D01*
X0Y245D02*
X7Y245D01*
X1200Y245D02*
X1207Y245D01*
X0Y244D02*
X7Y244D01*
X1200Y244D02*
X1207Y244D01*
X0Y243D02*
X7Y243D01*
X1200Y243D02*
X1207Y243D01*
X0Y242D02*
X7Y242D01*
X1200Y242D02*
X1207Y242D01*
X0Y241D02*
X7Y241D01*
X1200Y241D02*
X1207Y241D01*
X0Y240D02*
X7Y240D01*
X1200Y240D02*
X1207Y240D01*
X0Y239D02*
X7Y239D01*
X1200Y239D02*
X1207Y239D01*
X0Y238D02*
X7Y238D01*
X1200Y238D02*
X1207Y238D01*
X0Y237D02*
X7Y237D01*
X1200Y237D02*
X1207Y237D01*
X0Y236D02*
X7Y236D01*
X1200Y236D02*
X1207Y236D01*
X0Y235D02*
X7Y235D01*
X1200Y235D02*
X1207Y235D01*
X0Y234D02*
X7Y234D01*
X1200Y234D02*
X1207Y234D01*
X0Y233D02*
X7Y233D01*
X1200Y233D02*
X1207Y233D01*
X0Y232D02*
X7Y232D01*
X1200Y232D02*
X1207Y232D01*
X0Y231D02*
X7Y231D01*
X1200Y231D02*
X1207Y231D01*
X0Y230D02*
X7Y230D01*
X1200Y230D02*
X1207Y230D01*
X0Y229D02*
X7Y229D01*
X1200Y229D02*
X1207Y229D01*
X0Y228D02*
X7Y228D01*
X1200Y228D02*
X1207Y228D01*
X0Y227D02*
X7Y227D01*
X1200Y227D02*
X1207Y227D01*
X0Y226D02*
X7Y226D01*
X1200Y226D02*
X1207Y226D01*
X0Y225D02*
X7Y225D01*
X1200Y225D02*
X1207Y225D01*
X0Y224D02*
X7Y224D01*
X1200Y224D02*
X1207Y224D01*
X0Y223D02*
X7Y223D01*
X1200Y223D02*
X1207Y223D01*
X0Y222D02*
X7Y222D01*
X1200Y222D02*
X1207Y222D01*
X0Y221D02*
X7Y221D01*
X1200Y221D02*
X1207Y221D01*
X0Y220D02*
X7Y220D01*
X1200Y220D02*
X1207Y220D01*
X0Y219D02*
X7Y219D01*
X1200Y219D02*
X1207Y219D01*
X0Y218D02*
X7Y218D01*
X1200Y218D02*
X1207Y218D01*
X0Y217D02*
X7Y217D01*
X1200Y217D02*
X1207Y217D01*
X0Y216D02*
X7Y216D01*
X1200Y216D02*
X1207Y216D01*
X0Y215D02*
X7Y215D01*
X1200Y215D02*
X1207Y215D01*
X0Y214D02*
X7Y214D01*
X1200Y214D02*
X1207Y214D01*
X0Y213D02*
X7Y213D01*
X1200Y213D02*
X1207Y213D01*
X0Y212D02*
X7Y212D01*
X1200Y212D02*
X1207Y212D01*
X0Y211D02*
X7Y211D01*
X1200Y211D02*
X1207Y211D01*
X0Y210D02*
X7Y210D01*
X1200Y210D02*
X1207Y210D01*
X0Y209D02*
X7Y209D01*
X1200Y209D02*
X1207Y209D01*
X0Y208D02*
X7Y208D01*
X1200Y208D02*
X1207Y208D01*
X0Y207D02*
X7Y207D01*
X1200Y207D02*
X1207Y207D01*
X0Y206D02*
X7Y206D01*
X1200Y206D02*
X1207Y206D01*
X0Y205D02*
X7Y205D01*
X1200Y205D02*
X1207Y205D01*
X0Y204D02*
X7Y204D01*
X1200Y204D02*
X1207Y204D01*
X0Y203D02*
X7Y203D01*
X1200Y203D02*
X1207Y203D01*
X0Y202D02*
X7Y202D01*
X516Y202D02*
X522Y202D01*
X1200Y202D02*
X1207Y202D01*
X0Y201D02*
X7Y201D01*
X308Y201D02*
X309Y201D01*
X319Y201D02*
X329Y201D01*
X358Y201D02*
X358Y201D01*
X370Y201D02*
X371Y201D01*
X409Y201D02*
X409Y201D01*
X422Y201D02*
X430Y201D01*
X449Y201D02*
X457Y201D01*
X465Y201D02*
X472Y201D01*
X479Y201D02*
X489Y201D01*
X514Y201D02*
X524Y201D01*
X564Y201D02*
X570Y201D01*
X615Y201D02*
X625Y201D01*
X664Y201D02*
X673Y201D01*
X715Y201D02*
X715Y201D01*
X749Y201D02*
X750Y201D01*
X757Y201D02*
X758Y201D01*
X768Y201D02*
X773Y201D01*
X782Y201D02*
X787Y201D01*
X805Y201D02*
X810Y201D01*
X816Y201D02*
X818Y201D01*
X824Y201D02*
X824Y201D01*
X831Y201D02*
X836Y201D01*
X850Y201D02*
X850Y201D01*
X858Y201D02*
X859Y201D01*
X865Y201D02*
X873Y201D01*
X879Y201D02*
X881Y201D01*
X888Y201D02*
X888Y201D01*
X1200Y201D02*
X1207Y201D01*
X0Y200D02*
X7Y200D01*
X307Y200D02*
X309Y200D01*
X319Y200D02*
X329Y200D01*
X357Y200D02*
X359Y200D01*
X370Y200D02*
X371Y200D01*
X408Y200D02*
X410Y200D01*
X422Y200D02*
X430Y200D01*
X449Y200D02*
X458Y200D01*
X464Y200D02*
X473Y200D01*
X479Y200D02*
X489Y200D01*
X514Y200D02*
X524Y200D01*
X564Y200D02*
X570Y200D01*
X615Y200D02*
X625Y200D01*
X664Y200D02*
X674Y200D01*
X714Y200D02*
X715Y200D01*
X749Y200D02*
X750Y200D01*
X757Y200D02*
X758Y200D01*
X767Y200D02*
X773Y200D01*
X781Y200D02*
X788Y200D01*
X804Y200D02*
X810Y200D01*
X816Y200D02*
X818Y200D01*
X824Y200D02*
X825Y200D01*
X831Y200D02*
X837Y200D01*
X850Y200D02*
X851Y200D01*
X858Y200D02*
X859Y200D01*
X865Y200D02*
X874Y200D01*
X879Y200D02*
X882Y200D01*
X887Y200D02*
X889Y200D01*
X1200Y200D02*
X1207Y200D01*
X0Y199D02*
X7Y199D01*
X307Y199D02*
X309Y199D01*
X328Y199D02*
X329Y199D01*
X357Y199D02*
X359Y199D01*
X370Y199D02*
X371Y199D01*
X377Y199D02*
X377Y199D01*
X408Y199D02*
X410Y199D01*
X422Y199D02*
X424Y199D01*
X449Y199D02*
X450Y199D01*
X457Y199D02*
X458Y199D01*
X464Y199D02*
X465Y199D01*
X472Y199D02*
X473Y199D01*
X479Y199D02*
X480Y199D01*
X483Y199D02*
X485Y199D01*
X488Y199D02*
X489Y199D01*
X514Y199D02*
X515Y199D01*
X523Y199D02*
X524Y199D01*
X568Y199D02*
X570Y199D01*
X624Y199D02*
X625Y199D01*
X672Y199D02*
X674Y199D01*
X714Y199D02*
X715Y199D01*
X721Y199D02*
X722Y199D01*
X749Y199D02*
X750Y199D01*
X757Y199D02*
X758Y199D01*
X766Y199D02*
X767Y199D01*
X781Y199D02*
X782Y199D01*
X803Y199D02*
X805Y199D01*
X816Y199D02*
X818Y199D01*
X824Y199D02*
X825Y199D01*
X832Y199D02*
X834Y199D01*
X836Y199D02*
X837Y199D01*
X850Y199D02*
X851Y199D01*
X858Y199D02*
X859Y199D01*
X869Y199D02*
X870Y199D01*
X879Y199D02*
X882Y199D01*
X887Y199D02*
X889Y199D01*
X1200Y199D02*
X1207Y199D01*
X0Y198D02*
X7Y198D01*
X307Y198D02*
X310Y198D01*
X328Y198D02*
X329Y198D01*
X357Y198D02*
X359Y198D01*
X370Y198D02*
X371Y198D01*
X376Y198D02*
X378Y198D01*
X408Y198D02*
X410Y198D01*
X422Y198D02*
X424Y198D01*
X449Y198D02*
X450Y198D01*
X457Y198D02*
X458Y198D01*
X464Y198D02*
X466Y198D01*
X473Y198D02*
X473Y198D01*
X480Y198D02*
X480Y198D01*
X483Y198D02*
X485Y198D01*
X488Y198D02*
X488Y198D01*
X514Y198D02*
X515Y198D01*
X523Y198D02*
X524Y198D01*
X569Y198D02*
X570Y198D01*
X624Y198D02*
X625Y198D01*
X673Y198D02*
X674Y198D01*
X714Y198D02*
X715Y198D01*
X721Y198D02*
X722Y198D01*
X749Y198D02*
X750Y198D01*
X757Y198D02*
X758Y198D01*
X765Y198D02*
X767Y198D01*
X780Y198D02*
X782Y198D01*
X803Y198D02*
X804Y198D01*
X816Y198D02*
X819Y198D01*
X824Y198D02*
X825Y198D01*
X832Y198D02*
X833Y198D01*
X837Y198D02*
X838Y198D01*
X850Y198D02*
X851Y198D01*
X858Y198D02*
X859Y198D01*
X869Y198D02*
X870Y198D01*
X879Y198D02*
X883Y198D01*
X887Y198D02*
X889Y198D01*
X1200Y198D02*
X1207Y198D01*
X0Y197D02*
X7Y197D01*
X306Y197D02*
X310Y197D01*
X328Y197D02*
X329Y197D01*
X356Y197D02*
X360Y197D01*
X370Y197D02*
X371Y197D01*
X376Y197D02*
X378Y197D01*
X407Y197D02*
X411Y197D01*
X422Y197D02*
X424Y197D01*
X449Y197D02*
X450Y197D01*
X457Y197D02*
X458Y197D01*
X465Y197D02*
X467Y197D01*
X483Y197D02*
X485Y197D01*
X514Y197D02*
X515Y197D01*
X523Y197D02*
X524Y197D01*
X569Y197D02*
X570Y197D01*
X624Y197D02*
X625Y197D01*
X673Y197D02*
X674Y197D01*
X714Y197D02*
X715Y197D01*
X721Y197D02*
X722Y197D01*
X749Y197D02*
X750Y197D01*
X757Y197D02*
X758Y197D01*
X765Y197D02*
X766Y197D01*
X780Y197D02*
X781Y197D01*
X802Y197D02*
X804Y197D01*
X816Y197D02*
X819Y197D01*
X824Y197D02*
X825Y197D01*
X832Y197D02*
X833Y197D01*
X837Y197D02*
X838Y197D01*
X850Y197D02*
X851Y197D01*
X858Y197D02*
X859Y197D01*
X869Y197D02*
X870Y197D01*
X879Y197D02*
X883Y197D01*
X887Y197D02*
X889Y197D01*
X1200Y197D02*
X1207Y197D01*
X0Y196D02*
X7Y196D01*
X306Y196D02*
X310Y196D01*
X328Y196D02*
X329Y196D01*
X356Y196D02*
X360Y196D01*
X370Y196D02*
X371Y196D01*
X376Y196D02*
X378Y196D01*
X407Y196D02*
X411Y196D01*
X422Y196D02*
X424Y196D01*
X449Y196D02*
X458Y196D01*
X466Y196D02*
X468Y196D01*
X483Y196D02*
X485Y196D01*
X514Y196D02*
X515Y196D01*
X523Y196D02*
X524Y196D01*
X569Y196D02*
X570Y196D01*
X624Y196D02*
X625Y196D01*
X673Y196D02*
X674Y196D01*
X714Y196D02*
X715Y196D01*
X721Y196D02*
X722Y196D01*
X749Y196D02*
X750Y196D01*
X757Y196D02*
X758Y196D01*
X764Y196D02*
X766Y196D01*
X779Y196D02*
X781Y196D01*
X801Y196D02*
X803Y196D01*
X816Y196D02*
X820Y196D01*
X824Y196D02*
X825Y196D01*
X832Y196D02*
X833Y196D01*
X838Y196D02*
X839Y196D01*
X850Y196D02*
X851Y196D01*
X857Y196D02*
X859Y196D01*
X869Y196D02*
X870Y196D01*
X879Y196D02*
X880Y196D01*
X882Y196D02*
X883Y196D01*
X887Y196D02*
X889Y196D01*
X1200Y196D02*
X1207Y196D01*
X0Y195D02*
X7Y195D01*
X306Y195D02*
X307Y195D01*
X309Y195D02*
X310Y195D01*
X328Y195D02*
X329Y195D01*
X356Y195D02*
X357Y195D01*
X359Y195D02*
X360Y195D01*
X370Y195D02*
X371Y195D01*
X376Y195D02*
X378Y195D01*
X407Y195D02*
X408Y195D01*
X410Y195D02*
X411Y195D01*
X422Y195D02*
X424Y195D01*
X449Y195D02*
X457Y195D01*
X467Y195D02*
X468Y195D01*
X483Y195D02*
X485Y195D01*
X514Y195D02*
X515Y195D01*
X523Y195D02*
X524Y195D01*
X569Y195D02*
X570Y195D01*
X624Y195D02*
X625Y195D01*
X673Y195D02*
X674Y195D01*
X714Y195D02*
X715Y195D01*
X721Y195D02*
X722Y195D01*
X750Y195D02*
X751Y195D01*
X756Y195D02*
X757Y195D01*
X764Y195D02*
X765Y195D01*
X779Y195D02*
X780Y195D01*
X801Y195D02*
X802Y195D01*
X816Y195D02*
X817Y195D01*
X819Y195D02*
X820Y195D01*
X824Y195D02*
X825Y195D01*
X832Y195D02*
X833Y195D01*
X838Y195D02*
X839Y195D01*
X850Y195D02*
X852Y195D01*
X857Y195D02*
X858Y195D01*
X869Y195D02*
X870Y195D01*
X879Y195D02*
X880Y195D01*
X883Y195D02*
X884Y195D01*
X887Y195D02*
X889Y195D01*
X1200Y195D02*
X1207Y195D01*
X0Y194D02*
X7Y194D01*
X305Y194D02*
X307Y194D01*
X309Y194D02*
X311Y194D01*
X322Y194D02*
X329Y194D01*
X355Y194D02*
X357Y194D01*
X359Y194D02*
X361Y194D01*
X370Y194D02*
X371Y194D01*
X376Y194D02*
X378Y194D01*
X406Y194D02*
X408Y194D01*
X410Y194D02*
X412Y194D01*
X422Y194D02*
X428Y194D01*
X449Y194D02*
X450Y194D01*
X452Y194D02*
X455Y194D01*
X467Y194D02*
X469Y194D01*
X483Y194D02*
X485Y194D01*
X514Y194D02*
X515Y194D01*
X523Y194D02*
X524Y194D01*
X569Y194D02*
X570Y194D01*
X616Y194D02*
X625Y194D01*
X652Y194D02*
X656Y194D01*
X661Y194D02*
X661Y194D01*
X672Y194D02*
X674Y194D01*
X714Y194D02*
X715Y194D01*
X721Y194D02*
X722Y194D01*
X750Y194D02*
X751Y194D01*
X756Y194D02*
X757Y194D01*
X764Y194D02*
X765Y194D01*
X779Y194D02*
X780Y194D01*
X801Y194D02*
X802Y194D01*
X816Y194D02*
X817Y194D01*
X819Y194D02*
X821Y194D01*
X824Y194D02*
X825Y194D01*
X832Y194D02*
X833Y194D01*
X838Y194D02*
X840Y194D01*
X851Y194D02*
X852Y194D01*
X857Y194D02*
X858Y194D01*
X869Y194D02*
X870Y194D01*
X879Y194D02*
X880Y194D01*
X883Y194D02*
X884Y194D01*
X887Y194D02*
X889Y194D01*
X1200Y194D02*
X1207Y194D01*
X0Y193D02*
X7Y193D01*
X305Y193D02*
X307Y193D01*
X310Y193D02*
X311Y193D01*
X321Y193D02*
X329Y193D01*
X355Y193D02*
X357Y193D01*
X360Y193D02*
X361Y193D01*
X370Y193D02*
X371Y193D01*
X376Y193D02*
X378Y193D01*
X406Y193D02*
X407Y193D01*
X410Y193D02*
X412Y193D01*
X422Y193D02*
X430Y193D01*
X449Y193D02*
X450Y193D01*
X453Y193D02*
X455Y193D01*
X468Y193D02*
X470Y193D01*
X483Y193D02*
X485Y193D01*
X514Y193D02*
X515Y193D01*
X523Y193D02*
X524Y193D01*
X569Y193D02*
X570Y193D01*
X615Y193D02*
X625Y193D01*
X651Y193D02*
X661Y193D01*
X666Y193D02*
X673Y193D01*
X714Y193D02*
X715Y193D01*
X721Y193D02*
X722Y193D01*
X750Y193D02*
X752Y193D01*
X755Y193D02*
X757Y193D01*
X764Y193D02*
X765Y193D01*
X779Y193D02*
X780Y193D01*
X801Y193D02*
X802Y193D01*
X816Y193D02*
X817Y193D01*
X820Y193D02*
X821Y193D01*
X824Y193D02*
X825Y193D01*
X832Y193D02*
X833Y193D01*
X838Y193D02*
X840Y193D01*
X851Y193D02*
X852Y193D01*
X856Y193D02*
X857Y193D01*
X869Y193D02*
X870Y193D01*
X879Y193D02*
X880Y193D01*
X883Y193D02*
X885Y193D01*
X887Y193D02*
X889Y193D01*
X1200Y193D02*
X1207Y193D01*
X0Y192D02*
X7Y192D01*
X305Y192D02*
X306Y192D01*
X310Y192D02*
X311Y192D01*
X322Y192D02*
X329Y192D01*
X355Y192D02*
X356Y192D01*
X360Y192D02*
X361Y192D01*
X370Y192D02*
X378Y192D01*
X406Y192D02*
X407Y192D01*
X411Y192D02*
X412Y192D01*
X422Y192D02*
X430Y192D01*
X449Y192D02*
X450Y192D01*
X454Y192D02*
X455Y192D01*
X469Y192D02*
X471Y192D01*
X483Y192D02*
X485Y192D01*
X514Y192D02*
X515Y192D01*
X523Y192D02*
X524Y192D01*
X569Y192D02*
X570Y192D01*
X615Y192D02*
X616Y192D01*
X651Y192D02*
X651Y192D01*
X656Y192D02*
X661Y192D01*
X666Y192D02*
X673Y192D01*
X714Y192D02*
X716Y192D01*
X720Y192D02*
X722Y192D01*
X751Y192D02*
X752Y192D01*
X755Y192D02*
X756Y192D01*
X764Y192D02*
X765Y192D01*
X779Y192D02*
X780Y192D01*
X801Y192D02*
X802Y192D01*
X806Y192D02*
X810Y192D01*
X816Y192D02*
X817Y192D01*
X820Y192D02*
X821Y192D01*
X824Y192D02*
X825Y192D01*
X832Y192D02*
X833Y192D01*
X838Y192D02*
X839Y192D01*
X852Y192D02*
X853Y192D01*
X856Y192D02*
X857Y192D01*
X869Y192D02*
X870Y192D01*
X879Y192D02*
X880Y192D01*
X884Y192D02*
X885Y192D01*
X887Y192D02*
X889Y192D01*
X1200Y192D02*
X1207Y192D01*
X0Y191D02*
X7Y191D01*
X305Y191D02*
X306Y191D01*
X310Y191D02*
X312Y191D01*
X328Y191D02*
X329Y191D01*
X355Y191D02*
X356Y191D01*
X360Y191D02*
X361Y191D01*
X370Y191D02*
X379Y191D01*
X406Y191D02*
X407Y191D01*
X411Y191D02*
X412Y191D01*
X429Y191D02*
X430Y191D01*
X449Y191D02*
X450Y191D01*
X454Y191D02*
X456Y191D01*
X470Y191D02*
X472Y191D01*
X483Y191D02*
X485Y191D01*
X514Y191D02*
X515Y191D01*
X523Y191D02*
X524Y191D01*
X569Y191D02*
X570Y191D01*
X573Y191D02*
X574Y191D01*
X615Y191D02*
X616Y191D01*
X672Y191D02*
X674Y191D01*
X714Y191D02*
X723Y191D01*
X751Y191D02*
X752Y191D01*
X755Y191D02*
X756Y191D01*
X764Y191D02*
X766Y191D01*
X779Y191D02*
X781Y191D01*
X801Y191D02*
X802Y191D01*
X806Y191D02*
X810Y191D01*
X816Y191D02*
X817Y191D01*
X821Y191D02*
X822Y191D01*
X824Y191D02*
X825Y191D01*
X832Y191D02*
X833Y191D01*
X838Y191D02*
X839Y191D01*
X852Y191D02*
X853Y191D01*
X855Y191D02*
X857Y191D01*
X869Y191D02*
X870Y191D01*
X879Y191D02*
X880Y191D01*
X884Y191D02*
X889Y191D01*
X1200Y191D02*
X1207Y191D01*
X0Y190D02*
X7Y190D01*
X304Y190D02*
X312Y190D01*
X328Y190D02*
X329Y190D01*
X354Y190D02*
X362Y190D01*
X370Y190D02*
X378Y190D01*
X405Y190D02*
X413Y190D01*
X429Y190D02*
X430Y190D01*
X449Y190D02*
X450Y190D01*
X455Y190D02*
X456Y190D01*
X471Y190D02*
X472Y190D01*
X483Y190D02*
X485Y190D01*
X514Y190D02*
X515Y190D01*
X523Y190D02*
X524Y190D01*
X569Y190D02*
X570Y190D01*
X573Y190D02*
X574Y190D01*
X615Y190D02*
X616Y190D01*
X673Y190D02*
X674Y190D01*
X714Y190D02*
X723Y190D01*
X752Y190D02*
X756Y190D01*
X765Y190D02*
X766Y190D01*
X780Y190D02*
X781Y190D01*
X801Y190D02*
X802Y190D01*
X809Y190D02*
X810Y190D01*
X816Y190D02*
X817Y190D01*
X821Y190D02*
X825Y190D01*
X832Y190D02*
X833Y190D01*
X837Y190D02*
X838Y190D01*
X852Y190D02*
X856Y190D01*
X869Y190D02*
X870Y190D01*
X879Y190D02*
X880Y190D01*
X885Y190D02*
X889Y190D01*
X1200Y190D02*
X1207Y190D01*
X0Y189D02*
X7Y189D01*
X304Y189D02*
X312Y189D01*
X328Y189D02*
X329Y189D01*
X354Y189D02*
X362Y189D01*
X376Y189D02*
X378Y189D01*
X405Y189D02*
X413Y189D01*
X429Y189D02*
X430Y189D01*
X449Y189D02*
X450Y189D01*
X456Y189D02*
X457Y189D01*
X471Y189D02*
X473Y189D01*
X483Y189D02*
X485Y189D01*
X514Y189D02*
X515Y189D01*
X523Y189D02*
X524Y189D01*
X569Y189D02*
X570Y189D01*
X573Y189D02*
X574Y189D01*
X615Y189D02*
X616Y189D01*
X673Y189D02*
X674Y189D01*
X721Y189D02*
X722Y189D01*
X752Y189D02*
X755Y189D01*
X765Y189D02*
X767Y189D01*
X780Y189D02*
X782Y189D01*
X801Y189D02*
X802Y189D01*
X809Y189D02*
X810Y189D01*
X816Y189D02*
X817Y189D01*
X822Y189D02*
X825Y189D01*
X832Y189D02*
X833Y189D01*
X837Y189D02*
X838Y189D01*
X853Y189D02*
X856Y189D01*
X869Y189D02*
X870Y189D01*
X879Y189D02*
X880Y189D01*
X885Y189D02*
X889Y189D01*
X1200Y189D02*
X1207Y189D01*
X0Y188D02*
X7Y188D01*
X304Y188D02*
X305Y188D01*
X311Y188D02*
X312Y188D01*
X328Y188D02*
X329Y188D01*
X354Y188D02*
X362Y188D01*
X376Y188D02*
X378Y188D01*
X405Y188D02*
X413Y188D01*
X429Y188D02*
X430Y188D01*
X449Y188D02*
X450Y188D01*
X456Y188D02*
X458Y188D01*
X464Y188D02*
X465Y188D01*
X472Y188D02*
X474Y188D01*
X483Y188D02*
X485Y188D01*
X514Y188D02*
X515Y188D01*
X523Y188D02*
X524Y188D01*
X569Y188D02*
X570Y188D01*
X573Y188D02*
X574Y188D01*
X615Y188D02*
X616Y188D01*
X673Y188D02*
X674Y188D01*
X721Y188D02*
X722Y188D01*
X752Y188D02*
X755Y188D01*
X766Y188D02*
X767Y188D01*
X781Y188D02*
X782Y188D01*
X801Y188D02*
X802Y188D01*
X809Y188D02*
X810Y188D01*
X816Y188D02*
X817Y188D01*
X822Y188D02*
X825Y188D01*
X832Y188D02*
X834Y188D01*
X836Y188D02*
X837Y188D01*
X853Y188D02*
X856Y188D01*
X869Y188D02*
X870Y188D01*
X879Y188D02*
X880Y188D01*
X886Y188D02*
X889Y188D01*
X1200Y188D02*
X1207Y188D01*
X0Y187D02*
X7Y187D01*
X303Y187D02*
X305Y187D01*
X311Y187D02*
X313Y187D01*
X328Y187D02*
X329Y187D01*
X353Y187D02*
X355Y187D01*
X361Y187D02*
X363Y187D01*
X376Y187D02*
X378Y187D01*
X404Y187D02*
X406Y187D01*
X412Y187D02*
X414Y187D01*
X421Y187D02*
X421Y187D01*
X429Y187D02*
X430Y187D01*
X449Y187D02*
X450Y187D01*
X457Y187D02*
X458Y187D01*
X464Y187D02*
X473Y187D01*
X483Y187D02*
X485Y187D01*
X514Y187D02*
X515Y187D01*
X523Y187D02*
X524Y187D01*
X569Y187D02*
X570Y187D01*
X573Y187D02*
X574Y187D01*
X615Y187D02*
X616Y187D01*
X673Y187D02*
X674Y187D01*
X721Y187D02*
X722Y187D01*
X753Y187D02*
X754Y187D01*
X767Y187D02*
X773Y187D01*
X781Y187D02*
X787Y187D01*
X801Y187D02*
X810Y187D01*
X816Y187D02*
X817Y187D01*
X822Y187D02*
X825Y187D01*
X831Y187D02*
X837Y187D01*
X853Y187D02*
X855Y187D01*
X865Y187D02*
X873Y187D01*
X879Y187D02*
X880Y187D01*
X886Y187D02*
X889Y187D01*
X1200Y187D02*
X1207Y187D01*
X0Y186D02*
X7Y186D01*
X303Y186D02*
X304Y186D01*
X312Y186D02*
X313Y186D01*
X320Y186D02*
X329Y186D01*
X353Y186D02*
X354Y186D01*
X362Y186D02*
X363Y186D01*
X376Y186D02*
X378Y186D01*
X404Y186D02*
X405Y186D01*
X413Y186D02*
X414Y186D01*
X420Y186D02*
X430Y186D01*
X449Y186D02*
X450Y186D01*
X457Y186D02*
X458Y186D01*
X465Y186D02*
X473Y186D01*
X484Y186D02*
X484Y186D01*
X514Y186D02*
X524Y186D01*
X565Y186D02*
X574Y186D01*
X615Y186D02*
X625Y186D01*
X664Y186D02*
X674Y186D01*
X721Y186D02*
X722Y186D01*
X753Y186D02*
X754Y186D01*
X767Y186D02*
X773Y186D01*
X782Y186D02*
X788Y186D01*
X802Y186D02*
X809Y186D01*
X816Y186D02*
X816Y186D01*
X823Y186D02*
X825Y186D01*
X831Y186D02*
X836Y186D01*
X854Y186D02*
X855Y186D01*
X865Y186D02*
X873Y186D01*
X880Y186D02*
X880Y186D01*
X887Y186D02*
X889Y186D01*
X1200Y186D02*
X1207Y186D01*
X0Y185D02*
X7Y185D01*
X303Y185D02*
X304Y185D01*
X312Y185D02*
X313Y185D01*
X319Y185D02*
X329Y185D01*
X353Y185D02*
X354Y185D01*
X362Y185D02*
X363Y185D01*
X376Y185D02*
X377Y185D01*
X404Y185D02*
X405Y185D01*
X413Y185D02*
X414Y185D01*
X421Y185D02*
X430Y185D01*
X515Y185D02*
X523Y185D01*
X564Y185D02*
X574Y185D01*
X615Y185D02*
X625Y185D01*
X664Y185D02*
X673Y185D01*
X721Y185D02*
X722Y185D01*
X1200Y185D02*
X1207Y185D01*
X0Y184D02*
X7Y184D01*
X665Y184D02*
X672Y184D01*
X1200Y184D02*
X1207Y184D01*
X0Y183D02*
X7Y183D01*
X1200Y183D02*
X1207Y183D01*
X0Y182D02*
X7Y182D01*
X1200Y182D02*
X1207Y182D01*
X0Y181D02*
X7Y181D01*
X1200Y181D02*
X1207Y181D01*
X0Y180D02*
X7Y180D01*
X1200Y180D02*
X1207Y180D01*
X0Y179D02*
X7Y179D01*
X1200Y179D02*
X1207Y179D01*
X0Y178D02*
X7Y178D01*
X1200Y178D02*
X1207Y178D01*
X0Y177D02*
X7Y177D01*
X1200Y177D02*
X1207Y177D01*
X0Y176D02*
X7Y176D01*
X1200Y176D02*
X1207Y176D01*
X0Y175D02*
X7Y175D01*
X1200Y175D02*
X1207Y175D01*
X0Y174D02*
X7Y174D01*
X1200Y174D02*
X1207Y174D01*
X0Y173D02*
X7Y173D01*
X1200Y173D02*
X1207Y173D01*
X0Y172D02*
X7Y172D01*
X1200Y172D02*
X1207Y172D01*
X0Y171D02*
X7Y171D01*
X1200Y171D02*
X1207Y171D01*
X0Y170D02*
X7Y170D01*
X1200Y170D02*
X1207Y170D01*
X0Y169D02*
X7Y169D01*
X1200Y169D02*
X1207Y169D01*
X0Y168D02*
X7Y168D01*
X1200Y168D02*
X1207Y168D01*
X0Y167D02*
X7Y167D01*
X1200Y167D02*
X1207Y167D01*
X0Y166D02*
X7Y166D01*
X1200Y166D02*
X1207Y166D01*
X0Y165D02*
X7Y165D01*
X1200Y165D02*
X1207Y165D01*
X0Y164D02*
X7Y164D01*
X1200Y164D02*
X1207Y164D01*
X0Y163D02*
X7Y163D01*
X1200Y163D02*
X1207Y163D01*
X0Y162D02*
X7Y162D01*
X1200Y162D02*
X1207Y162D01*
X0Y161D02*
X7Y161D01*
X1200Y161D02*
X1207Y161D01*
X0Y160D02*
X7Y160D01*
X1200Y160D02*
X1207Y160D01*
X0Y159D02*
X7Y159D01*
X1200Y159D02*
X1207Y159D01*
X0Y158D02*
X7Y158D01*
X1200Y158D02*
X1207Y158D01*
X0Y157D02*
X7Y157D01*
X1200Y157D02*
X1207Y157D01*
X0Y156D02*
X7Y156D01*
X1200Y156D02*
X1207Y156D01*
X0Y155D02*
X7Y155D01*
X1200Y155D02*
X1207Y155D01*
X0Y154D02*
X7Y154D01*
X1200Y154D02*
X1207Y154D01*
X0Y153D02*
X7Y153D01*
X1200Y153D02*
X1207Y153D01*
X0Y152D02*
X7Y152D01*
X1200Y152D02*
X1207Y152D01*
X0Y151D02*
X7Y151D01*
X1200Y151D02*
X1207Y151D01*
X0Y150D02*
X7Y150D01*
X1200Y150D02*
X1207Y150D01*
X0Y149D02*
X7Y149D01*
X1200Y149D02*
X1207Y149D01*
X0Y148D02*
X7Y148D01*
X1200Y148D02*
X1207Y148D01*
X0Y147D02*
X7Y147D01*
X1200Y147D02*
X1207Y147D01*
X0Y146D02*
X7Y146D01*
X1200Y146D02*
X1207Y146D01*
X0Y145D02*
X7Y145D01*
X1200Y145D02*
X1207Y145D01*
X0Y144D02*
X7Y144D01*
X1200Y144D02*
X1207Y144D01*
X0Y143D02*
X7Y143D01*
X1200Y143D02*
X1207Y143D01*
X0Y142D02*
X7Y142D01*
X1200Y142D02*
X1207Y142D01*
X0Y141D02*
X7Y141D01*
X1200Y141D02*
X1207Y141D01*
X0Y140D02*
X7Y140D01*
X1200Y140D02*
X1207Y140D01*
X0Y139D02*
X7Y139D01*
X1200Y139D02*
X1207Y139D01*
X0Y138D02*
X7Y138D01*
X1200Y138D02*
X1207Y138D01*
X0Y137D02*
X7Y137D01*
X1200Y137D02*
X1207Y137D01*
X0Y136D02*
X7Y136D01*
X1200Y136D02*
X1207Y136D01*
X0Y135D02*
X7Y135D01*
X1200Y135D02*
X1207Y135D01*
X0Y134D02*
X7Y134D01*
X1200Y134D02*
X1207Y134D01*
X0Y133D02*
X7Y133D01*
X1200Y133D02*
X1207Y133D01*
X0Y132D02*
X7Y132D01*
X1200Y132D02*
X1207Y132D01*
X0Y131D02*
X7Y131D01*
X1200Y131D02*
X1207Y131D01*
X0Y130D02*
X7Y130D01*
X1200Y130D02*
X1207Y130D01*
X0Y129D02*
X7Y129D01*
X1200Y129D02*
X1207Y129D01*
X0Y128D02*
X7Y128D01*
X1200Y128D02*
X1207Y128D01*
X0Y127D02*
X7Y127D01*
X1200Y127D02*
X1207Y127D01*
X0Y126D02*
X7Y126D01*
X1200Y126D02*
X1207Y126D01*
X0Y125D02*
X7Y125D01*
X1200Y125D02*
X1207Y125D01*
X0Y124D02*
X7Y124D01*
X1200Y124D02*
X1207Y124D01*
X0Y123D02*
X7Y123D01*
X1200Y123D02*
X1207Y123D01*
X0Y122D02*
X7Y122D01*
X1200Y122D02*
X1207Y122D01*
X0Y121D02*
X7Y121D01*
X1200Y121D02*
X1207Y121D01*
X0Y120D02*
X7Y120D01*
X1200Y120D02*
X1207Y120D01*
X0Y119D02*
X7Y119D01*
X1200Y119D02*
X1207Y119D01*
X0Y118D02*
X7Y118D01*
X1200Y118D02*
X1207Y118D01*
X0Y117D02*
X7Y117D01*
X1200Y117D02*
X1207Y117D01*
X0Y116D02*
X7Y116D01*
X1200Y116D02*
X1207Y116D01*
X0Y115D02*
X7Y115D01*
X1200Y115D02*
X1207Y115D01*
X0Y114D02*
X7Y114D01*
X1200Y114D02*
X1207Y114D01*
X0Y113D02*
X1207Y113D01*
X0Y112D02*
X1207Y112D01*
X0Y111D02*
X1207Y111D01*
X0Y110D02*
X1207Y110D01*
X0Y109D02*
X1207Y109D01*
X0Y108D02*
X1208Y108D01*
X0Y107D02*
X1208Y107D01*
X0Y106D02*
X1208Y106D01*
X0Y105D02*
X1208Y105D01*
X0Y104D02*
X1208Y104D01*
X0Y103D02*
X9Y103D01*
X1171Y103D02*
X1177Y103D01*
X1199Y103D02*
X1208Y103D01*
X0Y102D02*
X9Y102D01*
X1199Y102D02*
X1208Y102D01*
X0Y101D02*
X9Y101D01*
X1199Y101D02*
X1208Y101D01*
X0Y100D02*
X9Y100D01*
X1199Y100D02*
X1208Y100D01*
X0Y99D02*
X9Y99D01*
X1199Y99D02*
X1208Y99D01*
X0Y98D02*
X9Y98D01*
X1199Y98D02*
X1208Y98D01*
X0Y97D02*
X9Y97D01*
X1199Y97D02*
X1208Y97D01*
X0Y96D02*
X9Y96D01*
X1199Y96D02*
X1208Y96D01*
X0Y95D02*
X9Y95D01*
X1199Y95D02*
X1208Y95D01*
X0Y94D02*
X9Y94D01*
X1199Y94D02*
X1208Y94D01*
X0Y93D02*
X9Y93D01*
X1199Y93D02*
X1208Y93D01*
X0Y92D02*
X9Y92D01*
X1199Y92D02*
X1208Y92D01*
X0Y91D02*
X9Y91D01*
X1199Y91D02*
X1208Y91D01*
X0Y90D02*
X9Y90D01*
X1199Y90D02*
X1208Y90D01*
X0Y89D02*
X9Y89D01*
X1199Y89D02*
X1208Y89D01*
X0Y88D02*
X9Y88D01*
X1199Y88D02*
X1208Y88D01*
X0Y87D02*
X9Y87D01*
X1199Y87D02*
X1208Y87D01*
X0Y86D02*
X9Y86D01*
X1199Y86D02*
X1208Y86D01*
X0Y85D02*
X9Y85D01*
X1199Y85D02*
X1208Y85D01*
X0Y84D02*
X9Y84D01*
X1199Y84D02*
X1208Y84D01*
X0Y83D02*
X9Y83D01*
X1199Y83D02*
X1208Y83D01*
X0Y82D02*
X9Y82D01*
X1198Y82D02*
X1208Y82D01*
X0Y81D02*
X9Y81D01*
X1198Y81D02*
X1208Y81D01*
X0Y80D02*
X9Y80D01*
X1198Y80D02*
X1208Y80D01*
X0Y79D02*
X9Y79D01*
X1198Y79D02*
X1208Y79D01*
X0Y78D02*
X9Y78D01*
X1198Y78D02*
X1208Y78D01*
X0Y77D02*
X9Y77D01*
X1198Y77D02*
X1208Y77D01*
X0Y76D02*
X9Y76D01*
X1198Y76D02*
X1208Y76D01*
X0Y75D02*
X9Y75D01*
X1199Y75D02*
X1208Y75D01*
X0Y74D02*
X9Y74D01*
X1199Y74D02*
X1208Y74D01*
X0Y73D02*
X9Y73D01*
X1199Y73D02*
X1208Y73D01*
X0Y72D02*
X9Y72D01*
X1199Y72D02*
X1208Y72D01*
X0Y71D02*
X9Y71D01*
X1199Y71D02*
X1208Y71D01*
X0Y70D02*
X9Y70D01*
X1199Y70D02*
X1208Y70D01*
X0Y69D02*
X9Y69D01*
X1199Y69D02*
X1208Y69D01*
X0Y68D02*
X9Y68D01*
X1199Y68D02*
X1208Y68D01*
X0Y67D02*
X9Y67D01*
X1199Y67D02*
X1208Y67D01*
X0Y66D02*
X9Y66D01*
X1199Y66D02*
X1208Y66D01*
X0Y65D02*
X9Y65D01*
X1199Y65D02*
X1208Y65D01*
X0Y64D02*
X9Y64D01*
X1199Y64D02*
X1208Y64D01*
X0Y63D02*
X9Y63D01*
X1199Y63D02*
X1208Y63D01*
X0Y62D02*
X9Y62D01*
X1199Y62D02*
X1208Y62D01*
X0Y61D02*
X9Y61D01*
X1199Y61D02*
X1208Y61D01*
X0Y60D02*
X9Y60D01*
X1199Y60D02*
X1208Y60D01*
X0Y59D02*
X9Y59D01*
X1199Y59D02*
X1208Y59D01*
X0Y58D02*
X9Y58D01*
X1199Y58D02*
X1208Y58D01*
X0Y57D02*
X9Y57D01*
X1199Y57D02*
X1208Y57D01*
X0Y56D02*
X9Y56D01*
X1199Y56D02*
X1208Y56D01*
X0Y55D02*
X9Y55D01*
X1199Y55D02*
X1208Y55D01*
X0Y54D02*
X9Y54D01*
X1199Y54D02*
X1208Y54D01*
X0Y53D02*
X9Y53D01*
X1199Y53D02*
X1208Y53D01*
X0Y52D02*
X9Y52D01*
X1199Y52D02*
X1208Y52D01*
X0Y51D02*
X9Y51D01*
X1199Y51D02*
X1208Y51D01*
X0Y50D02*
X9Y50D01*
X1199Y50D02*
X1208Y50D01*
X0Y49D02*
X9Y49D01*
X1199Y49D02*
X1208Y49D01*
X0Y48D02*
X9Y48D01*
X1199Y48D02*
X1208Y48D01*
X0Y47D02*
X9Y47D01*
X1199Y47D02*
X1208Y47D01*
X0Y46D02*
X9Y46D01*
X1199Y46D02*
X1208Y46D01*
X0Y45D02*
X9Y45D01*
X1199Y45D02*
X1208Y45D01*
X0Y44D02*
X9Y44D01*
X1199Y44D02*
X1208Y44D01*
X0Y43D02*
X9Y43D01*
X1199Y43D02*
X1208Y43D01*
X0Y42D02*
X9Y42D01*
X1199Y42D02*
X1208Y42D01*
X0Y41D02*
X9Y41D01*
X1199Y41D02*
X1208Y41D01*
X0Y40D02*
X9Y40D01*
X1199Y40D02*
X1208Y40D01*
X0Y39D02*
X9Y39D01*
X1199Y39D02*
X1208Y39D01*
X0Y38D02*
X9Y38D01*
X1199Y38D02*
X1208Y38D01*
X0Y37D02*
X9Y37D01*
X1199Y37D02*
X1208Y37D01*
X0Y36D02*
X9Y36D01*
X1199Y36D02*
X1208Y36D01*
X0Y35D02*
X9Y35D01*
X1199Y35D02*
X1208Y35D01*
X0Y34D02*
X9Y34D01*
X1199Y34D02*
X1208Y34D01*
X0Y33D02*
X9Y33D01*
X1199Y33D02*
X1208Y33D01*
X0Y32D02*
X9Y32D01*
X1199Y32D02*
X1208Y32D01*
X0Y31D02*
X9Y31D01*
X1199Y31D02*
X1208Y31D01*
X0Y30D02*
X9Y30D01*
X1199Y30D02*
X1208Y30D01*
X0Y29D02*
X9Y29D01*
X1199Y29D02*
X1208Y29D01*
X0Y28D02*
X9Y28D01*
X1199Y28D02*
X1208Y28D01*
X0Y27D02*
X9Y27D01*
X1199Y27D02*
X1208Y27D01*
X0Y26D02*
X9Y26D01*
X1199Y26D02*
X1208Y26D01*
X0Y25D02*
X9Y25D01*
X1199Y25D02*
X1208Y25D01*
X0Y24D02*
X9Y24D01*
X1199Y24D02*
X1208Y24D01*
X0Y23D02*
X9Y23D01*
X1199Y23D02*
X1208Y23D01*
X0Y22D02*
X9Y22D01*
X1199Y22D02*
X1208Y22D01*
X0Y21D02*
X9Y21D01*
X1199Y21D02*
X1208Y21D01*
X0Y20D02*
X9Y20D01*
X1199Y20D02*
X1208Y20D01*
X0Y19D02*
X9Y19D01*
X1199Y19D02*
X1208Y19D01*
X0Y18D02*
X9Y18D01*
X1199Y18D02*
X1208Y18D01*
X0Y17D02*
X9Y17D01*
X1199Y17D02*
X1208Y17D01*
X0Y16D02*
X9Y16D01*
X1199Y16D02*
X1208Y16D01*
X0Y15D02*
X9Y15D01*
X1199Y15D02*
X1208Y15D01*
X0Y14D02*
X9Y14D01*
X1199Y14D02*
X1208Y14D01*
X0Y13D02*
X1208Y13D01*
X0Y12D02*
X1208Y12D01*
X0Y11D02*
X1208Y11D01*
X0Y10D02*
X1208Y10D01*
X0Y9D02*
X1208Y9D01*
X0Y8D02*
X1207Y8D01*
X0Y7D02*
X1207Y7D01*
X0Y6D02*
X1207Y6D01*
X0Y5D02*
X1207Y5D01*
X0Y4D02*
X1207Y4D01*
X0Y3D02*
X1207Y3D01*
X0Y2D02*
X1207Y2D01*
D02*
G04 End of Silk1*
M02*