G04 MADE WITH FRITZING*
G04 WWW.FRITZING.ORG*
G04 DOUBLE SIDED*
G04 HOLES PLATED*
G04 CONTOUR ON CENTER OF CONTOUR VECTOR*
%ASAXBY*%
%FSLAX23Y23*%
%MOIN*%
%OFA0B0*%
%SFA1.0B1.0*%
%ADD10C,0.048460*%
%ADD11C,0.088000*%
%ADD12C,0.028661*%
%ADD13R,0.088000X0.088000*%
%LNMASK0*%
G90*
G70*
G54D10*
X320Y148D03*
X370Y148D03*
X420Y148D03*
X470Y148D03*
X520Y148D03*
X570Y148D03*
X620Y148D03*
X670Y148D03*
X720Y148D03*
X770Y148D03*
X820Y148D03*
X870Y148D03*
X318Y481D03*
X368Y481D03*
X418Y481D03*
X468Y481D03*
X518Y481D03*
X568Y481D03*
X618Y481D03*
X668Y481D03*
X718Y481D03*
X768Y481D03*
X818Y481D03*
X868Y481D03*
G54D11*
X1155Y567D03*
X1055Y567D03*
X955Y567D03*
X855Y567D03*
X755Y567D03*
X655Y567D03*
X555Y567D03*
X455Y567D03*
X355Y567D03*
X255Y567D03*
X155Y567D03*
X55Y567D03*
X1155Y57D03*
X1055Y57D03*
X955Y57D03*
X855Y57D03*
X755Y57D03*
X655Y57D03*
X555Y57D03*
X455Y57D03*
X355Y57D03*
X255Y57D03*
X155Y57D03*
X55Y57D03*
G54D12*
X256Y447D03*
X256Y184D03*
X954Y182D03*
X954Y447D03*
G54D13*
X1155Y567D03*
X1155Y57D03*
G04 End of Mask0*
M02*