G04 MADE WITH FRITZING*
G04 WWW.FRITZING.ORG*
G04 DOUBLE SIDED*
G04 HOLES PLATED*
G04 CONTOUR ON CENTER OF CONTOUR VECTOR*
%ASAXBY*%
%FSLAX23Y23*%
%MOIN*%
%OFA0B0*%
%SFA1.0B1.0*%
%ADD10R,0.001000X0.001000*%
%LNSILK0*%
G90*
G70*
G36*
X512Y194D02*
X512Y163D01*
X480Y163D01*
X480Y194D01*
X512Y194D01*
G37*
D02*
G36*
X512Y162D02*
X512Y130D01*
X480Y130D01*
X480Y162D01*
X512Y162D01*
G37*
D02*
G36*
X512Y129D02*
X512Y97D01*
X480Y97D01*
X480Y129D01*
X512Y129D01*
G37*
D02*
G36*
X547Y358D02*
X547Y357D01*
X546Y357D01*
X546Y356D01*
X545Y356D01*
X545Y356D01*
X545Y356D01*
X545Y355D01*
X544Y355D01*
X544Y354D01*
X543Y354D01*
X543Y353D01*
X542Y353D01*
X542Y353D01*
X542Y353D01*
X542Y352D01*
X541Y352D01*
X541Y351D01*
X540Y351D01*
X540Y350D01*
X539Y350D01*
X539Y350D01*
X539Y350D01*
X539Y349D01*
X538Y349D01*
X538Y348D01*
X537Y348D01*
X537Y347D01*
X536Y347D01*
X536Y347D01*
X536Y347D01*
X536Y346D01*
X535Y346D01*
X535Y345D01*
X534Y345D01*
X534Y344D01*
X533Y344D01*
X533Y344D01*
X533Y344D01*
X533Y343D01*
X532Y343D01*
X532Y342D01*
X531Y342D01*
X531Y341D01*
X530Y341D01*
X530Y341D01*
X530Y341D01*
X530Y340D01*
X529Y340D01*
X529Y339D01*
X528Y339D01*
X528Y338D01*
X528Y338D01*
X528Y338D01*
X527Y338D01*
X527Y337D01*
X526Y337D01*
X526Y336D01*
X525Y336D01*
X525Y336D01*
X525Y336D01*
X525Y335D01*
X524Y335D01*
X524Y334D01*
X523Y334D01*
X523Y333D01*
X522Y333D01*
X522Y333D01*
X522Y333D01*
X522Y332D01*
X521Y332D01*
X521Y331D01*
X520Y331D01*
X520Y330D01*
X519Y330D01*
X519Y330D01*
X519Y330D01*
X519Y329D01*
X518Y329D01*
X518Y328D01*
X517Y328D01*
X517Y327D01*
X516Y327D01*
X516Y327D01*
X516Y327D01*
X516Y326D01*
X515Y326D01*
X515Y325D01*
X514Y325D01*
X514Y324D01*
X513Y324D01*
X513Y324D01*
X502Y324D01*
X502Y324D01*
X502Y324D01*
X502Y325D01*
X503Y325D01*
X503Y326D01*
X504Y326D01*
X504Y327D01*
X505Y327D01*
X505Y327D01*
X505Y327D01*
X505Y328D01*
X506Y328D01*
X506Y329D01*
X507Y329D01*
X507Y330D01*
X508Y330D01*
X508Y330D01*
X508Y330D01*
X508Y331D01*
X509Y331D01*
X509Y332D01*
X510Y332D01*
X510Y333D01*
X510Y333D01*
X510Y333D01*
X511Y333D01*
X511Y334D01*
X512Y334D01*
X512Y335D01*
X513Y335D01*
X513Y336D01*
X513Y336D01*
X513Y336D01*
X514Y336D01*
X514Y337D01*
X515Y337D01*
X515Y338D01*
X516Y338D01*
X516Y338D01*
X516Y338D01*
X516Y339D01*
X517Y339D01*
X517Y340D01*
X518Y340D01*
X518Y341D01*
X519Y341D01*
X519Y341D01*
X519Y341D01*
X519Y342D01*
X520Y342D01*
X520Y343D01*
X521Y343D01*
X521Y344D01*
X522Y344D01*
X522Y344D01*
X522Y344D01*
X522Y345D01*
X523Y345D01*
X523Y346D01*
X524Y346D01*
X524Y347D01*
X525Y347D01*
X525Y347D01*
X525Y347D01*
X525Y348D01*
X526Y348D01*
X526Y349D01*
X527Y349D01*
X527Y350D01*
X528Y350D01*
X528Y350D01*
X528Y350D01*
X528Y351D01*
X529Y351D01*
X529Y352D01*
X530Y352D01*
X530Y353D01*
X530Y353D01*
X530Y353D01*
X531Y353D01*
X531Y354D01*
X532Y354D01*
X532Y355D01*
X533Y355D01*
X533Y356D01*
X533Y356D01*
X533Y356D01*
X534Y356D01*
X534Y358D01*
X547Y358D01*
G37*
D02*
G36*
X431Y347D02*
X431Y347D01*
X432Y347D01*
X432Y346D01*
X433Y346D01*
X433Y345D01*
X428Y345D01*
X428Y344D01*
X427Y344D01*
X427Y342D01*
X428Y342D01*
X428Y341D01*
X425Y341D01*
X425Y341D01*
X425Y341D01*
X425Y344D01*
X425Y344D01*
X425Y346D01*
X426Y346D01*
X426Y347D01*
X427Y347D01*
X427Y347D01*
X431Y347D01*
G37*
D02*
G36*
X458Y347D02*
X458Y346D01*
X459Y346D01*
X459Y345D01*
X459Y345D01*
X459Y344D01*
X454Y344D01*
X454Y344D01*
X453Y344D01*
X453Y341D01*
X454Y341D01*
X454Y340D01*
X451Y340D01*
X451Y344D01*
X452Y344D01*
X452Y345D01*
X453Y345D01*
X453Y346D01*
X453Y346D01*
X453Y347D01*
X458Y347D01*
G37*
D02*
G36*
X482Y345D02*
X482Y344D01*
X484Y344D01*
X484Y344D01*
X485Y344D01*
X485Y343D01*
X479Y343D01*
X479Y342D01*
X479Y342D01*
X479Y339D01*
X479Y339D01*
X479Y338D01*
X476Y338D01*
X476Y340D01*
X476Y340D01*
X476Y341D01*
X476Y341D01*
X476Y343D01*
X477Y343D01*
X477Y344D01*
X478Y344D01*
X478Y344D01*
X479Y344D01*
X479Y345D01*
X482Y345D01*
G37*
D02*
G36*
X433Y345D02*
X433Y341D01*
X430Y341D01*
X430Y341D01*
X431Y341D01*
X431Y344D01*
X430Y344D01*
X430Y345D01*
X433Y345D01*
G37*
D02*
G36*
X460Y344D02*
X460Y340D01*
X457Y340D01*
X457Y341D01*
X458Y341D01*
X458Y344D01*
X456Y344D01*
X456Y344D01*
X460Y344D01*
G37*
D02*
G36*
X485Y343D02*
X485Y342D01*
X485Y342D01*
X485Y339D01*
X485Y339D01*
X485Y338D01*
X482Y338D01*
X482Y340D01*
X483Y340D01*
X483Y341D01*
X482Y341D01*
X482Y342D01*
X482Y342D01*
X482Y343D01*
X485Y343D01*
G37*
D02*
G36*
X433Y341D02*
X433Y340D01*
X425Y340D01*
X425Y341D01*
X433Y341D01*
G37*
D02*
G36*
X433Y341D02*
X433Y340D01*
X425Y340D01*
X425Y341D01*
X433Y341D01*
G37*
D02*
G36*
X459Y340D02*
X459Y339D01*
X452Y339D01*
X452Y340D01*
X459Y340D01*
G37*
D02*
G36*
X459Y340D02*
X459Y339D01*
X452Y339D01*
X452Y340D01*
X459Y340D01*
G37*
D02*
G36*
X459Y339D02*
X459Y338D01*
X458Y338D01*
X458Y338D01*
X456Y338D01*
X456Y332D01*
X456Y332D01*
X456Y331D01*
X457Y331D01*
X457Y330D01*
X458Y330D01*
X458Y330D01*
X459Y330D01*
X459Y329D01*
X459Y329D01*
X459Y328D01*
X460Y328D01*
X460Y327D01*
X461Y327D01*
X461Y327D01*
X462Y327D01*
X462Y326D01*
X462Y326D01*
X462Y325D01*
X463Y325D01*
X463Y324D01*
X464Y324D01*
X464Y324D01*
X465Y324D01*
X465Y323D01*
X465Y323D01*
X465Y322D01*
X466Y322D01*
X466Y321D01*
X467Y321D01*
X467Y321D01*
X468Y321D01*
X468Y320D01*
X468Y320D01*
X468Y319D01*
X469Y319D01*
X469Y318D01*
X470Y318D01*
X470Y318D01*
X470Y318D01*
X470Y317D01*
X471Y317D01*
X471Y316D01*
X472Y316D01*
X472Y316D01*
X473Y316D01*
X473Y315D01*
X473Y315D01*
X473Y304D01*
X472Y304D01*
X472Y313D01*
X471Y313D01*
X471Y314D01*
X470Y314D01*
X470Y315D01*
X470Y315D01*
X470Y316D01*
X469Y316D01*
X469Y316D01*
X468Y316D01*
X468Y317D01*
X468Y317D01*
X468Y318D01*
X467Y318D01*
X467Y318D01*
X466Y318D01*
X466Y319D01*
X465Y319D01*
X465Y320D01*
X465Y320D01*
X465Y321D01*
X464Y321D01*
X464Y321D01*
X463Y321D01*
X463Y322D01*
X462Y322D01*
X462Y323D01*
X462Y323D01*
X462Y324D01*
X461Y324D01*
X461Y324D01*
X460Y324D01*
X460Y325D01*
X459Y325D01*
X459Y326D01*
X459Y326D01*
X459Y327D01*
X458Y327D01*
X458Y327D01*
X457Y327D01*
X457Y328D01*
X456Y328D01*
X456Y329D01*
X456Y329D01*
X456Y330D01*
X455Y330D01*
X455Y330D01*
X454Y330D01*
X454Y338D01*
X453Y338D01*
X453Y338D01*
X453Y338D01*
X453Y339D01*
X459Y339D01*
G37*
D02*
G36*
X485Y338D02*
X485Y338D01*
X476Y338D01*
X476Y338D01*
X485Y338D01*
G37*
D02*
G36*
X485Y338D02*
X485Y338D01*
X476Y338D01*
X476Y338D01*
X485Y338D01*
G37*
D02*
G36*
X485Y338D02*
X485Y336D01*
X481Y336D01*
X481Y336D01*
X480Y336D01*
X480Y336D01*
X478Y336D01*
X478Y337D01*
X477Y337D01*
X477Y338D01*
X485Y338D01*
G37*
D02*
G36*
X485Y336D02*
X485Y336D01*
X486Y336D01*
X486Y335D01*
X487Y335D01*
X487Y334D01*
X488Y334D01*
X488Y333D01*
X488Y333D01*
X488Y333D01*
X489Y333D01*
X489Y332D01*
X490Y332D01*
X490Y331D01*
X490Y331D01*
X490Y330D01*
X491Y330D01*
X491Y330D01*
X492Y330D01*
X492Y329D01*
X493Y329D01*
X493Y328D01*
X493Y328D01*
X493Y327D01*
X494Y327D01*
X494Y327D01*
X495Y327D01*
X495Y326D01*
X496Y326D01*
X496Y325D01*
X493Y325D01*
X493Y326D01*
X493Y326D01*
X493Y327D01*
X492Y327D01*
X492Y327D01*
X491Y327D01*
X491Y328D01*
X490Y328D01*
X490Y329D01*
X490Y329D01*
X490Y330D01*
X489Y330D01*
X489Y330D01*
X488Y330D01*
X488Y331D01*
X488Y331D01*
X488Y332D01*
X487Y332D01*
X487Y333D01*
X486Y333D01*
X486Y333D01*
X485Y333D01*
X485Y334D01*
X485Y334D01*
X485Y335D01*
X484Y335D01*
X484Y336D01*
X483Y336D01*
X483Y336D01*
X485Y336D01*
G37*
D02*
G36*
X477Y330D02*
X477Y330D01*
X478Y330D01*
X478Y329D01*
X479Y329D01*
X479Y328D01*
X473Y328D01*
X473Y327D01*
X473Y327D01*
X473Y324D01*
X473Y324D01*
X473Y324D01*
X470Y324D01*
X470Y328D01*
X471Y328D01*
X471Y329D01*
X472Y329D01*
X472Y330D01*
X473Y330D01*
X473Y330D01*
X477Y330D01*
G37*
D02*
G36*
X479Y328D02*
X479Y324D01*
X476Y324D01*
X476Y324D01*
X477Y324D01*
X477Y327D01*
X476Y327D01*
X476Y328D01*
X479Y328D01*
G37*
D02*
G36*
X499Y326D02*
X499Y325D01*
X497Y325D01*
X497Y326D01*
X499Y326D01*
G37*
D02*
G36*
X499Y325D02*
X499Y324D01*
X494Y324D01*
X494Y325D01*
X499Y325D01*
G37*
D02*
G36*
X499Y325D02*
X499Y324D01*
X494Y324D01*
X494Y325D01*
X499Y325D01*
G37*
D02*
G36*
X500Y324D02*
X500Y324D01*
X495Y324D01*
X495Y324D01*
X500Y324D01*
G37*
D02*
G36*
X513Y324D02*
X513Y323D01*
X495Y323D01*
X495Y324D01*
X513Y324D01*
G37*
D02*
G36*
X513Y324D02*
X513Y323D01*
X495Y323D01*
X495Y324D01*
X513Y324D01*
G37*
D02*
G36*
X479Y324D02*
X479Y323D01*
X471Y323D01*
X471Y324D01*
X479Y324D01*
G37*
D02*
G36*
X479Y324D02*
X479Y323D01*
X471Y323D01*
X471Y324D01*
X479Y324D01*
G37*
D02*
G36*
X512Y323D02*
X512Y322D01*
X511Y322D01*
X511Y321D01*
X510Y321D01*
X510Y321D01*
X510Y321D01*
X510Y320D01*
X509Y320D01*
X509Y319D01*
X508Y319D01*
X508Y318D01*
X508Y318D01*
X508Y318D01*
X507Y318D01*
X507Y317D01*
X506Y317D01*
X506Y316D01*
X505Y316D01*
X505Y316D01*
X505Y316D01*
X505Y315D01*
X504Y315D01*
X504Y314D01*
X503Y314D01*
X503Y313D01*
X491Y313D01*
X491Y314D01*
X492Y314D01*
X492Y315D01*
X493Y315D01*
X493Y316D01*
X493Y316D01*
X493Y316D01*
X494Y316D01*
X494Y317D01*
X495Y317D01*
X495Y318D01*
X496Y318D01*
X496Y320D01*
X495Y320D01*
X495Y321D01*
X494Y321D01*
X494Y321D01*
X493Y321D01*
X493Y322D01*
X494Y322D01*
X494Y323D01*
X512Y323D01*
G37*
D02*
G36*
X479Y323D02*
X479Y322D01*
X479Y322D01*
X479Y321D01*
X480Y321D01*
X480Y321D01*
X481Y321D01*
X481Y320D01*
X482Y320D01*
X482Y319D01*
X482Y319D01*
X482Y318D01*
X483Y318D01*
X483Y318D01*
X484Y318D01*
X484Y317D01*
X485Y317D01*
X485Y316D01*
X485Y316D01*
X485Y316D01*
X483Y316D01*
X483Y316D01*
X482Y316D01*
X482Y317D01*
X482Y317D01*
X482Y318D01*
X481Y318D01*
X481Y318D01*
X480Y318D01*
X480Y319D01*
X479Y319D01*
X479Y320D01*
X479Y320D01*
X479Y321D01*
X478Y321D01*
X478Y321D01*
X473Y321D01*
X473Y322D01*
X472Y322D01*
X472Y323D01*
X479Y323D01*
G37*
D02*
G36*
X488Y316D02*
X488Y316D01*
X487Y316D01*
X487Y316D01*
X488Y316D01*
G37*
D02*
G36*
X488Y316D02*
X488Y315D01*
X484Y315D01*
X484Y316D01*
X488Y316D01*
G37*
D02*
G36*
X488Y316D02*
X488Y315D01*
X484Y315D01*
X484Y316D01*
X488Y316D01*
G37*
D02*
G36*
X489Y315D02*
X489Y314D01*
X490Y314D01*
X490Y313D01*
X485Y313D01*
X485Y315D01*
X489Y315D01*
G37*
D02*
G36*
X502Y313D02*
X502Y313D01*
X484Y313D01*
X484Y313D01*
X502Y313D01*
G37*
D02*
G36*
X502Y313D02*
X502Y313D01*
X484Y313D01*
X484Y313D01*
X502Y313D01*
G37*
D02*
G36*
X502Y313D02*
X502Y312D01*
X501Y312D01*
X501Y311D01*
X500Y311D01*
X500Y310D01*
X499Y310D01*
X499Y310D01*
X499Y310D01*
X499Y309D01*
X498Y309D01*
X498Y308D01*
X497Y308D01*
X497Y307D01*
X496Y307D01*
X496Y307D01*
X496Y307D01*
X496Y306D01*
X495Y306D01*
X495Y305D01*
X494Y305D01*
X494Y304D01*
X493Y304D01*
X493Y304D01*
X493Y304D01*
X493Y303D01*
X492Y303D01*
X492Y302D01*
X480Y302D01*
X480Y303D01*
X481Y303D01*
X481Y304D01*
X482Y304D01*
X482Y304D01*
X482Y304D01*
X482Y305D01*
X483Y305D01*
X483Y306D01*
X484Y306D01*
X484Y307D01*
X485Y307D01*
X485Y307D01*
X485Y307D01*
X485Y308D01*
X486Y308D01*
X486Y309D01*
X485Y309D01*
X485Y310D01*
X485Y310D01*
X485Y310D01*
X484Y310D01*
X484Y311D01*
X483Y311D01*
X483Y313D01*
X502Y313D01*
G37*
D02*
G36*
X476Y305D02*
X476Y304D01*
X477Y304D01*
X477Y304D01*
X475Y304D01*
X475Y304D01*
X476Y304D01*
X476Y305D01*
X476Y305D01*
G37*
D02*
G36*
X478Y304D02*
X478Y303D01*
X472Y303D01*
X472Y304D01*
X478Y304D01*
G37*
D02*
G36*
X478Y304D02*
X478Y303D01*
X472Y303D01*
X472Y304D01*
X478Y304D01*
G37*
D02*
G36*
X479Y303D02*
X479Y302D01*
X472Y302D01*
X472Y303D01*
X479Y303D01*
G37*
D02*
G36*
X491Y302D02*
X491Y301D01*
X473Y301D01*
X473Y302D01*
X491Y302D01*
G37*
D02*
G36*
X491Y302D02*
X491Y301D01*
X473Y301D01*
X473Y302D01*
X491Y302D01*
G37*
D02*
G36*
X490Y301D02*
X490Y301D01*
X490Y301D01*
X490Y300D01*
X489Y300D01*
X489Y299D01*
X488Y299D01*
X488Y298D01*
X488Y298D01*
X488Y298D01*
X487Y298D01*
X487Y297D01*
X486Y297D01*
X486Y296D01*
X485Y296D01*
X485Y296D01*
X485Y296D01*
X485Y295D01*
X484Y295D01*
X484Y294D01*
X483Y294D01*
X483Y293D01*
X482Y293D01*
X482Y293D01*
X482Y293D01*
X482Y292D01*
X481Y292D01*
X481Y291D01*
X480Y291D01*
X480Y290D01*
X468Y290D01*
X468Y291D01*
X469Y291D01*
X469Y292D01*
X470Y292D01*
X470Y293D01*
X470Y293D01*
X470Y293D01*
X471Y293D01*
X471Y294D01*
X472Y294D01*
X472Y295D01*
X473Y295D01*
X473Y296D01*
X473Y296D01*
X473Y296D01*
X474Y296D01*
X474Y298D01*
X473Y298D01*
X473Y299D01*
X473Y299D01*
X473Y300D01*
X472Y300D01*
X472Y301D01*
X490Y301D01*
G37*
D02*
G36*
X465Y293D02*
X465Y293D01*
X465Y293D01*
X465Y292D01*
X463Y292D01*
X463Y293D01*
X464Y293D01*
X464Y293D01*
X465Y293D01*
G37*
D02*
G36*
X466Y292D02*
X466Y291D01*
X460Y291D01*
X460Y292D01*
X466Y292D01*
G37*
D02*
G36*
X466Y292D02*
X466Y291D01*
X460Y291D01*
X460Y292D01*
X466Y292D01*
G37*
D02*
G36*
X467Y291D02*
X467Y290D01*
X461Y290D01*
X461Y291D01*
X467Y291D01*
G37*
D02*
G36*
X479Y290D02*
X479Y290D01*
X461Y290D01*
X461Y290D01*
X479Y290D01*
G37*
D02*
G36*
X479Y290D02*
X479Y290D01*
X461Y290D01*
X461Y290D01*
X479Y290D01*
G37*
D02*
G36*
X431Y290D02*
X431Y290D01*
X432Y290D01*
X432Y287D01*
X431Y287D01*
X431Y287D01*
X429Y287D01*
X429Y290D01*
X431Y290D01*
G37*
D02*
G36*
X479Y290D02*
X479Y289D01*
X478Y289D01*
X478Y288D01*
X477Y288D01*
X477Y287D01*
X476Y287D01*
X476Y287D01*
X476Y287D01*
X476Y286D01*
X475Y286D01*
X475Y285D01*
X474Y285D01*
X474Y284D01*
X473Y284D01*
X473Y284D01*
X473Y284D01*
X473Y283D01*
X472Y283D01*
X472Y282D01*
X471Y282D01*
X471Y281D01*
X470Y281D01*
X470Y281D01*
X470Y281D01*
X470Y280D01*
X458Y280D01*
X458Y281D01*
X459Y281D01*
X459Y281D01*
X459Y281D01*
X459Y282D01*
X460Y282D01*
X460Y283D01*
X461Y283D01*
X461Y284D01*
X462Y284D01*
X462Y284D01*
X462Y284D01*
X462Y287D01*
X462Y287D01*
X462Y287D01*
X461Y287D01*
X461Y288D01*
X460Y288D01*
X460Y290D01*
X479Y290D01*
G37*
D02*
G36*
X431Y287D02*
X431Y286D01*
X423Y286D01*
X423Y287D01*
X431Y287D01*
G37*
D02*
G36*
X431Y287D02*
X431Y286D01*
X423Y286D01*
X423Y287D01*
X431Y287D01*
G37*
D02*
G36*
X430Y286D02*
X430Y285D01*
X431Y285D01*
X431Y284D01*
X428Y284D01*
X428Y284D01*
X426Y284D01*
X426Y284D01*
X425Y284D01*
X425Y285D01*
X424Y285D01*
X424Y286D01*
X430Y286D01*
G37*
D02*
G36*
X432Y284D02*
X432Y284D01*
X433Y284D01*
X433Y283D01*
X433Y283D01*
X433Y282D01*
X434Y282D01*
X434Y281D01*
X435Y281D01*
X435Y281D01*
X436Y281D01*
X436Y280D01*
X436Y280D01*
X436Y279D01*
X437Y279D01*
X437Y278D01*
X438Y278D01*
X438Y278D01*
X439Y278D01*
X439Y277D01*
X439Y277D01*
X439Y276D01*
X440Y276D01*
X440Y276D01*
X441Y276D01*
X441Y275D01*
X442Y275D01*
X442Y274D01*
X442Y274D01*
X442Y273D01*
X439Y273D01*
X439Y274D01*
X439Y274D01*
X439Y275D01*
X438Y275D01*
X438Y276D01*
X437Y276D01*
X437Y276D01*
X436Y276D01*
X436Y277D01*
X436Y277D01*
X436Y278D01*
X435Y278D01*
X435Y278D01*
X434Y278D01*
X434Y279D01*
X433Y279D01*
X433Y280D01*
X433Y280D01*
X433Y281D01*
X432Y281D01*
X432Y281D01*
X431Y281D01*
X431Y282D01*
X430Y282D01*
X430Y283D01*
X430Y283D01*
X430Y284D01*
X429Y284D01*
X429Y284D01*
X432Y284D01*
G37*
D02*
G36*
X454Y282D02*
X454Y281D01*
X453Y281D01*
X453Y282D01*
X454Y282D01*
G37*
D02*
G36*
X455Y281D02*
X455Y281D01*
X450Y281D01*
X450Y281D01*
X455Y281D01*
G37*
D02*
G36*
X455Y281D02*
X455Y281D01*
X450Y281D01*
X450Y281D01*
X455Y281D01*
G37*
D02*
G36*
X456Y281D02*
X456Y280D01*
X450Y280D01*
X450Y281D01*
X456Y281D01*
G37*
D02*
G36*
X469Y280D02*
X469Y279D01*
X450Y279D01*
X450Y280D01*
X469Y280D01*
G37*
D02*
G36*
X469Y280D02*
X469Y279D01*
X450Y279D01*
X450Y280D01*
X469Y280D01*
G37*
D02*
G36*
X468Y279D02*
X468Y278D01*
X468Y278D01*
X468Y278D01*
X467Y278D01*
X467Y277D01*
X466Y277D01*
X466Y276D01*
X465Y276D01*
X465Y276D01*
X465Y276D01*
X465Y275D01*
X464Y275D01*
X464Y274D01*
X463Y274D01*
X463Y273D01*
X462Y273D01*
X462Y273D01*
X462Y273D01*
X462Y272D01*
X461Y272D01*
X461Y271D01*
X449Y271D01*
X449Y272D01*
X450Y272D01*
X450Y273D01*
X450Y273D01*
X450Y273D01*
X451Y273D01*
X451Y274D01*
X452Y274D01*
X452Y276D01*
X451Y276D01*
X451Y277D01*
X450Y277D01*
X450Y278D01*
X450Y278D01*
X450Y279D01*
X468Y279D01*
G37*
D02*
G36*
X445Y274D02*
X445Y273D01*
X444Y273D01*
X444Y274D01*
X445Y274D01*
G37*
D02*
G36*
X445Y273D02*
X445Y273D01*
X440Y273D01*
X440Y273D01*
X445Y273D01*
G37*
D02*
G36*
X445Y273D02*
X445Y273D01*
X440Y273D01*
X440Y273D01*
X445Y273D01*
G37*
D02*
G36*
X446Y273D02*
X446Y272D01*
X447Y272D01*
X447Y271D01*
X442Y271D01*
X442Y272D01*
X441Y272D01*
X441Y273D01*
X446Y273D01*
G37*
D02*
G36*
X460Y271D02*
X460Y270D01*
X441Y270D01*
X441Y271D01*
X460Y271D01*
G37*
D02*
G36*
X460Y271D02*
X460Y270D01*
X441Y270D01*
X441Y271D01*
X460Y271D01*
G37*
D02*
G36*
X459Y270D02*
X459Y270D01*
X459Y270D01*
X459Y269D01*
X458Y269D01*
X458Y268D01*
X457Y268D01*
X457Y267D01*
X456Y267D01*
X456Y267D01*
X456Y267D01*
X456Y266D01*
X455Y266D01*
X455Y265D01*
X454Y265D01*
X454Y264D01*
X453Y264D01*
X453Y264D01*
X453Y264D01*
X453Y263D01*
X452Y263D01*
X452Y262D01*
X451Y262D01*
X451Y261D01*
X450Y261D01*
X450Y261D01*
X450Y261D01*
X450Y260D01*
X449Y260D01*
X449Y259D01*
X448Y259D01*
X448Y258D01*
X448Y258D01*
X448Y258D01*
X447Y258D01*
X447Y257D01*
X446Y257D01*
X446Y256D01*
X445Y256D01*
X445Y256D01*
X445Y256D01*
X445Y255D01*
X444Y255D01*
X444Y254D01*
X443Y254D01*
X443Y253D01*
X442Y253D01*
X442Y253D01*
X442Y253D01*
X442Y252D01*
X441Y252D01*
X441Y251D01*
X440Y251D01*
X440Y250D01*
X439Y250D01*
X439Y250D01*
X439Y250D01*
X439Y249D01*
X438Y249D01*
X438Y248D01*
X437Y248D01*
X437Y247D01*
X436Y247D01*
X436Y247D01*
X436Y247D01*
X436Y246D01*
X435Y246D01*
X435Y245D01*
X434Y245D01*
X434Y244D01*
X433Y244D01*
X433Y244D01*
X433Y244D01*
X433Y243D01*
X432Y243D01*
X432Y242D01*
X431Y242D01*
X431Y241D01*
X430Y241D01*
X430Y241D01*
X430Y241D01*
X430Y240D01*
X429Y240D01*
X429Y239D01*
X428Y239D01*
X428Y238D01*
X428Y238D01*
X428Y238D01*
X427Y238D01*
X427Y237D01*
X426Y237D01*
X426Y236D01*
X425Y236D01*
X425Y236D01*
X413Y236D01*
X413Y236D01*
X414Y236D01*
X414Y237D01*
X415Y237D01*
X415Y238D01*
X416Y238D01*
X416Y238D01*
X416Y238D01*
X416Y239D01*
X417Y239D01*
X417Y240D01*
X418Y240D01*
X418Y241D01*
X419Y241D01*
X419Y241D01*
X419Y241D01*
X419Y242D01*
X420Y242D01*
X420Y243D01*
X421Y243D01*
X421Y244D01*
X422Y244D01*
X422Y244D01*
X422Y244D01*
X422Y245D01*
X423Y245D01*
X423Y246D01*
X424Y246D01*
X424Y247D01*
X425Y247D01*
X425Y247D01*
X425Y247D01*
X425Y248D01*
X426Y248D01*
X426Y249D01*
X427Y249D01*
X427Y250D01*
X428Y250D01*
X428Y250D01*
X428Y250D01*
X428Y251D01*
X429Y251D01*
X429Y252D01*
X430Y252D01*
X430Y253D01*
X430Y253D01*
X430Y253D01*
X431Y253D01*
X431Y254D01*
X432Y254D01*
X432Y255D01*
X433Y255D01*
X433Y256D01*
X433Y256D01*
X433Y256D01*
X434Y256D01*
X434Y257D01*
X435Y257D01*
X435Y258D01*
X436Y258D01*
X436Y258D01*
X436Y258D01*
X436Y259D01*
X437Y259D01*
X437Y260D01*
X438Y260D01*
X438Y261D01*
X439Y261D01*
X439Y261D01*
X439Y261D01*
X439Y262D01*
X440Y262D01*
X440Y263D01*
X441Y263D01*
X441Y264D01*
X442Y264D01*
X442Y264D01*
X442Y264D01*
X442Y265D01*
X443Y265D01*
X443Y267D01*
X442Y267D01*
X442Y267D01*
X442Y267D01*
X442Y268D01*
X441Y268D01*
X441Y269D01*
X440Y269D01*
X440Y270D01*
X459Y270D01*
G37*
D02*
G36*
X425Y236D02*
X425Y235D01*
X405Y235D01*
X405Y236D01*
X425Y236D01*
G37*
D02*
G36*
X425Y236D02*
X425Y235D01*
X405Y235D01*
X405Y236D01*
X425Y236D01*
G37*
D02*
G36*
X424Y235D02*
X424Y234D01*
X423Y234D01*
X423Y233D01*
X422Y233D01*
X422Y233D01*
X422Y233D01*
X422Y232D01*
X421Y232D01*
X421Y231D01*
X420Y231D01*
X420Y230D01*
X419Y230D01*
X419Y230D01*
X419Y230D01*
X419Y229D01*
X418Y229D01*
X418Y228D01*
X417Y228D01*
X417Y227D01*
X416Y227D01*
X416Y227D01*
X416Y227D01*
X416Y226D01*
X415Y226D01*
X415Y225D01*
X414Y225D01*
X414Y224D01*
X413Y224D01*
X413Y224D01*
X413Y224D01*
X413Y223D01*
X412Y223D01*
X412Y222D01*
X411Y222D01*
X411Y221D01*
X410Y221D01*
X410Y221D01*
X410Y221D01*
X410Y220D01*
X409Y220D01*
X409Y219D01*
X408Y219D01*
X408Y218D01*
X408Y218D01*
X408Y218D01*
X407Y218D01*
X407Y217D01*
X406Y217D01*
X406Y218D01*
X405Y218D01*
X405Y221D01*
X405Y221D01*
X405Y235D01*
X424Y235D01*
G37*
D02*
G36*
X565Y336D02*
X565Y223D01*
X564Y223D01*
X564Y220D01*
X563Y220D01*
X563Y218D01*
X562Y218D01*
X562Y216D01*
X562Y216D01*
X562Y215D01*
X561Y215D01*
X561Y214D01*
X543Y214D01*
X543Y215D01*
X545Y215D01*
X545Y216D01*
X547Y216D01*
X547Y216D01*
X548Y216D01*
X548Y217D01*
X549Y217D01*
X549Y218D01*
X550Y218D01*
X550Y218D01*
X550Y218D01*
X550Y219D01*
X551Y219D01*
X551Y220D01*
X552Y220D01*
X552Y221D01*
X553Y221D01*
X553Y221D01*
X553Y221D01*
X553Y223D01*
X554Y223D01*
X554Y224D01*
X555Y224D01*
X555Y227D01*
X556Y227D01*
X556Y230D01*
X556Y230D01*
X556Y336D01*
X565Y336D01*
G37*
D02*
G36*
X528Y301D02*
X528Y298D01*
X525Y298D01*
X525Y298D01*
X524Y298D01*
X524Y298D01*
X523Y298D01*
X523Y299D01*
X522Y299D01*
X522Y300D01*
X522Y300D01*
X522Y301D01*
X528Y301D01*
G37*
D02*
G36*
X528Y298D02*
X528Y298D01*
X529Y298D01*
X529Y297D01*
X530Y297D01*
X530Y296D01*
X530Y296D01*
X530Y296D01*
X531Y296D01*
X531Y295D01*
X532Y295D01*
X532Y294D01*
X533Y294D01*
X533Y293D01*
X533Y293D01*
X533Y293D01*
X534Y293D01*
X534Y292D01*
X535Y292D01*
X535Y291D01*
X536Y291D01*
X536Y290D01*
X536Y290D01*
X536Y290D01*
X537Y290D01*
X537Y289D01*
X538Y289D01*
X538Y288D01*
X539Y288D01*
X539Y287D01*
X544Y287D01*
X544Y287D01*
X545Y287D01*
X545Y286D01*
X545Y286D01*
X545Y285D01*
X540Y285D01*
X540Y284D01*
X539Y284D01*
X539Y281D01*
X540Y281D01*
X540Y281D01*
X537Y281D01*
X537Y285D01*
X538Y285D01*
X538Y287D01*
X537Y287D01*
X537Y287D01*
X536Y287D01*
X536Y288D01*
X536Y288D01*
X536Y289D01*
X535Y289D01*
X535Y290D01*
X534Y290D01*
X534Y290D01*
X533Y290D01*
X533Y291D01*
X533Y291D01*
X533Y292D01*
X532Y292D01*
X532Y293D01*
X531Y293D01*
X531Y293D01*
X530Y293D01*
X530Y294D01*
X530Y294D01*
X530Y295D01*
X529Y295D01*
X529Y296D01*
X528Y296D01*
X528Y296D01*
X528Y296D01*
X528Y297D01*
X527Y297D01*
X527Y298D01*
X526Y298D01*
X526Y298D01*
X528Y298D01*
G37*
D02*
G36*
X518Y292D02*
X518Y291D01*
X519Y291D01*
X519Y290D01*
X519Y290D01*
X519Y290D01*
X516Y290D01*
X516Y289D01*
X514Y289D01*
X514Y290D01*
X513Y290D01*
X513Y290D01*
X513Y290D01*
X513Y291D01*
X512Y291D01*
X512Y292D01*
X518Y292D01*
G37*
D02*
G36*
X519Y290D02*
X519Y273D01*
X520Y273D01*
X520Y272D01*
X521Y272D01*
X521Y271D01*
X522Y271D01*
X522Y270D01*
X522Y270D01*
X522Y270D01*
X523Y270D01*
X523Y269D01*
X524Y269D01*
X524Y268D01*
X525Y268D01*
X525Y267D01*
X525Y267D01*
X525Y267D01*
X526Y267D01*
X526Y266D01*
X527Y266D01*
X527Y265D01*
X528Y265D01*
X528Y264D01*
X528Y264D01*
X528Y264D01*
X529Y264D01*
X529Y263D01*
X530Y263D01*
X530Y262D01*
X528Y262D01*
X528Y263D01*
X527Y263D01*
X527Y264D01*
X526Y264D01*
X526Y264D01*
X525Y264D01*
X525Y265D01*
X525Y265D01*
X525Y266D01*
X524Y266D01*
X524Y267D01*
X523Y267D01*
X523Y267D01*
X522Y267D01*
X522Y268D01*
X522Y268D01*
X522Y269D01*
X521Y269D01*
X521Y270D01*
X520Y270D01*
X520Y270D01*
X519Y270D01*
X519Y271D01*
X519Y271D01*
X519Y272D01*
X518Y272D01*
X518Y290D01*
X519Y290D01*
G37*
D02*
G36*
X546Y285D02*
X546Y281D01*
X543Y281D01*
X543Y281D01*
X544Y281D01*
X544Y284D01*
X543Y284D01*
X543Y284D01*
X542Y284D01*
X542Y285D01*
X546Y285D01*
G37*
D02*
G36*
X508Y281D02*
X508Y281D01*
X508Y281D01*
X508Y280D01*
X509Y280D01*
X509Y279D01*
X505Y279D01*
X505Y278D01*
X504Y278D01*
X504Y279D01*
X503Y279D01*
X503Y280D01*
X502Y280D01*
X502Y281D01*
X502Y281D01*
X502Y281D01*
X508Y281D01*
G37*
D02*
G36*
X545Y281D02*
X545Y280D01*
X538Y280D01*
X538Y281D01*
X545Y281D01*
G37*
D02*
G36*
X545Y281D02*
X545Y280D01*
X538Y280D01*
X538Y281D01*
X545Y281D01*
G37*
D02*
G36*
X545Y280D02*
X545Y279D01*
X544Y279D01*
X544Y278D01*
X539Y278D01*
X539Y279D01*
X538Y279D01*
X538Y280D01*
X545Y280D01*
G37*
D02*
G36*
X509Y279D02*
X509Y260D01*
X510Y260D01*
X510Y259D01*
X510Y259D01*
X510Y258D01*
X511Y258D01*
X511Y258D01*
X512Y258D01*
X512Y257D01*
X513Y257D01*
X513Y256D01*
X513Y256D01*
X513Y256D01*
X514Y256D01*
X514Y255D01*
X515Y255D01*
X515Y254D01*
X516Y254D01*
X516Y253D01*
X516Y253D01*
X516Y253D01*
X517Y253D01*
X517Y252D01*
X518Y252D01*
X518Y251D01*
X519Y251D01*
X519Y250D01*
X519Y250D01*
X519Y250D01*
X520Y250D01*
X520Y249D01*
X521Y249D01*
X521Y248D01*
X522Y248D01*
X522Y247D01*
X522Y247D01*
X522Y247D01*
X523Y247D01*
X523Y246D01*
X524Y246D01*
X524Y245D01*
X525Y245D01*
X525Y244D01*
X525Y244D01*
X525Y244D01*
X526Y244D01*
X526Y243D01*
X527Y243D01*
X527Y242D01*
X528Y242D01*
X528Y241D01*
X528Y241D01*
X528Y241D01*
X529Y241D01*
X529Y240D01*
X530Y240D01*
X530Y239D01*
X530Y239D01*
X530Y238D01*
X531Y238D01*
X531Y238D01*
X532Y238D01*
X532Y237D01*
X533Y237D01*
X533Y236D01*
X533Y236D01*
X533Y236D01*
X534Y236D01*
X534Y235D01*
X535Y235D01*
X535Y234D01*
X536Y234D01*
X536Y233D01*
X536Y233D01*
X536Y233D01*
X534Y233D01*
X534Y233D01*
X533Y233D01*
X533Y234D01*
X533Y234D01*
X533Y235D01*
X532Y235D01*
X532Y236D01*
X531Y236D01*
X531Y236D01*
X530Y236D01*
X530Y237D01*
X530Y237D01*
X530Y238D01*
X529Y238D01*
X529Y238D01*
X528Y238D01*
X528Y239D01*
X528Y239D01*
X528Y240D01*
X527Y240D01*
X527Y241D01*
X526Y241D01*
X526Y241D01*
X525Y241D01*
X525Y242D01*
X525Y242D01*
X525Y243D01*
X524Y243D01*
X524Y244D01*
X523Y244D01*
X523Y244D01*
X522Y244D01*
X522Y245D01*
X522Y245D01*
X522Y246D01*
X521Y246D01*
X521Y247D01*
X520Y247D01*
X520Y247D01*
X519Y247D01*
X519Y248D01*
X519Y248D01*
X519Y249D01*
X518Y249D01*
X518Y250D01*
X517Y250D01*
X517Y250D01*
X516Y250D01*
X516Y251D01*
X516Y251D01*
X516Y252D01*
X515Y252D01*
X515Y253D01*
X514Y253D01*
X514Y253D01*
X513Y253D01*
X513Y254D01*
X513Y254D01*
X513Y255D01*
X512Y255D01*
X512Y256D01*
X511Y256D01*
X511Y256D01*
X510Y256D01*
X510Y257D01*
X510Y257D01*
X510Y258D01*
X509Y258D01*
X509Y258D01*
X508Y258D01*
X508Y259D01*
X508Y259D01*
X508Y278D01*
X507Y278D01*
X507Y279D01*
X509Y279D01*
G37*
D02*
G36*
X496Y270D02*
X496Y269D01*
X496Y269D01*
X496Y268D01*
X494Y268D01*
X494Y267D01*
X493Y267D01*
X493Y267D01*
X492Y267D01*
X492Y267D01*
X491Y267D01*
X491Y268D01*
X490Y268D01*
X490Y269D01*
X490Y269D01*
X490Y270D01*
X496Y270D01*
G37*
D02*
G36*
X497Y268D02*
X497Y257D01*
X498Y257D01*
X498Y256D01*
X499Y256D01*
X499Y256D01*
X499Y256D01*
X499Y255D01*
X500Y255D01*
X500Y254D01*
X501Y254D01*
X501Y253D01*
X502Y253D01*
X502Y253D01*
X502Y253D01*
X502Y252D01*
X503Y252D01*
X503Y251D01*
X504Y251D01*
X504Y250D01*
X505Y250D01*
X505Y250D01*
X505Y250D01*
X505Y249D01*
X506Y249D01*
X506Y248D01*
X507Y248D01*
X507Y247D01*
X508Y247D01*
X508Y247D01*
X508Y247D01*
X508Y246D01*
X509Y246D01*
X509Y245D01*
X510Y245D01*
X510Y244D01*
X510Y244D01*
X510Y244D01*
X511Y244D01*
X511Y243D01*
X512Y243D01*
X512Y242D01*
X513Y242D01*
X513Y241D01*
X513Y241D01*
X513Y241D01*
X514Y241D01*
X514Y240D01*
X515Y240D01*
X515Y233D01*
X516Y233D01*
X516Y233D01*
X516Y233D01*
X516Y232D01*
X517Y232D01*
X517Y231D01*
X511Y231D01*
X511Y230D01*
X510Y230D01*
X510Y229D01*
X511Y229D01*
X511Y227D01*
X508Y227D01*
X508Y231D01*
X509Y231D01*
X509Y232D01*
X510Y232D01*
X510Y233D01*
X510Y233D01*
X510Y233D01*
X512Y233D01*
X512Y234D01*
X513Y234D01*
X513Y240D01*
X512Y240D01*
X512Y241D01*
X511Y241D01*
X511Y241D01*
X510Y241D01*
X510Y242D01*
X510Y242D01*
X510Y243D01*
X509Y243D01*
X509Y244D01*
X508Y244D01*
X508Y244D01*
X508Y244D01*
X508Y245D01*
X507Y245D01*
X507Y246D01*
X506Y246D01*
X506Y247D01*
X505Y247D01*
X505Y247D01*
X505Y247D01*
X505Y248D01*
X504Y248D01*
X504Y249D01*
X503Y249D01*
X503Y250D01*
X502Y250D01*
X502Y250D01*
X502Y250D01*
X502Y251D01*
X501Y251D01*
X501Y252D01*
X500Y252D01*
X500Y253D01*
X499Y253D01*
X499Y253D01*
X499Y253D01*
X499Y254D01*
X498Y254D01*
X498Y255D01*
X497Y255D01*
X497Y256D01*
X496Y256D01*
X496Y256D01*
X496Y256D01*
X496Y257D01*
X495Y257D01*
X495Y268D01*
X497Y268D01*
G37*
D02*
G36*
X534Y263D02*
X534Y262D01*
X532Y262D01*
X532Y263D01*
X534Y263D01*
G37*
D02*
G36*
X536Y262D02*
X536Y261D01*
X528Y261D01*
X528Y262D01*
X536Y262D01*
G37*
D02*
G36*
X536Y262D02*
X536Y261D01*
X528Y261D01*
X528Y262D01*
X536Y262D01*
G37*
D02*
G36*
X536Y261D02*
X536Y261D01*
X537Y261D01*
X537Y260D01*
X531Y260D01*
X531Y256D01*
X529Y256D01*
X529Y257D01*
X528Y257D01*
X528Y259D01*
X529Y259D01*
X529Y261D01*
X536Y261D01*
G37*
D02*
G36*
X537Y260D02*
X537Y259D01*
X538Y259D01*
X538Y257D01*
X537Y257D01*
X537Y256D01*
X535Y256D01*
X535Y260D01*
X537Y260D01*
G37*
D02*
G36*
X484Y258D02*
X484Y257D01*
X485Y257D01*
X485Y256D01*
X482Y256D01*
X482Y256D01*
X481Y256D01*
X481Y256D01*
X480Y256D01*
X480Y257D01*
X479Y257D01*
X479Y258D01*
X484Y258D01*
G37*
D02*
G36*
X537Y256D02*
X537Y256D01*
X529Y256D01*
X529Y256D01*
X537Y256D01*
G37*
D02*
G36*
X537Y256D02*
X537Y256D01*
X529Y256D01*
X529Y256D01*
X537Y256D01*
G37*
D02*
G36*
X485Y256D02*
X485Y256D01*
X486Y256D01*
X486Y255D01*
X487Y255D01*
X487Y254D01*
X488Y254D01*
X488Y253D01*
X488Y253D01*
X488Y253D01*
X489Y253D01*
X489Y252D01*
X490Y252D01*
X490Y251D01*
X490Y251D01*
X490Y250D01*
X491Y250D01*
X491Y250D01*
X489Y250D01*
X489Y250D01*
X488Y250D01*
X488Y251D01*
X488Y251D01*
X488Y252D01*
X487Y252D01*
X487Y253D01*
X486Y253D01*
X486Y253D01*
X485Y253D01*
X485Y254D01*
X485Y254D01*
X485Y255D01*
X484Y255D01*
X484Y256D01*
X483Y256D01*
X483Y256D01*
X485Y256D01*
G37*
D02*
G36*
X536Y256D02*
X536Y255D01*
X536Y255D01*
X536Y254D01*
X534Y254D01*
X534Y253D01*
X532Y253D01*
X532Y254D01*
X530Y254D01*
X530Y255D01*
X530Y255D01*
X530Y256D01*
X536Y256D01*
G37*
D02*
G36*
X494Y250D02*
X494Y250D01*
X493Y250D01*
X493Y250D01*
X494Y250D01*
G37*
D02*
G36*
X496Y250D02*
X496Y249D01*
X490Y249D01*
X490Y250D01*
X496Y250D01*
G37*
D02*
G36*
X496Y250D02*
X496Y249D01*
X490Y249D01*
X490Y250D01*
X496Y250D01*
G37*
D02*
G36*
X497Y249D02*
X497Y248D01*
X498Y248D01*
X498Y247D01*
X492Y247D01*
X492Y247D01*
X491Y247D01*
X491Y244D01*
X492Y244D01*
X492Y244D01*
X493Y244D01*
X493Y243D01*
X490Y243D01*
X490Y244D01*
X489Y244D01*
X489Y247D01*
X490Y247D01*
X490Y249D01*
X497Y249D01*
G37*
D02*
G36*
X473Y248D02*
X473Y247D01*
X474Y247D01*
X474Y247D01*
X475Y247D01*
X475Y246D01*
X471Y246D01*
X471Y245D01*
X470Y245D01*
X470Y246D01*
X470Y246D01*
X470Y247D01*
X469Y247D01*
X469Y247D01*
X468Y247D01*
X468Y248D01*
X473Y248D01*
G37*
D02*
G36*
X498Y247D02*
X498Y246D01*
X499Y246D01*
X499Y245D01*
X498Y245D01*
X498Y243D01*
X494Y243D01*
X494Y244D01*
X496Y244D01*
X496Y247D01*
X495Y247D01*
X495Y247D01*
X498Y247D01*
G37*
D02*
G36*
X476Y246D02*
X476Y245D01*
X476Y245D01*
X476Y244D01*
X477Y244D01*
X477Y244D01*
X478Y244D01*
X478Y243D01*
X479Y243D01*
X479Y242D01*
X479Y242D01*
X479Y241D01*
X480Y241D01*
X480Y241D01*
X481Y241D01*
X481Y240D01*
X482Y240D01*
X482Y239D01*
X482Y239D01*
X482Y238D01*
X483Y238D01*
X483Y238D01*
X484Y238D01*
X484Y237D01*
X485Y237D01*
X485Y236D01*
X485Y236D01*
X485Y236D01*
X486Y236D01*
X486Y235D01*
X483Y235D01*
X483Y236D01*
X482Y236D01*
X482Y236D01*
X482Y236D01*
X482Y237D01*
X481Y237D01*
X481Y238D01*
X480Y238D01*
X480Y238D01*
X479Y238D01*
X479Y239D01*
X479Y239D01*
X479Y240D01*
X478Y240D01*
X478Y241D01*
X477Y241D01*
X477Y241D01*
X476Y241D01*
X476Y242D01*
X476Y242D01*
X476Y243D01*
X475Y243D01*
X475Y244D01*
X474Y244D01*
X474Y244D01*
X473Y244D01*
X473Y245D01*
X473Y245D01*
X473Y246D01*
X476Y246D01*
G37*
D02*
G36*
X497Y243D02*
X497Y242D01*
X490Y242D01*
X490Y243D01*
X497Y243D01*
G37*
D02*
G36*
X497Y243D02*
X497Y242D01*
X490Y242D01*
X490Y243D01*
X497Y243D01*
G37*
D02*
G36*
X496Y242D02*
X496Y241D01*
X495Y241D01*
X495Y241D01*
X492Y241D01*
X492Y241D01*
X490Y241D01*
X490Y242D01*
X496Y242D01*
G37*
D02*
G36*
X490Y236D02*
X490Y235D01*
X487Y235D01*
X487Y236D01*
X490Y236D01*
G37*
D02*
G36*
X490Y235D02*
X490Y234D01*
X484Y234D01*
X484Y235D01*
X490Y235D01*
G37*
D02*
G36*
X490Y235D02*
X490Y234D01*
X484Y234D01*
X484Y235D01*
X490Y235D01*
G37*
D02*
G36*
X491Y234D02*
X491Y233D01*
X488Y233D01*
X488Y233D01*
X486Y233D01*
X486Y229D01*
X484Y229D01*
X484Y230D01*
X483Y230D01*
X483Y232D01*
X484Y232D01*
X484Y233D01*
X485Y233D01*
X485Y234D01*
X491Y234D01*
G37*
D02*
G36*
X540Y233D02*
X540Y233D01*
X539Y233D01*
X539Y233D01*
X540Y233D01*
G37*
D02*
G36*
X492Y233D02*
X492Y233D01*
X493Y233D01*
X493Y229D01*
X490Y229D01*
X490Y230D01*
X490Y230D01*
X490Y232D01*
X490Y232D01*
X490Y233D01*
X488Y233D01*
X488Y233D01*
X492Y233D01*
G37*
D02*
G36*
X542Y233D02*
X542Y232D01*
X535Y232D01*
X535Y233D01*
X542Y233D01*
G37*
D02*
G36*
X542Y233D02*
X542Y232D01*
X535Y232D01*
X535Y233D01*
X542Y233D01*
G37*
D02*
G36*
X543Y232D02*
X543Y230D01*
X538Y230D01*
X538Y230D01*
X537Y230D01*
X537Y227D01*
X538Y227D01*
X538Y227D01*
X539Y227D01*
X539Y226D01*
X536Y226D01*
X536Y227D01*
X535Y227D01*
X535Y230D01*
X536Y230D01*
X536Y232D01*
X543Y232D01*
G37*
D02*
G36*
X517Y231D02*
X517Y230D01*
X518Y230D01*
X518Y228D01*
X517Y228D01*
X517Y227D01*
X515Y227D01*
X515Y231D01*
X517Y231D01*
G37*
D02*
G36*
X544Y230D02*
X544Y226D01*
X540Y226D01*
X540Y227D01*
X542Y227D01*
X542Y230D01*
X541Y230D01*
X541Y230D01*
X544Y230D01*
G37*
D02*
G36*
X492Y229D02*
X492Y228D01*
X484Y228D01*
X484Y229D01*
X492Y229D01*
G37*
D02*
G36*
X492Y229D02*
X492Y228D01*
X484Y228D01*
X484Y229D01*
X492Y229D01*
G37*
D02*
G36*
X491Y228D02*
X491Y227D01*
X490Y227D01*
X490Y227D01*
X489Y227D01*
X489Y226D01*
X487Y226D01*
X487Y227D01*
X485Y227D01*
X485Y227D01*
X485Y227D01*
X485Y228D01*
X491Y228D01*
G37*
D02*
G36*
X517Y227D02*
X517Y227D01*
X509Y227D01*
X509Y227D01*
X517Y227D01*
G37*
D02*
G36*
X517Y227D02*
X517Y227D01*
X509Y227D01*
X509Y227D01*
X517Y227D01*
G37*
D02*
G36*
X516Y227D02*
X516Y226D01*
X516Y226D01*
X516Y225D01*
X514Y225D01*
X514Y224D01*
X512Y224D01*
X512Y225D01*
X510Y225D01*
X510Y226D01*
X510Y226D01*
X510Y227D01*
X516Y227D01*
G37*
D02*
G36*
X543Y226D02*
X543Y225D01*
X536Y225D01*
X536Y226D01*
X543Y226D01*
G37*
D02*
G36*
X543Y226D02*
X543Y225D01*
X536Y225D01*
X536Y226D01*
X543Y226D01*
G37*
D02*
G36*
X542Y225D02*
X542Y224D01*
X541Y224D01*
X541Y224D01*
X538Y224D01*
X538Y224D01*
X536Y224D01*
X536Y225D01*
X542Y225D01*
G37*
D02*
G36*
X560Y214D02*
X560Y213D01*
X422Y213D01*
X422Y214D01*
X560Y214D01*
G37*
D02*
G36*
X560Y214D02*
X560Y213D01*
X422Y213D01*
X422Y214D01*
X560Y214D01*
G37*
D02*
G36*
X560Y213D02*
X560Y213D01*
X559Y213D01*
X559Y212D01*
X559Y212D01*
X559Y211D01*
X558Y211D01*
X558Y210D01*
X557Y210D01*
X557Y210D01*
X556Y210D01*
X556Y209D01*
X555Y209D01*
X555Y208D01*
X553Y208D01*
X553Y207D01*
X552Y207D01*
X552Y207D01*
X550Y207D01*
X550Y206D01*
X419Y206D01*
X419Y207D01*
X417Y207D01*
X417Y207D01*
X416Y207D01*
X416Y208D01*
X416Y208D01*
X416Y209D01*
X417Y209D01*
X417Y210D01*
X418Y210D01*
X418Y210D01*
X419Y210D01*
X419Y211D01*
X419Y211D01*
X419Y212D01*
X420Y212D01*
X420Y213D01*
X421Y213D01*
X421Y213D01*
X560Y213D01*
G37*
D02*
G54D10*
X0Y457D02*
X654Y457D01*
X0Y456D02*
X654Y456D01*
X0Y455D02*
X654Y455D01*
X0Y454D02*
X654Y454D01*
X0Y453D02*
X654Y453D01*
X0Y452D02*
X654Y452D01*
X0Y451D02*
X654Y451D01*
X0Y450D02*
X654Y450D01*
X0Y449D02*
X7Y449D01*
X647Y449D02*
X654Y449D01*
X0Y448D02*
X7Y448D01*
X647Y448D02*
X654Y448D01*
X0Y447D02*
X7Y447D01*
X647Y447D02*
X654Y447D01*
X0Y446D02*
X7Y446D01*
X647Y446D02*
X654Y446D01*
X0Y445D02*
X7Y445D01*
X647Y445D02*
X654Y445D01*
X0Y444D02*
X7Y444D01*
X647Y444D02*
X654Y444D01*
X0Y443D02*
X7Y443D01*
X647Y443D02*
X654Y443D01*
X0Y442D02*
X7Y442D01*
X647Y442D02*
X654Y442D01*
X0Y441D02*
X7Y441D01*
X29Y441D02*
X37Y441D01*
X43Y441D02*
X53Y441D01*
X64Y441D02*
X69Y441D01*
X594Y441D02*
X594Y441D01*
X602Y441D02*
X609Y441D01*
X647Y441D02*
X654Y441D01*
X0Y440D02*
X7Y440D01*
X28Y440D02*
X37Y440D01*
X43Y440D02*
X53Y440D01*
X63Y440D02*
X69Y440D01*
X88Y440D02*
X97Y440D01*
X108Y440D02*
X113Y440D01*
X137Y440D02*
X146Y440D01*
X157Y440D02*
X163Y440D01*
X191Y440D02*
X196Y440D01*
X207Y440D02*
X212Y440D01*
X237Y440D02*
X245Y440D01*
X256Y440D02*
X262Y440D01*
X293Y440D02*
X303Y440D01*
X347Y440D02*
X352Y440D01*
X393Y440D02*
X404Y440D01*
X452Y440D02*
X454Y440D01*
X494Y440D02*
X501Y440D01*
X531Y440D02*
X537Y440D01*
X544Y440D02*
X545Y440D01*
X551Y440D02*
X554Y440D01*
X560Y440D02*
X565Y440D01*
X585Y440D02*
X586Y440D01*
X594Y440D02*
X595Y440D01*
X601Y440D02*
X609Y440D01*
X647Y440D02*
X654Y440D01*
X0Y439D02*
X7Y439D01*
X27Y439D02*
X29Y439D01*
X35Y439D02*
X37Y439D01*
X43Y439D02*
X45Y439D01*
X47Y439D02*
X49Y439D01*
X51Y439D02*
X53Y439D01*
X62Y439D02*
X68Y439D01*
X87Y439D02*
X97Y439D01*
X108Y439D02*
X113Y439D01*
X137Y439D02*
X146Y439D01*
X157Y439D02*
X162Y439D01*
X191Y439D02*
X196Y439D01*
X207Y439D02*
X212Y439D01*
X236Y439D02*
X246Y439D01*
X256Y439D02*
X262Y439D01*
X293Y439D02*
X303Y439D01*
X346Y439D02*
X352Y439D01*
X393Y439D02*
X404Y439D01*
X452Y439D02*
X454Y439D01*
X494Y439D02*
X501Y439D01*
X530Y439D02*
X537Y439D01*
X543Y439D02*
X545Y439D01*
X551Y439D02*
X554Y439D01*
X560Y439D02*
X566Y439D01*
X585Y439D02*
X586Y439D01*
X594Y439D02*
X595Y439D01*
X602Y439D02*
X609Y439D01*
X647Y439D02*
X654Y439D01*
X0Y438D02*
X7Y438D01*
X27Y438D02*
X28Y438D01*
X36Y438D02*
X37Y438D01*
X43Y438D02*
X44Y438D01*
X47Y438D02*
X49Y438D01*
X52Y438D02*
X53Y438D01*
X61Y438D02*
X63Y438D01*
X66Y438D02*
X67Y438D01*
X87Y438D02*
X88Y438D01*
X108Y438D02*
X109Y438D01*
X136Y438D02*
X138Y438D01*
X157Y438D02*
X158Y438D01*
X191Y438D02*
X192Y438D01*
X207Y438D02*
X208Y438D01*
X236Y438D02*
X237Y438D01*
X244Y438D02*
X246Y438D01*
X256Y438D02*
X258Y438D01*
X293Y438D02*
X294Y438D01*
X302Y438D02*
X303Y438D01*
X346Y438D02*
X348Y438D01*
X351Y438D02*
X352Y438D01*
X393Y438D02*
X395Y438D01*
X403Y438D02*
X403Y438D01*
X453Y438D02*
X454Y438D01*
X500Y438D02*
X501Y438D01*
X530Y438D02*
X531Y438D01*
X534Y438D02*
X535Y438D01*
X543Y438D02*
X545Y438D01*
X550Y438D02*
X554Y438D01*
X565Y438D02*
X567Y438D01*
X585Y438D02*
X586Y438D01*
X594Y438D02*
X595Y438D01*
X608Y438D02*
X609Y438D01*
X647Y438D02*
X654Y438D01*
X0Y437D02*
X7Y437D01*
X27Y437D02*
X28Y437D01*
X36Y437D02*
X37Y437D01*
X47Y437D02*
X49Y437D01*
X61Y437D02*
X62Y437D01*
X66Y437D02*
X67Y437D01*
X87Y437D02*
X88Y437D01*
X108Y437D02*
X109Y437D01*
X136Y437D02*
X138Y437D01*
X157Y437D02*
X158Y437D01*
X191Y437D02*
X192Y437D01*
X207Y437D02*
X208Y437D01*
X236Y437D02*
X237Y437D01*
X245Y437D02*
X246Y437D01*
X256Y437D02*
X258Y437D01*
X293Y437D02*
X294Y437D01*
X302Y437D02*
X303Y437D01*
X346Y437D02*
X348Y437D01*
X351Y437D02*
X352Y437D01*
X393Y437D02*
X395Y437D01*
X453Y437D02*
X454Y437D01*
X500Y437D02*
X501Y437D01*
X529Y437D02*
X531Y437D01*
X534Y437D02*
X535Y437D01*
X543Y437D02*
X545Y437D01*
X550Y437D02*
X554Y437D01*
X566Y437D02*
X568Y437D01*
X585Y437D02*
X586Y437D01*
X594Y437D02*
X595Y437D01*
X608Y437D02*
X609Y437D01*
X647Y437D02*
X654Y437D01*
X0Y436D02*
X7Y436D01*
X27Y436D02*
X29Y436D01*
X36Y436D02*
X37Y436D01*
X47Y436D02*
X49Y436D01*
X60Y436D02*
X62Y436D01*
X66Y436D02*
X67Y436D01*
X87Y436D02*
X88Y436D01*
X108Y436D02*
X109Y436D01*
X136Y436D02*
X138Y436D01*
X157Y436D02*
X158Y436D01*
X191Y436D02*
X192Y436D01*
X207Y436D02*
X208Y436D01*
X236Y436D02*
X237Y436D01*
X245Y436D02*
X246Y436D01*
X256Y436D02*
X258Y436D01*
X293Y436D02*
X294Y436D01*
X302Y436D02*
X303Y436D01*
X346Y436D02*
X348Y436D01*
X351Y436D02*
X352Y436D01*
X393Y436D02*
X395Y436D01*
X453Y436D02*
X454Y436D01*
X500Y436D02*
X501Y436D01*
X529Y436D02*
X530Y436D01*
X534Y436D02*
X535Y436D01*
X543Y436D02*
X545Y436D01*
X550Y436D02*
X554Y436D01*
X567Y436D02*
X568Y436D01*
X585Y436D02*
X586Y436D01*
X594Y436D02*
X595Y436D01*
X608Y436D02*
X609Y436D01*
X647Y436D02*
X654Y436D01*
X0Y435D02*
X7Y435D01*
X27Y435D02*
X37Y435D01*
X47Y435D02*
X49Y435D01*
X60Y435D02*
X61Y435D01*
X66Y435D02*
X67Y435D01*
X87Y435D02*
X88Y435D01*
X108Y435D02*
X109Y435D01*
X136Y435D02*
X138Y435D01*
X157Y435D02*
X158Y435D01*
X191Y435D02*
X192Y435D01*
X207Y435D02*
X208Y435D01*
X236Y435D02*
X237Y435D01*
X245Y435D02*
X246Y435D01*
X256Y435D02*
X258Y435D01*
X293Y435D02*
X303Y435D01*
X346Y435D02*
X348Y435D01*
X351Y435D02*
X352Y435D01*
X393Y435D02*
X395Y435D01*
X453Y435D02*
X454Y435D01*
X500Y435D02*
X501Y435D01*
X528Y435D02*
X530Y435D01*
X534Y435D02*
X535Y435D01*
X543Y435D02*
X545Y435D01*
X549Y435D02*
X554Y435D01*
X567Y435D02*
X569Y435D01*
X585Y435D02*
X587Y435D01*
X593Y435D02*
X595Y435D01*
X608Y435D02*
X609Y435D01*
X647Y435D02*
X654Y435D01*
X0Y434D02*
X7Y434D01*
X28Y434D02*
X37Y434D01*
X47Y434D02*
X49Y434D01*
X59Y434D02*
X61Y434D01*
X66Y434D02*
X67Y434D01*
X87Y434D02*
X88Y434D01*
X108Y434D02*
X109Y434D01*
X136Y434D02*
X138Y434D01*
X157Y434D02*
X158Y434D01*
X191Y434D02*
X192Y434D01*
X207Y434D02*
X208Y434D01*
X236Y434D02*
X237Y434D01*
X245Y434D02*
X246Y434D01*
X256Y434D02*
X258Y434D01*
X293Y434D02*
X303Y434D01*
X346Y434D02*
X348Y434D01*
X351Y434D02*
X352Y434D01*
X394Y434D02*
X396Y434D01*
X453Y434D02*
X454Y434D01*
X500Y434D02*
X501Y434D01*
X528Y434D02*
X529Y434D01*
X534Y434D02*
X535Y434D01*
X543Y434D02*
X545Y434D01*
X549Y434D02*
X550Y434D01*
X552Y434D02*
X554Y434D01*
X568Y434D02*
X570Y434D01*
X586Y434D02*
X587Y434D01*
X593Y434D02*
X594Y434D01*
X608Y434D02*
X609Y434D01*
X647Y434D02*
X654Y434D01*
X0Y433D02*
X7Y433D01*
X31Y433D02*
X33Y433D01*
X36Y433D02*
X37Y433D01*
X47Y433D02*
X49Y433D01*
X59Y433D02*
X61Y433D01*
X66Y433D02*
X67Y433D01*
X87Y433D02*
X94Y433D01*
X108Y433D02*
X109Y433D01*
X136Y433D02*
X145Y433D01*
X157Y433D02*
X158Y433D01*
X191Y433D02*
X192Y433D01*
X207Y433D02*
X208Y433D01*
X236Y433D02*
X237Y433D01*
X245Y433D02*
X246Y433D01*
X256Y433D02*
X258Y433D01*
X293Y433D02*
X302Y433D01*
X346Y433D02*
X348Y433D01*
X350Y433D02*
X352Y433D01*
X394Y433D02*
X397Y433D01*
X453Y433D02*
X454Y433D01*
X495Y433D02*
X501Y433D01*
X527Y433D02*
X529Y433D01*
X534Y433D02*
X535Y433D01*
X543Y433D02*
X545Y433D01*
X548Y433D02*
X550Y433D01*
X552Y433D02*
X554Y433D01*
X568Y433D02*
X570Y433D01*
X586Y433D02*
X587Y433D01*
X592Y433D02*
X594Y433D01*
X602Y433D02*
X609Y433D01*
X647Y433D02*
X654Y433D01*
X0Y432D02*
X7Y432D01*
X31Y432D02*
X32Y432D01*
X36Y432D02*
X37Y432D01*
X47Y432D02*
X49Y432D01*
X59Y432D02*
X61Y432D01*
X66Y432D02*
X67Y432D01*
X88Y432D02*
X95Y432D01*
X108Y432D02*
X109Y432D01*
X137Y432D02*
X146Y432D01*
X157Y432D02*
X158Y432D01*
X191Y432D02*
X192Y432D01*
X207Y432D02*
X208Y432D01*
X215Y432D02*
X215Y432D01*
X219Y432D02*
X225Y432D01*
X236Y432D02*
X237Y432D01*
X245Y432D02*
X246Y432D01*
X256Y432D02*
X258Y432D01*
X263Y432D02*
X264Y432D01*
X268Y432D02*
X273Y432D01*
X293Y432D02*
X294Y432D01*
X305Y432D02*
X306Y432D01*
X310Y432D02*
X315Y432D01*
X345Y432D02*
X354Y432D01*
X395Y432D02*
X398Y432D01*
X453Y432D02*
X454Y432D01*
X459Y432D02*
X459Y432D01*
X463Y432D02*
X469Y432D01*
X494Y432D02*
X501Y432D01*
X504Y432D02*
X504Y432D01*
X509Y432D02*
X514Y432D01*
X527Y432D02*
X529Y432D01*
X534Y432D02*
X535Y432D01*
X543Y432D02*
X545Y432D01*
X548Y432D02*
X549Y432D01*
X552Y432D02*
X554Y432D01*
X569Y432D02*
X570Y432D01*
X586Y432D02*
X588Y432D01*
X592Y432D02*
X593Y432D01*
X601Y432D02*
X609Y432D01*
X647Y432D02*
X654Y432D01*
X0Y431D02*
X7Y431D01*
X30Y431D02*
X32Y431D01*
X36Y431D02*
X37Y431D01*
X47Y431D02*
X49Y431D01*
X59Y431D02*
X61Y431D01*
X66Y431D02*
X67Y431D01*
X87Y431D02*
X94Y431D01*
X104Y431D02*
X104Y431D01*
X108Y431D02*
X109Y431D01*
X138Y431D02*
X147Y431D01*
X153Y431D02*
X153Y431D01*
X157Y431D02*
X158Y431D01*
X187Y431D02*
X187Y431D01*
X191Y431D02*
X192Y431D01*
X203Y431D02*
X203Y431D01*
X207Y431D02*
X208Y431D01*
X215Y431D02*
X225Y431D01*
X236Y431D02*
X237Y431D01*
X245Y431D02*
X246Y431D01*
X256Y431D02*
X258Y431D01*
X263Y431D02*
X273Y431D01*
X293Y431D02*
X294Y431D01*
X305Y431D02*
X315Y431D01*
X344Y431D02*
X354Y431D01*
X397Y431D02*
X399Y431D01*
X445Y431D02*
X454Y431D01*
X459Y431D02*
X469Y431D01*
X493Y431D02*
X501Y431D01*
X504Y431D02*
X514Y431D01*
X527Y431D02*
X529Y431D01*
X534Y431D02*
X535Y431D01*
X543Y431D02*
X545Y431D01*
X547Y431D02*
X549Y431D01*
X552Y431D02*
X554Y431D01*
X560Y431D02*
X564Y431D01*
X569Y431D02*
X570Y431D01*
X587Y431D02*
X588Y431D01*
X592Y431D02*
X593Y431D01*
X601Y431D02*
X602Y431D01*
X647Y431D02*
X654Y431D01*
X0Y430D02*
X7Y430D01*
X30Y430D02*
X31Y430D01*
X36Y430D02*
X37Y430D01*
X47Y430D02*
X49Y430D01*
X60Y430D02*
X61Y430D01*
X66Y430D02*
X67Y430D01*
X87Y430D02*
X88Y430D01*
X103Y430D02*
X104Y430D01*
X108Y430D02*
X109Y430D01*
X145Y430D02*
X147Y430D01*
X153Y430D02*
X154Y430D01*
X157Y430D02*
X158Y430D01*
X186Y430D02*
X187Y430D01*
X191Y430D02*
X192Y430D01*
X202Y430D02*
X204Y430D01*
X207Y430D02*
X208Y430D01*
X216Y430D02*
X219Y430D01*
X225Y430D02*
X225Y430D01*
X236Y430D02*
X237Y430D01*
X245Y430D02*
X246Y430D01*
X252Y430D02*
X253Y430D01*
X256Y430D02*
X258Y430D01*
X264Y430D02*
X267Y430D01*
X293Y430D02*
X294Y430D01*
X306Y430D02*
X310Y430D01*
X344Y430D02*
X345Y430D01*
X353Y430D02*
X354Y430D01*
X398Y430D02*
X399Y430D01*
X444Y430D02*
X454Y430D01*
X460Y430D02*
X463Y430D01*
X469Y430D02*
X469Y430D01*
X493Y430D02*
X495Y430D01*
X505Y430D02*
X508Y430D01*
X528Y430D02*
X529Y430D01*
X534Y430D02*
X535Y430D01*
X543Y430D02*
X545Y430D01*
X547Y430D02*
X548Y430D01*
X552Y430D02*
X554Y430D01*
X560Y430D02*
X564Y430D01*
X569Y430D02*
X570Y430D01*
X587Y430D02*
X589Y430D01*
X591Y430D02*
X593Y430D01*
X601Y430D02*
X602Y430D01*
X647Y430D02*
X654Y430D01*
X0Y429D02*
X7Y429D01*
X29Y429D02*
X31Y429D01*
X36Y429D02*
X37Y429D01*
X47Y429D02*
X49Y429D01*
X60Y429D02*
X62Y429D01*
X66Y429D02*
X67Y429D01*
X87Y429D02*
X88Y429D01*
X103Y429D02*
X105Y429D01*
X108Y429D02*
X109Y429D01*
X145Y429D02*
X147Y429D01*
X153Y429D02*
X154Y429D01*
X157Y429D02*
X158Y429D01*
X186Y429D02*
X187Y429D01*
X191Y429D02*
X192Y429D01*
X202Y429D02*
X204Y429D01*
X207Y429D02*
X208Y429D01*
X236Y429D02*
X237Y429D01*
X245Y429D02*
X246Y429D01*
X252Y429D02*
X253Y429D01*
X256Y429D02*
X258Y429D01*
X293Y429D02*
X294Y429D01*
X344Y429D02*
X345Y429D01*
X353Y429D02*
X354Y429D01*
X398Y429D02*
X399Y429D01*
X444Y429D02*
X446Y429D01*
X453Y429D02*
X454Y429D01*
X493Y429D02*
X495Y429D01*
X528Y429D02*
X530Y429D01*
X534Y429D02*
X535Y429D01*
X543Y429D02*
X548Y429D01*
X552Y429D02*
X554Y429D01*
X560Y429D02*
X563Y429D01*
X569Y429D02*
X570Y429D01*
X588Y429D02*
X589Y429D01*
X591Y429D02*
X592Y429D01*
X601Y429D02*
X602Y429D01*
X647Y429D02*
X654Y429D01*
X0Y428D02*
X7Y428D01*
X28Y428D02*
X30Y428D01*
X36Y428D02*
X37Y428D01*
X47Y428D02*
X49Y428D01*
X61Y428D02*
X62Y428D01*
X66Y428D02*
X67Y428D01*
X87Y428D02*
X88Y428D01*
X103Y428D02*
X105Y428D01*
X108Y428D02*
X109Y428D01*
X145Y428D02*
X147Y428D01*
X153Y428D02*
X154Y428D01*
X157Y428D02*
X158Y428D01*
X186Y428D02*
X187Y428D01*
X191Y428D02*
X192Y428D01*
X202Y428D02*
X204Y428D01*
X207Y428D02*
X208Y428D01*
X236Y428D02*
X237Y428D01*
X245Y428D02*
X246Y428D01*
X252Y428D02*
X253Y428D01*
X256Y428D02*
X258Y428D01*
X293Y428D02*
X294Y428D01*
X344Y428D02*
X345Y428D01*
X353Y428D02*
X354Y428D01*
X398Y428D02*
X399Y428D01*
X444Y428D02*
X445Y428D01*
X453Y428D02*
X454Y428D01*
X493Y428D02*
X495Y428D01*
X529Y428D02*
X530Y428D01*
X534Y428D02*
X535Y428D01*
X543Y428D02*
X548Y428D01*
X552Y428D02*
X554Y428D01*
X560Y428D02*
X561Y428D01*
X569Y428D02*
X570Y428D01*
X588Y428D02*
X592Y428D01*
X601Y428D02*
X602Y428D01*
X647Y428D02*
X654Y428D01*
X0Y427D02*
X7Y427D01*
X28Y427D02*
X30Y427D01*
X36Y427D02*
X37Y427D01*
X47Y427D02*
X49Y427D01*
X61Y427D02*
X63Y427D01*
X66Y427D02*
X67Y427D01*
X87Y427D02*
X88Y427D01*
X103Y427D02*
X105Y427D01*
X108Y427D02*
X109Y427D01*
X145Y427D02*
X147Y427D01*
X153Y427D02*
X154Y427D01*
X157Y427D02*
X158Y427D01*
X186Y427D02*
X187Y427D01*
X191Y427D02*
X192Y427D01*
X202Y427D02*
X204Y427D01*
X207Y427D02*
X208Y427D01*
X236Y427D02*
X237Y427D01*
X245Y427D02*
X246Y427D01*
X252Y427D02*
X253Y427D01*
X256Y427D02*
X258Y427D01*
X293Y427D02*
X294Y427D01*
X344Y427D02*
X345Y427D01*
X353Y427D02*
X354Y427D01*
X398Y427D02*
X399Y427D01*
X444Y427D02*
X445Y427D01*
X453Y427D02*
X454Y427D01*
X493Y427D02*
X495Y427D01*
X529Y427D02*
X531Y427D01*
X534Y427D02*
X535Y427D01*
X543Y427D02*
X547Y427D01*
X552Y427D02*
X554Y427D01*
X560Y427D02*
X561Y427D01*
X569Y427D02*
X570Y427D01*
X588Y427D02*
X592Y427D01*
X601Y427D02*
X602Y427D01*
X647Y427D02*
X654Y427D01*
X0Y426D02*
X7Y426D01*
X27Y426D02*
X29Y426D01*
X36Y426D02*
X37Y426D01*
X47Y426D02*
X49Y426D01*
X62Y426D02*
X68Y426D01*
X87Y426D02*
X88Y426D01*
X103Y426D02*
X105Y426D01*
X108Y426D02*
X109Y426D01*
X145Y426D02*
X147Y426D01*
X153Y426D02*
X154Y426D01*
X157Y426D02*
X158Y426D01*
X186Y426D02*
X188Y426D01*
X191Y426D02*
X192Y426D01*
X202Y426D02*
X204Y426D01*
X207Y426D02*
X208Y426D01*
X236Y426D02*
X237Y426D01*
X245Y426D02*
X246Y426D01*
X252Y426D02*
X253Y426D01*
X256Y426D02*
X258Y426D01*
X293Y426D02*
X294Y426D01*
X344Y426D02*
X345Y426D01*
X353Y426D02*
X354Y426D01*
X398Y426D02*
X399Y426D01*
X444Y426D02*
X446Y426D01*
X453Y426D02*
X454Y426D01*
X493Y426D02*
X495Y426D01*
X502Y426D02*
X503Y426D01*
X530Y426D02*
X531Y426D01*
X534Y426D02*
X535Y426D01*
X543Y426D02*
X547Y426D01*
X552Y426D02*
X554Y426D01*
X560Y426D02*
X561Y426D01*
X568Y426D02*
X570Y426D01*
X589Y426D02*
X591Y426D01*
X601Y426D02*
X603Y426D01*
X608Y426D02*
X611Y426D01*
X647Y426D02*
X654Y426D01*
X0Y425D02*
X7Y425D01*
X27Y425D02*
X28Y425D01*
X36Y425D02*
X37Y425D01*
X48Y425D02*
X49Y425D01*
X62Y425D02*
X69Y425D01*
X87Y425D02*
X97Y425D01*
X103Y425D02*
X113Y425D01*
X137Y425D02*
X147Y425D01*
X153Y425D02*
X162Y425D01*
X186Y425D02*
X196Y425D01*
X202Y425D02*
X212Y425D01*
X236Y425D02*
X246Y425D01*
X252Y425D02*
X261Y425D01*
X293Y425D02*
X295Y425D01*
X344Y425D02*
X354Y425D01*
X398Y425D02*
X399Y425D01*
X444Y425D02*
X454Y425D01*
X493Y425D02*
X503Y425D01*
X530Y425D02*
X537Y425D01*
X543Y425D02*
X546Y425D01*
X552Y425D02*
X554Y425D01*
X560Y425D02*
X569Y425D01*
X589Y425D02*
X591Y425D01*
X601Y425D02*
X611Y425D01*
X647Y425D02*
X654Y425D01*
X0Y424D02*
X7Y424D01*
X36Y424D02*
X36Y424D01*
X48Y424D02*
X48Y424D01*
X64Y424D02*
X69Y424D01*
X88Y424D02*
X97Y424D01*
X103Y424D02*
X113Y424D01*
X137Y424D02*
X147Y424D01*
X153Y424D02*
X163Y424D01*
X186Y424D02*
X196Y424D01*
X203Y424D02*
X212Y424D01*
X236Y424D02*
X245Y424D01*
X252Y424D02*
X262Y424D01*
X293Y424D02*
X295Y424D01*
X344Y424D02*
X354Y424D01*
X398Y424D02*
X399Y424D01*
X444Y424D02*
X454Y424D01*
X494Y424D02*
X502Y424D01*
X531Y424D02*
X537Y424D01*
X543Y424D02*
X546Y424D01*
X553Y424D02*
X553Y424D01*
X561Y424D02*
X568Y424D01*
X590Y424D02*
X590Y424D01*
X602Y424D02*
X609Y424D01*
X647Y424D02*
X654Y424D01*
X0Y423D02*
X7Y423D01*
X238Y423D02*
X244Y423D01*
X253Y423D02*
X261Y423D01*
X346Y423D02*
X352Y423D01*
X647Y423D02*
X654Y423D01*
X0Y422D02*
X7Y422D01*
X647Y422D02*
X654Y422D01*
X0Y421D02*
X7Y421D01*
X647Y421D02*
X654Y421D01*
X0Y420D02*
X7Y420D01*
X647Y420D02*
X654Y420D01*
X0Y419D02*
X7Y419D01*
X647Y419D02*
X654Y419D01*
X0Y418D02*
X7Y418D01*
X647Y418D02*
X654Y418D01*
X0Y417D02*
X7Y417D01*
X647Y417D02*
X654Y417D01*
X0Y416D02*
X7Y416D01*
X647Y416D02*
X654Y416D01*
X0Y415D02*
X7Y415D01*
X647Y415D02*
X654Y415D01*
X0Y414D02*
X7Y414D01*
X647Y414D02*
X654Y414D01*
X0Y413D02*
X7Y413D01*
X647Y413D02*
X654Y413D01*
X0Y412D02*
X7Y412D01*
X647Y412D02*
X654Y412D01*
X0Y411D02*
X7Y411D01*
X647Y411D02*
X654Y411D01*
X0Y410D02*
X7Y410D01*
X647Y410D02*
X654Y410D01*
X0Y409D02*
X7Y409D01*
X647Y409D02*
X654Y409D01*
X0Y408D02*
X7Y408D01*
X647Y408D02*
X654Y408D01*
X0Y407D02*
X7Y407D01*
X647Y407D02*
X654Y407D01*
X0Y406D02*
X7Y406D01*
X647Y406D02*
X654Y406D01*
X0Y405D02*
X7Y405D01*
X647Y405D02*
X654Y405D01*
X0Y404D02*
X7Y404D01*
X647Y404D02*
X654Y404D01*
X0Y403D02*
X7Y403D01*
X647Y403D02*
X654Y403D01*
X0Y402D02*
X7Y402D01*
X647Y402D02*
X654Y402D01*
X0Y401D02*
X7Y401D01*
X647Y401D02*
X654Y401D01*
X0Y400D02*
X7Y400D01*
X647Y400D02*
X654Y400D01*
X0Y399D02*
X7Y399D01*
X647Y399D02*
X654Y399D01*
X0Y398D02*
X7Y398D01*
X647Y398D02*
X654Y398D01*
X0Y397D02*
X7Y397D01*
X647Y397D02*
X654Y397D01*
X0Y396D02*
X7Y396D01*
X647Y396D02*
X654Y396D01*
X0Y395D02*
X7Y395D01*
X647Y395D02*
X654Y395D01*
X0Y394D02*
X7Y394D01*
X647Y394D02*
X654Y394D01*
X0Y393D02*
X7Y393D01*
X647Y393D02*
X654Y393D01*
X0Y392D02*
X7Y392D01*
X647Y392D02*
X654Y392D01*
X0Y391D02*
X7Y391D01*
X647Y391D02*
X654Y391D01*
X0Y390D02*
X7Y390D01*
X647Y390D02*
X654Y390D01*
X0Y389D02*
X7Y389D01*
X647Y389D02*
X654Y389D01*
X0Y388D02*
X7Y388D01*
X647Y388D02*
X654Y388D01*
X0Y387D02*
X7Y387D01*
X647Y387D02*
X654Y387D01*
X0Y386D02*
X7Y386D01*
X647Y386D02*
X654Y386D01*
X0Y385D02*
X7Y385D01*
X647Y385D02*
X654Y385D01*
X0Y384D02*
X7Y384D01*
X647Y384D02*
X654Y384D01*
X0Y383D02*
X7Y383D01*
X647Y383D02*
X654Y383D01*
X0Y382D02*
X7Y382D01*
X647Y382D02*
X654Y382D01*
X0Y381D02*
X7Y381D01*
X647Y381D02*
X654Y381D01*
X0Y380D02*
X7Y380D01*
X647Y380D02*
X654Y380D01*
X0Y379D02*
X7Y379D01*
X647Y379D02*
X654Y379D01*
X0Y378D02*
X7Y378D01*
X647Y378D02*
X654Y378D01*
X0Y377D02*
X7Y377D01*
X647Y377D02*
X654Y377D01*
X0Y376D02*
X7Y376D01*
X647Y376D02*
X654Y376D01*
X0Y375D02*
X7Y375D01*
X647Y375D02*
X654Y375D01*
X0Y374D02*
X7Y374D01*
X647Y374D02*
X654Y374D01*
X0Y373D02*
X7Y373D01*
X647Y373D02*
X654Y373D01*
X0Y372D02*
X7Y372D01*
X647Y372D02*
X654Y372D01*
X0Y371D02*
X7Y371D01*
X647Y371D02*
X654Y371D01*
X0Y370D02*
X7Y370D01*
X647Y370D02*
X654Y370D01*
X0Y369D02*
X7Y369D01*
X647Y369D02*
X654Y369D01*
X0Y368D02*
X7Y368D01*
X647Y368D02*
X654Y368D01*
X0Y367D02*
X7Y367D01*
X647Y367D02*
X654Y367D01*
X0Y366D02*
X7Y366D01*
X419Y366D02*
X549Y366D01*
X647Y366D02*
X654Y366D01*
X0Y365D02*
X7Y365D01*
X416Y365D02*
X551Y365D01*
X647Y365D02*
X654Y365D01*
X0Y364D02*
X7Y364D01*
X215Y364D02*
X218Y364D01*
X344Y364D02*
X348Y364D01*
X414Y364D02*
X551Y364D01*
X647Y364D02*
X654Y364D01*
X0Y363D02*
X7Y363D01*
X82Y363D02*
X89Y363D01*
X106Y363D02*
X119Y363D01*
X132Y363D02*
X145Y363D01*
X214Y363D02*
X219Y363D01*
X239Y363D02*
X250Y363D01*
X344Y363D02*
X348Y363D01*
X363Y363D02*
X366Y363D01*
X376Y363D02*
X379Y363D01*
X413Y363D02*
X550Y363D01*
X647Y363D02*
X654Y363D01*
X0Y362D02*
X7Y362D01*
X81Y362D02*
X90Y362D01*
X104Y362D02*
X120Y362D01*
X130Y362D02*
X146Y362D01*
X214Y362D02*
X219Y362D01*
X236Y362D02*
X250Y362D01*
X344Y362D02*
X348Y362D01*
X363Y362D02*
X367Y362D01*
X375Y362D02*
X380Y362D01*
X411Y362D02*
X549Y362D01*
X647Y362D02*
X654Y362D01*
X0Y361D02*
X7Y361D01*
X81Y361D02*
X90Y361D01*
X103Y361D02*
X120Y361D01*
X129Y361D02*
X146Y361D01*
X192Y361D02*
X194Y361D01*
X214Y361D02*
X218Y361D01*
X235Y361D02*
X250Y361D01*
X344Y361D02*
X348Y361D01*
X363Y361D02*
X368Y361D01*
X375Y361D02*
X380Y361D01*
X410Y361D02*
X548Y361D01*
X647Y361D02*
X654Y361D01*
X0Y360D02*
X7Y360D01*
X81Y360D02*
X90Y360D01*
X103Y360D02*
X119Y360D01*
X129Y360D02*
X145Y360D01*
X192Y360D02*
X194Y360D01*
X215Y360D02*
X218Y360D01*
X234Y360D02*
X250Y360D01*
X345Y360D02*
X348Y360D01*
X363Y360D02*
X369Y360D01*
X374Y360D02*
X380Y360D01*
X409Y360D02*
X547Y360D01*
X647Y360D02*
X654Y360D01*
X0Y359D02*
X7Y359D01*
X81Y359D02*
X83Y359D01*
X88Y359D02*
X90Y359D01*
X103Y359D02*
X106Y359D01*
X129Y359D02*
X132Y359D01*
X192Y359D02*
X194Y359D01*
X234Y359D02*
X238Y359D01*
X247Y359D02*
X250Y359D01*
X363Y359D02*
X369Y359D01*
X373Y359D02*
X380Y359D01*
X408Y359D02*
X546Y359D01*
X647Y359D02*
X654Y359D01*
X0Y358D02*
X7Y358D01*
X81Y358D02*
X83Y358D01*
X88Y358D02*
X90Y358D01*
X103Y358D02*
X106Y358D01*
X129Y358D02*
X132Y358D01*
X192Y358D02*
X194Y358D01*
X233Y358D02*
X236Y358D01*
X247Y358D02*
X250Y358D01*
X363Y358D02*
X370Y358D01*
X373Y358D02*
X380Y358D01*
X408Y358D02*
X427Y358D01*
X647Y358D02*
X654Y358D01*
X0Y357D02*
X7Y357D01*
X81Y357D02*
X83Y357D01*
X88Y357D02*
X90Y357D01*
X103Y357D02*
X106Y357D01*
X129Y357D02*
X132Y357D01*
X192Y357D02*
X194Y357D01*
X233Y357D02*
X236Y357D01*
X247Y357D02*
X250Y357D01*
X363Y357D02*
X365Y357D01*
X367Y357D02*
X375Y357D01*
X377Y357D02*
X380Y357D01*
X407Y357D02*
X422Y357D01*
X647Y357D02*
X654Y357D01*
X0Y356D02*
X7Y356D01*
X81Y356D02*
X83Y356D01*
X88Y356D02*
X90Y356D01*
X103Y356D02*
X106Y356D01*
X129Y356D02*
X132Y356D01*
X192Y356D02*
X194Y356D01*
X233Y356D02*
X236Y356D01*
X247Y356D02*
X250Y356D01*
X363Y356D02*
X365Y356D01*
X368Y356D02*
X375Y356D01*
X377Y356D02*
X380Y356D01*
X406Y356D02*
X420Y356D01*
X647Y356D02*
X654Y356D01*
X0Y355D02*
X7Y355D01*
X81Y355D02*
X83Y355D01*
X88Y355D02*
X90Y355D01*
X103Y355D02*
X106Y355D01*
X129Y355D02*
X132Y355D01*
X183Y355D02*
X197Y355D01*
X215Y355D02*
X221Y355D01*
X233Y355D02*
X236Y355D01*
X247Y355D02*
X250Y355D01*
X263Y355D02*
X271Y355D01*
X288Y355D02*
X294Y355D01*
X300Y355D02*
X301Y355D01*
X311Y355D02*
X321Y355D01*
X345Y355D02*
X351Y355D01*
X363Y355D02*
X365Y355D01*
X369Y355D02*
X374Y355D01*
X377Y355D02*
X380Y355D01*
X406Y355D02*
X419Y355D01*
X647Y355D02*
X654Y355D01*
X0Y354D02*
X7Y354D01*
X81Y354D02*
X83Y354D01*
X88Y354D02*
X90Y354D01*
X103Y354D02*
X106Y354D01*
X129Y354D02*
X132Y354D01*
X183Y354D02*
X198Y354D01*
X214Y354D02*
X222Y354D01*
X233Y354D02*
X236Y354D01*
X247Y354D02*
X250Y354D01*
X262Y354D02*
X273Y354D01*
X287Y354D02*
X295Y354D01*
X299Y354D02*
X302Y354D01*
X311Y354D02*
X323Y354D01*
X344Y354D02*
X352Y354D01*
X363Y354D02*
X365Y354D01*
X369Y354D02*
X373Y354D01*
X377Y354D02*
X380Y354D01*
X405Y354D02*
X418Y354D01*
X561Y354D02*
X562Y354D01*
X647Y354D02*
X654Y354D01*
X0Y353D02*
X7Y353D01*
X81Y353D02*
X83Y353D01*
X88Y353D02*
X90Y353D01*
X103Y353D02*
X106Y353D01*
X129Y353D02*
X132Y353D01*
X183Y353D02*
X198Y353D01*
X214Y353D02*
X222Y353D01*
X233Y353D02*
X236Y353D01*
X247Y353D02*
X250Y353D01*
X261Y353D02*
X274Y353D01*
X286Y353D02*
X296Y353D01*
X299Y353D02*
X302Y353D01*
X311Y353D02*
X324Y353D01*
X344Y353D02*
X352Y353D01*
X363Y353D02*
X365Y353D01*
X370Y353D02*
X373Y353D01*
X377Y353D02*
X380Y353D01*
X405Y353D02*
X416Y353D01*
X560Y353D02*
X562Y353D01*
X647Y353D02*
X654Y353D01*
X0Y352D02*
X7Y352D01*
X81Y352D02*
X83Y352D01*
X88Y352D02*
X90Y352D01*
X103Y352D02*
X106Y352D01*
X129Y352D02*
X132Y352D01*
X184Y352D02*
X197Y352D01*
X214Y352D02*
X221Y352D01*
X233Y352D02*
X237Y352D01*
X247Y352D02*
X250Y352D01*
X260Y352D02*
X275Y352D01*
X285Y352D02*
X302Y352D01*
X312Y352D02*
X325Y352D01*
X344Y352D02*
X351Y352D01*
X363Y352D02*
X365Y352D01*
X370Y352D02*
X373Y352D01*
X377Y352D02*
X380Y352D01*
X405Y352D02*
X416Y352D01*
X559Y352D02*
X563Y352D01*
X647Y352D02*
X654Y352D01*
X0Y351D02*
X7Y351D01*
X80Y351D02*
X84Y351D01*
X87Y351D02*
X91Y351D01*
X103Y351D02*
X106Y351D01*
X129Y351D02*
X133Y351D01*
X192Y351D02*
X194Y351D01*
X214Y351D02*
X217Y351D01*
X234Y351D02*
X239Y351D01*
X247Y351D02*
X250Y351D01*
X259Y351D02*
X263Y351D01*
X272Y351D02*
X275Y351D01*
X285Y351D02*
X288Y351D01*
X294Y351D02*
X302Y351D01*
X322Y351D02*
X326Y351D01*
X344Y351D02*
X347Y351D01*
X363Y351D02*
X365Y351D01*
X370Y351D02*
X372Y351D01*
X377Y351D02*
X380Y351D01*
X404Y351D02*
X415Y351D01*
X558Y351D02*
X563Y351D01*
X647Y351D02*
X654Y351D01*
X0Y350D02*
X7Y350D01*
X78Y350D02*
X93Y350D01*
X103Y350D02*
X119Y350D01*
X130Y350D02*
X142Y350D01*
X192Y350D02*
X194Y350D01*
X214Y350D02*
X217Y350D01*
X235Y350D02*
X250Y350D01*
X259Y350D02*
X262Y350D01*
X273Y350D02*
X276Y350D01*
X285Y350D02*
X288Y350D01*
X295Y350D02*
X302Y350D01*
X323Y350D02*
X327Y350D01*
X344Y350D02*
X347Y350D01*
X363Y350D02*
X365Y350D01*
X377Y350D02*
X380Y350D01*
X404Y350D02*
X414Y350D01*
X557Y350D02*
X563Y350D01*
X647Y350D02*
X654Y350D01*
X0Y349D02*
X7Y349D01*
X78Y349D02*
X94Y349D01*
X104Y349D02*
X120Y349D01*
X130Y349D02*
X142Y349D01*
X192Y349D02*
X194Y349D01*
X214Y349D02*
X217Y349D01*
X235Y349D02*
X250Y349D01*
X259Y349D02*
X262Y349D01*
X273Y349D02*
X276Y349D01*
X285Y349D02*
X287Y349D01*
X297Y349D02*
X302Y349D01*
X324Y349D02*
X328Y349D01*
X344Y349D02*
X347Y349D01*
X363Y349D02*
X365Y349D01*
X377Y349D02*
X380Y349D01*
X404Y349D02*
X413Y349D01*
X556Y349D02*
X563Y349D01*
X647Y349D02*
X654Y349D01*
X0Y348D02*
X7Y348D01*
X77Y348D02*
X94Y348D01*
X105Y348D02*
X120Y348D01*
X130Y348D02*
X142Y348D01*
X192Y348D02*
X194Y348D01*
X214Y348D02*
X217Y348D01*
X234Y348D02*
X250Y348D01*
X259Y348D02*
X262Y348D01*
X273Y348D02*
X276Y348D01*
X285Y348D02*
X287Y348D01*
X298Y348D02*
X302Y348D01*
X325Y348D02*
X328Y348D01*
X344Y348D02*
X347Y348D01*
X363Y348D02*
X365Y348D01*
X377Y348D02*
X380Y348D01*
X404Y348D02*
X413Y348D01*
X555Y348D02*
X563Y348D01*
X647Y348D02*
X654Y348D01*
X0Y347D02*
X7Y347D01*
X77Y347D02*
X80Y347D01*
X91Y347D02*
X94Y347D01*
X117Y347D02*
X120Y347D01*
X129Y347D02*
X133Y347D01*
X192Y347D02*
X194Y347D01*
X214Y347D02*
X217Y347D01*
X234Y347D02*
X238Y347D01*
X247Y347D02*
X250Y347D01*
X259Y347D02*
X262Y347D01*
X273Y347D02*
X276Y347D01*
X299Y347D02*
X302Y347D01*
X325Y347D02*
X328Y347D01*
X344Y347D02*
X347Y347D01*
X363Y347D02*
X365Y347D01*
X377Y347D02*
X380Y347D01*
X404Y347D02*
X412Y347D01*
X554Y347D02*
X563Y347D01*
X647Y347D02*
X654Y347D01*
X0Y346D02*
X7Y346D01*
X77Y346D02*
X80Y346D01*
X91Y346D02*
X94Y346D01*
X117Y346D02*
X120Y346D01*
X129Y346D02*
X132Y346D01*
X192Y346D02*
X194Y346D01*
X214Y346D02*
X217Y346D01*
X233Y346D02*
X237Y346D01*
X247Y346D02*
X250Y346D01*
X259Y346D02*
X262Y346D01*
X273Y346D02*
X276Y346D01*
X299Y346D02*
X302Y346D01*
X325Y346D02*
X328Y346D01*
X344Y346D02*
X347Y346D01*
X363Y346D02*
X365Y346D01*
X377Y346D02*
X380Y346D01*
X404Y346D02*
X412Y346D01*
X553Y346D02*
X563Y346D01*
X647Y346D02*
X654Y346D01*
X0Y345D02*
X7Y345D01*
X77Y345D02*
X80Y345D01*
X91Y345D02*
X94Y345D01*
X117Y345D02*
X120Y345D01*
X129Y345D02*
X132Y345D01*
X192Y345D02*
X194Y345D01*
X214Y345D02*
X217Y345D01*
X233Y345D02*
X236Y345D01*
X247Y345D02*
X250Y345D01*
X259Y345D02*
X262Y345D01*
X273Y345D02*
X276Y345D01*
X299Y345D02*
X302Y345D01*
X325Y345D02*
X328Y345D01*
X344Y345D02*
X347Y345D01*
X363Y345D02*
X365Y345D01*
X377Y345D02*
X380Y345D01*
X404Y345D02*
X412Y345D01*
X552Y345D02*
X563Y345D01*
X647Y345D02*
X654Y345D01*
X0Y344D02*
X7Y344D01*
X77Y344D02*
X80Y344D01*
X91Y344D02*
X94Y344D01*
X117Y344D02*
X120Y344D01*
X129Y344D02*
X132Y344D01*
X192Y344D02*
X194Y344D01*
X214Y344D02*
X217Y344D01*
X233Y344D02*
X236Y344D01*
X247Y344D02*
X250Y344D01*
X259Y344D02*
X262Y344D01*
X273Y344D02*
X276Y344D01*
X299Y344D02*
X302Y344D01*
X325Y344D02*
X328Y344D01*
X344Y344D02*
X347Y344D01*
X363Y344D02*
X365Y344D01*
X377Y344D02*
X380Y344D01*
X404Y344D02*
X411Y344D01*
X551Y344D02*
X563Y344D01*
X647Y344D02*
X654Y344D01*
X0Y343D02*
X7Y343D01*
X77Y343D02*
X80Y343D01*
X91Y343D02*
X94Y343D01*
X117Y343D02*
X120Y343D01*
X129Y343D02*
X132Y343D01*
X192Y343D02*
X194Y343D01*
X214Y343D02*
X217Y343D01*
X233Y343D02*
X236Y343D01*
X247Y343D02*
X250Y343D01*
X259Y343D02*
X262Y343D01*
X273Y343D02*
X276Y343D01*
X299Y343D02*
X302Y343D01*
X325Y343D02*
X328Y343D01*
X344Y343D02*
X347Y343D01*
X363Y343D02*
X365Y343D01*
X377Y343D02*
X380Y343D01*
X404Y343D02*
X411Y343D01*
X550Y343D02*
X563Y343D01*
X647Y343D02*
X654Y343D01*
X0Y342D02*
X7Y342D01*
X77Y342D02*
X80Y342D01*
X91Y342D02*
X94Y342D01*
X117Y342D02*
X120Y342D01*
X129Y342D02*
X132Y342D01*
X192Y342D02*
X194Y342D01*
X214Y342D02*
X217Y342D01*
X233Y342D02*
X236Y342D01*
X247Y342D02*
X250Y342D01*
X259Y342D02*
X262Y342D01*
X273Y342D02*
X276Y342D01*
X299Y342D02*
X302Y342D01*
X325Y342D02*
X328Y342D01*
X344Y342D02*
X347Y342D01*
X363Y342D02*
X365Y342D01*
X377Y342D02*
X380Y342D01*
X404Y342D02*
X411Y342D01*
X549Y342D02*
X563Y342D01*
X647Y342D02*
X654Y342D01*
X0Y341D02*
X7Y341D01*
X77Y341D02*
X80Y341D01*
X91Y341D02*
X94Y341D01*
X117Y341D02*
X120Y341D01*
X129Y341D02*
X132Y341D01*
X181Y341D02*
X183Y341D01*
X192Y341D02*
X194Y341D01*
X214Y341D02*
X217Y341D01*
X233Y341D02*
X236Y341D01*
X247Y341D02*
X250Y341D01*
X259Y341D02*
X262Y341D01*
X273Y341D02*
X276Y341D01*
X299Y341D02*
X302Y341D01*
X324Y341D02*
X327Y341D01*
X344Y341D02*
X347Y341D01*
X363Y341D02*
X365Y341D01*
X377Y341D02*
X380Y341D01*
X404Y341D02*
X411Y341D01*
X548Y341D02*
X563Y341D01*
X647Y341D02*
X654Y341D01*
X0Y340D02*
X7Y340D01*
X77Y340D02*
X80Y340D01*
X91Y340D02*
X94Y340D01*
X117Y340D02*
X120Y340D01*
X129Y340D02*
X132Y340D01*
X181Y340D02*
X184Y340D01*
X192Y340D02*
X194Y340D01*
X214Y340D02*
X217Y340D01*
X233Y340D02*
X237Y340D01*
X247Y340D02*
X250Y340D01*
X259Y340D02*
X262Y340D01*
X272Y340D02*
X276Y340D01*
X299Y340D02*
X302Y340D01*
X322Y340D02*
X327Y340D01*
X344Y340D02*
X347Y340D01*
X363Y340D02*
X365Y340D01*
X377Y340D02*
X380Y340D01*
X404Y340D02*
X411Y340D01*
X426Y340D02*
X433Y340D01*
X547Y340D02*
X563Y340D01*
X647Y340D02*
X654Y340D01*
X0Y339D02*
X7Y339D01*
X77Y339D02*
X80Y339D01*
X91Y339D02*
X94Y339D01*
X117Y339D02*
X120Y339D01*
X129Y339D02*
X132Y339D01*
X181Y339D02*
X184Y339D01*
X191Y339D02*
X194Y339D01*
X214Y339D02*
X217Y339D01*
X234Y339D02*
X238Y339D01*
X247Y339D02*
X250Y339D01*
X260Y339D02*
X264Y339D01*
X271Y339D02*
X275Y339D01*
X299Y339D02*
X302Y339D01*
X321Y339D02*
X326Y339D01*
X344Y339D02*
X347Y339D01*
X363Y339D02*
X365Y339D01*
X377Y339D02*
X380Y339D01*
X404Y339D02*
X411Y339D01*
X433Y339D02*
X434Y339D01*
X546Y339D02*
X563Y339D01*
X647Y339D02*
X654Y339D01*
X0Y338D02*
X7Y338D01*
X77Y338D02*
X94Y338D01*
X104Y338D02*
X120Y338D01*
X129Y338D02*
X145Y338D01*
X182Y338D02*
X194Y338D01*
X209Y338D02*
X222Y338D01*
X234Y338D02*
X250Y338D01*
X260Y338D02*
X274Y338D01*
X299Y338D02*
X302Y338D01*
X311Y338D02*
X325Y338D01*
X339Y338D02*
X351Y338D01*
X363Y338D02*
X365Y338D01*
X377Y338D02*
X380Y338D01*
X404Y338D02*
X411Y338D01*
X434Y338D02*
X435Y338D01*
X545Y338D02*
X563Y338D01*
X647Y338D02*
X654Y338D01*
X0Y337D02*
X7Y337D01*
X78Y337D02*
X94Y337D01*
X103Y337D02*
X120Y337D01*
X130Y337D02*
X146Y337D01*
X182Y337D02*
X193Y337D01*
X209Y337D02*
X222Y337D01*
X235Y337D02*
X250Y337D01*
X261Y337D02*
X273Y337D01*
X299Y337D02*
X302Y337D01*
X311Y337D02*
X324Y337D01*
X339Y337D02*
X352Y337D01*
X363Y337D02*
X365Y337D01*
X377Y337D02*
X380Y337D01*
X404Y337D02*
X411Y337D01*
X435Y337D02*
X436Y337D01*
X544Y337D02*
X563Y337D01*
X647Y337D02*
X654Y337D01*
X0Y336D02*
X7Y336D01*
X78Y336D02*
X93Y336D01*
X103Y336D02*
X120Y336D01*
X130Y336D02*
X146Y336D01*
X183Y336D02*
X192Y336D01*
X209Y336D02*
X222Y336D01*
X237Y336D02*
X250Y336D01*
X263Y336D02*
X272Y336D01*
X299Y336D02*
X302Y336D01*
X311Y336D02*
X322Y336D01*
X339Y336D02*
X352Y336D01*
X363Y336D02*
X365Y336D01*
X377Y336D02*
X379Y336D01*
X404Y336D02*
X411Y336D01*
X436Y336D02*
X437Y336D01*
X543Y336D02*
X553Y336D01*
X647Y336D02*
X654Y336D01*
X0Y335D02*
X7Y335D01*
X404Y335D02*
X411Y335D01*
X437Y335D02*
X438Y335D01*
X542Y335D02*
X552Y335D01*
X647Y335D02*
X654Y335D01*
X0Y334D02*
X7Y334D01*
X404Y334D02*
X411Y334D01*
X438Y334D02*
X439Y334D01*
X541Y334D02*
X551Y334D01*
X647Y334D02*
X654Y334D01*
X0Y333D02*
X7Y333D01*
X404Y333D02*
X411Y333D01*
X439Y333D02*
X440Y333D01*
X540Y333D02*
X550Y333D01*
X647Y333D02*
X654Y333D01*
X0Y332D02*
X7Y332D01*
X404Y332D02*
X411Y332D01*
X440Y332D02*
X441Y332D01*
X539Y332D02*
X549Y332D01*
X647Y332D02*
X654Y332D01*
X0Y331D02*
X7Y331D01*
X404Y331D02*
X411Y331D01*
X441Y331D02*
X442Y331D01*
X538Y331D02*
X548Y331D01*
X647Y331D02*
X654Y331D01*
X0Y330D02*
X7Y330D01*
X404Y330D02*
X411Y330D01*
X442Y330D02*
X443Y330D01*
X537Y330D02*
X547Y330D01*
X647Y330D02*
X654Y330D01*
X0Y329D02*
X7Y329D01*
X404Y329D02*
X411Y329D01*
X443Y329D02*
X444Y329D01*
X536Y329D02*
X547Y329D01*
X647Y329D02*
X654Y329D01*
X0Y328D02*
X7Y328D01*
X404Y328D02*
X411Y328D01*
X444Y328D02*
X445Y328D01*
X535Y328D02*
X545Y328D01*
X647Y328D02*
X654Y328D01*
X0Y327D02*
X7Y327D01*
X404Y327D02*
X411Y327D01*
X445Y327D02*
X446Y327D01*
X534Y327D02*
X544Y327D01*
X647Y327D02*
X654Y327D01*
X0Y326D02*
X7Y326D01*
X404Y326D02*
X411Y326D01*
X446Y326D02*
X447Y326D01*
X533Y326D02*
X544Y326D01*
X647Y326D02*
X654Y326D01*
X0Y325D02*
X7Y325D01*
X404Y325D02*
X411Y325D01*
X447Y325D02*
X448Y325D01*
X532Y325D02*
X542Y325D01*
X647Y325D02*
X654Y325D01*
X0Y324D02*
X7Y324D01*
X404Y324D02*
X411Y324D01*
X448Y324D02*
X449Y324D01*
X531Y324D02*
X541Y324D01*
X647Y324D02*
X654Y324D01*
X0Y323D02*
X7Y323D01*
X404Y323D02*
X410Y323D01*
X449Y323D02*
X450Y323D01*
X530Y323D02*
X541Y323D01*
X647Y323D02*
X654Y323D01*
X0Y322D02*
X7Y322D01*
X404Y322D02*
X410Y322D01*
X450Y322D02*
X451Y322D01*
X529Y322D02*
X539Y322D01*
X647Y322D02*
X654Y322D01*
X0Y321D02*
X7Y321D01*
X141Y321D02*
X143Y321D01*
X176Y321D02*
X188Y321D01*
X404Y321D02*
X409Y321D01*
X451Y321D02*
X452Y321D01*
X528Y321D02*
X538Y321D01*
X647Y321D02*
X654Y321D01*
X0Y320D02*
X7Y320D01*
X141Y320D02*
X143Y320D01*
X175Y320D02*
X189Y320D01*
X404Y320D02*
X408Y320D01*
X452Y320D02*
X453Y320D01*
X527Y320D02*
X538Y320D01*
X647Y320D02*
X654Y320D01*
X0Y319D02*
X7Y319D01*
X133Y319D02*
X133Y319D01*
X141Y319D02*
X143Y319D01*
X175Y319D02*
X189Y319D01*
X404Y319D02*
X408Y319D01*
X453Y319D02*
X454Y319D01*
X526Y319D02*
X536Y319D01*
X647Y319D02*
X654Y319D01*
X0Y318D02*
X7Y318D01*
X132Y318D02*
X134Y318D01*
X141Y318D02*
X143Y318D01*
X175Y318D02*
X177Y318D01*
X187Y318D02*
X189Y318D01*
X404Y318D02*
X407Y318D01*
X454Y318D02*
X455Y318D01*
X525Y318D02*
X535Y318D01*
X647Y318D02*
X654Y318D01*
X0Y317D02*
X7Y317D01*
X132Y317D02*
X134Y317D01*
X141Y317D02*
X143Y317D01*
X175Y317D02*
X177Y317D01*
X187Y317D02*
X189Y317D01*
X404Y317D02*
X407Y317D01*
X455Y317D02*
X456Y317D01*
X524Y317D02*
X534Y317D01*
X647Y317D02*
X654Y317D01*
X0Y316D02*
X7Y316D01*
X132Y316D02*
X134Y316D01*
X141Y316D02*
X143Y316D01*
X175Y316D02*
X177Y316D01*
X187Y316D02*
X189Y316D01*
X404Y316D02*
X407Y316D01*
X456Y316D02*
X457Y316D01*
X523Y316D02*
X533Y316D01*
X647Y316D02*
X654Y316D01*
X0Y315D02*
X7Y315D01*
X132Y315D02*
X134Y315D01*
X141Y315D02*
X143Y315D01*
X175Y315D02*
X177Y315D01*
X187Y315D02*
X189Y315D01*
X198Y315D02*
X199Y315D01*
X211Y315D02*
X211Y315D01*
X404Y315D02*
X406Y315D01*
X457Y315D02*
X458Y315D01*
X522Y315D02*
X532Y315D01*
X647Y315D02*
X654Y315D01*
X0Y314D02*
X7Y314D01*
X132Y314D02*
X134Y314D01*
X141Y314D02*
X143Y314D01*
X175Y314D02*
X177Y314D01*
X187Y314D02*
X189Y314D01*
X198Y314D02*
X200Y314D01*
X210Y314D02*
X212Y314D01*
X404Y314D02*
X406Y314D01*
X458Y314D02*
X459Y314D01*
X521Y314D02*
X531Y314D01*
X647Y314D02*
X654Y314D01*
X0Y313D02*
X7Y313D01*
X132Y313D02*
X134Y313D01*
X141Y313D02*
X143Y313D01*
X175Y313D02*
X177Y313D01*
X187Y313D02*
X189Y313D01*
X197Y313D02*
X200Y313D01*
X210Y313D02*
X212Y313D01*
X404Y313D02*
X406Y313D01*
X459Y313D02*
X460Y313D01*
X520Y313D02*
X530Y313D01*
X647Y313D02*
X654Y313D01*
X0Y312D02*
X7Y312D01*
X132Y312D02*
X134Y312D01*
X141Y312D02*
X143Y312D01*
X175Y312D02*
X177Y312D01*
X187Y312D02*
X189Y312D01*
X197Y312D02*
X200Y312D01*
X210Y312D02*
X212Y312D01*
X404Y312D02*
X406Y312D01*
X459Y312D02*
X460Y312D01*
X519Y312D02*
X529Y312D01*
X647Y312D02*
X654Y312D01*
X0Y311D02*
X7Y311D01*
X132Y311D02*
X134Y311D01*
X141Y311D02*
X143Y311D01*
X175Y311D02*
X177Y311D01*
X187Y311D02*
X189Y311D01*
X197Y311D02*
X200Y311D01*
X210Y311D02*
X212Y311D01*
X404Y311D02*
X406Y311D01*
X459Y311D02*
X460Y311D01*
X518Y311D02*
X528Y311D01*
X647Y311D02*
X654Y311D01*
X0Y310D02*
X7Y310D01*
X132Y310D02*
X134Y310D01*
X141Y310D02*
X143Y310D01*
X175Y310D02*
X177Y310D01*
X187Y310D02*
X189Y310D01*
X198Y310D02*
X200Y310D01*
X209Y310D02*
X212Y310D01*
X404Y310D02*
X406Y310D01*
X459Y310D02*
X460Y310D01*
X517Y310D02*
X527Y310D01*
X647Y310D02*
X654Y310D01*
X0Y309D02*
X7Y309D01*
X132Y309D02*
X134Y309D01*
X141Y309D02*
X143Y309D01*
X175Y309D02*
X177Y309D01*
X187Y309D02*
X189Y309D01*
X198Y309D02*
X201Y309D01*
X209Y309D02*
X211Y309D01*
X404Y309D02*
X407Y309D01*
X459Y309D02*
X460Y309D01*
X516Y309D02*
X526Y309D01*
X647Y309D02*
X654Y309D01*
X0Y308D02*
X7Y308D01*
X131Y308D02*
X143Y308D01*
X175Y308D02*
X177Y308D01*
X187Y308D02*
X189Y308D01*
X199Y308D02*
X201Y308D01*
X209Y308D02*
X211Y308D01*
X404Y308D02*
X407Y308D01*
X459Y308D02*
X460Y308D01*
X515Y308D02*
X525Y308D01*
X647Y308D02*
X654Y308D01*
X0Y307D02*
X7Y307D01*
X130Y307D02*
X143Y307D01*
X158Y307D02*
X161Y307D01*
X175Y307D02*
X177Y307D01*
X187Y307D02*
X189Y307D01*
X199Y307D02*
X202Y307D01*
X208Y307D02*
X211Y307D01*
X404Y307D02*
X407Y307D01*
X443Y307D02*
X443Y307D01*
X459Y307D02*
X460Y307D01*
X514Y307D02*
X524Y307D01*
X647Y307D02*
X654Y307D01*
X0Y306D02*
X7Y306D01*
X131Y306D02*
X143Y306D01*
X157Y306D02*
X162Y306D01*
X175Y306D02*
X177Y306D01*
X187Y306D02*
X189Y306D01*
X199Y306D02*
X202Y306D01*
X208Y306D02*
X210Y306D01*
X404Y306D02*
X408Y306D01*
X443Y306D02*
X444Y306D01*
X459Y306D02*
X460Y306D01*
X513Y306D02*
X524Y306D01*
X647Y306D02*
X654Y306D01*
X0Y305D02*
X7Y305D01*
X132Y305D02*
X134Y305D01*
X157Y305D02*
X162Y305D01*
X175Y305D02*
X177Y305D01*
X187Y305D02*
X189Y305D01*
X200Y305D02*
X202Y305D01*
X207Y305D02*
X210Y305D01*
X404Y305D02*
X408Y305D01*
X443Y305D02*
X445Y305D01*
X459Y305D02*
X460Y305D01*
X512Y305D02*
X525Y305D01*
X647Y305D02*
X654Y305D01*
X0Y304D02*
X7Y304D01*
X132Y304D02*
X134Y304D01*
X157Y304D02*
X162Y304D01*
X175Y304D02*
X177Y304D01*
X187Y304D02*
X189Y304D01*
X200Y304D02*
X203Y304D01*
X207Y304D02*
X209Y304D01*
X404Y304D02*
X409Y304D01*
X444Y304D02*
X446Y304D01*
X459Y304D02*
X460Y304D01*
X511Y304D02*
X526Y304D01*
X647Y304D02*
X654Y304D01*
X0Y303D02*
X7Y303D01*
X132Y303D02*
X134Y303D01*
X157Y303D02*
X162Y303D01*
X175Y303D02*
X177Y303D01*
X187Y303D02*
X189Y303D01*
X201Y303D02*
X203Y303D01*
X206Y303D02*
X209Y303D01*
X404Y303D02*
X409Y303D01*
X445Y303D02*
X447Y303D01*
X459Y303D02*
X460Y303D01*
X510Y303D02*
X527Y303D01*
X647Y303D02*
X654Y303D01*
X0Y302D02*
X7Y302D01*
X132Y302D02*
X134Y302D01*
X157Y302D02*
X162Y302D01*
X175Y302D02*
X177Y302D01*
X187Y302D02*
X189Y302D01*
X201Y302D02*
X204Y302D01*
X206Y302D02*
X208Y302D01*
X404Y302D02*
X410Y302D01*
X446Y302D02*
X448Y302D01*
X459Y302D02*
X460Y302D01*
X509Y302D02*
X527Y302D01*
X647Y302D02*
X654Y302D01*
X0Y301D02*
X7Y301D01*
X132Y301D02*
X134Y301D01*
X175Y301D02*
X177Y301D01*
X187Y301D02*
X189Y301D01*
X202Y301D02*
X208Y301D01*
X404Y301D02*
X411Y301D01*
X447Y301D02*
X449Y301D01*
X459Y301D02*
X460Y301D01*
X508Y301D02*
X518Y301D01*
X647Y301D02*
X654Y301D01*
X0Y300D02*
X7Y300D01*
X132Y300D02*
X134Y300D01*
X175Y300D02*
X189Y300D01*
X202Y300D02*
X208Y300D01*
X404Y300D02*
X411Y300D01*
X448Y300D02*
X449Y300D01*
X459Y300D02*
X460Y300D01*
X507Y300D02*
X517Y300D01*
X647Y300D02*
X654Y300D01*
X0Y299D02*
X7Y299D01*
X132Y299D02*
X134Y299D01*
X175Y299D02*
X189Y299D01*
X203Y299D02*
X207Y299D01*
X404Y299D02*
X411Y299D01*
X449Y299D02*
X449Y299D01*
X459Y299D02*
X460Y299D01*
X506Y299D02*
X516Y299D01*
X647Y299D02*
X654Y299D01*
X0Y298D02*
X7Y298D01*
X132Y298D02*
X134Y298D01*
X176Y298D02*
X188Y298D01*
X203Y298D02*
X207Y298D01*
X404Y298D02*
X411Y298D01*
X449Y298D02*
X449Y298D01*
X459Y298D02*
X460Y298D01*
X505Y298D02*
X515Y298D01*
X647Y298D02*
X654Y298D01*
X0Y297D02*
X7Y297D01*
X404Y297D02*
X411Y297D01*
X449Y297D02*
X449Y297D01*
X459Y297D02*
X460Y297D01*
X504Y297D02*
X515Y297D01*
X647Y297D02*
X654Y297D01*
X0Y296D02*
X7Y296D01*
X404Y296D02*
X411Y296D01*
X449Y296D02*
X449Y296D01*
X459Y296D02*
X460Y296D01*
X503Y296D02*
X516Y296D01*
X647Y296D02*
X654Y296D01*
X0Y295D02*
X7Y295D01*
X404Y295D02*
X411Y295D01*
X449Y295D02*
X449Y295D01*
X459Y295D02*
X460Y295D01*
X502Y295D02*
X517Y295D01*
X647Y295D02*
X654Y295D01*
X0Y294D02*
X7Y294D01*
X404Y294D02*
X411Y294D01*
X449Y294D02*
X449Y294D01*
X459Y294D02*
X460Y294D01*
X501Y294D02*
X518Y294D01*
X647Y294D02*
X654Y294D01*
X0Y293D02*
X7Y293D01*
X404Y293D02*
X411Y293D01*
X424Y293D02*
X429Y293D01*
X449Y293D02*
X449Y293D01*
X459Y293D02*
X460Y293D01*
X500Y293D02*
X517Y293D01*
X647Y293D02*
X654Y293D01*
X0Y292D02*
X7Y292D01*
X404Y292D02*
X411Y292D01*
X423Y292D02*
X430Y292D01*
X449Y292D02*
X449Y292D01*
X499Y292D02*
X509Y292D01*
X647Y292D02*
X654Y292D01*
X0Y291D02*
X7Y291D01*
X404Y291D02*
X411Y291D01*
X423Y291D02*
X424Y291D01*
X449Y291D02*
X449Y291D01*
X498Y291D02*
X508Y291D01*
X647Y291D02*
X654Y291D01*
X0Y290D02*
X7Y290D01*
X404Y290D02*
X411Y290D01*
X422Y290D02*
X424Y290D01*
X449Y290D02*
X449Y290D01*
X497Y290D02*
X507Y290D01*
X647Y290D02*
X654Y290D01*
X0Y289D02*
X7Y289D01*
X404Y289D02*
X411Y289D01*
X422Y289D02*
X424Y289D01*
X449Y289D02*
X449Y289D01*
X496Y289D02*
X506Y289D01*
X647Y289D02*
X654Y289D01*
X0Y288D02*
X7Y288D01*
X404Y288D02*
X411Y288D01*
X423Y288D02*
X424Y288D01*
X449Y288D02*
X449Y288D01*
X495Y288D02*
X505Y288D01*
X647Y288D02*
X654Y288D01*
X0Y287D02*
X7Y287D01*
X404Y287D02*
X411Y287D01*
X449Y287D02*
X449Y287D01*
X494Y287D02*
X505Y287D01*
X647Y287D02*
X654Y287D01*
X0Y286D02*
X7Y286D01*
X404Y286D02*
X411Y286D01*
X449Y286D02*
X449Y286D01*
X493Y286D02*
X505Y286D01*
X647Y286D02*
X654Y286D01*
X0Y285D02*
X7Y285D01*
X404Y285D02*
X411Y285D01*
X449Y285D02*
X449Y285D01*
X492Y285D02*
X506Y285D01*
X647Y285D02*
X654Y285D01*
X0Y284D02*
X7Y284D01*
X404Y284D02*
X411Y284D01*
X449Y284D02*
X449Y284D01*
X491Y284D02*
X507Y284D01*
X647Y284D02*
X654Y284D01*
X0Y283D02*
X7Y283D01*
X404Y283D02*
X411Y283D01*
X449Y283D02*
X450Y283D01*
X490Y283D02*
X507Y283D01*
X647Y283D02*
X654Y283D01*
X0Y282D02*
X7Y282D01*
X404Y282D02*
X411Y282D01*
X489Y282D02*
X499Y282D01*
X647Y282D02*
X654Y282D01*
X0Y281D02*
X7Y281D01*
X404Y281D02*
X411Y281D01*
X488Y281D02*
X498Y281D01*
X647Y281D02*
X654Y281D01*
X0Y280D02*
X7Y280D01*
X404Y280D02*
X411Y280D01*
X487Y280D02*
X497Y280D01*
X647Y280D02*
X654Y280D01*
X0Y279D02*
X7Y279D01*
X404Y279D02*
X411Y279D01*
X486Y279D02*
X496Y279D01*
X647Y279D02*
X654Y279D01*
X0Y278D02*
X7Y278D01*
X404Y278D02*
X411Y278D01*
X485Y278D02*
X495Y278D01*
X647Y278D02*
X654Y278D01*
X0Y277D02*
X7Y277D01*
X404Y277D02*
X411Y277D01*
X484Y277D02*
X494Y277D01*
X647Y277D02*
X654Y277D01*
X0Y276D02*
X7Y276D01*
X404Y276D02*
X411Y276D01*
X483Y276D02*
X493Y276D01*
X647Y276D02*
X654Y276D01*
X0Y275D02*
X7Y275D01*
X404Y275D02*
X411Y275D01*
X482Y275D02*
X493Y275D01*
X647Y275D02*
X654Y275D01*
X0Y274D02*
X7Y274D01*
X404Y274D02*
X411Y274D01*
X481Y274D02*
X494Y274D01*
X647Y274D02*
X654Y274D01*
X0Y273D02*
X7Y273D01*
X404Y273D02*
X411Y273D01*
X480Y273D02*
X495Y273D01*
X647Y273D02*
X654Y273D01*
X0Y272D02*
X7Y272D01*
X404Y272D02*
X411Y272D01*
X479Y272D02*
X496Y272D01*
X647Y272D02*
X654Y272D01*
X0Y271D02*
X7Y271D01*
X404Y271D02*
X411Y271D01*
X478Y271D02*
X495Y271D01*
X647Y271D02*
X654Y271D01*
X0Y270D02*
X7Y270D01*
X404Y270D02*
X411Y270D01*
X477Y270D02*
X487Y270D01*
X647Y270D02*
X654Y270D01*
X0Y269D02*
X7Y269D01*
X404Y269D02*
X411Y269D01*
X476Y269D02*
X486Y269D01*
X647Y269D02*
X654Y269D01*
X0Y268D02*
X7Y268D01*
X404Y268D02*
X411Y268D01*
X475Y268D02*
X485Y268D01*
X647Y268D02*
X654Y268D01*
X0Y267D02*
X7Y267D01*
X404Y267D02*
X411Y267D01*
X474Y267D02*
X484Y267D01*
X647Y267D02*
X654Y267D01*
X0Y266D02*
X7Y266D01*
X404Y266D02*
X411Y266D01*
X473Y266D02*
X483Y266D01*
X647Y266D02*
X654Y266D01*
X0Y265D02*
X7Y265D01*
X404Y265D02*
X411Y265D01*
X472Y265D02*
X482Y265D01*
X647Y265D02*
X654Y265D01*
X0Y264D02*
X7Y264D01*
X404Y264D02*
X411Y264D01*
X471Y264D02*
X482Y264D01*
X647Y264D02*
X654Y264D01*
X0Y263D02*
X7Y263D01*
X404Y263D02*
X411Y263D01*
X470Y263D02*
X482Y263D01*
X647Y263D02*
X654Y263D01*
X0Y262D02*
X7Y262D01*
X404Y262D02*
X411Y262D01*
X469Y262D02*
X483Y262D01*
X647Y262D02*
X654Y262D01*
X0Y261D02*
X7Y261D01*
X404Y261D02*
X411Y261D01*
X468Y261D02*
X484Y261D01*
X647Y261D02*
X654Y261D01*
X0Y260D02*
X7Y260D01*
X404Y260D02*
X411Y260D01*
X467Y260D02*
X484Y260D01*
X647Y260D02*
X654Y260D01*
X0Y259D02*
X7Y259D01*
X404Y259D02*
X411Y259D01*
X466Y259D02*
X483Y259D01*
X647Y259D02*
X654Y259D01*
X0Y258D02*
X7Y258D01*
X404Y258D02*
X411Y258D01*
X465Y258D02*
X475Y258D01*
X647Y258D02*
X654Y258D01*
X0Y257D02*
X7Y257D01*
X404Y257D02*
X411Y257D01*
X464Y257D02*
X474Y257D01*
X647Y257D02*
X654Y257D01*
X0Y256D02*
X7Y256D01*
X404Y256D02*
X411Y256D01*
X463Y256D02*
X473Y256D01*
X647Y256D02*
X654Y256D01*
X0Y255D02*
X7Y255D01*
X404Y255D02*
X411Y255D01*
X462Y255D02*
X472Y255D01*
X647Y255D02*
X654Y255D01*
X0Y254D02*
X7Y254D01*
X404Y254D02*
X411Y254D01*
X461Y254D02*
X471Y254D01*
X647Y254D02*
X654Y254D01*
X0Y253D02*
X7Y253D01*
X404Y253D02*
X411Y253D01*
X460Y253D02*
X472Y253D01*
X647Y253D02*
X654Y253D01*
X0Y252D02*
X7Y252D01*
X404Y252D02*
X411Y252D01*
X459Y252D02*
X473Y252D01*
X647Y252D02*
X654Y252D01*
X0Y251D02*
X7Y251D01*
X404Y251D02*
X411Y251D01*
X457Y251D02*
X474Y251D01*
X647Y251D02*
X654Y251D01*
X0Y250D02*
X7Y250D01*
X404Y250D02*
X411Y250D01*
X457Y250D02*
X473Y250D01*
X647Y250D02*
X654Y250D01*
X0Y249D02*
X7Y249D01*
X404Y249D02*
X411Y249D01*
X456Y249D02*
X466Y249D01*
X647Y249D02*
X654Y249D01*
X0Y248D02*
X7Y248D01*
X404Y248D02*
X411Y248D01*
X455Y248D02*
X465Y248D01*
X647Y248D02*
X654Y248D01*
X0Y247D02*
X7Y247D01*
X404Y247D02*
X411Y247D01*
X454Y247D02*
X464Y247D01*
X647Y247D02*
X654Y247D01*
X0Y246D02*
X7Y246D01*
X404Y246D02*
X411Y246D01*
X453Y246D02*
X463Y246D01*
X647Y246D02*
X654Y246D01*
X0Y245D02*
X7Y245D01*
X404Y245D02*
X411Y245D01*
X451Y245D02*
X462Y245D01*
X647Y245D02*
X654Y245D01*
X0Y244D02*
X7Y244D01*
X404Y244D02*
X411Y244D01*
X451Y244D02*
X461Y244D01*
X647Y244D02*
X654Y244D01*
X0Y243D02*
X7Y243D01*
X404Y243D02*
X411Y243D01*
X450Y243D02*
X460Y243D01*
X647Y243D02*
X654Y243D01*
X0Y242D02*
X7Y242D01*
X404Y242D02*
X411Y242D01*
X448Y242D02*
X459Y242D01*
X647Y242D02*
X654Y242D01*
X0Y241D02*
X7Y241D01*
X404Y241D02*
X411Y241D01*
X448Y241D02*
X458Y241D01*
X647Y241D02*
X654Y241D01*
X0Y240D02*
X7Y240D01*
X404Y240D02*
X411Y240D01*
X447Y240D02*
X457Y240D01*
X647Y240D02*
X654Y240D01*
X0Y239D02*
X7Y239D01*
X404Y239D02*
X411Y239D01*
X446Y239D02*
X456Y239D01*
X647Y239D02*
X654Y239D01*
X0Y238D02*
X7Y238D01*
X404Y238D02*
X411Y238D01*
X445Y238D02*
X455Y238D01*
X647Y238D02*
X654Y238D01*
X0Y237D02*
X7Y237D01*
X404Y237D02*
X411Y237D01*
X444Y237D02*
X454Y237D01*
X647Y237D02*
X654Y237D01*
X0Y236D02*
X7Y236D01*
X443Y236D02*
X453Y236D01*
X647Y236D02*
X654Y236D01*
X0Y235D02*
X7Y235D01*
X442Y235D02*
X452Y235D01*
X647Y235D02*
X654Y235D01*
X0Y234D02*
X7Y234D01*
X167Y234D02*
X174Y234D01*
X441Y234D02*
X451Y234D01*
X647Y234D02*
X654Y234D01*
X0Y233D02*
X7Y233D01*
X166Y233D02*
X175Y233D01*
X440Y233D02*
X450Y233D01*
X647Y233D02*
X654Y233D01*
X0Y232D02*
X7Y232D01*
X166Y232D02*
X175Y232D01*
X439Y232D02*
X449Y232D01*
X647Y232D02*
X654Y232D01*
X0Y231D02*
X7Y231D01*
X166Y231D02*
X175Y231D01*
X437Y231D02*
X448Y231D01*
X647Y231D02*
X654Y231D01*
X0Y230D02*
X7Y230D01*
X166Y230D02*
X175Y230D01*
X437Y230D02*
X447Y230D01*
X647Y230D02*
X654Y230D01*
X0Y229D02*
X7Y229D01*
X166Y229D02*
X175Y229D01*
X436Y229D02*
X446Y229D01*
X647Y229D02*
X654Y229D01*
X0Y228D02*
X7Y228D01*
X166Y228D02*
X176Y228D01*
X434Y228D02*
X445Y228D01*
X647Y228D02*
X654Y228D01*
X0Y227D02*
X7Y227D01*
X165Y227D02*
X176Y227D01*
X434Y227D02*
X444Y227D01*
X647Y227D02*
X654Y227D01*
X0Y226D02*
X7Y226D01*
X165Y226D02*
X176Y226D01*
X433Y226D02*
X443Y226D01*
X647Y226D02*
X654Y226D01*
X0Y225D02*
X7Y225D01*
X165Y225D02*
X176Y225D01*
X431Y225D02*
X442Y225D01*
X647Y225D02*
X654Y225D01*
X0Y224D02*
X7Y224D01*
X142Y224D02*
X142Y224D01*
X165Y224D02*
X176Y224D01*
X199Y224D02*
X199Y224D01*
X431Y224D02*
X441Y224D01*
X647Y224D02*
X654Y224D01*
X0Y223D02*
X7Y223D01*
X141Y223D02*
X143Y223D01*
X165Y223D02*
X177Y223D01*
X198Y223D02*
X200Y223D01*
X430Y223D02*
X440Y223D01*
X647Y223D02*
X654Y223D01*
X0Y222D02*
X7Y222D01*
X140Y222D02*
X145Y222D01*
X164Y222D02*
X177Y222D01*
X196Y222D02*
X201Y222D01*
X428Y222D02*
X439Y222D01*
X647Y222D02*
X654Y222D01*
X0Y221D02*
X7Y221D01*
X139Y221D02*
X146Y221D01*
X162Y221D02*
X179Y221D01*
X195Y221D02*
X202Y221D01*
X428Y221D02*
X438Y221D01*
X647Y221D02*
X654Y221D01*
X0Y220D02*
X7Y220D01*
X138Y220D02*
X148Y220D01*
X159Y220D02*
X182Y220D01*
X193Y220D02*
X203Y220D01*
X426Y220D02*
X437Y220D01*
X647Y220D02*
X654Y220D01*
X0Y219D02*
X7Y219D01*
X137Y219D02*
X149Y219D01*
X157Y219D02*
X185Y219D01*
X192Y219D02*
X204Y219D01*
X425Y219D02*
X436Y219D01*
X647Y219D02*
X654Y219D01*
X0Y218D02*
X7Y218D01*
X136Y218D02*
X151Y218D01*
X155Y218D02*
X186Y218D01*
X191Y218D02*
X205Y218D01*
X425Y218D02*
X435Y218D01*
X647Y218D02*
X654Y218D01*
X0Y217D02*
X7Y217D01*
X137Y217D02*
X204Y217D01*
X423Y217D02*
X434Y217D01*
X647Y217D02*
X654Y217D01*
X0Y216D02*
X7Y216D01*
X138Y216D02*
X203Y216D01*
X422Y216D02*
X433Y216D01*
X647Y216D02*
X654Y216D01*
X0Y215D02*
X7Y215D01*
X138Y215D02*
X203Y215D01*
X647Y215D02*
X654Y215D01*
X0Y214D02*
X7Y214D01*
X139Y214D02*
X202Y214D01*
X647Y214D02*
X654Y214D01*
X0Y213D02*
X7Y213D01*
X140Y213D02*
X201Y213D01*
X647Y213D02*
X654Y213D01*
X0Y212D02*
X7Y212D01*
X141Y212D02*
X201Y212D01*
X647Y212D02*
X654Y212D01*
X0Y211D02*
X7Y211D01*
X141Y211D02*
X200Y211D01*
X647Y211D02*
X654Y211D01*
X0Y210D02*
X7Y210D01*
X142Y210D02*
X199Y210D01*
X647Y210D02*
X654Y210D01*
X0Y209D02*
X7Y209D01*
X143Y209D02*
X199Y209D01*
X647Y209D02*
X654Y209D01*
X0Y208D02*
X7Y208D01*
X143Y208D02*
X166Y208D01*
X175Y208D02*
X198Y208D01*
X647Y208D02*
X654Y208D01*
X0Y207D02*
X7Y207D01*
X143Y207D02*
X163Y207D01*
X178Y207D02*
X198Y207D01*
X647Y207D02*
X654Y207D01*
X0Y206D02*
X7Y206D01*
X142Y206D02*
X161Y206D01*
X180Y206D02*
X199Y206D01*
X647Y206D02*
X654Y206D01*
X0Y205D02*
X7Y205D01*
X142Y205D02*
X160Y205D01*
X181Y205D02*
X199Y205D01*
X647Y205D02*
X654Y205D01*
X0Y204D02*
X7Y204D01*
X141Y204D02*
X159Y204D01*
X182Y204D02*
X200Y204D01*
X647Y204D02*
X654Y204D01*
X0Y203D02*
X7Y203D01*
X141Y203D02*
X158Y203D01*
X184Y203D02*
X200Y203D01*
X647Y203D02*
X654Y203D01*
X0Y202D02*
X7Y202D01*
X140Y202D02*
X157Y202D01*
X184Y202D02*
X201Y202D01*
X647Y202D02*
X654Y202D01*
X0Y201D02*
X7Y201D01*
X140Y201D02*
X156Y201D01*
X185Y201D02*
X201Y201D01*
X647Y201D02*
X654Y201D01*
X0Y200D02*
X7Y200D01*
X140Y200D02*
X155Y200D01*
X186Y200D02*
X202Y200D01*
X647Y200D02*
X654Y200D01*
X0Y199D02*
X7Y199D01*
X139Y199D02*
X154Y199D01*
X187Y199D02*
X202Y199D01*
X647Y199D02*
X654Y199D01*
X0Y198D02*
X7Y198D01*
X139Y198D02*
X154Y198D01*
X187Y198D02*
X202Y198D01*
X647Y198D02*
X654Y198D01*
X0Y197D02*
X7Y197D01*
X139Y197D02*
X153Y197D01*
X188Y197D02*
X202Y197D01*
X647Y197D02*
X654Y197D01*
X0Y196D02*
X7Y196D01*
X138Y196D02*
X153Y196D01*
X188Y196D02*
X203Y196D01*
X647Y196D02*
X654Y196D01*
X0Y195D02*
X7Y195D01*
X132Y195D02*
X152Y195D01*
X189Y195D02*
X209Y195D01*
X647Y195D02*
X654Y195D01*
X0Y194D02*
X7Y194D01*
X127Y194D02*
X152Y194D01*
X189Y194D02*
X214Y194D01*
X647Y194D02*
X654Y194D01*
X0Y193D02*
X7Y193D01*
X126Y193D02*
X152Y193D01*
X189Y193D02*
X215Y193D01*
X647Y193D02*
X654Y193D01*
X0Y192D02*
X7Y192D01*
X126Y192D02*
X152Y192D01*
X189Y192D02*
X215Y192D01*
X523Y192D02*
X524Y192D01*
X535Y192D02*
X536Y192D01*
X545Y192D02*
X556Y192D01*
X587Y192D02*
X597Y192D01*
X647Y192D02*
X654Y192D01*
X0Y191D02*
X7Y191D01*
X126Y191D02*
X152Y191D01*
X190Y191D02*
X215Y191D01*
X523Y191D02*
X524Y191D01*
X534Y191D02*
X536Y191D01*
X544Y191D02*
X557Y191D01*
X586Y191D02*
X597Y191D01*
X647Y191D02*
X654Y191D01*
X0Y190D02*
X7Y190D01*
X126Y190D02*
X152Y190D01*
X190Y190D02*
X215Y190D01*
X522Y190D02*
X524Y190D01*
X534Y190D02*
X536Y190D01*
X544Y190D02*
X557Y190D01*
X587Y190D02*
X597Y190D01*
X647Y190D02*
X654Y190D01*
X0Y189D02*
X7Y189D01*
X126Y189D02*
X152Y189D01*
X189Y189D02*
X215Y189D01*
X522Y189D02*
X524Y189D01*
X534Y189D02*
X536Y189D01*
X544Y189D02*
X546Y189D01*
X555Y189D02*
X557Y189D01*
X595Y189D02*
X597Y189D01*
X647Y189D02*
X654Y189D01*
X0Y188D02*
X7Y188D01*
X126Y188D02*
X152Y188D01*
X189Y188D02*
X215Y188D01*
X522Y188D02*
X524Y188D01*
X534Y188D02*
X536Y188D01*
X544Y188D02*
X546Y188D01*
X555Y188D02*
X557Y188D01*
X595Y188D02*
X597Y188D01*
X647Y188D02*
X654Y188D01*
X0Y187D02*
X7Y187D01*
X126Y187D02*
X152Y187D01*
X189Y187D02*
X215Y187D01*
X522Y187D02*
X524Y187D01*
X534Y187D02*
X536Y187D01*
X544Y187D02*
X546Y187D01*
X555Y187D02*
X557Y187D01*
X595Y187D02*
X597Y187D01*
X647Y187D02*
X654Y187D01*
X0Y186D02*
X7Y186D01*
X126Y186D02*
X152Y186D01*
X189Y186D02*
X215Y186D01*
X523Y186D02*
X525Y186D01*
X534Y186D02*
X536Y186D01*
X544Y186D02*
X546Y186D01*
X555Y186D02*
X557Y186D01*
X595Y186D02*
X597Y186D01*
X647Y186D02*
X654Y186D01*
X0Y185D02*
X7Y185D01*
X127Y185D02*
X153Y185D01*
X189Y185D02*
X214Y185D01*
X523Y185D02*
X525Y185D01*
X534Y185D02*
X536Y185D01*
X544Y185D02*
X546Y185D01*
X555Y185D02*
X557Y185D01*
X595Y185D02*
X597Y185D01*
X647Y185D02*
X654Y185D01*
X0Y184D02*
X7Y184D01*
X133Y184D02*
X153Y184D01*
X188Y184D02*
X208Y184D01*
X523Y184D02*
X526Y184D01*
X533Y184D02*
X535Y184D01*
X544Y184D02*
X546Y184D01*
X555Y184D02*
X557Y184D01*
X595Y184D02*
X597Y184D01*
X647Y184D02*
X654Y184D01*
X0Y183D02*
X7Y183D01*
X138Y183D02*
X153Y183D01*
X188Y183D02*
X203Y183D01*
X524Y183D02*
X526Y183D01*
X533Y183D02*
X535Y183D01*
X544Y183D02*
X546Y183D01*
X555Y183D02*
X557Y183D01*
X595Y183D02*
X597Y183D01*
X647Y183D02*
X654Y183D01*
X0Y182D02*
X7Y182D01*
X138Y182D02*
X154Y182D01*
X187Y182D02*
X203Y182D01*
X524Y182D02*
X526Y182D01*
X532Y182D02*
X535Y182D01*
X544Y182D02*
X546Y182D01*
X555Y182D02*
X557Y182D01*
X587Y182D02*
X597Y182D01*
X647Y182D02*
X654Y182D01*
X0Y181D02*
X7Y181D01*
X139Y181D02*
X155Y181D01*
X187Y181D02*
X202Y181D01*
X524Y181D02*
X527Y181D01*
X532Y181D02*
X534Y181D01*
X544Y181D02*
X546Y181D01*
X555Y181D02*
X557Y181D01*
X587Y181D02*
X597Y181D01*
X647Y181D02*
X654Y181D01*
X0Y180D02*
X7Y180D01*
X139Y180D02*
X155Y180D01*
X186Y180D02*
X202Y180D01*
X525Y180D02*
X527Y180D01*
X532Y180D02*
X534Y180D01*
X544Y180D02*
X546Y180D01*
X555Y180D02*
X557Y180D01*
X586Y180D02*
X597Y180D01*
X647Y180D02*
X654Y180D01*
X0Y179D02*
X7Y179D01*
X139Y179D02*
X156Y179D01*
X185Y179D02*
X202Y179D01*
X525Y179D02*
X527Y179D01*
X531Y179D02*
X533Y179D01*
X544Y179D02*
X546Y179D01*
X555Y179D02*
X557Y179D01*
X571Y179D02*
X573Y179D01*
X586Y179D02*
X588Y179D01*
X647Y179D02*
X654Y179D01*
X0Y178D02*
X7Y178D01*
X140Y178D02*
X157Y178D01*
X184Y178D02*
X202Y178D01*
X526Y178D02*
X528Y178D01*
X531Y178D02*
X533Y178D01*
X544Y178D02*
X546Y178D01*
X555Y178D02*
X557Y178D01*
X570Y178D02*
X574Y178D01*
X586Y178D02*
X588Y178D01*
X647Y178D02*
X654Y178D01*
X0Y177D02*
X7Y177D01*
X140Y177D02*
X158Y177D01*
X183Y177D02*
X201Y177D01*
X526Y177D02*
X528Y177D01*
X530Y177D02*
X533Y177D01*
X544Y177D02*
X546Y177D01*
X555Y177D02*
X557Y177D01*
X569Y177D02*
X574Y177D01*
X586Y177D02*
X588Y177D01*
X647Y177D02*
X654Y177D01*
X0Y176D02*
X7Y176D01*
X140Y176D02*
X159Y176D01*
X182Y176D02*
X201Y176D01*
X526Y176D02*
X532Y176D01*
X544Y176D02*
X546Y176D01*
X555Y176D02*
X557Y176D01*
X569Y176D02*
X574Y176D01*
X586Y176D02*
X588Y176D01*
X647Y176D02*
X654Y176D01*
X0Y175D02*
X7Y175D01*
X141Y175D02*
X160Y175D01*
X181Y175D02*
X200Y175D01*
X527Y175D02*
X532Y175D01*
X544Y175D02*
X546Y175D01*
X555Y175D02*
X557Y175D01*
X569Y175D02*
X574Y175D01*
X586Y175D02*
X588Y175D01*
X647Y175D02*
X654Y175D01*
X0Y174D02*
X7Y174D01*
X141Y174D02*
X161Y174D01*
X180Y174D02*
X200Y174D01*
X527Y174D02*
X532Y174D01*
X544Y174D02*
X546Y174D01*
X555Y174D02*
X557Y174D01*
X570Y174D02*
X574Y174D01*
X586Y174D02*
X588Y174D01*
X647Y174D02*
X654Y174D01*
X0Y173D02*
X7Y173D01*
X142Y173D02*
X161Y173D01*
X181Y173D02*
X199Y173D01*
X528Y173D02*
X531Y173D01*
X544Y173D02*
X546Y173D01*
X555Y173D02*
X557Y173D01*
X586Y173D02*
X588Y173D01*
X597Y173D02*
X600Y173D01*
X647Y173D02*
X654Y173D01*
X0Y172D02*
X7Y172D01*
X142Y172D02*
X160Y172D01*
X181Y172D02*
X199Y172D01*
X528Y172D02*
X531Y172D01*
X544Y172D02*
X557Y172D01*
X586Y172D02*
X600Y172D01*
X647Y172D02*
X654Y172D01*
X0Y171D02*
X7Y171D01*
X143Y171D02*
X160Y171D01*
X181Y171D02*
X198Y171D01*
X528Y171D02*
X530Y171D01*
X544Y171D02*
X557Y171D01*
X587Y171D02*
X599Y171D01*
X647Y171D02*
X654Y171D01*
X0Y170D02*
X7Y170D01*
X143Y170D02*
X159Y170D01*
X182Y170D02*
X199Y170D01*
X529Y170D02*
X529Y170D01*
X546Y170D02*
X555Y170D01*
X588Y170D02*
X596Y170D01*
X647Y170D02*
X654Y170D01*
X0Y169D02*
X7Y169D01*
X142Y169D02*
X159Y169D01*
X182Y169D02*
X199Y169D01*
X647Y169D02*
X654Y169D01*
X0Y168D02*
X7Y168D01*
X141Y168D02*
X158Y168D01*
X183Y168D02*
X200Y168D01*
X647Y168D02*
X654Y168D01*
X0Y167D02*
X7Y167D01*
X140Y167D02*
X158Y167D01*
X183Y167D02*
X201Y167D01*
X647Y167D02*
X654Y167D01*
X0Y166D02*
X7Y166D01*
X140Y166D02*
X158Y166D01*
X183Y166D02*
X201Y166D01*
X647Y166D02*
X654Y166D01*
X0Y165D02*
X7Y165D01*
X139Y165D02*
X157Y165D01*
X184Y165D02*
X202Y165D01*
X647Y165D02*
X654Y165D01*
X0Y164D02*
X7Y164D01*
X138Y164D02*
X157Y164D01*
X184Y164D02*
X203Y164D01*
X647Y164D02*
X654Y164D01*
X0Y163D02*
X7Y163D01*
X138Y163D02*
X156Y163D01*
X185Y163D02*
X203Y163D01*
X647Y163D02*
X654Y163D01*
X0Y162D02*
X7Y162D01*
X137Y162D02*
X156Y162D01*
X185Y162D02*
X204Y162D01*
X647Y162D02*
X654Y162D01*
X0Y161D02*
X7Y161D01*
X136Y161D02*
X150Y161D01*
X153Y161D02*
X156Y161D01*
X186Y161D02*
X188Y161D01*
X191Y161D02*
X205Y161D01*
X647Y161D02*
X654Y161D01*
X0Y160D02*
X7Y160D01*
X137Y160D02*
X149Y160D01*
X155Y160D02*
X155Y160D01*
X186Y160D02*
X186Y160D01*
X192Y160D02*
X204Y160D01*
X523Y160D02*
X524Y160D01*
X534Y160D02*
X536Y160D01*
X545Y160D02*
X557Y160D01*
X587Y160D02*
X600Y160D01*
X647Y160D02*
X654Y160D01*
X0Y159D02*
X7Y159D01*
X138Y159D02*
X148Y159D01*
X194Y159D02*
X203Y159D01*
X523Y159D02*
X524Y159D01*
X534Y159D02*
X536Y159D01*
X544Y159D02*
X557Y159D01*
X586Y159D02*
X600Y159D01*
X647Y159D02*
X654Y159D01*
X0Y158D02*
X7Y158D01*
X139Y158D02*
X146Y158D01*
X195Y158D02*
X202Y158D01*
X522Y158D02*
X524Y158D01*
X534Y158D02*
X536Y158D01*
X544Y158D02*
X556Y158D01*
X586Y158D02*
X598Y158D01*
X647Y158D02*
X654Y158D01*
X0Y157D02*
X7Y157D01*
X140Y157D02*
X145Y157D01*
X196Y157D02*
X201Y157D01*
X522Y157D02*
X524Y157D01*
X534Y157D02*
X536Y157D01*
X544Y157D02*
X546Y157D01*
X586Y157D02*
X588Y157D01*
X647Y157D02*
X654Y157D01*
X0Y156D02*
X7Y156D01*
X141Y156D02*
X143Y156D01*
X198Y156D02*
X200Y156D01*
X522Y156D02*
X524Y156D01*
X534Y156D02*
X536Y156D01*
X544Y156D02*
X546Y156D01*
X586Y156D02*
X588Y156D01*
X647Y156D02*
X654Y156D01*
X0Y155D02*
X7Y155D01*
X142Y155D02*
X142Y155D01*
X522Y155D02*
X524Y155D01*
X534Y155D02*
X536Y155D01*
X544Y155D02*
X546Y155D01*
X586Y155D02*
X588Y155D01*
X647Y155D02*
X654Y155D01*
X0Y154D02*
X7Y154D01*
X523Y154D02*
X525Y154D01*
X534Y154D02*
X536Y154D01*
X544Y154D02*
X546Y154D01*
X586Y154D02*
X588Y154D01*
X647Y154D02*
X654Y154D01*
X0Y153D02*
X7Y153D01*
X523Y153D02*
X525Y153D01*
X534Y153D02*
X536Y153D01*
X544Y153D02*
X546Y153D01*
X586Y153D02*
X588Y153D01*
X647Y153D02*
X654Y153D01*
X0Y152D02*
X7Y152D01*
X523Y152D02*
X526Y152D01*
X533Y152D02*
X535Y152D01*
X544Y152D02*
X546Y152D01*
X586Y152D02*
X588Y152D01*
X647Y152D02*
X654Y152D01*
X0Y151D02*
X7Y151D01*
X524Y151D02*
X526Y151D01*
X533Y151D02*
X535Y151D01*
X544Y151D02*
X547Y151D01*
X587Y151D02*
X590Y151D01*
X647Y151D02*
X654Y151D01*
X0Y150D02*
X7Y150D01*
X524Y150D02*
X526Y150D01*
X532Y150D02*
X535Y150D01*
X545Y150D02*
X554Y150D01*
X587Y150D02*
X597Y150D01*
X647Y150D02*
X654Y150D01*
X0Y149D02*
X7Y149D01*
X525Y149D02*
X527Y149D01*
X532Y149D02*
X534Y149D01*
X545Y149D02*
X554Y149D01*
X587Y149D02*
X597Y149D01*
X647Y149D02*
X654Y149D01*
X0Y148D02*
X7Y148D01*
X151Y148D02*
X151Y148D01*
X183Y148D02*
X183Y148D01*
X525Y148D02*
X527Y148D01*
X532Y148D02*
X534Y148D01*
X544Y148D02*
X553Y148D01*
X587Y148D02*
X595Y148D01*
X647Y148D02*
X654Y148D01*
X0Y147D02*
X7Y147D01*
X151Y147D02*
X151Y147D01*
X183Y147D02*
X183Y147D01*
X525Y147D02*
X528Y147D01*
X531Y147D02*
X533Y147D01*
X544Y147D02*
X546Y147D01*
X570Y147D02*
X573Y147D01*
X586Y147D02*
X588Y147D01*
X647Y147D02*
X654Y147D01*
X0Y146D02*
X7Y146D01*
X151Y146D02*
X151Y146D01*
X183Y146D02*
X183Y146D01*
X526Y146D02*
X528Y146D01*
X531Y146D02*
X533Y146D01*
X544Y146D02*
X546Y146D01*
X570Y146D02*
X574Y146D01*
X586Y146D02*
X588Y146D01*
X647Y146D02*
X654Y146D01*
X0Y145D02*
X7Y145D01*
X151Y145D02*
X151Y145D01*
X183Y145D02*
X183Y145D01*
X195Y145D02*
X197Y145D01*
X204Y145D02*
X206Y145D01*
X213Y145D02*
X216Y145D01*
X223Y145D02*
X225Y145D01*
X526Y145D02*
X528Y145D01*
X530Y145D02*
X533Y145D01*
X544Y145D02*
X546Y145D01*
X569Y145D02*
X574Y145D01*
X586Y145D02*
X588Y145D01*
X647Y145D02*
X654Y145D01*
X0Y144D02*
X7Y144D01*
X116Y144D02*
X120Y144D01*
X125Y144D02*
X129Y144D01*
X134Y144D02*
X138Y144D01*
X141Y144D02*
X142Y144D01*
X145Y144D02*
X145Y144D01*
X148Y144D02*
X148Y144D01*
X151Y144D02*
X155Y144D01*
X161Y144D02*
X164Y144D01*
X170Y144D02*
X173Y144D01*
X179Y144D02*
X183Y144D01*
X194Y144D02*
X198Y144D01*
X203Y144D02*
X208Y144D01*
X212Y144D02*
X217Y144D01*
X222Y144D02*
X226Y144D01*
X526Y144D02*
X532Y144D01*
X544Y144D02*
X546Y144D01*
X569Y144D02*
X574Y144D01*
X586Y144D02*
X588Y144D01*
X647Y144D02*
X654Y144D01*
X0Y143D02*
X7Y143D01*
X116Y143D02*
X116Y143D01*
X120Y143D02*
X121Y143D01*
X125Y143D02*
X125Y143D01*
X129Y143D02*
X129Y143D01*
X133Y143D02*
X134Y143D01*
X138Y143D02*
X138Y143D01*
X141Y143D02*
X142Y143D01*
X145Y143D02*
X145Y143D01*
X148Y143D02*
X149Y143D01*
X151Y143D02*
X152Y143D01*
X155Y143D02*
X156Y143D01*
X160Y143D02*
X161Y143D01*
X164Y143D02*
X165Y143D01*
X169Y143D02*
X170Y143D01*
X173Y143D02*
X174Y143D01*
X178Y143D02*
X179Y143D01*
X182Y143D02*
X183Y143D01*
X193Y143D02*
X194Y143D01*
X197Y143D02*
X199Y143D01*
X202Y143D02*
X204Y143D01*
X207Y143D02*
X208Y143D01*
X212Y143D02*
X213Y143D01*
X216Y143D02*
X217Y143D01*
X221Y143D02*
X222Y143D01*
X226Y143D02*
X227Y143D01*
X527Y143D02*
X532Y143D01*
X544Y143D02*
X546Y143D01*
X569Y143D02*
X574Y143D01*
X586Y143D02*
X588Y143D01*
X647Y143D02*
X654Y143D01*
X0Y142D02*
X7Y142D01*
X115Y142D02*
X116Y142D01*
X120Y142D02*
X121Y142D01*
X124Y142D02*
X125Y142D01*
X129Y142D02*
X130Y142D01*
X133Y142D02*
X134Y142D01*
X138Y142D02*
X139Y142D01*
X141Y142D02*
X142Y142D01*
X145Y142D02*
X145Y142D01*
X148Y142D02*
X149Y142D01*
X151Y142D02*
X151Y142D01*
X156Y142D02*
X157Y142D01*
X160Y142D02*
X160Y142D01*
X165Y142D02*
X165Y142D01*
X169Y142D02*
X169Y142D01*
X174Y142D02*
X174Y142D01*
X178Y142D02*
X178Y142D01*
X183Y142D02*
X183Y142D01*
X193Y142D02*
X194Y142D01*
X198Y142D02*
X199Y142D01*
X202Y142D02*
X204Y142D01*
X207Y142D02*
X208Y142D01*
X211Y142D02*
X212Y142D01*
X217Y142D02*
X218Y142D01*
X221Y142D02*
X222Y142D01*
X226Y142D02*
X227Y142D01*
X527Y142D02*
X531Y142D01*
X544Y142D02*
X546Y142D01*
X570Y142D02*
X574Y142D01*
X586Y142D02*
X588Y142D01*
X647Y142D02*
X654Y142D01*
X0Y141D02*
X7Y141D01*
X115Y141D02*
X117Y141D01*
X121Y141D02*
X121Y141D01*
X129Y141D02*
X130Y141D01*
X133Y141D02*
X135Y141D01*
X141Y141D02*
X142Y141D01*
X145Y141D02*
X145Y141D01*
X148Y141D02*
X149Y141D01*
X151Y141D02*
X151Y141D01*
X156Y141D02*
X157Y141D01*
X165Y141D02*
X166Y141D01*
X169Y141D02*
X170Y141D01*
X178Y141D02*
X178Y141D01*
X183Y141D02*
X183Y141D01*
X193Y141D02*
X194Y141D01*
X198Y141D02*
X199Y141D01*
X202Y141D02*
X205Y141D01*
X207Y141D02*
X208Y141D01*
X211Y141D02*
X212Y141D01*
X217Y141D02*
X218Y141D01*
X221Y141D02*
X222Y141D01*
X226Y141D02*
X227Y141D01*
X528Y141D02*
X531Y141D01*
X544Y141D02*
X546Y141D01*
X586Y141D02*
X589Y141D01*
X647Y141D02*
X654Y141D01*
X0Y140D02*
X7Y140D01*
X117Y140D02*
X121Y140D01*
X129Y140D02*
X130Y140D01*
X133Y140D02*
X137Y140D01*
X141Y140D02*
X142Y140D01*
X145Y140D02*
X145Y140D01*
X148Y140D02*
X149Y140D01*
X151Y140D02*
X151Y140D01*
X156Y140D02*
X157Y140D01*
X165Y140D02*
X166Y140D01*
X169Y140D02*
X173Y140D01*
X178Y140D02*
X178Y140D01*
X183Y140D02*
X183Y140D01*
X193Y140D02*
X194Y140D01*
X198Y140D02*
X199Y140D01*
X204Y140D02*
X208Y140D01*
X211Y140D02*
X212Y140D01*
X217Y140D02*
X218Y140D01*
X221Y140D02*
X222Y140D01*
X226Y140D02*
X227Y140D01*
X528Y140D02*
X531Y140D01*
X544Y140D02*
X557Y140D01*
X586Y140D02*
X600Y140D01*
X647Y140D02*
X654Y140D01*
X0Y139D02*
X7Y139D01*
X119Y139D02*
X121Y139D01*
X129Y139D02*
X130Y139D01*
X133Y139D02*
X133Y139D01*
X137Y139D02*
X138Y139D01*
X141Y139D02*
X142Y139D01*
X145Y139D02*
X145Y139D01*
X148Y139D02*
X149Y139D01*
X151Y139D02*
X151Y139D01*
X156Y139D02*
X157Y139D01*
X165Y139D02*
X166Y139D01*
X169Y139D02*
X169Y139D01*
X172Y139D02*
X174Y139D01*
X178Y139D02*
X178Y139D01*
X183Y139D02*
X183Y139D01*
X193Y139D02*
X194Y139D01*
X198Y139D02*
X199Y139D01*
X202Y139D02*
X203Y139D01*
X206Y139D02*
X208Y139D01*
X211Y139D02*
X212Y139D01*
X217Y139D02*
X218Y139D01*
X221Y139D02*
X222Y139D01*
X226Y139D02*
X227Y139D01*
X528Y139D02*
X530Y139D01*
X545Y139D02*
X557Y139D01*
X587Y139D02*
X600Y139D01*
X647Y139D02*
X654Y139D01*
X0Y138D02*
X7Y138D01*
X115Y138D02*
X116Y138D01*
X120Y138D02*
X121Y138D01*
X129Y138D02*
X130Y138D01*
X133Y138D02*
X133Y138D01*
X138Y138D02*
X139Y138D01*
X141Y138D02*
X142Y138D01*
X145Y138D02*
X145Y138D01*
X148Y138D02*
X149Y138D01*
X151Y138D02*
X151Y138D01*
X156Y138D02*
X157Y138D01*
X165Y138D02*
X166Y138D01*
X169Y138D02*
X169Y138D01*
X174Y138D02*
X174Y138D01*
X178Y138D02*
X178Y138D01*
X183Y138D02*
X183Y138D01*
X193Y138D02*
X194Y138D01*
X198Y138D02*
X199Y138D01*
X202Y138D02*
X203Y138D01*
X207Y138D02*
X208Y138D01*
X212Y138D02*
X213Y138D01*
X217Y138D02*
X218Y138D01*
X221Y138D02*
X222Y138D01*
X226Y138D02*
X227Y138D01*
X547Y138D02*
X556Y138D01*
X589Y138D02*
X598Y138D01*
X647Y138D02*
X654Y138D01*
X0Y137D02*
X7Y137D01*
X116Y137D02*
X116Y137D01*
X120Y137D02*
X121Y137D01*
X129Y137D02*
X130Y137D01*
X133Y137D02*
X133Y137D01*
X138Y137D02*
X139Y137D01*
X141Y137D02*
X142Y137D01*
X145Y137D02*
X145Y137D01*
X148Y137D02*
X148Y137D01*
X151Y137D02*
X152Y137D01*
X156Y137D02*
X156Y137D01*
X165Y137D02*
X166Y137D01*
X169Y137D02*
X169Y137D01*
X174Y137D02*
X174Y137D01*
X178Y137D02*
X178Y137D01*
X183Y137D02*
X183Y137D01*
X193Y137D02*
X194Y137D01*
X198Y137D02*
X199Y137D01*
X203Y137D02*
X204Y137D01*
X206Y137D02*
X208Y137D01*
X212Y137D02*
X213Y137D01*
X216Y137D02*
X218Y137D01*
X221Y137D02*
X223Y137D01*
X225Y137D02*
X227Y137D01*
X647Y137D02*
X654Y137D01*
X0Y136D02*
X7Y136D01*
X116Y136D02*
X120Y136D01*
X129Y136D02*
X130Y136D01*
X133Y136D02*
X133Y136D01*
X136Y136D02*
X138Y136D01*
X142Y136D02*
X148Y136D01*
X152Y136D02*
X156Y136D01*
X165Y136D02*
X166Y136D01*
X169Y136D02*
X169Y136D01*
X171Y136D02*
X174Y136D01*
X178Y136D02*
X178Y136D01*
X183Y136D02*
X183Y136D01*
X193Y136D02*
X194Y136D01*
X198Y136D02*
X199Y136D01*
X203Y136D02*
X207Y136D01*
X213Y136D02*
X218Y136D01*
X222Y136D02*
X226Y136D01*
X647Y136D02*
X654Y136D01*
X0Y135D02*
X7Y135D01*
X118Y135D02*
X118Y135D01*
X136Y135D02*
X137Y135D01*
X143Y135D02*
X143Y135D01*
X146Y135D02*
X147Y135D01*
X154Y135D02*
X154Y135D01*
X172Y135D02*
X172Y135D01*
X194Y135D02*
X194Y135D01*
X199Y135D02*
X199Y135D01*
X205Y135D02*
X206Y135D01*
X214Y135D02*
X218Y135D01*
X224Y135D02*
X224Y135D01*
X647Y135D02*
X654Y135D01*
X0Y134D02*
X7Y134D01*
X217Y134D02*
X218Y134D01*
X647Y134D02*
X654Y134D01*
X0Y133D02*
X7Y133D01*
X84Y133D02*
X85Y133D01*
X92Y133D02*
X100Y133D01*
X217Y133D02*
X218Y133D01*
X647Y133D02*
X654Y133D01*
X0Y132D02*
X7Y132D01*
X84Y132D02*
X85Y132D01*
X92Y132D02*
X100Y132D01*
X217Y132D02*
X218Y132D01*
X647Y132D02*
X654Y132D01*
X0Y131D02*
X7Y131D01*
X84Y131D02*
X85Y131D01*
X92Y131D02*
X93Y131D01*
X99Y131D02*
X100Y131D01*
X647Y131D02*
X654Y131D01*
X0Y130D02*
X7Y130D01*
X84Y130D02*
X85Y130D01*
X92Y130D02*
X93Y130D01*
X99Y130D02*
X100Y130D01*
X647Y130D02*
X654Y130D01*
X0Y129D02*
X7Y129D01*
X84Y129D02*
X85Y129D01*
X92Y129D02*
X93Y129D01*
X99Y129D02*
X100Y129D01*
X647Y129D02*
X654Y129D01*
X0Y128D02*
X7Y128D01*
X84Y128D02*
X85Y128D01*
X92Y128D02*
X93Y128D01*
X99Y128D02*
X100Y128D01*
X522Y128D02*
X524Y128D01*
X534Y128D02*
X535Y128D01*
X546Y128D02*
X554Y128D01*
X592Y128D02*
X599Y128D01*
X647Y128D02*
X654Y128D01*
X0Y127D02*
X7Y127D01*
X84Y127D02*
X85Y127D01*
X92Y127D02*
X93Y127D01*
X99Y127D02*
X100Y127D01*
X522Y127D02*
X524Y127D01*
X534Y127D02*
X536Y127D01*
X546Y127D02*
X554Y127D01*
X592Y127D02*
X599Y127D01*
X647Y127D02*
X654Y127D01*
X0Y126D02*
X7Y126D01*
X84Y126D02*
X85Y126D01*
X92Y126D02*
X93Y126D01*
X99Y126D02*
X100Y126D01*
X522Y126D02*
X524Y126D01*
X534Y126D02*
X536Y126D01*
X546Y126D02*
X554Y126D01*
X592Y126D02*
X598Y126D01*
X647Y126D02*
X654Y126D01*
X0Y125D02*
X7Y125D01*
X84Y125D02*
X86Y125D01*
X91Y125D02*
X93Y125D01*
X99Y125D02*
X100Y125D01*
X522Y125D02*
X524Y125D01*
X534Y125D02*
X536Y125D01*
X546Y125D02*
X548Y125D01*
X552Y125D02*
X554Y125D01*
X592Y125D02*
X594Y125D01*
X647Y125D02*
X654Y125D01*
X0Y124D02*
X7Y124D01*
X84Y124D02*
X93Y124D01*
X99Y124D02*
X100Y124D01*
X522Y124D02*
X524Y124D01*
X534Y124D02*
X536Y124D01*
X546Y124D02*
X548Y124D01*
X552Y124D02*
X554Y124D01*
X592Y124D02*
X594Y124D01*
X647Y124D02*
X654Y124D01*
X0Y123D02*
X7Y123D01*
X84Y123D02*
X92Y123D01*
X100Y123D02*
X100Y123D01*
X522Y123D02*
X524Y123D01*
X534Y123D02*
X536Y123D01*
X546Y123D02*
X548Y123D01*
X552Y123D02*
X554Y123D01*
X592Y123D02*
X594Y123D01*
X647Y123D02*
X654Y123D01*
X0Y122D02*
X7Y122D01*
X522Y122D02*
X524Y122D01*
X533Y122D02*
X536Y122D01*
X546Y122D02*
X548Y122D01*
X552Y122D02*
X554Y122D01*
X592Y122D02*
X594Y122D01*
X647Y122D02*
X654Y122D01*
X0Y121D02*
X7Y121D01*
X522Y121D02*
X525Y121D01*
X533Y121D02*
X535Y121D01*
X546Y121D02*
X548Y121D01*
X552Y121D02*
X554Y121D01*
X592Y121D02*
X594Y121D01*
X647Y121D02*
X654Y121D01*
X0Y120D02*
X7Y120D01*
X523Y120D02*
X525Y120D01*
X533Y120D02*
X535Y120D01*
X546Y120D02*
X548Y120D01*
X552Y120D02*
X554Y120D01*
X592Y120D02*
X594Y120D01*
X647Y120D02*
X654Y120D01*
X0Y119D02*
X7Y119D01*
X523Y119D02*
X525Y119D01*
X532Y119D02*
X534Y119D01*
X546Y119D02*
X548Y119D01*
X552Y119D02*
X554Y119D01*
X592Y119D02*
X594Y119D01*
X647Y119D02*
X654Y119D01*
X0Y118D02*
X7Y118D01*
X524Y118D02*
X526Y118D01*
X532Y118D02*
X534Y118D01*
X544Y118D02*
X556Y118D01*
X592Y118D02*
X594Y118D01*
X647Y118D02*
X654Y118D01*
X0Y117D02*
X7Y117D01*
X84Y117D02*
X87Y117D01*
X524Y117D02*
X526Y117D01*
X531Y117D02*
X534Y117D01*
X544Y117D02*
X557Y117D01*
X592Y117D02*
X594Y117D01*
X647Y117D02*
X654Y117D01*
X0Y116D02*
X7Y116D01*
X84Y116D02*
X90Y116D01*
X524Y116D02*
X527Y116D01*
X531Y116D02*
X533Y116D01*
X543Y116D02*
X557Y116D01*
X587Y116D02*
X587Y116D01*
X592Y116D02*
X594Y116D01*
X647Y116D02*
X654Y116D01*
X0Y115D02*
X7Y115D01*
X86Y115D02*
X94Y115D01*
X525Y115D02*
X527Y115D01*
X531Y115D02*
X533Y115D01*
X543Y115D02*
X545Y115D01*
X555Y115D02*
X557Y115D01*
X570Y115D02*
X572Y115D01*
X586Y115D02*
X588Y115D01*
X592Y115D02*
X594Y115D01*
X647Y115D02*
X654Y115D01*
X0Y114D02*
X7Y114D01*
X88Y114D02*
X97Y114D01*
X525Y114D02*
X527Y114D01*
X530Y114D02*
X533Y114D01*
X543Y114D02*
X545Y114D01*
X555Y114D02*
X557Y114D01*
X569Y114D02*
X574Y114D01*
X586Y114D02*
X588Y114D01*
X592Y114D02*
X594Y114D01*
X647Y114D02*
X654Y114D01*
X0Y113D02*
X7Y113D01*
X88Y113D02*
X89Y113D01*
X93Y113D02*
X100Y113D01*
X525Y113D02*
X528Y113D01*
X530Y113D02*
X532Y113D01*
X543Y113D02*
X545Y113D01*
X555Y113D02*
X557Y113D01*
X569Y113D02*
X574Y113D01*
X586Y113D02*
X588Y113D01*
X592Y113D02*
X594Y113D01*
X647Y113D02*
X654Y113D01*
X0Y112D02*
X7Y112D01*
X88Y112D02*
X89Y112D01*
X95Y112D02*
X100Y112D01*
X526Y112D02*
X532Y112D01*
X543Y112D02*
X545Y112D01*
X555Y112D02*
X557Y112D01*
X569Y112D02*
X574Y112D01*
X586Y112D02*
X588Y112D01*
X592Y112D02*
X594Y112D01*
X647Y112D02*
X654Y112D01*
X0Y111D02*
X7Y111D01*
X88Y111D02*
X89Y111D01*
X92Y111D02*
X99Y111D01*
X526Y111D02*
X531Y111D01*
X543Y111D02*
X545Y111D01*
X555Y111D02*
X557Y111D01*
X569Y111D02*
X574Y111D01*
X586Y111D02*
X588Y111D01*
X592Y111D02*
X594Y111D01*
X647Y111D02*
X654Y111D01*
X0Y110D02*
X7Y110D01*
X88Y110D02*
X96Y110D01*
X527Y110D02*
X531Y110D01*
X543Y110D02*
X545Y110D01*
X555Y110D02*
X557Y110D01*
X569Y110D02*
X573Y110D01*
X586Y110D02*
X588Y110D01*
X592Y110D02*
X594Y110D01*
X647Y110D02*
X654Y110D01*
X0Y109D02*
X7Y109D01*
X86Y109D02*
X93Y109D01*
X527Y109D02*
X531Y109D01*
X543Y109D02*
X545Y109D01*
X555Y109D02*
X557Y109D01*
X586Y109D02*
X588Y109D01*
X591Y109D02*
X594Y109D01*
X647Y109D02*
X654Y109D01*
X0Y108D02*
X7Y108D01*
X84Y108D02*
X89Y108D01*
X527Y108D02*
X530Y108D01*
X543Y108D02*
X557Y108D01*
X586Y108D02*
X599Y108D01*
X647Y108D02*
X654Y108D01*
X0Y107D02*
X7Y107D01*
X84Y107D02*
X86Y107D01*
X528Y107D02*
X530Y107D01*
X544Y107D02*
X556Y107D01*
X586Y107D02*
X599Y107D01*
X647Y107D02*
X654Y107D01*
X0Y106D02*
X7Y106D01*
X529Y106D02*
X529Y106D01*
X545Y106D02*
X555Y106D01*
X587Y106D02*
X598Y106D01*
X647Y106D02*
X654Y106D01*
X0Y105D02*
X7Y105D01*
X647Y105D02*
X654Y105D01*
X0Y104D02*
X7Y104D01*
X647Y104D02*
X654Y104D01*
X0Y103D02*
X7Y103D01*
X647Y103D02*
X654Y103D01*
X0Y102D02*
X7Y102D01*
X647Y102D02*
X654Y102D01*
X0Y101D02*
X7Y101D01*
X647Y101D02*
X654Y101D01*
X0Y100D02*
X7Y100D01*
X647Y100D02*
X654Y100D01*
X0Y99D02*
X7Y99D01*
X647Y99D02*
X654Y99D01*
X0Y98D02*
X7Y98D01*
X647Y98D02*
X654Y98D01*
X0Y97D02*
X7Y97D01*
X647Y97D02*
X654Y97D01*
X0Y96D02*
X7Y96D01*
X647Y96D02*
X654Y96D01*
X0Y95D02*
X7Y95D01*
X647Y95D02*
X654Y95D01*
X0Y94D02*
X7Y94D01*
X647Y94D02*
X654Y94D01*
X0Y93D02*
X7Y93D01*
X647Y93D02*
X654Y93D01*
X0Y92D02*
X7Y92D01*
X647Y92D02*
X654Y92D01*
X0Y91D02*
X7Y91D01*
X647Y91D02*
X654Y91D01*
X0Y90D02*
X7Y90D01*
X647Y90D02*
X654Y90D01*
X0Y89D02*
X7Y89D01*
X647Y89D02*
X654Y89D01*
X0Y88D02*
X7Y88D01*
X647Y88D02*
X654Y88D01*
X0Y87D02*
X7Y87D01*
X647Y87D02*
X654Y87D01*
X0Y86D02*
X7Y86D01*
X647Y86D02*
X654Y86D01*
X0Y85D02*
X7Y85D01*
X647Y85D02*
X654Y85D01*
X0Y84D02*
X7Y84D01*
X647Y84D02*
X654Y84D01*
X0Y83D02*
X7Y83D01*
X647Y83D02*
X654Y83D01*
X0Y82D02*
X7Y82D01*
X647Y82D02*
X654Y82D01*
X0Y81D02*
X7Y81D01*
X647Y81D02*
X654Y81D01*
X0Y80D02*
X7Y80D01*
X647Y80D02*
X654Y80D01*
X0Y79D02*
X7Y79D01*
X647Y79D02*
X654Y79D01*
X0Y78D02*
X7Y78D01*
X647Y78D02*
X654Y78D01*
X0Y77D02*
X7Y77D01*
X647Y77D02*
X654Y77D01*
X0Y76D02*
X7Y76D01*
X647Y76D02*
X654Y76D01*
X0Y75D02*
X7Y75D01*
X647Y75D02*
X654Y75D01*
X0Y74D02*
X7Y74D01*
X647Y74D02*
X654Y74D01*
X0Y73D02*
X7Y73D01*
X647Y73D02*
X654Y73D01*
X0Y72D02*
X7Y72D01*
X647Y72D02*
X654Y72D01*
X0Y71D02*
X7Y71D01*
X647Y71D02*
X654Y71D01*
X0Y70D02*
X7Y70D01*
X647Y70D02*
X654Y70D01*
X0Y69D02*
X7Y69D01*
X647Y69D02*
X654Y69D01*
X0Y68D02*
X7Y68D01*
X647Y68D02*
X654Y68D01*
X0Y67D02*
X7Y67D01*
X647Y67D02*
X654Y67D01*
X0Y66D02*
X7Y66D01*
X647Y66D02*
X654Y66D01*
X0Y65D02*
X7Y65D01*
X647Y65D02*
X654Y65D01*
X0Y64D02*
X7Y64D01*
X647Y64D02*
X654Y64D01*
X0Y63D02*
X7Y63D01*
X647Y63D02*
X654Y63D01*
X0Y62D02*
X7Y62D01*
X647Y62D02*
X654Y62D01*
X0Y61D02*
X7Y61D01*
X647Y61D02*
X654Y61D01*
X0Y60D02*
X7Y60D01*
X647Y60D02*
X654Y60D01*
X0Y59D02*
X7Y59D01*
X647Y59D02*
X654Y59D01*
X0Y58D02*
X7Y58D01*
X647Y58D02*
X654Y58D01*
X0Y57D02*
X7Y57D01*
X647Y57D02*
X654Y57D01*
X0Y56D02*
X7Y56D01*
X647Y56D02*
X654Y56D01*
X0Y55D02*
X7Y55D01*
X647Y55D02*
X654Y55D01*
X0Y54D02*
X7Y54D01*
X647Y54D02*
X654Y54D01*
X0Y53D02*
X7Y53D01*
X647Y53D02*
X654Y53D01*
X0Y52D02*
X7Y52D01*
X647Y52D02*
X654Y52D01*
X0Y51D02*
X7Y51D01*
X647Y51D02*
X654Y51D01*
X0Y50D02*
X7Y50D01*
X647Y50D02*
X654Y50D01*
X0Y49D02*
X7Y49D01*
X647Y49D02*
X654Y49D01*
X0Y48D02*
X7Y48D01*
X647Y48D02*
X654Y48D01*
X0Y47D02*
X7Y47D01*
X647Y47D02*
X654Y47D01*
X0Y46D02*
X7Y46D01*
X647Y46D02*
X654Y46D01*
X0Y45D02*
X7Y45D01*
X647Y45D02*
X654Y45D01*
X0Y44D02*
X7Y44D01*
X647Y44D02*
X654Y44D01*
X0Y43D02*
X7Y43D01*
X647Y43D02*
X654Y43D01*
X0Y42D02*
X7Y42D01*
X647Y42D02*
X654Y42D01*
X0Y41D02*
X7Y41D01*
X647Y41D02*
X654Y41D01*
X0Y40D02*
X7Y40D01*
X647Y40D02*
X654Y40D01*
X0Y39D02*
X7Y39D01*
X647Y39D02*
X654Y39D01*
X0Y38D02*
X7Y38D01*
X647Y38D02*
X654Y38D01*
X0Y37D02*
X7Y37D01*
X647Y37D02*
X654Y37D01*
X0Y36D02*
X7Y36D01*
X38Y36D02*
X47Y36D01*
X58Y36D02*
X59Y36D01*
X96Y36D02*
X96Y36D01*
X108Y36D02*
X109Y36D01*
X138Y36D02*
X146Y36D01*
X159Y36D02*
X160Y36D01*
X183Y36D02*
X193Y36D01*
X200Y36D02*
X207Y36D01*
X215Y36D02*
X223Y36D01*
X249Y36D02*
X258Y36D01*
X303Y36D02*
X308Y36D01*
X350Y36D02*
X359Y36D01*
X399Y36D02*
X407Y36D01*
X457Y36D02*
X457Y36D01*
X484Y36D02*
X488Y36D01*
X498Y36D02*
X503Y36D01*
X513Y36D02*
X513Y36D01*
X521Y36D02*
X521Y36D01*
X539Y36D02*
X544Y36D01*
X550Y36D02*
X550Y36D01*
X557Y36D02*
X559Y36D01*
X565Y36D02*
X569Y36D01*
X584Y36D02*
X584Y36D01*
X592Y36D02*
X593Y36D01*
X600Y36D02*
X608Y36D01*
X615Y36D02*
X615Y36D01*
X624Y36D02*
X624Y36D01*
X647Y36D02*
X654Y36D01*
X0Y35D02*
X7Y35D01*
X37Y35D02*
X47Y35D01*
X58Y35D02*
X59Y35D01*
X96Y35D02*
X97Y35D01*
X108Y35D02*
X109Y35D01*
X138Y35D02*
X146Y35D01*
X159Y35D02*
X160Y35D01*
X183Y35D02*
X193Y35D01*
X199Y35D02*
X207Y35D01*
X214Y35D02*
X223Y35D01*
X248Y35D02*
X258Y35D01*
X303Y35D02*
X308Y35D01*
X349Y35D02*
X359Y35D01*
X398Y35D02*
X408Y35D01*
X456Y35D02*
X457Y35D01*
X483Y35D02*
X489Y35D01*
X498Y35D02*
X504Y35D01*
X513Y35D02*
X514Y35D01*
X521Y35D02*
X522Y35D01*
X538Y35D02*
X544Y35D01*
X550Y35D02*
X551Y35D01*
X557Y35D02*
X559Y35D01*
X565Y35D02*
X570Y35D01*
X584Y35D02*
X585Y35D01*
X591Y35D02*
X593Y35D01*
X599Y35D02*
X609Y35D01*
X615Y35D02*
X616Y35D01*
X623Y35D02*
X624Y35D01*
X647Y35D02*
X654Y35D01*
X0Y34D02*
X7Y34D01*
X37Y34D02*
X39Y34D01*
X57Y34D02*
X60Y34D01*
X89Y34D02*
X90Y34D01*
X95Y34D02*
X97Y34D01*
X107Y34D02*
X109Y34D01*
X145Y34D02*
X146Y34D01*
X158Y34D02*
X160Y34D01*
X183Y34D02*
X184Y34D01*
X187Y34D02*
X189Y34D01*
X191Y34D02*
X193Y34D01*
X198Y34D02*
X200Y34D01*
X206Y34D02*
X208Y34D01*
X214Y34D02*
X215Y34D01*
X222Y34D02*
X223Y34D01*
X248Y34D02*
X249Y34D01*
X257Y34D02*
X258Y34D01*
X303Y34D02*
X304Y34D01*
X349Y34D02*
X350Y34D01*
X398Y34D02*
X406Y34D01*
X450Y34D02*
X450Y34D01*
X456Y34D02*
X457Y34D01*
X488Y34D02*
X490Y34D01*
X503Y34D02*
X505Y34D01*
X513Y34D02*
X514Y34D01*
X521Y34D02*
X522Y34D01*
X537Y34D02*
X539Y34D01*
X541Y34D02*
X542Y34D01*
X550Y34D02*
X551Y34D01*
X556Y34D02*
X559Y34D01*
X569Y34D02*
X571Y34D01*
X584Y34D02*
X585Y34D01*
X591Y34D02*
X593Y34D01*
X603Y34D02*
X605Y34D01*
X615Y34D02*
X616Y34D01*
X623Y34D02*
X624Y34D01*
X647Y34D02*
X654Y34D01*
X0Y33D02*
X7Y33D01*
X37Y33D02*
X38Y33D01*
X57Y33D02*
X60Y33D01*
X89Y33D02*
X90Y33D01*
X95Y33D02*
X97Y33D01*
X107Y33D02*
X110Y33D01*
X145Y33D02*
X146Y33D01*
X158Y33D02*
X161Y33D01*
X184Y33D02*
X184Y33D01*
X187Y33D02*
X188Y33D01*
X192Y33D02*
X192Y33D01*
X199Y33D02*
X199Y33D01*
X206Y33D02*
X207Y33D01*
X213Y33D02*
X215Y33D01*
X222Y33D02*
X223Y33D01*
X248Y33D02*
X249Y33D01*
X257Y33D02*
X258Y33D01*
X303Y33D02*
X304Y33D01*
X349Y33D02*
X350Y33D01*
X398Y33D02*
X399Y33D01*
X449Y33D02*
X451Y33D01*
X456Y33D02*
X457Y33D01*
X489Y33D02*
X491Y33D01*
X504Y33D02*
X505Y33D01*
X513Y33D02*
X514Y33D01*
X521Y33D02*
X522Y33D01*
X537Y33D02*
X538Y33D01*
X541Y33D02*
X542Y33D01*
X550Y33D02*
X551Y33D01*
X556Y33D02*
X559Y33D01*
X570Y33D02*
X572Y33D01*
X584Y33D02*
X585Y33D01*
X590Y33D02*
X593Y33D01*
X603Y33D02*
X605Y33D01*
X615Y33D02*
X616Y33D01*
X623Y33D02*
X624Y33D01*
X647Y33D02*
X654Y33D01*
X0Y32D02*
X7Y32D01*
X37Y32D02*
X38Y32D01*
X57Y32D02*
X60Y32D01*
X89Y32D02*
X90Y32D01*
X95Y32D02*
X97Y32D01*
X107Y32D02*
X110Y32D01*
X145Y32D02*
X146Y32D01*
X158Y32D02*
X161Y32D01*
X187Y32D02*
X188Y32D01*
X205Y32D02*
X207Y32D01*
X213Y32D02*
X215Y32D01*
X222Y32D02*
X223Y32D01*
X248Y32D02*
X249Y32D01*
X257Y32D02*
X258Y32D01*
X303Y32D02*
X304Y32D01*
X349Y32D02*
X350Y32D01*
X398Y32D02*
X399Y32D01*
X449Y32D02*
X451Y32D01*
X456Y32D02*
X457Y32D01*
X490Y32D02*
X491Y32D01*
X505Y32D02*
X506Y32D01*
X513Y32D02*
X514Y32D01*
X521Y32D02*
X522Y32D01*
X536Y32D02*
X538Y32D01*
X541Y32D02*
X542Y32D01*
X550Y32D02*
X551Y32D01*
X555Y32D02*
X559Y32D01*
X571Y32D02*
X573Y32D01*
X584Y32D02*
X585Y32D01*
X590Y32D02*
X593Y32D01*
X603Y32D02*
X605Y32D01*
X615Y32D02*
X616Y32D01*
X623Y32D02*
X624Y32D01*
X647Y32D02*
X654Y32D01*
X0Y31D02*
X7Y31D01*
X37Y31D02*
X38Y31D01*
X56Y31D02*
X60Y31D01*
X89Y31D02*
X90Y31D01*
X95Y31D02*
X97Y31D01*
X106Y31D02*
X110Y31D01*
X145Y31D02*
X146Y31D01*
X157Y31D02*
X161Y31D01*
X187Y31D02*
X188Y31D01*
X204Y31D02*
X206Y31D01*
X214Y31D02*
X223Y31D01*
X248Y31D02*
X249Y31D01*
X257Y31D02*
X258Y31D01*
X303Y31D02*
X304Y31D01*
X349Y31D02*
X350Y31D01*
X398Y31D02*
X399Y31D01*
X449Y31D02*
X451Y31D01*
X456Y31D02*
X457Y31D01*
X490Y31D02*
X492Y31D01*
X505Y31D02*
X506Y31D01*
X513Y31D02*
X514Y31D01*
X521Y31D02*
X522Y31D01*
X536Y31D02*
X537Y31D01*
X541Y31D02*
X542Y31D01*
X550Y31D02*
X551Y31D01*
X555Y31D02*
X556Y31D01*
X558Y31D02*
X559Y31D01*
X572Y31D02*
X573Y31D01*
X584Y31D02*
X585Y31D01*
X589Y31D02*
X593Y31D01*
X603Y31D02*
X605Y31D01*
X615Y31D02*
X616Y31D01*
X623Y31D02*
X624Y31D01*
X647Y31D02*
X654Y31D01*
X0Y30D02*
X7Y30D01*
X37Y30D02*
X38Y30D01*
X56Y30D02*
X61Y30D01*
X89Y30D02*
X90Y30D01*
X95Y30D02*
X97Y30D01*
X106Y30D02*
X111Y30D01*
X145Y30D02*
X146Y30D01*
X157Y30D02*
X158Y30D01*
X160Y30D02*
X162Y30D01*
X187Y30D02*
X188Y30D01*
X204Y30D02*
X205Y30D01*
X214Y30D02*
X223Y30D01*
X248Y30D02*
X249Y30D01*
X257Y30D02*
X258Y30D01*
X303Y30D02*
X304Y30D01*
X349Y30D02*
X350Y30D01*
X398Y30D02*
X399Y30D01*
X449Y30D02*
X451Y30D01*
X456Y30D02*
X457Y30D01*
X491Y30D02*
X492Y30D01*
X506Y30D02*
X507Y30D01*
X513Y30D02*
X515Y30D01*
X520Y30D02*
X521Y30D01*
X535Y30D02*
X537Y30D01*
X541Y30D02*
X542Y30D01*
X550Y30D02*
X551Y30D01*
X555Y30D02*
X556Y30D01*
X558Y30D02*
X559Y30D01*
X572Y30D02*
X574Y30D01*
X584Y30D02*
X585Y30D01*
X589Y30D02*
X590Y30D01*
X592Y30D02*
X593Y30D01*
X603Y30D02*
X605Y30D01*
X615Y30D02*
X616Y30D01*
X622Y30D02*
X624Y30D01*
X647Y30D02*
X654Y30D01*
X0Y29D02*
X7Y29D01*
X37Y29D02*
X39Y29D01*
X56Y29D02*
X57Y29D01*
X60Y29D02*
X61Y29D01*
X89Y29D02*
X90Y29D01*
X95Y29D02*
X97Y29D01*
X106Y29D02*
X107Y29D01*
X110Y29D02*
X111Y29D01*
X145Y29D02*
X146Y29D01*
X157Y29D02*
X158Y29D01*
X161Y29D02*
X162Y29D01*
X187Y29D02*
X188Y29D01*
X203Y29D02*
X204Y29D01*
X216Y29D02*
X223Y29D01*
X248Y29D02*
X249Y29D01*
X257Y29D02*
X258Y29D01*
X303Y29D02*
X304Y29D01*
X349Y29D02*
X358Y29D01*
X398Y29D02*
X400Y29D01*
X449Y29D02*
X451Y29D01*
X456Y29D02*
X457Y29D01*
X491Y29D02*
X492Y29D01*
X506Y29D02*
X507Y29D01*
X514Y29D02*
X515Y29D01*
X520Y29D02*
X521Y29D01*
X535Y29D02*
X536Y29D01*
X541Y29D02*
X542Y29D01*
X550Y29D02*
X551Y29D01*
X554Y29D02*
X555Y29D01*
X558Y29D02*
X559Y29D01*
X573Y29D02*
X574Y29D01*
X584Y29D02*
X585Y29D01*
X588Y29D02*
X590Y29D01*
X592Y29D02*
X593Y29D01*
X603Y29D02*
X605Y29D01*
X615Y29D02*
X617Y29D01*
X622Y29D02*
X623Y29D01*
X647Y29D02*
X654Y29D01*
X0Y28D02*
X7Y28D01*
X38Y28D02*
X45Y28D01*
X56Y28D02*
X57Y28D01*
X60Y28D02*
X61Y28D01*
X89Y28D02*
X90Y28D01*
X95Y28D02*
X97Y28D01*
X106Y28D02*
X107Y28D01*
X110Y28D02*
X111Y28D01*
X139Y28D02*
X146Y28D01*
X157Y28D02*
X158Y28D01*
X161Y28D02*
X162Y28D01*
X187Y28D02*
X188Y28D01*
X202Y28D02*
X204Y28D01*
X217Y28D02*
X219Y28D01*
X222Y28D02*
X223Y28D01*
X248Y28D02*
X249Y28D01*
X257Y28D02*
X258Y28D01*
X303Y28D02*
X304Y28D01*
X349Y28D02*
X359Y28D01*
X398Y28D02*
X406Y28D01*
X417Y28D02*
X419Y28D01*
X449Y28D02*
X451Y28D01*
X456Y28D02*
X457Y28D01*
X491Y28D02*
X492Y28D01*
X506Y28D02*
X507Y28D01*
X514Y28D02*
X515Y28D01*
X519Y28D02*
X521Y28D01*
X535Y28D02*
X536Y28D01*
X541Y28D02*
X542Y28D01*
X550Y28D02*
X551Y28D01*
X554Y28D02*
X555Y28D01*
X558Y28D02*
X559Y28D01*
X573Y28D02*
X574Y28D01*
X584Y28D02*
X585Y28D01*
X588Y28D02*
X589Y28D01*
X592Y28D02*
X593Y28D01*
X603Y28D02*
X605Y28D01*
X616Y28D02*
X617Y28D01*
X622Y28D02*
X623Y28D01*
X647Y28D02*
X654Y28D01*
X0Y27D02*
X7Y27D01*
X38Y27D02*
X45Y27D01*
X55Y27D02*
X57Y27D01*
X60Y27D02*
X62Y27D01*
X89Y27D02*
X91Y27D01*
X95Y27D02*
X97Y27D01*
X105Y27D02*
X107Y27D01*
X110Y27D02*
X112Y27D01*
X138Y27D02*
X146Y27D01*
X156Y27D02*
X158Y27D01*
X161Y27D02*
X162Y27D01*
X187Y27D02*
X188Y27D01*
X201Y27D02*
X203Y27D01*
X217Y27D02*
X218Y27D01*
X222Y27D02*
X223Y27D01*
X248Y27D02*
X249Y27D01*
X257Y27D02*
X258Y27D01*
X303Y27D02*
X304Y27D01*
X351Y27D02*
X359Y27D01*
X398Y27D02*
X406Y27D01*
X410Y27D02*
X421Y27D01*
X449Y27D02*
X451Y27D01*
X456Y27D02*
X457Y27D01*
X491Y27D02*
X492Y27D01*
X506Y27D02*
X507Y27D01*
X515Y27D02*
X516Y27D01*
X519Y27D02*
X520Y27D01*
X535Y27D02*
X536Y27D01*
X541Y27D02*
X542Y27D01*
X550Y27D02*
X551Y27D01*
X553Y27D02*
X554Y27D01*
X558Y27D02*
X559Y27D01*
X565Y27D02*
X568Y27D01*
X573Y27D02*
X574Y27D01*
X584Y27D02*
X585Y27D01*
X587Y27D02*
X589Y27D01*
X592Y27D02*
X593Y27D01*
X603Y27D02*
X605Y27D01*
X616Y27D02*
X618Y27D01*
X621Y27D02*
X623Y27D01*
X647Y27D02*
X654Y27D01*
X0Y26D02*
X7Y26D01*
X37Y26D02*
X39Y26D01*
X55Y26D02*
X56Y26D01*
X60Y26D02*
X62Y26D01*
X88Y26D02*
X97Y26D01*
X105Y26D02*
X106Y26D01*
X110Y26D02*
X112Y26D01*
X138Y26D02*
X139Y26D01*
X156Y26D02*
X157Y26D01*
X161Y26D02*
X163Y26D01*
X187Y26D02*
X188Y26D01*
X200Y26D02*
X202Y26D01*
X216Y26D02*
X218Y26D01*
X222Y26D02*
X223Y26D01*
X248Y26D02*
X249Y26D01*
X257Y26D02*
X258Y26D01*
X298Y26D02*
X299Y26D01*
X303Y26D02*
X304Y26D01*
X358Y26D02*
X359Y26D01*
X398Y26D02*
X400Y26D01*
X411Y26D02*
X416Y26D01*
X420Y26D02*
X421Y26D01*
X448Y26D02*
X457Y26D01*
X490Y26D02*
X492Y26D01*
X505Y26D02*
X507Y26D01*
X515Y26D02*
X516Y26D01*
X519Y26D02*
X520Y26D01*
X536Y26D02*
X537Y26D01*
X541Y26D02*
X542Y26D01*
X550Y26D02*
X551Y26D01*
X553Y26D02*
X554Y26D01*
X558Y26D02*
X559Y26D01*
X565Y26D02*
X568Y26D01*
X573Y26D02*
X574Y26D01*
X584Y26D02*
X585Y26D01*
X587Y26D02*
X588Y26D01*
X592Y26D02*
X593Y26D01*
X603Y26D02*
X605Y26D01*
X617Y26D02*
X618Y26D01*
X621Y26D02*
X622Y26D01*
X647Y26D02*
X654Y26D01*
X0Y25D02*
X7Y25D01*
X37Y25D02*
X38Y25D01*
X55Y25D02*
X62Y25D01*
X88Y25D02*
X97Y25D01*
X105Y25D02*
X112Y25D01*
X138Y25D02*
X139Y25D01*
X156Y25D02*
X163Y25D01*
X187Y25D02*
X188Y25D01*
X200Y25D02*
X201Y25D01*
X215Y25D02*
X217Y25D01*
X222Y25D02*
X223Y25D01*
X248Y25D02*
X249Y25D01*
X257Y25D02*
X258Y25D01*
X298Y25D02*
X300Y25D01*
X303Y25D02*
X304Y25D01*
X358Y25D02*
X359Y25D01*
X398Y25D02*
X399Y25D01*
X413Y25D02*
X413Y25D01*
X449Y25D02*
X457Y25D01*
X490Y25D02*
X491Y25D01*
X505Y25D02*
X506Y25D01*
X515Y25D02*
X519Y25D01*
X536Y25D02*
X537Y25D01*
X541Y25D02*
X542Y25D01*
X550Y25D02*
X554Y25D01*
X558Y25D02*
X559Y25D01*
X565Y25D02*
X566Y25D01*
X573Y25D02*
X574Y25D01*
X584Y25D02*
X585Y25D01*
X587Y25D02*
X588Y25D01*
X592Y25D02*
X593Y25D01*
X603Y25D02*
X605Y25D01*
X617Y25D02*
X618Y25D01*
X620Y25D02*
X622Y25D01*
X647Y25D02*
X654Y25D01*
X0Y24D02*
X7Y24D01*
X37Y24D02*
X38Y24D01*
X54Y24D02*
X62Y24D01*
X89Y24D02*
X90Y24D01*
X104Y24D02*
X112Y24D01*
X138Y24D02*
X139Y24D01*
X155Y24D02*
X163Y24D01*
X187Y24D02*
X188Y24D01*
X199Y24D02*
X201Y24D01*
X215Y24D02*
X216Y24D01*
X222Y24D02*
X223Y24D01*
X248Y24D02*
X249Y24D01*
X257Y24D02*
X258Y24D01*
X298Y24D02*
X300Y24D01*
X303Y24D02*
X304Y24D01*
X358Y24D02*
X359Y24D01*
X398Y24D02*
X399Y24D01*
X449Y24D02*
X451Y24D01*
X489Y24D02*
X491Y24D01*
X504Y24D02*
X506Y24D01*
X516Y24D02*
X519Y24D01*
X537Y24D02*
X538Y24D01*
X541Y24D02*
X542Y24D01*
X550Y24D02*
X553Y24D01*
X558Y24D02*
X559Y24D01*
X565Y24D02*
X566Y24D01*
X573Y24D02*
X574Y24D01*
X584Y24D02*
X588Y24D01*
X592Y24D02*
X593Y24D01*
X603Y24D02*
X605Y24D01*
X617Y24D02*
X621Y24D01*
X647Y24D02*
X654Y24D01*
X0Y23D02*
X7Y23D01*
X37Y23D02*
X38Y23D01*
X54Y23D02*
X63Y23D01*
X89Y23D02*
X90Y23D01*
X104Y23D02*
X113Y23D01*
X138Y23D02*
X139Y23D01*
X155Y23D02*
X164Y23D01*
X187Y23D02*
X188Y23D01*
X198Y23D02*
X200Y23D01*
X207Y23D02*
X208Y23D01*
X214Y23D02*
X216Y23D01*
X222Y23D02*
X223Y23D01*
X248Y23D02*
X249Y23D01*
X257Y23D02*
X258Y23D01*
X298Y23D02*
X300Y23D01*
X303Y23D02*
X304Y23D01*
X358Y23D02*
X359Y23D01*
X398Y23D02*
X399Y23D01*
X449Y23D02*
X451Y23D01*
X489Y23D02*
X490Y23D01*
X504Y23D02*
X505Y23D01*
X516Y23D02*
X519Y23D01*
X537Y23D02*
X538Y23D01*
X541Y23D02*
X542Y23D01*
X550Y23D02*
X553Y23D01*
X558Y23D02*
X559Y23D01*
X565Y23D02*
X566Y23D01*
X573Y23D02*
X574Y23D01*
X584Y23D02*
X587Y23D01*
X592Y23D02*
X593Y23D01*
X603Y23D02*
X605Y23D01*
X618Y23D02*
X621Y23D01*
X647Y23D02*
X654Y23D01*
X0Y22D02*
X7Y22D01*
X37Y22D02*
X38Y22D01*
X54Y22D02*
X55Y22D01*
X62Y22D02*
X63Y22D01*
X89Y22D02*
X90Y22D01*
X104Y22D02*
X105Y22D01*
X112Y22D02*
X113Y22D01*
X138Y22D02*
X139Y22D01*
X155Y22D02*
X156Y22D01*
X163Y22D02*
X164Y22D01*
X187Y22D02*
X188Y22D01*
X198Y22D02*
X208Y22D01*
X214Y22D02*
X215Y22D01*
X222Y22D02*
X223Y22D01*
X248Y22D02*
X249Y22D01*
X257Y22D02*
X258Y22D01*
X298Y22D02*
X300Y22D01*
X303Y22D02*
X304Y22D01*
X358Y22D02*
X359Y22D01*
X398Y22D02*
X399Y22D01*
X449Y22D02*
X451Y22D01*
X484Y22D02*
X490Y22D01*
X498Y22D02*
X505Y22D01*
X516Y22D02*
X518Y22D01*
X538Y22D02*
X544Y22D01*
X550Y22D02*
X552Y22D01*
X558Y22D02*
X559Y22D01*
X565Y22D02*
X573Y22D01*
X584Y22D02*
X587Y22D01*
X592Y22D02*
X593Y22D01*
X603Y22D02*
X605Y22D01*
X618Y22D02*
X621Y22D01*
X647Y22D02*
X654Y22D01*
X0Y21D02*
X7Y21D01*
X37Y21D02*
X47Y21D01*
X54Y21D02*
X55Y21D01*
X62Y21D02*
X63Y21D01*
X89Y21D02*
X90Y21D01*
X104Y21D02*
X105Y21D01*
X112Y21D02*
X113Y21D01*
X138Y21D02*
X148Y21D01*
X154Y21D02*
X156Y21D01*
X163Y21D02*
X164Y21D01*
X187Y21D02*
X188Y21D01*
X199Y21D02*
X207Y21D01*
X213Y21D02*
X215Y21D01*
X222Y21D02*
X223Y21D01*
X248Y21D02*
X258Y21D01*
X298Y21D02*
X308Y21D01*
X349Y21D02*
X359Y21D01*
X398Y21D02*
X407Y21D01*
X449Y21D02*
X451Y21D01*
X483Y21D02*
X489Y21D01*
X498Y21D02*
X504Y21D01*
X517Y21D02*
X518Y21D01*
X538Y21D02*
X544Y21D01*
X550Y21D02*
X552Y21D01*
X558Y21D02*
X559Y21D01*
X566Y21D02*
X573Y21D01*
X584Y21D02*
X586Y21D01*
X592Y21D02*
X593Y21D01*
X599Y21D02*
X609Y21D01*
X619Y21D02*
X620Y21D01*
X647Y21D02*
X654Y21D01*
X0Y20D02*
X7Y20D01*
X38Y20D02*
X47Y20D01*
X53Y20D02*
X55Y20D01*
X62Y20D02*
X63Y20D01*
X89Y20D02*
X90Y20D01*
X103Y20D02*
X105Y20D01*
X112Y20D02*
X113Y20D01*
X139Y20D02*
X148Y20D01*
X154Y20D02*
X156Y20D01*
X163Y20D02*
X164Y20D01*
X249Y20D02*
X257Y20D01*
X298Y20D02*
X308Y20D01*
X349Y20D02*
X359Y20D01*
X398Y20D02*
X408Y20D01*
X449Y20D02*
X451Y20D01*
X584Y20D02*
X586Y20D01*
X593Y20D02*
X593Y20D01*
X600Y20D02*
X608Y20D01*
X619Y20D02*
X620Y20D01*
X647Y20D02*
X654Y20D01*
X0Y19D02*
X7Y19D01*
X140Y19D02*
X145Y19D01*
X299Y19D02*
X307Y19D01*
X399Y19D02*
X407Y19D01*
X450Y19D02*
X450Y19D01*
X647Y19D02*
X654Y19D01*
X0Y18D02*
X7Y18D01*
X647Y18D02*
X654Y18D01*
X0Y17D02*
X7Y17D01*
X647Y17D02*
X654Y17D01*
X0Y16D02*
X7Y16D01*
X647Y16D02*
X654Y16D01*
X0Y15D02*
X7Y15D01*
X647Y15D02*
X654Y15D01*
X0Y14D02*
X7Y14D01*
X647Y14D02*
X654Y14D01*
X0Y13D02*
X7Y13D01*
X647Y13D02*
X654Y13D01*
X0Y12D02*
X7Y12D01*
X647Y12D02*
X654Y12D01*
X0Y11D02*
X7Y11D01*
X647Y11D02*
X654Y11D01*
X0Y10D02*
X7Y10D01*
X647Y10D02*
X654Y10D01*
X0Y9D02*
X654Y9D01*
X0Y8D02*
X654Y8D01*
X0Y7D02*
X654Y7D01*
X0Y6D02*
X654Y6D01*
X0Y5D02*
X654Y5D01*
X0Y4D02*
X654Y4D01*
X0Y3D02*
X654Y3D01*
X0Y2D02*
X654Y2D01*
D02*
G04 End of Silk0*
M02*