G04 MADE WITH FRITZING*
G04 WWW.FRITZING.ORG*
G04 DOUBLE SIDED*
G04 HOLES PLATED*
G04 CONTOUR ON CENTER OF CONTOUR VECTOR*
%ASAXBY*%
%FSLAX23Y23*%
%MOIN*%
%OFA0B0*%
%SFA1.0B1.0*%
%ADD10R,0.655324X0.456693X0.639324X0.440693*%
%ADD11C,0.008000*%
%ADD12C,0.005785*%
%ADD13R,0.001000X0.001000*%
%LNSILK1*%
G90*
G70*
G54D11*
X4Y453D02*
X651Y453D01*
X651Y4D01*
X4Y4D01*
X4Y453D01*
D02*
X620Y223D02*
X620Y189D01*
D02*
X508Y189D02*
X508Y223D01*
D02*
X554Y238D02*
X575Y238D01*
D02*
X355Y246D02*
X355Y297D01*
D02*
X496Y297D02*
X496Y246D01*
G54D12*
D02*
X122Y308D02*
X109Y308D01*
D02*
X109Y295D02*
X109Y308D01*
D02*
X278Y308D02*
X291Y308D01*
D02*
X291Y308D02*
X291Y295D01*
D02*
X109Y138D02*
X109Y125D01*
D02*
X109Y125D02*
X122Y125D01*
D02*
X278Y125D02*
X291Y138D01*
G54D13*
X391Y445D02*
X404Y445D01*
X85Y444D02*
X90Y444D01*
X105Y444D02*
X113Y444D01*
X134Y444D02*
X139Y444D01*
X154Y444D02*
X162Y444D01*
X184Y444D02*
X189Y444D01*
X203Y444D02*
X209Y444D01*
X290Y444D02*
X304Y444D01*
X344Y444D02*
X352Y444D01*
X390Y444D02*
X405Y444D01*
X441Y444D02*
X444Y444D01*
X493Y444D02*
X504Y444D01*
X584Y444D02*
X593Y444D01*
X602Y444D02*
X602Y444D01*
X612Y444D02*
X613Y444D01*
X28Y443D02*
X32Y443D01*
X43Y443D02*
X53Y443D01*
X59Y443D02*
X67Y443D01*
X84Y443D02*
X91Y443D01*
X103Y443D02*
X115Y443D01*
X133Y443D02*
X140Y443D01*
X153Y443D02*
X165Y443D01*
X183Y443D02*
X190Y443D01*
X202Y443D02*
X210Y443D01*
X232Y443D02*
X239Y443D01*
X253Y443D02*
X263Y443D01*
X289Y443D02*
X304Y443D01*
X344Y443D02*
X352Y443D01*
X390Y443D02*
X405Y443D01*
X441Y443D02*
X444Y443D01*
X493Y443D02*
X505Y443D01*
X584Y443D02*
X594Y443D01*
X601Y443D02*
X603Y443D01*
X612Y443D02*
X614Y443D01*
X27Y442D02*
X34Y442D01*
X43Y442D02*
X53Y442D01*
X59Y442D02*
X69Y442D01*
X84Y442D02*
X91Y442D01*
X104Y442D02*
X116Y442D01*
X133Y442D02*
X140Y442D01*
X153Y442D02*
X165Y442D01*
X183Y442D02*
X190Y442D01*
X203Y442D02*
X210Y442D01*
X232Y442D02*
X239Y442D01*
X252Y442D02*
X264Y442D01*
X289Y442D02*
X304Y442D01*
X344Y442D02*
X352Y442D01*
X390Y442D02*
X405Y442D01*
X441Y442D02*
X444Y442D01*
X493Y442D02*
X504Y442D01*
X532Y442D02*
X537Y442D01*
X544Y442D02*
X546Y442D01*
X553Y442D02*
X554Y442D01*
X560Y442D02*
X566Y442D01*
X584Y442D02*
X593Y442D01*
X601Y442D02*
X603Y442D01*
X612Y442D02*
X614Y442D01*
X28Y441D02*
X34Y441D01*
X43Y441D02*
X53Y441D01*
X59Y441D02*
X69Y441D01*
X89Y441D02*
X91Y441D01*
X114Y441D02*
X116Y441D01*
X138Y441D02*
X140Y441D01*
X163Y441D02*
X165Y441D01*
X188Y441D02*
X190Y441D01*
X208Y441D02*
X210Y441D01*
X233Y441D02*
X239Y441D01*
X252Y441D02*
X265Y441D01*
X289Y441D02*
X292Y441D01*
X302Y441D02*
X304Y441D01*
X344Y441D02*
X346Y441D01*
X350Y441D02*
X352Y441D01*
X391Y441D02*
X392Y441D01*
X403Y441D02*
X405Y441D01*
X441Y441D02*
X443Y441D01*
X493Y441D02*
X495Y441D01*
X531Y441D02*
X537Y441D01*
X544Y441D02*
X546Y441D01*
X552Y441D02*
X554Y441D01*
X560Y441D02*
X567Y441D01*
X584Y441D02*
X586Y441D01*
X601Y441D02*
X603Y441D01*
X612Y441D02*
X614Y441D01*
X29Y440D02*
X30Y440D01*
X33Y440D02*
X35Y440D01*
X43Y440D02*
X44Y440D01*
X48Y440D02*
X49Y440D01*
X52Y440D02*
X53Y440D01*
X59Y440D02*
X61Y440D01*
X68Y440D02*
X69Y440D01*
X89Y440D02*
X91Y440D01*
X114Y440D02*
X116Y440D01*
X138Y440D02*
X140Y440D01*
X164Y440D02*
X165Y440D01*
X188Y440D02*
X190Y440D01*
X208Y440D02*
X210Y440D01*
X237Y440D02*
X239Y440D01*
X252Y440D02*
X254Y440D01*
X263Y440D02*
X265Y440D01*
X289Y440D02*
X292Y440D01*
X302Y440D02*
X304Y440D01*
X344Y440D02*
X346Y440D01*
X350Y440D02*
X352Y440D01*
X403Y440D02*
X405Y440D01*
X441Y440D02*
X443Y440D01*
X493Y440D02*
X495Y440D01*
X530Y440D02*
X532Y440D01*
X544Y440D02*
X547Y440D01*
X552Y440D02*
X554Y440D01*
X562Y440D02*
X563Y440D01*
X566Y440D02*
X567Y440D01*
X584Y440D02*
X586Y440D01*
X601Y440D02*
X603Y440D01*
X612Y440D02*
X614Y440D01*
X29Y439D02*
X30Y439D01*
X34Y439D02*
X35Y439D01*
X48Y439D02*
X49Y439D01*
X59Y439D02*
X61Y439D01*
X68Y439D02*
X69Y439D01*
X89Y439D02*
X91Y439D01*
X114Y439D02*
X116Y439D01*
X138Y439D02*
X140Y439D01*
X164Y439D02*
X165Y439D01*
X188Y439D02*
X190Y439D01*
X208Y439D02*
X210Y439D01*
X237Y439D02*
X239Y439D01*
X252Y439D02*
X254Y439D01*
X263Y439D02*
X265Y439D01*
X289Y439D02*
X292Y439D01*
X302Y439D02*
X304Y439D01*
X344Y439D02*
X346Y439D01*
X350Y439D02*
X352Y439D01*
X403Y439D02*
X405Y439D01*
X441Y439D02*
X443Y439D01*
X493Y439D02*
X495Y439D01*
X530Y439D02*
X531Y439D01*
X544Y439D02*
X547Y439D01*
X552Y439D02*
X554Y439D01*
X562Y439D02*
X563Y439D01*
X566Y439D02*
X568Y439D01*
X584Y439D02*
X586Y439D01*
X601Y439D02*
X603Y439D01*
X612Y439D02*
X614Y439D01*
X29Y438D02*
X30Y438D01*
X34Y438D02*
X36Y438D01*
X48Y438D02*
X49Y438D01*
X59Y438D02*
X61Y438D01*
X68Y438D02*
X69Y438D01*
X89Y438D02*
X91Y438D01*
X114Y438D02*
X116Y438D01*
X138Y438D02*
X140Y438D01*
X164Y438D02*
X165Y438D01*
X188Y438D02*
X190Y438D01*
X208Y438D02*
X210Y438D01*
X237Y438D02*
X239Y438D01*
X252Y438D02*
X254Y438D01*
X263Y438D02*
X265Y438D01*
X289Y438D02*
X292Y438D01*
X302Y438D02*
X304Y438D01*
X344Y438D02*
X346Y438D01*
X350Y438D02*
X352Y438D01*
X403Y438D02*
X405Y438D01*
X441Y438D02*
X443Y438D01*
X493Y438D02*
X495Y438D01*
X529Y438D02*
X531Y438D01*
X544Y438D02*
X548Y438D01*
X552Y438D02*
X554Y438D01*
X562Y438D02*
X563Y438D01*
X567Y438D02*
X568Y438D01*
X584Y438D02*
X586Y438D01*
X601Y438D02*
X603Y438D01*
X612Y438D02*
X614Y438D01*
X29Y437D02*
X30Y437D01*
X35Y437D02*
X36Y437D01*
X48Y437D02*
X49Y437D01*
X59Y437D02*
X69Y437D01*
X89Y437D02*
X91Y437D01*
X114Y437D02*
X116Y437D01*
X138Y437D02*
X140Y437D01*
X164Y437D02*
X165Y437D01*
X188Y437D02*
X190Y437D01*
X208Y437D02*
X210Y437D01*
X237Y437D02*
X239Y437D01*
X252Y437D02*
X254Y437D01*
X263Y437D02*
X265Y437D01*
X289Y437D02*
X292Y437D01*
X302Y437D02*
X304Y437D01*
X344Y437D02*
X346Y437D01*
X350Y437D02*
X352Y437D01*
X403Y437D02*
X405Y437D01*
X441Y437D02*
X443Y437D01*
X493Y437D02*
X495Y437D01*
X528Y437D02*
X530Y437D01*
X544Y437D02*
X545Y437D01*
X547Y437D02*
X548Y437D01*
X552Y437D02*
X554Y437D01*
X562Y437D02*
X563Y437D01*
X567Y437D02*
X569Y437D01*
X584Y437D02*
X586Y437D01*
X601Y437D02*
X603Y437D01*
X611Y437D02*
X613Y437D01*
X29Y436D02*
X30Y436D01*
X35Y436D02*
X37Y436D01*
X48Y436D02*
X49Y436D01*
X59Y436D02*
X68Y436D01*
X89Y436D02*
X91Y436D01*
X114Y436D02*
X116Y436D01*
X138Y436D02*
X140Y436D01*
X164Y436D02*
X165Y436D01*
X188Y436D02*
X190Y436D01*
X208Y436D02*
X210Y436D01*
X237Y436D02*
X239Y436D01*
X252Y436D02*
X254Y436D01*
X263Y436D02*
X265Y436D01*
X289Y436D02*
X304Y436D01*
X344Y436D02*
X346Y436D01*
X350Y436D02*
X352Y436D01*
X402Y436D02*
X405Y436D01*
X441Y436D02*
X443Y436D01*
X493Y436D02*
X495Y436D01*
X528Y436D02*
X529Y436D01*
X544Y436D02*
X545Y436D01*
X547Y436D02*
X548Y436D01*
X552Y436D02*
X554Y436D01*
X562Y436D02*
X563Y436D01*
X568Y436D02*
X569Y436D01*
X584Y436D02*
X586Y436D01*
X602Y436D02*
X604Y436D01*
X611Y436D02*
X613Y436D01*
X29Y435D02*
X30Y435D01*
X36Y435D02*
X37Y435D01*
X48Y435D02*
X49Y435D01*
X59Y435D02*
X61Y435D01*
X63Y435D02*
X65Y435D01*
X89Y435D02*
X91Y435D01*
X113Y435D02*
X116Y435D01*
X138Y435D02*
X140Y435D01*
X163Y435D02*
X165Y435D01*
X188Y435D02*
X190Y435D01*
X208Y435D02*
X210Y435D01*
X237Y435D02*
X239Y435D01*
X252Y435D02*
X254Y435D01*
X263Y435D02*
X265Y435D01*
X289Y435D02*
X304Y435D01*
X344Y435D02*
X346Y435D01*
X350Y435D02*
X352Y435D01*
X401Y435D02*
X405Y435D01*
X441Y435D02*
X443Y435D01*
X493Y435D02*
X495Y435D01*
X527Y435D02*
X529Y435D01*
X544Y435D02*
X545Y435D01*
X547Y435D02*
X549Y435D01*
X552Y435D02*
X554Y435D01*
X562Y435D02*
X563Y435D01*
X568Y435D02*
X570Y435D01*
X584Y435D02*
X592Y435D01*
X602Y435D02*
X604Y435D01*
X610Y435D02*
X612Y435D01*
X29Y434D02*
X30Y434D01*
X36Y434D02*
X37Y434D01*
X48Y434D02*
X49Y434D01*
X59Y434D02*
X61Y434D01*
X64Y434D02*
X65Y434D01*
X89Y434D02*
X91Y434D01*
X106Y434D02*
X115Y434D01*
X138Y434D02*
X140Y434D01*
X154Y434D02*
X165Y434D01*
X176Y434D02*
X180Y434D01*
X185Y434D02*
X185Y434D01*
X188Y434D02*
X190Y434D01*
X208Y434D02*
X210Y434D01*
X237Y434D02*
X239Y434D01*
X252Y434D02*
X254Y434D01*
X263Y434D02*
X265Y434D01*
X280Y434D02*
X284Y434D01*
X289Y434D02*
X304Y434D01*
X344Y434D02*
X346Y434D01*
X350Y434D02*
X352Y434D01*
X400Y434D02*
X404Y434D01*
X431Y434D02*
X434Y434D01*
X440Y434D02*
X443Y434D01*
X482Y434D02*
X485Y434D01*
X493Y434D02*
X502Y434D01*
X527Y434D02*
X529Y434D01*
X544Y434D02*
X545Y434D01*
X548Y434D02*
X549Y434D01*
X552Y434D02*
X554Y434D01*
X562Y434D02*
X563Y434D01*
X569Y434D02*
X570Y434D01*
X584Y434D02*
X593Y434D01*
X603Y434D02*
X605Y434D01*
X610Y434D02*
X612Y434D01*
X29Y433D02*
X30Y433D01*
X35Y433D02*
X37Y433D01*
X48Y433D02*
X49Y433D01*
X59Y433D02*
X61Y433D01*
X64Y433D02*
X66Y433D01*
X89Y433D02*
X91Y433D01*
X106Y433D02*
X115Y433D01*
X138Y433D02*
X140Y433D01*
X153Y433D02*
X165Y433D01*
X175Y433D02*
X185Y433D01*
X188Y433D02*
X190Y433D01*
X208Y433D02*
X210Y433D01*
X226Y433D02*
X231Y433D01*
X235Y433D02*
X239Y433D01*
X252Y433D02*
X254Y433D01*
X263Y433D02*
X265Y433D01*
X279Y433D02*
X289Y433D01*
X302Y433D02*
X304Y433D01*
X342Y433D02*
X354Y433D01*
X399Y433D02*
X403Y433D01*
X430Y433D02*
X443Y433D01*
X481Y433D02*
X491Y433D01*
X493Y433D02*
X504Y433D01*
X527Y433D02*
X529Y433D01*
X534Y433D02*
X537Y433D01*
X544Y433D02*
X545Y433D01*
X548Y433D02*
X550Y433D01*
X552Y433D02*
X554Y433D01*
X562Y433D02*
X563Y433D01*
X568Y433D02*
X570Y433D01*
X584Y433D02*
X594Y433D01*
X603Y433D02*
X605Y433D01*
X610Y433D02*
X612Y433D01*
X29Y432D02*
X30Y432D01*
X35Y432D02*
X36Y432D01*
X48Y432D02*
X49Y432D01*
X59Y432D02*
X61Y432D01*
X65Y432D02*
X67Y432D01*
X89Y432D02*
X91Y432D01*
X95Y432D02*
X95Y432D01*
X107Y432D02*
X116Y432D01*
X138Y432D02*
X140Y432D01*
X144Y432D02*
X145Y432D01*
X153Y432D02*
X163Y432D01*
X175Y432D02*
X175Y432D01*
X180Y432D02*
X185Y432D01*
X188Y432D02*
X190Y432D01*
X194Y432D02*
X195Y432D01*
X208Y432D02*
X210Y432D01*
X214Y432D02*
X215Y432D01*
X225Y432D02*
X235Y432D01*
X237Y432D02*
X239Y432D01*
X252Y432D02*
X254Y432D01*
X263Y432D02*
X265Y432D01*
X279Y432D02*
X279Y432D01*
X284Y432D02*
X288Y432D01*
X302Y432D02*
X304Y432D01*
X341Y432D02*
X355Y432D01*
X398Y432D02*
X402Y432D01*
X430Y432D02*
X430Y432D01*
X434Y432D02*
X443Y432D01*
X480Y432D02*
X481Y432D01*
X485Y432D02*
X490Y432D01*
X493Y432D02*
X504Y432D01*
X527Y432D02*
X529Y432D01*
X533Y432D02*
X538Y432D01*
X544Y432D02*
X545Y432D01*
X549Y432D02*
X550Y432D01*
X552Y432D02*
X554Y432D01*
X562Y432D02*
X563Y432D01*
X568Y432D02*
X569Y432D01*
X592Y432D02*
X594Y432D01*
X603Y432D02*
X605Y432D01*
X609Y432D02*
X611Y432D01*
X29Y431D02*
X30Y431D01*
X34Y431D02*
X36Y431D01*
X48Y431D02*
X49Y431D01*
X59Y431D02*
X61Y431D01*
X66Y431D02*
X67Y431D01*
X89Y431D02*
X91Y431D01*
X94Y431D02*
X96Y431D01*
X114Y431D02*
X116Y431D01*
X138Y431D02*
X140Y431D01*
X144Y431D02*
X145Y431D01*
X153Y431D02*
X154Y431D01*
X188Y431D02*
X190Y431D01*
X193Y431D02*
X195Y431D01*
X208Y431D02*
X210Y431D01*
X213Y431D02*
X215Y431D01*
X225Y431D02*
X225Y431D01*
X231Y431D02*
X235Y431D01*
X237Y431D02*
X239Y431D01*
X243Y431D02*
X245Y431D01*
X252Y431D02*
X254Y431D01*
X263Y431D02*
X265Y431D01*
X302Y431D02*
X304Y431D01*
X341Y431D02*
X355Y431D01*
X397Y431D02*
X400Y431D01*
X437Y431D02*
X438Y431D01*
X441Y431D02*
X455Y431D01*
X488Y431D02*
X488Y431D01*
X494Y431D02*
X505Y431D01*
X527Y431D02*
X529Y431D01*
X534Y431D02*
X538Y431D01*
X544Y431D02*
X545Y431D01*
X549Y431D02*
X554Y431D01*
X562Y431D02*
X563Y431D01*
X567Y431D02*
X569Y431D01*
X592Y431D02*
X594Y431D01*
X604Y431D02*
X606Y431D01*
X609Y431D02*
X611Y431D01*
X29Y430D02*
X30Y430D01*
X34Y430D02*
X35Y430D01*
X48Y430D02*
X49Y430D01*
X59Y430D02*
X61Y430D01*
X66Y430D02*
X68Y430D01*
X89Y430D02*
X91Y430D01*
X94Y430D02*
X96Y430D01*
X114Y430D02*
X116Y430D01*
X138Y430D02*
X140Y430D01*
X144Y430D02*
X145Y430D01*
X153Y430D02*
X154Y430D01*
X188Y430D02*
X190Y430D01*
X193Y430D02*
X195Y430D01*
X208Y430D02*
X210Y430D01*
X213Y430D02*
X215Y430D01*
X237Y430D02*
X239Y430D01*
X243Y430D02*
X245Y430D01*
X252Y430D02*
X254Y430D01*
X263Y430D02*
X265Y430D01*
X302Y430D02*
X304Y430D01*
X341Y430D02*
X343Y430D01*
X353Y430D02*
X355Y430D01*
X396Y430D02*
X399Y430D01*
X441Y430D02*
X455Y430D01*
X502Y430D02*
X505Y430D01*
X527Y430D02*
X529Y430D01*
X536Y430D02*
X538Y430D01*
X544Y430D02*
X545Y430D01*
X550Y430D02*
X554Y430D01*
X562Y430D02*
X563Y430D01*
X567Y430D02*
X569Y430D01*
X592Y430D02*
X594Y430D01*
X604Y430D02*
X606Y430D01*
X609Y430D02*
X611Y430D01*
X29Y429D02*
X30Y429D01*
X33Y429D02*
X35Y429D01*
X48Y429D02*
X49Y429D01*
X59Y429D02*
X61Y429D01*
X67Y429D02*
X68Y429D01*
X89Y429D02*
X91Y429D01*
X94Y429D02*
X96Y429D01*
X114Y429D02*
X116Y429D01*
X138Y429D02*
X140Y429D01*
X144Y429D02*
X145Y429D01*
X153Y429D02*
X154Y429D01*
X188Y429D02*
X190Y429D01*
X193Y429D02*
X195Y429D01*
X208Y429D02*
X210Y429D01*
X213Y429D02*
X215Y429D01*
X237Y429D02*
X239Y429D01*
X243Y429D02*
X245Y429D01*
X252Y429D02*
X254Y429D01*
X263Y429D02*
X265Y429D01*
X302Y429D02*
X304Y429D01*
X341Y429D02*
X343Y429D01*
X353Y429D02*
X355Y429D01*
X396Y429D02*
X398Y429D01*
X441Y429D02*
X455Y429D01*
X502Y429D02*
X505Y429D01*
X527Y429D02*
X529Y429D01*
X536Y429D02*
X538Y429D01*
X544Y429D02*
X545Y429D01*
X550Y429D02*
X554Y429D01*
X562Y429D02*
X563Y429D01*
X566Y429D02*
X568Y429D01*
X592Y429D02*
X594Y429D01*
X605Y429D02*
X610Y429D01*
X29Y428D02*
X34Y428D01*
X48Y428D02*
X49Y428D01*
X59Y428D02*
X61Y428D01*
X67Y428D02*
X69Y428D01*
X89Y428D02*
X91Y428D01*
X94Y428D02*
X96Y428D01*
X114Y428D02*
X116Y428D01*
X138Y428D02*
X140Y428D01*
X144Y428D02*
X145Y428D01*
X153Y428D02*
X154Y428D01*
X188Y428D02*
X190Y428D01*
X193Y428D02*
X195Y428D01*
X208Y428D02*
X210Y428D01*
X213Y428D02*
X215Y428D01*
X237Y428D02*
X239Y428D01*
X243Y428D02*
X245Y428D01*
X252Y428D02*
X254Y428D01*
X263Y428D02*
X265Y428D01*
X302Y428D02*
X304Y428D01*
X341Y428D02*
X343Y428D01*
X353Y428D02*
X355Y428D01*
X396Y428D02*
X398Y428D01*
X441Y428D02*
X443Y428D01*
X453Y428D02*
X455Y428D01*
X502Y428D02*
X505Y428D01*
X527Y428D02*
X529Y428D01*
X536Y428D02*
X537Y428D01*
X544Y428D02*
X545Y428D01*
X550Y428D02*
X554Y428D01*
X562Y428D02*
X563Y428D01*
X566Y428D02*
X568Y428D01*
X592Y428D02*
X594Y428D01*
X605Y428D02*
X610Y428D01*
X27Y427D02*
X34Y427D01*
X48Y427D02*
X49Y427D01*
X59Y427D02*
X60Y427D01*
X68Y427D02*
X69Y427D01*
X89Y427D02*
X91Y427D01*
X94Y427D02*
X96Y427D01*
X114Y427D02*
X116Y427D01*
X138Y427D02*
X140Y427D01*
X144Y427D02*
X145Y427D01*
X153Y427D02*
X154Y427D01*
X188Y427D02*
X190Y427D01*
X193Y427D02*
X195Y427D01*
X208Y427D02*
X210Y427D01*
X213Y427D02*
X215Y427D01*
X237Y427D02*
X239Y427D01*
X243Y427D02*
X245Y427D01*
X252Y427D02*
X254Y427D01*
X263Y427D02*
X265Y427D01*
X302Y427D02*
X304Y427D01*
X341Y427D02*
X343Y427D01*
X353Y427D02*
X355Y427D01*
X396Y427D02*
X398Y427D01*
X441Y427D02*
X443Y427D01*
X453Y427D02*
X455Y427D01*
X502Y427D02*
X505Y427D01*
X528Y427D02*
X537Y427D01*
X544Y427D02*
X545Y427D01*
X551Y427D02*
X554Y427D01*
X560Y427D02*
X567Y427D01*
X592Y427D02*
X594Y427D01*
X605Y427D02*
X609Y427D01*
X27Y426D02*
X33Y426D01*
X48Y426D02*
X48Y426D01*
X60Y426D02*
X60Y426D01*
X69Y426D02*
X69Y426D01*
X89Y426D02*
X91Y426D01*
X94Y426D02*
X96Y426D01*
X114Y426D02*
X116Y426D01*
X138Y426D02*
X140Y426D01*
X144Y426D02*
X145Y426D01*
X153Y426D02*
X154Y426D01*
X188Y426D02*
X190Y426D01*
X193Y426D02*
X195Y426D01*
X208Y426D02*
X210Y426D01*
X213Y426D02*
X215Y426D01*
X237Y426D02*
X239Y426D01*
X243Y426D02*
X245Y426D01*
X252Y426D02*
X254Y426D01*
X263Y426D02*
X265Y426D01*
X302Y426D02*
X304Y426D01*
X341Y426D02*
X343Y426D01*
X353Y426D02*
X355Y426D01*
X396Y426D02*
X398Y426D01*
X441Y426D02*
X443Y426D01*
X453Y426D02*
X455Y426D01*
X502Y426D02*
X505Y426D01*
X529Y426D02*
X536Y426D01*
X544Y426D02*
X545Y426D01*
X551Y426D02*
X554Y426D01*
X560Y426D02*
X566Y426D01*
X581Y426D02*
X584Y426D01*
X592Y426D02*
X594Y426D01*
X606Y426D02*
X609Y426D01*
X84Y425D02*
X96Y425D01*
X104Y425D02*
X116Y425D01*
X133Y425D02*
X145Y425D01*
X153Y425D02*
X165Y425D01*
X183Y425D02*
X195Y425D01*
X203Y425D02*
X215Y425D01*
X233Y425D02*
X245Y425D01*
X252Y425D02*
X265Y425D01*
X302Y425D02*
X304Y425D01*
X341Y425D02*
X343Y425D01*
X353Y425D02*
X355Y425D01*
X396Y425D02*
X398Y425D01*
X441Y425D02*
X443Y425D01*
X453Y425D02*
X455Y425D01*
X502Y425D02*
X505Y425D01*
X581Y425D02*
X594Y425D01*
X606Y425D02*
X609Y425D01*
X83Y424D02*
X96Y424D01*
X103Y424D02*
X115Y424D01*
X133Y424D02*
X145Y424D01*
X153Y424D02*
X165Y424D01*
X183Y424D02*
X195Y424D01*
X202Y424D02*
X215Y424D01*
X232Y424D02*
X245Y424D01*
X252Y424D02*
X264Y424D01*
X302Y424D02*
X304Y424D01*
X341Y424D02*
X343Y424D01*
X353Y424D02*
X355Y424D01*
X396Y424D02*
X398Y424D01*
X441Y424D02*
X443Y424D01*
X453Y424D02*
X455Y424D01*
X490Y424D02*
X493Y424D01*
X502Y424D02*
X505Y424D01*
X582Y424D02*
X593Y424D01*
X606Y424D02*
X608Y424D01*
X84Y423D02*
X95Y423D01*
X104Y423D02*
X114Y423D01*
X133Y423D02*
X145Y423D01*
X153Y423D02*
X165Y423D01*
X183Y423D02*
X195Y423D01*
X203Y423D02*
X214Y423D01*
X232Y423D02*
X244Y423D01*
X253Y423D02*
X264Y423D01*
X301Y423D02*
X304Y423D01*
X341Y423D02*
X355Y423D01*
X396Y423D02*
X398Y423D01*
X441Y423D02*
X455Y423D01*
X490Y423D02*
X505Y423D01*
X586Y423D02*
X591Y423D01*
X300Y422D02*
X304Y422D01*
X341Y422D02*
X355Y422D01*
X396Y422D02*
X398Y422D01*
X441Y422D02*
X455Y422D01*
X491Y422D02*
X504Y422D01*
X301Y421D02*
X304Y421D01*
X342Y421D02*
X354Y421D01*
X397Y421D02*
X398Y421D01*
X441Y421D02*
X455Y421D01*
X492Y421D02*
X503Y421D01*
X620Y361D02*
X621Y361D01*
X617Y360D02*
X623Y360D01*
X634Y360D02*
X637Y360D01*
X616Y359D02*
X624Y359D01*
X633Y359D02*
X637Y359D01*
X616Y358D02*
X619Y358D01*
X622Y358D02*
X624Y358D01*
X631Y358D02*
X636Y358D01*
X616Y357D02*
X618Y357D01*
X623Y357D02*
X625Y357D01*
X629Y357D02*
X634Y357D01*
X615Y356D02*
X617Y356D01*
X623Y356D02*
X625Y356D01*
X627Y356D02*
X632Y356D01*
X615Y355D02*
X617Y355D01*
X623Y355D02*
X631Y355D01*
X615Y354D02*
X617Y354D01*
X623Y354D02*
X629Y354D01*
X615Y353D02*
X617Y353D01*
X623Y353D02*
X627Y353D01*
X615Y352D02*
X617Y352D01*
X623Y352D02*
X625Y352D01*
X615Y351D02*
X617Y351D01*
X623Y351D02*
X625Y351D01*
X615Y350D02*
X617Y350D01*
X623Y350D02*
X625Y350D01*
X615Y349D02*
X637Y349D01*
X615Y348D02*
X637Y348D01*
X616Y347D02*
X636Y347D01*
X616Y340D02*
X634Y340D01*
X79Y339D02*
X85Y339D01*
X102Y339D02*
X115Y339D01*
X616Y339D02*
X636Y339D01*
X75Y338D02*
X87Y338D01*
X102Y338D02*
X117Y338D01*
X616Y338D02*
X637Y338D01*
X74Y337D02*
X87Y337D01*
X102Y337D02*
X117Y337D01*
X634Y337D02*
X637Y337D01*
X73Y336D02*
X87Y336D01*
X102Y336D02*
X117Y336D01*
X635Y336D02*
X637Y336D01*
X73Y335D02*
X86Y335D01*
X102Y335D02*
X116Y335D01*
X635Y335D02*
X637Y335D01*
X72Y334D02*
X76Y334D01*
X102Y334D02*
X105Y334D01*
X623Y334D02*
X637Y334D01*
X72Y333D02*
X75Y333D01*
X102Y333D02*
X105Y333D01*
X623Y333D02*
X636Y333D01*
X71Y332D02*
X75Y332D01*
X102Y332D02*
X105Y332D01*
X623Y332D02*
X637Y332D01*
X71Y331D02*
X74Y331D01*
X102Y331D02*
X105Y331D01*
X635Y331D02*
X637Y331D01*
X70Y330D02*
X74Y330D01*
X102Y330D02*
X105Y330D01*
X635Y330D02*
X637Y330D01*
X70Y329D02*
X73Y329D01*
X102Y329D02*
X105Y329D01*
X634Y329D02*
X637Y329D01*
X69Y328D02*
X73Y328D01*
X102Y328D02*
X105Y328D01*
X616Y328D02*
X637Y328D01*
X69Y327D02*
X72Y327D01*
X102Y327D02*
X105Y327D01*
X616Y327D02*
X635Y327D01*
X68Y326D02*
X72Y326D01*
X102Y326D02*
X105Y326D01*
X617Y326D02*
X634Y326D01*
X68Y325D02*
X71Y325D01*
X102Y325D02*
X105Y325D01*
X68Y324D02*
X71Y324D01*
X102Y324D02*
X116Y324D01*
X68Y323D02*
X71Y323D01*
X102Y323D02*
X117Y323D01*
X68Y322D02*
X71Y322D01*
X102Y322D02*
X117Y322D01*
X68Y321D02*
X71Y321D01*
X102Y321D02*
X117Y321D01*
X68Y320D02*
X72Y320D01*
X114Y320D02*
X118Y320D01*
X69Y319D02*
X72Y319D01*
X114Y319D02*
X118Y319D01*
X618Y319D02*
X626Y319D01*
X69Y318D02*
X73Y318D01*
X114Y318D02*
X118Y318D01*
X617Y318D02*
X627Y318D01*
X70Y317D02*
X73Y317D01*
X114Y317D02*
X118Y317D01*
X616Y317D02*
X628Y317D01*
X70Y316D02*
X74Y316D01*
X114Y316D02*
X118Y316D01*
X616Y316D02*
X618Y316D01*
X626Y316D02*
X628Y316D01*
X71Y315D02*
X74Y315D01*
X114Y315D02*
X118Y315D01*
X615Y315D02*
X617Y315D01*
X626Y315D02*
X628Y315D01*
X71Y314D02*
X75Y314D01*
X114Y314D02*
X118Y314D01*
X615Y314D02*
X617Y314D01*
X626Y314D02*
X628Y314D01*
X72Y313D02*
X75Y313D01*
X114Y313D02*
X118Y313D01*
X615Y313D02*
X617Y313D01*
X626Y313D02*
X628Y313D01*
X72Y312D02*
X76Y312D01*
X99Y312D02*
X100Y312D01*
X114Y312D02*
X118Y312D01*
X615Y312D02*
X617Y312D01*
X626Y312D02*
X628Y312D01*
X73Y311D02*
X77Y311D01*
X98Y311D02*
X103Y311D01*
X114Y311D02*
X117Y311D01*
X615Y311D02*
X617Y311D01*
X626Y311D02*
X628Y311D01*
X73Y310D02*
X87Y310D01*
X98Y310D02*
X117Y310D01*
X615Y310D02*
X617Y310D01*
X626Y310D02*
X628Y310D01*
X74Y309D02*
X87Y309D01*
X98Y309D02*
X117Y309D01*
X615Y309D02*
X617Y309D01*
X626Y309D02*
X628Y309D01*
X75Y308D02*
X87Y308D01*
X100Y308D02*
X116Y308D01*
X615Y308D02*
X618Y308D01*
X626Y308D02*
X629Y308D01*
X76Y307D02*
X87Y307D01*
X102Y307D02*
X115Y307D01*
X615Y307D02*
X637Y307D01*
X615Y306D02*
X637Y306D01*
X618Y139D02*
X632Y139D01*
X645Y139D02*
X648Y139D01*
X344Y138D02*
X352Y138D01*
X365Y138D02*
X380Y138D01*
X617Y138D02*
X633Y138D01*
X645Y138D02*
X648Y138D01*
X341Y137D02*
X353Y137D01*
X364Y137D02*
X382Y137D01*
X617Y137D02*
X634Y137D01*
X645Y137D02*
X648Y137D01*
X83Y136D02*
X85Y136D01*
X340Y136D02*
X353Y136D01*
X364Y136D02*
X383Y136D01*
X405Y136D02*
X417Y136D01*
X428Y136D02*
X439Y136D01*
X617Y136D02*
X634Y136D01*
X645Y136D02*
X648Y136D01*
X83Y135D02*
X88Y135D01*
X339Y135D02*
X353Y135D01*
X364Y135D02*
X383Y135D01*
X404Y135D02*
X417Y135D01*
X428Y135D02*
X439Y135D01*
X617Y135D02*
X620Y135D01*
X631Y135D02*
X634Y135D01*
X645Y135D02*
X648Y135D01*
X84Y134D02*
X91Y134D01*
X339Y134D02*
X352Y134D01*
X365Y134D02*
X383Y134D01*
X403Y134D02*
X417Y134D01*
X428Y134D02*
X439Y134D01*
X617Y134D02*
X620Y134D01*
X631Y134D02*
X634Y134D01*
X645Y134D02*
X648Y134D01*
X87Y133D02*
X95Y133D01*
X338Y133D02*
X342Y133D01*
X380Y133D02*
X383Y133D01*
X403Y133D02*
X416Y133D01*
X429Y133D02*
X439Y133D01*
X617Y133D02*
X620Y133D01*
X631Y133D02*
X634Y133D01*
X645Y133D02*
X648Y133D01*
X87Y132D02*
X88Y132D01*
X91Y132D02*
X98Y132D01*
X338Y132D02*
X341Y132D01*
X380Y132D02*
X383Y132D01*
X402Y132D02*
X406Y132D01*
X436Y132D02*
X439Y132D01*
X617Y132D02*
X620Y132D01*
X631Y132D02*
X634Y132D01*
X645Y132D02*
X648Y132D01*
X87Y131D02*
X88Y131D01*
X94Y131D02*
X99Y131D01*
X337Y131D02*
X341Y131D01*
X380Y131D02*
X383Y131D01*
X402Y131D02*
X405Y131D01*
X436Y131D02*
X439Y131D01*
X617Y131D02*
X620Y131D01*
X631Y131D02*
X634Y131D01*
X645Y131D02*
X648Y131D01*
X87Y130D02*
X88Y130D01*
X92Y130D02*
X99Y130D01*
X337Y130D02*
X340Y130D01*
X380Y130D02*
X383Y130D01*
X401Y130D02*
X405Y130D01*
X436Y130D02*
X439Y130D01*
X617Y130D02*
X620Y130D01*
X631Y130D02*
X634Y130D01*
X645Y130D02*
X648Y130D01*
X87Y129D02*
X96Y129D01*
X336Y129D02*
X340Y129D01*
X380Y129D02*
X383Y129D01*
X401Y129D02*
X404Y129D01*
X436Y129D02*
X439Y129D01*
X617Y129D02*
X620Y129D01*
X631Y129D02*
X634Y129D01*
X645Y129D02*
X648Y129D01*
X85Y128D02*
X93Y128D01*
X336Y128D02*
X339Y128D01*
X380Y128D02*
X383Y128D01*
X400Y128D02*
X404Y128D01*
X436Y128D02*
X439Y128D01*
X617Y128D02*
X620Y128D01*
X631Y128D02*
X634Y128D01*
X645Y128D02*
X648Y128D01*
X83Y127D02*
X89Y127D01*
X335Y127D02*
X339Y127D01*
X380Y127D02*
X383Y127D01*
X400Y127D02*
X403Y127D01*
X436Y127D02*
X439Y127D01*
X617Y127D02*
X620Y127D01*
X631Y127D02*
X634Y127D01*
X645Y127D02*
X648Y127D01*
X83Y126D02*
X86Y126D01*
X335Y126D02*
X338Y126D01*
X380Y126D02*
X383Y126D01*
X399Y126D02*
X403Y126D01*
X436Y126D02*
X439Y126D01*
X617Y126D02*
X620Y126D01*
X631Y126D02*
X634Y126D01*
X645Y126D02*
X648Y126D01*
X334Y125D02*
X338Y125D01*
X380Y125D02*
X383Y125D01*
X399Y125D02*
X402Y125D01*
X436Y125D02*
X439Y125D01*
X617Y125D02*
X620Y125D01*
X631Y125D02*
X634Y125D01*
X645Y125D02*
X648Y125D01*
X334Y124D02*
X337Y124D01*
X378Y124D02*
X383Y124D01*
X398Y124D02*
X402Y124D01*
X436Y124D02*
X439Y124D01*
X617Y124D02*
X620Y124D01*
X631Y124D02*
X634Y124D01*
X645Y124D02*
X648Y124D01*
X334Y123D02*
X337Y123D01*
X368Y123D02*
X383Y123D01*
X398Y123D02*
X401Y123D01*
X436Y123D02*
X439Y123D01*
X617Y123D02*
X620Y123D01*
X631Y123D02*
X648Y123D01*
X334Y122D02*
X337Y122D01*
X368Y122D02*
X382Y122D01*
X398Y122D02*
X401Y122D01*
X436Y122D02*
X439Y122D01*
X617Y122D02*
X620Y122D01*
X631Y122D02*
X648Y122D01*
X334Y121D02*
X337Y121D01*
X368Y121D02*
X382Y121D01*
X398Y121D02*
X401Y121D01*
X436Y121D02*
X439Y121D01*
X617Y121D02*
X620Y121D01*
X632Y121D02*
X648Y121D01*
X83Y120D02*
X90Y120D01*
X99Y120D02*
X99Y120D01*
X334Y120D02*
X337Y120D01*
X369Y120D02*
X383Y120D01*
X398Y120D02*
X401Y120D01*
X436Y120D02*
X439Y120D01*
X617Y120D02*
X619Y120D01*
X633Y120D02*
X648Y120D01*
X83Y119D02*
X91Y119D01*
X98Y119D02*
X99Y119D01*
X334Y119D02*
X338Y119D01*
X380Y119D02*
X383Y119D01*
X398Y119D02*
X401Y119D01*
X436Y119D02*
X439Y119D01*
X445Y119D02*
X446Y119D01*
X83Y118D02*
X92Y118D01*
X98Y118D02*
X99Y118D01*
X335Y118D02*
X338Y118D01*
X380Y118D02*
X383Y118D01*
X398Y118D02*
X401Y118D01*
X436Y118D02*
X439Y118D01*
X444Y118D02*
X447Y118D01*
X83Y117D02*
X84Y117D01*
X90Y117D02*
X92Y117D01*
X98Y117D02*
X99Y117D01*
X335Y117D02*
X339Y117D01*
X380Y117D02*
X383Y117D01*
X398Y117D02*
X402Y117D01*
X436Y117D02*
X439Y117D01*
X444Y117D02*
X447Y117D01*
X83Y116D02*
X84Y116D01*
X90Y116D02*
X92Y116D01*
X98Y116D02*
X99Y116D01*
X336Y116D02*
X339Y116D01*
X380Y116D02*
X383Y116D01*
X399Y116D02*
X402Y116D01*
X436Y116D02*
X439Y116D01*
X444Y116D02*
X447Y116D01*
X83Y115D02*
X84Y115D01*
X90Y115D02*
X92Y115D01*
X98Y115D02*
X99Y115D01*
X336Y115D02*
X340Y115D01*
X380Y115D02*
X383Y115D01*
X399Y115D02*
X403Y115D01*
X436Y115D02*
X439Y115D01*
X444Y115D02*
X447Y115D01*
X83Y114D02*
X84Y114D01*
X90Y114D02*
X92Y114D01*
X98Y114D02*
X99Y114D01*
X337Y114D02*
X340Y114D01*
X380Y114D02*
X383Y114D01*
X400Y114D02*
X403Y114D01*
X436Y114D02*
X439Y114D01*
X444Y114D02*
X447Y114D01*
X83Y113D02*
X84Y113D01*
X90Y113D02*
X92Y113D01*
X98Y113D02*
X99Y113D01*
X337Y113D02*
X341Y113D01*
X380Y113D02*
X383Y113D01*
X400Y113D02*
X404Y113D01*
X436Y113D02*
X439Y113D01*
X444Y113D02*
X447Y113D01*
X83Y112D02*
X84Y112D01*
X90Y112D02*
X92Y112D01*
X98Y112D02*
X99Y112D01*
X338Y112D02*
X341Y112D01*
X380Y112D02*
X383Y112D01*
X401Y112D02*
X404Y112D01*
X436Y112D02*
X439Y112D01*
X444Y112D02*
X447Y112D01*
X83Y111D02*
X84Y111D01*
X91Y111D02*
X99Y111D01*
X338Y111D02*
X342Y111D01*
X380Y111D02*
X383Y111D01*
X401Y111D02*
X405Y111D01*
X436Y111D02*
X439Y111D01*
X444Y111D02*
X447Y111D01*
X83Y110D02*
X84Y110D01*
X91Y110D02*
X99Y110D01*
X339Y110D02*
X343Y110D01*
X380Y110D02*
X383Y110D01*
X402Y110D02*
X406Y110D01*
X436Y110D02*
X439Y110D01*
X444Y110D02*
X447Y110D01*
X339Y109D02*
X353Y109D01*
X364Y109D02*
X383Y109D01*
X402Y109D02*
X406Y109D01*
X436Y109D02*
X439Y109D01*
X444Y109D02*
X447Y109D01*
X617Y109D02*
X619Y109D01*
X645Y109D02*
X648Y109D01*
X340Y108D02*
X353Y108D01*
X364Y108D02*
X383Y108D01*
X403Y108D02*
X417Y108D01*
X428Y108D02*
X447Y108D01*
X617Y108D02*
X620Y108D01*
X645Y108D02*
X648Y108D01*
X341Y107D02*
X353Y107D01*
X364Y107D02*
X382Y107D01*
X403Y107D02*
X417Y107D01*
X428Y107D02*
X447Y107D01*
X617Y107D02*
X620Y107D01*
X645Y107D02*
X648Y107D01*
X343Y106D02*
X352Y106D01*
X365Y106D02*
X381Y106D01*
X404Y106D02*
X417Y106D01*
X428Y106D02*
X447Y106D01*
X617Y106D02*
X620Y106D01*
X645Y106D02*
X648Y106D01*
X406Y105D02*
X416Y105D01*
X428Y105D02*
X446Y105D01*
X617Y105D02*
X620Y105D01*
X645Y105D02*
X648Y105D01*
X617Y104D02*
X620Y104D01*
X645Y104D02*
X648Y104D01*
X617Y103D02*
X620Y103D01*
X645Y103D02*
X648Y103D01*
X617Y102D02*
X620Y102D01*
X645Y102D02*
X648Y102D01*
X617Y101D02*
X620Y101D01*
X645Y101D02*
X648Y101D01*
X617Y100D02*
X620Y100D01*
X645Y100D02*
X648Y100D01*
X617Y99D02*
X620Y99D01*
X645Y99D02*
X648Y99D01*
X617Y98D02*
X621Y98D01*
X643Y98D02*
X648Y98D01*
X617Y97D02*
X623Y97D01*
X641Y97D02*
X647Y97D01*
X618Y96D02*
X625Y96D01*
X639Y96D02*
X646Y96D01*
X619Y95D02*
X627Y95D01*
X637Y95D02*
X645Y95D01*
X621Y94D02*
X629Y94D01*
X635Y94D02*
X644Y94D01*
X623Y93D02*
X642Y93D01*
X625Y92D02*
X640Y92D01*
X627Y91D02*
X638Y91D01*
X629Y90D02*
X636Y90D01*
X39Y35D02*
X41Y35D01*
X53Y35D02*
X65Y35D01*
X90Y35D02*
X91Y35D01*
X105Y35D02*
X106Y35D01*
X138Y35D02*
X139Y35D01*
X155Y35D02*
X164Y35D01*
X246Y35D02*
X259Y35D01*
X298Y35D02*
X306Y35D01*
X347Y35D02*
X360Y35D01*
X397Y35D02*
X408Y35D01*
X447Y35D02*
X447Y35D01*
X39Y34D02*
X41Y34D01*
X53Y34D02*
X66Y34D01*
X89Y34D02*
X91Y34D01*
X104Y34D02*
X106Y34D01*
X137Y34D02*
X139Y34D01*
X155Y34D02*
X164Y34D01*
X246Y34D02*
X260Y34D01*
X297Y34D02*
X306Y34D01*
X346Y34D02*
X360Y34D01*
X396Y34D02*
X409Y34D01*
X446Y34D02*
X448Y34D01*
X38Y33D02*
X41Y33D01*
X64Y33D02*
X66Y33D01*
X89Y33D02*
X92Y33D01*
X104Y33D02*
X106Y33D01*
X113Y33D02*
X114Y33D01*
X137Y33D02*
X140Y33D01*
X155Y33D02*
X157Y33D01*
X245Y33D02*
X260Y33D01*
X297Y33D02*
X306Y33D01*
X347Y33D02*
X361Y33D01*
X396Y33D02*
X410Y33D01*
X446Y33D02*
X448Y33D01*
X38Y32D02*
X41Y32D01*
X64Y32D02*
X66Y32D01*
X89Y32D02*
X92Y32D01*
X104Y32D02*
X106Y32D01*
X113Y32D02*
X114Y32D01*
X137Y32D02*
X140Y32D01*
X155Y32D02*
X156Y32D01*
X182Y32D02*
X190Y32D01*
X199Y32D02*
X207Y32D01*
X214Y32D02*
X224Y32D01*
X245Y32D02*
X247Y32D01*
X258Y32D02*
X260Y32D01*
X303Y32D02*
X306Y32D01*
X359Y32D02*
X361Y32D01*
X397Y32D02*
X410Y32D01*
X446Y32D02*
X448Y32D01*
X456Y32D02*
X457Y32D01*
X502Y32D02*
X506Y32D01*
X518Y32D02*
X522Y32D01*
X537Y32D02*
X540Y32D01*
X547Y32D02*
X548Y32D01*
X564Y32D02*
X568Y32D01*
X599Y32D02*
X606Y32D01*
X614Y32D02*
X615Y32D01*
X38Y31D02*
X42Y31D01*
X64Y31D02*
X66Y31D01*
X88Y31D02*
X92Y31D01*
X104Y31D02*
X106Y31D01*
X113Y31D02*
X114Y31D01*
X136Y31D02*
X140Y31D01*
X155Y31D02*
X156Y31D01*
X182Y31D02*
X191Y31D01*
X199Y31D02*
X208Y31D01*
X214Y31D02*
X224Y31D01*
X245Y31D02*
X247Y31D01*
X258Y31D02*
X260Y31D01*
X303Y31D02*
X306Y31D01*
X359Y31D02*
X361Y31D01*
X408Y31D02*
X410Y31D01*
X446Y31D02*
X448Y31D01*
X455Y31D02*
X457Y31D01*
X481Y31D02*
X482Y31D01*
X489Y31D02*
X491Y31D01*
X500Y31D02*
X507Y31D01*
X516Y31D02*
X523Y31D01*
X535Y31D02*
X541Y31D01*
X547Y31D02*
X549Y31D01*
X556Y31D02*
X557Y31D01*
X563Y31D02*
X569Y31D01*
X581Y31D02*
X583Y31D01*
X590Y31D02*
X591Y31D01*
X598Y31D02*
X607Y31D01*
X614Y31D02*
X616Y31D01*
X622Y31D02*
X623Y31D01*
X38Y30D02*
X42Y30D01*
X64Y30D02*
X66Y30D01*
X88Y30D02*
X93Y30D01*
X104Y30D02*
X106Y30D01*
X113Y30D02*
X114Y30D01*
X136Y30D02*
X141Y30D01*
X155Y30D02*
X156Y30D01*
X182Y30D02*
X184Y30D01*
X190Y30D02*
X192Y30D01*
X198Y30D02*
X200Y30D01*
X207Y30D02*
X208Y30D01*
X214Y30D02*
X216Y30D01*
X218Y30D02*
X220Y30D01*
X223Y30D02*
X224Y30D01*
X245Y30D02*
X247Y30D01*
X258Y30D02*
X260Y30D01*
X303Y30D02*
X306Y30D01*
X359Y30D02*
X361Y30D01*
X408Y30D02*
X410Y30D01*
X446Y30D02*
X448Y30D01*
X455Y30D02*
X457Y30D01*
X481Y30D02*
X482Y30D01*
X489Y30D02*
X491Y30D01*
X499Y30D02*
X506Y30D01*
X515Y30D02*
X522Y30D01*
X534Y30D02*
X540Y30D01*
X547Y30D02*
X550Y30D01*
X556Y30D02*
X557Y30D01*
X564Y30D02*
X570Y30D01*
X581Y30D02*
X583Y30D01*
X590Y30D02*
X591Y30D01*
X598Y30D02*
X607Y30D01*
X614Y30D02*
X616Y30D01*
X622Y30D02*
X624Y30D01*
X37Y29D02*
X42Y29D01*
X64Y29D02*
X66Y29D01*
X88Y29D02*
X93Y29D01*
X104Y29D02*
X106Y29D01*
X113Y29D02*
X114Y29D01*
X136Y29D02*
X141Y29D01*
X155Y29D02*
X156Y29D01*
X182Y29D02*
X183Y29D01*
X191Y29D02*
X192Y29D01*
X198Y29D02*
X200Y29D01*
X207Y29D02*
X208Y29D01*
X214Y29D02*
X215Y29D01*
X219Y29D02*
X220Y29D01*
X223Y29D02*
X224Y29D01*
X245Y29D02*
X247Y29D01*
X258Y29D02*
X260Y29D01*
X303Y29D02*
X306Y29D01*
X359Y29D02*
X361Y29D01*
X408Y29D02*
X410Y29D01*
X446Y29D02*
X448Y29D01*
X455Y29D02*
X457Y29D01*
X481Y29D02*
X482Y29D01*
X489Y29D02*
X491Y29D01*
X499Y29D02*
X500Y29D01*
X515Y29D02*
X516Y29D01*
X533Y29D02*
X535Y29D01*
X547Y29D02*
X550Y29D01*
X556Y29D02*
X557Y29D01*
X565Y29D02*
X566Y29D01*
X569Y29D02*
X571Y29D01*
X581Y29D02*
X583Y29D01*
X590Y29D02*
X591Y29D01*
X602Y29D02*
X603Y29D01*
X614Y29D02*
X617Y29D01*
X622Y29D02*
X624Y29D01*
X37Y28D02*
X39Y28D01*
X41Y28D02*
X43Y28D01*
X64Y28D02*
X66Y28D01*
X87Y28D02*
X89Y28D01*
X91Y28D02*
X93Y28D01*
X104Y28D02*
X106Y28D01*
X113Y28D02*
X114Y28D01*
X136Y28D02*
X137Y28D01*
X139Y28D02*
X141Y28D01*
X155Y28D02*
X156Y28D01*
X182Y28D02*
X183Y28D01*
X191Y28D02*
X192Y28D01*
X199Y28D02*
X201Y28D01*
X219Y28D02*
X220Y28D01*
X245Y28D02*
X247Y28D01*
X258Y28D02*
X260Y28D01*
X303Y28D02*
X306Y28D01*
X359Y28D02*
X361Y28D01*
X408Y28D02*
X410Y28D01*
X446Y28D02*
X448Y28D01*
X455Y28D02*
X457Y28D01*
X481Y28D02*
X482Y28D01*
X489Y28D02*
X491Y28D01*
X498Y28D02*
X500Y28D01*
X514Y28D02*
X516Y28D01*
X533Y28D02*
X534Y28D01*
X547Y28D02*
X551Y28D01*
X556Y28D02*
X557Y28D01*
X565Y28D02*
X566Y28D01*
X570Y28D02*
X571Y28D01*
X581Y28D02*
X583Y28D01*
X590Y28D02*
X591Y28D01*
X602Y28D02*
X603Y28D01*
X614Y28D02*
X617Y28D01*
X622Y28D02*
X624Y28D01*
X37Y27D02*
X39Y27D01*
X41Y27D02*
X43Y27D01*
X64Y27D02*
X66Y27D01*
X87Y27D02*
X89Y27D01*
X92Y27D02*
X93Y27D01*
X104Y27D02*
X106Y27D01*
X113Y27D02*
X114Y27D01*
X135Y27D02*
X137Y27D01*
X140Y27D02*
X142Y27D01*
X155Y27D02*
X156Y27D01*
X182Y27D02*
X184Y27D01*
X190Y27D02*
X192Y27D01*
X200Y27D02*
X202Y27D01*
X219Y27D02*
X220Y27D01*
X245Y27D02*
X247Y27D01*
X258Y27D02*
X260Y27D01*
X303Y27D02*
X306Y27D01*
X359Y27D02*
X361Y27D01*
X383Y27D02*
X384Y27D01*
X408Y27D02*
X410Y27D01*
X446Y27D02*
X448Y27D01*
X455Y27D02*
X457Y27D01*
X481Y27D02*
X482Y27D01*
X489Y27D02*
X491Y27D01*
X498Y27D02*
X499Y27D01*
X514Y27D02*
X515Y27D01*
X532Y27D02*
X534Y27D01*
X547Y27D02*
X551Y27D01*
X556Y27D02*
X557Y27D01*
X565Y27D02*
X566Y27D01*
X570Y27D02*
X572Y27D01*
X581Y27D02*
X583Y27D01*
X590Y27D02*
X591Y27D01*
X602Y27D02*
X603Y27D01*
X614Y27D02*
X618Y27D01*
X622Y27D02*
X624Y27D01*
X36Y26D02*
X38Y26D01*
X41Y26D02*
X43Y26D01*
X56Y26D02*
X65Y26D01*
X87Y26D02*
X89Y26D01*
X92Y26D02*
X94Y26D01*
X104Y26D02*
X106Y26D01*
X113Y26D02*
X114Y26D01*
X135Y26D02*
X137Y26D01*
X140Y26D02*
X142Y26D01*
X155Y26D02*
X163Y26D01*
X182Y26D02*
X191Y26D01*
X201Y26D02*
X202Y26D01*
X219Y26D02*
X220Y26D01*
X245Y26D02*
X247Y26D01*
X258Y26D02*
X260Y26D01*
X303Y26D02*
X306Y26D01*
X359Y26D02*
X361Y26D01*
X381Y26D02*
X387Y26D01*
X392Y26D02*
X393Y26D01*
X408Y26D02*
X410Y26D01*
X446Y26D02*
X448Y26D01*
X455Y26D02*
X457Y26D01*
X481Y26D02*
X482Y26D01*
X489Y26D02*
X490Y26D01*
X497Y26D02*
X499Y26D01*
X513Y26D02*
X515Y26D01*
X531Y26D02*
X533Y26D01*
X547Y26D02*
X548Y26D01*
X550Y26D02*
X551Y26D01*
X556Y26D02*
X557Y26D01*
X565Y26D02*
X566Y26D01*
X571Y26D02*
X572Y26D01*
X582Y26D02*
X583Y26D01*
X590Y26D02*
X591Y26D01*
X602Y26D02*
X603Y26D01*
X614Y26D02*
X615Y26D01*
X617Y26D02*
X618Y26D01*
X622Y26D02*
X624Y26D01*
X36Y25D02*
X38Y25D01*
X42Y25D02*
X44Y25D01*
X56Y25D02*
X65Y25D01*
X87Y25D02*
X89Y25D01*
X92Y25D02*
X94Y25D01*
X104Y25D02*
X106Y25D01*
X113Y25D02*
X114Y25D01*
X135Y25D02*
X137Y25D01*
X140Y25D02*
X142Y25D01*
X155Y25D02*
X164Y25D01*
X182Y25D02*
X190Y25D01*
X201Y25D02*
X203Y25D01*
X219Y25D02*
X220Y25D01*
X245Y25D02*
X247Y25D01*
X258Y25D02*
X260Y25D01*
X303Y25D02*
X306Y25D01*
X349Y25D02*
X361Y25D01*
X380Y25D02*
X393Y25D01*
X408Y25D02*
X410Y25D01*
X446Y25D02*
X448Y25D01*
X455Y25D02*
X457Y25D01*
X481Y25D02*
X483Y25D01*
X488Y25D02*
X490Y25D01*
X497Y25D02*
X498Y25D01*
X513Y25D02*
X514Y25D01*
X531Y25D02*
X532Y25D01*
X547Y25D02*
X548Y25D01*
X550Y25D02*
X552Y25D01*
X556Y25D02*
X557Y25D01*
X565Y25D02*
X566Y25D01*
X571Y25D02*
X573Y25D01*
X582Y25D02*
X584Y25D01*
X589Y25D02*
X591Y25D01*
X602Y25D02*
X603Y25D01*
X614Y25D02*
X615Y25D01*
X617Y25D02*
X619Y25D01*
X622Y25D02*
X624Y25D01*
X36Y24D02*
X38Y24D01*
X42Y24D02*
X44Y24D01*
X57Y24D02*
X66Y24D01*
X86Y24D02*
X88Y24D01*
X92Y24D02*
X94Y24D01*
X104Y24D02*
X115Y24D01*
X134Y24D02*
X136Y24D01*
X140Y24D02*
X142Y24D01*
X155Y24D02*
X165Y24D01*
X182Y24D02*
X183Y24D01*
X186Y24D02*
X188Y24D01*
X202Y24D02*
X204Y24D01*
X219Y24D02*
X220Y24D01*
X245Y24D02*
X247Y24D01*
X258Y24D02*
X260Y24D01*
X303Y24D02*
X306Y24D01*
X347Y24D02*
X361Y24D01*
X380Y24D02*
X381Y24D01*
X386Y24D02*
X392Y24D01*
X399Y24D02*
X410Y24D01*
X446Y24D02*
X448Y24D01*
X455Y24D02*
X457Y24D01*
X482Y24D02*
X483Y24D01*
X488Y24D02*
X489Y24D01*
X497Y24D02*
X498Y24D01*
X513Y24D02*
X514Y24D01*
X531Y24D02*
X532Y24D01*
X547Y24D02*
X548Y24D01*
X551Y24D02*
X552Y24D01*
X556Y24D02*
X557Y24D01*
X565Y24D02*
X566Y24D01*
X571Y24D02*
X573Y24D01*
X583Y24D02*
X584Y24D01*
X589Y24D02*
X590Y24D01*
X602Y24D02*
X603Y24D01*
X614Y24D02*
X615Y24D01*
X618Y24D02*
X619Y24D01*
X622Y24D02*
X624Y24D01*
X35Y23D02*
X37Y23D01*
X42Y23D02*
X44Y23D01*
X64Y23D02*
X66Y23D01*
X86Y23D02*
X88Y23D01*
X93Y23D02*
X95Y23D01*
X104Y23D02*
X116Y23D01*
X134Y23D02*
X136Y23D01*
X141Y23D02*
X143Y23D01*
X163Y23D02*
X165Y23D01*
X182Y23D02*
X183Y23D01*
X187Y23D02*
X188Y23D01*
X203Y23D02*
X205Y23D01*
X219Y23D02*
X220Y23D01*
X245Y23D02*
X247Y23D01*
X258Y23D02*
X260Y23D01*
X303Y23D02*
X306Y23D01*
X346Y23D02*
X360Y23D01*
X389Y23D02*
X390Y23D01*
X399Y23D02*
X409Y23D01*
X446Y23D02*
X448Y23D01*
X455Y23D02*
X457Y23D01*
X482Y23D02*
X484Y23D01*
X488Y23D02*
X489Y23D01*
X497Y23D02*
X498Y23D01*
X513Y23D02*
X514Y23D01*
X531Y23D02*
X532Y23D01*
X547Y23D02*
X548Y23D01*
X551Y23D02*
X553Y23D01*
X556Y23D02*
X557Y23D01*
X565Y23D02*
X566Y23D01*
X571Y23D02*
X573Y23D01*
X583Y23D02*
X584Y23D01*
X588Y23D02*
X590Y23D01*
X602Y23D02*
X603Y23D01*
X614Y23D02*
X615Y23D01*
X618Y23D02*
X619Y23D01*
X622Y23D02*
X624Y23D01*
X35Y22D02*
X37Y22D01*
X42Y22D02*
X44Y22D01*
X64Y22D02*
X66Y22D01*
X86Y22D02*
X88Y22D01*
X93Y22D02*
X95Y22D01*
X104Y22D02*
X115Y22D01*
X134Y22D02*
X136Y22D01*
X141Y22D02*
X143Y22D01*
X163Y22D02*
X165Y22D01*
X182Y22D02*
X183Y22D01*
X187Y22D02*
X189Y22D01*
X204Y22D02*
X206Y22D01*
X219Y22D02*
X220Y22D01*
X245Y22D02*
X247Y22D01*
X258Y22D02*
X260Y22D01*
X303Y22D02*
X306Y22D01*
X346Y22D02*
X358Y22D01*
X399Y22D02*
X410Y22D01*
X446Y22D02*
X448Y22D01*
X455Y22D02*
X457Y22D01*
X483Y22D02*
X484Y22D01*
X487Y22D02*
X489Y22D01*
X497Y22D02*
X498Y22D01*
X513Y22D02*
X514Y22D01*
X531Y22D02*
X532Y22D01*
X536Y22D02*
X541Y22D01*
X547Y22D02*
X548Y22D01*
X552Y22D02*
X553Y22D01*
X556Y22D02*
X557Y22D01*
X565Y22D02*
X566Y22D01*
X571Y22D02*
X573Y22D01*
X583Y22D02*
X585Y22D01*
X588Y22D02*
X589Y22D01*
X602Y22D02*
X603Y22D01*
X614Y22D02*
X615Y22D01*
X618Y22D02*
X620Y22D01*
X622Y22D02*
X624Y22D01*
X35Y21D02*
X45Y21D01*
X64Y21D02*
X66Y21D01*
X85Y21D02*
X95Y21D01*
X113Y21D02*
X114Y21D01*
X133Y21D02*
X143Y21D01*
X163Y21D02*
X165Y21D01*
X182Y21D02*
X183Y21D01*
X188Y21D02*
X190Y21D01*
X204Y21D02*
X206Y21D01*
X219Y21D02*
X220Y21D01*
X245Y21D02*
X247Y21D01*
X258Y21D02*
X260Y21D01*
X303Y21D02*
X306Y21D01*
X310Y21D02*
X312Y21D01*
X346Y21D02*
X348Y21D01*
X407Y21D02*
X410Y21D01*
X446Y21D02*
X459Y21D01*
X483Y21D02*
X484Y21D01*
X487Y21D02*
X488Y21D01*
X497Y21D02*
X499Y21D01*
X513Y21D02*
X515Y21D01*
X531Y21D02*
X532Y21D01*
X537Y21D02*
X541Y21D01*
X547Y21D02*
X548Y21D01*
X552Y21D02*
X554Y21D01*
X556Y21D02*
X557Y21D01*
X565Y21D02*
X566Y21D01*
X571Y21D02*
X572Y21D01*
X584Y21D02*
X585Y21D01*
X588Y21D02*
X589Y21D01*
X602Y21D02*
X603Y21D01*
X614Y21D02*
X615Y21D01*
X619Y21D02*
X620Y21D01*
X622Y21D02*
X624Y21D01*
X35Y20D02*
X45Y20D01*
X64Y20D02*
X66Y20D01*
X85Y20D02*
X96Y20D01*
X113Y20D02*
X114Y20D01*
X133Y20D02*
X144Y20D01*
X163Y20D02*
X165Y20D01*
X182Y20D02*
X183Y20D01*
X189Y20D02*
X190Y20D01*
X205Y20D02*
X207Y20D01*
X219Y20D02*
X220Y20D01*
X245Y20D02*
X247Y20D01*
X258Y20D02*
X260Y20D01*
X303Y20D02*
X306Y20D01*
X310Y20D02*
X312Y20D01*
X346Y20D02*
X348Y20D01*
X408Y20D02*
X410Y20D01*
X446Y20D02*
X459Y20D01*
X483Y20D02*
X485Y20D01*
X487Y20D02*
X488Y20D01*
X498Y20D02*
X499Y20D01*
X514Y20D02*
X515Y20D01*
X531Y20D02*
X532Y20D01*
X539Y20D02*
X541Y20D01*
X547Y20D02*
X548Y20D01*
X553Y20D02*
X557Y20D01*
X565Y20D02*
X566Y20D01*
X570Y20D02*
X572Y20D01*
X584Y20D02*
X589Y20D01*
X602Y20D02*
X603Y20D01*
X614Y20D02*
X615Y20D01*
X619Y20D02*
X624Y20D01*
X34Y19D02*
X36Y19D01*
X43Y19D02*
X45Y19D01*
X64Y19D02*
X66Y19D01*
X85Y19D02*
X87Y19D01*
X94Y19D02*
X96Y19D01*
X113Y19D02*
X114Y19D01*
X133Y19D02*
X135Y19D01*
X142Y19D02*
X144Y19D01*
X163Y19D02*
X165Y19D01*
X182Y19D02*
X183Y19D01*
X189Y19D02*
X191Y19D01*
X199Y19D02*
X199Y19D01*
X206Y19D02*
X208Y19D01*
X219Y19D02*
X220Y19D01*
X245Y19D02*
X247Y19D01*
X258Y19D02*
X260Y19D01*
X303Y19D02*
X306Y19D01*
X310Y19D02*
X312Y19D01*
X346Y19D02*
X348Y19D01*
X408Y19D02*
X410Y19D01*
X446Y19D02*
X458Y19D01*
X484Y19D02*
X488Y19D01*
X498Y19D02*
X500Y19D01*
X514Y19D02*
X516Y19D01*
X531Y19D02*
X532Y19D01*
X539Y19D02*
X541Y19D01*
X547Y19D02*
X548Y19D01*
X553Y19D02*
X557Y19D01*
X565Y19D02*
X566Y19D01*
X570Y19D02*
X571Y19D01*
X585Y19D02*
X588Y19D01*
X602Y19D02*
X603Y19D01*
X614Y19D02*
X615Y19D01*
X620Y19D02*
X624Y19D01*
X34Y18D02*
X36Y18D01*
X44Y18D02*
X46Y18D01*
X64Y18D02*
X66Y18D01*
X85Y18D02*
X86Y18D01*
X94Y18D02*
X96Y18D01*
X113Y18D02*
X114Y18D01*
X133Y18D02*
X135Y18D01*
X142Y18D02*
X144Y18D01*
X153Y18D02*
X153Y18D01*
X163Y18D02*
X165Y18D01*
X182Y18D02*
X183Y18D01*
X190Y18D02*
X191Y18D01*
X198Y18D02*
X200Y18D01*
X207Y18D02*
X208Y18D01*
X219Y18D02*
X220Y18D01*
X245Y18D02*
X247Y18D01*
X258Y18D02*
X260Y18D01*
X303Y18D02*
X306Y18D01*
X310Y18D02*
X312Y18D01*
X346Y18D02*
X348Y18D01*
X408Y18D02*
X410Y18D01*
X455Y18D02*
X457Y18D01*
X484Y18D02*
X487Y18D01*
X499Y18D02*
X500Y18D01*
X515Y18D02*
X516Y18D01*
X531Y18D02*
X532Y18D01*
X539Y18D02*
X541Y18D01*
X547Y18D02*
X548Y18D01*
X553Y18D02*
X557Y18D01*
X565Y18D02*
X566Y18D01*
X569Y18D02*
X571Y18D01*
X585Y18D02*
X588Y18D01*
X602Y18D02*
X603Y18D01*
X614Y18D02*
X615Y18D01*
X620Y18D02*
X624Y18D01*
X34Y17D02*
X36Y17D01*
X44Y17D02*
X46Y17D01*
X54Y17D02*
X66Y17D01*
X84Y17D02*
X86Y17D01*
X95Y17D02*
X96Y17D01*
X113Y17D02*
X114Y17D01*
X132Y17D02*
X134Y17D01*
X143Y17D02*
X144Y17D01*
X152Y17D02*
X165Y17D01*
X182Y17D02*
X183Y17D01*
X190Y17D02*
X192Y17D01*
X199Y17D02*
X208Y17D01*
X219Y17D02*
X220Y17D01*
X245Y17D02*
X247Y17D01*
X258Y17D02*
X260Y17D01*
X303Y17D02*
X306Y17D01*
X310Y17D02*
X312Y17D01*
X346Y17D02*
X348Y17D01*
X408Y17D02*
X410Y17D01*
X455Y17D02*
X457Y17D01*
X485Y17D02*
X487Y17D01*
X499Y17D02*
X506Y17D01*
X515Y17D02*
X522Y17D01*
X531Y17D02*
X540Y17D01*
X547Y17D02*
X548Y17D01*
X554Y17D02*
X557Y17D01*
X564Y17D02*
X570Y17D01*
X585Y17D02*
X588Y17D01*
X598Y17D02*
X607Y17D01*
X614Y17D02*
X615Y17D01*
X621Y17D02*
X624Y17D01*
X33Y16D02*
X35Y16D01*
X44Y16D02*
X46Y16D01*
X53Y16D02*
X66Y16D01*
X84Y16D02*
X86Y16D01*
X95Y16D02*
X97Y16D01*
X113Y16D02*
X114Y16D01*
X132Y16D02*
X134Y16D01*
X143Y16D02*
X145Y16D01*
X152Y16D02*
X164Y16D01*
X182Y16D02*
X183Y16D01*
X191Y16D02*
X192Y16D01*
X199Y16D02*
X207Y16D01*
X219Y16D02*
X220Y16D01*
X245Y16D02*
X247Y16D01*
X258Y16D02*
X260Y16D01*
X303Y16D02*
X306Y16D01*
X310Y16D02*
X312Y16D01*
X346Y16D02*
X348Y16D01*
X408Y16D02*
X410Y16D01*
X455Y16D02*
X457Y16D01*
X485Y16D02*
X486Y16D01*
X500Y16D02*
X507Y16D01*
X516Y16D02*
X523Y16D01*
X532Y16D02*
X540Y16D01*
X547Y16D02*
X548Y16D01*
X554Y16D02*
X557Y16D01*
X563Y16D02*
X570Y16D01*
X586Y16D02*
X587Y16D01*
X598Y16D02*
X607Y16D01*
X614Y16D02*
X615Y16D01*
X621Y16D02*
X624Y16D01*
X34Y15D02*
X35Y15D01*
X45Y15D02*
X46Y15D01*
X54Y15D02*
X65Y15D01*
X84Y15D02*
X85Y15D01*
X95Y15D02*
X96Y15D01*
X113Y15D02*
X114Y15D01*
X132Y15D02*
X133Y15D01*
X143Y15D02*
X144Y15D01*
X154Y15D02*
X163Y15D01*
X245Y15D02*
X247Y15D01*
X258Y15D02*
X260Y15D01*
X303Y15D02*
X306Y15D01*
X310Y15D02*
X312Y15D01*
X346Y15D02*
X348Y15D01*
X408Y15D02*
X410Y15D01*
X455Y15D02*
X457Y15D01*
X502Y15D02*
X506Y15D01*
X518Y15D02*
X522Y15D01*
X533Y15D02*
X538Y15D01*
X555Y15D02*
X557Y15D01*
X564Y15D02*
X568Y15D01*
X598Y15D02*
X607Y15D01*
X614Y15D02*
X614Y15D01*
X622Y15D02*
X623Y15D01*
X245Y14D02*
X260Y14D01*
X299Y14D02*
X312Y14D01*
X346Y14D02*
X360Y14D01*
X408Y14D02*
X410Y14D01*
X455Y14D02*
X457Y14D01*
X246Y13D02*
X260Y13D01*
X297Y13D02*
X312Y13D01*
X346Y13D02*
X361Y13D01*
X396Y13D02*
X410Y13D01*
X455Y13D02*
X457Y13D01*
X247Y12D02*
X259Y12D01*
X297Y12D02*
X312Y12D01*
X346Y12D02*
X361Y12D01*
X396Y12D02*
X410Y12D01*
X455Y12D02*
X457Y12D01*
X298Y11D02*
X311Y11D01*
X396Y11D02*
X408Y11D01*
X456Y11D02*
X457Y11D01*
D02*
G04 End of Silk1*
M02*