G04 MADE WITH FRITZING*
G04 WWW.FRITZING.ORG*
G04 DOUBLE SIDED*
G04 HOLES PLATED*
G04 CONTOUR ON CENTER OF CONTOUR VECTOR*
%ASAXBY*%
%FSLAX23Y23*%
%MOIN*%
%OFA0B0*%
%SFA1.0B1.0*%
%ADD10R,0.001000X0.001000*%
%LNSILK1*%
G90*
G70*
G36*
X458Y287D02*
X458Y286D01*
X454Y286D01*
X454Y285D01*
X452Y285D01*
X452Y284D01*
X451Y284D01*
X451Y283D01*
X452Y283D01*
X452Y283D01*
X453Y283D01*
X453Y282D01*
X454Y282D01*
X454Y281D01*
X454Y281D01*
X454Y280D01*
X455Y280D01*
X455Y279D01*
X456Y279D01*
X456Y279D01*
X457Y279D01*
X457Y278D01*
X588Y278D01*
X588Y277D01*
X592Y277D01*
X592Y276D01*
X593Y276D01*
X593Y275D01*
X595Y275D01*
X595Y274D01*
X597Y274D01*
X597Y274D01*
X598Y274D01*
X598Y273D01*
X598Y273D01*
X598Y272D01*
X599Y272D01*
X599Y271D01*
X600Y271D01*
X600Y270D01*
X601Y270D01*
X601Y270D01*
X602Y270D01*
X602Y268D01*
X602Y268D01*
X602Y267D01*
X603Y267D01*
X603Y266D01*
X604Y266D01*
X604Y263D01*
X605Y263D01*
X605Y144D01*
X614Y144D01*
X614Y270D01*
X613Y270D01*
X613Y273D01*
X612Y273D01*
X612Y274D01*
X611Y274D01*
X611Y276D01*
X611Y276D01*
X611Y277D01*
X610Y277D01*
X610Y279D01*
X609Y279D01*
X609Y279D01*
X608Y279D01*
X608Y280D01*
X607Y280D01*
X607Y281D01*
X606Y281D01*
X606Y282D01*
X605Y282D01*
X605Y283D01*
X604Y283D01*
X604Y283D01*
X602Y283D01*
X602Y284D01*
X601Y284D01*
X601Y285D01*
X598Y285D01*
X598Y286D01*
X595Y286D01*
X595Y287D01*
X458Y287D01*
G37*
D02*
G36*
X458Y278D02*
X458Y277D01*
X459Y277D01*
X459Y276D01*
X459Y276D01*
X459Y275D01*
X460Y275D01*
X460Y274D01*
X461Y274D01*
X461Y274D01*
X462Y274D01*
X462Y273D01*
X463Y273D01*
X463Y272D01*
X463Y272D01*
X463Y271D01*
X464Y271D01*
X464Y270D01*
X465Y270D01*
X465Y270D01*
X466Y270D01*
X466Y269D01*
X467Y269D01*
X467Y268D01*
X467Y268D01*
X467Y267D01*
X468Y267D01*
X468Y266D01*
X469Y266D01*
X469Y266D01*
X470Y266D01*
X470Y265D01*
X471Y265D01*
X471Y264D01*
X472Y264D01*
X472Y263D01*
X472Y263D01*
X472Y262D01*
X473Y262D01*
X473Y261D01*
X474Y261D01*
X474Y261D01*
X475Y261D01*
X475Y260D01*
X476Y260D01*
X476Y259D01*
X476Y259D01*
X476Y258D01*
X477Y258D01*
X477Y257D01*
X478Y257D01*
X478Y257D01*
X479Y257D01*
X479Y256D01*
X480Y256D01*
X480Y255D01*
X480Y255D01*
X480Y254D01*
X481Y254D01*
X481Y253D01*
X482Y253D01*
X482Y253D01*
X483Y253D01*
X483Y252D01*
X484Y252D01*
X484Y251D01*
X485Y251D01*
X485Y250D01*
X485Y250D01*
X485Y249D01*
X486Y249D01*
X486Y248D01*
X487Y248D01*
X487Y248D01*
X488Y248D01*
X488Y247D01*
X489Y247D01*
X489Y246D01*
X489Y246D01*
X489Y245D01*
X490Y245D01*
X490Y244D01*
X491Y244D01*
X491Y244D01*
X492Y244D01*
X492Y243D01*
X493Y243D01*
X493Y242D01*
X493Y242D01*
X493Y241D01*
X494Y241D01*
X494Y240D01*
X507Y240D01*
X507Y241D01*
X506Y241D01*
X506Y242D01*
X506Y242D01*
X506Y243D01*
X505Y243D01*
X505Y244D01*
X504Y244D01*
X504Y244D01*
X503Y244D01*
X503Y245D01*
X502Y245D01*
X502Y246D01*
X502Y246D01*
X502Y247D01*
X501Y247D01*
X501Y248D01*
X500Y248D01*
X500Y248D01*
X499Y248D01*
X499Y249D01*
X498Y249D01*
X498Y250D01*
X498Y250D01*
X498Y251D01*
X497Y251D01*
X497Y252D01*
X496Y252D01*
X496Y253D01*
X495Y253D01*
X495Y253D01*
X494Y253D01*
X494Y254D01*
X493Y254D01*
X493Y255D01*
X493Y255D01*
X493Y256D01*
X492Y256D01*
X492Y257D01*
X491Y257D01*
X491Y257D01*
X490Y257D01*
X490Y258D01*
X489Y258D01*
X489Y259D01*
X489Y259D01*
X489Y260D01*
X488Y260D01*
X488Y261D01*
X487Y261D01*
X487Y261D01*
X486Y261D01*
X486Y262D01*
X485Y262D01*
X485Y263D01*
X485Y263D01*
X485Y264D01*
X484Y264D01*
X484Y265D01*
X483Y265D01*
X483Y266D01*
X482Y266D01*
X482Y266D01*
X481Y266D01*
X481Y267D01*
X480Y267D01*
X480Y268D01*
X480Y268D01*
X480Y269D01*
X479Y269D01*
X479Y270D01*
X478Y270D01*
X478Y270D01*
X477Y270D01*
X477Y271D01*
X476Y271D01*
X476Y272D01*
X476Y272D01*
X476Y273D01*
X475Y273D01*
X475Y274D01*
X474Y274D01*
X474Y274D01*
X473Y274D01*
X473Y275D01*
X472Y275D01*
X472Y276D01*
X472Y276D01*
X472Y278D01*
X458Y278D01*
G37*
D02*
G36*
X584Y266D02*
X584Y266D01*
X584Y266D01*
X584Y265D01*
X583Y265D01*
X583Y264D01*
X589Y264D01*
X589Y262D01*
X589Y262D01*
X589Y261D01*
X589Y261D01*
X589Y259D01*
X591Y259D01*
X591Y260D01*
X592Y260D01*
X592Y263D01*
X591Y263D01*
X591Y265D01*
X590Y265D01*
X590Y266D01*
X589Y266D01*
X589Y266D01*
X584Y266D01*
G37*
D02*
G36*
X555Y266D02*
X555Y265D01*
X554Y265D01*
X554Y264D01*
X554Y264D01*
X554Y263D01*
X559Y263D01*
X559Y262D01*
X560Y262D01*
X560Y259D01*
X559Y259D01*
X559Y258D01*
X563Y258D01*
X563Y263D01*
X562Y263D01*
X562Y264D01*
X561Y264D01*
X561Y265D01*
X560Y265D01*
X560Y266D01*
X555Y266D01*
G37*
D02*
G36*
X528Y264D02*
X528Y263D01*
X527Y263D01*
X527Y262D01*
X526Y262D01*
X526Y261D01*
X532Y261D01*
X532Y261D01*
X532Y261D01*
X532Y257D01*
X532Y257D01*
X532Y257D01*
X535Y257D01*
X535Y258D01*
X536Y258D01*
X536Y260D01*
X535Y260D01*
X535Y261D01*
X534Y261D01*
X534Y262D01*
X533Y262D01*
X533Y263D01*
X532Y263D01*
X532Y264D01*
X528Y264D01*
G37*
D02*
G36*
X582Y264D02*
X582Y259D01*
X585Y259D01*
X585Y260D01*
X584Y260D01*
X584Y263D01*
X585Y263D01*
X585Y264D01*
X582Y264D01*
G37*
D02*
G36*
X553Y263D02*
X553Y258D01*
X556Y258D01*
X556Y259D01*
X555Y259D01*
X555Y262D01*
X557Y262D01*
X557Y263D01*
X553Y263D01*
G37*
D02*
G36*
X526Y261D02*
X526Y261D01*
X525Y261D01*
X525Y257D01*
X526Y257D01*
X526Y257D01*
X528Y257D01*
X528Y258D01*
X528Y258D01*
X528Y260D01*
X528Y260D01*
X528Y261D01*
X529Y261D01*
X529Y261D01*
X526Y261D01*
G37*
D02*
G36*
X582Y259D02*
X582Y258D01*
X591Y258D01*
X591Y259D01*
X582Y259D01*
G37*
D02*
G36*
X582Y259D02*
X582Y258D01*
X591Y258D01*
X591Y259D01*
X582Y259D01*
G37*
D02*
G36*
X554Y258D02*
X554Y257D01*
X562Y257D01*
X562Y258D01*
X554Y258D01*
G37*
D02*
G36*
X554Y258D02*
X554Y257D01*
X562Y257D01*
X562Y258D01*
X554Y258D01*
G37*
D02*
G36*
X582Y258D02*
X582Y257D01*
X581Y257D01*
X581Y257D01*
X580Y257D01*
X580Y256D01*
X580Y256D01*
X580Y255D01*
X579Y255D01*
X579Y254D01*
X578Y254D01*
X578Y253D01*
X577Y253D01*
X577Y253D01*
X576Y253D01*
X576Y252D01*
X576Y252D01*
X576Y251D01*
X575Y251D01*
X575Y250D01*
X574Y250D01*
X574Y249D01*
X573Y249D01*
X573Y248D01*
X572Y248D01*
X572Y248D01*
X571Y248D01*
X571Y247D01*
X571Y247D01*
X571Y246D01*
X570Y246D01*
X570Y245D01*
X569Y245D01*
X569Y244D01*
X568Y244D01*
X568Y244D01*
X567Y244D01*
X567Y243D01*
X567Y243D01*
X567Y242D01*
X566Y242D01*
X566Y241D01*
X565Y241D01*
X565Y240D01*
X564Y240D01*
X564Y240D01*
X563Y240D01*
X563Y239D01*
X563Y239D01*
X563Y238D01*
X562Y238D01*
X562Y237D01*
X561Y237D01*
X561Y236D01*
X560Y236D01*
X560Y235D01*
X559Y235D01*
X559Y235D01*
X558Y235D01*
X558Y234D01*
X558Y234D01*
X558Y233D01*
X557Y233D01*
X557Y232D01*
X556Y232D01*
X556Y231D01*
X555Y231D01*
X555Y231D01*
X554Y231D01*
X554Y230D01*
X554Y230D01*
X554Y229D01*
X553Y229D01*
X553Y228D01*
X552Y228D01*
X552Y209D01*
X551Y209D01*
X551Y205D01*
X554Y205D01*
X554Y227D01*
X554Y227D01*
X554Y228D01*
X555Y228D01*
X555Y229D01*
X556Y229D01*
X556Y230D01*
X557Y230D01*
X557Y231D01*
X558Y231D01*
X558Y231D01*
X558Y231D01*
X558Y232D01*
X559Y232D01*
X559Y233D01*
X560Y233D01*
X560Y234D01*
X561Y234D01*
X561Y235D01*
X562Y235D01*
X562Y235D01*
X563Y235D01*
X563Y236D01*
X563Y236D01*
X563Y237D01*
X564Y237D01*
X564Y238D01*
X565Y238D01*
X565Y239D01*
X566Y239D01*
X566Y240D01*
X567Y240D01*
X567Y240D01*
X567Y240D01*
X567Y241D01*
X568Y241D01*
X568Y242D01*
X569Y242D01*
X569Y243D01*
X570Y243D01*
X570Y244D01*
X571Y244D01*
X571Y244D01*
X571Y244D01*
X571Y245D01*
X572Y245D01*
X572Y246D01*
X573Y246D01*
X573Y247D01*
X574Y247D01*
X574Y248D01*
X575Y248D01*
X575Y248D01*
X576Y248D01*
X576Y249D01*
X576Y249D01*
X576Y250D01*
X577Y250D01*
X577Y251D01*
X578Y251D01*
X578Y252D01*
X579Y252D01*
X579Y253D01*
X580Y253D01*
X580Y253D01*
X580Y253D01*
X580Y254D01*
X581Y254D01*
X581Y255D01*
X582Y255D01*
X582Y256D01*
X583Y256D01*
X583Y257D01*
X589Y257D01*
X589Y257D01*
X590Y257D01*
X590Y258D01*
X582Y258D01*
G37*
D02*
G36*
X554Y257D02*
X554Y257D01*
X555Y257D01*
X555Y256D01*
X558Y256D01*
X558Y249D01*
X557Y249D01*
X557Y248D01*
X556Y248D01*
X556Y248D01*
X555Y248D01*
X555Y247D01*
X554Y247D01*
X554Y246D01*
X554Y246D01*
X554Y245D01*
X553Y245D01*
X553Y244D01*
X552Y244D01*
X552Y244D01*
X551Y244D01*
X551Y243D01*
X550Y243D01*
X550Y242D01*
X550Y242D01*
X550Y241D01*
X549Y241D01*
X549Y240D01*
X548Y240D01*
X548Y240D01*
X547Y240D01*
X547Y239D01*
X546Y239D01*
X546Y238D01*
X545Y238D01*
X545Y237D01*
X545Y237D01*
X545Y236D01*
X544Y236D01*
X544Y235D01*
X543Y235D01*
X543Y235D01*
X542Y235D01*
X542Y234D01*
X541Y234D01*
X541Y233D01*
X541Y233D01*
X541Y232D01*
X540Y232D01*
X540Y231D01*
X539Y231D01*
X539Y231D01*
X538Y231D01*
X538Y218D01*
X540Y218D01*
X540Y229D01*
X541Y229D01*
X541Y230D01*
X541Y230D01*
X541Y231D01*
X542Y231D01*
X542Y231D01*
X543Y231D01*
X543Y232D01*
X544Y232D01*
X544Y233D01*
X545Y233D01*
X545Y234D01*
X545Y234D01*
X545Y235D01*
X546Y235D01*
X546Y235D01*
X547Y235D01*
X547Y236D01*
X548Y236D01*
X548Y237D01*
X549Y237D01*
X549Y238D01*
X550Y238D01*
X550Y239D01*
X550Y239D01*
X550Y240D01*
X551Y240D01*
X551Y240D01*
X552Y240D01*
X552Y241D01*
X553Y241D01*
X553Y242D01*
X554Y242D01*
X554Y243D01*
X554Y243D01*
X554Y244D01*
X555Y244D01*
X555Y244D01*
X556Y244D01*
X556Y245D01*
X557Y245D01*
X557Y246D01*
X558Y246D01*
X558Y247D01*
X558Y247D01*
X558Y248D01*
X559Y248D01*
X559Y256D01*
X560Y256D01*
X560Y257D01*
X561Y257D01*
X561Y257D01*
X554Y257D01*
G37*
D02*
G36*
X526Y257D02*
X526Y256D01*
X535Y256D01*
X535Y257D01*
X526Y257D01*
G37*
D02*
G36*
X526Y257D02*
X526Y256D01*
X535Y256D01*
X535Y257D01*
X526Y257D01*
G37*
D02*
G36*
X526Y256D02*
X526Y254D01*
X530Y254D01*
X530Y253D01*
X531Y253D01*
X531Y254D01*
X533Y254D01*
X533Y255D01*
X534Y255D01*
X534Y256D01*
X526Y256D01*
G37*
D02*
G36*
X525Y254D02*
X525Y253D01*
X524Y253D01*
X524Y253D01*
X524Y253D01*
X524Y252D01*
X523Y252D01*
X523Y251D01*
X522Y251D01*
X522Y250D01*
X521Y250D01*
X521Y249D01*
X520Y249D01*
X520Y248D01*
X519Y248D01*
X519Y248D01*
X519Y248D01*
X519Y247D01*
X518Y247D01*
X518Y246D01*
X517Y246D01*
X517Y245D01*
X516Y245D01*
X516Y244D01*
X515Y244D01*
X515Y244D01*
X515Y244D01*
X515Y243D01*
X514Y243D01*
X514Y242D01*
X516Y242D01*
X516Y243D01*
X517Y243D01*
X517Y244D01*
X518Y244D01*
X518Y244D01*
X519Y244D01*
X519Y245D01*
X519Y245D01*
X519Y246D01*
X520Y246D01*
X520Y247D01*
X521Y247D01*
X521Y248D01*
X522Y248D01*
X522Y248D01*
X523Y248D01*
X523Y249D01*
X524Y249D01*
X524Y250D01*
X524Y250D01*
X524Y251D01*
X525Y251D01*
X525Y252D01*
X526Y252D01*
X526Y253D01*
X527Y253D01*
X527Y253D01*
X528Y253D01*
X528Y254D01*
X525Y254D01*
G37*
D02*
G36*
X534Y248D02*
X534Y247D01*
X533Y247D01*
X533Y246D01*
X532Y246D01*
X532Y245D01*
X538Y245D01*
X538Y244D01*
X539Y244D01*
X539Y241D01*
X538Y241D01*
X538Y240D01*
X541Y240D01*
X541Y245D01*
X541Y245D01*
X541Y246D01*
X540Y246D01*
X540Y247D01*
X539Y247D01*
X539Y248D01*
X534Y248D01*
G37*
D02*
G36*
X532Y245D02*
X532Y240D01*
X535Y240D01*
X535Y241D01*
X534Y241D01*
X534Y244D01*
X535Y244D01*
X535Y245D01*
X532Y245D01*
G37*
D02*
G36*
X511Y243D02*
X511Y242D01*
X512Y242D01*
X512Y243D01*
X511Y243D01*
G37*
D02*
G36*
X510Y242D02*
X510Y241D01*
X515Y241D01*
X515Y242D01*
X510Y242D01*
G37*
D02*
G36*
X510Y242D02*
X510Y241D01*
X515Y241D01*
X515Y242D01*
X510Y242D01*
G37*
D02*
G36*
X509Y241D02*
X509Y240D01*
X515Y240D01*
X515Y241D01*
X509Y241D01*
G37*
D02*
G36*
X495Y240D02*
X495Y240D01*
X515Y240D01*
X515Y240D01*
X495Y240D01*
G37*
D02*
G36*
X495Y240D02*
X495Y240D01*
X515Y240D01*
X515Y240D01*
X495Y240D01*
G37*
D02*
G36*
X532Y240D02*
X532Y240D01*
X541Y240D01*
X541Y240D01*
X532Y240D01*
G37*
D02*
G36*
X532Y240D02*
X532Y240D01*
X541Y240D01*
X541Y240D01*
X532Y240D01*
G37*
D02*
G36*
X496Y240D02*
X496Y239D01*
X497Y239D01*
X497Y238D01*
X498Y238D01*
X498Y237D01*
X498Y237D01*
X498Y236D01*
X499Y236D01*
X499Y235D01*
X500Y235D01*
X500Y235D01*
X501Y235D01*
X501Y234D01*
X502Y234D01*
X502Y233D01*
X502Y233D01*
X502Y232D01*
X503Y232D01*
X503Y231D01*
X504Y231D01*
X504Y231D01*
X505Y231D01*
X505Y230D01*
X506Y230D01*
X506Y229D01*
X519Y229D01*
X519Y230D01*
X518Y230D01*
X518Y231D01*
X517Y231D01*
X517Y231D01*
X516Y231D01*
X516Y232D01*
X515Y232D01*
X515Y233D01*
X515Y233D01*
X515Y234D01*
X514Y234D01*
X514Y236D01*
X515Y236D01*
X515Y237D01*
X515Y237D01*
X515Y238D01*
X516Y238D01*
X516Y239D01*
X515Y239D01*
X515Y240D01*
X496Y240D01*
G37*
D02*
G36*
X532Y240D02*
X532Y239D01*
X532Y239D01*
X532Y238D01*
X531Y238D01*
X531Y237D01*
X530Y237D01*
X530Y236D01*
X529Y236D01*
X529Y235D01*
X528Y235D01*
X528Y235D01*
X528Y235D01*
X528Y234D01*
X527Y234D01*
X527Y233D01*
X526Y233D01*
X526Y232D01*
X525Y232D01*
X525Y231D01*
X528Y231D01*
X528Y232D01*
X528Y232D01*
X528Y233D01*
X529Y233D01*
X529Y234D01*
X530Y234D01*
X530Y235D01*
X531Y235D01*
X531Y235D01*
X532Y235D01*
X532Y236D01*
X532Y236D01*
X532Y237D01*
X533Y237D01*
X533Y238D01*
X539Y238D01*
X539Y239D01*
X540Y239D01*
X540Y240D01*
X532Y240D01*
G37*
D02*
G36*
X577Y234D02*
X577Y233D01*
X576Y233D01*
X576Y232D01*
X576Y232D01*
X576Y231D01*
X581Y231D01*
X581Y231D01*
X582Y231D01*
X582Y227D01*
X581Y227D01*
X581Y227D01*
X584Y227D01*
X584Y231D01*
X584Y231D01*
X584Y232D01*
X583Y232D01*
X583Y233D01*
X582Y233D01*
X582Y234D01*
X577Y234D01*
G37*
D02*
G36*
X523Y232D02*
X523Y231D01*
X524Y231D01*
X524Y232D01*
X523Y232D01*
G37*
D02*
G36*
X522Y231D02*
X522Y231D01*
X527Y231D01*
X527Y231D01*
X522Y231D01*
G37*
D02*
G36*
X522Y231D02*
X522Y231D01*
X527Y231D01*
X527Y231D01*
X522Y231D01*
G37*
D02*
G36*
X576Y231D02*
X576Y231D01*
X575Y231D01*
X575Y227D01*
X578Y227D01*
X578Y228D01*
X577Y228D01*
X577Y230D01*
X578Y230D01*
X578Y231D01*
X579Y231D01*
X579Y231D01*
X576Y231D01*
G37*
D02*
G36*
X521Y231D02*
X521Y230D01*
X520Y230D01*
X520Y229D01*
X526Y229D01*
X526Y231D01*
X521Y231D01*
G37*
D02*
G36*
X506Y229D02*
X506Y228D01*
X527Y228D01*
X527Y229D01*
X506Y229D01*
G37*
D02*
G36*
X506Y229D02*
X506Y228D01*
X527Y228D01*
X527Y229D01*
X506Y229D01*
G37*
D02*
G36*
X507Y228D02*
X507Y227D01*
X508Y227D01*
X508Y227D01*
X509Y227D01*
X509Y226D01*
X510Y226D01*
X510Y225D01*
X511Y225D01*
X511Y224D01*
X511Y224D01*
X511Y223D01*
X512Y223D01*
X512Y222D01*
X513Y222D01*
X513Y222D01*
X514Y222D01*
X514Y221D01*
X515Y221D01*
X515Y220D01*
X515Y220D01*
X515Y219D01*
X516Y219D01*
X516Y218D01*
X517Y218D01*
X517Y218D01*
X518Y218D01*
X518Y217D01*
X531Y217D01*
X531Y218D01*
X530Y218D01*
X530Y218D01*
X529Y218D01*
X529Y219D01*
X528Y219D01*
X528Y220D01*
X528Y220D01*
X528Y221D01*
X527Y221D01*
X527Y222D01*
X526Y222D01*
X526Y222D01*
X525Y222D01*
X525Y223D01*
X524Y223D01*
X524Y224D01*
X525Y224D01*
X525Y225D01*
X526Y225D01*
X526Y226D01*
X527Y226D01*
X527Y227D01*
X528Y227D01*
X528Y228D01*
X507Y228D01*
G37*
D02*
G36*
X576Y227D02*
X576Y226D01*
X584Y226D01*
X584Y227D01*
X576Y227D01*
G37*
D02*
G36*
X576Y227D02*
X576Y226D01*
X584Y226D01*
X584Y227D01*
X576Y227D01*
G37*
D02*
G36*
X575Y226D02*
X575Y225D01*
X574Y225D01*
X574Y224D01*
X573Y224D01*
X573Y223D01*
X572Y223D01*
X572Y222D01*
X571Y222D01*
X571Y222D01*
X571Y222D01*
X571Y221D01*
X570Y221D01*
X570Y220D01*
X569Y220D01*
X569Y219D01*
X568Y219D01*
X568Y218D01*
X567Y218D01*
X567Y218D01*
X567Y218D01*
X567Y217D01*
X566Y217D01*
X566Y216D01*
X565Y216D01*
X565Y215D01*
X564Y215D01*
X564Y214D01*
X563Y214D01*
X563Y195D01*
X563Y195D01*
X563Y194D01*
X565Y194D01*
X565Y213D01*
X566Y213D01*
X566Y214D01*
X567Y214D01*
X567Y214D01*
X567Y214D01*
X567Y215D01*
X568Y215D01*
X568Y216D01*
X569Y216D01*
X569Y217D01*
X570Y217D01*
X570Y218D01*
X571Y218D01*
X571Y218D01*
X571Y218D01*
X571Y219D01*
X572Y219D01*
X572Y220D01*
X573Y220D01*
X573Y221D01*
X574Y221D01*
X574Y222D01*
X575Y222D01*
X575Y222D01*
X576Y222D01*
X576Y223D01*
X576Y223D01*
X576Y224D01*
X582Y224D01*
X582Y225D01*
X584Y225D01*
X584Y226D01*
X575Y226D01*
G37*
D02*
G36*
X535Y220D02*
X535Y219D01*
X534Y219D01*
X534Y218D01*
X537Y218D01*
X537Y219D01*
X536Y219D01*
X536Y220D01*
X535Y220D01*
G37*
D02*
G36*
X533Y218D02*
X533Y218D01*
X540Y218D01*
X540Y218D01*
X533Y218D01*
G37*
D02*
G36*
X533Y218D02*
X533Y218D01*
X540Y218D01*
X540Y218D01*
X533Y218D01*
G37*
D02*
G36*
X532Y218D02*
X532Y217D01*
X540Y217D01*
X540Y218D01*
X532Y218D01*
G37*
D02*
G36*
X519Y217D02*
X519Y216D01*
X539Y216D01*
X539Y217D01*
X519Y217D01*
G37*
D02*
G36*
X519Y217D02*
X519Y216D01*
X539Y216D01*
X539Y217D01*
X519Y217D01*
G37*
D02*
G36*
X519Y216D02*
X519Y215D01*
X520Y215D01*
X520Y214D01*
X521Y214D01*
X521Y214D01*
X522Y214D01*
X522Y213D01*
X523Y213D01*
X523Y212D01*
X524Y212D01*
X524Y211D01*
X524Y211D01*
X524Y210D01*
X525Y210D01*
X525Y209D01*
X526Y209D01*
X526Y209D01*
X527Y209D01*
X527Y208D01*
X528Y208D01*
X528Y207D01*
X528Y207D01*
X528Y206D01*
X529Y206D01*
X529Y205D01*
X530Y205D01*
X530Y205D01*
X531Y205D01*
X531Y204D01*
X544Y204D01*
X544Y205D01*
X543Y205D01*
X543Y205D01*
X542Y205D01*
X542Y206D01*
X541Y206D01*
X541Y207D01*
X541Y207D01*
X541Y208D01*
X540Y208D01*
X540Y209D01*
X539Y209D01*
X539Y209D01*
X538Y209D01*
X538Y210D01*
X537Y210D01*
X537Y213D01*
X538Y213D01*
X538Y214D01*
X539Y214D01*
X539Y214D01*
X540Y214D01*
X540Y216D01*
X519Y216D01*
G37*
D02*
G36*
X548Y207D02*
X548Y206D01*
X547Y206D01*
X547Y205D01*
X550Y205D01*
X550Y206D01*
X549Y206D01*
X549Y207D01*
X548Y207D01*
G37*
D02*
G36*
X588Y207D02*
X588Y206D01*
X586Y206D01*
X586Y205D01*
X585Y205D01*
X585Y205D01*
X584Y205D01*
X584Y204D01*
X591Y204D01*
X591Y200D01*
X593Y200D01*
X593Y201D01*
X594Y201D01*
X594Y203D01*
X593Y203D01*
X593Y205D01*
X593Y205D01*
X593Y205D01*
X592Y205D01*
X592Y206D01*
X590Y206D01*
X590Y207D01*
X588Y207D01*
G37*
D02*
G36*
X546Y205D02*
X546Y205D01*
X553Y205D01*
X553Y205D01*
X546Y205D01*
G37*
D02*
G36*
X546Y205D02*
X546Y205D01*
X553Y205D01*
X553Y205D01*
X546Y205D01*
G37*
D02*
G36*
X545Y205D02*
X545Y204D01*
X552Y204D01*
X552Y205D01*
X545Y205D01*
G37*
D02*
G36*
X532Y204D02*
X532Y203D01*
X552Y203D01*
X552Y204D01*
X532Y204D01*
G37*
D02*
G36*
X532Y204D02*
X532Y203D01*
X552Y203D01*
X552Y204D01*
X532Y204D01*
G37*
D02*
G36*
X584Y204D02*
X584Y203D01*
X584Y203D01*
X584Y201D01*
X584Y201D01*
X584Y200D01*
X587Y200D01*
X587Y204D01*
X584Y204D01*
G37*
D02*
G36*
X532Y203D02*
X532Y202D01*
X533Y202D01*
X533Y201D01*
X534Y201D01*
X534Y201D01*
X535Y201D01*
X535Y200D01*
X536Y200D01*
X536Y199D01*
X537Y199D01*
X537Y198D01*
X537Y198D01*
X537Y197D01*
X538Y197D01*
X538Y196D01*
X539Y196D01*
X539Y196D01*
X540Y196D01*
X540Y195D01*
X541Y195D01*
X541Y194D01*
X541Y194D01*
X541Y193D01*
X542Y193D01*
X542Y192D01*
X555Y192D01*
X555Y193D01*
X554Y193D01*
X554Y194D01*
X554Y194D01*
X554Y195D01*
X553Y195D01*
X553Y196D01*
X552Y196D01*
X552Y196D01*
X551Y196D01*
X551Y197D01*
X550Y197D01*
X550Y200D01*
X551Y200D01*
X551Y201D01*
X552Y201D01*
X552Y201D01*
X553Y201D01*
X553Y203D01*
X532Y203D01*
G37*
D02*
G36*
X584Y200D02*
X584Y199D01*
X593Y199D01*
X593Y200D01*
X584Y200D01*
G37*
D02*
G36*
X584Y200D02*
X584Y199D01*
X593Y199D01*
X593Y200D01*
X584Y200D01*
G37*
D02*
G36*
X585Y199D02*
X585Y198D01*
X584Y198D01*
X584Y197D01*
X588Y197D01*
X588Y196D01*
X590Y196D01*
X590Y197D01*
X592Y197D01*
X592Y198D01*
X593Y198D01*
X593Y199D01*
X585Y199D01*
G37*
D02*
G36*
X584Y197D02*
X584Y196D01*
X583Y196D01*
X583Y196D01*
X582Y196D01*
X582Y195D01*
X581Y195D01*
X581Y194D01*
X580Y194D01*
X580Y193D01*
X580Y193D01*
X580Y192D01*
X579Y192D01*
X579Y192D01*
X578Y192D01*
X578Y191D01*
X577Y191D01*
X577Y190D01*
X576Y190D01*
X576Y189D01*
X576Y189D01*
X576Y188D01*
X575Y188D01*
X575Y188D01*
X574Y188D01*
X574Y187D01*
X573Y187D01*
X573Y186D01*
X572Y186D01*
X572Y185D01*
X576Y185D01*
X576Y186D01*
X576Y186D01*
X576Y187D01*
X577Y187D01*
X577Y188D01*
X578Y188D01*
X578Y188D01*
X579Y188D01*
X579Y189D01*
X580Y189D01*
X580Y190D01*
X580Y190D01*
X580Y191D01*
X581Y191D01*
X581Y192D01*
X582Y192D01*
X582Y192D01*
X583Y192D01*
X583Y193D01*
X584Y193D01*
X584Y194D01*
X584Y194D01*
X584Y195D01*
X585Y195D01*
X585Y196D01*
X586Y196D01*
X586Y196D01*
X587Y196D01*
X587Y197D01*
X584Y197D01*
G37*
D02*
G36*
X559Y195D02*
X559Y194D01*
X561Y194D01*
X561Y195D01*
X559Y195D01*
G37*
D02*
G36*
X558Y194D02*
X558Y193D01*
X564Y193D01*
X564Y194D01*
X558Y194D01*
G37*
D02*
G36*
X558Y194D02*
X558Y193D01*
X564Y193D01*
X564Y194D01*
X558Y194D01*
G37*
D02*
G36*
X558Y193D02*
X558Y192D01*
X563Y192D01*
X563Y193D01*
X558Y193D01*
G37*
D02*
G36*
X543Y192D02*
X543Y192D01*
X563Y192D01*
X563Y192D01*
X543Y192D01*
G37*
D02*
G36*
X543Y192D02*
X543Y192D01*
X563Y192D01*
X563Y192D01*
X543Y192D01*
G37*
D02*
G36*
X544Y192D02*
X544Y191D01*
X545Y191D01*
X545Y190D01*
X545Y190D01*
X545Y189D01*
X546Y189D01*
X546Y188D01*
X547Y188D01*
X547Y188D01*
X548Y188D01*
X548Y187D01*
X549Y187D01*
X549Y186D01*
X550Y186D01*
X550Y185D01*
X550Y185D01*
X550Y184D01*
X551Y184D01*
X551Y183D01*
X552Y183D01*
X552Y183D01*
X565Y183D01*
X565Y183D01*
X564Y183D01*
X564Y184D01*
X563Y184D01*
X563Y185D01*
X563Y185D01*
X563Y186D01*
X562Y186D01*
X562Y188D01*
X563Y188D01*
X563Y189D01*
X563Y189D01*
X563Y190D01*
X564Y190D01*
X564Y192D01*
X544Y192D01*
G37*
D02*
G36*
X570Y186D02*
X570Y185D01*
X571Y185D01*
X571Y186D01*
X570Y186D01*
G37*
D02*
G36*
X569Y185D02*
X569Y184D01*
X575Y184D01*
X575Y185D01*
X569Y185D01*
G37*
D02*
G36*
X569Y185D02*
X569Y184D01*
X575Y184D01*
X575Y185D01*
X569Y185D01*
G37*
D02*
G36*
X568Y184D02*
X568Y183D01*
X567Y183D01*
X567Y183D01*
X573Y183D01*
X573Y183D01*
X574Y183D01*
X574Y184D01*
X568Y184D01*
G37*
D02*
G36*
X553Y183D02*
X553Y182D01*
X574Y182D01*
X574Y183D01*
X553Y183D01*
G37*
D02*
G36*
X553Y183D02*
X553Y182D01*
X574Y182D01*
X574Y183D01*
X553Y183D01*
G37*
D02*
G36*
X554Y182D02*
X554Y181D01*
X554Y181D01*
X554Y180D01*
X555Y180D01*
X555Y179D01*
X556Y179D01*
X556Y179D01*
X557Y179D01*
X557Y178D01*
X558Y178D01*
X558Y177D01*
X558Y177D01*
X558Y176D01*
X559Y176D01*
X559Y175D01*
X560Y175D01*
X560Y175D01*
X561Y175D01*
X561Y174D01*
X562Y174D01*
X562Y173D01*
X563Y173D01*
X563Y172D01*
X563Y172D01*
X563Y171D01*
X564Y171D01*
X564Y170D01*
X565Y170D01*
X565Y170D01*
X566Y170D01*
X566Y169D01*
X567Y169D01*
X567Y168D01*
X567Y168D01*
X567Y167D01*
X568Y167D01*
X568Y166D01*
X569Y166D01*
X569Y166D01*
X570Y166D01*
X570Y165D01*
X571Y165D01*
X571Y164D01*
X571Y164D01*
X571Y163D01*
X572Y163D01*
X572Y162D01*
X573Y162D01*
X573Y162D01*
X574Y162D01*
X574Y161D01*
X575Y161D01*
X575Y160D01*
X576Y160D01*
X576Y159D01*
X576Y159D01*
X576Y158D01*
X577Y158D01*
X577Y157D01*
X578Y157D01*
X578Y157D01*
X579Y157D01*
X579Y156D01*
X580Y156D01*
X580Y155D01*
X580Y155D01*
X580Y154D01*
X581Y154D01*
X581Y153D01*
X582Y153D01*
X582Y153D01*
X583Y153D01*
X583Y152D01*
X584Y152D01*
X584Y151D01*
X584Y151D01*
X584Y150D01*
X585Y150D01*
X585Y149D01*
X586Y149D01*
X586Y149D01*
X587Y149D01*
X587Y148D01*
X588Y148D01*
X588Y147D01*
X589Y147D01*
X589Y146D01*
X589Y146D01*
X589Y145D01*
X590Y145D01*
X590Y144D01*
X591Y144D01*
X591Y144D01*
X604Y144D01*
X604Y144D01*
X603Y144D01*
X603Y145D01*
X602Y145D01*
X602Y146D01*
X602Y146D01*
X602Y147D01*
X601Y147D01*
X601Y148D01*
X600Y148D01*
X600Y149D01*
X599Y149D01*
X599Y149D01*
X598Y149D01*
X598Y150D01*
X598Y150D01*
X598Y151D01*
X597Y151D01*
X597Y152D01*
X596Y152D01*
X596Y153D01*
X595Y153D01*
X595Y153D01*
X594Y153D01*
X594Y154D01*
X593Y154D01*
X593Y155D01*
X593Y155D01*
X593Y156D01*
X592Y156D01*
X592Y157D01*
X591Y157D01*
X591Y157D01*
X590Y157D01*
X590Y158D01*
X589Y158D01*
X589Y159D01*
X589Y159D01*
X589Y160D01*
X588Y160D01*
X588Y161D01*
X587Y161D01*
X587Y162D01*
X586Y162D01*
X586Y162D01*
X585Y162D01*
X585Y163D01*
X584Y163D01*
X584Y164D01*
X584Y164D01*
X584Y165D01*
X583Y165D01*
X583Y166D01*
X582Y166D01*
X582Y166D01*
X581Y166D01*
X581Y167D01*
X580Y167D01*
X580Y168D01*
X580Y168D01*
X580Y169D01*
X579Y169D01*
X579Y170D01*
X578Y170D01*
X578Y170D01*
X577Y170D01*
X577Y171D01*
X576Y171D01*
X576Y172D01*
X576Y172D01*
X576Y173D01*
X575Y173D01*
X575Y174D01*
X574Y174D01*
X574Y175D01*
X573Y175D01*
X573Y175D01*
X572Y175D01*
X572Y176D01*
X571Y176D01*
X571Y178D01*
X572Y178D01*
X572Y179D01*
X573Y179D01*
X573Y179D01*
X574Y179D01*
X574Y180D01*
X575Y180D01*
X575Y182D01*
X554Y182D01*
G37*
D02*
G36*
X592Y144D02*
X592Y143D01*
X614Y143D01*
X614Y144D01*
X592Y144D01*
G37*
D02*
G36*
X592Y144D02*
X592Y143D01*
X614Y143D01*
X614Y144D01*
X592Y144D01*
G37*
D02*
G36*
X593Y143D02*
X593Y142D01*
X593Y142D01*
X593Y141D01*
X594Y141D01*
X594Y140D01*
X595Y140D01*
X595Y140D01*
X596Y140D01*
X596Y139D01*
X597Y139D01*
X597Y138D01*
X598Y138D01*
X598Y137D01*
X598Y137D01*
X598Y136D01*
X599Y136D01*
X599Y136D01*
X600Y136D01*
X600Y135D01*
X601Y135D01*
X601Y134D01*
X602Y134D01*
X602Y133D01*
X602Y133D01*
X602Y132D01*
X603Y132D01*
X603Y131D01*
X604Y131D01*
X604Y131D01*
X605Y131D01*
X605Y130D01*
X606Y130D01*
X606Y129D01*
X606Y129D01*
X606Y128D01*
X607Y128D01*
X607Y127D01*
X608Y127D01*
X608Y127D01*
X609Y127D01*
X609Y126D01*
X610Y126D01*
X610Y125D01*
X611Y125D01*
X611Y124D01*
X611Y124D01*
X611Y123D01*
X612Y123D01*
X612Y125D01*
X613Y125D01*
X613Y127D01*
X614Y127D01*
X614Y143D01*
X593Y143D01*
G37*
D02*
G36*
X441Y274D02*
X441Y273D01*
X440Y273D01*
X440Y271D01*
X439Y271D01*
X439Y267D01*
X438Y267D01*
X438Y253D01*
X449Y253D01*
X449Y253D01*
X450Y253D01*
X450Y252D01*
X450Y252D01*
X450Y251D01*
X451Y251D01*
X451Y250D01*
X452Y250D01*
X452Y249D01*
X453Y249D01*
X453Y248D01*
X454Y248D01*
X454Y248D01*
X454Y248D01*
X454Y247D01*
X455Y247D01*
X455Y246D01*
X456Y246D01*
X456Y245D01*
X457Y245D01*
X457Y244D01*
X458Y244D01*
X458Y244D01*
X459Y244D01*
X459Y243D01*
X459Y243D01*
X459Y242D01*
X460Y242D01*
X460Y241D01*
X461Y241D01*
X461Y240D01*
X462Y240D01*
X462Y240D01*
X463Y240D01*
X463Y239D01*
X463Y239D01*
X463Y238D01*
X464Y238D01*
X464Y237D01*
X465Y237D01*
X465Y236D01*
X466Y236D01*
X466Y235D01*
X467Y235D01*
X467Y235D01*
X467Y235D01*
X467Y234D01*
X468Y234D01*
X468Y233D01*
X469Y233D01*
X469Y232D01*
X470Y232D01*
X470Y231D01*
X471Y231D01*
X471Y231D01*
X472Y231D01*
X472Y230D01*
X472Y230D01*
X472Y229D01*
X473Y229D01*
X473Y228D01*
X474Y228D01*
X474Y227D01*
X475Y227D01*
X475Y227D01*
X476Y227D01*
X476Y226D01*
X476Y226D01*
X476Y225D01*
X477Y225D01*
X477Y224D01*
X478Y224D01*
X478Y223D01*
X479Y223D01*
X479Y222D01*
X480Y222D01*
X480Y222D01*
X480Y222D01*
X480Y221D01*
X481Y221D01*
X481Y219D01*
X480Y219D01*
X480Y218D01*
X480Y218D01*
X480Y218D01*
X479Y218D01*
X479Y217D01*
X478Y217D01*
X478Y215D01*
X487Y215D01*
X487Y214D01*
X488Y214D01*
X488Y214D01*
X489Y214D01*
X489Y213D01*
X489Y213D01*
X489Y212D01*
X490Y212D01*
X490Y211D01*
X491Y211D01*
X491Y209D01*
X490Y209D01*
X490Y209D01*
X489Y209D01*
X489Y208D01*
X489Y208D01*
X489Y207D01*
X488Y207D01*
X488Y206D01*
X489Y206D01*
X489Y205D01*
X497Y205D01*
X497Y205D01*
X498Y205D01*
X498Y204D01*
X498Y204D01*
X498Y203D01*
X499Y203D01*
X499Y202D01*
X500Y202D01*
X500Y201D01*
X501Y201D01*
X501Y201D01*
X502Y201D01*
X502Y200D01*
X502Y200D01*
X502Y198D01*
X502Y198D01*
X502Y197D01*
X501Y197D01*
X501Y196D01*
X500Y196D01*
X500Y196D01*
X499Y196D01*
X499Y195D01*
X500Y195D01*
X500Y194D01*
X508Y194D01*
X508Y193D01*
X509Y193D01*
X509Y192D01*
X510Y192D01*
X510Y192D01*
X511Y192D01*
X511Y191D01*
X511Y191D01*
X511Y190D01*
X512Y190D01*
X512Y189D01*
X513Y189D01*
X513Y188D01*
X514Y188D01*
X514Y188D01*
X515Y188D01*
X515Y187D01*
X515Y187D01*
X515Y185D01*
X515Y185D01*
X515Y184D01*
X514Y184D01*
X514Y183D01*
X513Y183D01*
X513Y183D01*
X512Y183D01*
X512Y182D01*
X513Y182D01*
X513Y181D01*
X521Y181D01*
X521Y180D01*
X522Y180D01*
X522Y179D01*
X523Y179D01*
X523Y179D01*
X524Y179D01*
X524Y178D01*
X524Y178D01*
X524Y177D01*
X525Y177D01*
X525Y176D01*
X526Y176D01*
X526Y175D01*
X527Y175D01*
X527Y175D01*
X528Y175D01*
X528Y172D01*
X527Y172D01*
X527Y171D01*
X526Y171D01*
X526Y170D01*
X525Y170D01*
X525Y169D01*
X526Y169D01*
X526Y168D01*
X534Y168D01*
X534Y167D01*
X535Y167D01*
X535Y166D01*
X536Y166D01*
X536Y166D01*
X537Y166D01*
X537Y165D01*
X537Y165D01*
X537Y164D01*
X538Y164D01*
X538Y163D01*
X539Y163D01*
X539Y162D01*
X538Y162D01*
X538Y161D01*
X537Y161D01*
X537Y160D01*
X537Y160D01*
X537Y158D01*
X537Y158D01*
X537Y157D01*
X545Y157D01*
X545Y157D01*
X545Y157D01*
X545Y156D01*
X546Y156D01*
X546Y155D01*
X547Y155D01*
X547Y154D01*
X548Y154D01*
X548Y153D01*
X549Y153D01*
X549Y153D01*
X550Y153D01*
X550Y152D01*
X550Y152D01*
X550Y151D01*
X551Y151D01*
X551Y150D01*
X552Y150D01*
X552Y149D01*
X553Y149D01*
X553Y149D01*
X554Y149D01*
X554Y148D01*
X554Y148D01*
X554Y147D01*
X555Y147D01*
X555Y146D01*
X556Y146D01*
X556Y145D01*
X557Y145D01*
X557Y144D01*
X558Y144D01*
X558Y144D01*
X558Y144D01*
X558Y143D01*
X559Y143D01*
X559Y142D01*
X560Y142D01*
X560Y141D01*
X561Y141D01*
X561Y140D01*
X562Y140D01*
X562Y140D01*
X563Y140D01*
X563Y139D01*
X563Y139D01*
X563Y138D01*
X564Y138D01*
X564Y137D01*
X565Y137D01*
X565Y136D01*
X566Y136D01*
X566Y136D01*
X567Y136D01*
X567Y135D01*
X567Y135D01*
X567Y134D01*
X568Y134D01*
X568Y133D01*
X569Y133D01*
X569Y132D01*
X570Y132D01*
X570Y131D01*
X571Y131D01*
X571Y131D01*
X571Y131D01*
X571Y130D01*
X572Y130D01*
X572Y129D01*
X573Y129D01*
X573Y128D01*
X574Y128D01*
X574Y127D01*
X575Y127D01*
X575Y127D01*
X576Y127D01*
X576Y126D01*
X576Y126D01*
X576Y125D01*
X577Y125D01*
X577Y124D01*
X578Y124D01*
X578Y123D01*
X579Y123D01*
X579Y123D01*
X580Y123D01*
X580Y122D01*
X580Y122D01*
X580Y121D01*
X581Y121D01*
X581Y120D01*
X594Y120D01*
X594Y121D01*
X593Y121D01*
X593Y122D01*
X593Y122D01*
X593Y123D01*
X592Y123D01*
X592Y123D01*
X591Y123D01*
X591Y124D01*
X590Y124D01*
X590Y125D01*
X589Y125D01*
X589Y126D01*
X589Y126D01*
X589Y127D01*
X588Y127D01*
X588Y127D01*
X587Y127D01*
X587Y128D01*
X586Y128D01*
X586Y129D01*
X585Y129D01*
X585Y130D01*
X584Y130D01*
X584Y131D01*
X584Y131D01*
X584Y131D01*
X583Y131D01*
X583Y132D01*
X582Y132D01*
X582Y133D01*
X581Y133D01*
X581Y134D01*
X580Y134D01*
X580Y135D01*
X580Y135D01*
X580Y136D01*
X579Y136D01*
X579Y136D01*
X578Y136D01*
X578Y137D01*
X577Y137D01*
X577Y138D01*
X576Y138D01*
X576Y139D01*
X576Y139D01*
X576Y140D01*
X575Y140D01*
X575Y140D01*
X574Y140D01*
X574Y141D01*
X573Y141D01*
X573Y142D01*
X572Y142D01*
X572Y143D01*
X571Y143D01*
X571Y144D01*
X571Y144D01*
X571Y144D01*
X570Y144D01*
X570Y145D01*
X569Y145D01*
X569Y146D01*
X568Y146D01*
X568Y147D01*
X567Y147D01*
X567Y148D01*
X567Y148D01*
X567Y149D01*
X566Y149D01*
X566Y149D01*
X565Y149D01*
X565Y150D01*
X564Y150D01*
X564Y151D01*
X563Y151D01*
X563Y152D01*
X563Y152D01*
X563Y153D01*
X562Y153D01*
X562Y153D01*
X561Y153D01*
X561Y154D01*
X560Y154D01*
X560Y155D01*
X559Y155D01*
X559Y156D01*
X558Y156D01*
X558Y157D01*
X558Y157D01*
X558Y157D01*
X557Y157D01*
X557Y158D01*
X556Y158D01*
X556Y159D01*
X555Y159D01*
X555Y160D01*
X554Y160D01*
X554Y161D01*
X554Y161D01*
X554Y162D01*
X553Y162D01*
X553Y162D01*
X552Y162D01*
X552Y163D01*
X551Y163D01*
X551Y164D01*
X550Y164D01*
X550Y165D01*
X550Y165D01*
X550Y166D01*
X549Y166D01*
X549Y166D01*
X548Y166D01*
X548Y167D01*
X547Y167D01*
X547Y168D01*
X546Y168D01*
X546Y169D01*
X545Y169D01*
X545Y170D01*
X545Y170D01*
X545Y170D01*
X544Y170D01*
X544Y171D01*
X543Y171D01*
X543Y172D01*
X542Y172D01*
X542Y173D01*
X541Y173D01*
X541Y174D01*
X541Y174D01*
X541Y175D01*
X540Y175D01*
X540Y175D01*
X539Y175D01*
X539Y176D01*
X538Y176D01*
X538Y177D01*
X537Y177D01*
X537Y178D01*
X537Y178D01*
X537Y179D01*
X536Y179D01*
X536Y179D01*
X535Y179D01*
X535Y180D01*
X534Y180D01*
X534Y181D01*
X533Y181D01*
X533Y182D01*
X532Y182D01*
X532Y183D01*
X532Y183D01*
X532Y183D01*
X531Y183D01*
X531Y184D01*
X530Y184D01*
X530Y185D01*
X529Y185D01*
X529Y186D01*
X528Y186D01*
X528Y187D01*
X528Y187D01*
X528Y188D01*
X527Y188D01*
X527Y188D01*
X526Y188D01*
X526Y189D01*
X525Y189D01*
X525Y190D01*
X524Y190D01*
X524Y191D01*
X524Y191D01*
X524Y192D01*
X523Y192D01*
X523Y192D01*
X522Y192D01*
X522Y193D01*
X521Y193D01*
X521Y194D01*
X520Y194D01*
X520Y195D01*
X519Y195D01*
X519Y196D01*
X519Y196D01*
X519Y196D01*
X518Y196D01*
X518Y197D01*
X517Y197D01*
X517Y198D01*
X516Y198D01*
X516Y199D01*
X515Y199D01*
X515Y200D01*
X515Y200D01*
X515Y201D01*
X514Y201D01*
X514Y201D01*
X513Y201D01*
X513Y202D01*
X512Y202D01*
X512Y203D01*
X511Y203D01*
X511Y204D01*
X511Y204D01*
X511Y205D01*
X510Y205D01*
X510Y205D01*
X509Y205D01*
X509Y206D01*
X508Y206D01*
X508Y207D01*
X507Y207D01*
X507Y208D01*
X506Y208D01*
X506Y209D01*
X506Y209D01*
X506Y209D01*
X505Y209D01*
X505Y210D01*
X504Y210D01*
X504Y211D01*
X503Y211D01*
X503Y212D01*
X502Y212D01*
X502Y213D01*
X502Y213D01*
X502Y214D01*
X501Y214D01*
X501Y214D01*
X500Y214D01*
X500Y215D01*
X499Y215D01*
X499Y216D01*
X498Y216D01*
X498Y217D01*
X498Y217D01*
X498Y218D01*
X497Y218D01*
X497Y218D01*
X496Y218D01*
X496Y219D01*
X495Y219D01*
X495Y220D01*
X494Y220D01*
X494Y221D01*
X493Y221D01*
X493Y222D01*
X493Y222D01*
X493Y222D01*
X492Y222D01*
X492Y223D01*
X491Y223D01*
X491Y224D01*
X490Y224D01*
X490Y225D01*
X489Y225D01*
X489Y226D01*
X489Y226D01*
X489Y227D01*
X488Y227D01*
X488Y227D01*
X487Y227D01*
X487Y228D01*
X486Y228D01*
X486Y229D01*
X485Y229D01*
X485Y230D01*
X485Y230D01*
X485Y231D01*
X484Y231D01*
X484Y231D01*
X483Y231D01*
X483Y232D01*
X482Y232D01*
X482Y233D01*
X481Y233D01*
X481Y234D01*
X480Y234D01*
X480Y235D01*
X480Y235D01*
X480Y235D01*
X479Y235D01*
X479Y236D01*
X478Y236D01*
X478Y237D01*
X477Y237D01*
X477Y238D01*
X476Y238D01*
X476Y239D01*
X476Y239D01*
X476Y240D01*
X475Y240D01*
X475Y240D01*
X474Y240D01*
X474Y241D01*
X473Y241D01*
X473Y242D01*
X472Y242D01*
X472Y243D01*
X472Y243D01*
X472Y244D01*
X471Y244D01*
X471Y244D01*
X470Y244D01*
X470Y245D01*
X469Y245D01*
X469Y246D01*
X468Y246D01*
X468Y247D01*
X467Y247D01*
X467Y248D01*
X467Y248D01*
X467Y248D01*
X466Y248D01*
X466Y249D01*
X465Y249D01*
X465Y250D01*
X464Y250D01*
X464Y251D01*
X463Y251D01*
X463Y252D01*
X463Y252D01*
X463Y253D01*
X462Y253D01*
X462Y253D01*
X461Y253D01*
X461Y254D01*
X460Y254D01*
X460Y255D01*
X459Y255D01*
X459Y256D01*
X459Y256D01*
X459Y257D01*
X458Y257D01*
X458Y257D01*
X457Y257D01*
X457Y258D01*
X456Y258D01*
X456Y259D01*
X455Y259D01*
X455Y260D01*
X454Y260D01*
X454Y261D01*
X454Y261D01*
X454Y261D01*
X453Y261D01*
X453Y262D01*
X452Y262D01*
X452Y263D01*
X451Y263D01*
X451Y264D01*
X450Y264D01*
X450Y265D01*
X450Y265D01*
X450Y266D01*
X449Y266D01*
X449Y266D01*
X448Y266D01*
X448Y267D01*
X447Y267D01*
X447Y268D01*
X446Y268D01*
X446Y269D01*
X446Y269D01*
X446Y270D01*
X445Y270D01*
X445Y270D01*
X444Y270D01*
X444Y271D01*
X443Y271D01*
X443Y272D01*
X442Y272D01*
X442Y273D01*
X441Y273D01*
X441Y274D01*
X441Y274D01*
G37*
D02*
G36*
X438Y253D02*
X438Y130D01*
X439Y130D01*
X439Y127D01*
X440Y127D01*
X440Y124D01*
X441Y124D01*
X441Y123D01*
X441Y123D01*
X441Y121D01*
X442Y121D01*
X442Y120D01*
X462Y120D01*
X462Y121D01*
X459Y121D01*
X459Y122D01*
X458Y122D01*
X458Y123D01*
X457Y123D01*
X457Y123D01*
X455Y123D01*
X455Y124D01*
X454Y124D01*
X454Y125D01*
X454Y125D01*
X454Y126D01*
X453Y126D01*
X453Y127D01*
X452Y127D01*
X452Y127D01*
X451Y127D01*
X451Y128D01*
X450Y128D01*
X450Y130D01*
X450Y130D01*
X450Y131D01*
X449Y131D01*
X449Y134D01*
X448Y134D01*
X448Y137D01*
X447Y137D01*
X447Y253D01*
X438Y253D01*
G37*
D02*
G36*
X479Y215D02*
X479Y213D01*
X481Y213D01*
X481Y212D01*
X483Y212D01*
X483Y213D01*
X484Y213D01*
X484Y214D01*
X485Y214D01*
X485Y214D01*
X485Y214D01*
X485Y215D01*
X479Y215D01*
G37*
D02*
G36*
X478Y213D02*
X478Y212D01*
X477Y212D01*
X477Y211D01*
X476Y211D01*
X476Y210D01*
X476Y210D01*
X476Y209D01*
X475Y209D01*
X475Y209D01*
X474Y209D01*
X474Y208D01*
X473Y208D01*
X473Y207D01*
X472Y207D01*
X472Y206D01*
X472Y206D01*
X472Y205D01*
X471Y205D01*
X471Y205D01*
X470Y205D01*
X470Y204D01*
X469Y204D01*
X469Y203D01*
X468Y203D01*
X468Y202D01*
X467Y202D01*
X467Y201D01*
X467Y201D01*
X467Y201D01*
X461Y201D01*
X461Y200D01*
X460Y200D01*
X460Y199D01*
X459Y199D01*
X459Y198D01*
X465Y198D01*
X465Y197D01*
X466Y197D01*
X466Y194D01*
X465Y194D01*
X465Y193D01*
X468Y193D01*
X468Y198D01*
X467Y198D01*
X467Y200D01*
X468Y200D01*
X468Y201D01*
X469Y201D01*
X469Y201D01*
X470Y201D01*
X470Y202D01*
X471Y202D01*
X471Y203D01*
X472Y203D01*
X472Y204D01*
X472Y204D01*
X472Y205D01*
X473Y205D01*
X473Y205D01*
X474Y205D01*
X474Y206D01*
X475Y206D01*
X475Y207D01*
X476Y207D01*
X476Y208D01*
X476Y208D01*
X476Y209D01*
X477Y209D01*
X477Y209D01*
X478Y209D01*
X478Y210D01*
X479Y210D01*
X479Y211D01*
X480Y211D01*
X480Y212D01*
X480Y212D01*
X480Y213D01*
X478Y213D01*
G37*
D02*
G36*
X489Y205D02*
X489Y205D01*
X489Y205D01*
X489Y204D01*
X488Y204D01*
X488Y203D01*
X492Y203D01*
X492Y202D01*
X493Y202D01*
X493Y203D01*
X494Y203D01*
X494Y204D01*
X495Y204D01*
X495Y205D01*
X496Y205D01*
X496Y205D01*
X489Y205D01*
G37*
D02*
G36*
X488Y203D02*
X488Y184D01*
X487Y184D01*
X487Y183D01*
X486Y183D01*
X486Y183D01*
X485Y183D01*
X485Y182D01*
X485Y182D01*
X485Y181D01*
X484Y181D01*
X484Y180D01*
X483Y180D01*
X483Y179D01*
X482Y179D01*
X482Y179D01*
X481Y179D01*
X481Y178D01*
X480Y178D01*
X480Y177D01*
X480Y177D01*
X480Y176D01*
X479Y176D01*
X479Y175D01*
X478Y175D01*
X478Y175D01*
X477Y175D01*
X477Y174D01*
X476Y174D01*
X476Y173D01*
X479Y173D01*
X479Y174D01*
X480Y174D01*
X480Y175D01*
X480Y175D01*
X480Y175D01*
X481Y175D01*
X481Y176D01*
X482Y176D01*
X482Y177D01*
X483Y177D01*
X483Y178D01*
X484Y178D01*
X484Y179D01*
X485Y179D01*
X485Y179D01*
X485Y179D01*
X485Y180D01*
X486Y180D01*
X486Y181D01*
X487Y181D01*
X487Y182D01*
X488Y182D01*
X488Y183D01*
X489Y183D01*
X489Y183D01*
X489Y183D01*
X489Y203D01*
X488Y203D01*
G37*
D02*
G36*
X459Y198D02*
X459Y193D01*
X462Y193D01*
X462Y194D01*
X461Y194D01*
X461Y196D01*
X462Y196D01*
X462Y197D01*
X463Y197D01*
X463Y198D01*
X459Y198D01*
G37*
D02*
G36*
X501Y194D02*
X501Y193D01*
X500Y193D01*
X500Y192D01*
X499Y192D01*
X499Y192D01*
X503Y192D01*
X503Y191D01*
X505Y191D01*
X505Y192D01*
X506Y192D01*
X506Y192D01*
X506Y192D01*
X506Y193D01*
X507Y193D01*
X507Y194D01*
X501Y194D01*
G37*
D02*
G36*
X459Y193D02*
X459Y192D01*
X467Y192D01*
X467Y193D01*
X459Y193D01*
G37*
D02*
G36*
X459Y193D02*
X459Y192D01*
X467Y192D01*
X467Y193D01*
X459Y193D01*
G37*
D02*
G36*
X460Y192D02*
X460Y192D01*
X461Y192D01*
X461Y191D01*
X466Y191D01*
X466Y192D01*
X467Y192D01*
X467Y192D01*
X460Y192D01*
G37*
D02*
G36*
X499Y192D02*
X499Y170D01*
X498Y170D01*
X498Y170D01*
X498Y170D01*
X498Y169D01*
X497Y169D01*
X497Y168D01*
X496Y168D01*
X496Y167D01*
X495Y167D01*
X495Y166D01*
X494Y166D01*
X494Y166D01*
X493Y166D01*
X493Y165D01*
X493Y165D01*
X493Y164D01*
X492Y164D01*
X492Y163D01*
X491Y163D01*
X491Y162D01*
X490Y162D01*
X490Y162D01*
X489Y162D01*
X489Y161D01*
X489Y161D01*
X489Y160D01*
X488Y160D01*
X488Y159D01*
X487Y159D01*
X487Y158D01*
X486Y158D01*
X486Y157D01*
X485Y157D01*
X485Y157D01*
X485Y157D01*
X485Y156D01*
X484Y156D01*
X484Y155D01*
X483Y155D01*
X483Y154D01*
X482Y154D01*
X482Y153D01*
X481Y153D01*
X481Y153D01*
X480Y153D01*
X480Y152D01*
X480Y152D01*
X480Y151D01*
X479Y151D01*
X479Y150D01*
X478Y150D01*
X478Y149D01*
X477Y149D01*
X477Y149D01*
X476Y149D01*
X476Y148D01*
X476Y148D01*
X476Y147D01*
X475Y147D01*
X475Y146D01*
X474Y146D01*
X474Y145D01*
X473Y145D01*
X473Y144D01*
X472Y144D01*
X472Y144D01*
X472Y144D01*
X472Y143D01*
X471Y143D01*
X471Y142D01*
X470Y142D01*
X470Y141D01*
X469Y141D01*
X469Y140D01*
X472Y140D01*
X472Y141D01*
X472Y141D01*
X472Y142D01*
X473Y142D01*
X473Y143D01*
X474Y143D01*
X474Y144D01*
X475Y144D01*
X475Y144D01*
X476Y144D01*
X476Y145D01*
X476Y145D01*
X476Y146D01*
X477Y146D01*
X477Y147D01*
X478Y147D01*
X478Y148D01*
X479Y148D01*
X479Y149D01*
X480Y149D01*
X480Y149D01*
X480Y149D01*
X480Y150D01*
X481Y150D01*
X481Y151D01*
X482Y151D01*
X482Y152D01*
X483Y152D01*
X483Y153D01*
X484Y153D01*
X484Y153D01*
X485Y153D01*
X485Y154D01*
X485Y154D01*
X485Y155D01*
X486Y155D01*
X486Y156D01*
X487Y156D01*
X487Y157D01*
X488Y157D01*
X488Y157D01*
X489Y157D01*
X489Y158D01*
X489Y158D01*
X489Y159D01*
X490Y159D01*
X490Y160D01*
X491Y160D01*
X491Y161D01*
X492Y161D01*
X492Y162D01*
X493Y162D01*
X493Y162D01*
X493Y162D01*
X493Y163D01*
X494Y163D01*
X494Y164D01*
X495Y164D01*
X495Y165D01*
X496Y165D01*
X496Y166D01*
X497Y166D01*
X497Y166D01*
X498Y166D01*
X498Y167D01*
X498Y167D01*
X498Y168D01*
X499Y168D01*
X499Y169D01*
X500Y169D01*
X500Y170D01*
X501Y170D01*
X501Y191D01*
X502Y191D01*
X502Y192D01*
X499Y192D01*
G37*
D02*
G36*
X514Y181D02*
X514Y180D01*
X513Y180D01*
X513Y179D01*
X515Y179D01*
X515Y179D01*
X516Y179D01*
X516Y178D01*
X518Y178D01*
X518Y179D01*
X519Y179D01*
X519Y179D01*
X519Y179D01*
X519Y180D01*
X520Y180D01*
X520Y181D01*
X514Y181D01*
G37*
D02*
G36*
X512Y179D02*
X512Y167D01*
X511Y167D01*
X511Y166D01*
X511Y166D01*
X511Y166D01*
X510Y166D01*
X510Y165D01*
X509Y165D01*
X509Y164D01*
X508Y164D01*
X508Y163D01*
X507Y163D01*
X507Y162D01*
X506Y162D01*
X506Y162D01*
X506Y162D01*
X506Y161D01*
X505Y161D01*
X505Y160D01*
X504Y160D01*
X504Y159D01*
X503Y159D01*
X503Y158D01*
X502Y158D01*
X502Y157D01*
X502Y157D01*
X502Y157D01*
X501Y157D01*
X501Y156D01*
X500Y156D01*
X500Y155D01*
X499Y155D01*
X499Y154D01*
X498Y154D01*
X498Y153D01*
X498Y153D01*
X498Y153D01*
X497Y153D01*
X497Y152D01*
X496Y152D01*
X496Y151D01*
X495Y151D01*
X495Y150D01*
X494Y150D01*
X494Y149D01*
X493Y149D01*
X493Y149D01*
X493Y149D01*
X493Y141D01*
X492Y141D01*
X492Y140D01*
X491Y140D01*
X491Y140D01*
X490Y140D01*
X490Y139D01*
X497Y139D01*
X497Y137D01*
X498Y137D01*
X498Y136D01*
X497Y136D01*
X497Y135D01*
X500Y135D01*
X500Y139D01*
X499Y139D01*
X499Y140D01*
X498Y140D01*
X498Y140D01*
X498Y140D01*
X498Y141D01*
X496Y141D01*
X496Y142D01*
X495Y142D01*
X495Y149D01*
X496Y149D01*
X496Y149D01*
X497Y149D01*
X497Y150D01*
X498Y150D01*
X498Y151D01*
X498Y151D01*
X498Y152D01*
X499Y152D01*
X499Y153D01*
X500Y153D01*
X500Y153D01*
X501Y153D01*
X501Y154D01*
X502Y154D01*
X502Y155D01*
X502Y155D01*
X502Y156D01*
X503Y156D01*
X503Y157D01*
X504Y157D01*
X504Y157D01*
X505Y157D01*
X505Y158D01*
X506Y158D01*
X506Y159D01*
X506Y159D01*
X506Y160D01*
X507Y160D01*
X507Y161D01*
X508Y161D01*
X508Y162D01*
X509Y162D01*
X509Y162D01*
X510Y162D01*
X510Y163D01*
X511Y163D01*
X511Y164D01*
X511Y164D01*
X511Y165D01*
X512Y165D01*
X512Y166D01*
X513Y166D01*
X513Y166D01*
X514Y166D01*
X514Y167D01*
X515Y167D01*
X515Y179D01*
X512Y179D01*
G37*
D02*
G36*
X472Y174D02*
X472Y173D01*
X474Y173D01*
X474Y174D01*
X472Y174D01*
G37*
D02*
G36*
X470Y173D02*
X470Y172D01*
X478Y172D01*
X478Y173D01*
X470Y173D01*
G37*
D02*
G36*
X470Y173D02*
X470Y172D01*
X478Y172D01*
X478Y173D01*
X470Y173D01*
G37*
D02*
G36*
X469Y172D02*
X469Y171D01*
X468Y171D01*
X468Y170D01*
X475Y170D01*
X475Y166D01*
X477Y166D01*
X477Y167D01*
X478Y167D01*
X478Y170D01*
X477Y170D01*
X477Y172D01*
X469Y172D01*
G37*
D02*
G36*
X468Y170D02*
X468Y170D01*
X467Y170D01*
X467Y167D01*
X468Y167D01*
X468Y166D01*
X471Y166D01*
X471Y170D01*
X468Y170D01*
G37*
D02*
G36*
X527Y168D02*
X527Y167D01*
X526Y167D01*
X526Y166D01*
X528Y166D01*
X528Y166D01*
X530Y166D01*
X530Y166D01*
X531Y166D01*
X531Y167D01*
X532Y167D01*
X532Y168D01*
X527Y168D01*
G37*
D02*
G36*
X468Y166D02*
X468Y166D01*
X477Y166D01*
X477Y166D01*
X468Y166D01*
G37*
D02*
G36*
X468Y166D02*
X468Y166D01*
X477Y166D01*
X477Y166D01*
X468Y166D01*
G37*
D02*
G36*
X525Y166D02*
X525Y166D01*
X524Y166D01*
X524Y165D01*
X524Y165D01*
X524Y164D01*
X523Y164D01*
X523Y163D01*
X522Y163D01*
X522Y162D01*
X521Y162D01*
X521Y162D01*
X520Y162D01*
X520Y161D01*
X519Y161D01*
X519Y160D01*
X519Y160D01*
X519Y159D01*
X521Y159D01*
X521Y160D01*
X522Y160D01*
X522Y161D01*
X523Y161D01*
X523Y162D01*
X524Y162D01*
X524Y162D01*
X524Y162D01*
X524Y163D01*
X525Y163D01*
X525Y164D01*
X526Y164D01*
X526Y165D01*
X527Y165D01*
X527Y166D01*
X528Y166D01*
X528Y166D01*
X525Y166D01*
G37*
D02*
G36*
X469Y166D02*
X469Y165D01*
X470Y165D01*
X470Y164D01*
X472Y164D01*
X472Y163D01*
X474Y163D01*
X474Y164D01*
X476Y164D01*
X476Y165D01*
X476Y165D01*
X476Y166D01*
X469Y166D01*
G37*
D02*
G36*
X515Y160D02*
X515Y159D01*
X517Y159D01*
X517Y160D01*
X515Y160D01*
G37*
D02*
G36*
X513Y159D02*
X513Y158D01*
X520Y158D01*
X520Y159D01*
X513Y159D01*
G37*
D02*
G36*
X513Y159D02*
X513Y158D01*
X520Y158D01*
X520Y159D01*
X513Y159D01*
G37*
D02*
G36*
X512Y158D02*
X512Y157D01*
X511Y157D01*
X511Y157D01*
X518Y157D01*
X518Y156D01*
X519Y156D01*
X519Y153D01*
X518Y153D01*
X518Y153D01*
X517Y153D01*
X517Y152D01*
X520Y152D01*
X520Y153D01*
X521Y153D01*
X521Y157D01*
X520Y157D01*
X520Y158D01*
X512Y158D01*
G37*
D02*
G36*
X538Y157D02*
X538Y157D01*
X537Y157D01*
X537Y156D01*
X537Y156D01*
X537Y155D01*
X541Y155D01*
X541Y154D01*
X541Y154D01*
X541Y155D01*
X542Y155D01*
X542Y156D01*
X543Y156D01*
X543Y157D01*
X544Y157D01*
X544Y157D01*
X538Y157D01*
G37*
D02*
G36*
X511Y157D02*
X511Y155D01*
X511Y155D01*
X511Y154D01*
X511Y154D01*
X511Y152D01*
X515Y152D01*
X515Y153D01*
X514Y153D01*
X514Y156D01*
X515Y156D01*
X515Y157D01*
X511Y157D01*
G37*
D02*
G36*
X536Y155D02*
X536Y154D01*
X535Y154D01*
X535Y153D01*
X534Y153D01*
X534Y153D01*
X533Y153D01*
X533Y152D01*
X532Y152D01*
X532Y151D01*
X532Y151D01*
X532Y150D01*
X531Y150D01*
X531Y149D01*
X530Y149D01*
X530Y149D01*
X529Y149D01*
X529Y148D01*
X528Y148D01*
X528Y147D01*
X528Y147D01*
X528Y146D01*
X527Y146D01*
X527Y145D01*
X526Y145D01*
X526Y144D01*
X525Y144D01*
X525Y144D01*
X524Y144D01*
X524Y143D01*
X528Y143D01*
X528Y144D01*
X528Y144D01*
X528Y144D01*
X529Y144D01*
X529Y145D01*
X530Y145D01*
X530Y146D01*
X531Y146D01*
X531Y147D01*
X532Y147D01*
X532Y148D01*
X532Y148D01*
X532Y149D01*
X533Y149D01*
X533Y149D01*
X534Y149D01*
X534Y150D01*
X535Y150D01*
X535Y151D01*
X536Y151D01*
X536Y152D01*
X537Y152D01*
X537Y153D01*
X537Y153D01*
X537Y153D01*
X538Y153D01*
X538Y154D01*
X539Y154D01*
X539Y155D01*
X536Y155D01*
G37*
D02*
G36*
X512Y152D02*
X512Y151D01*
X520Y151D01*
X520Y152D01*
X512Y152D01*
G37*
D02*
G36*
X512Y152D02*
X512Y151D01*
X520Y151D01*
X520Y152D01*
X512Y152D01*
G37*
D02*
G36*
X513Y151D02*
X513Y150D01*
X515Y150D01*
X515Y149D01*
X518Y149D01*
X518Y150D01*
X519Y150D01*
X519Y151D01*
X513Y151D01*
G37*
D02*
G36*
X520Y144D02*
X520Y143D01*
X524Y143D01*
X524Y144D01*
X520Y144D01*
G37*
D02*
G36*
X519Y143D02*
X519Y142D01*
X527Y142D01*
X527Y143D01*
X519Y143D01*
G37*
D02*
G36*
X519Y143D02*
X519Y142D01*
X527Y142D01*
X527Y143D01*
X519Y143D01*
G37*
D02*
G36*
X519Y142D02*
X519Y141D01*
X523Y141D01*
X523Y140D01*
X524Y140D01*
X524Y136D01*
X527Y136D01*
X527Y137D01*
X528Y137D01*
X528Y140D01*
X527Y140D01*
X527Y141D01*
X526Y141D01*
X526Y142D01*
X519Y142D01*
G37*
D02*
G36*
X465Y141D02*
X465Y140D01*
X467Y140D01*
X467Y141D01*
X465Y141D01*
G37*
D02*
G36*
X518Y141D02*
X518Y140D01*
X517Y140D01*
X517Y136D01*
X520Y136D01*
X520Y138D01*
X519Y138D01*
X519Y140D01*
X520Y140D01*
X520Y140D01*
X522Y140D01*
X522Y141D01*
X518Y141D01*
G37*
D02*
G36*
X463Y140D02*
X463Y140D01*
X471Y140D01*
X471Y140D01*
X463Y140D01*
G37*
D02*
G36*
X463Y140D02*
X463Y140D01*
X471Y140D01*
X471Y140D01*
X463Y140D01*
G37*
D02*
G36*
X462Y140D02*
X462Y138D01*
X467Y138D01*
X467Y137D01*
X468Y137D01*
X468Y135D01*
X467Y135D01*
X467Y134D01*
X467Y134D01*
X467Y133D01*
X470Y133D01*
X470Y134D01*
X471Y134D01*
X471Y138D01*
X470Y138D01*
X470Y140D01*
X462Y140D01*
G37*
D02*
G36*
X490Y139D02*
X490Y138D01*
X489Y138D01*
X489Y136D01*
X490Y136D01*
X490Y135D01*
X493Y135D01*
X493Y139D01*
X490Y139D01*
G37*
D02*
G36*
X461Y138D02*
X461Y133D01*
X465Y133D01*
X465Y134D01*
X463Y134D01*
X463Y137D01*
X464Y137D01*
X464Y138D01*
X461Y138D01*
G37*
D02*
G36*
X518Y136D02*
X518Y136D01*
X527Y136D01*
X527Y136D01*
X518Y136D01*
G37*
D02*
G36*
X518Y136D02*
X518Y136D01*
X527Y136D01*
X527Y136D01*
X518Y136D01*
G37*
D02*
G36*
X519Y136D02*
X519Y135D01*
X519Y135D01*
X519Y134D01*
X521Y134D01*
X521Y133D01*
X524Y133D01*
X524Y134D01*
X525Y134D01*
X525Y135D01*
X526Y135D01*
X526Y136D01*
X519Y136D01*
G37*
D02*
G36*
X490Y135D02*
X490Y134D01*
X499Y134D01*
X499Y135D01*
X490Y135D01*
G37*
D02*
G36*
X490Y135D02*
X490Y134D01*
X499Y134D01*
X499Y135D01*
X490Y135D01*
G37*
D02*
G36*
X491Y134D02*
X491Y133D01*
X492Y133D01*
X492Y132D01*
X493Y132D01*
X493Y131D01*
X496Y131D01*
X496Y132D01*
X498Y132D01*
X498Y133D01*
X498Y133D01*
X498Y134D01*
X491Y134D01*
G37*
D02*
G36*
X462Y133D02*
X462Y132D01*
X470Y132D01*
X470Y133D01*
X462Y133D01*
G37*
D02*
G36*
X462Y133D02*
X462Y132D01*
X470Y132D01*
X470Y133D01*
X462Y133D01*
G37*
D02*
G36*
X463Y132D02*
X463Y131D01*
X464Y131D01*
X464Y131D01*
X467Y131D01*
X467Y131D01*
X469Y131D01*
X469Y132D01*
X463Y132D01*
G37*
D02*
G36*
X443Y120D02*
X443Y119D01*
X595Y119D01*
X595Y120D01*
X443Y120D01*
G37*
D02*
G36*
X443Y120D02*
X443Y119D01*
X595Y119D01*
X595Y120D01*
X443Y120D01*
G37*
D02*
G36*
X443Y119D02*
X443Y118D01*
X444Y118D01*
X444Y118D01*
X445Y118D01*
X445Y117D01*
X446Y117D01*
X446Y116D01*
X446Y116D01*
X446Y115D01*
X448Y115D01*
X448Y114D01*
X449Y114D01*
X449Y114D01*
X450Y114D01*
X450Y113D01*
X452Y113D01*
X452Y112D01*
X454Y112D01*
X454Y111D01*
X598Y111D01*
X598Y112D01*
X600Y112D01*
X600Y113D01*
X602Y113D01*
X602Y114D01*
X601Y114D01*
X601Y114D01*
X600Y114D01*
X600Y115D01*
X599Y115D01*
X599Y116D01*
X598Y116D01*
X598Y117D01*
X598Y117D01*
X598Y118D01*
X597Y118D01*
X597Y118D01*
X596Y118D01*
X596Y119D01*
X443Y119D01*
G37*
D02*
G54D10*
X0Y457D02*
X652Y457D01*
X0Y456D02*
X652Y456D01*
X0Y455D02*
X652Y455D01*
X0Y454D02*
X652Y454D01*
X0Y453D02*
X652Y453D01*
X0Y452D02*
X652Y452D01*
X0Y451D02*
X652Y451D01*
X0Y450D02*
X652Y450D01*
X0Y449D02*
X7Y449D01*
X645Y449D02*
X652Y449D01*
X0Y448D02*
X7Y448D01*
X645Y448D02*
X652Y448D01*
X0Y447D02*
X7Y447D01*
X645Y447D02*
X652Y447D01*
X0Y446D02*
X7Y446D01*
X645Y446D02*
X652Y446D01*
X0Y445D02*
X7Y445D01*
X645Y445D02*
X652Y445D01*
X0Y444D02*
X7Y444D01*
X645Y444D02*
X652Y444D01*
X0Y443D02*
X7Y443D01*
X26Y443D02*
X32Y443D01*
X42Y443D02*
X52Y443D01*
X58Y443D02*
X67Y443D01*
X87Y443D02*
X92Y443D01*
X103Y443D02*
X112Y443D01*
X136Y443D02*
X141Y443D01*
X152Y443D02*
X161Y443D01*
X186Y443D02*
X191Y443D01*
X202Y443D02*
X207Y443D01*
X236Y443D02*
X240Y443D01*
X253Y443D02*
X259Y443D01*
X293Y443D02*
X302Y443D01*
X347Y443D02*
X350Y443D01*
X393Y443D02*
X403Y443D01*
X444Y443D02*
X445Y443D01*
X495Y443D02*
X502Y443D01*
X532Y443D02*
X536Y443D01*
X543Y443D02*
X545Y443D01*
X552Y443D02*
X552Y443D01*
X559Y443D02*
X564Y443D01*
X578Y443D02*
X579Y443D01*
X587Y443D02*
X588Y443D01*
X598Y443D02*
X604Y443D01*
X614Y443D02*
X620Y443D01*
X645Y443D02*
X652Y443D01*
X0Y442D02*
X7Y442D01*
X27Y442D02*
X33Y442D01*
X42Y442D02*
X52Y442D01*
X58Y442D02*
X68Y442D01*
X86Y442D02*
X92Y442D01*
X103Y442D02*
X112Y442D01*
X136Y442D02*
X141Y442D01*
X152Y442D02*
X162Y442D01*
X186Y442D02*
X191Y442D01*
X202Y442D02*
X207Y442D01*
X235Y442D02*
X241Y442D01*
X252Y442D02*
X261Y442D01*
X292Y442D02*
X302Y442D01*
X346Y442D02*
X351Y442D01*
X393Y442D02*
X403Y442D01*
X443Y442D02*
X446Y442D01*
X495Y442D02*
X503Y442D01*
X530Y442D02*
X536Y442D01*
X543Y442D02*
X545Y442D01*
X551Y442D02*
X553Y442D01*
X559Y442D02*
X566Y442D01*
X578Y442D02*
X579Y442D01*
X587Y442D02*
X588Y442D01*
X597Y442D02*
X604Y442D01*
X613Y442D02*
X620Y442D01*
X645Y442D02*
X652Y442D01*
X0Y441D02*
X7Y441D01*
X28Y441D02*
X30Y441D01*
X32Y441D02*
X34Y441D01*
X42Y441D02*
X44Y441D01*
X47Y441D02*
X48Y441D01*
X51Y441D02*
X52Y441D01*
X58Y441D02*
X60Y441D01*
X67Y441D02*
X69Y441D01*
X90Y441D02*
X92Y441D01*
X111Y441D02*
X113Y441D01*
X140Y441D02*
X141Y441D01*
X160Y441D02*
X162Y441D01*
X190Y441D02*
X191Y441D01*
X206Y441D02*
X207Y441D01*
X236Y441D02*
X241Y441D01*
X251Y441D02*
X261Y441D01*
X292Y441D02*
X294Y441D01*
X301Y441D02*
X302Y441D01*
X345Y441D02*
X351Y441D01*
X393Y441D02*
X394Y441D01*
X401Y441D02*
X403Y441D01*
X443Y441D02*
X445Y441D01*
X495Y441D02*
X496Y441D01*
X530Y441D02*
X532Y441D01*
X543Y441D02*
X546Y441D01*
X551Y441D02*
X553Y441D01*
X561Y441D02*
X566Y441D01*
X578Y441D02*
X579Y441D01*
X587Y441D02*
X588Y441D01*
X597Y441D02*
X598Y441D01*
X613Y441D02*
X614Y441D01*
X645Y441D02*
X652Y441D01*
X0Y440D02*
X7Y440D01*
X28Y440D02*
X30Y440D01*
X33Y440D02*
X34Y440D01*
X43Y440D02*
X43Y440D01*
X47Y440D02*
X48Y440D01*
X52Y440D02*
X52Y440D01*
X58Y440D02*
X60Y440D01*
X67Y440D02*
X69Y440D01*
X91Y440D02*
X92Y440D01*
X111Y440D02*
X113Y440D01*
X140Y440D02*
X141Y440D01*
X161Y440D02*
X162Y440D01*
X190Y440D02*
X191Y440D01*
X206Y440D02*
X207Y440D01*
X239Y440D02*
X241Y440D01*
X251Y440D02*
X252Y440D01*
X260Y440D02*
X261Y440D01*
X292Y440D02*
X293Y440D01*
X301Y440D02*
X302Y440D01*
X345Y440D02*
X347Y440D01*
X350Y440D02*
X351Y440D01*
X402Y440D02*
X403Y440D01*
X443Y440D02*
X445Y440D01*
X495Y440D02*
X496Y440D01*
X529Y440D02*
X531Y440D01*
X543Y440D02*
X546Y440D01*
X551Y440D02*
X553Y440D01*
X561Y440D02*
X562Y440D01*
X565Y440D02*
X567Y440D01*
X578Y440D02*
X579Y440D01*
X587Y440D02*
X588Y440D01*
X596Y440D02*
X598Y440D01*
X612Y440D02*
X614Y440D01*
X645Y440D02*
X652Y440D01*
X0Y439D02*
X7Y439D01*
X28Y439D02*
X30Y439D01*
X33Y439D02*
X35Y439D01*
X47Y439D02*
X48Y439D01*
X58Y439D02*
X60Y439D01*
X67Y439D02*
X69Y439D01*
X91Y439D02*
X92Y439D01*
X111Y439D02*
X113Y439D01*
X140Y439D02*
X141Y439D01*
X161Y439D02*
X162Y439D01*
X190Y439D02*
X191Y439D01*
X206Y439D02*
X207Y439D01*
X239Y439D02*
X241Y439D01*
X251Y439D02*
X252Y439D01*
X260Y439D02*
X261Y439D01*
X292Y439D02*
X293Y439D01*
X301Y439D02*
X302Y439D01*
X345Y439D02*
X347Y439D01*
X350Y439D02*
X351Y439D01*
X402Y439D02*
X403Y439D01*
X443Y439D02*
X445Y439D01*
X495Y439D02*
X496Y439D01*
X528Y439D02*
X530Y439D01*
X543Y439D02*
X546Y439D01*
X551Y439D02*
X553Y439D01*
X561Y439D02*
X562Y439D01*
X566Y439D02*
X567Y439D01*
X578Y439D02*
X579Y439D01*
X587Y439D02*
X588Y439D01*
X596Y439D02*
X597Y439D01*
X612Y439D02*
X613Y439D01*
X645Y439D02*
X652Y439D01*
X0Y438D02*
X7Y438D01*
X28Y438D02*
X30Y438D01*
X34Y438D02*
X35Y438D01*
X47Y438D02*
X48Y438D01*
X58Y438D02*
X68Y438D01*
X91Y438D02*
X92Y438D01*
X111Y438D02*
X113Y438D01*
X140Y438D02*
X141Y438D01*
X161Y438D02*
X162Y438D01*
X190Y438D02*
X191Y438D01*
X206Y438D02*
X207Y438D01*
X239Y438D02*
X241Y438D01*
X251Y438D02*
X252Y438D01*
X260Y438D02*
X261Y438D01*
X292Y438D02*
X293Y438D01*
X301Y438D02*
X302Y438D01*
X345Y438D02*
X347Y438D01*
X350Y438D02*
X351Y438D01*
X402Y438D02*
X403Y438D01*
X443Y438D02*
X445Y438D01*
X495Y438D02*
X496Y438D01*
X527Y438D02*
X529Y438D01*
X543Y438D02*
X547Y438D01*
X551Y438D02*
X553Y438D01*
X561Y438D02*
X562Y438D01*
X566Y438D02*
X568Y438D01*
X578Y438D02*
X580Y438D01*
X587Y438D02*
X588Y438D01*
X595Y438D02*
X597Y438D01*
X611Y438D02*
X613Y438D01*
X645Y438D02*
X652Y438D01*
X0Y437D02*
X7Y437D01*
X28Y437D02*
X30Y437D01*
X34Y437D02*
X36Y437D01*
X47Y437D02*
X48Y437D01*
X58Y437D02*
X68Y437D01*
X91Y437D02*
X92Y437D01*
X111Y437D02*
X113Y437D01*
X140Y437D02*
X141Y437D01*
X161Y437D02*
X162Y437D01*
X176Y437D02*
X178Y437D01*
X190Y437D02*
X191Y437D01*
X206Y437D02*
X207Y437D01*
X239Y437D02*
X241Y437D01*
X251Y437D02*
X252Y437D01*
X260Y437D02*
X261Y437D01*
X280Y437D02*
X282Y437D01*
X292Y437D02*
X302Y437D01*
X345Y437D02*
X347Y437D01*
X350Y437D02*
X351Y437D01*
X401Y437D02*
X403Y437D01*
X443Y437D02*
X445Y437D01*
X495Y437D02*
X496Y437D01*
X527Y437D02*
X528Y437D01*
X543Y437D02*
X544Y437D01*
X546Y437D02*
X547Y437D01*
X551Y437D02*
X553Y437D01*
X561Y437D02*
X562Y437D01*
X567Y437D02*
X568Y437D01*
X579Y437D02*
X580Y437D01*
X586Y437D02*
X588Y437D01*
X595Y437D02*
X596Y437D01*
X611Y437D02*
X612Y437D01*
X645Y437D02*
X652Y437D01*
X0Y436D02*
X7Y436D01*
X28Y436D02*
X30Y436D01*
X35Y436D02*
X36Y436D01*
X47Y436D02*
X48Y436D01*
X58Y436D02*
X66Y436D01*
X91Y436D02*
X92Y436D01*
X111Y436D02*
X113Y436D01*
X140Y436D02*
X141Y436D01*
X161Y436D02*
X162Y436D01*
X174Y436D02*
X181Y436D01*
X183Y436D02*
X184Y436D01*
X190Y436D02*
X191Y436D01*
X206Y436D02*
X207Y436D01*
X226Y436D02*
X229Y436D01*
X239Y436D02*
X241Y436D01*
X251Y436D02*
X252Y436D01*
X260Y436D02*
X261Y436D01*
X278Y436D02*
X285Y436D01*
X287Y436D02*
X288Y436D01*
X292Y436D02*
X302Y436D01*
X345Y436D02*
X347Y436D01*
X350Y436D02*
X351Y436D01*
X400Y436D02*
X402Y436D01*
X429Y436D02*
X434Y436D01*
X439Y436D02*
X439Y436D01*
X443Y436D02*
X445Y436D01*
X480Y436D02*
X485Y436D01*
X489Y436D02*
X490Y436D01*
X495Y436D02*
X496Y436D01*
X527Y436D02*
X528Y436D01*
X543Y436D02*
X544Y436D01*
X546Y436D02*
X548Y436D01*
X551Y436D02*
X553Y436D01*
X561Y436D02*
X562Y436D01*
X567Y436D02*
X569Y436D01*
X579Y436D02*
X581Y436D01*
X586Y436D02*
X587Y436D01*
X594Y436D02*
X596Y436D01*
X611Y436D02*
X612Y436D01*
X645Y436D02*
X652Y436D01*
X0Y435D02*
X7Y435D01*
X28Y435D02*
X30Y435D01*
X35Y435D02*
X36Y435D01*
X47Y435D02*
X48Y435D01*
X58Y435D02*
X60Y435D01*
X63Y435D02*
X64Y435D01*
X91Y435D02*
X92Y435D01*
X105Y435D02*
X112Y435D01*
X140Y435D02*
X141Y435D01*
X153Y435D02*
X162Y435D01*
X174Y435D02*
X175Y435D01*
X178Y435D02*
X184Y435D01*
X190Y435D02*
X191Y435D01*
X206Y435D02*
X207Y435D01*
X225Y435D02*
X235Y435D01*
X239Y435D02*
X241Y435D01*
X251Y435D02*
X252Y435D01*
X260Y435D02*
X261Y435D01*
X278Y435D02*
X279Y435D01*
X282Y435D02*
X288Y435D01*
X301Y435D02*
X302Y435D01*
X344Y435D02*
X352Y435D01*
X399Y435D02*
X401Y435D01*
X429Y435D02*
X439Y435D01*
X443Y435D02*
X445Y435D01*
X480Y435D02*
X490Y435D01*
X495Y435D02*
X502Y435D01*
X526Y435D02*
X528Y435D01*
X543Y435D02*
X544Y435D01*
X547Y435D02*
X548Y435D01*
X551Y435D02*
X553Y435D01*
X561Y435D02*
X562Y435D01*
X568Y435D02*
X569Y435D01*
X579Y435D02*
X581Y435D01*
X585Y435D02*
X587Y435D01*
X594Y435D02*
X596Y435D01*
X610Y435D02*
X612Y435D01*
X645Y435D02*
X652Y435D01*
X0Y434D02*
X7Y434D01*
X28Y434D02*
X30Y434D01*
X35Y434D02*
X36Y434D01*
X47Y434D02*
X48Y434D01*
X58Y434D02*
X60Y434D01*
X63Y434D02*
X65Y434D01*
X91Y434D02*
X92Y434D01*
X105Y434D02*
X112Y434D01*
X140Y434D02*
X141Y434D01*
X152Y434D02*
X161Y434D01*
X181Y434D02*
X183Y434D01*
X190Y434D02*
X191Y434D01*
X206Y434D02*
X207Y434D01*
X224Y434D02*
X225Y434D01*
X229Y434D02*
X234Y434D01*
X239Y434D02*
X241Y434D01*
X251Y434D02*
X252Y434D01*
X260Y434D02*
X261Y434D01*
X285Y434D02*
X286Y434D01*
X301Y434D02*
X302Y434D01*
X343Y434D02*
X353Y434D01*
X398Y434D02*
X400Y434D01*
X429Y434D02*
X429Y434D01*
X435Y434D02*
X438Y434D01*
X443Y434D02*
X445Y434D01*
X485Y434D02*
X489Y434D01*
X495Y434D02*
X503Y434D01*
X526Y434D02*
X528Y434D01*
X543Y434D02*
X544Y434D01*
X547Y434D02*
X549Y434D01*
X551Y434D02*
X553Y434D01*
X561Y434D02*
X562Y434D01*
X567Y434D02*
X569Y434D01*
X580Y434D02*
X581Y434D01*
X585Y434D02*
X586Y434D01*
X594Y434D02*
X596Y434D01*
X611Y434D02*
X612Y434D01*
X645Y434D02*
X652Y434D01*
X0Y433D02*
X7Y433D01*
X28Y433D02*
X30Y433D01*
X34Y433D02*
X36Y433D01*
X47Y433D02*
X48Y433D01*
X58Y433D02*
X60Y433D01*
X64Y433D02*
X66Y433D01*
X91Y433D02*
X92Y433D01*
X95Y433D02*
X96Y433D01*
X111Y433D02*
X113Y433D01*
X140Y433D02*
X141Y433D01*
X145Y433D02*
X146Y433D01*
X152Y433D02*
X153Y433D01*
X190Y433D02*
X191Y433D01*
X194Y433D02*
X196Y433D01*
X206Y433D02*
X207Y433D01*
X211Y433D02*
X212Y433D01*
X232Y433D02*
X232Y433D01*
X239Y433D02*
X241Y433D01*
X244Y433D02*
X245Y433D01*
X251Y433D02*
X252Y433D01*
X260Y433D02*
X261Y433D01*
X301Y433D02*
X302Y433D01*
X343Y433D02*
X345Y433D01*
X352Y433D02*
X353Y433D01*
X397Y433D02*
X399Y433D01*
X443Y433D02*
X453Y433D01*
X501Y433D02*
X503Y433D01*
X526Y433D02*
X528Y433D01*
X532Y433D02*
X537Y433D01*
X543Y433D02*
X544Y433D01*
X548Y433D02*
X549Y433D01*
X551Y433D02*
X553Y433D01*
X561Y433D02*
X562Y433D01*
X567Y433D02*
X569Y433D01*
X580Y433D02*
X582Y433D01*
X585Y433D02*
X586Y433D01*
X595Y433D02*
X596Y433D01*
X611Y433D02*
X612Y433D01*
X645Y433D02*
X652Y433D01*
X0Y432D02*
X7Y432D01*
X28Y432D02*
X30Y432D01*
X34Y432D02*
X35Y432D01*
X47Y432D02*
X48Y432D01*
X58Y432D02*
X60Y432D01*
X65Y432D02*
X66Y432D01*
X91Y432D02*
X92Y432D01*
X95Y432D02*
X97Y432D01*
X111Y432D02*
X113Y432D01*
X140Y432D02*
X141Y432D01*
X145Y432D02*
X146Y432D01*
X152Y432D02*
X153Y432D01*
X190Y432D02*
X191Y432D01*
X194Y432D02*
X196Y432D01*
X206Y432D02*
X207Y432D01*
X211Y432D02*
X212Y432D01*
X239Y432D02*
X241Y432D01*
X244Y432D02*
X245Y432D01*
X251Y432D02*
X252Y432D01*
X260Y432D02*
X261Y432D01*
X301Y432D02*
X302Y432D01*
X343Y432D02*
X344Y432D01*
X352Y432D02*
X353Y432D01*
X397Y432D02*
X398Y432D01*
X443Y432D02*
X454Y432D01*
X501Y432D02*
X503Y432D01*
X526Y432D02*
X528Y432D01*
X532Y432D02*
X537Y432D01*
X543Y432D02*
X544Y432D01*
X548Y432D02*
X553Y432D01*
X561Y432D02*
X562Y432D01*
X567Y432D02*
X568Y432D01*
X581Y432D02*
X582Y432D01*
X584Y432D02*
X586Y432D01*
X595Y432D02*
X597Y432D01*
X611Y432D02*
X613Y432D01*
X645Y432D02*
X652Y432D01*
X0Y431D02*
X7Y431D01*
X28Y431D02*
X30Y431D01*
X33Y431D02*
X35Y431D01*
X47Y431D02*
X48Y431D01*
X58Y431D02*
X60Y431D01*
X65Y431D02*
X67Y431D01*
X91Y431D02*
X92Y431D01*
X95Y431D02*
X97Y431D01*
X111Y431D02*
X113Y431D01*
X140Y431D02*
X141Y431D01*
X145Y431D02*
X146Y431D01*
X152Y431D02*
X153Y431D01*
X190Y431D02*
X191Y431D01*
X194Y431D02*
X196Y431D01*
X206Y431D02*
X207Y431D01*
X211Y431D02*
X212Y431D01*
X239Y431D02*
X241Y431D01*
X244Y431D02*
X245Y431D01*
X251Y431D02*
X252Y431D01*
X260Y431D02*
X261Y431D01*
X301Y431D02*
X302Y431D01*
X343Y431D02*
X344Y431D01*
X352Y431D02*
X353Y431D01*
X397Y431D02*
X398Y431D01*
X443Y431D02*
X445Y431D01*
X452Y431D02*
X454Y431D01*
X501Y431D02*
X503Y431D01*
X526Y431D02*
X528Y431D01*
X535Y431D02*
X537Y431D01*
X543Y431D02*
X544Y431D01*
X548Y431D02*
X553Y431D01*
X561Y431D02*
X562Y431D01*
X566Y431D02*
X568Y431D01*
X581Y431D02*
X585Y431D01*
X596Y431D02*
X597Y431D01*
X612Y431D02*
X613Y431D01*
X645Y431D02*
X652Y431D01*
X0Y430D02*
X7Y430D01*
X28Y430D02*
X30Y430D01*
X33Y430D02*
X34Y430D01*
X47Y430D02*
X48Y430D01*
X58Y430D02*
X60Y430D01*
X66Y430D02*
X67Y430D01*
X91Y430D02*
X92Y430D01*
X95Y430D02*
X97Y430D01*
X111Y430D02*
X113Y430D01*
X140Y430D02*
X141Y430D01*
X145Y430D02*
X146Y430D01*
X152Y430D02*
X153Y430D01*
X190Y430D02*
X191Y430D01*
X194Y430D02*
X196Y430D01*
X206Y430D02*
X207Y430D01*
X211Y430D02*
X212Y430D01*
X239Y430D02*
X241Y430D01*
X244Y430D02*
X245Y430D01*
X251Y430D02*
X252Y430D01*
X260Y430D02*
X261Y430D01*
X301Y430D02*
X302Y430D01*
X343Y430D02*
X344Y430D01*
X352Y430D02*
X353Y430D01*
X397Y430D02*
X398Y430D01*
X443Y430D02*
X445Y430D01*
X452Y430D02*
X454Y430D01*
X501Y430D02*
X503Y430D01*
X526Y430D02*
X528Y430D01*
X535Y430D02*
X537Y430D01*
X543Y430D02*
X544Y430D01*
X549Y430D02*
X553Y430D01*
X561Y430D02*
X562Y430D01*
X566Y430D02*
X567Y430D01*
X581Y430D02*
X585Y430D01*
X596Y430D02*
X598Y430D01*
X612Y430D02*
X614Y430D01*
X645Y430D02*
X652Y430D01*
X0Y429D02*
X7Y429D01*
X28Y429D02*
X30Y429D01*
X32Y429D02*
X34Y429D01*
X47Y429D02*
X48Y429D01*
X58Y429D02*
X60Y429D01*
X66Y429D02*
X68Y429D01*
X91Y429D02*
X92Y429D01*
X95Y429D02*
X97Y429D01*
X111Y429D02*
X113Y429D01*
X140Y429D02*
X141Y429D01*
X145Y429D02*
X146Y429D01*
X152Y429D02*
X153Y429D01*
X190Y429D02*
X191Y429D01*
X194Y429D02*
X196Y429D01*
X206Y429D02*
X207Y429D01*
X211Y429D02*
X212Y429D01*
X239Y429D02*
X241Y429D01*
X244Y429D02*
X245Y429D01*
X251Y429D02*
X252Y429D01*
X260Y429D02*
X261Y429D01*
X301Y429D02*
X302Y429D01*
X343Y429D02*
X344Y429D01*
X352Y429D02*
X353Y429D01*
X397Y429D02*
X398Y429D01*
X443Y429D02*
X445Y429D01*
X452Y429D02*
X454Y429D01*
X501Y429D02*
X503Y429D01*
X526Y429D02*
X528Y429D01*
X535Y429D02*
X537Y429D01*
X543Y429D02*
X544Y429D01*
X549Y429D02*
X553Y429D01*
X561Y429D02*
X562Y429D01*
X565Y429D02*
X567Y429D01*
X582Y429D02*
X585Y429D01*
X597Y429D02*
X598Y429D01*
X613Y429D02*
X614Y429D01*
X645Y429D02*
X652Y429D01*
X0Y428D02*
X7Y428D01*
X26Y428D02*
X33Y428D01*
X47Y428D02*
X48Y428D01*
X58Y428D02*
X60Y428D01*
X67Y428D02*
X68Y428D01*
X87Y428D02*
X97Y428D01*
X103Y428D02*
X113Y428D01*
X137Y428D02*
X146Y428D01*
X152Y428D02*
X161Y428D01*
X186Y428D02*
X196Y428D01*
X202Y428D02*
X212Y428D01*
X239Y428D02*
X241Y428D01*
X244Y428D02*
X245Y428D01*
X251Y428D02*
X253Y428D01*
X260Y428D02*
X261Y428D01*
X301Y428D02*
X302Y428D01*
X343Y428D02*
X345Y428D01*
X352Y428D02*
X353Y428D01*
X397Y428D02*
X398Y428D01*
X443Y428D02*
X454Y428D01*
X493Y428D02*
X503Y428D01*
X527Y428D02*
X536Y428D01*
X543Y428D02*
X544Y428D01*
X550Y428D02*
X553Y428D01*
X560Y428D02*
X566Y428D01*
X582Y428D02*
X584Y428D01*
X597Y428D02*
X604Y428D01*
X613Y428D02*
X620Y428D01*
X645Y428D02*
X652Y428D01*
X0Y427D02*
X7Y427D01*
X26Y427D02*
X32Y427D01*
X47Y427D02*
X48Y427D01*
X59Y427D02*
X59Y427D01*
X67Y427D02*
X68Y427D01*
X86Y427D02*
X96Y427D01*
X103Y427D02*
X112Y427D01*
X136Y427D02*
X146Y427D01*
X152Y427D02*
X162Y427D01*
X186Y427D02*
X196Y427D01*
X202Y427D02*
X212Y427D01*
X235Y427D02*
X245Y427D01*
X251Y427D02*
X261Y427D01*
X300Y427D02*
X302Y427D01*
X343Y427D02*
X353Y427D01*
X397Y427D02*
X398Y427D01*
X443Y427D02*
X453Y427D01*
X493Y427D02*
X502Y427D01*
X527Y427D02*
X536Y427D01*
X543Y427D02*
X544Y427D01*
X550Y427D02*
X553Y427D01*
X559Y427D02*
X566Y427D01*
X583Y427D02*
X584Y427D01*
X598Y427D02*
X604Y427D01*
X614Y427D02*
X620Y427D01*
X645Y427D02*
X652Y427D01*
X0Y426D02*
X7Y426D01*
X87Y426D02*
X96Y426D01*
X103Y426D02*
X111Y426D01*
X136Y426D02*
X145Y426D01*
X152Y426D02*
X161Y426D01*
X187Y426D02*
X194Y426D01*
X203Y426D02*
X211Y426D01*
X235Y426D02*
X245Y426D01*
X252Y426D02*
X260Y426D01*
X301Y426D02*
X301Y426D01*
X344Y426D02*
X352Y426D01*
X444Y426D02*
X453Y426D01*
X495Y426D02*
X501Y426D01*
X529Y426D02*
X534Y426D01*
X543Y426D02*
X543Y426D01*
X551Y426D02*
X553Y426D01*
X559Y426D02*
X564Y426D01*
X645Y426D02*
X652Y426D01*
X0Y425D02*
X7Y425D01*
X645Y425D02*
X652Y425D01*
X0Y424D02*
X7Y424D01*
X645Y424D02*
X652Y424D01*
X0Y423D02*
X7Y423D01*
X645Y423D02*
X652Y423D01*
X0Y422D02*
X7Y422D01*
X645Y422D02*
X652Y422D01*
X0Y421D02*
X7Y421D01*
X645Y421D02*
X652Y421D01*
X0Y420D02*
X7Y420D01*
X645Y420D02*
X652Y420D01*
X0Y419D02*
X7Y419D01*
X645Y419D02*
X652Y419D01*
X0Y418D02*
X7Y418D01*
X645Y418D02*
X652Y418D01*
X0Y417D02*
X7Y417D01*
X645Y417D02*
X652Y417D01*
X0Y416D02*
X7Y416D01*
X645Y416D02*
X652Y416D01*
X0Y415D02*
X7Y415D01*
X645Y415D02*
X652Y415D01*
X0Y414D02*
X7Y414D01*
X645Y414D02*
X652Y414D01*
X0Y413D02*
X7Y413D01*
X645Y413D02*
X652Y413D01*
X0Y412D02*
X7Y412D01*
X645Y412D02*
X652Y412D01*
X0Y411D02*
X7Y411D01*
X645Y411D02*
X652Y411D01*
X0Y410D02*
X7Y410D01*
X645Y410D02*
X652Y410D01*
X0Y409D02*
X7Y409D01*
X645Y409D02*
X652Y409D01*
X0Y408D02*
X7Y408D01*
X645Y408D02*
X652Y408D01*
X0Y407D02*
X7Y407D01*
X645Y407D02*
X652Y407D01*
X0Y406D02*
X7Y406D01*
X645Y406D02*
X652Y406D01*
X0Y405D02*
X7Y405D01*
X645Y405D02*
X652Y405D01*
X0Y404D02*
X7Y404D01*
X645Y404D02*
X652Y404D01*
X0Y403D02*
X7Y403D01*
X645Y403D02*
X652Y403D01*
X0Y402D02*
X7Y402D01*
X645Y402D02*
X652Y402D01*
X0Y401D02*
X7Y401D01*
X645Y401D02*
X652Y401D01*
X0Y400D02*
X7Y400D01*
X645Y400D02*
X652Y400D01*
X0Y399D02*
X7Y399D01*
X645Y399D02*
X652Y399D01*
X0Y398D02*
X7Y398D01*
X645Y398D02*
X652Y398D01*
X0Y397D02*
X7Y397D01*
X645Y397D02*
X652Y397D01*
X0Y396D02*
X7Y396D01*
X645Y396D02*
X652Y396D01*
X0Y395D02*
X7Y395D01*
X645Y395D02*
X652Y395D01*
X0Y394D02*
X7Y394D01*
X645Y394D02*
X652Y394D01*
X0Y393D02*
X7Y393D01*
X645Y393D02*
X652Y393D01*
X0Y392D02*
X7Y392D01*
X645Y392D02*
X652Y392D01*
X0Y391D02*
X7Y391D01*
X645Y391D02*
X652Y391D01*
X0Y390D02*
X7Y390D01*
X645Y390D02*
X652Y390D01*
X0Y389D02*
X7Y389D01*
X645Y389D02*
X652Y389D01*
X0Y388D02*
X7Y388D01*
X645Y388D02*
X652Y388D01*
X0Y387D02*
X7Y387D01*
X645Y387D02*
X652Y387D01*
X0Y386D02*
X7Y386D01*
X645Y386D02*
X652Y386D01*
X0Y385D02*
X7Y385D01*
X645Y385D02*
X652Y385D01*
X0Y384D02*
X7Y384D01*
X645Y384D02*
X652Y384D01*
X0Y383D02*
X7Y383D01*
X645Y383D02*
X652Y383D01*
X0Y382D02*
X7Y382D01*
X645Y382D02*
X652Y382D01*
X0Y381D02*
X7Y381D01*
X645Y381D02*
X652Y381D01*
X0Y380D02*
X7Y380D01*
X645Y380D02*
X652Y380D01*
X0Y379D02*
X7Y379D01*
X645Y379D02*
X652Y379D01*
X0Y378D02*
X7Y378D01*
X645Y378D02*
X652Y378D01*
X0Y377D02*
X7Y377D01*
X645Y377D02*
X652Y377D01*
X0Y376D02*
X7Y376D01*
X645Y376D02*
X652Y376D01*
X0Y375D02*
X7Y375D01*
X645Y375D02*
X652Y375D01*
X0Y374D02*
X7Y374D01*
X645Y374D02*
X652Y374D01*
X0Y373D02*
X7Y373D01*
X645Y373D02*
X652Y373D01*
X0Y372D02*
X7Y372D01*
X645Y372D02*
X652Y372D01*
X0Y371D02*
X7Y371D01*
X645Y371D02*
X652Y371D01*
X0Y370D02*
X7Y370D01*
X645Y370D02*
X652Y370D01*
X0Y369D02*
X7Y369D01*
X645Y369D02*
X652Y369D01*
X0Y368D02*
X7Y368D01*
X645Y368D02*
X652Y368D01*
X0Y367D02*
X7Y367D01*
X645Y367D02*
X652Y367D01*
X0Y366D02*
X7Y366D01*
X645Y366D02*
X652Y366D01*
X0Y365D02*
X7Y365D01*
X645Y365D02*
X652Y365D01*
X0Y364D02*
X7Y364D01*
X645Y364D02*
X652Y364D01*
X0Y363D02*
X7Y363D01*
X645Y363D02*
X652Y363D01*
X0Y362D02*
X7Y362D01*
X645Y362D02*
X652Y362D01*
X0Y361D02*
X7Y361D01*
X645Y361D02*
X652Y361D01*
X0Y360D02*
X7Y360D01*
X645Y360D02*
X652Y360D01*
X0Y359D02*
X7Y359D01*
X645Y359D02*
X652Y359D01*
X0Y358D02*
X7Y358D01*
X645Y358D02*
X652Y358D01*
X0Y357D02*
X7Y357D01*
X645Y357D02*
X652Y357D01*
X0Y356D02*
X7Y356D01*
X645Y356D02*
X652Y356D01*
X0Y355D02*
X7Y355D01*
X645Y355D02*
X652Y355D01*
X0Y354D02*
X7Y354D01*
X374Y354D02*
X375Y354D01*
X645Y354D02*
X652Y354D01*
X0Y353D02*
X7Y353D01*
X373Y353D02*
X377Y353D01*
X645Y353D02*
X652Y353D01*
X0Y352D02*
X7Y352D01*
X38Y352D02*
X52Y352D01*
X61Y352D02*
X75Y352D01*
X91Y352D02*
X100Y352D01*
X181Y352D02*
X188Y352D01*
X205Y352D02*
X211Y352D01*
X322Y352D02*
X334Y352D01*
X345Y352D02*
X346Y352D01*
X373Y352D02*
X377Y352D01*
X417Y352D02*
X424Y352D01*
X452Y352D02*
X454Y352D01*
X645Y352D02*
X652Y352D01*
X0Y351D02*
X7Y351D01*
X38Y351D02*
X53Y351D01*
X61Y351D02*
X76Y351D01*
X90Y351D02*
X100Y351D01*
X181Y351D02*
X188Y351D01*
X204Y351D02*
X212Y351D01*
X321Y351D02*
X335Y351D01*
X344Y351D02*
X347Y351D01*
X373Y351D02*
X377Y351D01*
X417Y351D02*
X424Y351D01*
X452Y351D02*
X454Y351D01*
X645Y351D02*
X652Y351D01*
X0Y350D02*
X7Y350D01*
X38Y350D02*
X52Y350D01*
X62Y350D02*
X76Y350D01*
X89Y350D02*
X100Y350D01*
X181Y350D02*
X188Y350D01*
X205Y350D02*
X212Y350D01*
X321Y350D02*
X336Y350D01*
X344Y350D02*
X347Y350D01*
X373Y350D02*
X376Y350D01*
X417Y350D02*
X424Y350D01*
X452Y350D02*
X454Y350D01*
X645Y350D02*
X652Y350D01*
X0Y349D02*
X7Y349D01*
X44Y349D02*
X46Y349D01*
X74Y349D02*
X76Y349D01*
X88Y349D02*
X91Y349D01*
X186Y349D02*
X188Y349D01*
X209Y349D02*
X212Y349D01*
X321Y349D02*
X323Y349D01*
X333Y349D02*
X336Y349D01*
X344Y349D02*
X347Y349D01*
X422Y349D02*
X424Y349D01*
X452Y349D02*
X454Y349D01*
X645Y349D02*
X652Y349D01*
X0Y348D02*
X7Y348D01*
X44Y348D02*
X46Y348D01*
X74Y348D02*
X76Y348D01*
X88Y348D02*
X91Y348D01*
X186Y348D02*
X188Y348D01*
X209Y348D02*
X212Y348D01*
X321Y348D02*
X324Y348D01*
X334Y348D02*
X336Y348D01*
X344Y348D02*
X347Y348D01*
X422Y348D02*
X424Y348D01*
X452Y348D02*
X454Y348D01*
X645Y348D02*
X652Y348D01*
X0Y347D02*
X7Y347D01*
X44Y347D02*
X46Y347D01*
X74Y347D02*
X76Y347D01*
X87Y347D02*
X90Y347D01*
X186Y347D02*
X188Y347D01*
X209Y347D02*
X212Y347D01*
X321Y347D02*
X324Y347D01*
X334Y347D02*
X335Y347D01*
X344Y347D02*
X347Y347D01*
X422Y347D02*
X424Y347D01*
X452Y347D02*
X454Y347D01*
X645Y347D02*
X652Y347D01*
X0Y346D02*
X7Y346D01*
X44Y346D02*
X46Y346D01*
X74Y346D02*
X76Y346D01*
X87Y346D02*
X90Y346D01*
X133Y346D02*
X134Y346D01*
X138Y346D02*
X141Y346D01*
X186Y346D02*
X188Y346D01*
X209Y346D02*
X212Y346D01*
X274Y346D02*
X275Y346D01*
X279Y346D02*
X283Y346D01*
X322Y346D02*
X325Y346D01*
X344Y346D02*
X347Y346D01*
X422Y346D02*
X424Y346D01*
X452Y346D02*
X454Y346D01*
X645Y346D02*
X652Y346D01*
X0Y345D02*
X7Y345D01*
X44Y345D02*
X46Y345D01*
X74Y345D02*
X76Y345D01*
X86Y345D02*
X89Y345D01*
X132Y345D02*
X134Y345D01*
X136Y345D02*
X143Y345D01*
X156Y345D02*
X157Y345D01*
X169Y345D02*
X171Y345D01*
X186Y345D02*
X188Y345D01*
X209Y345D02*
X212Y345D01*
X250Y345D02*
X252Y345D01*
X263Y345D02*
X265Y345D01*
X274Y345D02*
X276Y345D01*
X278Y345D02*
X285Y345D01*
X323Y345D02*
X326Y345D01*
X344Y345D02*
X347Y345D01*
X351Y345D02*
X357Y345D01*
X370Y345D02*
X376Y345D01*
X395Y345D02*
X403Y345D01*
X422Y345D02*
X424Y345D01*
X442Y345D02*
X449Y345D01*
X452Y345D02*
X454Y345D01*
X645Y345D02*
X652Y345D01*
X0Y344D02*
X7Y344D01*
X44Y344D02*
X46Y344D01*
X74Y344D02*
X76Y344D01*
X86Y344D02*
X89Y344D01*
X132Y344D02*
X144Y344D01*
X156Y344D02*
X158Y344D01*
X169Y344D02*
X171Y344D01*
X186Y344D02*
X188Y344D01*
X209Y344D02*
X212Y344D01*
X250Y344D02*
X252Y344D01*
X263Y344D02*
X265Y344D01*
X274Y344D02*
X286Y344D01*
X324Y344D02*
X327Y344D01*
X344Y344D02*
X347Y344D01*
X349Y344D02*
X358Y344D01*
X370Y344D02*
X377Y344D01*
X394Y344D02*
X405Y344D01*
X422Y344D02*
X424Y344D01*
X441Y344D02*
X450Y344D01*
X452Y344D02*
X454Y344D01*
X645Y344D02*
X652Y344D01*
X0Y343D02*
X7Y343D01*
X44Y343D02*
X46Y343D01*
X74Y343D02*
X76Y343D01*
X85Y343D02*
X88Y343D01*
X132Y343D02*
X138Y343D01*
X141Y343D02*
X145Y343D01*
X156Y343D02*
X158Y343D01*
X169Y343D02*
X171Y343D01*
X186Y343D02*
X188Y343D01*
X209Y343D02*
X212Y343D01*
X250Y343D02*
X252Y343D01*
X263Y343D02*
X265Y343D01*
X274Y343D02*
X280Y343D01*
X282Y343D02*
X287Y343D01*
X324Y343D02*
X328Y343D01*
X344Y343D02*
X359Y343D01*
X370Y343D02*
X377Y343D01*
X393Y343D02*
X406Y343D01*
X422Y343D02*
X424Y343D01*
X440Y343D02*
X454Y343D01*
X645Y343D02*
X652Y343D01*
X0Y342D02*
X7Y342D01*
X44Y342D02*
X46Y342D01*
X74Y342D02*
X76Y342D01*
X85Y342D02*
X88Y342D01*
X132Y342D02*
X137Y342D01*
X142Y342D02*
X146Y342D01*
X156Y342D02*
X158Y342D01*
X169Y342D02*
X171Y342D01*
X186Y342D02*
X188Y342D01*
X209Y342D02*
X212Y342D01*
X250Y342D02*
X252Y342D01*
X263Y342D02*
X265Y342D01*
X274Y342D02*
X279Y342D01*
X284Y342D02*
X288Y342D01*
X325Y342D02*
X328Y342D01*
X344Y342D02*
X351Y342D01*
X356Y342D02*
X359Y342D01*
X374Y342D02*
X377Y342D01*
X392Y342D02*
X396Y342D01*
X403Y342D02*
X406Y342D01*
X422Y342D02*
X424Y342D01*
X439Y342D02*
X443Y342D01*
X448Y342D02*
X454Y342D01*
X645Y342D02*
X652Y342D01*
X0Y341D02*
X7Y341D01*
X44Y341D02*
X46Y341D01*
X63Y341D02*
X76Y341D01*
X85Y341D02*
X87Y341D01*
X132Y341D02*
X136Y341D01*
X144Y341D02*
X147Y341D01*
X156Y341D02*
X158Y341D01*
X169Y341D02*
X171Y341D01*
X186Y341D02*
X188Y341D01*
X209Y341D02*
X212Y341D01*
X250Y341D02*
X252Y341D01*
X263Y341D02*
X265Y341D01*
X274Y341D02*
X278Y341D01*
X285Y341D02*
X288Y341D01*
X326Y341D02*
X329Y341D01*
X344Y341D02*
X350Y341D01*
X357Y341D02*
X359Y341D01*
X374Y341D02*
X377Y341D01*
X392Y341D02*
X394Y341D01*
X404Y341D02*
X407Y341D01*
X422Y341D02*
X424Y341D01*
X439Y341D02*
X442Y341D01*
X450Y341D02*
X454Y341D01*
X645Y341D02*
X652Y341D01*
X0Y340D02*
X7Y340D01*
X44Y340D02*
X46Y340D01*
X62Y340D02*
X76Y340D01*
X85Y340D02*
X87Y340D01*
X132Y340D02*
X135Y340D01*
X145Y340D02*
X147Y340D01*
X156Y340D02*
X158Y340D01*
X169Y340D02*
X171Y340D01*
X186Y340D02*
X188Y340D01*
X209Y340D02*
X212Y340D01*
X250Y340D02*
X252Y340D01*
X263Y340D02*
X265Y340D01*
X274Y340D02*
X277Y340D01*
X286Y340D02*
X289Y340D01*
X327Y340D02*
X330Y340D01*
X344Y340D02*
X348Y340D01*
X357Y340D02*
X359Y340D01*
X374Y340D02*
X377Y340D01*
X392Y340D02*
X394Y340D01*
X404Y340D02*
X407Y340D01*
X422Y340D02*
X424Y340D01*
X439Y340D02*
X441Y340D01*
X451Y340D02*
X454Y340D01*
X645Y340D02*
X652Y340D01*
X0Y339D02*
X7Y339D01*
X44Y339D02*
X46Y339D01*
X61Y339D02*
X75Y339D01*
X85Y339D02*
X87Y339D01*
X132Y339D02*
X134Y339D01*
X145Y339D02*
X147Y339D01*
X156Y339D02*
X158Y339D01*
X169Y339D02*
X171Y339D01*
X186Y339D02*
X188Y339D01*
X209Y339D02*
X212Y339D01*
X250Y339D02*
X252Y339D01*
X263Y339D02*
X265Y339D01*
X274Y339D02*
X276Y339D01*
X287Y339D02*
X289Y339D01*
X327Y339D02*
X331Y339D01*
X344Y339D02*
X347Y339D01*
X357Y339D02*
X359Y339D01*
X374Y339D02*
X377Y339D01*
X392Y339D02*
X394Y339D01*
X405Y339D02*
X407Y339D01*
X422Y339D02*
X424Y339D01*
X439Y339D02*
X441Y339D01*
X452Y339D02*
X454Y339D01*
X645Y339D02*
X652Y339D01*
X0Y338D02*
X7Y338D01*
X44Y338D02*
X46Y338D01*
X61Y338D02*
X64Y338D01*
X85Y338D02*
X88Y338D01*
X132Y338D02*
X134Y338D01*
X145Y338D02*
X147Y338D01*
X156Y338D02*
X158Y338D01*
X169Y338D02*
X171Y338D01*
X186Y338D02*
X188Y338D01*
X209Y338D02*
X212Y338D01*
X250Y338D02*
X252Y338D01*
X263Y338D02*
X265Y338D01*
X274Y338D02*
X276Y338D01*
X287Y338D02*
X289Y338D01*
X328Y338D02*
X331Y338D01*
X344Y338D02*
X347Y338D01*
X357Y338D02*
X359Y338D01*
X374Y338D02*
X377Y338D01*
X392Y338D02*
X394Y338D01*
X405Y338D02*
X407Y338D01*
X422Y338D02*
X424Y338D01*
X439Y338D02*
X441Y338D01*
X452Y338D02*
X454Y338D01*
X645Y338D02*
X652Y338D01*
X0Y337D02*
X7Y337D01*
X44Y337D02*
X46Y337D01*
X61Y337D02*
X63Y337D01*
X85Y337D02*
X88Y337D01*
X132Y337D02*
X134Y337D01*
X145Y337D02*
X147Y337D01*
X156Y337D02*
X158Y337D01*
X169Y337D02*
X171Y337D01*
X186Y337D02*
X188Y337D01*
X209Y337D02*
X212Y337D01*
X250Y337D02*
X252Y337D01*
X263Y337D02*
X265Y337D01*
X274Y337D02*
X276Y337D01*
X287Y337D02*
X289Y337D01*
X329Y337D02*
X332Y337D01*
X344Y337D02*
X347Y337D01*
X357Y337D02*
X359Y337D01*
X374Y337D02*
X377Y337D01*
X392Y337D02*
X407Y337D01*
X422Y337D02*
X424Y337D01*
X439Y337D02*
X441Y337D01*
X452Y337D02*
X454Y337D01*
X645Y337D02*
X652Y337D01*
X0Y336D02*
X7Y336D01*
X44Y336D02*
X46Y336D01*
X61Y336D02*
X63Y336D01*
X86Y336D02*
X88Y336D01*
X132Y336D02*
X134Y336D01*
X145Y336D02*
X147Y336D01*
X156Y336D02*
X158Y336D01*
X169Y336D02*
X171Y336D01*
X186Y336D02*
X188Y336D01*
X209Y336D02*
X212Y336D01*
X250Y336D02*
X252Y336D01*
X263Y336D02*
X265Y336D01*
X274Y336D02*
X276Y336D01*
X287Y336D02*
X289Y336D01*
X330Y336D02*
X333Y336D01*
X344Y336D02*
X347Y336D01*
X357Y336D02*
X359Y336D01*
X374Y336D02*
X377Y336D01*
X392Y336D02*
X407Y336D01*
X422Y336D02*
X424Y336D01*
X439Y336D02*
X441Y336D01*
X452Y336D02*
X454Y336D01*
X645Y336D02*
X652Y336D01*
X0Y335D02*
X7Y335D01*
X44Y335D02*
X46Y335D01*
X61Y335D02*
X63Y335D01*
X86Y335D02*
X89Y335D01*
X132Y335D02*
X134Y335D01*
X145Y335D02*
X147Y335D01*
X156Y335D02*
X158Y335D01*
X169Y335D02*
X171Y335D01*
X186Y335D02*
X188Y335D01*
X209Y335D02*
X212Y335D01*
X250Y335D02*
X253Y335D01*
X263Y335D02*
X265Y335D01*
X274Y335D02*
X276Y335D01*
X287Y335D02*
X289Y335D01*
X331Y335D02*
X334Y335D01*
X344Y335D02*
X347Y335D01*
X357Y335D02*
X359Y335D01*
X374Y335D02*
X377Y335D01*
X392Y335D02*
X407Y335D01*
X422Y335D02*
X424Y335D01*
X439Y335D02*
X441Y335D01*
X452Y335D02*
X454Y335D01*
X645Y335D02*
X652Y335D01*
X0Y334D02*
X7Y334D01*
X44Y334D02*
X46Y334D01*
X61Y334D02*
X63Y334D01*
X87Y334D02*
X90Y334D01*
X132Y334D02*
X134Y334D01*
X145Y334D02*
X147Y334D01*
X156Y334D02*
X158Y334D01*
X168Y334D02*
X171Y334D01*
X186Y334D02*
X188Y334D01*
X209Y334D02*
X212Y334D01*
X250Y334D02*
X253Y334D01*
X263Y334D02*
X265Y334D01*
X274Y334D02*
X276Y334D01*
X287Y334D02*
X289Y334D01*
X331Y334D02*
X335Y334D01*
X344Y334D02*
X347Y334D01*
X357Y334D02*
X359Y334D01*
X374Y334D02*
X377Y334D01*
X392Y334D02*
X394Y334D01*
X422Y334D02*
X424Y334D01*
X439Y334D02*
X441Y334D01*
X452Y334D02*
X454Y334D01*
X645Y334D02*
X652Y334D01*
X0Y333D02*
X7Y333D01*
X44Y333D02*
X46Y333D01*
X61Y333D02*
X63Y333D01*
X87Y333D02*
X90Y333D01*
X132Y333D02*
X135Y333D01*
X145Y333D02*
X147Y333D01*
X156Y333D02*
X158Y333D01*
X167Y333D02*
X171Y333D01*
X186Y333D02*
X188Y333D01*
X209Y333D02*
X212Y333D01*
X250Y333D02*
X253Y333D01*
X262Y333D02*
X265Y333D01*
X274Y333D02*
X276Y333D01*
X286Y333D02*
X289Y333D01*
X322Y333D02*
X322Y333D01*
X332Y333D02*
X335Y333D01*
X344Y333D02*
X347Y333D01*
X357Y333D02*
X359Y333D01*
X374Y333D02*
X377Y333D01*
X392Y333D02*
X394Y333D01*
X422Y333D02*
X424Y333D01*
X439Y333D02*
X441Y333D01*
X451Y333D02*
X454Y333D01*
X645Y333D02*
X652Y333D01*
X0Y332D02*
X7Y332D01*
X44Y332D02*
X46Y332D01*
X61Y332D02*
X63Y332D01*
X88Y332D02*
X91Y332D01*
X132Y332D02*
X136Y332D01*
X144Y332D02*
X147Y332D01*
X156Y332D02*
X158Y332D01*
X166Y332D02*
X171Y332D01*
X186Y332D02*
X188Y332D01*
X209Y332D02*
X212Y332D01*
X250Y332D02*
X253Y332D01*
X260Y332D02*
X265Y332D01*
X274Y332D02*
X277Y332D01*
X285Y332D02*
X288Y332D01*
X321Y332D02*
X323Y332D01*
X333Y332D02*
X336Y332D01*
X344Y332D02*
X347Y332D01*
X357Y332D02*
X360Y332D01*
X374Y332D02*
X377Y332D01*
X392Y332D02*
X394Y332D01*
X422Y332D02*
X424Y332D01*
X439Y332D02*
X442Y332D01*
X450Y332D02*
X454Y332D01*
X645Y332D02*
X652Y332D01*
X0Y331D02*
X7Y331D01*
X44Y331D02*
X46Y331D01*
X61Y331D02*
X63Y331D01*
X88Y331D02*
X91Y331D01*
X132Y331D02*
X137Y331D01*
X142Y331D02*
X146Y331D01*
X156Y331D02*
X159Y331D01*
X164Y331D02*
X171Y331D01*
X186Y331D02*
X188Y331D01*
X209Y331D02*
X212Y331D01*
X251Y331D02*
X253Y331D01*
X258Y331D02*
X265Y331D01*
X274Y331D02*
X278Y331D01*
X284Y331D02*
X288Y331D01*
X321Y331D02*
X323Y331D01*
X334Y331D02*
X336Y331D01*
X344Y331D02*
X347Y331D01*
X357Y331D02*
X360Y331D01*
X374Y331D02*
X377Y331D01*
X392Y331D02*
X395Y331D01*
X422Y331D02*
X424Y331D01*
X439Y331D02*
X443Y331D01*
X448Y331D02*
X454Y331D01*
X645Y331D02*
X652Y331D01*
X0Y330D02*
X7Y330D01*
X38Y330D02*
X52Y330D01*
X61Y330D02*
X76Y330D01*
X89Y330D02*
X99Y330D01*
X132Y330D02*
X138Y330D01*
X141Y330D02*
X145Y330D01*
X156Y330D02*
X171Y330D01*
X181Y330D02*
X192Y330D01*
X205Y330D02*
X216Y330D01*
X251Y330D02*
X265Y330D01*
X274Y330D02*
X280Y330D01*
X283Y330D02*
X287Y330D01*
X321Y330D02*
X336Y330D01*
X344Y330D02*
X347Y330D01*
X357Y330D02*
X360Y330D01*
X370Y330D02*
X381Y330D01*
X393Y330D02*
X406Y330D01*
X417Y330D02*
X428Y330D01*
X440Y330D02*
X454Y330D01*
X645Y330D02*
X652Y330D01*
X0Y329D02*
X7Y329D01*
X38Y329D02*
X53Y329D01*
X61Y329D02*
X76Y329D01*
X89Y329D02*
X100Y329D01*
X132Y329D02*
X144Y329D01*
X157Y329D02*
X166Y329D01*
X169Y329D02*
X171Y329D01*
X181Y329D02*
X193Y329D01*
X204Y329D02*
X216Y329D01*
X252Y329D02*
X260Y329D01*
X263Y329D02*
X265Y329D01*
X274Y329D02*
X286Y329D01*
X322Y329D02*
X335Y329D01*
X344Y329D02*
X347Y329D01*
X357Y329D02*
X360Y329D01*
X370Y329D02*
X382Y329D01*
X394Y329D02*
X407Y329D01*
X417Y329D02*
X429Y329D01*
X441Y329D02*
X454Y329D01*
X645Y329D02*
X652Y329D01*
X0Y328D02*
X7Y328D01*
X38Y328D02*
X53Y328D01*
X61Y328D02*
X76Y328D01*
X91Y328D02*
X100Y328D01*
X132Y328D02*
X134Y328D01*
X136Y328D02*
X143Y328D01*
X158Y328D02*
X164Y328D01*
X169Y328D02*
X171Y328D01*
X181Y328D02*
X193Y328D01*
X205Y328D02*
X216Y328D01*
X253Y328D02*
X259Y328D01*
X263Y328D02*
X265Y328D01*
X274Y328D02*
X276Y328D01*
X278Y328D02*
X285Y328D01*
X323Y328D02*
X335Y328D01*
X345Y328D02*
X346Y328D01*
X358Y328D02*
X359Y328D01*
X370Y328D02*
X381Y328D01*
X395Y328D02*
X407Y328D01*
X417Y328D02*
X429Y328D01*
X442Y328D02*
X449Y328D01*
X452Y328D02*
X454Y328D01*
X645Y328D02*
X652Y328D01*
X0Y327D02*
X7Y327D01*
X132Y327D02*
X134Y327D01*
X138Y327D02*
X142Y327D01*
X274Y327D02*
X276Y327D01*
X279Y327D02*
X283Y327D01*
X645Y327D02*
X652Y327D01*
X0Y326D02*
X7Y326D01*
X132Y326D02*
X134Y326D01*
X274Y326D02*
X276Y326D01*
X645Y326D02*
X652Y326D01*
X0Y325D02*
X7Y325D01*
X132Y325D02*
X134Y325D01*
X274Y325D02*
X276Y325D01*
X645Y325D02*
X652Y325D01*
X0Y324D02*
X7Y324D01*
X132Y324D02*
X134Y324D01*
X274Y324D02*
X276Y324D01*
X645Y324D02*
X652Y324D01*
X0Y323D02*
X7Y323D01*
X132Y323D02*
X134Y323D01*
X274Y323D02*
X276Y323D01*
X645Y323D02*
X652Y323D01*
X0Y322D02*
X7Y322D01*
X132Y322D02*
X134Y322D01*
X274Y322D02*
X276Y322D01*
X645Y322D02*
X652Y322D01*
X0Y321D02*
X7Y321D01*
X132Y321D02*
X134Y321D01*
X274Y321D02*
X276Y321D01*
X645Y321D02*
X652Y321D01*
X0Y320D02*
X7Y320D01*
X645Y320D02*
X652Y320D01*
X0Y319D02*
X7Y319D01*
X645Y319D02*
X652Y319D01*
X0Y318D02*
X7Y318D01*
X645Y318D02*
X652Y318D01*
X0Y317D02*
X7Y317D01*
X645Y317D02*
X652Y317D01*
X0Y316D02*
X7Y316D01*
X645Y316D02*
X652Y316D01*
X0Y315D02*
X7Y315D01*
X645Y315D02*
X652Y315D01*
X0Y314D02*
X7Y314D01*
X175Y314D02*
X177Y314D01*
X293Y314D02*
X295Y314D01*
X645Y314D02*
X652Y314D01*
X0Y313D02*
X7Y313D01*
X174Y313D02*
X178Y313D01*
X292Y313D02*
X296Y313D01*
X645Y313D02*
X652Y313D01*
X0Y312D02*
X7Y312D01*
X58Y312D02*
X65Y312D01*
X145Y312D02*
X149Y312D01*
X157Y312D02*
X161Y312D01*
X174Y312D02*
X178Y312D01*
X263Y312D02*
X275Y312D01*
X292Y312D02*
X296Y312D01*
X358Y312D02*
X372Y312D01*
X382Y312D02*
X395Y312D01*
X409Y312D02*
X417Y312D01*
X645Y312D02*
X652Y312D01*
X0Y311D02*
X7Y311D01*
X57Y311D02*
X65Y311D01*
X145Y311D02*
X150Y311D01*
X156Y311D02*
X161Y311D01*
X174Y311D02*
X178Y311D01*
X263Y311D02*
X277Y311D01*
X292Y311D02*
X296Y311D01*
X315Y311D02*
X316Y311D01*
X358Y311D02*
X373Y311D01*
X381Y311D02*
X396Y311D01*
X408Y311D02*
X417Y311D01*
X645Y311D02*
X652Y311D01*
X0Y310D02*
X7Y310D01*
X56Y310D02*
X65Y310D01*
X145Y310D02*
X150Y310D01*
X156Y310D02*
X161Y310D01*
X174Y310D02*
X177Y310D01*
X263Y310D02*
X277Y310D01*
X292Y310D02*
X295Y310D01*
X314Y310D02*
X316Y310D01*
X358Y310D02*
X373Y310D01*
X382Y310D02*
X397Y310D01*
X408Y310D02*
X417Y310D01*
X645Y310D02*
X652Y310D01*
X0Y309D02*
X7Y309D01*
X55Y309D02*
X58Y309D01*
X145Y309D02*
X151Y309D01*
X155Y309D02*
X161Y309D01*
X263Y309D02*
X266Y309D01*
X275Y309D02*
X278Y309D01*
X314Y309D02*
X316Y309D01*
X371Y309D02*
X373Y309D01*
X394Y309D02*
X397Y309D01*
X408Y309D02*
X411Y309D01*
X415Y309D02*
X417Y309D01*
X645Y309D02*
X652Y309D01*
X0Y308D02*
X7Y308D01*
X55Y308D02*
X58Y308D01*
X145Y308D02*
X152Y308D01*
X154Y308D02*
X161Y308D01*
X263Y308D02*
X266Y308D01*
X276Y308D02*
X278Y308D01*
X314Y308D02*
X316Y308D01*
X371Y308D02*
X373Y308D01*
X394Y308D02*
X397Y308D01*
X408Y308D02*
X411Y308D01*
X415Y308D02*
X417Y308D01*
X645Y308D02*
X652Y308D01*
X0Y307D02*
X7Y307D01*
X55Y307D02*
X57Y307D01*
X145Y307D02*
X148Y307D01*
X150Y307D02*
X161Y307D01*
X263Y307D02*
X266Y307D01*
X276Y307D02*
X279Y307D01*
X314Y307D02*
X316Y307D01*
X371Y307D02*
X373Y307D01*
X394Y307D02*
X397Y307D01*
X408Y307D02*
X411Y307D01*
X415Y307D02*
X417Y307D01*
X645Y307D02*
X652Y307D01*
X0Y306D02*
X7Y306D01*
X55Y306D02*
X58Y306D01*
X145Y306D02*
X148Y306D01*
X150Y306D02*
X156Y306D01*
X158Y306D02*
X161Y306D01*
X263Y306D02*
X266Y306D01*
X276Y306D02*
X279Y306D01*
X314Y306D02*
X316Y306D01*
X371Y306D02*
X373Y306D01*
X394Y306D02*
X397Y306D01*
X408Y306D02*
X411Y306D01*
X415Y306D02*
X417Y306D01*
X645Y306D02*
X652Y306D01*
X0Y305D02*
X7Y305D01*
X52Y305D02*
X62Y305D01*
X78Y305D02*
X86Y305D01*
X98Y305D02*
X100Y305D01*
X105Y305D02*
X111Y305D01*
X145Y305D02*
X148Y305D01*
X151Y305D02*
X155Y305D01*
X158Y305D02*
X161Y305D01*
X171Y305D02*
X178Y305D01*
X198Y305D02*
X208Y305D01*
X216Y305D02*
X218Y305D01*
X223Y305D02*
X229Y305D01*
X243Y305D02*
X252Y305D01*
X263Y305D02*
X266Y305D01*
X276Y305D02*
X279Y305D01*
X289Y305D02*
X296Y305D01*
X311Y305D02*
X324Y305D01*
X371Y305D02*
X373Y305D01*
X394Y305D02*
X397Y305D01*
X408Y305D02*
X411Y305D01*
X415Y305D02*
X417Y305D01*
X645Y305D02*
X652Y305D01*
X0Y304D02*
X7Y304D01*
X52Y304D02*
X62Y304D01*
X77Y304D02*
X88Y304D01*
X98Y304D02*
X101Y304D01*
X104Y304D02*
X112Y304D01*
X145Y304D02*
X148Y304D01*
X152Y304D02*
X154Y304D01*
X158Y304D02*
X161Y304D01*
X171Y304D02*
X178Y304D01*
X196Y304D02*
X208Y304D01*
X216Y304D02*
X219Y304D01*
X222Y304D02*
X230Y304D01*
X242Y304D02*
X253Y304D01*
X263Y304D02*
X266Y304D01*
X276Y304D02*
X279Y304D01*
X289Y304D02*
X296Y304D01*
X311Y304D02*
X324Y304D01*
X371Y304D02*
X373Y304D01*
X394Y304D02*
X397Y304D01*
X408Y304D02*
X411Y304D01*
X415Y304D02*
X417Y304D01*
X645Y304D02*
X652Y304D01*
X0Y303D02*
X7Y303D01*
X52Y303D02*
X62Y303D01*
X76Y303D02*
X89Y303D01*
X98Y303D02*
X113Y303D01*
X145Y303D02*
X148Y303D01*
X152Y303D02*
X154Y303D01*
X158Y303D02*
X161Y303D01*
X171Y303D02*
X178Y303D01*
X195Y303D02*
X207Y303D01*
X216Y303D02*
X231Y303D01*
X241Y303D02*
X254Y303D01*
X263Y303D02*
X266Y303D01*
X276Y303D02*
X278Y303D01*
X289Y303D02*
X296Y303D01*
X311Y303D02*
X324Y303D01*
X371Y303D02*
X373Y303D01*
X394Y303D02*
X397Y303D01*
X408Y303D02*
X411Y303D01*
X415Y303D02*
X417Y303D01*
X645Y303D02*
X652Y303D01*
X0Y302D02*
X7Y302D01*
X55Y302D02*
X57Y302D01*
X75Y302D02*
X78Y302D01*
X86Y302D02*
X89Y302D01*
X98Y302D02*
X105Y302D01*
X111Y302D02*
X113Y302D01*
X145Y302D02*
X148Y302D01*
X152Y302D02*
X154Y302D01*
X158Y302D02*
X161Y302D01*
X176Y302D02*
X178Y302D01*
X194Y302D02*
X198Y302D01*
X216Y302D02*
X223Y302D01*
X229Y302D02*
X231Y302D01*
X240Y302D02*
X244Y302D01*
X251Y302D02*
X255Y302D01*
X263Y302D02*
X266Y302D01*
X274Y302D02*
X278Y302D01*
X294Y302D02*
X296Y302D01*
X314Y302D02*
X316Y302D01*
X370Y302D02*
X373Y302D01*
X394Y302D02*
X397Y302D01*
X408Y302D02*
X411Y302D01*
X415Y302D02*
X417Y302D01*
X645Y302D02*
X652Y302D01*
X0Y301D02*
X7Y301D01*
X55Y301D02*
X57Y301D01*
X75Y301D02*
X77Y301D01*
X87Y301D02*
X90Y301D01*
X98Y301D02*
X104Y301D01*
X111Y301D02*
X114Y301D01*
X145Y301D02*
X148Y301D01*
X158Y301D02*
X161Y301D01*
X176Y301D02*
X178Y301D01*
X193Y301D02*
X197Y301D01*
X216Y301D02*
X222Y301D01*
X229Y301D02*
X232Y301D01*
X240Y301D02*
X243Y301D01*
X252Y301D02*
X255Y301D01*
X263Y301D02*
X277Y301D01*
X294Y301D02*
X296Y301D01*
X314Y301D02*
X316Y301D01*
X361Y301D02*
X372Y301D01*
X383Y301D02*
X397Y301D01*
X406Y301D02*
X419Y301D01*
X645Y301D02*
X652Y301D01*
X0Y300D02*
X7Y300D01*
X55Y300D02*
X57Y300D01*
X75Y300D02*
X77Y300D01*
X88Y300D02*
X90Y300D01*
X98Y300D02*
X103Y300D01*
X111Y300D02*
X114Y300D01*
X145Y300D02*
X148Y300D01*
X158Y300D02*
X161Y300D01*
X176Y300D02*
X178Y300D01*
X193Y300D02*
X196Y300D01*
X216Y300D02*
X221Y300D01*
X229Y300D02*
X232Y300D01*
X240Y300D02*
X242Y300D01*
X253Y300D02*
X255Y300D01*
X263Y300D02*
X277Y300D01*
X294Y300D02*
X296Y300D01*
X314Y300D02*
X316Y300D01*
X361Y300D02*
X372Y300D01*
X382Y300D02*
X396Y300D01*
X406Y300D02*
X420Y300D01*
X645Y300D02*
X652Y300D01*
X0Y299D02*
X7Y299D01*
X55Y299D02*
X57Y299D01*
X75Y299D02*
X77Y299D01*
X88Y299D02*
X90Y299D01*
X98Y299D02*
X102Y299D01*
X112Y299D02*
X113Y299D01*
X145Y299D02*
X148Y299D01*
X158Y299D02*
X161Y299D01*
X176Y299D02*
X178Y299D01*
X193Y299D02*
X195Y299D01*
X216Y299D02*
X220Y299D01*
X230Y299D02*
X231Y299D01*
X240Y299D02*
X242Y299D01*
X253Y299D02*
X255Y299D01*
X263Y299D02*
X277Y299D01*
X294Y299D02*
X296Y299D01*
X314Y299D02*
X316Y299D01*
X361Y299D02*
X372Y299D01*
X382Y299D02*
X395Y299D01*
X405Y299D02*
X420Y299D01*
X645Y299D02*
X652Y299D01*
X0Y298D02*
X7Y298D01*
X55Y298D02*
X57Y298D01*
X75Y298D02*
X77Y298D01*
X88Y298D02*
X90Y298D01*
X98Y298D02*
X101Y298D01*
X145Y298D02*
X148Y298D01*
X158Y298D02*
X161Y298D01*
X176Y298D02*
X178Y298D01*
X193Y298D02*
X195Y298D01*
X216Y298D02*
X219Y298D01*
X240Y298D02*
X242Y298D01*
X253Y298D02*
X255Y298D01*
X263Y298D02*
X266Y298D01*
X275Y298D02*
X278Y298D01*
X294Y298D02*
X296Y298D01*
X314Y298D02*
X316Y298D01*
X370Y298D02*
X373Y298D01*
X381Y298D02*
X384Y298D01*
X405Y298D02*
X407Y298D01*
X418Y298D02*
X420Y298D01*
X645Y298D02*
X652Y298D01*
X0Y297D02*
X7Y297D01*
X55Y297D02*
X57Y297D01*
X75Y297D02*
X77Y297D01*
X88Y297D02*
X90Y297D01*
X98Y297D02*
X101Y297D01*
X145Y297D02*
X148Y297D01*
X158Y297D02*
X161Y297D01*
X176Y297D02*
X178Y297D01*
X193Y297D02*
X195Y297D01*
X216Y297D02*
X219Y297D01*
X240Y297D02*
X242Y297D01*
X253Y297D02*
X255Y297D01*
X263Y297D02*
X266Y297D01*
X276Y297D02*
X278Y297D01*
X294Y297D02*
X296Y297D01*
X314Y297D02*
X316Y297D01*
X371Y297D02*
X373Y297D01*
X381Y297D02*
X384Y297D01*
X405Y297D02*
X407Y297D01*
X418Y297D02*
X420Y297D01*
X645Y297D02*
X652Y297D01*
X0Y296D02*
X7Y296D01*
X55Y296D02*
X57Y296D01*
X75Y296D02*
X77Y296D01*
X88Y296D02*
X90Y296D01*
X98Y296D02*
X101Y296D01*
X145Y296D02*
X148Y296D01*
X158Y296D02*
X161Y296D01*
X176Y296D02*
X178Y296D01*
X193Y296D02*
X195Y296D01*
X216Y296D02*
X219Y296D01*
X240Y296D02*
X242Y296D01*
X253Y296D02*
X255Y296D01*
X263Y296D02*
X266Y296D01*
X276Y296D02*
X279Y296D01*
X294Y296D02*
X296Y296D01*
X314Y296D02*
X316Y296D01*
X371Y296D02*
X373Y296D01*
X381Y296D02*
X384Y296D01*
X405Y296D02*
X407Y296D01*
X418Y296D02*
X420Y296D01*
X645Y296D02*
X652Y296D01*
X0Y295D02*
X7Y295D01*
X55Y295D02*
X57Y295D01*
X75Y295D02*
X77Y295D01*
X88Y295D02*
X90Y295D01*
X98Y295D02*
X101Y295D01*
X145Y295D02*
X148Y295D01*
X158Y295D02*
X161Y295D01*
X176Y295D02*
X178Y295D01*
X193Y295D02*
X195Y295D01*
X216Y295D02*
X219Y295D01*
X240Y295D02*
X242Y295D01*
X253Y295D02*
X255Y295D01*
X263Y295D02*
X266Y295D01*
X276Y295D02*
X279Y295D01*
X294Y295D02*
X296Y295D01*
X314Y295D02*
X316Y295D01*
X371Y295D02*
X373Y295D01*
X381Y295D02*
X384Y295D01*
X405Y295D02*
X407Y295D01*
X418Y295D02*
X420Y295D01*
X645Y295D02*
X652Y295D01*
X0Y294D02*
X7Y294D01*
X55Y294D02*
X57Y294D01*
X75Y294D02*
X77Y294D01*
X88Y294D02*
X90Y294D01*
X98Y294D02*
X101Y294D01*
X145Y294D02*
X148Y294D01*
X158Y294D02*
X161Y294D01*
X176Y294D02*
X178Y294D01*
X193Y294D02*
X195Y294D01*
X216Y294D02*
X219Y294D01*
X240Y294D02*
X242Y294D01*
X253Y294D02*
X255Y294D01*
X263Y294D02*
X266Y294D01*
X276Y294D02*
X279Y294D01*
X294Y294D02*
X296Y294D01*
X314Y294D02*
X316Y294D01*
X371Y294D02*
X373Y294D01*
X381Y294D02*
X384Y294D01*
X405Y294D02*
X407Y294D01*
X418Y294D02*
X420Y294D01*
X645Y294D02*
X652Y294D01*
X0Y293D02*
X7Y293D01*
X55Y293D02*
X57Y293D01*
X75Y293D02*
X77Y293D01*
X88Y293D02*
X90Y293D01*
X98Y293D02*
X101Y293D01*
X145Y293D02*
X148Y293D01*
X158Y293D02*
X161Y293D01*
X176Y293D02*
X178Y293D01*
X193Y293D02*
X196Y293D01*
X216Y293D02*
X219Y293D01*
X240Y293D02*
X242Y293D01*
X253Y293D02*
X255Y293D01*
X263Y293D02*
X266Y293D01*
X276Y293D02*
X279Y293D01*
X294Y293D02*
X296Y293D01*
X314Y293D02*
X316Y293D01*
X324Y293D02*
X325Y293D01*
X371Y293D02*
X373Y293D01*
X381Y293D02*
X384Y293D01*
X405Y293D02*
X407Y293D01*
X418Y293D02*
X420Y293D01*
X645Y293D02*
X652Y293D01*
X0Y292D02*
X7Y292D01*
X55Y292D02*
X57Y292D01*
X75Y292D02*
X77Y292D01*
X87Y292D02*
X90Y292D01*
X98Y292D02*
X101Y292D01*
X145Y292D02*
X148Y292D01*
X158Y292D02*
X161Y292D01*
X176Y292D02*
X178Y292D01*
X193Y292D02*
X197Y292D01*
X216Y292D02*
X219Y292D01*
X240Y292D02*
X243Y292D01*
X252Y292D02*
X255Y292D01*
X263Y292D02*
X266Y292D01*
X276Y292D02*
X278Y292D01*
X294Y292D02*
X296Y292D01*
X314Y292D02*
X316Y292D01*
X324Y292D02*
X326Y292D01*
X371Y292D02*
X373Y292D01*
X381Y292D02*
X384Y292D01*
X405Y292D02*
X407Y292D01*
X418Y292D02*
X420Y292D01*
X645Y292D02*
X652Y292D01*
X0Y291D02*
X7Y291D01*
X55Y291D02*
X57Y291D01*
X75Y291D02*
X79Y291D01*
X86Y291D02*
X89Y291D01*
X98Y291D02*
X101Y291D01*
X145Y291D02*
X148Y291D01*
X158Y291D02*
X161Y291D01*
X176Y291D02*
X178Y291D01*
X194Y291D02*
X198Y291D01*
X216Y291D02*
X219Y291D01*
X240Y291D02*
X244Y291D01*
X251Y291D02*
X255Y291D01*
X263Y291D02*
X266Y291D01*
X275Y291D02*
X278Y291D01*
X294Y291D02*
X296Y291D01*
X314Y291D02*
X317Y291D01*
X323Y291D02*
X326Y291D01*
X371Y291D02*
X373Y291D01*
X381Y291D02*
X384Y291D01*
X405Y291D02*
X407Y291D01*
X418Y291D02*
X420Y291D01*
X645Y291D02*
X652Y291D01*
X0Y290D02*
X7Y290D01*
X55Y290D02*
X57Y290D01*
X76Y290D02*
X89Y290D01*
X98Y290D02*
X101Y290D01*
X145Y290D02*
X148Y290D01*
X158Y290D02*
X161Y290D01*
X171Y290D02*
X182Y290D01*
X195Y290D02*
X207Y290D01*
X216Y290D02*
X219Y290D01*
X241Y290D02*
X254Y290D01*
X263Y290D02*
X277Y290D01*
X289Y290D02*
X300Y290D01*
X314Y290D02*
X325Y290D01*
X358Y290D02*
X373Y290D01*
X381Y290D02*
X396Y290D01*
X405Y290D02*
X420Y290D01*
X645Y290D02*
X652Y290D01*
X0Y289D02*
X7Y289D01*
X55Y289D02*
X57Y289D01*
X77Y289D02*
X88Y289D01*
X98Y289D02*
X101Y289D01*
X145Y289D02*
X148Y289D01*
X158Y289D02*
X161Y289D01*
X171Y289D02*
X183Y289D01*
X196Y289D02*
X208Y289D01*
X216Y289D02*
X219Y289D01*
X242Y289D02*
X253Y289D01*
X263Y289D02*
X276Y289D01*
X289Y289D02*
X301Y289D01*
X315Y289D02*
X325Y289D01*
X358Y289D02*
X373Y289D01*
X381Y289D02*
X397Y289D01*
X405Y289D02*
X420Y289D01*
X645Y289D02*
X652Y289D01*
X0Y288D02*
X7Y288D01*
X55Y288D02*
X57Y288D01*
X78Y288D02*
X86Y288D01*
X99Y288D02*
X100Y288D01*
X146Y288D02*
X147Y288D01*
X159Y288D02*
X160Y288D01*
X171Y288D02*
X182Y288D01*
X198Y288D02*
X208Y288D01*
X217Y288D02*
X218Y288D01*
X243Y288D02*
X251Y288D01*
X263Y288D02*
X275Y288D01*
X289Y288D02*
X300Y288D01*
X316Y288D02*
X323Y288D01*
X358Y288D02*
X372Y288D01*
X381Y288D02*
X396Y288D01*
X406Y288D02*
X419Y288D01*
X645Y288D02*
X652Y288D01*
X0Y287D02*
X7Y287D01*
X645Y287D02*
X652Y287D01*
X0Y286D02*
X7Y286D01*
X645Y286D02*
X652Y286D01*
X0Y285D02*
X7Y285D01*
X645Y285D02*
X652Y285D01*
X0Y284D02*
X7Y284D01*
X645Y284D02*
X652Y284D01*
X0Y283D02*
X7Y283D01*
X645Y283D02*
X652Y283D01*
X0Y282D02*
X7Y282D01*
X645Y282D02*
X652Y282D01*
X0Y281D02*
X7Y281D01*
X645Y281D02*
X652Y281D01*
X0Y280D02*
X7Y280D01*
X645Y280D02*
X652Y280D01*
X0Y279D02*
X7Y279D01*
X645Y279D02*
X652Y279D01*
X0Y278D02*
X7Y278D01*
X645Y278D02*
X652Y278D01*
X0Y277D02*
X7Y277D01*
X645Y277D02*
X652Y277D01*
X0Y276D02*
X7Y276D01*
X645Y276D02*
X652Y276D01*
X0Y275D02*
X7Y275D01*
X645Y275D02*
X652Y275D01*
X0Y274D02*
X7Y274D01*
X645Y274D02*
X652Y274D01*
X0Y273D02*
X7Y273D01*
X645Y273D02*
X652Y273D01*
X0Y272D02*
X7Y272D01*
X645Y272D02*
X652Y272D01*
X0Y271D02*
X7Y271D01*
X645Y271D02*
X652Y271D01*
X0Y270D02*
X7Y270D01*
X645Y270D02*
X652Y270D01*
X0Y269D02*
X7Y269D01*
X188Y269D02*
X317Y269D01*
X645Y269D02*
X652Y269D01*
X0Y268D02*
X7Y268D01*
X188Y268D02*
X317Y268D01*
X645Y268D02*
X652Y268D01*
X0Y267D02*
X7Y267D01*
X188Y267D02*
X317Y267D01*
X645Y267D02*
X652Y267D01*
X0Y266D02*
X7Y266D01*
X188Y266D02*
X190Y266D01*
X248Y266D02*
X257Y266D01*
X315Y266D02*
X317Y266D01*
X645Y266D02*
X652Y266D01*
X0Y265D02*
X7Y265D01*
X188Y265D02*
X190Y265D01*
X315Y265D02*
X317Y265D01*
X645Y265D02*
X652Y265D01*
X0Y264D02*
X7Y264D01*
X188Y264D02*
X190Y264D01*
X315Y264D02*
X317Y264D01*
X645Y264D02*
X652Y264D01*
X0Y263D02*
X7Y263D01*
X188Y263D02*
X190Y263D01*
X315Y263D02*
X317Y263D01*
X645Y263D02*
X652Y263D01*
X0Y262D02*
X7Y262D01*
X188Y262D02*
X190Y262D01*
X315Y262D02*
X317Y262D01*
X645Y262D02*
X652Y262D01*
X0Y261D02*
X7Y261D01*
X188Y261D02*
X190Y261D01*
X315Y261D02*
X317Y261D01*
X645Y261D02*
X652Y261D01*
X0Y260D02*
X7Y260D01*
X188Y260D02*
X190Y260D01*
X315Y260D02*
X317Y260D01*
X645Y260D02*
X652Y260D01*
X0Y259D02*
X7Y259D01*
X188Y259D02*
X190Y259D01*
X315Y259D02*
X317Y259D01*
X645Y259D02*
X652Y259D01*
X0Y258D02*
X7Y258D01*
X188Y258D02*
X190Y258D01*
X315Y258D02*
X317Y258D01*
X348Y258D02*
X361Y258D01*
X379Y258D02*
X388Y258D01*
X645Y258D02*
X652Y258D01*
X0Y257D02*
X7Y257D01*
X188Y257D02*
X190Y257D01*
X315Y257D02*
X317Y257D01*
X347Y257D02*
X364Y257D01*
X377Y257D02*
X389Y257D01*
X645Y257D02*
X652Y257D01*
X0Y256D02*
X7Y256D01*
X188Y256D02*
X190Y256D01*
X315Y256D02*
X317Y256D01*
X347Y256D02*
X365Y256D01*
X377Y256D02*
X389Y256D01*
X645Y256D02*
X652Y256D01*
X0Y255D02*
X7Y255D01*
X188Y255D02*
X190Y255D01*
X315Y255D02*
X317Y255D01*
X347Y255D02*
X366Y255D01*
X377Y255D02*
X389Y255D01*
X645Y255D02*
X652Y255D01*
X0Y254D02*
X7Y254D01*
X188Y254D02*
X190Y254D01*
X315Y254D02*
X317Y254D01*
X347Y254D02*
X366Y254D01*
X378Y254D02*
X389Y254D01*
X645Y254D02*
X652Y254D01*
X0Y253D02*
X7Y253D01*
X188Y253D02*
X190Y253D01*
X315Y253D02*
X317Y253D01*
X347Y253D02*
X350Y253D01*
X363Y253D02*
X367Y253D01*
X385Y253D02*
X389Y253D01*
X645Y253D02*
X652Y253D01*
X0Y252D02*
X7Y252D01*
X188Y252D02*
X190Y252D01*
X315Y252D02*
X317Y252D01*
X347Y252D02*
X350Y252D01*
X364Y252D02*
X367Y252D01*
X385Y252D02*
X389Y252D01*
X645Y252D02*
X652Y252D01*
X0Y251D02*
X7Y251D01*
X188Y251D02*
X190Y251D01*
X315Y251D02*
X317Y251D01*
X347Y251D02*
X350Y251D01*
X364Y251D02*
X367Y251D01*
X385Y251D02*
X389Y251D01*
X645Y251D02*
X652Y251D01*
X0Y250D02*
X7Y250D01*
X188Y250D02*
X190Y250D01*
X315Y250D02*
X317Y250D01*
X347Y250D02*
X350Y250D01*
X364Y250D02*
X367Y250D01*
X385Y250D02*
X389Y250D01*
X645Y250D02*
X652Y250D01*
X0Y249D02*
X7Y249D01*
X188Y249D02*
X190Y249D01*
X315Y249D02*
X317Y249D01*
X347Y249D02*
X350Y249D01*
X363Y249D02*
X367Y249D01*
X385Y249D02*
X389Y249D01*
X645Y249D02*
X652Y249D01*
X0Y248D02*
X7Y248D01*
X188Y248D02*
X190Y248D01*
X315Y248D02*
X317Y248D01*
X347Y248D02*
X350Y248D01*
X363Y248D02*
X367Y248D01*
X385Y248D02*
X389Y248D01*
X645Y248D02*
X652Y248D01*
X0Y247D02*
X7Y247D01*
X188Y247D02*
X190Y247D01*
X315Y247D02*
X317Y247D01*
X347Y247D02*
X366Y247D01*
X385Y247D02*
X389Y247D01*
X645Y247D02*
X652Y247D01*
X0Y246D02*
X7Y246D01*
X188Y246D02*
X190Y246D01*
X315Y246D02*
X317Y246D01*
X347Y246D02*
X366Y246D01*
X385Y246D02*
X389Y246D01*
X645Y246D02*
X652Y246D01*
X0Y245D02*
X7Y245D01*
X188Y245D02*
X190Y245D01*
X315Y245D02*
X317Y245D01*
X347Y245D02*
X365Y245D01*
X385Y245D02*
X389Y245D01*
X645Y245D02*
X652Y245D01*
X0Y244D02*
X7Y244D01*
X188Y244D02*
X190Y244D01*
X315Y244D02*
X317Y244D01*
X347Y244D02*
X363Y244D01*
X385Y244D02*
X389Y244D01*
X645Y244D02*
X652Y244D01*
X0Y243D02*
X7Y243D01*
X188Y243D02*
X190Y243D01*
X315Y243D02*
X317Y243D01*
X347Y243D02*
X350Y243D01*
X354Y243D02*
X358Y243D01*
X385Y243D02*
X389Y243D01*
X645Y243D02*
X652Y243D01*
X0Y242D02*
X7Y242D01*
X96Y242D02*
X105Y242D01*
X188Y242D02*
X190Y242D01*
X315Y242D02*
X317Y242D01*
X347Y242D02*
X350Y242D01*
X355Y242D02*
X359Y242D01*
X385Y242D02*
X389Y242D01*
X645Y242D02*
X652Y242D01*
X0Y241D02*
X7Y241D01*
X96Y241D02*
X105Y241D01*
X188Y241D02*
X190Y241D01*
X315Y241D02*
X317Y241D01*
X347Y241D02*
X350Y241D01*
X355Y241D02*
X359Y241D01*
X385Y241D02*
X389Y241D01*
X645Y241D02*
X652Y241D01*
X0Y240D02*
X7Y240D01*
X96Y240D02*
X105Y240D01*
X188Y240D02*
X190Y240D01*
X315Y240D02*
X317Y240D01*
X347Y240D02*
X350Y240D01*
X356Y240D02*
X360Y240D01*
X385Y240D02*
X389Y240D01*
X395Y240D02*
X396Y240D01*
X645Y240D02*
X652Y240D01*
X0Y239D02*
X7Y239D01*
X96Y239D02*
X106Y239D01*
X188Y239D02*
X190Y239D01*
X315Y239D02*
X317Y239D01*
X347Y239D02*
X350Y239D01*
X357Y239D02*
X361Y239D01*
X385Y239D02*
X389Y239D01*
X394Y239D02*
X397Y239D01*
X645Y239D02*
X652Y239D01*
X0Y238D02*
X7Y238D01*
X95Y238D02*
X106Y238D01*
X188Y238D02*
X190Y238D01*
X315Y238D02*
X317Y238D01*
X347Y238D02*
X350Y238D01*
X357Y238D02*
X361Y238D01*
X385Y238D02*
X389Y238D01*
X394Y238D02*
X397Y238D01*
X645Y238D02*
X652Y238D01*
X0Y237D02*
X7Y237D01*
X95Y237D02*
X106Y237D01*
X188Y237D02*
X190Y237D01*
X315Y237D02*
X317Y237D01*
X347Y237D02*
X350Y237D01*
X358Y237D02*
X362Y237D01*
X385Y237D02*
X389Y237D01*
X394Y237D02*
X397Y237D01*
X645Y237D02*
X652Y237D01*
X0Y236D02*
X7Y236D01*
X95Y236D02*
X106Y236D01*
X188Y236D02*
X190Y236D01*
X315Y236D02*
X317Y236D01*
X347Y236D02*
X350Y236D01*
X358Y236D02*
X362Y236D01*
X385Y236D02*
X389Y236D01*
X394Y236D02*
X397Y236D01*
X645Y236D02*
X652Y236D01*
X0Y235D02*
X7Y235D01*
X95Y235D02*
X106Y235D01*
X188Y235D02*
X190Y235D01*
X315Y235D02*
X317Y235D01*
X347Y235D02*
X350Y235D01*
X359Y235D02*
X363Y235D01*
X385Y235D02*
X389Y235D01*
X394Y235D02*
X397Y235D01*
X645Y235D02*
X652Y235D01*
X0Y234D02*
X7Y234D01*
X95Y234D02*
X107Y234D01*
X188Y234D02*
X190Y234D01*
X315Y234D02*
X317Y234D01*
X347Y234D02*
X350Y234D01*
X360Y234D02*
X363Y234D01*
X385Y234D02*
X389Y234D01*
X394Y234D02*
X397Y234D01*
X645Y234D02*
X652Y234D01*
X0Y233D02*
X7Y233D01*
X94Y233D02*
X107Y233D01*
X188Y233D02*
X190Y233D01*
X315Y233D02*
X317Y233D01*
X347Y233D02*
X350Y233D01*
X360Y233D02*
X364Y233D01*
X385Y233D02*
X389Y233D01*
X394Y233D02*
X397Y233D01*
X645Y233D02*
X652Y233D01*
X0Y232D02*
X7Y232D01*
X94Y232D02*
X107Y232D01*
X188Y232D02*
X190Y232D01*
X315Y232D02*
X317Y232D01*
X347Y232D02*
X350Y232D01*
X361Y232D02*
X365Y232D01*
X385Y232D02*
X389Y232D01*
X394Y232D02*
X397Y232D01*
X645Y232D02*
X652Y232D01*
X0Y231D02*
X7Y231D01*
X94Y231D02*
X107Y231D01*
X188Y231D02*
X190Y231D01*
X315Y231D02*
X317Y231D01*
X347Y231D02*
X350Y231D01*
X361Y231D02*
X365Y231D01*
X385Y231D02*
X389Y231D01*
X394Y231D02*
X397Y231D01*
X645Y231D02*
X652Y231D01*
X0Y230D02*
X7Y230D01*
X68Y230D02*
X68Y230D01*
X94Y230D02*
X107Y230D01*
X133Y230D02*
X133Y230D01*
X188Y230D02*
X190Y230D01*
X315Y230D02*
X317Y230D01*
X347Y230D02*
X350Y230D01*
X362Y230D02*
X366Y230D01*
X385Y230D02*
X389Y230D01*
X393Y230D02*
X397Y230D01*
X645Y230D02*
X652Y230D01*
X0Y229D02*
X7Y229D01*
X67Y229D02*
X70Y229D01*
X94Y229D02*
X108Y229D01*
X131Y229D02*
X134Y229D01*
X188Y229D02*
X190Y229D01*
X315Y229D02*
X317Y229D01*
X347Y229D02*
X350Y229D01*
X362Y229D02*
X366Y229D01*
X378Y229D02*
X397Y229D01*
X645Y229D02*
X652Y229D01*
X0Y228D02*
X7Y228D01*
X66Y228D02*
X71Y228D01*
X93Y228D02*
X108Y228D01*
X130Y228D02*
X135Y228D01*
X188Y228D02*
X190Y228D01*
X315Y228D02*
X317Y228D01*
X347Y228D02*
X350Y228D01*
X363Y228D02*
X367Y228D01*
X377Y228D02*
X397Y228D01*
X645Y228D02*
X652Y228D01*
X0Y227D02*
X7Y227D01*
X65Y227D02*
X73Y227D01*
X91Y227D02*
X111Y227D01*
X128Y227D02*
X137Y227D01*
X188Y227D02*
X190Y227D01*
X315Y227D02*
X317Y227D01*
X347Y227D02*
X350Y227D01*
X364Y227D02*
X367Y227D01*
X377Y227D02*
X397Y227D01*
X645Y227D02*
X652Y227D01*
X0Y226D02*
X7Y226D01*
X64Y226D02*
X74Y226D01*
X88Y226D02*
X114Y226D01*
X127Y226D02*
X138Y226D01*
X188Y226D02*
X190Y226D01*
X315Y226D02*
X317Y226D01*
X348Y226D02*
X349Y226D01*
X365Y226D02*
X366Y226D01*
X378Y226D02*
X396Y226D01*
X645Y226D02*
X652Y226D01*
X0Y225D02*
X7Y225D01*
X63Y225D02*
X76Y225D01*
X85Y225D02*
X116Y225D01*
X126Y225D02*
X139Y225D01*
X188Y225D02*
X190Y225D01*
X315Y225D02*
X317Y225D01*
X645Y225D02*
X652Y225D01*
X0Y224D02*
X7Y224D01*
X62Y224D02*
X77Y224D01*
X83Y224D02*
X118Y224D01*
X124Y224D02*
X139Y224D01*
X188Y224D02*
X190Y224D01*
X315Y224D02*
X317Y224D01*
X645Y224D02*
X652Y224D01*
X0Y223D02*
X7Y223D01*
X62Y223D02*
X79Y223D01*
X81Y223D02*
X120Y223D01*
X123Y223D02*
X139Y223D01*
X188Y223D02*
X190Y223D01*
X315Y223D02*
X317Y223D01*
X645Y223D02*
X652Y223D01*
X0Y222D02*
X7Y222D01*
X63Y222D02*
X139Y222D01*
X188Y222D02*
X190Y222D01*
X315Y222D02*
X317Y222D01*
X645Y222D02*
X652Y222D01*
X0Y221D02*
X7Y221D01*
X63Y221D02*
X138Y221D01*
X188Y221D02*
X190Y221D01*
X315Y221D02*
X317Y221D01*
X645Y221D02*
X652Y221D01*
X0Y220D02*
X7Y220D01*
X64Y220D02*
X137Y220D01*
X188Y220D02*
X190Y220D01*
X315Y220D02*
X317Y220D01*
X645Y220D02*
X652Y220D01*
X0Y219D02*
X7Y219D01*
X65Y219D02*
X137Y219D01*
X188Y219D02*
X190Y219D01*
X315Y219D02*
X317Y219D01*
X645Y219D02*
X652Y219D01*
X0Y218D02*
X7Y218D01*
X65Y218D02*
X136Y218D01*
X188Y218D02*
X190Y218D01*
X315Y218D02*
X317Y218D01*
X645Y218D02*
X652Y218D01*
X0Y217D02*
X7Y217D01*
X66Y217D02*
X135Y217D01*
X188Y217D02*
X190Y217D01*
X315Y217D02*
X317Y217D01*
X645Y217D02*
X652Y217D01*
X0Y216D02*
X7Y216D01*
X67Y216D02*
X135Y216D01*
X188Y216D02*
X190Y216D01*
X315Y216D02*
X317Y216D01*
X645Y216D02*
X652Y216D01*
X0Y215D02*
X7Y215D01*
X67Y215D02*
X134Y215D01*
X188Y215D02*
X190Y215D01*
X315Y215D02*
X317Y215D01*
X645Y215D02*
X652Y215D01*
X0Y214D02*
X7Y214D01*
X68Y214D02*
X133Y214D01*
X188Y214D02*
X190Y214D01*
X248Y214D02*
X257Y214D01*
X315Y214D02*
X317Y214D01*
X645Y214D02*
X652Y214D01*
X0Y213D02*
X7Y213D01*
X69Y213D02*
X133Y213D01*
X188Y213D02*
X317Y213D01*
X645Y213D02*
X652Y213D01*
X0Y212D02*
X7Y212D01*
X69Y212D02*
X132Y212D01*
X188Y212D02*
X317Y212D01*
X645Y212D02*
X652Y212D01*
X0Y211D02*
X7Y211D01*
X69Y211D02*
X132Y211D01*
X188Y211D02*
X317Y211D01*
X645Y211D02*
X652Y211D01*
X0Y210D02*
X7Y210D01*
X68Y210D02*
X133Y210D01*
X645Y210D02*
X652Y210D01*
X0Y209D02*
X7Y209D01*
X68Y209D02*
X99Y209D01*
X102Y209D02*
X133Y209D01*
X645Y209D02*
X652Y209D01*
X0Y208D02*
X7Y208D01*
X67Y208D02*
X94Y208D01*
X107Y208D02*
X134Y208D01*
X645Y208D02*
X652Y208D01*
X0Y207D02*
X7Y207D01*
X67Y207D02*
X92Y207D01*
X110Y207D02*
X134Y207D01*
X645Y207D02*
X652Y207D01*
X0Y206D02*
X7Y206D01*
X66Y206D02*
X90Y206D01*
X111Y206D02*
X135Y206D01*
X645Y206D02*
X652Y206D01*
X0Y205D02*
X7Y205D01*
X66Y205D02*
X89Y205D01*
X113Y205D02*
X135Y205D01*
X645Y205D02*
X652Y205D01*
X0Y204D02*
X7Y204D01*
X66Y204D02*
X87Y204D01*
X114Y204D02*
X136Y204D01*
X645Y204D02*
X652Y204D01*
X0Y203D02*
X7Y203D01*
X65Y203D02*
X87Y203D01*
X115Y203D02*
X136Y203D01*
X645Y203D02*
X652Y203D01*
X0Y202D02*
X7Y202D01*
X65Y202D02*
X86Y202D01*
X115Y202D02*
X136Y202D01*
X645Y202D02*
X652Y202D01*
X0Y201D02*
X7Y201D01*
X65Y201D02*
X85Y201D01*
X116Y201D02*
X137Y201D01*
X645Y201D02*
X652Y201D01*
X0Y200D02*
X7Y200D01*
X64Y200D02*
X84Y200D01*
X117Y200D02*
X137Y200D01*
X645Y200D02*
X652Y200D01*
X0Y199D02*
X7Y199D01*
X64Y199D02*
X84Y199D01*
X117Y199D02*
X137Y199D01*
X645Y199D02*
X652Y199D01*
X0Y198D02*
X7Y198D01*
X61Y198D02*
X83Y198D01*
X118Y198D02*
X140Y198D01*
X645Y198D02*
X652Y198D01*
X0Y197D02*
X7Y197D01*
X56Y197D02*
X83Y197D01*
X118Y197D02*
X146Y197D01*
X645Y197D02*
X652Y197D01*
X0Y196D02*
X7Y196D01*
X50Y196D02*
X83Y196D01*
X119Y196D02*
X151Y196D01*
X645Y196D02*
X652Y196D01*
X0Y195D02*
X7Y195D01*
X50Y195D02*
X82Y195D01*
X119Y195D02*
X151Y195D01*
X645Y195D02*
X652Y195D01*
X0Y194D02*
X7Y194D01*
X50Y194D02*
X82Y194D01*
X119Y194D02*
X151Y194D01*
X645Y194D02*
X652Y194D01*
X0Y193D02*
X7Y193D01*
X50Y193D02*
X82Y193D01*
X119Y193D02*
X151Y193D01*
X645Y193D02*
X652Y193D01*
X0Y192D02*
X7Y192D01*
X50Y192D02*
X82Y192D01*
X119Y192D02*
X151Y192D01*
X645Y192D02*
X652Y192D01*
X0Y191D02*
X7Y191D01*
X50Y191D02*
X82Y191D01*
X119Y191D02*
X151Y191D01*
X645Y191D02*
X652Y191D01*
X0Y190D02*
X7Y190D01*
X50Y190D02*
X82Y190D01*
X119Y190D02*
X151Y190D01*
X645Y190D02*
X652Y190D01*
X0Y189D02*
X7Y189D01*
X50Y189D02*
X82Y189D01*
X119Y189D02*
X151Y189D01*
X645Y189D02*
X652Y189D01*
X0Y188D02*
X7Y188D01*
X50Y188D02*
X82Y188D01*
X119Y188D02*
X151Y188D01*
X645Y188D02*
X652Y188D01*
X0Y187D02*
X7Y187D01*
X50Y187D02*
X82Y187D01*
X119Y187D02*
X151Y187D01*
X645Y187D02*
X652Y187D01*
X0Y186D02*
X7Y186D01*
X50Y186D02*
X83Y186D01*
X119Y186D02*
X151Y186D01*
X188Y186D02*
X317Y186D01*
X645Y186D02*
X652Y186D01*
X0Y185D02*
X7Y185D01*
X55Y185D02*
X83Y185D01*
X118Y185D02*
X146Y185D01*
X188Y185D02*
X317Y185D01*
X645Y185D02*
X652Y185D01*
X0Y184D02*
X7Y184D01*
X61Y184D02*
X83Y184D01*
X118Y184D02*
X140Y184D01*
X188Y184D02*
X317Y184D01*
X645Y184D02*
X652Y184D01*
X0Y183D02*
X7Y183D01*
X64Y183D02*
X84Y183D01*
X118Y183D02*
X138Y183D01*
X188Y183D02*
X190Y183D01*
X248Y183D02*
X257Y183D01*
X315Y183D02*
X317Y183D01*
X645Y183D02*
X652Y183D01*
X0Y182D02*
X7Y182D01*
X64Y182D02*
X84Y182D01*
X117Y182D02*
X137Y182D01*
X188Y182D02*
X190Y182D01*
X315Y182D02*
X317Y182D01*
X645Y182D02*
X652Y182D01*
X0Y181D02*
X7Y181D01*
X64Y181D02*
X85Y181D01*
X116Y181D02*
X137Y181D01*
X188Y181D02*
X190Y181D01*
X315Y181D02*
X317Y181D01*
X645Y181D02*
X652Y181D01*
X0Y180D02*
X7Y180D01*
X64Y180D02*
X86Y180D01*
X116Y180D02*
X137Y180D01*
X188Y180D02*
X190Y180D01*
X315Y180D02*
X317Y180D01*
X645Y180D02*
X652Y180D01*
X0Y179D02*
X7Y179D01*
X65Y179D02*
X86Y179D01*
X115Y179D02*
X137Y179D01*
X188Y179D02*
X190Y179D01*
X315Y179D02*
X317Y179D01*
X645Y179D02*
X652Y179D01*
X0Y178D02*
X7Y178D01*
X65Y178D02*
X87Y178D01*
X114Y178D02*
X136Y178D01*
X188Y178D02*
X190Y178D01*
X315Y178D02*
X317Y178D01*
X645Y178D02*
X652Y178D01*
X0Y177D02*
X7Y177D01*
X65Y177D02*
X88Y177D01*
X113Y177D02*
X136Y177D01*
X188Y177D02*
X190Y177D01*
X315Y177D02*
X317Y177D01*
X645Y177D02*
X652Y177D01*
X0Y176D02*
X7Y176D01*
X66Y176D02*
X90Y176D01*
X112Y176D02*
X135Y176D01*
X188Y176D02*
X190Y176D01*
X315Y176D02*
X317Y176D01*
X645Y176D02*
X652Y176D01*
X0Y175D02*
X7Y175D01*
X66Y175D02*
X90Y175D01*
X111Y175D02*
X135Y175D01*
X188Y175D02*
X190Y175D01*
X315Y175D02*
X317Y175D01*
X645Y175D02*
X652Y175D01*
X0Y174D02*
X7Y174D01*
X67Y174D02*
X90Y174D01*
X111Y174D02*
X135Y174D01*
X188Y174D02*
X190Y174D01*
X315Y174D02*
X317Y174D01*
X645Y174D02*
X652Y174D01*
X0Y173D02*
X7Y173D01*
X67Y173D02*
X90Y173D01*
X112Y173D02*
X134Y173D01*
X188Y173D02*
X190Y173D01*
X315Y173D02*
X317Y173D01*
X645Y173D02*
X652Y173D01*
X0Y172D02*
X7Y172D01*
X68Y172D02*
X89Y172D01*
X112Y172D02*
X134Y172D01*
X188Y172D02*
X190Y172D01*
X315Y172D02*
X317Y172D01*
X347Y172D02*
X362Y172D01*
X378Y172D02*
X394Y172D01*
X645Y172D02*
X652Y172D01*
X0Y171D02*
X7Y171D01*
X68Y171D02*
X89Y171D01*
X112Y171D02*
X133Y171D01*
X188Y171D02*
X190Y171D01*
X315Y171D02*
X317Y171D01*
X347Y171D02*
X364Y171D01*
X377Y171D02*
X395Y171D01*
X645Y171D02*
X652Y171D01*
X0Y170D02*
X7Y170D01*
X69Y170D02*
X88Y170D01*
X113Y170D02*
X132Y170D01*
X188Y170D02*
X190Y170D01*
X315Y170D02*
X317Y170D01*
X347Y170D02*
X365Y170D01*
X377Y170D02*
X396Y170D01*
X645Y170D02*
X652Y170D01*
X0Y169D02*
X7Y169D01*
X69Y169D02*
X88Y169D01*
X113Y169D02*
X132Y169D01*
X188Y169D02*
X190Y169D01*
X315Y169D02*
X317Y169D01*
X347Y169D02*
X366Y169D01*
X377Y169D02*
X397Y169D01*
X645Y169D02*
X652Y169D01*
X0Y168D02*
X7Y168D01*
X68Y168D02*
X88Y168D01*
X114Y168D02*
X133Y168D01*
X188Y168D02*
X190Y168D01*
X315Y168D02*
X317Y168D01*
X347Y168D02*
X366Y168D01*
X379Y168D02*
X397Y168D01*
X645Y168D02*
X652Y168D01*
X0Y167D02*
X7Y167D01*
X67Y167D02*
X87Y167D01*
X114Y167D02*
X134Y167D01*
X188Y167D02*
X190Y167D01*
X315Y167D02*
X317Y167D01*
X347Y167D02*
X350Y167D01*
X363Y167D02*
X367Y167D01*
X394Y167D02*
X397Y167D01*
X645Y167D02*
X652Y167D01*
X0Y166D02*
X7Y166D01*
X67Y166D02*
X87Y166D01*
X114Y166D02*
X135Y166D01*
X188Y166D02*
X190Y166D01*
X315Y166D02*
X317Y166D01*
X347Y166D02*
X350Y166D01*
X364Y166D02*
X367Y166D01*
X394Y166D02*
X397Y166D01*
X645Y166D02*
X652Y166D01*
X0Y165D02*
X7Y165D01*
X66Y165D02*
X86Y165D01*
X115Y165D02*
X135Y165D01*
X188Y165D02*
X190Y165D01*
X315Y165D02*
X317Y165D01*
X347Y165D02*
X350Y165D01*
X364Y165D02*
X367Y165D01*
X394Y165D02*
X397Y165D01*
X645Y165D02*
X652Y165D01*
X0Y164D02*
X7Y164D01*
X65Y164D02*
X86Y164D01*
X115Y164D02*
X136Y164D01*
X188Y164D02*
X190Y164D01*
X315Y164D02*
X317Y164D01*
X347Y164D02*
X350Y164D01*
X364Y164D02*
X367Y164D01*
X394Y164D02*
X397Y164D01*
X645Y164D02*
X652Y164D01*
X0Y163D02*
X7Y163D01*
X65Y163D02*
X86Y163D01*
X116Y163D02*
X137Y163D01*
X188Y163D02*
X190Y163D01*
X315Y163D02*
X317Y163D01*
X347Y163D02*
X350Y163D01*
X363Y163D02*
X367Y163D01*
X394Y163D02*
X397Y163D01*
X645Y163D02*
X652Y163D01*
X0Y162D02*
X7Y162D01*
X64Y162D02*
X85Y162D01*
X116Y162D02*
X137Y162D01*
X188Y162D02*
X190Y162D01*
X315Y162D02*
X317Y162D01*
X347Y162D02*
X350Y162D01*
X363Y162D02*
X367Y162D01*
X394Y162D02*
X397Y162D01*
X645Y162D02*
X652Y162D01*
X0Y161D02*
X7Y161D01*
X63Y161D02*
X85Y161D01*
X117Y161D02*
X138Y161D01*
X188Y161D02*
X190Y161D01*
X315Y161D02*
X317Y161D01*
X347Y161D02*
X366Y161D01*
X394Y161D02*
X397Y161D01*
X645Y161D02*
X652Y161D01*
X0Y160D02*
X7Y160D01*
X63Y160D02*
X84Y160D01*
X117Y160D02*
X139Y160D01*
X188Y160D02*
X190Y160D01*
X315Y160D02*
X317Y160D01*
X347Y160D02*
X365Y160D01*
X394Y160D02*
X397Y160D01*
X645Y160D02*
X652Y160D01*
X0Y159D02*
X7Y159D01*
X62Y159D02*
X84Y159D01*
X117Y159D02*
X139Y159D01*
X188Y159D02*
X190Y159D01*
X315Y159D02*
X317Y159D01*
X347Y159D02*
X365Y159D01*
X394Y159D02*
X397Y159D01*
X645Y159D02*
X652Y159D01*
X0Y158D02*
X7Y158D01*
X62Y158D02*
X77Y158D01*
X81Y158D02*
X83Y158D01*
X118Y158D02*
X120Y158D01*
X124Y158D02*
X140Y158D01*
X188Y158D02*
X190Y158D01*
X315Y158D02*
X317Y158D01*
X347Y158D02*
X363Y158D01*
X381Y158D02*
X397Y158D01*
X645Y158D02*
X652Y158D01*
X0Y157D02*
X7Y157D01*
X63Y157D02*
X76Y157D01*
X83Y157D02*
X83Y157D01*
X118Y157D02*
X118Y157D01*
X126Y157D02*
X139Y157D01*
X188Y157D02*
X190Y157D01*
X315Y157D02*
X317Y157D01*
X347Y157D02*
X350Y157D01*
X354Y157D02*
X358Y157D01*
X379Y157D02*
X397Y157D01*
X645Y157D02*
X652Y157D01*
X0Y156D02*
X7Y156D01*
X64Y156D02*
X74Y156D01*
X127Y156D02*
X138Y156D01*
X188Y156D02*
X190Y156D01*
X315Y156D02*
X317Y156D01*
X347Y156D02*
X350Y156D01*
X355Y156D02*
X359Y156D01*
X378Y156D02*
X396Y156D01*
X645Y156D02*
X652Y156D01*
X0Y155D02*
X7Y155D01*
X65Y155D02*
X73Y155D01*
X128Y155D02*
X137Y155D01*
X188Y155D02*
X190Y155D01*
X315Y155D02*
X317Y155D01*
X347Y155D02*
X350Y155D01*
X356Y155D02*
X359Y155D01*
X377Y155D02*
X395Y155D01*
X645Y155D02*
X652Y155D01*
X0Y154D02*
X7Y154D01*
X66Y154D02*
X71Y154D01*
X130Y154D02*
X136Y154D01*
X188Y154D02*
X190Y154D01*
X315Y154D02*
X317Y154D01*
X347Y154D02*
X350Y154D01*
X356Y154D02*
X360Y154D01*
X377Y154D02*
X393Y154D01*
X645Y154D02*
X652Y154D01*
X0Y153D02*
X7Y153D01*
X67Y153D02*
X70Y153D01*
X131Y153D02*
X135Y153D01*
X188Y153D02*
X190Y153D01*
X315Y153D02*
X317Y153D01*
X347Y153D02*
X350Y153D01*
X357Y153D02*
X361Y153D01*
X377Y153D02*
X380Y153D01*
X645Y153D02*
X652Y153D01*
X0Y152D02*
X7Y152D01*
X68Y152D02*
X68Y152D01*
X133Y152D02*
X134Y152D01*
X188Y152D02*
X190Y152D01*
X315Y152D02*
X317Y152D01*
X347Y152D02*
X350Y152D01*
X357Y152D02*
X361Y152D01*
X377Y152D02*
X380Y152D01*
X645Y152D02*
X652Y152D01*
X0Y151D02*
X7Y151D01*
X188Y151D02*
X190Y151D01*
X315Y151D02*
X317Y151D01*
X347Y151D02*
X350Y151D01*
X358Y151D02*
X362Y151D01*
X377Y151D02*
X380Y151D01*
X645Y151D02*
X652Y151D01*
X0Y150D02*
X7Y150D01*
X188Y150D02*
X190Y150D01*
X315Y150D02*
X317Y150D01*
X347Y150D02*
X350Y150D01*
X358Y150D02*
X362Y150D01*
X377Y150D02*
X380Y150D01*
X645Y150D02*
X652Y150D01*
X0Y149D02*
X7Y149D01*
X188Y149D02*
X190Y149D01*
X315Y149D02*
X317Y149D01*
X347Y149D02*
X350Y149D01*
X359Y149D02*
X363Y149D01*
X377Y149D02*
X380Y149D01*
X645Y149D02*
X652Y149D01*
X0Y148D02*
X7Y148D01*
X188Y148D02*
X190Y148D01*
X315Y148D02*
X317Y148D01*
X347Y148D02*
X350Y148D01*
X360Y148D02*
X364Y148D01*
X377Y148D02*
X380Y148D01*
X645Y148D02*
X652Y148D01*
X0Y147D02*
X7Y147D01*
X188Y147D02*
X190Y147D01*
X315Y147D02*
X317Y147D01*
X347Y147D02*
X350Y147D01*
X360Y147D02*
X364Y147D01*
X377Y147D02*
X380Y147D01*
X645Y147D02*
X652Y147D01*
X0Y146D02*
X7Y146D01*
X188Y146D02*
X190Y146D01*
X315Y146D02*
X317Y146D01*
X347Y146D02*
X350Y146D01*
X361Y146D02*
X365Y146D01*
X377Y146D02*
X380Y146D01*
X645Y146D02*
X652Y146D01*
X0Y145D02*
X7Y145D01*
X188Y145D02*
X190Y145D01*
X315Y145D02*
X317Y145D01*
X347Y145D02*
X350Y145D01*
X361Y145D02*
X365Y145D01*
X377Y145D02*
X380Y145D01*
X645Y145D02*
X652Y145D01*
X0Y144D02*
X7Y144D01*
X188Y144D02*
X190Y144D01*
X315Y144D02*
X317Y144D01*
X347Y144D02*
X350Y144D01*
X362Y144D02*
X366Y144D01*
X377Y144D02*
X381Y144D01*
X645Y144D02*
X652Y144D01*
X0Y143D02*
X7Y143D01*
X86Y143D02*
X87Y143D01*
X123Y143D02*
X123Y143D01*
X188Y143D02*
X190Y143D01*
X315Y143D02*
X317Y143D01*
X347Y143D02*
X350Y143D01*
X363Y143D02*
X366Y143D01*
X377Y143D02*
X396Y143D01*
X645Y143D02*
X652Y143D01*
X0Y142D02*
X7Y142D01*
X86Y142D02*
X87Y142D01*
X123Y142D02*
X123Y142D01*
X188Y142D02*
X190Y142D01*
X315Y142D02*
X317Y142D01*
X347Y142D02*
X350Y142D01*
X363Y142D02*
X367Y142D01*
X377Y142D02*
X397Y142D01*
X645Y142D02*
X652Y142D01*
X0Y141D02*
X7Y141D01*
X86Y141D02*
X87Y141D01*
X123Y141D02*
X123Y141D01*
X188Y141D02*
X190Y141D01*
X315Y141D02*
X317Y141D01*
X347Y141D02*
X350Y141D01*
X364Y141D02*
X367Y141D01*
X377Y141D02*
X397Y141D01*
X645Y141D02*
X652Y141D01*
X0Y140D02*
X7Y140D01*
X38Y140D02*
X41Y140D01*
X49Y140D02*
X52Y140D01*
X59Y140D02*
X63Y140D01*
X70Y140D02*
X73Y140D01*
X86Y140D02*
X87Y140D01*
X123Y140D02*
X123Y140D01*
X188Y140D02*
X190Y140D01*
X315Y140D02*
X317Y140D01*
X348Y140D02*
X349Y140D01*
X365Y140D02*
X366Y140D01*
X377Y140D02*
X396Y140D01*
X645Y140D02*
X652Y140D01*
X0Y139D02*
X7Y139D01*
X37Y139D02*
X42Y139D01*
X48Y139D02*
X53Y139D01*
X58Y139D02*
X64Y139D01*
X69Y139D02*
X74Y139D01*
X86Y139D02*
X91Y139D01*
X98Y139D02*
X101Y139D01*
X108Y139D02*
X112Y139D01*
X118Y139D02*
X123Y139D01*
X126Y139D02*
X126Y139D01*
X130Y139D02*
X130Y139D01*
X134Y139D02*
X134Y139D01*
X138Y139D02*
X142Y139D01*
X148Y139D02*
X152Y139D01*
X159Y139D02*
X162Y139D01*
X188Y139D02*
X190Y139D01*
X315Y139D02*
X317Y139D01*
X645Y139D02*
X652Y139D01*
X0Y138D02*
X7Y138D01*
X36Y138D02*
X38Y138D01*
X41Y138D02*
X43Y138D01*
X47Y138D02*
X49Y138D01*
X52Y138D02*
X54Y138D01*
X58Y138D02*
X60Y138D01*
X62Y138D02*
X64Y138D01*
X68Y138D02*
X70Y138D01*
X73Y138D02*
X75Y138D01*
X86Y138D02*
X88Y138D01*
X91Y138D02*
X92Y138D01*
X97Y138D02*
X98Y138D01*
X101Y138D02*
X102Y138D01*
X107Y138D02*
X108Y138D01*
X111Y138D02*
X112Y138D01*
X117Y138D02*
X118Y138D01*
X121Y138D02*
X123Y138D01*
X126Y138D02*
X126Y138D01*
X130Y138D02*
X130Y138D01*
X134Y138D02*
X134Y138D01*
X137Y138D02*
X139Y138D01*
X142Y138D02*
X143Y138D01*
X148Y138D02*
X149Y138D01*
X152Y138D02*
X153Y138D01*
X158Y138D02*
X159Y138D01*
X162Y138D02*
X163Y138D01*
X188Y138D02*
X190Y138D01*
X315Y138D02*
X317Y138D01*
X645Y138D02*
X652Y138D01*
X0Y137D02*
X7Y137D01*
X36Y137D02*
X37Y137D01*
X42Y137D02*
X43Y137D01*
X47Y137D02*
X48Y137D01*
X53Y137D02*
X54Y137D01*
X57Y137D02*
X59Y137D01*
X63Y137D02*
X65Y137D01*
X68Y137D02*
X69Y137D01*
X74Y137D02*
X75Y137D01*
X86Y137D02*
X87Y137D01*
X92Y137D02*
X92Y137D01*
X96Y137D02*
X97Y137D01*
X102Y137D02*
X103Y137D01*
X106Y137D02*
X107Y137D01*
X112Y137D02*
X113Y137D01*
X117Y137D02*
X117Y137D01*
X122Y137D02*
X123Y137D01*
X126Y137D02*
X126Y137D01*
X130Y137D02*
X130Y137D01*
X134Y137D02*
X134Y137D01*
X137Y137D02*
X138Y137D01*
X143Y137D02*
X143Y137D01*
X147Y137D02*
X148Y137D01*
X153Y137D02*
X154Y137D01*
X157Y137D02*
X158Y137D01*
X163Y137D02*
X164Y137D01*
X188Y137D02*
X190Y137D01*
X315Y137D02*
X317Y137D01*
X645Y137D02*
X652Y137D01*
X0Y136D02*
X7Y136D01*
X36Y136D02*
X37Y136D01*
X42Y136D02*
X43Y136D01*
X47Y136D02*
X48Y136D01*
X53Y136D02*
X54Y136D01*
X57Y136D02*
X59Y136D01*
X62Y136D02*
X65Y136D01*
X68Y136D02*
X69Y136D01*
X74Y136D02*
X75Y136D01*
X86Y136D02*
X87Y136D01*
X92Y136D02*
X93Y136D01*
X96Y136D02*
X97Y136D01*
X102Y136D02*
X103Y136D01*
X106Y136D02*
X107Y136D01*
X112Y136D02*
X113Y136D01*
X116Y136D02*
X117Y136D01*
X122Y136D02*
X123Y136D01*
X126Y136D02*
X126Y136D01*
X130Y136D02*
X130Y136D01*
X134Y136D02*
X134Y136D01*
X137Y136D02*
X137Y136D01*
X143Y136D02*
X144Y136D01*
X147Y136D02*
X148Y136D01*
X153Y136D02*
X153Y136D01*
X157Y136D02*
X158Y136D01*
X163Y136D02*
X164Y136D01*
X188Y136D02*
X190Y136D01*
X315Y136D02*
X317Y136D01*
X645Y136D02*
X652Y136D01*
X0Y135D02*
X7Y135D01*
X36Y135D02*
X37Y135D01*
X42Y135D02*
X43Y135D01*
X47Y135D02*
X48Y135D01*
X53Y135D02*
X54Y135D01*
X57Y135D02*
X64Y135D01*
X68Y135D02*
X69Y135D01*
X74Y135D02*
X75Y135D01*
X86Y135D02*
X87Y135D01*
X92Y135D02*
X93Y135D01*
X100Y135D02*
X103Y135D01*
X106Y135D02*
X107Y135D01*
X116Y135D02*
X117Y135D01*
X123Y135D02*
X123Y135D01*
X126Y135D02*
X126Y135D01*
X130Y135D02*
X130Y135D01*
X134Y135D02*
X134Y135D01*
X140Y135D02*
X144Y135D01*
X147Y135D02*
X148Y135D01*
X157Y135D02*
X158Y135D01*
X161Y135D02*
X164Y135D01*
X188Y135D02*
X190Y135D01*
X315Y135D02*
X317Y135D01*
X645Y135D02*
X652Y135D01*
X0Y134D02*
X7Y134D01*
X36Y134D02*
X37Y134D01*
X42Y134D02*
X43Y134D01*
X47Y134D02*
X48Y134D01*
X53Y134D02*
X54Y134D01*
X57Y134D02*
X62Y134D01*
X68Y134D02*
X69Y134D01*
X74Y134D02*
X75Y134D01*
X86Y134D02*
X87Y134D01*
X92Y134D02*
X93Y134D01*
X98Y134D02*
X103Y134D01*
X106Y134D02*
X107Y134D01*
X116Y134D02*
X117Y134D01*
X123Y134D02*
X123Y134D01*
X126Y134D02*
X126Y134D01*
X130Y134D02*
X130Y134D01*
X134Y134D02*
X134Y134D01*
X138Y134D02*
X144Y134D01*
X147Y134D02*
X148Y134D01*
X157Y134D02*
X161Y134D01*
X188Y134D02*
X190Y134D01*
X315Y134D02*
X317Y134D01*
X645Y134D02*
X652Y134D01*
X0Y133D02*
X7Y133D01*
X36Y133D02*
X37Y133D01*
X42Y133D02*
X43Y133D01*
X47Y133D02*
X48Y133D01*
X53Y133D02*
X54Y133D01*
X57Y133D02*
X60Y133D01*
X64Y133D02*
X65Y133D01*
X68Y133D02*
X69Y133D01*
X74Y133D02*
X75Y133D01*
X86Y133D02*
X87Y133D01*
X92Y133D02*
X93Y133D01*
X96Y133D02*
X98Y133D01*
X102Y133D02*
X103Y133D01*
X106Y133D02*
X107Y133D01*
X116Y133D02*
X117Y133D01*
X123Y133D02*
X123Y133D01*
X126Y133D02*
X126Y133D01*
X130Y133D02*
X130Y133D01*
X134Y133D02*
X134Y133D01*
X137Y133D02*
X139Y133D01*
X143Y133D02*
X144Y133D01*
X147Y133D02*
X148Y133D01*
X157Y133D02*
X159Y133D01*
X188Y133D02*
X190Y133D01*
X315Y133D02*
X317Y133D01*
X645Y133D02*
X652Y133D01*
X0Y132D02*
X7Y132D01*
X36Y132D02*
X37Y132D01*
X42Y132D02*
X43Y132D01*
X47Y132D02*
X48Y132D01*
X53Y132D02*
X54Y132D01*
X57Y132D02*
X59Y132D01*
X63Y132D02*
X65Y132D01*
X68Y132D02*
X69Y132D01*
X74Y132D02*
X75Y132D01*
X86Y132D02*
X87Y132D01*
X92Y132D02*
X93Y132D01*
X96Y132D02*
X97Y132D01*
X102Y132D02*
X103Y132D01*
X106Y132D02*
X107Y132D01*
X116Y132D02*
X117Y132D01*
X122Y132D02*
X123Y132D01*
X126Y132D02*
X126Y132D01*
X130Y132D02*
X130Y132D01*
X134Y132D02*
X134Y132D01*
X137Y132D02*
X138Y132D01*
X143Y132D02*
X144Y132D01*
X147Y132D02*
X148Y132D01*
X157Y132D02*
X158Y132D01*
X163Y132D02*
X164Y132D01*
X188Y132D02*
X190Y132D01*
X315Y132D02*
X317Y132D01*
X645Y132D02*
X652Y132D01*
X0Y131D02*
X7Y131D01*
X36Y131D02*
X38Y131D01*
X41Y131D02*
X43Y131D01*
X47Y131D02*
X49Y131D01*
X52Y131D02*
X54Y131D01*
X58Y131D02*
X60Y131D01*
X62Y131D02*
X64Y131D01*
X68Y131D02*
X69Y131D01*
X74Y131D02*
X75Y131D01*
X86Y131D02*
X87Y131D01*
X92Y131D02*
X93Y131D01*
X96Y131D02*
X97Y131D01*
X102Y131D02*
X103Y131D01*
X106Y131D02*
X107Y131D01*
X117Y131D02*
X118Y131D01*
X122Y131D02*
X123Y131D01*
X126Y131D02*
X126Y131D01*
X130Y131D02*
X130Y131D01*
X133Y131D02*
X134Y131D01*
X137Y131D02*
X138Y131D01*
X143Y131D02*
X144Y131D01*
X147Y131D02*
X148Y131D01*
X157Y131D02*
X158Y131D01*
X163Y131D02*
X164Y131D01*
X188Y131D02*
X190Y131D01*
X248Y131D02*
X257Y131D01*
X315Y131D02*
X317Y131D01*
X645Y131D02*
X652Y131D01*
X0Y130D02*
X7Y130D01*
X37Y130D02*
X42Y130D01*
X47Y130D02*
X53Y130D01*
X58Y130D02*
X64Y130D01*
X68Y130D02*
X69Y130D01*
X74Y130D02*
X75Y130D01*
X86Y130D02*
X87Y130D01*
X92Y130D02*
X93Y130D01*
X97Y130D02*
X100Y130D01*
X102Y130D02*
X103Y130D01*
X106Y130D02*
X107Y130D01*
X117Y130D02*
X122Y130D01*
X126Y130D02*
X134Y130D01*
X137Y130D02*
X141Y130D01*
X143Y130D02*
X144Y130D01*
X147Y130D02*
X148Y130D01*
X158Y130D02*
X163Y130D01*
X188Y130D02*
X317Y130D01*
X645Y130D02*
X652Y130D01*
X0Y129D02*
X7Y129D01*
X38Y129D02*
X41Y129D01*
X47Y129D02*
X52Y129D01*
X60Y129D02*
X62Y129D01*
X68Y129D02*
X69Y129D01*
X74Y129D02*
X75Y129D01*
X86Y129D02*
X86Y129D01*
X92Y129D02*
X92Y129D01*
X98Y129D02*
X100Y129D01*
X102Y129D02*
X102Y129D01*
X106Y129D02*
X106Y129D01*
X118Y129D02*
X121Y129D01*
X127Y129D02*
X129Y129D01*
X131Y129D02*
X133Y129D01*
X139Y129D02*
X141Y129D01*
X143Y129D02*
X143Y129D01*
X147Y129D02*
X147Y129D01*
X159Y129D02*
X162Y129D01*
X188Y129D02*
X317Y129D01*
X645Y129D02*
X652Y129D01*
X0Y128D02*
X7Y128D01*
X47Y128D02*
X48Y128D01*
X188Y128D02*
X316Y128D01*
X645Y128D02*
X652Y128D01*
X0Y127D02*
X7Y127D01*
X47Y127D02*
X48Y127D01*
X645Y127D02*
X652Y127D01*
X0Y126D02*
X7Y126D01*
X47Y126D02*
X48Y126D01*
X645Y126D02*
X652Y126D01*
X0Y125D02*
X7Y125D01*
X47Y125D02*
X47Y125D01*
X645Y125D02*
X652Y125D01*
X0Y124D02*
X7Y124D01*
X645Y124D02*
X652Y124D01*
X0Y123D02*
X7Y123D01*
X645Y123D02*
X652Y123D01*
X0Y122D02*
X7Y122D01*
X645Y122D02*
X652Y122D01*
X0Y121D02*
X7Y121D01*
X645Y121D02*
X652Y121D01*
X0Y120D02*
X7Y120D01*
X645Y120D02*
X652Y120D01*
X0Y119D02*
X7Y119D01*
X645Y119D02*
X652Y119D01*
X0Y118D02*
X7Y118D01*
X645Y118D02*
X652Y118D01*
X0Y117D02*
X7Y117D01*
X645Y117D02*
X652Y117D01*
X0Y116D02*
X7Y116D01*
X645Y116D02*
X652Y116D01*
X0Y115D02*
X7Y115D01*
X645Y115D02*
X652Y115D01*
X0Y114D02*
X7Y114D01*
X645Y114D02*
X652Y114D01*
X0Y113D02*
X7Y113D01*
X645Y113D02*
X652Y113D01*
X0Y112D02*
X7Y112D01*
X645Y112D02*
X652Y112D01*
X0Y111D02*
X7Y111D01*
X645Y111D02*
X652Y111D01*
X0Y110D02*
X7Y110D01*
X645Y110D02*
X652Y110D01*
X0Y109D02*
X7Y109D01*
X645Y109D02*
X652Y109D01*
X0Y108D02*
X7Y108D01*
X645Y108D02*
X652Y108D01*
X0Y107D02*
X7Y107D01*
X645Y107D02*
X652Y107D01*
X0Y106D02*
X7Y106D01*
X645Y106D02*
X652Y106D01*
X0Y105D02*
X7Y105D01*
X645Y105D02*
X652Y105D01*
X0Y104D02*
X7Y104D01*
X645Y104D02*
X652Y104D01*
X0Y103D02*
X7Y103D01*
X645Y103D02*
X652Y103D01*
X0Y102D02*
X7Y102D01*
X645Y102D02*
X652Y102D01*
X0Y101D02*
X7Y101D01*
X645Y101D02*
X652Y101D01*
X0Y100D02*
X7Y100D01*
X645Y100D02*
X652Y100D01*
X0Y99D02*
X7Y99D01*
X645Y99D02*
X652Y99D01*
X0Y98D02*
X7Y98D01*
X645Y98D02*
X652Y98D01*
X0Y97D02*
X7Y97D01*
X645Y97D02*
X652Y97D01*
X0Y96D02*
X7Y96D01*
X645Y96D02*
X652Y96D01*
X0Y95D02*
X7Y95D01*
X645Y95D02*
X652Y95D01*
X0Y94D02*
X7Y94D01*
X645Y94D02*
X652Y94D01*
X0Y93D02*
X7Y93D01*
X645Y93D02*
X652Y93D01*
X0Y92D02*
X7Y92D01*
X645Y92D02*
X652Y92D01*
X0Y91D02*
X7Y91D01*
X645Y91D02*
X652Y91D01*
X0Y90D02*
X7Y90D01*
X645Y90D02*
X652Y90D01*
X0Y89D02*
X7Y89D01*
X645Y89D02*
X652Y89D01*
X0Y88D02*
X7Y88D01*
X645Y88D02*
X652Y88D01*
X0Y87D02*
X7Y87D01*
X645Y87D02*
X652Y87D01*
X0Y86D02*
X7Y86D01*
X645Y86D02*
X652Y86D01*
X0Y85D02*
X7Y85D01*
X645Y85D02*
X652Y85D01*
X0Y84D02*
X7Y84D01*
X645Y84D02*
X652Y84D01*
X0Y83D02*
X7Y83D01*
X645Y83D02*
X652Y83D01*
X0Y82D02*
X7Y82D01*
X645Y82D02*
X652Y82D01*
X0Y81D02*
X7Y81D01*
X645Y81D02*
X652Y81D01*
X0Y80D02*
X7Y80D01*
X645Y80D02*
X652Y80D01*
X0Y79D02*
X7Y79D01*
X645Y79D02*
X652Y79D01*
X0Y78D02*
X7Y78D01*
X645Y78D02*
X652Y78D01*
X0Y77D02*
X7Y77D01*
X645Y77D02*
X652Y77D01*
X0Y76D02*
X7Y76D01*
X645Y76D02*
X652Y76D01*
X0Y75D02*
X7Y75D01*
X645Y75D02*
X652Y75D01*
X0Y74D02*
X7Y74D01*
X645Y74D02*
X652Y74D01*
X0Y73D02*
X7Y73D01*
X645Y73D02*
X652Y73D01*
X0Y72D02*
X7Y72D01*
X645Y72D02*
X652Y72D01*
X0Y71D02*
X7Y71D01*
X645Y71D02*
X652Y71D01*
X0Y70D02*
X7Y70D01*
X645Y70D02*
X652Y70D01*
X0Y69D02*
X7Y69D01*
X645Y69D02*
X652Y69D01*
X0Y68D02*
X7Y68D01*
X645Y68D02*
X652Y68D01*
X0Y67D02*
X7Y67D01*
X645Y67D02*
X652Y67D01*
X0Y66D02*
X7Y66D01*
X645Y66D02*
X652Y66D01*
X0Y65D02*
X7Y65D01*
X645Y65D02*
X652Y65D01*
X0Y64D02*
X7Y64D01*
X645Y64D02*
X652Y64D01*
X0Y63D02*
X7Y63D01*
X645Y63D02*
X652Y63D01*
X0Y62D02*
X7Y62D01*
X645Y62D02*
X652Y62D01*
X0Y61D02*
X7Y61D01*
X645Y61D02*
X652Y61D01*
X0Y60D02*
X7Y60D01*
X645Y60D02*
X652Y60D01*
X0Y59D02*
X7Y59D01*
X645Y59D02*
X652Y59D01*
X0Y58D02*
X7Y58D01*
X645Y58D02*
X652Y58D01*
X0Y57D02*
X7Y57D01*
X645Y57D02*
X652Y57D01*
X0Y56D02*
X7Y56D01*
X645Y56D02*
X652Y56D01*
X0Y55D02*
X7Y55D01*
X645Y55D02*
X652Y55D01*
X0Y54D02*
X7Y54D01*
X645Y54D02*
X652Y54D01*
X0Y53D02*
X7Y53D01*
X645Y53D02*
X652Y53D01*
X0Y52D02*
X7Y52D01*
X645Y52D02*
X652Y52D01*
X0Y51D02*
X7Y51D01*
X645Y51D02*
X652Y51D01*
X0Y50D02*
X7Y50D01*
X645Y50D02*
X652Y50D01*
X0Y49D02*
X7Y49D01*
X645Y49D02*
X652Y49D01*
X0Y48D02*
X7Y48D01*
X645Y48D02*
X652Y48D01*
X0Y47D02*
X7Y47D01*
X645Y47D02*
X652Y47D01*
X0Y46D02*
X7Y46D01*
X645Y46D02*
X652Y46D01*
X0Y45D02*
X7Y45D01*
X645Y45D02*
X652Y45D01*
X0Y44D02*
X7Y44D01*
X645Y44D02*
X652Y44D01*
X0Y43D02*
X7Y43D01*
X645Y43D02*
X652Y43D01*
X0Y42D02*
X7Y42D01*
X645Y42D02*
X652Y42D01*
X0Y41D02*
X7Y41D01*
X645Y41D02*
X652Y41D01*
X0Y40D02*
X7Y40D01*
X645Y40D02*
X652Y40D01*
X0Y39D02*
X7Y39D01*
X54Y39D02*
X61Y39D01*
X248Y39D02*
X256Y39D01*
X349Y39D02*
X357Y39D01*
X645Y39D02*
X652Y39D01*
X0Y38D02*
X7Y38D01*
X41Y38D02*
X42Y38D01*
X53Y38D02*
X62Y38D01*
X91Y38D02*
X92Y38D01*
X103Y38D02*
X104Y38D01*
X142Y38D02*
X143Y38D01*
X156Y38D02*
X164Y38D01*
X182Y38D02*
X191Y38D01*
X198Y38D02*
X206Y38D01*
X213Y38D02*
X222Y38D01*
X248Y38D02*
X257Y38D01*
X298Y38D02*
X303Y38D01*
X348Y38D02*
X358Y38D01*
X397Y38D02*
X407Y38D01*
X448Y38D02*
X449Y38D01*
X482Y38D02*
X483Y38D01*
X491Y38D02*
X491Y38D01*
X500Y38D02*
X506Y38D01*
X515Y38D02*
X521Y38D01*
X538Y38D02*
X543Y38D01*
X549Y38D02*
X551Y38D01*
X557Y38D02*
X558Y38D01*
X564Y38D02*
X570Y38D01*
X583Y38D02*
X584Y38D01*
X591Y38D02*
X592Y38D01*
X598Y38D02*
X607Y38D01*
X613Y38D02*
X615Y38D01*
X621Y38D02*
X622Y38D01*
X645Y38D02*
X652Y38D01*
X0Y37D02*
X7Y37D01*
X41Y37D02*
X42Y37D01*
X53Y37D02*
X63Y37D01*
X91Y37D02*
X92Y37D01*
X103Y37D02*
X104Y37D01*
X141Y37D02*
X143Y37D01*
X156Y37D02*
X163Y37D01*
X182Y37D02*
X192Y37D01*
X198Y37D02*
X207Y37D01*
X213Y37D02*
X222Y37D01*
X247Y37D02*
X249Y37D01*
X256Y37D02*
X258Y37D01*
X298Y37D02*
X303Y37D01*
X357Y37D02*
X358Y37D01*
X397Y37D02*
X407Y37D01*
X447Y37D02*
X449Y37D01*
X482Y37D02*
X483Y37D01*
X490Y37D02*
X492Y37D01*
X500Y37D02*
X506Y37D01*
X514Y37D02*
X520Y37D01*
X537Y37D02*
X543Y37D01*
X549Y37D02*
X551Y37D01*
X557Y37D02*
X558Y37D01*
X564Y37D02*
X570Y37D01*
X583Y37D02*
X584Y37D01*
X591Y37D02*
X592Y37D01*
X598Y37D02*
X606Y37D01*
X613Y37D02*
X615Y37D01*
X621Y37D02*
X622Y37D01*
X645Y37D02*
X652Y37D01*
X0Y36D02*
X7Y36D01*
X40Y36D02*
X43Y36D01*
X62Y36D02*
X63Y36D01*
X90Y36D02*
X93Y36D01*
X103Y36D02*
X104Y36D01*
X110Y36D02*
X111Y36D01*
X141Y36D02*
X144Y36D01*
X156Y36D02*
X157Y36D01*
X182Y36D02*
X184Y36D01*
X191Y36D02*
X192Y36D01*
X198Y36D02*
X199Y36D01*
X206Y36D02*
X207Y36D01*
X213Y36D02*
X214Y36D01*
X217Y36D02*
X218Y36D01*
X221Y36D02*
X222Y36D01*
X247Y36D02*
X249Y36D01*
X256Y36D02*
X258Y36D01*
X302Y36D02*
X303Y36D01*
X357Y36D02*
X358Y36D01*
X406Y36D02*
X407Y36D01*
X447Y36D02*
X449Y36D01*
X454Y36D02*
X455Y36D01*
X482Y36D02*
X483Y36D01*
X490Y36D02*
X492Y36D01*
X499Y36D02*
X500Y36D01*
X514Y36D02*
X515Y36D01*
X536Y36D02*
X538Y36D01*
X549Y36D02*
X552Y36D01*
X557Y36D02*
X558Y36D01*
X566Y36D02*
X567Y36D01*
X570Y36D02*
X571Y36D01*
X583Y36D02*
X584Y36D01*
X591Y36D02*
X592Y36D01*
X602Y36D02*
X603Y36D01*
X613Y36D02*
X616Y36D01*
X621Y36D02*
X622Y36D01*
X645Y36D02*
X652Y36D01*
X0Y35D02*
X7Y35D01*
X40Y35D02*
X43Y35D01*
X62Y35D02*
X63Y35D01*
X90Y35D02*
X93Y35D01*
X103Y35D02*
X104Y35D01*
X110Y35D02*
X111Y35D01*
X141Y35D02*
X144Y35D01*
X156Y35D02*
X157Y35D01*
X182Y35D02*
X184Y35D01*
X191Y35D02*
X192Y35D01*
X198Y35D02*
X200Y35D01*
X217Y35D02*
X218Y35D01*
X247Y35D02*
X249Y35D01*
X256Y35D02*
X258Y35D01*
X302Y35D02*
X303Y35D01*
X357Y35D02*
X358Y35D01*
X406Y35D02*
X407Y35D01*
X447Y35D02*
X449Y35D01*
X454Y35D02*
X455Y35D01*
X482Y35D02*
X483Y35D01*
X490Y35D02*
X492Y35D01*
X499Y35D02*
X500Y35D01*
X513Y35D02*
X515Y35D01*
X536Y35D02*
X537Y35D01*
X549Y35D02*
X552Y35D01*
X557Y35D02*
X558Y35D01*
X566Y35D02*
X567Y35D01*
X570Y35D02*
X571Y35D01*
X583Y35D02*
X584Y35D01*
X591Y35D02*
X592Y35D01*
X602Y35D02*
X603Y35D01*
X613Y35D02*
X616Y35D01*
X621Y35D02*
X622Y35D01*
X645Y35D02*
X652Y35D01*
X0Y34D02*
X7Y34D01*
X40Y34D02*
X43Y34D01*
X62Y34D02*
X63Y34D01*
X90Y34D02*
X93Y34D01*
X103Y34D02*
X104Y34D01*
X110Y34D02*
X111Y34D01*
X141Y34D02*
X144Y34D01*
X156Y34D02*
X157Y34D01*
X182Y34D02*
X184Y34D01*
X190Y34D02*
X192Y34D01*
X199Y34D02*
X201Y34D01*
X217Y34D02*
X218Y34D01*
X247Y34D02*
X249Y34D01*
X256Y34D02*
X258Y34D01*
X302Y34D02*
X303Y34D01*
X357Y34D02*
X358Y34D01*
X406Y34D02*
X407Y34D01*
X447Y34D02*
X449Y34D01*
X454Y34D02*
X455Y34D01*
X482Y34D02*
X484Y34D01*
X490Y34D02*
X491Y34D01*
X498Y34D02*
X499Y34D01*
X513Y34D02*
X514Y34D01*
X535Y34D02*
X537Y34D01*
X549Y34D02*
X553Y34D01*
X557Y34D02*
X558Y34D01*
X566Y34D02*
X567Y34D01*
X571Y34D02*
X572Y34D01*
X583Y34D02*
X584Y34D01*
X591Y34D02*
X592Y34D01*
X602Y34D02*
X603Y34D01*
X613Y34D02*
X616Y34D01*
X621Y34D02*
X622Y34D01*
X645Y34D02*
X652Y34D01*
X0Y33D02*
X7Y33D01*
X39Y33D02*
X44Y33D01*
X62Y33D02*
X63Y33D01*
X89Y33D02*
X94Y33D01*
X103Y33D02*
X104Y33D01*
X110Y33D02*
X111Y33D01*
X140Y33D02*
X145Y33D01*
X156Y33D02*
X157Y33D01*
X182Y33D02*
X191Y33D01*
X200Y33D02*
X201Y33D01*
X217Y33D02*
X218Y33D01*
X247Y33D02*
X249Y33D01*
X256Y33D02*
X258Y33D01*
X302Y33D02*
X303Y33D01*
X357Y33D02*
X358Y33D01*
X406Y33D02*
X407Y33D01*
X447Y33D02*
X449Y33D01*
X454Y33D02*
X455Y33D01*
X483Y33D02*
X484Y33D01*
X490Y33D02*
X491Y33D01*
X498Y33D02*
X499Y33D01*
X512Y33D02*
X514Y33D01*
X534Y33D02*
X536Y33D01*
X549Y33D02*
X550Y33D01*
X552Y33D02*
X553Y33D01*
X557Y33D02*
X558Y33D01*
X566Y33D02*
X567Y33D01*
X571Y33D02*
X572Y33D01*
X583Y33D02*
X585Y33D01*
X591Y33D02*
X592Y33D01*
X602Y33D02*
X603Y33D01*
X613Y33D02*
X614Y33D01*
X616Y33D02*
X617Y33D01*
X621Y33D02*
X622Y33D01*
X645Y33D02*
X652Y33D01*
X0Y32D02*
X7Y32D01*
X39Y32D02*
X40Y32D01*
X43Y32D02*
X44Y32D01*
X61Y32D02*
X63Y32D01*
X89Y32D02*
X90Y32D01*
X92Y32D02*
X94Y32D01*
X103Y32D02*
X104Y32D01*
X110Y32D02*
X111Y32D01*
X140Y32D02*
X141Y32D01*
X143Y32D02*
X145Y32D01*
X156Y32D02*
X157Y32D01*
X182Y32D02*
X190Y32D01*
X200Y32D02*
X202Y32D01*
X217Y32D02*
X218Y32D01*
X247Y32D02*
X249Y32D01*
X256Y32D02*
X258Y32D01*
X302Y32D02*
X303Y32D01*
X357Y32D02*
X358Y32D01*
X387Y32D02*
X387Y32D01*
X406Y32D02*
X407Y32D01*
X447Y32D02*
X449Y32D01*
X454Y32D02*
X455Y32D01*
X483Y32D02*
X484Y32D01*
X489Y32D02*
X491Y32D01*
X497Y32D02*
X498Y32D01*
X512Y32D02*
X513Y32D01*
X534Y32D02*
X535Y32D01*
X549Y32D02*
X550Y32D01*
X552Y32D02*
X554Y32D01*
X557Y32D02*
X558Y32D01*
X566Y32D02*
X567Y32D01*
X572Y32D02*
X573Y32D01*
X584Y32D02*
X585Y32D01*
X590Y32D02*
X591Y32D01*
X602Y32D02*
X603Y32D01*
X613Y32D02*
X614Y32D01*
X616Y32D02*
X617Y32D01*
X621Y32D02*
X622Y32D01*
X645Y32D02*
X652Y32D01*
X0Y31D02*
X7Y31D01*
X39Y31D02*
X40Y31D01*
X43Y31D02*
X44Y31D01*
X55Y31D02*
X62Y31D01*
X89Y31D02*
X90Y31D01*
X93Y31D02*
X94Y31D01*
X103Y31D02*
X104Y31D01*
X110Y31D02*
X111Y31D01*
X140Y31D02*
X141Y31D01*
X144Y31D02*
X145Y31D01*
X156Y31D02*
X163Y31D01*
X182Y31D02*
X184Y31D01*
X186Y31D02*
X188Y31D01*
X201Y31D02*
X203Y31D01*
X217Y31D02*
X218Y31D01*
X247Y31D02*
X249Y31D01*
X256Y31D02*
X258Y31D01*
X302Y31D02*
X303Y31D01*
X349Y31D02*
X358Y31D01*
X385Y31D02*
X390Y31D01*
X394Y31D02*
X394Y31D01*
X400Y31D02*
X407Y31D01*
X447Y31D02*
X449Y31D01*
X454Y31D02*
X455Y31D01*
X483Y31D02*
X485Y31D01*
X489Y31D02*
X490Y31D01*
X497Y31D02*
X498Y31D01*
X512Y31D02*
X513Y31D01*
X534Y31D02*
X535Y31D01*
X549Y31D02*
X550Y31D01*
X553Y31D02*
X554Y31D01*
X557Y31D02*
X558Y31D01*
X566Y31D02*
X567Y31D01*
X572Y31D02*
X573Y31D01*
X584Y31D02*
X585Y31D01*
X590Y31D02*
X591Y31D01*
X602Y31D02*
X603Y31D01*
X613Y31D02*
X614Y31D01*
X616Y31D02*
X618Y31D01*
X621Y31D02*
X622Y31D01*
X645Y31D02*
X652Y31D01*
X0Y30D02*
X7Y30D01*
X39Y30D02*
X40Y30D01*
X43Y30D02*
X45Y30D01*
X55Y30D02*
X62Y30D01*
X88Y30D02*
X90Y30D01*
X93Y30D02*
X94Y30D01*
X103Y30D02*
X104Y30D01*
X110Y30D02*
X111Y30D01*
X139Y30D02*
X141Y30D01*
X144Y30D02*
X145Y30D01*
X156Y30D02*
X163Y30D01*
X182Y30D02*
X184Y30D01*
X187Y30D02*
X188Y30D01*
X202Y30D02*
X204Y30D01*
X217Y30D02*
X218Y30D01*
X247Y30D02*
X249Y30D01*
X256Y30D02*
X258Y30D01*
X302Y30D02*
X303Y30D01*
X348Y30D02*
X358Y30D01*
X384Y30D02*
X394Y30D01*
X399Y30D02*
X406Y30D01*
X447Y30D02*
X449Y30D01*
X454Y30D02*
X455Y30D01*
X484Y30D02*
X485Y30D01*
X489Y30D02*
X490Y30D01*
X497Y30D02*
X498Y30D01*
X512Y30D02*
X513Y30D01*
X534Y30D02*
X535Y30D01*
X540Y30D02*
X543Y30D01*
X549Y30D02*
X550Y30D01*
X553Y30D02*
X555Y30D01*
X557Y30D02*
X558Y30D01*
X566Y30D02*
X567Y30D01*
X572Y30D02*
X573Y30D01*
X585Y30D02*
X586Y30D01*
X589Y30D02*
X591Y30D01*
X602Y30D02*
X603Y30D01*
X613Y30D02*
X614Y30D01*
X617Y30D02*
X618Y30D01*
X621Y30D02*
X622Y30D01*
X645Y30D02*
X652Y30D01*
X0Y29D02*
X7Y29D01*
X38Y29D02*
X40Y29D01*
X43Y29D02*
X45Y29D01*
X61Y29D02*
X63Y29D01*
X88Y29D02*
X90Y29D01*
X93Y29D02*
X95Y29D01*
X103Y29D02*
X112Y29D01*
X139Y29D02*
X140Y29D01*
X144Y29D02*
X146Y29D01*
X162Y29D02*
X164Y29D01*
X182Y29D02*
X184Y29D01*
X187Y29D02*
X189Y29D01*
X203Y29D02*
X204Y29D01*
X217Y29D02*
X218Y29D01*
X247Y29D02*
X249Y29D01*
X256Y29D02*
X258Y29D01*
X302Y29D02*
X303Y29D01*
X307Y29D02*
X307Y29D01*
X348Y29D02*
X350Y29D01*
X384Y29D02*
X384Y29D01*
X390Y29D02*
X393Y29D01*
X400Y29D02*
X407Y29D01*
X447Y29D02*
X456Y29D01*
X484Y29D02*
X485Y29D01*
X488Y29D02*
X489Y29D01*
X497Y29D02*
X499Y29D01*
X512Y29D02*
X514Y29D01*
X534Y29D02*
X535Y29D01*
X539Y29D02*
X543Y29D01*
X549Y29D02*
X550Y29D01*
X554Y29D02*
X555Y29D01*
X557Y29D02*
X558Y29D01*
X566Y29D02*
X567Y29D01*
X571Y29D02*
X572Y29D01*
X585Y29D02*
X586Y29D01*
X589Y29D02*
X590Y29D01*
X602Y29D02*
X603Y29D01*
X613Y29D02*
X614Y29D01*
X617Y29D02*
X619Y29D01*
X621Y29D02*
X622Y29D01*
X645Y29D02*
X652Y29D01*
X0Y28D02*
X7Y28D01*
X38Y28D02*
X39Y28D01*
X44Y28D02*
X45Y28D01*
X61Y28D02*
X63Y28D01*
X88Y28D02*
X89Y28D01*
X94Y28D02*
X95Y28D01*
X103Y28D02*
X112Y28D01*
X139Y28D02*
X140Y28D01*
X145Y28D02*
X146Y28D01*
X162Y28D02*
X164Y28D01*
X182Y28D02*
X184Y28D01*
X188Y28D02*
X189Y28D01*
X204Y28D02*
X205Y28D01*
X217Y28D02*
X218Y28D01*
X247Y28D02*
X249Y28D01*
X256Y28D02*
X258Y28D01*
X302Y28D02*
X303Y28D01*
X306Y28D02*
X308Y28D01*
X348Y28D02*
X350Y28D01*
X406Y28D02*
X407Y28D01*
X447Y28D02*
X456Y28D01*
X485Y28D02*
X486Y28D01*
X488Y28D02*
X489Y28D01*
X498Y28D02*
X499Y28D01*
X513Y28D02*
X514Y28D01*
X534Y28D02*
X535Y28D01*
X542Y28D02*
X543Y28D01*
X549Y28D02*
X550Y28D01*
X554Y28D02*
X555Y28D01*
X557Y28D02*
X558Y28D01*
X566Y28D02*
X567Y28D01*
X571Y28D02*
X572Y28D01*
X585Y28D02*
X587Y28D01*
X589Y28D02*
X590Y28D01*
X602Y28D02*
X603Y28D01*
X613Y28D02*
X614Y28D01*
X618Y28D02*
X619Y28D01*
X621Y28D02*
X622Y28D01*
X645Y28D02*
X652Y28D01*
X0Y27D02*
X7Y27D01*
X38Y27D02*
X45Y27D01*
X62Y27D02*
X63Y27D01*
X88Y27D02*
X95Y27D01*
X110Y27D02*
X111Y27D01*
X139Y27D02*
X146Y27D01*
X162Y27D02*
X164Y27D01*
X182Y27D02*
X184Y27D01*
X189Y27D02*
X190Y27D01*
X204Y27D02*
X206Y27D01*
X217Y27D02*
X218Y27D01*
X247Y27D02*
X249Y27D01*
X256Y27D02*
X258Y27D01*
X302Y27D02*
X303Y27D01*
X306Y27D02*
X308Y27D01*
X348Y27D02*
X350Y27D01*
X406Y27D02*
X407Y27D01*
X454Y27D02*
X456Y27D01*
X485Y27D02*
X489Y27D01*
X498Y27D02*
X500Y27D01*
X513Y27D02*
X515Y27D01*
X534Y27D02*
X535Y27D01*
X542Y27D02*
X543Y27D01*
X549Y27D02*
X550Y27D01*
X555Y27D02*
X558Y27D01*
X566Y27D02*
X567Y27D01*
X570Y27D02*
X572Y27D01*
X586Y27D02*
X589Y27D01*
X602Y27D02*
X603Y27D01*
X613Y27D02*
X614Y27D01*
X618Y27D02*
X622Y27D01*
X645Y27D02*
X652Y27D01*
X0Y26D02*
X7Y26D01*
X37Y26D02*
X46Y26D01*
X62Y26D02*
X63Y26D01*
X87Y26D02*
X96Y26D01*
X110Y26D02*
X111Y26D01*
X138Y26D02*
X147Y26D01*
X162Y26D02*
X164Y26D01*
X182Y26D02*
X184Y26D01*
X189Y26D02*
X191Y26D01*
X198Y26D02*
X198Y26D01*
X205Y26D02*
X207Y26D01*
X217Y26D02*
X218Y26D01*
X247Y26D02*
X249Y26D01*
X256Y26D02*
X258Y26D01*
X302Y26D02*
X303Y26D01*
X306Y26D02*
X308Y26D01*
X348Y26D02*
X350Y26D01*
X406Y26D02*
X407Y26D01*
X454Y26D02*
X455Y26D01*
X485Y26D02*
X488Y26D01*
X499Y26D02*
X500Y26D01*
X514Y26D02*
X515Y26D01*
X534Y26D02*
X535Y26D01*
X542Y26D02*
X543Y26D01*
X549Y26D02*
X550Y26D01*
X555Y26D02*
X558Y26D01*
X566Y26D02*
X567Y26D01*
X570Y26D02*
X571Y26D01*
X586Y26D02*
X589Y26D01*
X602Y26D02*
X603Y26D01*
X613Y26D02*
X614Y26D01*
X619Y26D02*
X622Y26D01*
X645Y26D02*
X652Y26D01*
X0Y25D02*
X7Y25D01*
X37Y25D02*
X38Y25D01*
X45Y25D02*
X46Y25D01*
X62Y25D02*
X63Y25D01*
X87Y25D02*
X88Y25D01*
X95Y25D02*
X96Y25D01*
X110Y25D02*
X111Y25D01*
X138Y25D02*
X139Y25D01*
X145Y25D02*
X147Y25D01*
X162Y25D02*
X164Y25D01*
X182Y25D02*
X184Y25D01*
X190Y25D02*
X191Y25D01*
X198Y25D02*
X199Y25D01*
X206Y25D02*
X207Y25D01*
X217Y25D02*
X218Y25D01*
X247Y25D02*
X249Y25D01*
X256Y25D02*
X258Y25D01*
X302Y25D02*
X303Y25D01*
X306Y25D02*
X308Y25D01*
X348Y25D02*
X350Y25D01*
X406Y25D02*
X407Y25D01*
X454Y25D02*
X455Y25D01*
X486Y25D02*
X488Y25D01*
X499Y25D02*
X501Y25D01*
X514Y25D02*
X516Y25D01*
X534Y25D02*
X536Y25D01*
X541Y25D02*
X543Y25D01*
X549Y25D02*
X550Y25D01*
X555Y25D02*
X558Y25D01*
X565Y25D02*
X567Y25D01*
X569Y25D02*
X571Y25D01*
X587Y25D02*
X589Y25D01*
X602Y25D02*
X603Y25D01*
X613Y25D02*
X614Y25D01*
X619Y25D02*
X622Y25D01*
X645Y25D02*
X652Y25D01*
X0Y24D02*
X7Y24D01*
X37Y24D02*
X38Y24D01*
X45Y24D02*
X46Y24D01*
X61Y24D02*
X63Y24D01*
X87Y24D02*
X88Y24D01*
X95Y24D02*
X96Y24D01*
X110Y24D02*
X111Y24D01*
X138Y24D02*
X139Y24D01*
X146Y24D02*
X147Y24D01*
X154Y24D02*
X156Y24D01*
X162Y24D02*
X164Y24D01*
X182Y24D02*
X184Y24D01*
X190Y24D02*
X192Y24D01*
X198Y24D02*
X207Y24D01*
X217Y24D02*
X218Y24D01*
X247Y24D02*
X257Y24D01*
X302Y24D02*
X303Y24D01*
X306Y24D02*
X308Y24D01*
X348Y24D02*
X358Y24D01*
X406Y24D02*
X407Y24D01*
X454Y24D02*
X455Y24D01*
X486Y24D02*
X488Y24D01*
X500Y24D02*
X506Y24D01*
X515Y24D02*
X521Y24D01*
X535Y24D02*
X543Y24D01*
X549Y24D02*
X550Y24D01*
X556Y24D02*
X558Y24D01*
X564Y24D02*
X570Y24D01*
X587Y24D02*
X588Y24D01*
X598Y24D02*
X607Y24D01*
X613Y24D02*
X614Y24D01*
X620Y24D02*
X622Y24D01*
X645Y24D02*
X652Y24D01*
X0Y23D02*
X7Y23D01*
X36Y23D02*
X38Y23D01*
X45Y23D02*
X47Y23D01*
X53Y23D02*
X63Y23D01*
X86Y23D02*
X88Y23D01*
X95Y23D02*
X96Y23D01*
X110Y23D02*
X111Y23D01*
X137Y23D02*
X139Y23D01*
X146Y23D02*
X147Y23D01*
X154Y23D02*
X163Y23D01*
X183Y23D02*
X183Y23D01*
X191Y23D02*
X191Y23D01*
X199Y23D02*
X206Y23D01*
X217Y23D02*
X217Y23D01*
X248Y23D02*
X257Y23D01*
X298Y23D02*
X308Y23D01*
X348Y23D02*
X358Y23D01*
X397Y23D02*
X407Y23D01*
X454Y23D02*
X455Y23D01*
X487Y23D02*
X487Y23D01*
X502Y23D02*
X506Y23D01*
X516Y23D02*
X520Y23D01*
X536Y23D02*
X541Y23D01*
X556Y23D02*
X558Y23D01*
X564Y23D02*
X568Y23D01*
X588Y23D02*
X588Y23D01*
X598Y23D02*
X606Y23D01*
X613Y23D02*
X613Y23D01*
X620Y23D02*
X622Y23D01*
X645Y23D02*
X652Y23D01*
X0Y22D02*
X7Y22D01*
X37Y22D02*
X37Y22D01*
X46Y22D02*
X46Y22D01*
X53Y22D02*
X62Y22D01*
X87Y22D02*
X87Y22D01*
X96Y22D02*
X96Y22D01*
X110Y22D02*
X111Y22D01*
X138Y22D02*
X138Y22D01*
X147Y22D02*
X147Y22D01*
X155Y22D02*
X163Y22D01*
X249Y22D02*
X255Y22D01*
X298Y22D02*
X307Y22D01*
X349Y22D02*
X358Y22D01*
X397Y22D02*
X406Y22D01*
X454Y22D02*
X455Y22D01*
X645Y22D02*
X652Y22D01*
X0Y21D02*
X7Y21D01*
X645Y21D02*
X652Y21D01*
X0Y20D02*
X7Y20D01*
X645Y20D02*
X652Y20D01*
X0Y19D02*
X7Y19D01*
X645Y19D02*
X652Y19D01*
X0Y18D02*
X7Y18D01*
X645Y18D02*
X652Y18D01*
X0Y17D02*
X7Y17D01*
X645Y17D02*
X652Y17D01*
X0Y16D02*
X7Y16D01*
X645Y16D02*
X652Y16D01*
X0Y15D02*
X7Y15D01*
X645Y15D02*
X652Y15D01*
X0Y14D02*
X7Y14D01*
X645Y14D02*
X652Y14D01*
X0Y13D02*
X7Y13D01*
X645Y13D02*
X652Y13D01*
X0Y12D02*
X7Y12D01*
X645Y12D02*
X652Y12D01*
X0Y11D02*
X7Y11D01*
X645Y11D02*
X652Y11D01*
X0Y10D02*
X7Y10D01*
X645Y10D02*
X652Y10D01*
X0Y9D02*
X652Y9D01*
X0Y8D02*
X652Y8D01*
X0Y7D02*
X652Y7D01*
X0Y6D02*
X652Y6D01*
X0Y5D02*
X652Y5D01*
X0Y4D02*
X652Y4D01*
X0Y3D02*
X652Y3D01*
X0Y2D02*
X652Y2D01*
D02*
G04 End of Silk1*
M02*