G04 MADE WITH FRITZING*
G04 WWW.FRITZING.ORG*
G04 DOUBLE SIDED*
G04 HOLES PLATED*
G04 CONTOUR ON CENTER OF CONTOUR VECTOR*
%ASAXBY*%
%FSLAX23Y23*%
%MOIN*%
%OFA0B0*%
%SFA1.0B1.0*%
%ADD10C,0.037165*%
%ADD11C,0.053307*%
%ADD12C,0.048460*%
%ADD13C,0.028661*%
%ADD14R,0.029667X0.023987*%
%ADD15R,0.023987X0.029667*%
%ADD16R,0.029685X0.029685*%
%ADD17R,0.029667X0.019843*%
%ADD18R,0.037559X0.076929*%
%ADD19R,0.017874X0.041496*%
%ADD20R,0.035496X0.011874*%
%ADD21R,0.104488X0.104488*%
%ADD22C,0.010000*%
%LNMASK1*%
G90*
G70*
G54D10*
X165Y189D03*
X221Y246D03*
G54D11*
X46Y119D03*
G54D12*
X47Y63D03*
X97Y63D03*
X147Y63D03*
X197Y63D03*
X247Y63D03*
X297Y63D03*
X347Y63D03*
X397Y63D03*
X447Y63D03*
X497Y63D03*
X547Y63D03*
X597Y63D03*
X44Y396D03*
X94Y396D03*
X144Y396D03*
X194Y396D03*
X244Y396D03*
X294Y396D03*
X344Y396D03*
X394Y396D03*
X444Y396D03*
X494Y396D03*
X544Y396D03*
X594Y396D03*
G54D10*
X376Y213D03*
X499Y153D03*
X543Y287D03*
G54D13*
X71Y175D03*
X71Y276D03*
X41Y313D03*
G54D14*
X36Y245D03*
X35Y275D03*
G54D15*
X72Y349D03*
X42Y349D03*
G54D16*
X585Y305D03*
X585Y341D03*
G54D17*
X585Y257D03*
X585Y281D03*
X585Y310D03*
X585Y334D03*
G54D18*
X475Y291D03*
X428Y291D03*
X381Y291D03*
G54D14*
X71Y204D03*
X70Y234D03*
X339Y215D03*
X339Y185D03*
G54D19*
X240Y142D03*
G54D20*
X270Y171D03*
G54D21*
X193Y218D03*
G54D19*
X224Y142D03*
X209Y142D03*
X193Y142D03*
X177Y142D03*
X161Y142D03*
X146Y142D03*
G54D20*
X270Y187D03*
X270Y203D03*
X270Y218D03*
X270Y234D03*
X270Y250D03*
X270Y266D03*
X116Y171D03*
X116Y187D03*
X116Y203D03*
X116Y218D03*
X116Y234D03*
X116Y250D03*
X116Y266D03*
G54D19*
X240Y295D03*
X224Y295D03*
X209Y295D03*
X193Y295D03*
X177Y295D03*
X161Y295D03*
X146Y295D03*
G54D22*
G36*
X526Y143D02*
X573Y143D01*
X573Y122D01*
X526Y122D01*
X526Y143D01*
G37*
D02*
G36*
X526Y181D02*
X573Y181D01*
X573Y159D01*
X526Y159D01*
X526Y181D01*
G37*
D02*
G36*
X526Y218D02*
X573Y218D01*
X573Y197D01*
X526Y197D01*
X526Y218D01*
G37*
D02*
G36*
X423Y218D02*
X471Y218D01*
X471Y197D01*
X423Y197D01*
X423Y218D01*
G37*
D02*
G36*
X423Y143D02*
X471Y143D01*
X471Y122D01*
X423Y122D01*
X423Y143D01*
G37*
D02*
G36*
X604Y155D02*
X584Y155D01*
X584Y169D01*
X604Y169D01*
X604Y155D01*
G37*
D02*
G36*
X604Y125D02*
X584Y125D01*
X584Y139D01*
X604Y139D01*
X604Y125D01*
G37*
D02*
G36*
X386Y170D02*
X366Y170D01*
X366Y184D01*
X386Y184D01*
X386Y170D01*
G37*
D02*
G36*
X386Y140D02*
X366Y140D01*
X366Y154D01*
X386Y154D01*
X386Y140D01*
G37*
D02*
G04 End of Mask1*
M02*