G04 MADE WITH FRITZING*
G04 WWW.FRITZING.ORG*
G04 DOUBLE SIDED*
G04 HOLES PLATED*
G04 CONTOUR ON CENTER OF CONTOUR VECTOR*
%ASAXBY*%
%FSLAX23Y23*%
%MOIN*%
%OFA0B0*%
%SFA1.0B1.0*%
%ADD10R,0.649606X0.456693X0.633606X0.440693*%
%ADD11C,0.008000*%
%ADD12R,0.001000X0.001000*%
%LNSILK0*%
G90*
G70*
G54D11*
X4Y453D02*
X646Y453D01*
X646Y4D01*
X4Y4D01*
X4Y453D01*
D02*
G36*
X560Y148D02*
X592Y148D01*
X592Y117D01*
X560Y117D01*
X560Y148D01*
G37*
D02*
G36*
X527Y148D02*
X559Y148D01*
X559Y117D01*
X527Y117D01*
X527Y148D01*
G37*
D02*
G36*
X593Y148D02*
X625Y148D01*
X625Y117D01*
X593Y117D01*
X593Y148D01*
G37*
D02*
G36*
X496Y364D02*
X496Y364D01*
X499Y364D01*
X499Y363D01*
X500Y363D01*
X500Y362D01*
X500Y362D01*
X500Y362D01*
X500Y362D01*
X500Y361D01*
X499Y361D01*
X499Y361D01*
X499Y361D01*
X499Y360D01*
X498Y360D01*
X498Y360D01*
X498Y360D01*
X498Y359D01*
X497Y359D01*
X497Y359D01*
X497Y359D01*
X497Y358D01*
X409Y358D01*
X409Y358D01*
X407Y358D01*
X407Y357D01*
X406Y357D01*
X406Y357D01*
X405Y357D01*
X405Y356D01*
X403Y356D01*
X403Y355D01*
X403Y355D01*
X403Y355D01*
X402Y355D01*
X402Y354D01*
X402Y354D01*
X402Y354D01*
X401Y354D01*
X401Y353D01*
X401Y353D01*
X401Y353D01*
X400Y353D01*
X400Y352D01*
X400Y352D01*
X400Y351D01*
X399Y351D01*
X399Y350D01*
X399Y350D01*
X399Y348D01*
X398Y348D01*
X398Y269D01*
X392Y269D01*
X392Y353D01*
X393Y353D01*
X393Y355D01*
X393Y355D01*
X393Y356D01*
X394Y356D01*
X394Y357D01*
X394Y357D01*
X394Y358D01*
X395Y358D01*
X395Y359D01*
X395Y359D01*
X395Y359D01*
X396Y359D01*
X396Y360D01*
X396Y360D01*
X396Y360D01*
X397Y360D01*
X397Y361D01*
X398Y361D01*
X398Y361D01*
X399Y361D01*
X399Y362D01*
X400Y362D01*
X400Y362D01*
X401Y362D01*
X401Y363D01*
X402Y363D01*
X402Y364D01*
X405Y364D01*
X405Y364D01*
X496Y364D01*
G37*
D02*
G36*
X496Y358D02*
X496Y358D01*
X496Y358D01*
X496Y357D01*
X495Y357D01*
X495Y357D01*
X495Y357D01*
X495Y356D01*
X494Y356D01*
X494Y355D01*
X493Y355D01*
X493Y355D01*
X493Y355D01*
X493Y354D01*
X492Y354D01*
X492Y354D01*
X492Y354D01*
X492Y353D01*
X491Y353D01*
X491Y353D01*
X491Y353D01*
X491Y352D01*
X490Y352D01*
X490Y352D01*
X490Y352D01*
X490Y351D01*
X489Y351D01*
X489Y351D01*
X489Y351D01*
X489Y350D01*
X488Y350D01*
X488Y349D01*
X487Y349D01*
X487Y349D01*
X487Y349D01*
X487Y348D01*
X486Y348D01*
X486Y348D01*
X486Y348D01*
X486Y347D01*
X485Y347D01*
X485Y347D01*
X485Y347D01*
X485Y346D01*
X484Y346D01*
X484Y346D01*
X484Y346D01*
X484Y345D01*
X483Y345D01*
X483Y345D01*
X483Y345D01*
X483Y344D01*
X482Y344D01*
X482Y344D01*
X482Y344D01*
X482Y343D01*
X481Y343D01*
X481Y342D01*
X480Y342D01*
X480Y342D01*
X480Y342D01*
X480Y341D01*
X479Y341D01*
X479Y341D01*
X479Y341D01*
X479Y340D01*
X478Y340D01*
X478Y340D01*
X478Y340D01*
X478Y339D01*
X477Y339D01*
X477Y339D01*
X477Y339D01*
X477Y338D01*
X476Y338D01*
X476Y338D01*
X476Y338D01*
X476Y337D01*
X475Y337D01*
X475Y336D01*
X474Y336D01*
X474Y336D01*
X474Y336D01*
X474Y335D01*
X473Y335D01*
X473Y335D01*
X473Y335D01*
X473Y334D01*
X472Y334D01*
X472Y334D01*
X472Y334D01*
X472Y333D01*
X463Y333D01*
X463Y334D01*
X464Y334D01*
X464Y334D01*
X464Y334D01*
X464Y335D01*
X465Y335D01*
X465Y335D01*
X465Y335D01*
X465Y336D01*
X466Y336D01*
X466Y336D01*
X466Y336D01*
X466Y337D01*
X467Y337D01*
X467Y338D01*
X467Y338D01*
X467Y338D01*
X468Y338D01*
X468Y339D01*
X468Y339D01*
X468Y339D01*
X469Y339D01*
X469Y340D01*
X470Y340D01*
X470Y340D01*
X470Y340D01*
X470Y341D01*
X471Y341D01*
X471Y341D01*
X471Y341D01*
X471Y342D01*
X472Y342D01*
X472Y342D01*
X472Y342D01*
X472Y343D01*
X473Y343D01*
X473Y344D01*
X473Y344D01*
X473Y344D01*
X474Y344D01*
X474Y345D01*
X474Y345D01*
X474Y345D01*
X475Y345D01*
X475Y346D01*
X476Y346D01*
X476Y346D01*
X476Y346D01*
X476Y347D01*
X477Y347D01*
X477Y347D01*
X477Y347D01*
X477Y348D01*
X478Y348D01*
X478Y348D01*
X478Y348D01*
X478Y349D01*
X479Y349D01*
X479Y349D01*
X479Y349D01*
X479Y350D01*
X480Y350D01*
X480Y351D01*
X480Y351D01*
X480Y351D01*
X481Y351D01*
X481Y352D01*
X482Y352D01*
X482Y352D01*
X482Y352D01*
X482Y353D01*
X483Y353D01*
X483Y353D01*
X483Y353D01*
X483Y354D01*
X484Y354D01*
X484Y354D01*
X484Y354D01*
X484Y355D01*
X485Y355D01*
X485Y355D01*
X485Y355D01*
X485Y356D01*
X486Y356D01*
X486Y357D01*
X486Y357D01*
X486Y357D01*
X487Y357D01*
X487Y358D01*
X496Y358D01*
G37*
D02*
G36*
X412Y351D02*
X412Y350D01*
X412Y350D01*
X412Y349D01*
X413Y349D01*
X413Y349D01*
X409Y349D01*
X409Y348D01*
X408Y348D01*
X408Y347D01*
X409Y347D01*
X409Y346D01*
X407Y346D01*
X407Y346D01*
X407Y346D01*
X407Y348D01*
X407Y348D01*
X407Y349D01*
X408Y349D01*
X408Y350D01*
X408Y350D01*
X408Y351D01*
X412Y351D01*
G37*
D02*
G36*
X431Y350D02*
X431Y349D01*
X432Y349D01*
X432Y349D01*
X432Y349D01*
X432Y348D01*
X428Y348D01*
X428Y348D01*
X428Y348D01*
X428Y346D01*
X428Y346D01*
X428Y345D01*
X426Y345D01*
X426Y348D01*
X427Y348D01*
X427Y349D01*
X427Y349D01*
X427Y349D01*
X428Y349D01*
X428Y350D01*
X431Y350D01*
G37*
D02*
G36*
X449Y349D02*
X449Y348D01*
X450Y348D01*
X450Y348D01*
X451Y348D01*
X451Y347D01*
X447Y347D01*
X447Y347D01*
X446Y347D01*
X446Y345D01*
X447Y345D01*
X447Y344D01*
X445Y344D01*
X445Y345D01*
X444Y345D01*
X444Y346D01*
X445Y346D01*
X445Y347D01*
X445Y347D01*
X445Y348D01*
X446Y348D01*
X446Y348D01*
X446Y348D01*
X446Y349D01*
X449Y349D01*
G37*
D02*
G36*
X413Y349D02*
X413Y346D01*
X411Y346D01*
X411Y346D01*
X412Y346D01*
X412Y348D01*
X411Y348D01*
X411Y349D01*
X413Y349D01*
G37*
D02*
G36*
X433Y348D02*
X433Y345D01*
X431Y345D01*
X431Y346D01*
X431Y346D01*
X431Y348D01*
X430Y348D01*
X430Y348D01*
X433Y348D01*
G37*
D02*
G36*
X451Y347D02*
X451Y347D01*
X451Y347D01*
X451Y345D01*
X451Y345D01*
X451Y344D01*
X449Y344D01*
X449Y345D01*
X450Y345D01*
X450Y346D01*
X449Y346D01*
X449Y347D01*
X448Y347D01*
X448Y347D01*
X451Y347D01*
G37*
D02*
G36*
X413Y346D02*
X413Y345D01*
X407Y345D01*
X407Y346D01*
X413Y346D01*
G37*
D02*
G36*
X413Y346D02*
X413Y345D01*
X407Y345D01*
X407Y346D01*
X413Y346D01*
G37*
D02*
G36*
X432Y345D02*
X432Y345D01*
X427Y345D01*
X427Y345D01*
X432Y345D01*
G37*
D02*
G36*
X432Y345D02*
X432Y345D01*
X427Y345D01*
X427Y345D01*
X432Y345D01*
G37*
D02*
G36*
X413Y345D02*
X413Y345D01*
X414Y345D01*
X414Y344D01*
X414Y344D01*
X414Y344D01*
X415Y344D01*
X415Y343D01*
X415Y343D01*
X415Y342D01*
X416Y342D01*
X416Y342D01*
X416Y342D01*
X416Y341D01*
X417Y341D01*
X417Y341D01*
X418Y341D01*
X418Y340D01*
X418Y340D01*
X418Y340D01*
X419Y340D01*
X419Y339D01*
X419Y339D01*
X419Y339D01*
X420Y339D01*
X420Y338D01*
X420Y338D01*
X420Y338D01*
X421Y338D01*
X421Y337D01*
X421Y337D01*
X421Y336D01*
X422Y336D01*
X422Y336D01*
X422Y336D01*
X422Y335D01*
X423Y335D01*
X423Y335D01*
X424Y335D01*
X424Y334D01*
X424Y334D01*
X424Y334D01*
X425Y334D01*
X425Y333D01*
X425Y333D01*
X425Y333D01*
X426Y333D01*
X426Y332D01*
X426Y332D01*
X426Y332D01*
X427Y332D01*
X427Y331D01*
X427Y331D01*
X427Y330D01*
X428Y330D01*
X428Y330D01*
X428Y330D01*
X428Y329D01*
X429Y329D01*
X429Y329D01*
X429Y329D01*
X429Y328D01*
X430Y328D01*
X430Y328D01*
X431Y328D01*
X431Y327D01*
X431Y327D01*
X431Y327D01*
X432Y327D01*
X432Y326D01*
X432Y326D01*
X432Y326D01*
X433Y326D01*
X433Y325D01*
X433Y325D01*
X433Y313D01*
X434Y313D01*
X434Y310D01*
X432Y310D01*
X432Y325D01*
X432Y325D01*
X432Y325D01*
X431Y325D01*
X431Y326D01*
X431Y326D01*
X431Y326D01*
X430Y326D01*
X430Y327D01*
X429Y327D01*
X429Y327D01*
X429Y327D01*
X429Y328D01*
X428Y328D01*
X428Y328D01*
X428Y328D01*
X428Y329D01*
X427Y329D01*
X427Y329D01*
X427Y329D01*
X427Y330D01*
X426Y330D01*
X426Y330D01*
X426Y330D01*
X426Y331D01*
X425Y331D01*
X425Y332D01*
X425Y332D01*
X425Y332D01*
X424Y332D01*
X424Y333D01*
X424Y333D01*
X424Y333D01*
X423Y333D01*
X423Y334D01*
X422Y334D01*
X422Y334D01*
X422Y334D01*
X422Y335D01*
X421Y335D01*
X421Y335D01*
X421Y335D01*
X421Y336D01*
X420Y336D01*
X420Y336D01*
X420Y336D01*
X420Y337D01*
X419Y337D01*
X419Y338D01*
X419Y338D01*
X419Y338D01*
X418Y338D01*
X418Y339D01*
X418Y339D01*
X418Y339D01*
X417Y339D01*
X417Y340D01*
X416Y340D01*
X416Y340D01*
X416Y340D01*
X416Y341D01*
X415Y341D01*
X415Y341D01*
X415Y341D01*
X415Y342D01*
X414Y342D01*
X414Y342D01*
X414Y342D01*
X414Y343D01*
X413Y343D01*
X413Y344D01*
X413Y344D01*
X413Y344D01*
X408Y344D01*
X408Y345D01*
X408Y345D01*
X408Y345D01*
X413Y345D01*
G37*
D02*
G36*
X432Y345D02*
X432Y344D01*
X431Y344D01*
X431Y344D01*
X429Y344D01*
X429Y339D01*
X430Y339D01*
X430Y339D01*
X431Y339D01*
X431Y338D01*
X431Y338D01*
X431Y338D01*
X432Y338D01*
X432Y337D01*
X432Y337D01*
X432Y336D01*
X433Y336D01*
X433Y336D01*
X433Y336D01*
X433Y335D01*
X434Y335D01*
X434Y335D01*
X434Y335D01*
X434Y334D01*
X435Y334D01*
X435Y334D01*
X435Y334D01*
X435Y333D01*
X436Y333D01*
X436Y333D01*
X437Y333D01*
X437Y332D01*
X437Y332D01*
X437Y332D01*
X438Y332D01*
X438Y331D01*
X438Y331D01*
X438Y330D01*
X439Y330D01*
X439Y330D01*
X439Y330D01*
X439Y329D01*
X440Y329D01*
X440Y329D01*
X440Y329D01*
X440Y328D01*
X441Y328D01*
X441Y328D01*
X441Y328D01*
X441Y327D01*
X442Y327D01*
X442Y327D01*
X442Y327D01*
X442Y319D01*
X441Y319D01*
X441Y326D01*
X441Y326D01*
X441Y326D01*
X440Y326D01*
X440Y327D01*
X440Y327D01*
X440Y327D01*
X439Y327D01*
X439Y328D01*
X439Y328D01*
X439Y328D01*
X438Y328D01*
X438Y329D01*
X438Y329D01*
X438Y329D01*
X437Y329D01*
X437Y330D01*
X437Y330D01*
X437Y330D01*
X436Y330D01*
X436Y331D01*
X435Y331D01*
X435Y332D01*
X435Y332D01*
X435Y332D01*
X434Y332D01*
X434Y333D01*
X434Y333D01*
X434Y333D01*
X433Y333D01*
X433Y334D01*
X433Y334D01*
X433Y334D01*
X432Y334D01*
X432Y335D01*
X432Y335D01*
X432Y335D01*
X431Y335D01*
X431Y336D01*
X431Y336D01*
X431Y336D01*
X430Y336D01*
X430Y337D01*
X429Y337D01*
X429Y338D01*
X429Y338D01*
X429Y338D01*
X428Y338D01*
X428Y344D01*
X428Y344D01*
X428Y344D01*
X427Y344D01*
X427Y345D01*
X432Y345D01*
G37*
D02*
G36*
X451Y344D02*
X451Y344D01*
X445Y344D01*
X445Y344D01*
X451Y344D01*
G37*
D02*
G36*
X451Y344D02*
X451Y344D01*
X445Y344D01*
X445Y344D01*
X451Y344D01*
G37*
D02*
G36*
X451Y344D02*
X451Y342D01*
X448Y342D01*
X448Y342D01*
X447Y342D01*
X447Y342D01*
X446Y342D01*
X446Y343D01*
X445Y343D01*
X445Y344D01*
X451Y344D01*
G37*
D02*
G36*
X451Y342D02*
X451Y342D01*
X452Y342D01*
X452Y341D01*
X452Y341D01*
X452Y341D01*
X453Y341D01*
X453Y340D01*
X453Y340D01*
X453Y340D01*
X454Y340D01*
X454Y339D01*
X454Y339D01*
X454Y339D01*
X455Y339D01*
X455Y338D01*
X455Y338D01*
X455Y338D01*
X456Y338D01*
X456Y337D01*
X457Y337D01*
X457Y336D01*
X457Y336D01*
X457Y336D01*
X458Y336D01*
X458Y335D01*
X458Y335D01*
X458Y335D01*
X459Y335D01*
X459Y334D01*
X457Y334D01*
X457Y335D01*
X457Y335D01*
X457Y335D01*
X456Y335D01*
X456Y336D01*
X455Y336D01*
X455Y336D01*
X455Y336D01*
X455Y337D01*
X454Y337D01*
X454Y338D01*
X454Y338D01*
X454Y338D01*
X453Y338D01*
X453Y339D01*
X453Y339D01*
X453Y339D01*
X452Y339D01*
X452Y340D01*
X452Y340D01*
X452Y340D01*
X451Y340D01*
X451Y341D01*
X451Y341D01*
X451Y341D01*
X450Y341D01*
X450Y342D01*
X450Y342D01*
X450Y342D01*
X451Y342D01*
G37*
D02*
G36*
X445Y338D02*
X445Y338D01*
X446Y338D01*
X446Y337D01*
X446Y337D01*
X446Y336D01*
X442Y336D01*
X442Y336D01*
X442Y336D01*
X442Y334D01*
X442Y334D01*
X442Y333D01*
X440Y333D01*
X440Y336D01*
X441Y336D01*
X441Y337D01*
X441Y337D01*
X441Y338D01*
X442Y338D01*
X442Y338D01*
X445Y338D01*
G37*
D02*
G36*
X447Y336D02*
X447Y333D01*
X445Y333D01*
X445Y334D01*
X445Y334D01*
X445Y336D01*
X445Y336D01*
X445Y336D01*
X447Y336D01*
G37*
D02*
G36*
X461Y335D02*
X461Y334D01*
X460Y334D01*
X460Y335D01*
X461Y335D01*
G37*
D02*
G36*
X461Y334D02*
X461Y334D01*
X458Y334D01*
X458Y334D01*
X461Y334D01*
G37*
D02*
G36*
X461Y334D02*
X461Y334D01*
X458Y334D01*
X458Y334D01*
X461Y334D01*
G37*
D02*
G36*
X462Y334D02*
X462Y333D01*
X458Y333D01*
X458Y334D01*
X462Y334D01*
G37*
D02*
G36*
X471Y333D02*
X471Y333D01*
X458Y333D01*
X458Y333D01*
X471Y333D01*
G37*
D02*
G36*
X471Y333D02*
X471Y333D01*
X458Y333D01*
X458Y333D01*
X471Y333D01*
G37*
D02*
G36*
X446Y333D02*
X446Y333D01*
X441Y333D01*
X441Y333D01*
X446Y333D01*
G37*
D02*
G36*
X446Y333D02*
X446Y333D01*
X441Y333D01*
X441Y333D01*
X446Y333D01*
G37*
D02*
G36*
X471Y333D02*
X471Y332D01*
X470Y332D01*
X470Y332D01*
X470Y332D01*
X470Y331D01*
X469Y331D01*
X469Y330D01*
X468Y330D01*
X468Y330D01*
X468Y330D01*
X468Y329D01*
X467Y329D01*
X467Y329D01*
X467Y329D01*
X467Y328D01*
X466Y328D01*
X466Y328D01*
X466Y328D01*
X466Y327D01*
X465Y327D01*
X465Y327D01*
X465Y327D01*
X465Y326D01*
X464Y326D01*
X464Y326D01*
X455Y326D01*
X455Y326D01*
X456Y326D01*
X456Y327D01*
X457Y327D01*
X457Y327D01*
X457Y327D01*
X457Y328D01*
X458Y328D01*
X458Y328D01*
X458Y328D01*
X458Y329D01*
X459Y329D01*
X459Y330D01*
X458Y330D01*
X458Y331D01*
X458Y331D01*
X458Y332D01*
X457Y332D01*
X457Y332D01*
X458Y332D01*
X458Y333D01*
X471Y333D01*
G37*
D02*
G36*
X446Y333D02*
X446Y332D01*
X447Y332D01*
X447Y332D01*
X447Y332D01*
X447Y331D01*
X448Y331D01*
X448Y330D01*
X448Y330D01*
X448Y330D01*
X449Y330D01*
X449Y329D01*
X450Y329D01*
X450Y329D01*
X450Y329D01*
X450Y328D01*
X451Y328D01*
X451Y328D01*
X451Y328D01*
X451Y327D01*
X450Y327D01*
X450Y328D01*
X449Y328D01*
X449Y328D01*
X448Y328D01*
X448Y329D01*
X448Y329D01*
X448Y329D01*
X447Y329D01*
X447Y330D01*
X447Y330D01*
X447Y330D01*
X446Y330D01*
X446Y331D01*
X446Y331D01*
X446Y332D01*
X442Y332D01*
X442Y332D01*
X441Y332D01*
X441Y333D01*
X446Y333D01*
G37*
D02*
G36*
X416Y329D02*
X416Y328D01*
X417Y328D01*
X417Y328D01*
X418Y328D01*
X418Y327D01*
X414Y327D01*
X414Y327D01*
X413Y327D01*
X413Y325D01*
X414Y325D01*
X414Y324D01*
X412Y324D01*
X412Y327D01*
X412Y327D01*
X412Y328D01*
X413Y328D01*
X413Y328D01*
X413Y328D01*
X413Y329D01*
X416Y329D01*
G37*
D02*
G36*
X453Y328D02*
X453Y327D01*
X452Y327D01*
X452Y328D01*
X453Y328D01*
G37*
D02*
G36*
X453Y327D02*
X453Y327D01*
X450Y327D01*
X450Y327D01*
X453Y327D01*
G37*
D02*
G36*
X453Y327D02*
X453Y327D01*
X450Y327D01*
X450Y327D01*
X453Y327D01*
G37*
D02*
G36*
X418Y327D02*
X418Y327D01*
X418Y327D01*
X418Y324D01*
X416Y324D01*
X416Y325D01*
X416Y325D01*
X416Y326D01*
X416Y326D01*
X416Y327D01*
X415Y327D01*
X415Y327D01*
X418Y327D01*
G37*
D02*
G36*
X454Y327D02*
X454Y326D01*
X454Y326D01*
X454Y326D01*
X451Y326D01*
X451Y327D01*
X454Y327D01*
G37*
D02*
G36*
X464Y326D02*
X464Y325D01*
X450Y325D01*
X450Y326D01*
X464Y326D01*
G37*
D02*
G36*
X464Y326D02*
X464Y325D01*
X450Y325D01*
X450Y326D01*
X464Y326D01*
G37*
D02*
G36*
X463Y325D02*
X463Y325D01*
X463Y325D01*
X463Y324D01*
X462Y324D01*
X462Y323D01*
X461Y323D01*
X461Y323D01*
X461Y323D01*
X461Y322D01*
X460Y322D01*
X460Y322D01*
X460Y322D01*
X460Y321D01*
X459Y321D01*
X459Y321D01*
X459Y321D01*
X459Y320D01*
X458Y320D01*
X458Y320D01*
X458Y320D01*
X458Y319D01*
X457Y319D01*
X457Y319D01*
X457Y319D01*
X457Y318D01*
X456Y318D01*
X456Y317D01*
X447Y317D01*
X447Y318D01*
X448Y318D01*
X448Y319D01*
X448Y319D01*
X448Y319D01*
X449Y319D01*
X449Y320D01*
X450Y320D01*
X450Y320D01*
X450Y320D01*
X450Y321D01*
X451Y321D01*
X451Y321D01*
X451Y321D01*
X451Y322D01*
X452Y322D01*
X452Y322D01*
X451Y322D01*
X451Y323D01*
X451Y323D01*
X451Y323D01*
X450Y323D01*
X450Y324D01*
X450Y324D01*
X450Y325D01*
X463Y325D01*
G37*
D02*
G36*
X418Y324D02*
X418Y323D01*
X412Y323D01*
X412Y324D01*
X418Y324D01*
G37*
D02*
G36*
X418Y324D02*
X418Y323D01*
X412Y323D01*
X412Y324D01*
X418Y324D01*
G37*
D02*
G36*
X418Y323D02*
X418Y323D01*
X419Y323D01*
X419Y322D01*
X419Y322D01*
X419Y322D01*
X420Y322D01*
X420Y321D01*
X420Y321D01*
X420Y321D01*
X421Y321D01*
X421Y320D01*
X421Y320D01*
X421Y320D01*
X422Y320D01*
X422Y319D01*
X422Y319D01*
X422Y319D01*
X423Y319D01*
X423Y318D01*
X424Y318D01*
X424Y317D01*
X424Y317D01*
X424Y317D01*
X425Y317D01*
X425Y316D01*
X425Y316D01*
X425Y316D01*
X426Y316D01*
X426Y303D01*
X426Y303D01*
X426Y302D01*
X425Y302D01*
X425Y315D01*
X424Y315D01*
X424Y315D01*
X424Y315D01*
X424Y316D01*
X423Y316D01*
X423Y316D01*
X422Y316D01*
X422Y317D01*
X422Y317D01*
X422Y317D01*
X421Y317D01*
X421Y318D01*
X421Y318D01*
X421Y319D01*
X420Y319D01*
X420Y319D01*
X420Y319D01*
X420Y320D01*
X419Y320D01*
X419Y320D01*
X419Y320D01*
X419Y321D01*
X418Y321D01*
X418Y321D01*
X418Y321D01*
X418Y322D01*
X417Y322D01*
X417Y322D01*
X413Y322D01*
X413Y323D01*
X412Y323D01*
X412Y323D01*
X418Y323D01*
G37*
D02*
G36*
X445Y320D02*
X445Y319D01*
X445Y319D01*
X445Y319D01*
X444Y319D01*
X444Y319D01*
X444Y319D01*
X444Y320D01*
X445Y320D01*
G37*
D02*
G36*
X446Y319D02*
X446Y318D01*
X441Y318D01*
X441Y319D01*
X446Y319D01*
G37*
D02*
G36*
X446Y319D02*
X446Y318D01*
X441Y318D01*
X441Y319D01*
X446Y319D01*
G37*
D02*
G36*
X446Y318D02*
X446Y317D01*
X441Y317D01*
X441Y318D01*
X446Y318D01*
G37*
D02*
G36*
X455Y317D02*
X455Y317D01*
X442Y317D01*
X442Y317D01*
X455Y317D01*
G37*
D02*
G36*
X455Y317D02*
X455Y317D01*
X442Y317D01*
X442Y317D01*
X455Y317D01*
G37*
D02*
G36*
X455Y317D02*
X455Y316D01*
X454Y316D01*
X454Y316D01*
X454Y316D01*
X454Y315D01*
X453Y315D01*
X453Y315D01*
X453Y315D01*
X453Y314D01*
X452Y314D01*
X452Y314D01*
X452Y314D01*
X452Y313D01*
X451Y313D01*
X451Y313D01*
X451Y313D01*
X451Y312D01*
X450Y312D01*
X450Y312D01*
X450Y312D01*
X450Y311D01*
X449Y311D01*
X449Y310D01*
X448Y310D01*
X448Y310D01*
X448Y310D01*
X448Y309D01*
X447Y309D01*
X447Y309D01*
X439Y309D01*
X439Y309D01*
X439Y309D01*
X439Y310D01*
X440Y310D01*
X440Y310D01*
X440Y310D01*
X440Y311D01*
X441Y311D01*
X441Y312D01*
X441Y312D01*
X441Y312D01*
X442Y312D01*
X442Y313D01*
X442Y313D01*
X442Y313D01*
X443Y313D01*
X443Y315D01*
X442Y315D01*
X442Y315D01*
X442Y315D01*
X442Y316D01*
X441Y316D01*
X441Y317D01*
X455Y317D01*
G37*
D02*
G36*
X436Y311D02*
X436Y310D01*
X437Y310D01*
X437Y310D01*
X435Y310D01*
X435Y310D01*
X435Y310D01*
X435Y311D01*
X436Y311D01*
G37*
D02*
G36*
X409Y311D02*
X409Y310D01*
X411Y310D01*
X411Y310D01*
X411Y310D01*
X411Y309D01*
X412Y309D01*
X412Y309D01*
X407Y309D01*
X407Y306D01*
X406Y306D01*
X406Y307D01*
X405Y307D01*
X405Y308D01*
X406Y308D01*
X406Y309D01*
X406Y309D01*
X406Y310D01*
X407Y310D01*
X407Y310D01*
X408Y310D01*
X408Y311D01*
X409Y311D01*
G37*
D02*
G36*
X437Y310D02*
X437Y309D01*
X433Y309D01*
X433Y310D01*
X437Y310D01*
G37*
D02*
G36*
X437Y310D02*
X437Y309D01*
X433Y309D01*
X433Y310D01*
X437Y310D01*
G37*
D02*
G36*
X438Y309D02*
X438Y309D01*
X433Y309D01*
X433Y309D01*
X438Y309D01*
G37*
D02*
G36*
X447Y309D02*
X447Y308D01*
X433Y308D01*
X433Y309D01*
X447Y309D01*
G37*
D02*
G36*
X447Y309D02*
X447Y308D01*
X433Y308D01*
X433Y309D01*
X447Y309D01*
G37*
D02*
G36*
X412Y309D02*
X412Y308D01*
X412Y308D01*
X412Y307D01*
X412Y307D01*
X412Y306D01*
X410Y306D01*
X410Y309D01*
X412Y309D01*
G37*
D02*
G36*
X446Y308D02*
X446Y308D01*
X446Y308D01*
X446Y307D01*
X445Y307D01*
X445Y307D01*
X445Y307D01*
X445Y306D01*
X444Y306D01*
X444Y306D01*
X444Y306D01*
X444Y305D01*
X443Y305D01*
X443Y304D01*
X442Y304D01*
X442Y304D01*
X442Y304D01*
X442Y303D01*
X441Y303D01*
X441Y303D01*
X441Y303D01*
X441Y302D01*
X440Y302D01*
X440Y302D01*
X440Y302D01*
X440Y301D01*
X431Y301D01*
X431Y302D01*
X432Y302D01*
X432Y302D01*
X432Y302D01*
X432Y303D01*
X433Y303D01*
X433Y303D01*
X433Y303D01*
X433Y304D01*
X434Y304D01*
X434Y304D01*
X434Y304D01*
X434Y306D01*
X434Y306D01*
X434Y307D01*
X433Y307D01*
X433Y307D01*
X433Y307D01*
X433Y308D01*
X446Y308D01*
G37*
D02*
G36*
X412Y306D02*
X412Y306D01*
X406Y306D01*
X406Y306D01*
X412Y306D01*
G37*
D02*
G36*
X412Y306D02*
X412Y306D01*
X406Y306D01*
X406Y306D01*
X412Y306D01*
G37*
D02*
G36*
X411Y306D02*
X411Y305D01*
X412Y305D01*
X412Y304D01*
X409Y304D01*
X409Y304D01*
X408Y304D01*
X408Y304D01*
X407Y304D01*
X407Y305D01*
X406Y305D01*
X406Y306D01*
X411Y306D01*
G37*
D02*
G36*
X412Y304D02*
X412Y304D01*
X413Y304D01*
X413Y303D01*
X413Y303D01*
X413Y303D01*
X414Y303D01*
X414Y302D01*
X414Y302D01*
X414Y302D01*
X415Y302D01*
X415Y301D01*
X415Y301D01*
X415Y301D01*
X416Y301D01*
X416Y300D01*
X416Y300D01*
X416Y300D01*
X417Y300D01*
X417Y299D01*
X418Y299D01*
X418Y299D01*
X418Y299D01*
X418Y298D01*
X419Y298D01*
X419Y297D01*
X419Y297D01*
X419Y297D01*
X420Y297D01*
X420Y296D01*
X418Y296D01*
X418Y297D01*
X417Y297D01*
X417Y297D01*
X416Y297D01*
X416Y298D01*
X416Y298D01*
X416Y299D01*
X415Y299D01*
X415Y299D01*
X415Y299D01*
X415Y300D01*
X414Y300D01*
X414Y300D01*
X414Y300D01*
X414Y301D01*
X413Y301D01*
X413Y301D01*
X413Y301D01*
X413Y302D01*
X412Y302D01*
X412Y302D01*
X412Y302D01*
X412Y303D01*
X411Y303D01*
X411Y303D01*
X411Y303D01*
X411Y304D01*
X410Y304D01*
X410Y304D01*
X412Y304D01*
G37*
D02*
G36*
X428Y303D02*
X428Y302D01*
X427Y302D01*
X427Y303D01*
X428Y303D01*
G37*
D02*
G36*
X429Y302D02*
X429Y302D01*
X425Y302D01*
X425Y302D01*
X429Y302D01*
G37*
D02*
G36*
X429Y302D02*
X429Y302D01*
X425Y302D01*
X425Y302D01*
X429Y302D01*
G37*
D02*
G36*
X429Y302D02*
X429Y301D01*
X426Y301D01*
X426Y302D01*
X429Y302D01*
G37*
D02*
G36*
X439Y301D02*
X439Y301D01*
X426Y301D01*
X426Y301D01*
X439Y301D01*
G37*
D02*
G36*
X439Y301D02*
X439Y301D01*
X426Y301D01*
X426Y301D01*
X439Y301D01*
G37*
D02*
G36*
X439Y301D02*
X439Y300D01*
X438Y300D01*
X438Y300D01*
X438Y300D01*
X438Y299D01*
X437Y299D01*
X437Y299D01*
X437Y299D01*
X437Y298D01*
X436Y298D01*
X436Y297D01*
X435Y297D01*
X435Y297D01*
X435Y297D01*
X435Y296D01*
X434Y296D01*
X434Y296D01*
X434Y296D01*
X434Y295D01*
X433Y295D01*
X433Y295D01*
X425Y295D01*
X425Y295D01*
X425Y295D01*
X425Y296D01*
X426Y296D01*
X426Y296D01*
X426Y296D01*
X426Y297D01*
X427Y297D01*
X427Y299D01*
X426Y299D01*
X426Y299D01*
X426Y299D01*
X426Y300D01*
X425Y300D01*
X425Y301D01*
X439Y301D01*
G37*
D02*
G36*
X421Y297D02*
X421Y296D01*
X421Y296D01*
X421Y297D01*
X421Y297D01*
G37*
D02*
G36*
X422Y296D02*
X422Y296D01*
X418Y296D01*
X418Y296D01*
X422Y296D01*
G37*
D02*
G36*
X422Y296D02*
X422Y296D01*
X418Y296D01*
X418Y296D01*
X422Y296D01*
G37*
D02*
G36*
X422Y296D02*
X422Y295D01*
X423Y295D01*
X423Y295D01*
X419Y295D01*
X419Y295D01*
X419Y295D01*
X419Y296D01*
X422Y296D01*
G37*
D02*
G36*
X433Y295D02*
X433Y294D01*
X419Y294D01*
X419Y295D01*
X433Y295D01*
G37*
D02*
G36*
X433Y295D02*
X433Y294D01*
X419Y294D01*
X419Y295D01*
X433Y295D01*
G37*
D02*
G36*
X432Y294D02*
X432Y294D01*
X432Y294D01*
X432Y293D01*
X431Y293D01*
X431Y293D01*
X431Y293D01*
X431Y292D01*
X430Y292D01*
X430Y291D01*
X429Y291D01*
X429Y291D01*
X429Y291D01*
X429Y290D01*
X428Y290D01*
X428Y290D01*
X428Y290D01*
X428Y289D01*
X427Y289D01*
X427Y289D01*
X427Y289D01*
X427Y288D01*
X426Y288D01*
X426Y288D01*
X426Y288D01*
X426Y287D01*
X425Y287D01*
X425Y287D01*
X425Y287D01*
X425Y286D01*
X424Y286D01*
X424Y286D01*
X424Y286D01*
X424Y285D01*
X423Y285D01*
X423Y284D01*
X422Y284D01*
X422Y284D01*
X422Y284D01*
X422Y283D01*
X421Y283D01*
X421Y283D01*
X421Y283D01*
X421Y282D01*
X420Y282D01*
X420Y282D01*
X420Y282D01*
X420Y281D01*
X419Y281D01*
X419Y281D01*
X419Y281D01*
X419Y280D01*
X418Y280D01*
X418Y280D01*
X418Y280D01*
X418Y279D01*
X417Y279D01*
X417Y278D01*
X416Y278D01*
X416Y278D01*
X416Y278D01*
X416Y277D01*
X415Y277D01*
X415Y277D01*
X415Y277D01*
X415Y276D01*
X414Y276D01*
X414Y276D01*
X414Y276D01*
X414Y275D01*
X413Y275D01*
X413Y275D01*
X413Y275D01*
X413Y274D01*
X412Y274D01*
X412Y274D01*
X412Y274D01*
X412Y273D01*
X411Y273D01*
X411Y273D01*
X411Y273D01*
X411Y272D01*
X410Y272D01*
X410Y271D01*
X409Y271D01*
X409Y271D01*
X409Y271D01*
X409Y270D01*
X408Y270D01*
X408Y270D01*
X408Y270D01*
X408Y269D01*
X407Y269D01*
X407Y269D01*
X399Y269D01*
X399Y269D01*
X399Y269D01*
X399Y270D01*
X400Y270D01*
X400Y270D01*
X400Y270D01*
X400Y271D01*
X401Y271D01*
X401Y271D01*
X401Y271D01*
X401Y272D01*
X402Y272D01*
X402Y273D01*
X402Y273D01*
X402Y273D01*
X403Y273D01*
X403Y274D01*
X403Y274D01*
X403Y274D01*
X404Y274D01*
X404Y275D01*
X405Y275D01*
X405Y275D01*
X405Y275D01*
X405Y276D01*
X406Y276D01*
X406Y276D01*
X406Y276D01*
X406Y277D01*
X407Y277D01*
X407Y277D01*
X407Y277D01*
X407Y278D01*
X408Y278D01*
X408Y278D01*
X408Y278D01*
X408Y279D01*
X409Y279D01*
X409Y280D01*
X409Y280D01*
X409Y280D01*
X410Y280D01*
X410Y281D01*
X411Y281D01*
X411Y281D01*
X411Y281D01*
X411Y282D01*
X412Y282D01*
X412Y282D01*
X412Y282D01*
X412Y283D01*
X413Y283D01*
X413Y283D01*
X413Y283D01*
X413Y284D01*
X414Y284D01*
X414Y284D01*
X414Y284D01*
X414Y285D01*
X415Y285D01*
X415Y286D01*
X415Y286D01*
X415Y286D01*
X416Y286D01*
X416Y287D01*
X416Y287D01*
X416Y287D01*
X417Y287D01*
X417Y288D01*
X418Y288D01*
X418Y288D01*
X418Y288D01*
X418Y289D01*
X419Y289D01*
X419Y289D01*
X419Y289D01*
X419Y290D01*
X420Y290D01*
X420Y290D01*
X420Y290D01*
X420Y291D01*
X420Y291D01*
X420Y292D01*
X419Y292D01*
X419Y293D01*
X419Y293D01*
X419Y293D01*
X418Y293D01*
X418Y294D01*
X432Y294D01*
G37*
D02*
G36*
X407Y269D02*
X407Y268D01*
X392Y268D01*
X392Y269D01*
X407Y269D01*
G37*
D02*
G36*
X407Y269D02*
X407Y268D01*
X392Y268D01*
X392Y269D01*
X407Y269D01*
G37*
D02*
G36*
X406Y268D02*
X406Y268D01*
X406Y268D01*
X406Y267D01*
X405Y267D01*
X405Y267D01*
X405Y267D01*
X405Y266D01*
X404Y266D01*
X404Y265D01*
X403Y265D01*
X403Y265D01*
X403Y265D01*
X403Y264D01*
X402Y264D01*
X402Y264D01*
X402Y264D01*
X402Y263D01*
X401Y263D01*
X401Y263D01*
X401Y263D01*
X401Y262D01*
X400Y262D01*
X400Y262D01*
X400Y262D01*
X400Y261D01*
X399Y261D01*
X399Y261D01*
X399Y261D01*
X399Y260D01*
X398Y260D01*
X398Y260D01*
X398Y260D01*
X398Y259D01*
X397Y259D01*
X397Y258D01*
X396Y258D01*
X396Y258D01*
X396Y258D01*
X396Y257D01*
X395Y257D01*
X395Y257D01*
X395Y257D01*
X395Y256D01*
X394Y256D01*
X394Y256D01*
X394Y256D01*
X394Y255D01*
X393Y255D01*
X393Y256D01*
X393Y256D01*
X393Y258D01*
X392Y258D01*
X392Y268D01*
X406Y268D01*
G37*
D02*
G36*
X508Y355D02*
X508Y355D01*
X508Y355D01*
X508Y354D01*
X509Y354D01*
X509Y351D01*
X509Y351D01*
X509Y342D01*
X502Y342D01*
X502Y341D01*
X502Y341D01*
X502Y341D01*
X501Y341D01*
X501Y340D01*
X500Y340D01*
X500Y340D01*
X500Y340D01*
X500Y339D01*
X499Y339D01*
X499Y339D01*
X499Y339D01*
X499Y338D01*
X498Y338D01*
X498Y338D01*
X498Y338D01*
X498Y337D01*
X497Y337D01*
X497Y336D01*
X497Y336D01*
X497Y336D01*
X496Y336D01*
X496Y335D01*
X496Y335D01*
X496Y335D01*
X495Y335D01*
X495Y334D01*
X495Y334D01*
X495Y334D01*
X494Y334D01*
X494Y333D01*
X493Y333D01*
X493Y333D01*
X493Y333D01*
X493Y332D01*
X492Y332D01*
X492Y332D01*
X492Y332D01*
X492Y331D01*
X491Y331D01*
X491Y330D01*
X491Y330D01*
X491Y330D01*
X490Y330D01*
X490Y329D01*
X490Y329D01*
X490Y329D01*
X489Y329D01*
X489Y328D01*
X489Y328D01*
X489Y328D01*
X488Y328D01*
X488Y327D01*
X487Y327D01*
X487Y327D01*
X487Y327D01*
X487Y326D01*
X486Y326D01*
X486Y326D01*
X486Y326D01*
X486Y325D01*
X485Y325D01*
X485Y325D01*
X485Y325D01*
X485Y324D01*
X484Y324D01*
X484Y323D01*
X484Y323D01*
X484Y323D01*
X483Y323D01*
X483Y322D01*
X483Y322D01*
X483Y322D01*
X482Y322D01*
X482Y321D01*
X482Y321D01*
X482Y321D01*
X481Y321D01*
X481Y320D01*
X480Y320D01*
X480Y319D01*
X481Y319D01*
X481Y319D01*
X482Y319D01*
X482Y318D01*
X482Y318D01*
X482Y317D01*
X483Y317D01*
X483Y316D01*
X477Y316D01*
X477Y316D01*
X476Y316D01*
X476Y315D01*
X476Y315D01*
X476Y315D01*
X475Y315D01*
X475Y314D01*
X474Y314D01*
X474Y314D01*
X474Y314D01*
X474Y313D01*
X474Y313D01*
X474Y312D01*
X475Y312D01*
X475Y312D01*
X476Y312D01*
X476Y311D01*
X476Y311D01*
X476Y310D01*
X476Y310D01*
X476Y310D01*
X470Y310D01*
X470Y309D01*
X470Y309D01*
X470Y309D01*
X469Y309D01*
X469Y308D01*
X468Y308D01*
X468Y308D01*
X468Y308D01*
X468Y307D01*
X467Y307D01*
X467Y307D01*
X467Y307D01*
X467Y306D01*
X466Y306D01*
X466Y305D01*
X467Y305D01*
X467Y304D01*
X467Y304D01*
X467Y304D01*
X468Y304D01*
X468Y303D01*
X468Y303D01*
X468Y303D01*
X468Y303D01*
X468Y302D01*
X463Y302D01*
X463Y302D01*
X462Y302D01*
X462Y301D01*
X461Y301D01*
X461Y301D01*
X461Y301D01*
X461Y300D01*
X460Y300D01*
X460Y300D01*
X460Y300D01*
X460Y299D01*
X459Y299D01*
X459Y299D01*
X459Y299D01*
X459Y298D01*
X458Y298D01*
X458Y297D01*
X458Y297D01*
X458Y296D01*
X458Y296D01*
X458Y296D01*
X459Y296D01*
X459Y295D01*
X459Y295D01*
X459Y295D01*
X460Y295D01*
X460Y294D01*
X459Y294D01*
X459Y294D01*
X454Y294D01*
X454Y293D01*
X453Y293D01*
X453Y293D01*
X453Y293D01*
X453Y292D01*
X452Y292D01*
X452Y291D01*
X452Y291D01*
X452Y291D01*
X451Y291D01*
X451Y290D01*
X451Y290D01*
X451Y290D01*
X450Y290D01*
X450Y289D01*
X450Y289D01*
X450Y288D01*
X450Y288D01*
X450Y287D01*
X451Y287D01*
X451Y287D01*
X451Y287D01*
X451Y286D01*
X451Y286D01*
X451Y285D01*
X445Y285D01*
X445Y284D01*
X445Y284D01*
X445Y284D01*
X444Y284D01*
X444Y283D01*
X444Y283D01*
X444Y283D01*
X443Y283D01*
X443Y282D01*
X442Y282D01*
X442Y282D01*
X442Y282D01*
X442Y281D01*
X442Y281D01*
X442Y280D01*
X443Y280D01*
X443Y280D01*
X444Y280D01*
X444Y278D01*
X443Y278D01*
X443Y278D01*
X438Y278D01*
X438Y277D01*
X438Y277D01*
X438Y277D01*
X437Y277D01*
X437Y276D01*
X437Y276D01*
X437Y276D01*
X436Y276D01*
X436Y275D01*
X435Y275D01*
X435Y275D01*
X435Y275D01*
X435Y274D01*
X434Y274D01*
X434Y274D01*
X434Y274D01*
X434Y273D01*
X433Y273D01*
X433Y273D01*
X433Y273D01*
X433Y272D01*
X432Y272D01*
X432Y271D01*
X432Y271D01*
X432Y271D01*
X431Y271D01*
X431Y270D01*
X431Y270D01*
X431Y270D01*
X430Y270D01*
X430Y269D01*
X429Y269D01*
X429Y269D01*
X429Y269D01*
X429Y268D01*
X428Y268D01*
X428Y268D01*
X428Y268D01*
X428Y267D01*
X427Y267D01*
X427Y267D01*
X427Y267D01*
X427Y266D01*
X426Y266D01*
X426Y265D01*
X426Y265D01*
X426Y265D01*
X425Y265D01*
X425Y264D01*
X425Y264D01*
X425Y264D01*
X424Y264D01*
X424Y263D01*
X424Y263D01*
X424Y263D01*
X423Y263D01*
X423Y262D01*
X422Y262D01*
X422Y262D01*
X422Y262D01*
X422Y261D01*
X421Y261D01*
X421Y261D01*
X421Y261D01*
X421Y260D01*
X420Y260D01*
X420Y260D01*
X420Y260D01*
X420Y259D01*
X419Y259D01*
X419Y258D01*
X419Y258D01*
X419Y258D01*
X418Y258D01*
X418Y257D01*
X418Y257D01*
X418Y257D01*
X417Y257D01*
X417Y256D01*
X416Y256D01*
X416Y256D01*
X416Y256D01*
X416Y255D01*
X415Y255D01*
X415Y255D01*
X415Y255D01*
X415Y254D01*
X414Y254D01*
X414Y254D01*
X414Y254D01*
X414Y253D01*
X405Y253D01*
X405Y254D01*
X406Y254D01*
X406Y254D01*
X406Y254D01*
X406Y255D01*
X407Y255D01*
X407Y255D01*
X407Y255D01*
X407Y256D01*
X408Y256D01*
X408Y256D01*
X408Y256D01*
X408Y257D01*
X409Y257D01*
X409Y257D01*
X409Y257D01*
X409Y258D01*
X410Y258D01*
X410Y258D01*
X411Y258D01*
X411Y259D01*
X411Y259D01*
X411Y260D01*
X412Y260D01*
X412Y260D01*
X412Y260D01*
X412Y261D01*
X413Y261D01*
X413Y261D01*
X413Y261D01*
X413Y262D01*
X414Y262D01*
X414Y262D01*
X414Y262D01*
X414Y263D01*
X415Y263D01*
X415Y263D01*
X415Y263D01*
X415Y264D01*
X416Y264D01*
X416Y264D01*
X416Y264D01*
X416Y265D01*
X417Y265D01*
X417Y265D01*
X418Y265D01*
X418Y266D01*
X418Y266D01*
X418Y267D01*
X419Y267D01*
X419Y267D01*
X419Y267D01*
X419Y268D01*
X420Y268D01*
X420Y268D01*
X420Y268D01*
X420Y269D01*
X421Y269D01*
X421Y269D01*
X421Y269D01*
X421Y270D01*
X422Y270D01*
X422Y270D01*
X422Y270D01*
X422Y271D01*
X423Y271D01*
X423Y271D01*
X424Y271D01*
X424Y272D01*
X424Y272D01*
X424Y273D01*
X425Y273D01*
X425Y273D01*
X425Y273D01*
X425Y274D01*
X426Y274D01*
X426Y274D01*
X426Y274D01*
X426Y275D01*
X427Y275D01*
X427Y275D01*
X427Y275D01*
X427Y276D01*
X428Y276D01*
X428Y276D01*
X428Y276D01*
X428Y277D01*
X429Y277D01*
X429Y277D01*
X429Y277D01*
X429Y278D01*
X430Y278D01*
X430Y278D01*
X431Y278D01*
X431Y279D01*
X431Y279D01*
X431Y280D01*
X432Y280D01*
X432Y280D01*
X432Y280D01*
X432Y281D01*
X433Y281D01*
X433Y281D01*
X433Y281D01*
X433Y282D01*
X434Y282D01*
X434Y282D01*
X434Y282D01*
X434Y283D01*
X435Y283D01*
X435Y283D01*
X435Y283D01*
X435Y284D01*
X436Y284D01*
X436Y284D01*
X437Y284D01*
X437Y285D01*
X437Y285D01*
X437Y286D01*
X438Y286D01*
X438Y286D01*
X438Y286D01*
X438Y287D01*
X439Y287D01*
X439Y287D01*
X439Y287D01*
X439Y288D01*
X440Y288D01*
X440Y288D01*
X440Y288D01*
X440Y289D01*
X441Y289D01*
X441Y289D01*
X441Y289D01*
X441Y290D01*
X442Y290D01*
X442Y290D01*
X442Y290D01*
X442Y291D01*
X443Y291D01*
X443Y291D01*
X444Y291D01*
X444Y292D01*
X444Y292D01*
X444Y293D01*
X445Y293D01*
X445Y293D01*
X445Y293D01*
X445Y294D01*
X446Y294D01*
X446Y294D01*
X446Y294D01*
X446Y295D01*
X447Y295D01*
X447Y295D01*
X447Y295D01*
X447Y296D01*
X448Y296D01*
X448Y296D01*
X448Y296D01*
X448Y297D01*
X449Y297D01*
X449Y297D01*
X450Y297D01*
X450Y298D01*
X450Y298D01*
X450Y299D01*
X451Y299D01*
X451Y299D01*
X451Y299D01*
X451Y300D01*
X452Y300D01*
X452Y300D01*
X452Y300D01*
X452Y301D01*
X453Y301D01*
X453Y301D01*
X453Y301D01*
X453Y302D01*
X454Y302D01*
X454Y302D01*
X454Y302D01*
X454Y303D01*
X455Y303D01*
X455Y303D01*
X455Y303D01*
X455Y304D01*
X456Y304D01*
X456Y304D01*
X457Y304D01*
X457Y305D01*
X457Y305D01*
X457Y306D01*
X458Y306D01*
X458Y306D01*
X458Y306D01*
X458Y307D01*
X459Y307D01*
X459Y307D01*
X459Y307D01*
X459Y308D01*
X460Y308D01*
X460Y308D01*
X460Y308D01*
X460Y309D01*
X461Y309D01*
X461Y309D01*
X461Y309D01*
X461Y310D01*
X462Y310D01*
X462Y310D01*
X463Y310D01*
X463Y311D01*
X463Y311D01*
X463Y312D01*
X464Y312D01*
X464Y312D01*
X464Y312D01*
X464Y313D01*
X465Y313D01*
X465Y313D01*
X465Y313D01*
X465Y314D01*
X466Y314D01*
X466Y314D01*
X466Y314D01*
X466Y315D01*
X467Y315D01*
X467Y315D01*
X467Y315D01*
X467Y316D01*
X468Y316D01*
X468Y316D01*
X468Y316D01*
X468Y317D01*
X469Y317D01*
X469Y317D01*
X470Y317D01*
X470Y318D01*
X470Y318D01*
X470Y319D01*
X471Y319D01*
X471Y319D01*
X471Y319D01*
X471Y320D01*
X472Y320D01*
X472Y320D01*
X472Y320D01*
X472Y321D01*
X473Y321D01*
X473Y321D01*
X473Y321D01*
X473Y322D01*
X474Y322D01*
X474Y322D01*
X474Y322D01*
X474Y323D01*
X475Y323D01*
X475Y323D01*
X476Y323D01*
X476Y324D01*
X476Y324D01*
X476Y325D01*
X477Y325D01*
X477Y325D01*
X477Y325D01*
X477Y326D01*
X478Y326D01*
X478Y326D01*
X478Y326D01*
X478Y327D01*
X479Y327D01*
X479Y327D01*
X479Y327D01*
X479Y328D01*
X480Y328D01*
X480Y328D01*
X480Y328D01*
X480Y329D01*
X481Y329D01*
X481Y329D01*
X482Y329D01*
X482Y330D01*
X482Y330D01*
X482Y330D01*
X483Y330D01*
X483Y331D01*
X483Y331D01*
X483Y332D01*
X484Y332D01*
X484Y332D01*
X484Y332D01*
X484Y333D01*
X485Y333D01*
X485Y333D01*
X485Y333D01*
X485Y334D01*
X486Y334D01*
X486Y334D01*
X486Y334D01*
X486Y335D01*
X487Y335D01*
X487Y335D01*
X487Y335D01*
X487Y336D01*
X488Y336D01*
X488Y336D01*
X489Y336D01*
X489Y337D01*
X489Y337D01*
X489Y338D01*
X490Y338D01*
X490Y338D01*
X490Y338D01*
X490Y339D01*
X491Y339D01*
X491Y339D01*
X491Y339D01*
X491Y340D01*
X492Y340D01*
X492Y340D01*
X492Y340D01*
X492Y341D01*
X493Y341D01*
X493Y341D01*
X493Y341D01*
X493Y342D01*
X494Y342D01*
X494Y342D01*
X495Y342D01*
X495Y343D01*
X495Y343D01*
X495Y344D01*
X496Y344D01*
X496Y344D01*
X496Y344D01*
X496Y345D01*
X497Y345D01*
X497Y345D01*
X497Y345D01*
X497Y346D01*
X498Y346D01*
X498Y346D01*
X498Y346D01*
X498Y347D01*
X499Y347D01*
X499Y347D01*
X499Y347D01*
X499Y348D01*
X500Y348D01*
X500Y348D01*
X500Y348D01*
X500Y349D01*
X501Y349D01*
X501Y349D01*
X502Y349D01*
X502Y350D01*
X502Y350D01*
X502Y351D01*
X503Y351D01*
X503Y351D01*
X503Y351D01*
X503Y352D01*
X504Y352D01*
X504Y352D01*
X504Y352D01*
X504Y353D01*
X505Y353D01*
X505Y353D01*
X505Y353D01*
X505Y354D01*
X506Y354D01*
X506Y354D01*
X506Y354D01*
X506Y355D01*
X507Y355D01*
X507Y355D01*
X508Y355D01*
G37*
D02*
G36*
X509Y342D02*
X509Y260D01*
X509Y260D01*
X509Y257D01*
X508Y257D01*
X508Y256D01*
X508Y256D01*
X508Y255D01*
X507Y255D01*
X507Y254D01*
X506Y254D01*
X506Y253D01*
X493Y253D01*
X493Y254D01*
X495Y254D01*
X495Y254D01*
X496Y254D01*
X496Y255D01*
X497Y255D01*
X497Y255D01*
X498Y255D01*
X498Y256D01*
X498Y256D01*
X498Y256D01*
X499Y256D01*
X499Y257D01*
X499Y257D01*
X499Y257D01*
X500Y257D01*
X500Y258D01*
X500Y258D01*
X500Y258D01*
X501Y258D01*
X501Y260D01*
X502Y260D01*
X502Y261D01*
X502Y261D01*
X502Y262D01*
X503Y262D01*
X503Y264D01*
X503Y264D01*
X503Y342D01*
X509Y342D01*
G37*
D02*
G36*
X482Y316D02*
X482Y315D01*
X480Y315D01*
X480Y314D01*
X479Y314D01*
X479Y315D01*
X479Y315D01*
X479Y315D01*
X478Y315D01*
X478Y316D01*
X478Y316D01*
X478Y316D01*
X482Y316D01*
G37*
D02*
G36*
X483Y315D02*
X483Y314D01*
X483Y314D01*
X483Y314D01*
X484Y314D01*
X484Y313D01*
X484Y313D01*
X484Y313D01*
X485Y313D01*
X485Y312D01*
X485Y312D01*
X485Y312D01*
X486Y312D01*
X486Y311D01*
X486Y311D01*
X486Y310D01*
X487Y310D01*
X487Y310D01*
X487Y310D01*
X487Y309D01*
X488Y309D01*
X488Y309D01*
X489Y309D01*
X489Y308D01*
X489Y308D01*
X489Y308D01*
X490Y308D01*
X490Y307D01*
X490Y307D01*
X490Y307D01*
X494Y307D01*
X494Y306D01*
X495Y306D01*
X495Y306D01*
X495Y306D01*
X495Y305D01*
X491Y305D01*
X491Y304D01*
X491Y304D01*
X491Y302D01*
X491Y302D01*
X491Y302D01*
X489Y302D01*
X489Y305D01*
X490Y305D01*
X490Y306D01*
X489Y306D01*
X489Y307D01*
X489Y307D01*
X489Y307D01*
X488Y307D01*
X488Y308D01*
X487Y308D01*
X487Y308D01*
X487Y308D01*
X487Y309D01*
X486Y309D01*
X486Y309D01*
X486Y309D01*
X486Y310D01*
X485Y310D01*
X485Y310D01*
X485Y310D01*
X485Y311D01*
X484Y311D01*
X484Y312D01*
X484Y312D01*
X484Y312D01*
X483Y312D01*
X483Y313D01*
X483Y313D01*
X483Y313D01*
X482Y313D01*
X482Y314D01*
X482Y314D01*
X482Y314D01*
X481Y314D01*
X481Y315D01*
X483Y315D01*
G37*
D02*
G36*
X475Y310D02*
X475Y309D01*
X476Y309D01*
X476Y309D01*
X476Y309D01*
X476Y308D01*
X473Y308D01*
X473Y308D01*
X472Y308D01*
X472Y308D01*
X472Y308D01*
X472Y309D01*
X471Y309D01*
X471Y309D01*
X471Y309D01*
X471Y310D01*
X475Y310D01*
G37*
D02*
G36*
X476Y308D02*
X476Y296D01*
X477Y296D01*
X477Y295D01*
X477Y295D01*
X477Y295D01*
X478Y295D01*
X478Y294D01*
X478Y294D01*
X478Y294D01*
X479Y294D01*
X479Y293D01*
X479Y293D01*
X479Y293D01*
X480Y293D01*
X480Y292D01*
X480Y292D01*
X480Y291D01*
X481Y291D01*
X481Y291D01*
X482Y291D01*
X482Y290D01*
X482Y290D01*
X482Y290D01*
X483Y290D01*
X483Y289D01*
X483Y289D01*
X483Y289D01*
X484Y289D01*
X484Y288D01*
X482Y288D01*
X482Y289D01*
X482Y289D01*
X482Y289D01*
X481Y289D01*
X481Y290D01*
X480Y290D01*
X480Y290D01*
X480Y290D01*
X480Y291D01*
X479Y291D01*
X479Y291D01*
X479Y291D01*
X479Y292D01*
X478Y292D01*
X478Y293D01*
X478Y293D01*
X478Y293D01*
X477Y293D01*
X477Y294D01*
X477Y294D01*
X477Y294D01*
X476Y294D01*
X476Y295D01*
X476Y295D01*
X476Y295D01*
X475Y295D01*
X475Y308D01*
X476Y308D01*
G37*
D02*
G36*
X496Y305D02*
X496Y302D01*
X493Y302D01*
X493Y302D01*
X494Y302D01*
X494Y304D01*
X493Y304D01*
X493Y304D01*
X493Y304D01*
X493Y305D01*
X496Y305D01*
G37*
D02*
G36*
X467Y302D02*
X467Y302D01*
X468Y302D01*
X468Y301D01*
X468Y301D01*
X468Y301D01*
X466Y301D01*
X466Y300D01*
X465Y300D01*
X465Y301D01*
X464Y301D01*
X464Y301D01*
X464Y301D01*
X464Y302D01*
X463Y302D01*
X463Y302D01*
X467Y302D01*
G37*
D02*
G36*
X495Y302D02*
X495Y301D01*
X490Y301D01*
X490Y302D01*
X495Y302D01*
G37*
D02*
G36*
X495Y302D02*
X495Y301D01*
X490Y301D01*
X490Y302D01*
X495Y302D01*
G37*
D02*
G36*
X495Y301D02*
X495Y301D01*
X494Y301D01*
X494Y300D01*
X491Y300D01*
X491Y301D01*
X490Y301D01*
X490Y301D01*
X495Y301D01*
G37*
D02*
G36*
X468Y301D02*
X468Y287D01*
X469Y287D01*
X469Y286D01*
X470Y286D01*
X470Y286D01*
X470Y286D01*
X470Y285D01*
X471Y285D01*
X471Y284D01*
X471Y284D01*
X471Y284D01*
X472Y284D01*
X472Y283D01*
X472Y283D01*
X472Y283D01*
X473Y283D01*
X473Y282D01*
X473Y282D01*
X473Y282D01*
X474Y282D01*
X474Y281D01*
X474Y281D01*
X474Y281D01*
X475Y281D01*
X475Y280D01*
X476Y280D01*
X476Y280D01*
X476Y280D01*
X476Y279D01*
X477Y279D01*
X477Y278D01*
X477Y278D01*
X477Y278D01*
X478Y278D01*
X478Y277D01*
X478Y277D01*
X478Y277D01*
X479Y277D01*
X479Y276D01*
X479Y276D01*
X479Y276D01*
X480Y276D01*
X480Y275D01*
X480Y275D01*
X480Y275D01*
X481Y275D01*
X481Y274D01*
X482Y274D01*
X482Y274D01*
X482Y274D01*
X482Y273D01*
X483Y273D01*
X483Y273D01*
X483Y273D01*
X483Y272D01*
X484Y272D01*
X484Y271D01*
X484Y271D01*
X484Y271D01*
X485Y271D01*
X485Y270D01*
X485Y270D01*
X485Y270D01*
X486Y270D01*
X486Y269D01*
X486Y269D01*
X486Y269D01*
X487Y269D01*
X487Y268D01*
X487Y268D01*
X487Y268D01*
X488Y268D01*
X488Y267D01*
X489Y267D01*
X489Y267D01*
X487Y267D01*
X487Y267D01*
X486Y267D01*
X486Y268D01*
X486Y268D01*
X486Y268D01*
X485Y268D01*
X485Y269D01*
X485Y269D01*
X485Y269D01*
X484Y269D01*
X484Y270D01*
X484Y270D01*
X484Y270D01*
X483Y270D01*
X483Y271D01*
X483Y271D01*
X483Y271D01*
X482Y271D01*
X482Y272D01*
X482Y272D01*
X482Y273D01*
X481Y273D01*
X481Y273D01*
X480Y273D01*
X480Y274D01*
X480Y274D01*
X480Y274D01*
X479Y274D01*
X479Y275D01*
X479Y275D01*
X479Y275D01*
X478Y275D01*
X478Y276D01*
X478Y276D01*
X478Y276D01*
X477Y276D01*
X477Y277D01*
X477Y277D01*
X477Y277D01*
X476Y277D01*
X476Y278D01*
X476Y278D01*
X476Y278D01*
X475Y278D01*
X475Y279D01*
X474Y279D01*
X474Y280D01*
X474Y280D01*
X474Y280D01*
X473Y280D01*
X473Y281D01*
X473Y281D01*
X473Y281D01*
X472Y281D01*
X472Y282D01*
X472Y282D01*
X472Y282D01*
X471Y282D01*
X471Y283D01*
X471Y283D01*
X471Y283D01*
X470Y283D01*
X470Y284D01*
X470Y284D01*
X470Y284D01*
X469Y284D01*
X469Y285D01*
X468Y285D01*
X468Y286D01*
X468Y286D01*
X468Y286D01*
X467Y286D01*
X467Y300D01*
X467Y300D01*
X467Y301D01*
X468Y301D01*
G37*
D02*
G36*
X459Y294D02*
X459Y293D01*
X459Y293D01*
X459Y293D01*
X458Y293D01*
X458Y292D01*
X457Y292D01*
X457Y291D01*
X456Y291D01*
X456Y292D01*
X455Y292D01*
X455Y293D01*
X455Y293D01*
X455Y293D01*
X454Y293D01*
X454Y294D01*
X459Y294D01*
G37*
D02*
G36*
X460Y293D02*
X460Y284D01*
X460Y284D01*
X460Y284D01*
X461Y284D01*
X461Y283D01*
X461Y283D01*
X461Y283D01*
X462Y283D01*
X462Y282D01*
X463Y282D01*
X463Y282D01*
X463Y282D01*
X463Y281D01*
X464Y281D01*
X464Y281D01*
X464Y281D01*
X464Y280D01*
X465Y280D01*
X465Y280D01*
X465Y280D01*
X465Y279D01*
X466Y279D01*
X466Y278D01*
X466Y278D01*
X466Y278D01*
X467Y278D01*
X467Y277D01*
X467Y277D01*
X467Y277D01*
X468Y277D01*
X468Y276D01*
X468Y276D01*
X468Y276D01*
X469Y276D01*
X469Y275D01*
X470Y275D01*
X470Y275D01*
X470Y275D01*
X470Y274D01*
X471Y274D01*
X471Y274D01*
X471Y274D01*
X471Y273D01*
X472Y273D01*
X472Y273D01*
X472Y273D01*
X472Y272D01*
X473Y272D01*
X473Y267D01*
X473Y267D01*
X473Y267D01*
X474Y267D01*
X474Y266D01*
X474Y266D01*
X474Y265D01*
X470Y265D01*
X470Y264D01*
X470Y264D01*
X470Y264D01*
X470Y264D01*
X470Y263D01*
X468Y263D01*
X468Y265D01*
X468Y265D01*
X468Y266D01*
X469Y266D01*
X469Y267D01*
X470Y267D01*
X470Y267D01*
X471Y267D01*
X471Y268D01*
X471Y268D01*
X471Y272D01*
X471Y272D01*
X471Y273D01*
X470Y273D01*
X470Y273D01*
X470Y273D01*
X470Y274D01*
X469Y274D01*
X469Y274D01*
X468Y274D01*
X468Y275D01*
X468Y275D01*
X468Y275D01*
X467Y275D01*
X467Y276D01*
X467Y276D01*
X467Y276D01*
X466Y276D01*
X466Y277D01*
X466Y277D01*
X466Y277D01*
X465Y277D01*
X465Y278D01*
X465Y278D01*
X465Y278D01*
X464Y278D01*
X464Y279D01*
X464Y279D01*
X464Y280D01*
X463Y280D01*
X463Y280D01*
X463Y280D01*
X463Y281D01*
X462Y281D01*
X462Y281D01*
X461Y281D01*
X461Y282D01*
X461Y282D01*
X461Y282D01*
X460Y282D01*
X460Y283D01*
X460Y283D01*
X460Y283D01*
X459Y283D01*
X459Y284D01*
X459Y284D01*
X459Y284D01*
X458Y284D01*
X458Y293D01*
X460Y293D01*
G37*
D02*
G36*
X487Y289D02*
X487Y288D01*
X485Y288D01*
X485Y289D01*
X487Y289D01*
G37*
D02*
G36*
X488Y288D02*
X488Y288D01*
X483Y288D01*
X483Y288D01*
X488Y288D01*
G37*
D02*
G36*
X488Y288D02*
X488Y288D01*
X483Y288D01*
X483Y288D01*
X488Y288D01*
G37*
D02*
G36*
X489Y288D02*
X489Y287D01*
X489Y287D01*
X489Y287D01*
X485Y287D01*
X485Y284D01*
X483Y284D01*
X483Y284D01*
X483Y284D01*
X483Y286D01*
X483Y286D01*
X483Y288D01*
X489Y288D01*
G37*
D02*
G36*
X489Y287D02*
X489Y286D01*
X490Y286D01*
X490Y284D01*
X489Y284D01*
X489Y284D01*
X487Y284D01*
X487Y287D01*
X489Y287D01*
G37*
D02*
G36*
X450Y285D02*
X450Y284D01*
X451Y284D01*
X451Y284D01*
X449Y284D01*
X449Y283D01*
X448Y283D01*
X448Y284D01*
X447Y284D01*
X447Y284D01*
X447Y284D01*
X447Y285D01*
X450Y285D01*
G37*
D02*
G36*
X489Y284D02*
X489Y283D01*
X483Y283D01*
X483Y284D01*
X489Y284D01*
G37*
D02*
G36*
X489Y284D02*
X489Y283D01*
X483Y283D01*
X483Y284D01*
X489Y284D01*
G37*
D02*
G36*
X451Y284D02*
X451Y283D01*
X452Y283D01*
X452Y283D01*
X452Y283D01*
X452Y282D01*
X453Y282D01*
X453Y282D01*
X453Y282D01*
X453Y281D01*
X454Y281D01*
X454Y281D01*
X454Y281D01*
X454Y280D01*
X455Y280D01*
X455Y280D01*
X455Y280D01*
X455Y279D01*
X454Y279D01*
X454Y280D01*
X453Y280D01*
X453Y280D01*
X453Y280D01*
X453Y281D01*
X452Y281D01*
X452Y281D01*
X452Y281D01*
X452Y282D01*
X451Y282D01*
X451Y282D01*
X451Y282D01*
X451Y283D01*
X450Y283D01*
X450Y283D01*
X450Y283D01*
X450Y284D01*
X451Y284D01*
G37*
D02*
G36*
X489Y283D02*
X489Y283D01*
X488Y283D01*
X488Y282D01*
X487Y282D01*
X487Y282D01*
X485Y282D01*
X485Y282D01*
X484Y282D01*
X484Y283D01*
X484Y283D01*
X484Y283D01*
X489Y283D01*
G37*
D02*
G36*
X458Y280D02*
X458Y279D01*
X457Y279D01*
X457Y280D01*
X458Y280D01*
G37*
D02*
G36*
X459Y279D02*
X459Y278D01*
X454Y278D01*
X454Y279D01*
X459Y279D01*
G37*
D02*
G36*
X459Y279D02*
X459Y278D01*
X454Y278D01*
X454Y279D01*
X459Y279D01*
G37*
D02*
G36*
X460Y278D02*
X460Y278D01*
X460Y278D01*
X460Y277D01*
X456Y277D01*
X456Y277D01*
X455Y277D01*
X455Y275D01*
X456Y275D01*
X456Y275D01*
X457Y275D01*
X457Y274D01*
X454Y274D01*
X454Y275D01*
X454Y275D01*
X454Y277D01*
X454Y277D01*
X454Y278D01*
X460Y278D01*
G37*
D02*
G36*
X442Y278D02*
X442Y277D01*
X443Y277D01*
X443Y277D01*
X444Y277D01*
X444Y276D01*
X441Y276D01*
X441Y276D01*
X440Y276D01*
X440Y276D01*
X440Y276D01*
X440Y277D01*
X439Y277D01*
X439Y277D01*
X439Y277D01*
X439Y278D01*
X442Y278D01*
G37*
D02*
G36*
X460Y277D02*
X460Y276D01*
X461Y276D01*
X461Y276D01*
X460Y276D01*
X460Y274D01*
X458Y274D01*
X458Y275D01*
X459Y275D01*
X459Y277D01*
X458Y277D01*
X458Y277D01*
X460Y277D01*
G37*
D02*
G36*
X444Y276D02*
X444Y276D01*
X445Y276D01*
X445Y275D01*
X445Y275D01*
X445Y275D01*
X446Y275D01*
X446Y274D01*
X446Y274D01*
X446Y274D01*
X447Y274D01*
X447Y273D01*
X447Y273D01*
X447Y273D01*
X448Y273D01*
X448Y272D01*
X448Y272D01*
X448Y271D01*
X449Y271D01*
X449Y271D01*
X450Y271D01*
X450Y270D01*
X450Y270D01*
X450Y270D01*
X451Y270D01*
X451Y269D01*
X451Y269D01*
X451Y269D01*
X452Y269D01*
X452Y268D01*
X450Y268D01*
X450Y269D01*
X449Y269D01*
X449Y269D01*
X448Y269D01*
X448Y270D01*
X448Y270D01*
X448Y270D01*
X447Y270D01*
X447Y271D01*
X447Y271D01*
X447Y271D01*
X446Y271D01*
X446Y272D01*
X446Y272D01*
X446Y273D01*
X445Y273D01*
X445Y273D01*
X445Y273D01*
X445Y274D01*
X444Y274D01*
X444Y274D01*
X444Y274D01*
X444Y275D01*
X443Y275D01*
X443Y275D01*
X442Y275D01*
X442Y276D01*
X442Y276D01*
X442Y276D01*
X444Y276D01*
G37*
D02*
G36*
X460Y274D02*
X460Y274D01*
X454Y274D01*
X454Y274D01*
X460Y274D01*
G37*
D02*
G36*
X460Y274D02*
X460Y274D01*
X454Y274D01*
X454Y274D01*
X460Y274D01*
G37*
D02*
G36*
X459Y274D02*
X459Y273D01*
X458Y273D01*
X458Y273D01*
X456Y273D01*
X456Y273D01*
X455Y273D01*
X455Y274D01*
X459Y274D01*
G37*
D02*
G36*
X454Y269D02*
X454Y268D01*
X452Y268D01*
X452Y269D01*
X454Y269D01*
G37*
D02*
G36*
X455Y268D02*
X455Y268D01*
X450Y268D01*
X450Y268D01*
X455Y268D01*
G37*
D02*
G36*
X455Y268D02*
X455Y268D01*
X450Y268D01*
X450Y268D01*
X455Y268D01*
G37*
D02*
G36*
X455Y268D02*
X455Y267D01*
X453Y267D01*
X453Y267D01*
X452Y267D01*
X452Y264D01*
X450Y264D01*
X450Y264D01*
X450Y264D01*
X450Y266D01*
X450Y266D01*
X450Y267D01*
X451Y267D01*
X451Y268D01*
X455Y268D01*
G37*
D02*
G36*
X491Y267D02*
X491Y267D01*
X490Y267D01*
X490Y267D01*
X491Y267D01*
G37*
D02*
G36*
X456Y267D02*
X456Y267D01*
X457Y267D01*
X457Y264D01*
X454Y264D01*
X454Y265D01*
X455Y265D01*
X455Y266D01*
X454Y266D01*
X454Y267D01*
X453Y267D01*
X453Y267D01*
X456Y267D01*
G37*
D02*
G36*
X493Y267D02*
X493Y266D01*
X487Y266D01*
X487Y267D01*
X493Y267D01*
G37*
D02*
G36*
X493Y267D02*
X493Y266D01*
X487Y266D01*
X487Y267D01*
X493Y267D01*
G37*
D02*
G36*
X493Y266D02*
X493Y265D01*
X490Y265D01*
X490Y264D01*
X489Y264D01*
X489Y263D01*
X490Y263D01*
X490Y262D01*
X490Y262D01*
X490Y262D01*
X488Y262D01*
X488Y262D01*
X487Y262D01*
X487Y265D01*
X488Y265D01*
X488Y266D01*
X493Y266D01*
G37*
D02*
G36*
X474Y265D02*
X474Y265D01*
X475Y265D01*
X475Y263D01*
X474Y263D01*
X474Y263D01*
X473Y263D01*
X473Y265D01*
X474Y265D01*
G37*
D02*
G36*
X494Y265D02*
X494Y262D01*
X491Y262D01*
X491Y262D01*
X492Y262D01*
X492Y264D01*
X492Y264D01*
X492Y265D01*
X494Y265D01*
G37*
D02*
G36*
X456Y264D02*
X456Y263D01*
X450Y263D01*
X450Y264D01*
X456Y264D01*
G37*
D02*
G36*
X456Y264D02*
X456Y263D01*
X450Y263D01*
X450Y264D01*
X456Y264D01*
G37*
D02*
G36*
X455Y263D02*
X455Y263D01*
X455Y263D01*
X455Y262D01*
X454Y262D01*
X454Y262D01*
X452Y262D01*
X452Y262D01*
X451Y262D01*
X451Y263D01*
X451Y263D01*
X451Y263D01*
X455Y263D01*
G37*
D02*
G36*
X474Y263D02*
X474Y262D01*
X468Y262D01*
X468Y263D01*
X474Y263D01*
G37*
D02*
G36*
X474Y263D02*
X474Y262D01*
X468Y262D01*
X468Y263D01*
X474Y263D01*
G37*
D02*
G36*
X474Y262D02*
X474Y262D01*
X473Y262D01*
X473Y261D01*
X472Y261D01*
X472Y261D01*
X471Y261D01*
X471Y261D01*
X470Y261D01*
X470Y262D01*
X469Y262D01*
X469Y262D01*
X474Y262D01*
G37*
D02*
G36*
X493Y262D02*
X493Y261D01*
X488Y261D01*
X488Y262D01*
X493Y262D01*
G37*
D02*
G36*
X493Y262D02*
X493Y261D01*
X488Y261D01*
X488Y262D01*
X493Y262D01*
G37*
D02*
G36*
X493Y261D02*
X493Y261D01*
X492Y261D01*
X492Y260D01*
X490Y260D01*
X490Y261D01*
X489Y261D01*
X489Y261D01*
X493Y261D01*
G37*
D02*
G36*
X506Y253D02*
X506Y252D01*
X405Y252D01*
X405Y253D01*
X506Y253D01*
G37*
D02*
G36*
X506Y253D02*
X506Y252D01*
X405Y252D01*
X405Y253D01*
X506Y253D01*
G37*
D02*
G36*
X506Y252D02*
X506Y252D01*
X505Y252D01*
X505Y251D01*
X505Y251D01*
X505Y251D01*
X504Y251D01*
X504Y250D01*
X504Y250D01*
X504Y250D01*
X503Y250D01*
X503Y249D01*
X502Y249D01*
X502Y249D01*
X501Y249D01*
X501Y248D01*
X500Y248D01*
X500Y248D01*
X498Y248D01*
X498Y247D01*
X403Y247D01*
X403Y248D01*
X401Y248D01*
X401Y248D01*
X400Y248D01*
X400Y249D01*
X401Y249D01*
X401Y249D01*
X401Y249D01*
X401Y250D01*
X402Y250D01*
X402Y250D01*
X402Y250D01*
X402Y251D01*
X403Y251D01*
X403Y251D01*
X403Y251D01*
X403Y252D01*
X404Y252D01*
X404Y252D01*
X506Y252D01*
G37*
D02*
G54D12*
X23Y441D02*
X31Y441D01*
X37Y441D02*
X47Y441D01*
X58Y441D02*
X63Y441D01*
X596Y441D02*
X603Y441D01*
X22Y440D02*
X31Y440D01*
X37Y440D02*
X47Y440D01*
X57Y440D02*
X63Y440D01*
X82Y440D02*
X91Y440D01*
X102Y440D02*
X108Y440D01*
X131Y440D02*
X141Y440D01*
X151Y440D02*
X157Y440D01*
X185Y440D02*
X190Y440D01*
X201Y440D02*
X207Y440D01*
X231Y440D02*
X239Y440D01*
X251Y440D02*
X256Y440D01*
X287Y440D02*
X297Y440D01*
X341Y440D02*
X346Y440D01*
X388Y440D02*
X398Y440D01*
X446Y440D02*
X448Y440D01*
X488Y440D02*
X495Y440D01*
X525Y440D02*
X531Y440D01*
X538Y440D02*
X539Y440D01*
X545Y440D02*
X548Y440D01*
X554Y440D02*
X559Y440D01*
X579Y440D02*
X580Y440D01*
X588Y440D02*
X589Y440D01*
X595Y440D02*
X603Y440D01*
X21Y439D02*
X24Y439D01*
X30Y439D02*
X31Y439D01*
X37Y439D02*
X39Y439D01*
X41Y439D02*
X43Y439D01*
X46Y439D02*
X47Y439D01*
X56Y439D02*
X58Y439D01*
X60Y439D02*
X62Y439D01*
X81Y439D02*
X91Y439D01*
X102Y439D02*
X107Y439D01*
X131Y439D02*
X140Y439D01*
X151Y439D02*
X157Y439D01*
X185Y439D02*
X190Y439D01*
X201Y439D02*
X206Y439D01*
X230Y439D02*
X240Y439D01*
X250Y439D02*
X256Y439D01*
X287Y439D02*
X297Y439D01*
X340Y439D02*
X346Y439D01*
X388Y439D02*
X398Y439D01*
X447Y439D02*
X448Y439D01*
X488Y439D02*
X495Y439D01*
X524Y439D02*
X531Y439D01*
X537Y439D02*
X539Y439D01*
X545Y439D02*
X548Y439D01*
X554Y439D02*
X560Y439D01*
X579Y439D02*
X580Y439D01*
X588Y439D02*
X589Y439D01*
X596Y439D02*
X603Y439D01*
X21Y438D02*
X22Y438D01*
X30Y438D02*
X31Y438D01*
X37Y438D02*
X38Y438D01*
X42Y438D02*
X43Y438D01*
X46Y438D02*
X47Y438D01*
X56Y438D02*
X57Y438D01*
X60Y438D02*
X61Y438D01*
X81Y438D02*
X83Y438D01*
X102Y438D02*
X103Y438D01*
X131Y438D02*
X132Y438D01*
X151Y438D02*
X153Y438D01*
X185Y438D02*
X186Y438D01*
X201Y438D02*
X202Y438D01*
X230Y438D02*
X231Y438D01*
X239Y438D02*
X240Y438D01*
X250Y438D02*
X252Y438D01*
X287Y438D02*
X288Y438D01*
X296Y438D02*
X297Y438D01*
X340Y438D02*
X342Y438D01*
X345Y438D02*
X346Y438D01*
X388Y438D02*
X389Y438D01*
X397Y438D02*
X397Y438D01*
X447Y438D02*
X448Y438D01*
X494Y438D02*
X495Y438D01*
X524Y438D02*
X525Y438D01*
X528Y438D02*
X529Y438D01*
X537Y438D02*
X539Y438D01*
X544Y438D02*
X548Y438D01*
X559Y438D02*
X561Y438D01*
X579Y438D02*
X580Y438D01*
X588Y438D02*
X589Y438D01*
X602Y438D02*
X603Y438D01*
X21Y437D02*
X22Y437D01*
X30Y437D02*
X31Y437D01*
X42Y437D02*
X43Y437D01*
X55Y437D02*
X57Y437D01*
X60Y437D02*
X61Y437D01*
X81Y437D02*
X83Y437D01*
X102Y437D02*
X103Y437D01*
X131Y437D02*
X132Y437D01*
X151Y437D02*
X153Y437D01*
X185Y437D02*
X186Y437D01*
X201Y437D02*
X202Y437D01*
X230Y437D02*
X231Y437D01*
X239Y437D02*
X240Y437D01*
X250Y437D02*
X252Y437D01*
X287Y437D02*
X288Y437D01*
X296Y437D02*
X297Y437D01*
X340Y437D02*
X342Y437D01*
X345Y437D02*
X346Y437D01*
X388Y437D02*
X389Y437D01*
X447Y437D02*
X448Y437D01*
X494Y437D02*
X495Y437D01*
X523Y437D02*
X525Y437D01*
X528Y437D02*
X529Y437D01*
X537Y437D02*
X539Y437D01*
X544Y437D02*
X548Y437D01*
X560Y437D02*
X562Y437D01*
X579Y437D02*
X580Y437D01*
X588Y437D02*
X589Y437D01*
X602Y437D02*
X603Y437D01*
X21Y436D02*
X23Y436D01*
X30Y436D02*
X31Y436D01*
X42Y436D02*
X43Y436D01*
X55Y436D02*
X56Y436D01*
X60Y436D02*
X61Y436D01*
X81Y436D02*
X83Y436D01*
X102Y436D02*
X103Y436D01*
X131Y436D02*
X132Y436D01*
X151Y436D02*
X153Y436D01*
X185Y436D02*
X186Y436D01*
X201Y436D02*
X202Y436D01*
X230Y436D02*
X231Y436D01*
X239Y436D02*
X240Y436D01*
X250Y436D02*
X252Y436D01*
X287Y436D02*
X288Y436D01*
X296Y436D02*
X297Y436D01*
X340Y436D02*
X342Y436D01*
X345Y436D02*
X346Y436D01*
X388Y436D02*
X389Y436D01*
X447Y436D02*
X448Y436D01*
X494Y436D02*
X495Y436D01*
X523Y436D02*
X524Y436D01*
X528Y436D02*
X529Y436D01*
X537Y436D02*
X539Y436D01*
X544Y436D02*
X548Y436D01*
X561Y436D02*
X563Y436D01*
X579Y436D02*
X580Y436D01*
X588Y436D02*
X589Y436D01*
X602Y436D02*
X603Y436D01*
X22Y435D02*
X31Y435D01*
X42Y435D02*
X43Y435D01*
X54Y435D02*
X56Y435D01*
X60Y435D02*
X61Y435D01*
X81Y435D02*
X83Y435D01*
X102Y435D02*
X103Y435D01*
X131Y435D02*
X132Y435D01*
X151Y435D02*
X153Y435D01*
X185Y435D02*
X186Y435D01*
X201Y435D02*
X202Y435D01*
X230Y435D02*
X231Y435D01*
X239Y435D02*
X240Y435D01*
X250Y435D02*
X252Y435D01*
X287Y435D02*
X297Y435D01*
X340Y435D02*
X342Y435D01*
X345Y435D02*
X346Y435D01*
X388Y435D02*
X389Y435D01*
X447Y435D02*
X448Y435D01*
X494Y435D02*
X495Y435D01*
X522Y435D02*
X524Y435D01*
X528Y435D02*
X529Y435D01*
X537Y435D02*
X539Y435D01*
X543Y435D02*
X548Y435D01*
X561Y435D02*
X563Y435D01*
X579Y435D02*
X581Y435D01*
X587Y435D02*
X589Y435D01*
X602Y435D02*
X603Y435D01*
X23Y434D02*
X31Y434D01*
X42Y434D02*
X43Y434D01*
X54Y434D02*
X55Y434D01*
X60Y434D02*
X61Y434D01*
X81Y434D02*
X83Y434D01*
X102Y434D02*
X103Y434D01*
X131Y434D02*
X132Y434D01*
X151Y434D02*
X153Y434D01*
X185Y434D02*
X186Y434D01*
X201Y434D02*
X202Y434D01*
X230Y434D02*
X231Y434D01*
X239Y434D02*
X240Y434D01*
X250Y434D02*
X252Y434D01*
X287Y434D02*
X297Y434D01*
X340Y434D02*
X342Y434D01*
X345Y434D02*
X346Y434D01*
X388Y434D02*
X390Y434D01*
X447Y434D02*
X448Y434D01*
X494Y434D02*
X495Y434D01*
X522Y434D02*
X523Y434D01*
X528Y434D02*
X529Y434D01*
X537Y434D02*
X539Y434D01*
X543Y434D02*
X544Y434D01*
X546Y434D02*
X548Y434D01*
X562Y434D02*
X564Y434D01*
X580Y434D02*
X581Y434D01*
X587Y434D02*
X588Y434D01*
X602Y434D02*
X603Y434D01*
X25Y433D02*
X27Y433D01*
X30Y433D02*
X31Y433D01*
X42Y433D02*
X43Y433D01*
X53Y433D02*
X55Y433D01*
X60Y433D02*
X61Y433D01*
X82Y433D02*
X89Y433D01*
X102Y433D02*
X103Y433D01*
X131Y433D02*
X139Y433D01*
X151Y433D02*
X153Y433D01*
X185Y433D02*
X186Y433D01*
X201Y433D02*
X202Y433D01*
X230Y433D02*
X231Y433D01*
X239Y433D02*
X240Y433D01*
X250Y433D02*
X252Y433D01*
X287Y433D02*
X296Y433D01*
X340Y433D02*
X342Y433D01*
X345Y433D02*
X346Y433D01*
X388Y433D02*
X391Y433D01*
X447Y433D02*
X448Y433D01*
X489Y433D02*
X495Y433D01*
X521Y433D02*
X523Y433D01*
X528Y433D02*
X529Y433D01*
X537Y433D02*
X539Y433D01*
X542Y433D02*
X544Y433D01*
X546Y433D02*
X548Y433D01*
X563Y433D02*
X564Y433D01*
X580Y433D02*
X581Y433D01*
X586Y433D02*
X588Y433D01*
X596Y433D02*
X603Y433D01*
X25Y432D02*
X27Y432D01*
X30Y432D02*
X31Y432D01*
X42Y432D02*
X43Y432D01*
X53Y432D02*
X55Y432D01*
X60Y432D02*
X61Y432D01*
X82Y432D02*
X89Y432D01*
X102Y432D02*
X103Y432D01*
X131Y432D02*
X140Y432D01*
X151Y432D02*
X153Y432D01*
X185Y432D02*
X186Y432D01*
X201Y432D02*
X202Y432D01*
X230Y432D02*
X231Y432D01*
X239Y432D02*
X240Y432D01*
X250Y432D02*
X252Y432D01*
X287Y432D02*
X288Y432D01*
X339Y432D02*
X348Y432D01*
X389Y432D02*
X392Y432D01*
X447Y432D02*
X448Y432D01*
X488Y432D02*
X495Y432D01*
X521Y432D02*
X523Y432D01*
X528Y432D02*
X529Y432D01*
X537Y432D02*
X539Y432D01*
X542Y432D02*
X543Y432D01*
X546Y432D02*
X548Y432D01*
X563Y432D02*
X564Y432D01*
X580Y432D02*
X582Y432D01*
X586Y432D02*
X587Y432D01*
X595Y432D02*
X603Y432D01*
X24Y431D02*
X26Y431D01*
X30Y431D02*
X31Y431D01*
X42Y431D02*
X43Y431D01*
X54Y431D02*
X55Y431D01*
X60Y431D02*
X61Y431D01*
X82Y431D02*
X88Y431D01*
X98Y431D02*
X98Y431D01*
X102Y431D02*
X103Y431D01*
X132Y431D02*
X141Y431D01*
X147Y431D02*
X147Y431D01*
X151Y431D02*
X153Y431D01*
X181Y431D02*
X181Y431D01*
X185Y431D02*
X186Y431D01*
X197Y431D02*
X197Y431D01*
X201Y431D02*
X202Y431D01*
X230Y431D02*
X231Y431D01*
X239Y431D02*
X240Y431D01*
X250Y431D02*
X252Y431D01*
X287Y431D02*
X288Y431D01*
X338Y431D02*
X348Y431D01*
X391Y431D02*
X393Y431D01*
X439Y431D02*
X448Y431D01*
X487Y431D02*
X495Y431D01*
X521Y431D02*
X523Y431D01*
X528Y431D02*
X529Y431D01*
X537Y431D02*
X539Y431D01*
X541Y431D02*
X543Y431D01*
X546Y431D02*
X548Y431D01*
X554Y431D02*
X558Y431D01*
X563Y431D02*
X564Y431D01*
X581Y431D02*
X582Y431D01*
X586Y431D02*
X587Y431D01*
X595Y431D02*
X596Y431D01*
X24Y430D02*
X26Y430D01*
X30Y430D02*
X31Y430D01*
X42Y430D02*
X43Y430D01*
X54Y430D02*
X56Y430D01*
X60Y430D02*
X61Y430D01*
X81Y430D02*
X83Y430D01*
X98Y430D02*
X99Y430D01*
X102Y430D02*
X103Y430D01*
X140Y430D02*
X141Y430D01*
X147Y430D02*
X148Y430D01*
X151Y430D02*
X153Y430D01*
X180Y430D02*
X182Y430D01*
X185Y430D02*
X186Y430D01*
X197Y430D02*
X198Y430D01*
X201Y430D02*
X202Y430D01*
X230Y430D02*
X231Y430D01*
X239Y430D02*
X240Y430D01*
X246Y430D02*
X247Y430D01*
X250Y430D02*
X252Y430D01*
X287Y430D02*
X288Y430D01*
X338Y430D02*
X339Y430D01*
X347Y430D02*
X348Y430D01*
X392Y430D02*
X393Y430D01*
X438Y430D02*
X448Y430D01*
X487Y430D02*
X489Y430D01*
X522Y430D02*
X523Y430D01*
X528Y430D02*
X529Y430D01*
X537Y430D02*
X539Y430D01*
X541Y430D02*
X542Y430D01*
X546Y430D02*
X548Y430D01*
X554Y430D02*
X558Y430D01*
X563Y430D02*
X564Y430D01*
X581Y430D02*
X583Y430D01*
X585Y430D02*
X587Y430D01*
X595Y430D02*
X596Y430D01*
X23Y429D02*
X25Y429D01*
X30Y429D02*
X31Y429D01*
X42Y429D02*
X43Y429D01*
X55Y429D02*
X56Y429D01*
X60Y429D02*
X61Y429D01*
X81Y429D02*
X83Y429D01*
X97Y429D02*
X99Y429D01*
X102Y429D02*
X103Y429D01*
X140Y429D02*
X141Y429D01*
X147Y429D02*
X148Y429D01*
X151Y429D02*
X153Y429D01*
X180Y429D02*
X182Y429D01*
X185Y429D02*
X186Y429D01*
X197Y429D02*
X198Y429D01*
X201Y429D02*
X202Y429D01*
X230Y429D02*
X231Y429D01*
X239Y429D02*
X240Y429D01*
X246Y429D02*
X247Y429D01*
X250Y429D02*
X252Y429D01*
X287Y429D02*
X288Y429D01*
X338Y429D02*
X339Y429D01*
X347Y429D02*
X348Y429D01*
X392Y429D02*
X393Y429D01*
X438Y429D02*
X440Y429D01*
X447Y429D02*
X448Y429D01*
X487Y429D02*
X489Y429D01*
X522Y429D02*
X524Y429D01*
X528Y429D02*
X529Y429D01*
X537Y429D02*
X539Y429D01*
X541Y429D02*
X542Y429D01*
X546Y429D02*
X548Y429D01*
X554Y429D02*
X557Y429D01*
X563Y429D02*
X564Y429D01*
X582Y429D02*
X583Y429D01*
X585Y429D02*
X586Y429D01*
X595Y429D02*
X596Y429D01*
X23Y428D02*
X24Y428D01*
X30Y428D02*
X31Y428D01*
X42Y428D02*
X43Y428D01*
X55Y428D02*
X57Y428D01*
X60Y428D02*
X61Y428D01*
X81Y428D02*
X83Y428D01*
X97Y428D02*
X99Y428D01*
X102Y428D02*
X103Y428D01*
X140Y428D02*
X141Y428D01*
X147Y428D02*
X148Y428D01*
X151Y428D02*
X153Y428D01*
X180Y428D02*
X182Y428D01*
X185Y428D02*
X186Y428D01*
X197Y428D02*
X198Y428D01*
X201Y428D02*
X202Y428D01*
X230Y428D02*
X231Y428D01*
X239Y428D02*
X240Y428D01*
X246Y428D02*
X247Y428D01*
X250Y428D02*
X252Y428D01*
X287Y428D02*
X288Y428D01*
X338Y428D02*
X339Y428D01*
X347Y428D02*
X348Y428D01*
X392Y428D02*
X393Y428D01*
X438Y428D02*
X440Y428D01*
X447Y428D02*
X448Y428D01*
X487Y428D02*
X489Y428D01*
X523Y428D02*
X524Y428D01*
X528Y428D02*
X529Y428D01*
X537Y428D02*
X542Y428D01*
X546Y428D02*
X548Y428D01*
X554Y428D02*
X555Y428D01*
X563Y428D02*
X564Y428D01*
X582Y428D02*
X586Y428D01*
X595Y428D02*
X596Y428D01*
X22Y427D02*
X24Y427D01*
X30Y427D02*
X31Y427D01*
X42Y427D02*
X43Y427D01*
X56Y427D02*
X57Y427D01*
X60Y427D02*
X61Y427D01*
X81Y427D02*
X83Y427D01*
X97Y427D02*
X99Y427D01*
X102Y427D02*
X103Y427D01*
X140Y427D02*
X141Y427D01*
X147Y427D02*
X148Y427D01*
X151Y427D02*
X153Y427D01*
X180Y427D02*
X182Y427D01*
X185Y427D02*
X186Y427D01*
X197Y427D02*
X198Y427D01*
X201Y427D02*
X202Y427D01*
X230Y427D02*
X231Y427D01*
X239Y427D02*
X240Y427D01*
X246Y427D02*
X247Y427D01*
X250Y427D02*
X252Y427D01*
X287Y427D02*
X288Y427D01*
X338Y427D02*
X339Y427D01*
X347Y427D02*
X348Y427D01*
X392Y427D02*
X393Y427D01*
X438Y427D02*
X440Y427D01*
X447Y427D02*
X448Y427D01*
X487Y427D02*
X489Y427D01*
X523Y427D02*
X525Y427D01*
X528Y427D02*
X529Y427D01*
X537Y427D02*
X541Y427D01*
X546Y427D02*
X548Y427D01*
X554Y427D02*
X555Y427D01*
X563Y427D02*
X564Y427D01*
X582Y427D02*
X586Y427D01*
X595Y427D02*
X596Y427D01*
X22Y426D02*
X23Y426D01*
X30Y426D02*
X31Y426D01*
X42Y426D02*
X43Y426D01*
X56Y426D02*
X63Y426D01*
X81Y426D02*
X83Y426D01*
X97Y426D02*
X99Y426D01*
X102Y426D02*
X103Y426D01*
X140Y426D02*
X141Y426D01*
X147Y426D02*
X148Y426D01*
X151Y426D02*
X153Y426D01*
X180Y426D02*
X182Y426D01*
X185Y426D02*
X186Y426D01*
X197Y426D02*
X198Y426D01*
X201Y426D02*
X202Y426D01*
X230Y426D02*
X231Y426D01*
X239Y426D02*
X240Y426D01*
X246Y426D02*
X247Y426D01*
X250Y426D02*
X252Y426D01*
X287Y426D02*
X288Y426D01*
X338Y426D02*
X339Y426D01*
X347Y426D02*
X348Y426D01*
X392Y426D02*
X393Y426D01*
X438Y426D02*
X440Y426D01*
X447Y426D02*
X448Y426D01*
X487Y426D02*
X489Y426D01*
X496Y426D02*
X497Y426D01*
X524Y426D02*
X525Y426D01*
X528Y426D02*
X529Y426D01*
X537Y426D02*
X541Y426D01*
X546Y426D02*
X548Y426D01*
X554Y426D02*
X555Y426D01*
X562Y426D02*
X564Y426D01*
X583Y426D02*
X585Y426D01*
X595Y426D02*
X597Y426D01*
X603Y426D02*
X605Y426D01*
X21Y425D02*
X23Y425D01*
X30Y425D02*
X31Y425D01*
X42Y425D02*
X43Y425D01*
X57Y425D02*
X63Y425D01*
X81Y425D02*
X91Y425D01*
X97Y425D02*
X107Y425D01*
X131Y425D02*
X141Y425D01*
X147Y425D02*
X157Y425D01*
X180Y425D02*
X190Y425D01*
X197Y425D02*
X207Y425D01*
X230Y425D02*
X240Y425D01*
X246Y425D02*
X256Y425D01*
X287Y425D02*
X289Y425D01*
X338Y425D02*
X348Y425D01*
X392Y425D02*
X393Y425D01*
X438Y425D02*
X448Y425D01*
X488Y425D02*
X497Y425D01*
X524Y425D02*
X531Y425D01*
X537Y425D02*
X540Y425D01*
X546Y425D02*
X548Y425D01*
X554Y425D02*
X563Y425D01*
X583Y425D02*
X585Y425D01*
X595Y425D02*
X605Y425D01*
X22Y424D02*
X22Y424D01*
X31Y424D02*
X31Y424D01*
X42Y424D02*
X42Y424D01*
X58Y424D02*
X63Y424D01*
X82Y424D02*
X91Y424D01*
X98Y424D02*
X107Y424D01*
X131Y424D02*
X141Y424D01*
X147Y424D02*
X157Y424D01*
X181Y424D02*
X190Y424D01*
X197Y424D02*
X206Y424D01*
X230Y424D02*
X240Y424D01*
X246Y424D02*
X256Y424D01*
X287Y424D02*
X289Y424D01*
X339Y424D02*
X348Y424D01*
X392Y424D02*
X393Y424D01*
X439Y424D02*
X448Y424D01*
X488Y424D02*
X496Y424D01*
X525Y424D02*
X531Y424D01*
X537Y424D02*
X540Y424D01*
X547Y424D02*
X547Y424D01*
X555Y424D02*
X562Y424D01*
X584Y424D02*
X584Y424D01*
X596Y424D02*
X603Y424D01*
X232Y423D02*
X238Y423D01*
X247Y423D02*
X255Y423D01*
X341Y423D02*
X346Y423D01*
X220Y337D02*
X223Y337D01*
X344Y337D02*
X347Y337D01*
X93Y336D02*
X101Y336D01*
X116Y336D02*
X129Y336D01*
X140Y336D02*
X154Y336D01*
X219Y336D02*
X224Y336D01*
X242Y336D02*
X253Y336D01*
X343Y336D02*
X347Y336D01*
X361Y336D02*
X365Y336D01*
X374Y336D02*
X377Y336D01*
X92Y335D02*
X101Y335D01*
X114Y335D02*
X129Y335D01*
X139Y335D02*
X154Y335D01*
X219Y335D02*
X224Y335D01*
X240Y335D02*
X253Y335D01*
X343Y335D02*
X348Y335D01*
X361Y335D02*
X366Y335D01*
X373Y335D02*
X377Y335D01*
X92Y334D02*
X101Y334D01*
X114Y334D02*
X129Y334D01*
X139Y334D02*
X154Y334D01*
X198Y334D02*
X200Y334D01*
X220Y334D02*
X223Y334D01*
X239Y334D02*
X253Y334D01*
X343Y334D02*
X347Y334D01*
X361Y334D02*
X366Y334D01*
X372Y334D02*
X377Y334D01*
X92Y333D02*
X101Y333D01*
X114Y333D02*
X129Y333D01*
X138Y333D02*
X153Y333D01*
X198Y333D02*
X201Y333D01*
X221Y333D02*
X223Y333D01*
X238Y333D02*
X253Y333D01*
X344Y333D02*
X346Y333D01*
X361Y333D02*
X367Y333D01*
X372Y333D02*
X377Y333D01*
X92Y332D02*
X95Y332D01*
X99Y332D02*
X101Y332D01*
X113Y332D02*
X116Y332D01*
X138Y332D02*
X141Y332D01*
X198Y332D02*
X201Y332D01*
X238Y332D02*
X241Y332D01*
X251Y332D02*
X253Y332D01*
X361Y332D02*
X368Y332D01*
X371Y332D02*
X377Y332D01*
X92Y331D02*
X95Y331D01*
X99Y331D02*
X101Y331D01*
X113Y331D02*
X116Y331D01*
X138Y331D02*
X141Y331D01*
X198Y331D02*
X201Y331D01*
X238Y331D02*
X240Y331D01*
X251Y331D02*
X253Y331D01*
X361Y331D02*
X368Y331D01*
X370Y331D02*
X377Y331D01*
X92Y330D02*
X95Y330D01*
X99Y330D02*
X101Y330D01*
X113Y330D02*
X116Y330D01*
X138Y330D02*
X141Y330D01*
X198Y330D02*
X201Y330D01*
X237Y330D02*
X240Y330D01*
X251Y330D02*
X253Y330D01*
X361Y330D02*
X364Y330D01*
X366Y330D02*
X373Y330D01*
X375Y330D02*
X377Y330D01*
X92Y329D02*
X95Y329D01*
X99Y329D02*
X101Y329D01*
X113Y329D02*
X116Y329D01*
X138Y329D02*
X141Y329D01*
X192Y329D02*
X202Y329D01*
X222Y329D02*
X225Y329D01*
X237Y329D02*
X240Y329D01*
X251Y329D02*
X253Y329D01*
X269Y329D02*
X271Y329D01*
X293Y329D02*
X294Y329D01*
X314Y329D02*
X319Y329D01*
X346Y329D02*
X349Y329D01*
X361Y329D02*
X364Y329D01*
X366Y329D02*
X372Y329D01*
X375Y329D02*
X377Y329D01*
X92Y328D02*
X95Y328D01*
X99Y328D02*
X101Y328D01*
X113Y328D02*
X116Y328D01*
X138Y328D02*
X141Y328D01*
X190Y328D02*
X204Y328D01*
X220Y328D02*
X227Y328D01*
X237Y328D02*
X240Y328D01*
X251Y328D02*
X253Y328D01*
X266Y328D02*
X275Y328D01*
X289Y328D02*
X296Y328D01*
X301Y328D02*
X303Y328D01*
X312Y328D02*
X323Y328D01*
X344Y328D02*
X351Y328D01*
X361Y328D02*
X364Y328D01*
X367Y328D02*
X372Y328D01*
X375Y328D02*
X377Y328D01*
X92Y327D02*
X95Y327D01*
X99Y327D02*
X101Y327D01*
X113Y327D02*
X116Y327D01*
X138Y327D02*
X141Y327D01*
X190Y327D02*
X204Y327D01*
X219Y327D02*
X227Y327D01*
X237Y327D02*
X240Y327D01*
X251Y327D02*
X253Y327D01*
X264Y327D02*
X276Y327D01*
X288Y327D02*
X297Y327D01*
X301Y327D02*
X303Y327D01*
X312Y327D02*
X324Y327D01*
X343Y327D02*
X351Y327D01*
X361Y327D02*
X364Y327D01*
X368Y327D02*
X371Y327D01*
X375Y327D02*
X377Y327D01*
X92Y326D02*
X95Y326D01*
X99Y326D02*
X101Y326D01*
X113Y326D02*
X116Y326D01*
X138Y326D02*
X141Y326D01*
X190Y326D02*
X203Y326D01*
X219Y326D02*
X226Y326D01*
X238Y326D02*
X241Y326D01*
X251Y326D02*
X253Y326D01*
X263Y326D02*
X277Y326D01*
X287Y326D02*
X299Y326D01*
X301Y326D02*
X303Y326D01*
X312Y326D02*
X325Y326D01*
X343Y326D02*
X350Y326D01*
X361Y326D02*
X364Y326D01*
X368Y326D02*
X371Y326D01*
X375Y326D02*
X377Y326D01*
X92Y325D02*
X95Y325D01*
X99Y325D02*
X101Y325D01*
X113Y325D02*
X116Y325D01*
X138Y325D02*
X141Y325D01*
X198Y325D02*
X201Y325D01*
X219Y325D02*
X222Y325D01*
X238Y325D02*
X242Y325D01*
X251Y325D02*
X253Y325D01*
X263Y325D02*
X266Y325D01*
X274Y325D02*
X278Y325D01*
X287Y325D02*
X290Y325D01*
X295Y325D02*
X303Y325D01*
X322Y325D02*
X326Y325D01*
X343Y325D02*
X346Y325D01*
X361Y325D02*
X364Y325D01*
X368Y325D02*
X370Y325D01*
X375Y325D02*
X377Y325D01*
X90Y324D02*
X103Y324D01*
X114Y324D02*
X128Y324D01*
X139Y324D02*
X150Y324D01*
X198Y324D02*
X201Y324D01*
X219Y324D02*
X222Y324D01*
X239Y324D02*
X253Y324D01*
X262Y324D02*
X265Y324D01*
X275Y324D02*
X278Y324D01*
X287Y324D02*
X289Y324D01*
X297Y324D02*
X303Y324D01*
X323Y324D02*
X327Y324D01*
X343Y324D02*
X346Y324D01*
X361Y324D02*
X364Y324D01*
X375Y324D02*
X377Y324D01*
X89Y323D02*
X104Y323D01*
X114Y323D02*
X129Y323D01*
X139Y323D02*
X151Y323D01*
X198Y323D02*
X201Y323D01*
X219Y323D02*
X222Y323D01*
X240Y323D02*
X253Y323D01*
X262Y323D02*
X265Y323D01*
X276Y323D02*
X278Y323D01*
X287Y323D02*
X289Y323D01*
X298Y323D02*
X303Y323D01*
X324Y323D02*
X328Y323D01*
X343Y323D02*
X346Y323D01*
X361Y323D02*
X364Y323D01*
X375Y323D02*
X377Y323D01*
X89Y322D02*
X105Y322D01*
X115Y322D02*
X129Y322D01*
X139Y322D02*
X151Y322D01*
X198Y322D02*
X201Y322D01*
X219Y322D02*
X222Y322D01*
X239Y322D02*
X253Y322D01*
X262Y322D02*
X265Y322D01*
X276Y322D02*
X278Y322D01*
X287Y322D02*
X289Y322D01*
X299Y322D02*
X303Y322D01*
X325Y322D02*
X328Y322D01*
X343Y322D02*
X346Y322D01*
X361Y322D02*
X364Y322D01*
X375Y322D02*
X377Y322D01*
X89Y321D02*
X91Y321D01*
X102Y321D02*
X105Y321D01*
X127Y321D02*
X130Y321D01*
X139Y321D02*
X142Y321D01*
X198Y321D02*
X201Y321D01*
X219Y321D02*
X222Y321D01*
X238Y321D02*
X242Y321D01*
X251Y321D02*
X253Y321D01*
X262Y321D02*
X265Y321D01*
X276Y321D02*
X278Y321D01*
X300Y321D02*
X303Y321D01*
X325Y321D02*
X328Y321D01*
X343Y321D02*
X346Y321D01*
X361Y321D02*
X364Y321D01*
X375Y321D02*
X377Y321D01*
X89Y320D02*
X91Y320D01*
X102Y320D02*
X105Y320D01*
X127Y320D02*
X130Y320D01*
X138Y320D02*
X141Y320D01*
X198Y320D02*
X201Y320D01*
X219Y320D02*
X222Y320D01*
X238Y320D02*
X241Y320D01*
X251Y320D02*
X253Y320D01*
X262Y320D02*
X265Y320D01*
X276Y320D02*
X278Y320D01*
X301Y320D02*
X303Y320D01*
X325Y320D02*
X328Y320D01*
X343Y320D02*
X346Y320D01*
X361Y320D02*
X364Y320D01*
X375Y320D02*
X377Y320D01*
X89Y319D02*
X91Y319D01*
X102Y319D02*
X105Y319D01*
X127Y319D02*
X130Y319D01*
X138Y319D02*
X141Y319D01*
X198Y319D02*
X201Y319D01*
X219Y319D02*
X222Y319D01*
X237Y319D02*
X240Y319D01*
X251Y319D02*
X253Y319D01*
X262Y319D02*
X265Y319D01*
X276Y319D02*
X278Y319D01*
X301Y319D02*
X303Y319D01*
X325Y319D02*
X328Y319D01*
X343Y319D02*
X346Y319D01*
X361Y319D02*
X364Y319D01*
X375Y319D02*
X377Y319D01*
X89Y318D02*
X91Y318D01*
X102Y318D02*
X105Y318D01*
X127Y318D02*
X130Y318D01*
X138Y318D02*
X141Y318D01*
X198Y318D02*
X201Y318D01*
X219Y318D02*
X222Y318D01*
X237Y318D02*
X240Y318D01*
X251Y318D02*
X253Y318D01*
X262Y318D02*
X265Y318D01*
X276Y318D02*
X278Y318D01*
X301Y318D02*
X303Y318D01*
X325Y318D02*
X328Y318D01*
X343Y318D02*
X346Y318D01*
X361Y318D02*
X364Y318D01*
X375Y318D02*
X377Y318D01*
X89Y317D02*
X91Y317D01*
X102Y317D02*
X105Y317D01*
X127Y317D02*
X130Y317D01*
X138Y317D02*
X141Y317D01*
X198Y317D02*
X201Y317D01*
X219Y317D02*
X222Y317D01*
X237Y317D02*
X240Y317D01*
X251Y317D02*
X253Y317D01*
X262Y317D02*
X265Y317D01*
X276Y317D02*
X278Y317D01*
X301Y317D02*
X303Y317D01*
X325Y317D02*
X328Y317D01*
X343Y317D02*
X346Y317D01*
X361Y317D02*
X364Y317D01*
X375Y317D02*
X377Y317D01*
X89Y316D02*
X91Y316D01*
X102Y316D02*
X105Y316D01*
X127Y316D02*
X130Y316D01*
X138Y316D02*
X141Y316D01*
X198Y316D02*
X201Y316D01*
X219Y316D02*
X222Y316D01*
X237Y316D02*
X240Y316D01*
X251Y316D02*
X253Y316D01*
X262Y316D02*
X265Y316D01*
X276Y316D02*
X278Y316D01*
X301Y316D02*
X303Y316D01*
X325Y316D02*
X328Y316D01*
X343Y316D02*
X346Y316D01*
X361Y316D02*
X364Y316D01*
X375Y316D02*
X377Y316D01*
X89Y315D02*
X91Y315D01*
X102Y315D02*
X105Y315D01*
X127Y315D02*
X130Y315D01*
X138Y315D02*
X141Y315D01*
X188Y315D02*
X190Y315D01*
X198Y315D02*
X201Y315D01*
X219Y315D02*
X222Y315D01*
X238Y315D02*
X240Y315D01*
X251Y315D02*
X253Y315D01*
X262Y315D02*
X265Y315D01*
X276Y315D02*
X278Y315D01*
X301Y315D02*
X303Y315D01*
X324Y315D02*
X327Y315D01*
X343Y315D02*
X346Y315D01*
X361Y315D02*
X364Y315D01*
X375Y315D02*
X377Y315D01*
X89Y314D02*
X91Y314D01*
X102Y314D02*
X105Y314D01*
X127Y314D02*
X130Y314D01*
X138Y314D02*
X141Y314D01*
X188Y314D02*
X190Y314D01*
X198Y314D02*
X200Y314D01*
X219Y314D02*
X222Y314D01*
X238Y314D02*
X241Y314D01*
X251Y314D02*
X253Y314D01*
X262Y314D02*
X266Y314D01*
X275Y314D02*
X278Y314D01*
X301Y314D02*
X303Y314D01*
X323Y314D02*
X327Y314D01*
X343Y314D02*
X346Y314D01*
X361Y314D02*
X364Y314D01*
X375Y314D02*
X377Y314D01*
X89Y313D02*
X92Y313D01*
X102Y313D02*
X105Y313D01*
X127Y313D02*
X130Y313D01*
X138Y313D02*
X141Y313D01*
X188Y313D02*
X192Y313D01*
X197Y313D02*
X200Y313D01*
X219Y313D02*
X222Y313D01*
X238Y313D02*
X243Y313D01*
X251Y313D02*
X253Y313D01*
X263Y313D02*
X267Y313D01*
X273Y313D02*
X277Y313D01*
X301Y313D02*
X303Y313D01*
X321Y313D02*
X326Y313D01*
X343Y313D02*
X346Y313D01*
X361Y313D02*
X364Y313D01*
X375Y313D02*
X377Y313D01*
X89Y312D02*
X105Y312D01*
X114Y312D02*
X130Y312D01*
X138Y312D02*
X154Y312D01*
X189Y312D02*
X200Y312D01*
X215Y312D02*
X227Y312D01*
X239Y312D02*
X253Y312D01*
X264Y312D02*
X277Y312D01*
X301Y312D02*
X303Y312D01*
X312Y312D02*
X325Y312D01*
X338Y312D02*
X351Y312D01*
X361Y312D02*
X364Y312D01*
X375Y312D02*
X377Y312D01*
X89Y311D02*
X104Y311D01*
X114Y311D02*
X130Y311D01*
X139Y311D02*
X154Y311D01*
X189Y311D02*
X199Y311D01*
X214Y311D02*
X227Y311D01*
X240Y311D02*
X253Y311D01*
X265Y311D02*
X276Y311D01*
X301Y311D02*
X303Y311D01*
X312Y311D02*
X323Y311D01*
X338Y311D02*
X351Y311D01*
X361Y311D02*
X364Y311D01*
X375Y311D02*
X377Y311D01*
X90Y310D02*
X103Y310D01*
X114Y310D02*
X130Y310D01*
X140Y310D02*
X154Y310D01*
X191Y310D02*
X198Y310D01*
X215Y310D02*
X226Y310D01*
X242Y310D02*
X253Y310D01*
X266Y310D02*
X274Y310D01*
X301Y310D02*
X302Y310D01*
X312Y310D02*
X322Y310D01*
X339Y310D02*
X350Y310D01*
X362Y310D02*
X363Y310D01*
X376Y310D02*
X377Y310D01*
X250Y302D02*
X252Y302D01*
X142Y301D02*
X148Y301D01*
X174Y301D02*
X183Y301D01*
X250Y301D02*
X253Y301D01*
X318Y301D02*
X318Y301D01*
X327Y301D02*
X328Y301D01*
X142Y300D02*
X148Y300D01*
X173Y300D02*
X184Y300D01*
X250Y300D02*
X253Y300D01*
X317Y300D02*
X319Y300D01*
X327Y300D02*
X329Y300D01*
X142Y299D02*
X144Y299D01*
X173Y299D02*
X175Y299D01*
X182Y299D02*
X184Y299D01*
X317Y299D02*
X319Y299D01*
X327Y299D02*
X329Y299D01*
X142Y298D02*
X143Y298D01*
X173Y298D02*
X174Y298D01*
X183Y298D02*
X184Y298D01*
X317Y298D02*
X319Y298D01*
X327Y298D02*
X329Y298D01*
X142Y297D02*
X143Y297D01*
X173Y297D02*
X174Y297D01*
X183Y297D02*
X184Y297D01*
X317Y297D02*
X319Y297D01*
X327Y297D02*
X329Y297D01*
X142Y296D02*
X143Y296D01*
X173Y296D02*
X174Y296D01*
X183Y296D02*
X184Y296D01*
X212Y296D02*
X215Y296D01*
X220Y296D02*
X220Y296D01*
X230Y296D02*
X235Y296D01*
X251Y296D02*
X255Y296D01*
X266Y296D02*
X272Y296D01*
X284Y296D02*
X287Y296D01*
X292Y296D02*
X292Y296D01*
X303Y296D02*
X307Y296D01*
X317Y296D02*
X319Y296D01*
X327Y296D02*
X329Y296D01*
X142Y295D02*
X143Y295D01*
X173Y295D02*
X174Y295D01*
X183Y295D02*
X184Y295D01*
X210Y295D02*
X217Y295D01*
X219Y295D02*
X220Y295D01*
X229Y295D02*
X237Y295D01*
X250Y295D02*
X255Y295D01*
X264Y295D02*
X273Y295D01*
X282Y295D02*
X288Y295D01*
X291Y295D02*
X293Y295D01*
X301Y295D02*
X309Y295D01*
X317Y295D02*
X319Y295D01*
X327Y295D02*
X328Y295D01*
X142Y294D02*
X143Y294D01*
X173Y294D02*
X174Y294D01*
X183Y294D02*
X184Y294D01*
X210Y294D02*
X220Y294D01*
X228Y294D02*
X238Y294D01*
X250Y294D02*
X255Y294D01*
X263Y294D02*
X274Y294D01*
X281Y294D02*
X289Y294D01*
X291Y294D02*
X293Y294D01*
X300Y294D02*
X310Y294D01*
X318Y294D02*
X320Y294D01*
X326Y294D02*
X328Y294D01*
X142Y293D02*
X143Y293D01*
X173Y293D02*
X174Y293D01*
X183Y293D02*
X184Y293D01*
X209Y293D02*
X211Y293D01*
X216Y293D02*
X220Y293D01*
X227Y293D02*
X229Y293D01*
X236Y293D02*
X238Y293D01*
X250Y293D02*
X252Y293D01*
X264Y293D02*
X264Y293D01*
X273Y293D02*
X274Y293D01*
X281Y293D02*
X283Y293D01*
X288Y293D02*
X293Y293D01*
X299Y293D02*
X301Y293D01*
X308Y293D02*
X310Y293D01*
X318Y293D02*
X320Y293D01*
X326Y293D02*
X328Y293D01*
X142Y292D02*
X143Y292D01*
X173Y292D02*
X174Y292D01*
X183Y292D02*
X184Y292D01*
X209Y292D02*
X211Y292D01*
X218Y292D02*
X220Y292D01*
X227Y292D02*
X229Y292D01*
X237Y292D02*
X238Y292D01*
X250Y292D02*
X252Y292D01*
X271Y292D02*
X274Y292D01*
X281Y292D02*
X283Y292D01*
X289Y292D02*
X293Y292D01*
X299Y292D02*
X301Y292D01*
X309Y292D02*
X311Y292D01*
X319Y292D02*
X320Y292D01*
X325Y292D02*
X327Y292D01*
X142Y291D02*
X143Y291D01*
X173Y291D02*
X174Y291D01*
X183Y291D02*
X184Y291D01*
X209Y291D02*
X211Y291D01*
X219Y291D02*
X220Y291D01*
X227Y291D02*
X229Y291D01*
X237Y291D02*
X238Y291D01*
X250Y291D02*
X252Y291D01*
X269Y291D02*
X273Y291D01*
X282Y291D02*
X282Y291D01*
X290Y291D02*
X293Y291D01*
X299Y291D02*
X301Y291D01*
X309Y291D02*
X311Y291D01*
X319Y291D02*
X321Y291D01*
X325Y291D02*
X327Y291D01*
X137Y290D02*
X138Y290D01*
X142Y290D02*
X143Y290D01*
X173Y290D02*
X174Y290D01*
X183Y290D02*
X184Y290D01*
X209Y290D02*
X211Y290D01*
X219Y290D02*
X220Y290D01*
X227Y290D02*
X229Y290D01*
X237Y290D02*
X238Y290D01*
X250Y290D02*
X252Y290D01*
X267Y290D02*
X272Y290D01*
X291Y290D02*
X293Y290D01*
X299Y290D02*
X301Y290D01*
X309Y290D02*
X311Y290D01*
X319Y290D02*
X321Y290D01*
X325Y290D02*
X326Y290D01*
X137Y289D02*
X138Y289D01*
X142Y289D02*
X143Y289D01*
X159Y289D02*
X163Y289D01*
X173Y289D02*
X174Y289D01*
X183Y289D02*
X184Y289D01*
X209Y289D02*
X211Y289D01*
X219Y289D02*
X220Y289D01*
X227Y289D02*
X229Y289D01*
X237Y289D02*
X238Y289D01*
X250Y289D02*
X252Y289D01*
X265Y289D02*
X270Y289D01*
X291Y289D02*
X293Y289D01*
X299Y289D02*
X311Y289D01*
X320Y289D02*
X322Y289D01*
X324Y289D02*
X326Y289D01*
X137Y288D02*
X138Y288D01*
X142Y288D02*
X143Y288D01*
X159Y288D02*
X163Y288D01*
X173Y288D02*
X174Y288D01*
X183Y288D02*
X184Y288D01*
X209Y288D02*
X211Y288D01*
X219Y288D02*
X220Y288D01*
X227Y288D02*
X229Y288D01*
X237Y288D02*
X238Y288D01*
X250Y288D02*
X252Y288D01*
X264Y288D02*
X268Y288D01*
X291Y288D02*
X293Y288D01*
X299Y288D02*
X311Y288D01*
X320Y288D02*
X322Y288D01*
X324Y288D02*
X326Y288D01*
X137Y287D02*
X138Y287D01*
X142Y287D02*
X143Y287D01*
X159Y287D02*
X163Y287D01*
X173Y287D02*
X174Y287D01*
X183Y287D02*
X184Y287D01*
X209Y287D02*
X211Y287D01*
X219Y287D02*
X220Y287D01*
X227Y287D02*
X229Y287D01*
X237Y287D02*
X238Y287D01*
X250Y287D02*
X252Y287D01*
X263Y287D02*
X265Y287D01*
X291Y287D02*
X293Y287D01*
X309Y287D02*
X311Y287D01*
X321Y287D02*
X325Y287D01*
X137Y286D02*
X138Y286D01*
X142Y286D02*
X143Y286D01*
X159Y286D02*
X162Y286D01*
X173Y286D02*
X174Y286D01*
X183Y286D02*
X184Y286D01*
X209Y286D02*
X211Y286D01*
X219Y286D02*
X220Y286D01*
X227Y286D02*
X229Y286D01*
X237Y286D02*
X238Y286D01*
X250Y286D02*
X252Y286D01*
X263Y286D02*
X265Y286D01*
X291Y286D02*
X293Y286D01*
X309Y286D02*
X310Y286D01*
X321Y286D02*
X325Y286D01*
X137Y285D02*
X138Y285D01*
X142Y285D02*
X143Y285D01*
X173Y285D02*
X175Y285D01*
X183Y285D02*
X184Y285D01*
X209Y285D02*
X211Y285D01*
X219Y285D02*
X220Y285D01*
X227Y285D02*
X230Y285D01*
X236Y285D02*
X238Y285D01*
X250Y285D02*
X252Y285D01*
X263Y285D02*
X265Y285D01*
X273Y285D02*
X274Y285D01*
X291Y285D02*
X293Y285D01*
X308Y285D02*
X310Y285D01*
X321Y285D02*
X324Y285D01*
X137Y284D02*
X148Y284D01*
X173Y284D02*
X184Y284D01*
X209Y284D02*
X211Y284D01*
X219Y284D02*
X220Y284D01*
X228Y284D02*
X237Y284D01*
X247Y284D02*
X255Y284D01*
X264Y284D02*
X274Y284D01*
X291Y284D02*
X293Y284D01*
X299Y284D02*
X310Y284D01*
X322Y284D02*
X324Y284D01*
X137Y283D02*
X148Y283D01*
X174Y283D02*
X184Y283D01*
X209Y283D02*
X210Y283D01*
X219Y283D02*
X220Y283D01*
X229Y283D02*
X236Y283D01*
X246Y283D02*
X255Y283D01*
X264Y283D02*
X273Y283D01*
X291Y283D02*
X292Y283D01*
X299Y283D02*
X308Y283D01*
X322Y283D02*
X324Y283D01*
X529Y238D02*
X530Y238D01*
X549Y238D02*
X550Y238D01*
X581Y238D02*
X583Y238D01*
X598Y238D02*
X600Y238D01*
X618Y238D02*
X620Y238D01*
X529Y237D02*
X531Y237D01*
X549Y237D02*
X551Y237D01*
X581Y237D02*
X583Y237D01*
X598Y237D02*
X600Y237D01*
X618Y237D02*
X620Y237D01*
X529Y236D02*
X531Y236D01*
X549Y236D02*
X551Y236D01*
X581Y236D02*
X584Y236D01*
X598Y236D02*
X600Y236D01*
X618Y236D02*
X620Y236D01*
X529Y235D02*
X531Y235D01*
X539Y235D02*
X540Y235D01*
X549Y235D02*
X551Y235D01*
X562Y235D02*
X574Y235D01*
X582Y235D02*
X584Y235D01*
X598Y235D02*
X600Y235D01*
X618Y235D02*
X620Y235D01*
X162Y234D02*
X169Y234D01*
X529Y234D02*
X531Y234D01*
X539Y234D02*
X541Y234D01*
X549Y234D02*
X551Y234D01*
X562Y234D02*
X574Y234D01*
X582Y234D02*
X584Y234D01*
X598Y234D02*
X600Y234D01*
X618Y234D02*
X620Y234D01*
X161Y233D02*
X169Y233D01*
X529Y233D02*
X531Y233D01*
X539Y233D02*
X541Y233D01*
X549Y233D02*
X551Y233D01*
X562Y233D02*
X574Y233D01*
X582Y233D02*
X584Y233D01*
X598Y233D02*
X600Y233D01*
X617Y233D02*
X620Y233D01*
X161Y232D02*
X169Y232D01*
X529Y232D02*
X531Y232D01*
X539Y232D02*
X541Y232D01*
X549Y232D02*
X551Y232D01*
X562Y232D02*
X564Y232D01*
X572Y232D02*
X574Y232D01*
X582Y232D02*
X584Y232D01*
X598Y232D02*
X620Y232D01*
X161Y231D02*
X170Y231D01*
X529Y231D02*
X531Y231D01*
X539Y231D02*
X541Y231D01*
X549Y231D02*
X551Y231D01*
X562Y231D02*
X564Y231D01*
X572Y231D02*
X574Y231D01*
X582Y231D02*
X584Y231D01*
X598Y231D02*
X620Y231D01*
X161Y230D02*
X170Y230D01*
X529Y230D02*
X531Y230D01*
X539Y230D02*
X541Y230D01*
X549Y230D02*
X551Y230D01*
X562Y230D02*
X564Y230D01*
X572Y230D02*
X574Y230D01*
X582Y230D02*
X584Y230D01*
X598Y230D02*
X620Y230D01*
X161Y229D02*
X170Y229D01*
X529Y229D02*
X531Y229D01*
X539Y229D02*
X541Y229D01*
X549Y229D02*
X551Y229D01*
X562Y229D02*
X564Y229D01*
X572Y229D02*
X574Y229D01*
X582Y229D02*
X584Y229D01*
X618Y229D02*
X620Y229D01*
X161Y228D02*
X170Y228D01*
X529Y228D02*
X531Y228D01*
X538Y228D02*
X541Y228D01*
X549Y228D02*
X551Y228D01*
X562Y228D02*
X564Y228D01*
X572Y228D02*
X574Y228D01*
X582Y228D02*
X584Y228D01*
X618Y228D02*
X620Y228D01*
X160Y227D02*
X170Y227D01*
X529Y227D02*
X551Y227D01*
X562Y227D02*
X564Y227D01*
X572Y227D02*
X584Y227D01*
X612Y227D02*
X620Y227D01*
X160Y226D02*
X171Y226D01*
X529Y226D02*
X550Y226D01*
X562Y226D02*
X564Y226D01*
X572Y226D02*
X584Y226D01*
X611Y226D02*
X620Y226D01*
X160Y225D02*
X171Y225D01*
X192Y225D02*
X192Y225D01*
X530Y225D02*
X539Y225D01*
X541Y225D02*
X550Y225D01*
X562Y225D02*
X564Y225D01*
X573Y225D02*
X583Y225D01*
X611Y225D02*
X620Y225D01*
X138Y224D02*
X140Y224D01*
X160Y224D02*
X171Y224D01*
X191Y224D02*
X193Y224D01*
X137Y223D02*
X141Y223D01*
X159Y223D02*
X171Y223D01*
X189Y223D02*
X194Y223D01*
X136Y222D02*
X143Y222D01*
X156Y222D02*
X175Y222D01*
X188Y222D02*
X195Y222D01*
X135Y221D02*
X144Y221D01*
X154Y221D02*
X177Y221D01*
X187Y221D02*
X196Y221D01*
X134Y220D02*
X146Y220D01*
X151Y220D02*
X179Y220D01*
X185Y220D02*
X197Y220D01*
X133Y219D02*
X147Y219D01*
X150Y219D02*
X181Y219D01*
X184Y219D02*
X197Y219D01*
X134Y218D02*
X197Y218D01*
X135Y217D02*
X196Y217D01*
X136Y216D02*
X195Y216D01*
X136Y215D02*
X194Y215D01*
X137Y214D02*
X194Y214D01*
X138Y213D02*
X193Y213D01*
X543Y213D02*
X546Y213D01*
X577Y213D02*
X579Y213D01*
X613Y213D02*
X615Y213D01*
X138Y212D02*
X192Y212D01*
X543Y212D02*
X547Y212D01*
X576Y212D02*
X580Y212D01*
X612Y212D02*
X616Y212D01*
X139Y211D02*
X192Y211D01*
X542Y211D02*
X547Y211D01*
X576Y211D02*
X580Y211D01*
X612Y211D02*
X616Y211D01*
X140Y210D02*
X191Y210D01*
X542Y210D02*
X547Y210D01*
X576Y210D02*
X580Y210D01*
X612Y210D02*
X616Y210D01*
X139Y209D02*
X191Y209D01*
X542Y209D02*
X547Y209D01*
X576Y209D02*
X580Y209D01*
X612Y209D02*
X616Y209D01*
X139Y208D02*
X160Y208D01*
X170Y208D02*
X192Y208D01*
X543Y208D02*
X547Y208D01*
X576Y208D02*
X580Y208D01*
X612Y208D02*
X616Y208D01*
X138Y207D02*
X157Y207D01*
X172Y207D02*
X193Y207D01*
X138Y206D02*
X156Y206D01*
X174Y206D02*
X193Y206D01*
X137Y205D02*
X154Y205D01*
X175Y205D02*
X194Y205D01*
X137Y204D02*
X153Y204D01*
X177Y204D02*
X194Y204D01*
X136Y203D02*
X152Y203D01*
X178Y203D02*
X194Y203D01*
X136Y202D02*
X151Y202D01*
X179Y202D02*
X195Y202D01*
X136Y201D02*
X150Y201D01*
X180Y201D02*
X195Y201D01*
X135Y200D02*
X149Y200D01*
X180Y200D02*
X195Y200D01*
X135Y199D02*
X149Y199D01*
X181Y199D02*
X196Y199D01*
X131Y198D02*
X148Y198D01*
X182Y198D02*
X200Y198D01*
X125Y197D02*
X147Y197D01*
X182Y197D02*
X205Y197D01*
X124Y196D02*
X147Y196D01*
X183Y196D02*
X207Y196D01*
X529Y196D02*
X530Y196D01*
X549Y196D02*
X550Y196D01*
X564Y196D02*
X582Y196D01*
X610Y196D02*
X618Y196D01*
X124Y195D02*
X147Y195D01*
X183Y195D02*
X207Y195D01*
X529Y195D02*
X531Y195D01*
X549Y195D02*
X551Y195D01*
X563Y195D02*
X584Y195D01*
X608Y195D02*
X619Y195D01*
X124Y194D02*
X146Y194D01*
X183Y194D02*
X207Y194D01*
X529Y194D02*
X531Y194D01*
X549Y194D02*
X551Y194D01*
X562Y194D02*
X584Y194D01*
X608Y194D02*
X620Y194D01*
X124Y193D02*
X146Y193D01*
X183Y193D02*
X207Y193D01*
X529Y193D02*
X531Y193D01*
X539Y193D02*
X540Y193D01*
X549Y193D02*
X551Y193D01*
X562Y193D02*
X564Y193D01*
X582Y193D02*
X584Y193D01*
X598Y193D02*
X610Y193D01*
X618Y193D02*
X620Y193D01*
X124Y192D02*
X146Y192D01*
X184Y192D02*
X207Y192D01*
X529Y192D02*
X531Y192D01*
X539Y192D02*
X541Y192D01*
X549Y192D02*
X551Y192D01*
X562Y192D02*
X564Y192D01*
X582Y192D02*
X584Y192D01*
X598Y192D02*
X610Y192D01*
X618Y192D02*
X620Y192D01*
X124Y191D02*
X146Y191D01*
X184Y191D02*
X207Y191D01*
X529Y191D02*
X531Y191D01*
X539Y191D02*
X541Y191D01*
X549Y191D02*
X551Y191D01*
X562Y191D02*
X564Y191D01*
X582Y191D02*
X584Y191D01*
X598Y191D02*
X610Y191D01*
X618Y191D02*
X620Y191D01*
X124Y190D02*
X146Y190D01*
X184Y190D02*
X207Y190D01*
X529Y190D02*
X531Y190D01*
X539Y190D02*
X541Y190D01*
X549Y190D02*
X551Y190D01*
X562Y190D02*
X564Y190D01*
X582Y190D02*
X584Y190D01*
X598Y190D02*
X600Y190D01*
X608Y190D02*
X610Y190D01*
X618Y190D02*
X620Y190D01*
X124Y189D02*
X146Y189D01*
X184Y189D02*
X207Y189D01*
X529Y189D02*
X531Y189D01*
X539Y189D02*
X541Y189D01*
X549Y189D02*
X551Y189D01*
X562Y189D02*
X564Y189D01*
X582Y189D02*
X584Y189D01*
X598Y189D02*
X600Y189D01*
X608Y189D02*
X610Y189D01*
X618Y189D02*
X620Y189D01*
X126Y188D02*
X146Y188D01*
X184Y188D02*
X204Y188D01*
X529Y188D02*
X531Y188D01*
X539Y188D02*
X541Y188D01*
X549Y188D02*
X551Y188D01*
X562Y188D02*
X564Y188D01*
X582Y188D02*
X584Y188D01*
X598Y188D02*
X600Y188D01*
X608Y188D02*
X610Y188D01*
X618Y188D02*
X620Y188D01*
X132Y187D02*
X146Y187D01*
X183Y187D02*
X199Y187D01*
X529Y187D02*
X531Y187D01*
X539Y187D02*
X541Y187D01*
X549Y187D02*
X551Y187D01*
X562Y187D02*
X564Y187D01*
X582Y187D02*
X584Y187D01*
X598Y187D02*
X610Y187D01*
X618Y187D02*
X620Y187D01*
X135Y186D02*
X146Y186D01*
X183Y186D02*
X196Y186D01*
X529Y186D02*
X531Y186D01*
X539Y186D02*
X541Y186D01*
X549Y186D02*
X551Y186D01*
X562Y186D02*
X564Y186D01*
X582Y186D02*
X584Y186D01*
X598Y186D02*
X610Y186D01*
X618Y186D02*
X620Y186D01*
X135Y185D02*
X147Y185D01*
X183Y185D02*
X195Y185D01*
X529Y185D02*
X531Y185D01*
X538Y185D02*
X541Y185D01*
X549Y185D02*
X551Y185D01*
X562Y185D02*
X564Y185D01*
X582Y185D02*
X584Y185D01*
X599Y185D02*
X610Y185D01*
X618Y185D02*
X620Y185D01*
X135Y184D02*
X147Y184D01*
X182Y184D02*
X195Y184D01*
X529Y184D02*
X551Y184D01*
X562Y184D02*
X584Y184D01*
X608Y184D02*
X620Y184D01*
X136Y183D02*
X148Y183D01*
X182Y183D02*
X195Y183D01*
X529Y183D02*
X550Y183D01*
X563Y183D02*
X584Y183D01*
X608Y183D02*
X619Y183D01*
X136Y182D02*
X148Y182D01*
X181Y182D02*
X195Y182D01*
X530Y182D02*
X538Y182D01*
X542Y182D02*
X549Y182D01*
X564Y182D02*
X582Y182D01*
X610Y182D02*
X618Y182D01*
X136Y181D02*
X149Y181D01*
X181Y181D02*
X194Y181D01*
X137Y180D02*
X149Y180D01*
X180Y180D02*
X194Y180D01*
X137Y179D02*
X150Y179D01*
X179Y179D02*
X193Y179D01*
X138Y178D02*
X151Y178D01*
X178Y178D02*
X193Y178D01*
X138Y177D02*
X152Y177D01*
X177Y177D02*
X192Y177D01*
X139Y176D02*
X153Y176D01*
X176Y176D02*
X192Y176D01*
X139Y175D02*
X155Y175D01*
X176Y175D02*
X191Y175D01*
X530Y175D02*
X535Y175D01*
X563Y175D02*
X568Y175D01*
X599Y175D02*
X604Y175D01*
X139Y174D02*
X155Y174D01*
X176Y174D02*
X192Y174D01*
X529Y174D02*
X537Y174D01*
X562Y174D02*
X571Y174D01*
X598Y174D02*
X607Y174D01*
X138Y173D02*
X154Y173D01*
X176Y173D02*
X193Y173D01*
X529Y173D02*
X540Y173D01*
X562Y173D02*
X573Y173D01*
X598Y173D02*
X609Y173D01*
X137Y172D02*
X154Y172D01*
X177Y172D02*
X193Y172D01*
X535Y172D02*
X543Y172D01*
X569Y172D02*
X576Y172D01*
X604Y172D02*
X612Y172D01*
X137Y171D02*
X153Y171D01*
X177Y171D02*
X194Y171D01*
X538Y171D02*
X545Y171D01*
X571Y171D02*
X579Y171D01*
X607Y171D02*
X614Y171D01*
X136Y170D02*
X153Y170D01*
X178Y170D02*
X195Y170D01*
X540Y170D02*
X548Y170D01*
X574Y170D02*
X581Y170D01*
X610Y170D02*
X617Y170D01*
X135Y169D02*
X153Y169D01*
X178Y169D02*
X195Y169D01*
X543Y169D02*
X550Y169D01*
X576Y169D02*
X583Y169D01*
X612Y169D02*
X619Y169D01*
X135Y168D02*
X152Y168D01*
X179Y168D02*
X196Y168D01*
X545Y168D02*
X551Y168D01*
X579Y168D02*
X584Y168D01*
X615Y168D02*
X620Y168D01*
X134Y167D02*
X152Y167D01*
X179Y167D02*
X197Y167D01*
X544Y167D02*
X550Y167D01*
X577Y167D02*
X584Y167D01*
X613Y167D02*
X620Y167D01*
X133Y166D02*
X151Y166D01*
X179Y166D02*
X197Y166D01*
X541Y166D02*
X549Y166D01*
X575Y166D02*
X582Y166D01*
X611Y166D02*
X618Y166D01*
X134Y165D02*
X145Y165D01*
X150Y165D02*
X151Y165D01*
X180Y165D02*
X181Y165D01*
X185Y165D02*
X197Y165D01*
X539Y165D02*
X546Y165D01*
X572Y165D02*
X580Y165D01*
X608Y165D02*
X615Y165D01*
X135Y164D02*
X144Y164D01*
X187Y164D02*
X196Y164D01*
X536Y164D02*
X544Y164D01*
X570Y164D02*
X577Y164D01*
X606Y164D02*
X613Y164D01*
X136Y163D02*
X142Y163D01*
X188Y163D02*
X195Y163D01*
X529Y163D02*
X541Y163D01*
X563Y163D02*
X574Y163D01*
X598Y163D02*
X610Y163D01*
X137Y162D02*
X141Y162D01*
X190Y162D02*
X194Y162D01*
X529Y162D02*
X538Y162D01*
X562Y162D02*
X572Y162D01*
X598Y162D02*
X608Y162D01*
X138Y161D02*
X140Y161D01*
X191Y161D02*
X193Y161D01*
X529Y161D02*
X536Y161D01*
X563Y161D02*
X569Y161D01*
X598Y161D02*
X605Y161D01*
X147Y153D02*
X147Y153D01*
X177Y153D02*
X177Y153D01*
X147Y152D02*
X147Y152D01*
X177Y152D02*
X177Y152D01*
X147Y151D02*
X147Y151D01*
X177Y151D02*
X177Y151D01*
X115Y150D02*
X117Y150D01*
X123Y150D02*
X125Y150D01*
X132Y150D02*
X134Y150D01*
X138Y150D02*
X138Y150D01*
X141Y150D02*
X141Y150D01*
X144Y150D02*
X144Y150D01*
X147Y150D02*
X151Y150D01*
X157Y150D02*
X159Y150D01*
X165Y150D02*
X167Y150D01*
X174Y150D02*
X177Y150D01*
X187Y150D02*
X191Y150D01*
X196Y150D02*
X200Y150D01*
X205Y150D02*
X209Y150D01*
X214Y150D02*
X217Y150D01*
X114Y149D02*
X115Y149D01*
X117Y149D02*
X118Y149D01*
X122Y149D02*
X123Y149D01*
X125Y149D02*
X126Y149D01*
X131Y149D02*
X132Y149D01*
X134Y149D02*
X135Y149D01*
X138Y149D02*
X138Y149D01*
X141Y149D02*
X141Y149D01*
X144Y149D02*
X145Y149D01*
X147Y149D02*
X149Y149D01*
X151Y149D02*
X152Y149D01*
X156Y149D02*
X157Y149D01*
X159Y149D02*
X160Y149D01*
X164Y149D02*
X165Y149D01*
X167Y149D02*
X168Y149D01*
X173Y149D02*
X174Y149D01*
X176Y149D02*
X177Y149D01*
X187Y149D02*
X188Y149D01*
X190Y149D02*
X192Y149D01*
X195Y149D02*
X197Y149D01*
X199Y149D02*
X201Y149D01*
X204Y149D02*
X206Y149D01*
X208Y149D02*
X209Y149D01*
X213Y149D02*
X215Y149D01*
X217Y149D02*
X218Y149D01*
X113Y148D02*
X114Y148D01*
X118Y148D02*
X118Y148D01*
X122Y148D02*
X122Y148D01*
X126Y148D02*
X127Y148D01*
X130Y148D02*
X131Y148D01*
X135Y148D02*
X135Y148D01*
X138Y148D02*
X138Y148D01*
X141Y148D02*
X141Y148D01*
X144Y148D02*
X145Y148D01*
X147Y148D02*
X147Y148D01*
X152Y148D02*
X152Y148D01*
X155Y148D02*
X156Y148D01*
X160Y148D02*
X160Y148D01*
X164Y148D02*
X164Y148D01*
X168Y148D02*
X169Y148D01*
X172Y148D02*
X173Y148D01*
X177Y148D02*
X177Y148D01*
X186Y148D02*
X187Y148D01*
X191Y148D02*
X192Y148D01*
X195Y148D02*
X196Y148D01*
X200Y148D02*
X201Y148D01*
X204Y148D02*
X205Y148D01*
X209Y148D02*
X210Y148D01*
X213Y148D02*
X214Y148D01*
X218Y148D02*
X219Y148D01*
X113Y147D02*
X114Y147D01*
X118Y147D02*
X119Y147D01*
X122Y147D02*
X122Y147D01*
X127Y147D02*
X127Y147D01*
X130Y147D02*
X131Y147D01*
X135Y147D02*
X135Y147D01*
X138Y147D02*
X138Y147D01*
X141Y147D02*
X141Y147D01*
X144Y147D02*
X145Y147D01*
X147Y147D02*
X147Y147D01*
X152Y147D02*
X152Y147D01*
X160Y147D02*
X161Y147D01*
X164Y147D02*
X165Y147D01*
X169Y147D02*
X169Y147D01*
X172Y147D02*
X172Y147D01*
X177Y147D02*
X177Y147D01*
X186Y147D02*
X187Y147D01*
X191Y147D02*
X192Y147D01*
X195Y147D02*
X198Y147D01*
X200Y147D02*
X201Y147D01*
X204Y147D02*
X205Y147D01*
X209Y147D02*
X210Y147D01*
X213Y147D02*
X214Y147D01*
X218Y147D02*
X219Y147D01*
X114Y146D02*
X119Y146D01*
X127Y146D02*
X127Y146D01*
X130Y146D02*
X133Y146D01*
X138Y146D02*
X138Y146D01*
X141Y146D02*
X141Y146D01*
X144Y146D02*
X145Y146D01*
X147Y146D02*
X147Y146D01*
X152Y146D02*
X152Y146D01*
X160Y146D02*
X161Y146D01*
X164Y146D02*
X167Y146D01*
X172Y146D02*
X172Y146D01*
X177Y146D02*
X177Y146D01*
X186Y146D02*
X187Y146D01*
X191Y146D02*
X192Y146D01*
X196Y146D02*
X201Y146D01*
X204Y146D02*
X205Y146D01*
X209Y146D02*
X210Y146D01*
X213Y146D02*
X214Y146D01*
X218Y146D02*
X219Y146D01*
X117Y145D02*
X119Y145D01*
X127Y145D02*
X127Y145D01*
X130Y145D02*
X130Y145D01*
X133Y145D02*
X135Y145D01*
X138Y145D02*
X138Y145D01*
X141Y145D02*
X141Y145D01*
X144Y145D02*
X145Y145D01*
X147Y145D02*
X147Y145D01*
X152Y145D02*
X152Y145D01*
X160Y145D02*
X161Y145D01*
X164Y145D02*
X164Y145D01*
X167Y145D02*
X168Y145D01*
X172Y145D02*
X172Y145D01*
X177Y145D02*
X177Y145D01*
X186Y145D02*
X187Y145D01*
X191Y145D02*
X192Y145D01*
X195Y145D02*
X196Y145D01*
X199Y145D02*
X201Y145D01*
X204Y145D02*
X205Y145D01*
X209Y145D02*
X210Y145D01*
X213Y145D02*
X214Y145D01*
X218Y145D02*
X219Y145D01*
X113Y144D02*
X114Y144D01*
X118Y144D02*
X119Y144D01*
X127Y144D02*
X127Y144D01*
X130Y144D02*
X130Y144D01*
X135Y144D02*
X135Y144D01*
X138Y144D02*
X138Y144D01*
X141Y144D02*
X141Y144D01*
X144Y144D02*
X145Y144D01*
X147Y144D02*
X147Y144D01*
X152Y144D02*
X152Y144D01*
X160Y144D02*
X161Y144D01*
X164Y144D02*
X164Y144D01*
X168Y144D02*
X169Y144D01*
X172Y144D02*
X172Y144D01*
X177Y144D02*
X177Y144D01*
X186Y144D02*
X187Y144D01*
X191Y144D02*
X192Y144D01*
X195Y144D02*
X196Y144D01*
X200Y144D02*
X201Y144D01*
X204Y144D02*
X205Y144D01*
X209Y144D02*
X210Y144D01*
X213Y144D02*
X214Y144D01*
X218Y144D02*
X219Y144D01*
X114Y143D02*
X114Y143D01*
X118Y143D02*
X118Y143D01*
X127Y143D02*
X127Y143D01*
X130Y143D02*
X130Y143D01*
X135Y143D02*
X135Y143D01*
X138Y143D02*
X138Y143D01*
X141Y143D02*
X141Y143D01*
X144Y143D02*
X144Y143D01*
X147Y143D02*
X148Y143D01*
X151Y143D02*
X152Y143D01*
X160Y143D02*
X161Y143D01*
X164Y143D02*
X164Y143D01*
X168Y143D02*
X169Y143D01*
X172Y143D02*
X172Y143D01*
X177Y143D02*
X177Y143D01*
X186Y143D02*
X187Y143D01*
X191Y143D02*
X192Y143D01*
X196Y143D02*
X197Y143D01*
X199Y143D02*
X201Y143D01*
X204Y143D02*
X206Y143D01*
X208Y143D02*
X210Y143D01*
X213Y143D02*
X215Y143D01*
X217Y143D02*
X218Y143D01*
X114Y142D02*
X118Y142D01*
X127Y142D02*
X127Y142D01*
X130Y142D02*
X130Y142D01*
X132Y142D02*
X135Y142D01*
X138Y142D02*
X144Y142D01*
X148Y142D02*
X151Y142D01*
X160Y142D02*
X161Y142D01*
X164Y142D02*
X164Y142D01*
X166Y142D02*
X168Y142D01*
X172Y142D02*
X172Y142D01*
X177Y142D02*
X177Y142D01*
X186Y142D02*
X187Y142D01*
X191Y142D02*
X192Y142D01*
X196Y142D02*
X200Y142D01*
X205Y142D02*
X210Y142D01*
X214Y142D02*
X217Y142D01*
X209Y141D02*
X210Y141D01*
X209Y140D02*
X210Y140D01*
X209Y139D02*
X210Y139D01*
X210Y138D02*
X210Y138D01*
X78Y133D02*
X79Y133D01*
X86Y133D02*
X94Y133D01*
X78Y132D02*
X79Y132D01*
X86Y132D02*
X95Y132D01*
X78Y131D02*
X79Y131D01*
X86Y131D02*
X87Y131D01*
X93Y131D02*
X95Y131D01*
X78Y130D02*
X79Y130D01*
X86Y130D02*
X87Y130D01*
X93Y130D02*
X95Y130D01*
X78Y129D02*
X79Y129D01*
X86Y129D02*
X87Y129D01*
X93Y129D02*
X95Y129D01*
X78Y128D02*
X79Y128D01*
X86Y128D02*
X87Y128D01*
X93Y128D02*
X95Y128D01*
X78Y127D02*
X79Y127D01*
X86Y127D02*
X87Y127D01*
X93Y127D02*
X95Y127D01*
X78Y126D02*
X79Y126D01*
X86Y126D02*
X87Y126D01*
X93Y126D02*
X95Y126D01*
X78Y125D02*
X80Y125D01*
X85Y125D02*
X87Y125D01*
X93Y125D02*
X95Y125D01*
X78Y124D02*
X87Y124D01*
X93Y124D02*
X95Y124D01*
X78Y123D02*
X86Y123D01*
X94Y123D02*
X94Y123D01*
X78Y117D02*
X81Y117D01*
X78Y116D02*
X84Y116D01*
X81Y115D02*
X88Y115D01*
X82Y114D02*
X91Y114D01*
X82Y113D02*
X83Y113D01*
X87Y113D02*
X94Y113D01*
X82Y112D02*
X83Y112D01*
X90Y112D02*
X95Y112D01*
X82Y111D02*
X83Y111D01*
X87Y111D02*
X94Y111D01*
X82Y110D02*
X90Y110D01*
X80Y109D02*
X87Y109D01*
X78Y108D02*
X84Y108D01*
X79Y107D02*
X80Y107D01*
X32Y36D02*
X41Y36D01*
X52Y36D02*
X53Y36D01*
X90Y36D02*
X91Y36D01*
X102Y36D02*
X103Y36D01*
X133Y36D02*
X140Y36D01*
X153Y36D02*
X154Y36D01*
X177Y36D02*
X187Y36D01*
X194Y36D02*
X201Y36D01*
X209Y36D02*
X217Y36D01*
X243Y36D02*
X252Y36D01*
X297Y36D02*
X302Y36D01*
X344Y36D02*
X353Y36D01*
X393Y36D02*
X402Y36D01*
X451Y36D02*
X451Y36D01*
X486Y36D02*
X486Y36D01*
X494Y36D02*
X494Y36D01*
X501Y36D02*
X507Y36D01*
X533Y36D02*
X538Y36D01*
X544Y36D02*
X544Y36D01*
X551Y36D02*
X553Y36D01*
X559Y36D02*
X563Y36D01*
X578Y36D02*
X583Y36D01*
X594Y36D02*
X598Y36D01*
X609Y36D02*
X609Y36D01*
X618Y36D02*
X618Y36D01*
X32Y35D02*
X41Y35D01*
X52Y35D02*
X53Y35D01*
X90Y35D02*
X91Y35D01*
X102Y35D02*
X103Y35D01*
X132Y35D02*
X140Y35D01*
X153Y35D02*
X154Y35D01*
X177Y35D02*
X187Y35D01*
X193Y35D02*
X202Y35D01*
X208Y35D02*
X217Y35D01*
X242Y35D02*
X252Y35D01*
X297Y35D02*
X302Y35D01*
X343Y35D02*
X353Y35D01*
X392Y35D02*
X402Y35D01*
X450Y35D02*
X451Y35D01*
X486Y35D02*
X487Y35D01*
X494Y35D02*
X495Y35D01*
X501Y35D02*
X508Y35D01*
X532Y35D02*
X538Y35D01*
X544Y35D02*
X545Y35D01*
X551Y35D02*
X553Y35D01*
X559Y35D02*
X564Y35D01*
X578Y35D02*
X584Y35D01*
X593Y35D02*
X600Y35D01*
X609Y35D02*
X610Y35D01*
X617Y35D02*
X618Y35D01*
X31Y34D02*
X33Y34D01*
X52Y34D02*
X54Y34D01*
X83Y34D02*
X84Y34D01*
X90Y34D02*
X91Y34D01*
X102Y34D02*
X104Y34D01*
X139Y34D02*
X140Y34D01*
X152Y34D02*
X155Y34D01*
X177Y34D02*
X179Y34D01*
X181Y34D02*
X183Y34D01*
X186Y34D02*
X187Y34D01*
X193Y34D02*
X194Y34D01*
X201Y34D02*
X202Y34D01*
X208Y34D02*
X209Y34D01*
X216Y34D02*
X217Y34D01*
X242Y34D02*
X244Y34D01*
X251Y34D02*
X252Y34D01*
X297Y34D02*
X298Y34D01*
X343Y34D02*
X344Y34D01*
X392Y34D02*
X401Y34D01*
X444Y34D02*
X444Y34D01*
X450Y34D02*
X451Y34D01*
X486Y34D02*
X487Y34D01*
X494Y34D02*
X495Y34D01*
X506Y34D02*
X508Y34D01*
X531Y34D02*
X533Y34D01*
X535Y34D02*
X536Y34D01*
X544Y34D02*
X545Y34D01*
X550Y34D02*
X553Y34D01*
X563Y34D02*
X565Y34D01*
X583Y34D02*
X585Y34D01*
X598Y34D02*
X600Y34D01*
X609Y34D02*
X610Y34D01*
X617Y34D02*
X618Y34D01*
X31Y33D02*
X33Y33D01*
X51Y33D02*
X54Y33D01*
X83Y33D02*
X84Y33D01*
X90Y33D02*
X91Y33D01*
X101Y33D02*
X104Y33D01*
X139Y33D02*
X140Y33D01*
X152Y33D02*
X155Y33D01*
X178Y33D02*
X178Y33D01*
X182Y33D02*
X183Y33D01*
X186Y33D02*
X186Y33D01*
X193Y33D02*
X193Y33D01*
X200Y33D02*
X202Y33D01*
X208Y33D02*
X209Y33D01*
X216Y33D02*
X217Y33D01*
X242Y33D02*
X244Y33D01*
X251Y33D02*
X252Y33D01*
X297Y33D02*
X298Y33D01*
X343Y33D02*
X344Y33D01*
X392Y33D02*
X393Y33D01*
X444Y33D02*
X445Y33D01*
X450Y33D02*
X451Y33D01*
X486Y33D02*
X487Y33D01*
X494Y33D02*
X495Y33D01*
X507Y33D02*
X508Y33D01*
X531Y33D02*
X532Y33D01*
X535Y33D02*
X536Y33D01*
X544Y33D02*
X545Y33D01*
X550Y33D02*
X553Y33D01*
X564Y33D02*
X566Y33D01*
X584Y33D02*
X585Y33D01*
X599Y33D02*
X601Y33D01*
X609Y33D02*
X610Y33D01*
X617Y33D02*
X618Y33D01*
X31Y32D02*
X33Y32D01*
X51Y32D02*
X54Y32D01*
X83Y32D02*
X84Y32D01*
X90Y32D02*
X91Y32D01*
X101Y32D02*
X104Y32D01*
X139Y32D02*
X140Y32D01*
X152Y32D02*
X155Y32D01*
X182Y32D02*
X183Y32D01*
X199Y32D02*
X201Y32D01*
X208Y32D02*
X209Y32D01*
X216Y32D02*
X217Y32D01*
X242Y32D02*
X244Y32D01*
X251Y32D02*
X252Y32D01*
X297Y32D02*
X298Y32D01*
X343Y32D02*
X344Y32D01*
X392Y32D02*
X393Y32D01*
X444Y32D02*
X445Y32D01*
X450Y32D02*
X451Y32D01*
X486Y32D02*
X487Y32D01*
X494Y32D02*
X495Y32D01*
X507Y32D02*
X508Y32D01*
X530Y32D02*
X532Y32D01*
X535Y32D02*
X536Y32D01*
X544Y32D02*
X545Y32D01*
X549Y32D02*
X553Y32D01*
X565Y32D02*
X567Y32D01*
X585Y32D02*
X586Y32D01*
X600Y32D02*
X601Y32D01*
X609Y32D02*
X610Y32D01*
X617Y32D02*
X618Y32D01*
X31Y31D02*
X33Y31D01*
X51Y31D02*
X55Y31D01*
X83Y31D02*
X84Y31D01*
X90Y31D02*
X91Y31D01*
X101Y31D02*
X105Y31D01*
X139Y31D02*
X140Y31D01*
X152Y31D02*
X155Y31D01*
X182Y31D02*
X183Y31D01*
X199Y31D02*
X200Y31D01*
X208Y31D02*
X217Y31D01*
X242Y31D02*
X244Y31D01*
X251Y31D02*
X252Y31D01*
X297Y31D02*
X298Y31D01*
X343Y31D02*
X344Y31D01*
X392Y31D02*
X393Y31D01*
X444Y31D02*
X445Y31D01*
X450Y31D02*
X451Y31D01*
X486Y31D02*
X487Y31D01*
X493Y31D02*
X495Y31D01*
X507Y31D02*
X508Y31D01*
X530Y31D02*
X531Y31D01*
X535Y31D02*
X536Y31D01*
X544Y31D02*
X545Y31D01*
X549Y31D02*
X550Y31D01*
X552Y31D02*
X553Y31D01*
X566Y31D02*
X567Y31D01*
X585Y31D02*
X586Y31D01*
X600Y31D02*
X602Y31D01*
X609Y31D02*
X610Y31D01*
X617Y31D02*
X618Y31D01*
X31Y30D02*
X33Y30D01*
X50Y30D02*
X52Y30D01*
X54Y30D02*
X55Y30D01*
X83Y30D02*
X84Y30D01*
X90Y30D02*
X91Y30D01*
X100Y30D02*
X102Y30D01*
X104Y30D02*
X105Y30D01*
X139Y30D02*
X140Y30D01*
X151Y30D02*
X156Y30D01*
X182Y30D02*
X183Y30D01*
X198Y30D02*
X199Y30D01*
X209Y30D02*
X217Y30D01*
X242Y30D02*
X244Y30D01*
X251Y30D02*
X252Y30D01*
X297Y30D02*
X298Y30D01*
X343Y30D02*
X344Y30D01*
X392Y30D02*
X393Y30D01*
X444Y30D02*
X445Y30D01*
X450Y30D02*
X451Y30D01*
X486Y30D02*
X487Y30D01*
X493Y30D02*
X494Y30D01*
X507Y30D02*
X508Y30D01*
X529Y30D02*
X531Y30D01*
X535Y30D02*
X536Y30D01*
X544Y30D02*
X545Y30D01*
X549Y30D02*
X550Y30D01*
X552Y30D02*
X553Y30D01*
X566Y30D02*
X568Y30D01*
X586Y30D02*
X587Y30D01*
X601Y30D02*
X602Y30D01*
X609Y30D02*
X610Y30D01*
X616Y30D02*
X618Y30D01*
X32Y29D02*
X34Y29D01*
X50Y29D02*
X51Y29D01*
X54Y29D02*
X55Y29D01*
X83Y29D02*
X84Y29D01*
X90Y29D02*
X91Y29D01*
X100Y29D02*
X101Y29D01*
X104Y29D02*
X105Y29D01*
X139Y29D02*
X140Y29D01*
X151Y29D02*
X152Y29D01*
X155Y29D02*
X156Y29D01*
X182Y29D02*
X183Y29D01*
X197Y29D02*
X199Y29D01*
X211Y29D02*
X217Y29D01*
X242Y29D02*
X244Y29D01*
X251Y29D02*
X252Y29D01*
X297Y29D02*
X298Y29D01*
X343Y29D02*
X352Y29D01*
X392Y29D02*
X394Y29D01*
X444Y29D02*
X445Y29D01*
X450Y29D02*
X451Y29D01*
X487Y29D02*
X488Y29D01*
X493Y29D02*
X494Y29D01*
X501Y29D02*
X508Y29D01*
X529Y29D02*
X530Y29D01*
X535Y29D02*
X536Y29D01*
X544Y29D02*
X545Y29D01*
X548Y29D02*
X549Y29D01*
X552Y29D02*
X553Y29D01*
X567Y29D02*
X568Y29D01*
X586Y29D02*
X587Y29D01*
X601Y29D02*
X603Y29D01*
X609Y29D02*
X611Y29D01*
X616Y29D02*
X617Y29D01*
X32Y28D02*
X39Y28D01*
X50Y28D02*
X51Y28D01*
X54Y28D02*
X56Y28D01*
X83Y28D02*
X84Y28D01*
X90Y28D02*
X91Y28D01*
X100Y28D02*
X101Y28D01*
X104Y28D02*
X105Y28D01*
X133Y28D02*
X140Y28D01*
X151Y28D02*
X152Y28D01*
X155Y28D02*
X156Y28D01*
X182Y28D02*
X183Y28D01*
X196Y28D02*
X198Y28D01*
X211Y28D02*
X213Y28D01*
X216Y28D02*
X217Y28D01*
X242Y28D02*
X244Y28D01*
X251Y28D02*
X252Y28D01*
X297Y28D02*
X298Y28D01*
X344Y28D02*
X353Y28D01*
X393Y28D02*
X400Y28D01*
X444Y28D02*
X445Y28D01*
X450Y28D02*
X451Y28D01*
X487Y28D02*
X488Y28D01*
X492Y28D02*
X493Y28D01*
X501Y28D02*
X508Y28D01*
X529Y28D02*
X530Y28D01*
X535Y28D02*
X536Y28D01*
X544Y28D02*
X545Y28D01*
X548Y28D02*
X549Y28D01*
X552Y28D02*
X553Y28D01*
X567Y28D02*
X568Y28D01*
X586Y28D02*
X587Y28D01*
X602Y28D02*
X603Y28D01*
X610Y28D02*
X611Y28D01*
X616Y28D02*
X617Y28D01*
X32Y27D02*
X39Y27D01*
X50Y27D02*
X51Y27D01*
X54Y27D02*
X56Y27D01*
X83Y27D02*
X85Y27D01*
X89Y27D02*
X91Y27D01*
X99Y27D02*
X101Y27D01*
X104Y27D02*
X106Y27D01*
X132Y27D02*
X140Y27D01*
X150Y27D02*
X152Y27D01*
X155Y27D02*
X157Y27D01*
X182Y27D02*
X183Y27D01*
X195Y27D02*
X197Y27D01*
X211Y27D02*
X212Y27D01*
X216Y27D02*
X217Y27D01*
X242Y27D02*
X244Y27D01*
X251Y27D02*
X252Y27D01*
X297Y27D02*
X298Y27D01*
X345Y27D02*
X353Y27D01*
X393Y27D02*
X400Y27D01*
X443Y27D02*
X445Y27D01*
X450Y27D02*
X451Y27D01*
X487Y27D02*
X489Y27D01*
X492Y27D02*
X493Y27D01*
X500Y27D02*
X502Y27D01*
X529Y27D02*
X530Y27D01*
X535Y27D02*
X536Y27D01*
X544Y27D02*
X545Y27D01*
X547Y27D02*
X549Y27D01*
X552Y27D02*
X553Y27D01*
X559Y27D02*
X563Y27D01*
X567Y27D02*
X568Y27D01*
X586Y27D02*
X587Y27D01*
X601Y27D02*
X603Y27D01*
X610Y27D02*
X612Y27D01*
X615Y27D02*
X617Y27D01*
X32Y26D02*
X33Y26D01*
X49Y26D02*
X51Y26D01*
X55Y26D02*
X56Y26D01*
X82Y26D02*
X91Y26D01*
X99Y26D02*
X101Y26D01*
X105Y26D02*
X106Y26D01*
X132Y26D02*
X134Y26D01*
X150Y26D02*
X152Y26D01*
X156Y26D02*
X157Y26D01*
X182Y26D02*
X183Y26D01*
X195Y26D02*
X196Y26D01*
X210Y26D02*
X212Y26D01*
X216Y26D02*
X217Y26D01*
X242Y26D02*
X244Y26D01*
X251Y26D02*
X252Y26D01*
X293Y26D02*
X294Y26D01*
X297Y26D02*
X298Y26D01*
X352Y26D02*
X353Y26D01*
X392Y26D02*
X394Y26D01*
X443Y26D02*
X451Y26D01*
X488Y26D02*
X489Y26D01*
X491Y26D02*
X493Y26D01*
X500Y26D02*
X502Y26D01*
X530Y26D02*
X531Y26D01*
X535Y26D02*
X536Y26D01*
X544Y26D02*
X545Y26D01*
X547Y26D02*
X548Y26D01*
X552Y26D02*
X553Y26D01*
X559Y26D02*
X562Y26D01*
X567Y26D02*
X568Y26D01*
X586Y26D02*
X587Y26D01*
X601Y26D02*
X602Y26D01*
X611Y26D02*
X612Y26D01*
X615Y26D02*
X616Y26D01*
X31Y25D02*
X33Y25D01*
X49Y25D02*
X56Y25D01*
X82Y25D02*
X91Y25D01*
X99Y25D02*
X106Y25D01*
X132Y25D02*
X134Y25D01*
X150Y25D02*
X157Y25D01*
X182Y25D02*
X183Y25D01*
X194Y25D02*
X196Y25D01*
X210Y25D02*
X211Y25D01*
X216Y25D02*
X217Y25D01*
X242Y25D02*
X244Y25D01*
X251Y25D02*
X252Y25D01*
X292Y25D02*
X294Y25D01*
X297Y25D02*
X298Y25D01*
X352Y25D02*
X353Y25D01*
X392Y25D02*
X393Y25D01*
X443Y25D02*
X451Y25D01*
X488Y25D02*
X489Y25D01*
X491Y25D02*
X492Y25D01*
X500Y25D02*
X502Y25D01*
X530Y25D02*
X531Y25D01*
X535Y25D02*
X536Y25D01*
X544Y25D02*
X548Y25D01*
X552Y25D02*
X553Y25D01*
X559Y25D02*
X560Y25D01*
X567Y25D02*
X568Y25D01*
X585Y25D02*
X587Y25D01*
X601Y25D02*
X602Y25D01*
X611Y25D02*
X612Y25D01*
X614Y25D02*
X616Y25D01*
X31Y24D02*
X33Y24D01*
X49Y24D02*
X57Y24D01*
X83Y24D02*
X84Y24D01*
X99Y24D02*
X107Y24D01*
X132Y24D02*
X134Y24D01*
X150Y24D02*
X158Y24D01*
X182Y24D02*
X183Y24D01*
X193Y24D02*
X195Y24D01*
X209Y24D02*
X211Y24D01*
X216Y24D02*
X217Y24D01*
X242Y24D02*
X244Y24D01*
X251Y24D02*
X252Y24D01*
X292Y24D02*
X294Y24D01*
X297Y24D02*
X298Y24D01*
X352Y24D02*
X353Y24D01*
X392Y24D02*
X393Y24D01*
X444Y24D02*
X445Y24D01*
X489Y24D02*
X492Y24D01*
X500Y24D02*
X502Y24D01*
X531Y24D02*
X532Y24D01*
X535Y24D02*
X536Y24D01*
X544Y24D02*
X547Y24D01*
X552Y24D02*
X553Y24D01*
X559Y24D02*
X560Y24D01*
X567Y24D02*
X568Y24D01*
X585Y24D02*
X586Y24D01*
X600Y24D02*
X601Y24D01*
X611Y24D02*
X615Y24D01*
X31Y23D02*
X33Y23D01*
X48Y23D02*
X57Y23D01*
X83Y23D02*
X84Y23D01*
X98Y23D02*
X107Y23D01*
X132Y23D02*
X134Y23D01*
X149Y23D02*
X158Y23D01*
X182Y23D02*
X183Y23D01*
X193Y23D02*
X194Y23D01*
X201Y23D02*
X202Y23D01*
X209Y23D02*
X210Y23D01*
X216Y23D02*
X217Y23D01*
X242Y23D02*
X244Y23D01*
X251Y23D02*
X252Y23D01*
X292Y23D02*
X294Y23D01*
X297Y23D02*
X298Y23D01*
X352Y23D02*
X353Y23D01*
X392Y23D02*
X393Y23D01*
X444Y23D02*
X445Y23D01*
X489Y23D02*
X492Y23D01*
X500Y23D02*
X502Y23D01*
X509Y23D02*
X509Y23D01*
X531Y23D02*
X532Y23D01*
X535Y23D02*
X536Y23D01*
X544Y23D02*
X547Y23D01*
X552Y23D02*
X553Y23D01*
X559Y23D02*
X560Y23D01*
X567Y23D02*
X568Y23D01*
X584Y23D02*
X586Y23D01*
X600Y23D02*
X601Y23D01*
X612Y23D02*
X615Y23D01*
X31Y22D02*
X33Y22D01*
X48Y22D02*
X49Y22D01*
X56Y22D02*
X57Y22D01*
X83Y22D02*
X84Y22D01*
X98Y22D02*
X99Y22D01*
X106Y22D02*
X107Y22D01*
X132Y22D02*
X134Y22D01*
X142Y22D02*
X142Y22D01*
X149Y22D02*
X150Y22D01*
X157Y22D02*
X158Y22D01*
X182Y22D02*
X183Y22D01*
X193Y22D02*
X202Y22D01*
X208Y22D02*
X209Y22D01*
X216Y22D02*
X217Y22D01*
X242Y22D02*
X244Y22D01*
X251Y22D02*
X252Y22D01*
X292Y22D02*
X294Y22D01*
X297Y22D02*
X298Y22D01*
X352Y22D02*
X353Y22D01*
X392Y22D02*
X393Y22D01*
X444Y22D02*
X445Y22D01*
X489Y22D02*
X491Y22D01*
X500Y22D02*
X510Y22D01*
X532Y22D02*
X538Y22D01*
X544Y22D02*
X546Y22D01*
X552Y22D02*
X553Y22D01*
X559Y22D02*
X567Y22D01*
X583Y22D02*
X585Y22D01*
X599Y22D02*
X600Y22D01*
X612Y22D02*
X615Y22D01*
X31Y21D02*
X41Y21D01*
X48Y21D02*
X49Y21D01*
X56Y21D02*
X58Y21D01*
X83Y21D02*
X84Y21D01*
X98Y21D02*
X99Y21D01*
X106Y21D02*
X108Y21D01*
X132Y21D02*
X142Y21D01*
X149Y21D02*
X150Y21D01*
X157Y21D02*
X158Y21D01*
X182Y21D02*
X183Y21D01*
X193Y21D02*
X201Y21D01*
X208Y21D02*
X209Y21D01*
X216Y21D02*
X217Y21D01*
X242Y21D02*
X252Y21D01*
X292Y21D02*
X302Y21D01*
X343Y21D02*
X353Y21D01*
X392Y21D02*
X401Y21D01*
X444Y21D02*
X445Y21D01*
X490Y21D02*
X491Y21D01*
X501Y21D02*
X509Y21D01*
X533Y21D02*
X538Y21D01*
X544Y21D02*
X546Y21D01*
X552Y21D02*
X553Y21D01*
X560Y21D02*
X567Y21D01*
X578Y21D02*
X584Y21D01*
X593Y21D02*
X600Y21D01*
X613Y21D02*
X614Y21D01*
X32Y20D02*
X41Y20D01*
X48Y20D02*
X49Y20D01*
X57Y20D02*
X58Y20D01*
X83Y20D02*
X84Y20D01*
X98Y20D02*
X99Y20D01*
X106Y20D02*
X108Y20D01*
X133Y20D02*
X142Y20D01*
X149Y20D02*
X150Y20D01*
X157Y20D02*
X159Y20D01*
X243Y20D02*
X252Y20D01*
X293Y20D02*
X303Y20D01*
X343Y20D02*
X353Y20D01*
X392Y20D02*
X402Y20D01*
X444Y20D02*
X445Y20D01*
X578Y20D02*
X583Y20D01*
X594Y20D02*
X599Y20D01*
X613Y20D02*
X614Y20D01*
X134Y19D02*
X139Y19D01*
X294Y19D02*
X301Y19D01*
X393Y19D02*
X401Y19D01*
X444Y19D02*
X444Y19D01*
D02*
G04 End of Silk0*
M02*