G04 MADE WITH FRITZING*
G04 WWW.FRITZING.ORG*
G04 DOUBLE SIDED*
G04 HOLES PLATED*
G04 CONTOUR ON CENTER OF CONTOUR VECTOR*
%ASAXBY*%
%FSLAX23Y23*%
%MOIN*%
%OFA0B0*%
%SFA1.0B1.0*%
%ADD10R,0.649606X0.456693X0.633606X0.440693*%
%ADD11C,0.008000*%
%ADD12C,0.005865*%
%ADD13R,0.001000X0.001000*%
%LNSILK1*%
G90*
G70*
G54D11*
X4Y453D02*
X646Y453D01*
X646Y4D01*
X4Y4D01*
X4Y453D01*
D02*
X481Y226D02*
X515Y226D01*
D02*
X515Y114D02*
X481Y114D01*
D02*
X466Y159D02*
X466Y181D01*
D02*
X357Y265D02*
X357Y316D01*
D02*
X499Y316D02*
X499Y265D01*
G54D12*
D02*
X123Y300D02*
X111Y300D01*
D02*
X111Y288D02*
X111Y300D01*
D02*
X265Y300D02*
X277Y300D01*
D02*
X277Y300D02*
X277Y288D01*
D02*
X111Y148D02*
X111Y136D01*
D02*
X111Y136D02*
X123Y136D01*
D02*
X265Y136D02*
X277Y148D01*
G54D13*
X22Y441D02*
X27Y441D01*
X37Y441D02*
X47Y441D01*
X54Y441D02*
X62Y441D01*
X581Y441D02*
X588Y441D01*
X596Y441D02*
X596Y441D01*
X605Y441D02*
X605Y441D01*
X21Y440D02*
X28Y440D01*
X37Y440D02*
X48Y440D01*
X54Y440D02*
X63Y440D01*
X82Y440D02*
X87Y440D01*
X98Y440D02*
X107Y440D01*
X131Y440D02*
X136Y440D01*
X147Y440D02*
X156Y440D01*
X181Y440D02*
X186Y440D01*
X197Y440D02*
X202Y440D01*
X230Y440D02*
X236Y440D01*
X247Y440D02*
X255Y440D01*
X287Y440D02*
X297Y440D01*
X341Y440D02*
X346Y440D01*
X388Y440D02*
X398Y440D01*
X438Y440D02*
X441Y440D01*
X490Y440D02*
X498Y440D01*
X526Y440D02*
X531Y440D01*
X538Y440D02*
X540Y440D01*
X547Y440D02*
X548Y440D01*
X554Y440D02*
X560Y440D01*
X581Y440D02*
X589Y440D01*
X595Y440D02*
X596Y440D01*
X604Y440D02*
X605Y440D01*
X23Y439D02*
X29Y439D01*
X37Y439D02*
X39Y439D01*
X41Y439D02*
X44Y439D01*
X46Y439D02*
X48Y439D01*
X54Y439D02*
X55Y439D01*
X61Y439D02*
X63Y439D01*
X82Y439D02*
X87Y439D01*
X98Y439D02*
X108Y439D01*
X131Y439D02*
X136Y439D01*
X147Y439D02*
X157Y439D01*
X181Y439D02*
X186Y439D01*
X197Y439D02*
X202Y439D01*
X230Y439D02*
X236Y439D01*
X246Y439D02*
X256Y439D01*
X287Y439D02*
X297Y439D01*
X340Y439D02*
X346Y439D01*
X388Y439D02*
X398Y439D01*
X438Y439D02*
X440Y439D01*
X490Y439D02*
X497Y439D01*
X525Y439D02*
X531Y439D01*
X538Y439D02*
X540Y439D01*
X546Y439D02*
X548Y439D01*
X554Y439D02*
X561Y439D01*
X581Y439D02*
X588Y439D01*
X595Y439D02*
X596Y439D01*
X604Y439D02*
X605Y439D01*
X23Y438D02*
X25Y438D01*
X28Y438D02*
X29Y438D01*
X37Y438D02*
X38Y438D01*
X42Y438D02*
X43Y438D01*
X46Y438D02*
X47Y438D01*
X54Y438D02*
X55Y438D01*
X62Y438D02*
X64Y438D01*
X86Y438D02*
X87Y438D01*
X106Y438D02*
X108Y438D01*
X135Y438D02*
X136Y438D01*
X156Y438D02*
X157Y438D01*
X185Y438D02*
X186Y438D01*
X201Y438D02*
X202Y438D01*
X234Y438D02*
X236Y438D01*
X246Y438D02*
X248Y438D01*
X255Y438D02*
X256Y438D01*
X287Y438D02*
X288Y438D01*
X296Y438D02*
X297Y438D01*
X340Y438D02*
X342Y438D01*
X345Y438D02*
X346Y438D01*
X388Y438D02*
X388Y438D01*
X397Y438D02*
X398Y438D01*
X438Y438D02*
X440Y438D01*
X490Y438D02*
X491Y438D01*
X524Y438D02*
X526Y438D01*
X538Y438D02*
X541Y438D01*
X546Y438D02*
X548Y438D01*
X556Y438D02*
X557Y438D01*
X560Y438D02*
X562Y438D01*
X581Y438D02*
X582Y438D01*
X595Y438D02*
X596Y438D01*
X604Y438D02*
X605Y438D01*
X23Y437D02*
X25Y437D01*
X28Y437D02*
X30Y437D01*
X42Y437D02*
X43Y437D01*
X54Y437D02*
X55Y437D01*
X62Y437D02*
X64Y437D01*
X86Y437D02*
X87Y437D01*
X106Y437D02*
X108Y437D01*
X135Y437D02*
X136Y437D01*
X156Y437D02*
X157Y437D01*
X185Y437D02*
X186Y437D01*
X201Y437D02*
X202Y437D01*
X234Y437D02*
X236Y437D01*
X246Y437D02*
X247Y437D01*
X255Y437D02*
X256Y437D01*
X287Y437D02*
X288Y437D01*
X296Y437D02*
X297Y437D01*
X340Y437D02*
X342Y437D01*
X345Y437D02*
X346Y437D01*
X397Y437D02*
X398Y437D01*
X438Y437D02*
X440Y437D01*
X490Y437D02*
X491Y437D01*
X524Y437D02*
X525Y437D01*
X538Y437D02*
X541Y437D01*
X546Y437D02*
X548Y437D01*
X556Y437D02*
X557Y437D01*
X560Y437D02*
X562Y437D01*
X581Y437D02*
X582Y437D01*
X595Y437D02*
X596Y437D01*
X604Y437D02*
X605Y437D01*
X23Y436D02*
X25Y436D01*
X29Y436D02*
X30Y436D01*
X42Y436D02*
X43Y436D01*
X54Y436D02*
X55Y436D01*
X62Y436D02*
X64Y436D01*
X86Y436D02*
X87Y436D01*
X106Y436D02*
X108Y436D01*
X135Y436D02*
X136Y436D01*
X156Y436D02*
X157Y436D01*
X185Y436D02*
X186Y436D01*
X201Y436D02*
X202Y436D01*
X234Y436D02*
X236Y436D01*
X246Y436D02*
X247Y436D01*
X255Y436D02*
X256Y436D01*
X287Y436D02*
X288Y436D01*
X296Y436D02*
X297Y436D01*
X340Y436D02*
X342Y436D01*
X345Y436D02*
X346Y436D01*
X397Y436D02*
X398Y436D01*
X438Y436D02*
X440Y436D01*
X490Y436D02*
X491Y436D01*
X523Y436D02*
X525Y436D01*
X538Y436D02*
X542Y436D01*
X546Y436D02*
X548Y436D01*
X556Y436D02*
X557Y436D01*
X561Y436D02*
X563Y436D01*
X581Y436D02*
X582Y436D01*
X595Y436D02*
X597Y436D01*
X604Y436D02*
X605Y436D01*
X23Y435D02*
X25Y435D01*
X29Y435D02*
X31Y435D01*
X42Y435D02*
X43Y435D01*
X54Y435D02*
X63Y435D01*
X86Y435D02*
X87Y435D01*
X106Y435D02*
X108Y435D01*
X135Y435D02*
X136Y435D01*
X156Y435D02*
X157Y435D01*
X185Y435D02*
X186Y435D01*
X201Y435D02*
X202Y435D01*
X234Y435D02*
X236Y435D01*
X246Y435D02*
X247Y435D01*
X255Y435D02*
X256Y435D01*
X287Y435D02*
X297Y435D01*
X340Y435D02*
X342Y435D01*
X345Y435D02*
X346Y435D01*
X397Y435D02*
X398Y435D01*
X438Y435D02*
X440Y435D01*
X490Y435D02*
X491Y435D01*
X522Y435D02*
X524Y435D01*
X538Y435D02*
X539Y435D01*
X541Y435D02*
X542Y435D01*
X546Y435D02*
X548Y435D01*
X556Y435D02*
X557Y435D01*
X561Y435D02*
X563Y435D01*
X581Y435D02*
X582Y435D01*
X596Y435D02*
X597Y435D01*
X603Y435D02*
X605Y435D01*
X23Y434D02*
X25Y434D01*
X30Y434D02*
X31Y434D01*
X42Y434D02*
X43Y434D01*
X54Y434D02*
X62Y434D01*
X86Y434D02*
X87Y434D01*
X106Y434D02*
X108Y434D01*
X135Y434D02*
X136Y434D01*
X156Y434D02*
X157Y434D01*
X185Y434D02*
X186Y434D01*
X201Y434D02*
X202Y434D01*
X234Y434D02*
X236Y434D01*
X246Y434D02*
X247Y434D01*
X255Y434D02*
X256Y434D01*
X287Y434D02*
X297Y434D01*
X340Y434D02*
X342Y434D01*
X345Y434D02*
X346Y434D01*
X396Y434D02*
X398Y434D01*
X438Y434D02*
X440Y434D01*
X490Y434D02*
X491Y434D01*
X522Y434D02*
X523Y434D01*
X538Y434D02*
X539Y434D01*
X541Y434D02*
X543Y434D01*
X546Y434D02*
X548Y434D01*
X556Y434D02*
X557Y434D01*
X562Y434D02*
X563Y434D01*
X581Y434D02*
X583Y434D01*
X596Y434D02*
X597Y434D01*
X603Y434D02*
X605Y434D01*
X23Y433D02*
X25Y433D01*
X30Y433D02*
X31Y433D01*
X42Y433D02*
X43Y433D01*
X54Y433D02*
X55Y433D01*
X57Y433D02*
X59Y433D01*
X86Y433D02*
X87Y433D01*
X100Y433D02*
X107Y433D01*
X135Y433D02*
X136Y433D01*
X149Y433D02*
X157Y433D01*
X185Y433D02*
X186Y433D01*
X201Y433D02*
X202Y433D01*
X234Y433D02*
X236Y433D01*
X246Y433D02*
X247Y433D01*
X255Y433D02*
X256Y433D01*
X288Y433D02*
X297Y433D01*
X340Y433D02*
X342Y433D01*
X345Y433D02*
X346Y433D01*
X395Y433D02*
X397Y433D01*
X438Y433D02*
X440Y433D01*
X490Y433D02*
X496Y433D01*
X521Y433D02*
X523Y433D01*
X538Y433D02*
X539Y433D01*
X541Y433D02*
X543Y433D01*
X546Y433D02*
X548Y433D01*
X556Y433D02*
X557Y433D01*
X562Y433D02*
X564Y433D01*
X581Y433D02*
X588Y433D01*
X596Y433D02*
X598Y433D01*
X603Y433D02*
X604Y433D01*
X23Y432D02*
X25Y432D01*
X30Y432D02*
X31Y432D01*
X42Y432D02*
X43Y432D01*
X54Y432D02*
X55Y432D01*
X58Y432D02*
X60Y432D01*
X86Y432D02*
X87Y432D01*
X100Y432D02*
X107Y432D01*
X135Y432D02*
X136Y432D01*
X147Y432D02*
X157Y432D01*
X185Y432D02*
X186Y432D01*
X201Y432D02*
X202Y432D01*
X234Y432D02*
X236Y432D01*
X246Y432D02*
X247Y432D01*
X255Y432D02*
X256Y432D01*
X296Y432D02*
X297Y432D01*
X339Y432D02*
X348Y432D01*
X393Y432D02*
X396Y432D01*
X438Y432D02*
X440Y432D01*
X490Y432D02*
X497Y432D01*
X521Y432D02*
X523Y432D01*
X538Y432D02*
X539Y432D01*
X542Y432D02*
X543Y432D01*
X546Y432D02*
X548Y432D01*
X556Y432D02*
X557Y432D01*
X563Y432D02*
X564Y432D01*
X581Y432D02*
X589Y432D01*
X597Y432D02*
X598Y432D01*
X602Y432D02*
X604Y432D01*
X23Y431D02*
X25Y431D01*
X30Y431D02*
X31Y431D01*
X42Y431D02*
X43Y431D01*
X54Y431D02*
X55Y431D01*
X59Y431D02*
X60Y431D01*
X86Y431D02*
X87Y431D01*
X91Y431D02*
X91Y431D01*
X101Y431D02*
X107Y431D01*
X135Y431D02*
X136Y431D01*
X140Y431D02*
X140Y431D01*
X147Y431D02*
X155Y431D01*
X185Y431D02*
X186Y431D01*
X190Y431D02*
X190Y431D01*
X201Y431D02*
X202Y431D01*
X206Y431D02*
X206Y431D01*
X234Y431D02*
X236Y431D01*
X246Y431D02*
X247Y431D01*
X255Y431D02*
X256Y431D01*
X296Y431D02*
X297Y431D01*
X338Y431D02*
X348Y431D01*
X392Y431D02*
X395Y431D01*
X438Y431D02*
X448Y431D01*
X490Y431D02*
X498Y431D01*
X521Y431D02*
X523Y431D01*
X528Y431D02*
X531Y431D01*
X538Y431D02*
X539Y431D01*
X542Y431D02*
X544Y431D01*
X546Y431D02*
X548Y431D01*
X556Y431D02*
X557Y431D01*
X562Y431D02*
X564Y431D01*
X588Y431D02*
X589Y431D01*
X597Y431D02*
X599Y431D01*
X602Y431D02*
X603Y431D01*
X23Y430D02*
X25Y430D01*
X29Y430D02*
X31Y430D01*
X42Y430D02*
X43Y430D01*
X54Y430D02*
X55Y430D01*
X59Y430D02*
X61Y430D01*
X86Y430D02*
X87Y430D01*
X90Y430D02*
X92Y430D01*
X106Y430D02*
X108Y430D01*
X135Y430D02*
X136Y430D01*
X140Y430D02*
X141Y430D01*
X147Y430D02*
X148Y430D01*
X185Y430D02*
X186Y430D01*
X189Y430D02*
X191Y430D01*
X201Y430D02*
X202Y430D01*
X206Y430D02*
X207Y430D01*
X234Y430D02*
X236Y430D01*
X239Y430D02*
X240Y430D01*
X246Y430D02*
X247Y430D01*
X255Y430D02*
X256Y430D01*
X296Y430D02*
X297Y430D01*
X338Y430D02*
X340Y430D01*
X347Y430D02*
X348Y430D01*
X392Y430D02*
X394Y430D01*
X438Y430D02*
X449Y430D01*
X496Y430D02*
X498Y430D01*
X521Y430D02*
X523Y430D01*
X527Y430D02*
X532Y430D01*
X538Y430D02*
X539Y430D01*
X543Y430D02*
X544Y430D01*
X546Y430D02*
X548Y430D01*
X556Y430D02*
X557Y430D01*
X562Y430D02*
X563Y430D01*
X588Y430D02*
X589Y430D01*
X597Y430D02*
X599Y430D01*
X602Y430D02*
X603Y430D01*
X23Y429D02*
X25Y429D01*
X29Y429D02*
X30Y429D01*
X42Y429D02*
X43Y429D01*
X54Y429D02*
X55Y429D01*
X60Y429D02*
X61Y429D01*
X86Y429D02*
X87Y429D01*
X90Y429D02*
X92Y429D01*
X106Y429D02*
X108Y429D01*
X135Y429D02*
X136Y429D01*
X140Y429D02*
X141Y429D01*
X147Y429D02*
X148Y429D01*
X185Y429D02*
X186Y429D01*
X189Y429D02*
X191Y429D01*
X201Y429D02*
X202Y429D01*
X206Y429D02*
X207Y429D01*
X234Y429D02*
X236Y429D01*
X239Y429D02*
X240Y429D01*
X246Y429D02*
X247Y429D01*
X255Y429D02*
X256Y429D01*
X296Y429D02*
X297Y429D01*
X338Y429D02*
X340Y429D01*
X347Y429D02*
X348Y429D01*
X392Y429D02*
X393Y429D01*
X438Y429D02*
X440Y429D01*
X447Y429D02*
X449Y429D01*
X496Y429D02*
X498Y429D01*
X521Y429D02*
X523Y429D01*
X528Y429D02*
X532Y429D01*
X538Y429D02*
X539Y429D01*
X543Y429D02*
X548Y429D01*
X556Y429D02*
X557Y429D01*
X561Y429D02*
X563Y429D01*
X588Y429D02*
X589Y429D01*
X598Y429D02*
X599Y429D01*
X601Y429D02*
X603Y429D01*
X23Y428D02*
X25Y428D01*
X28Y428D02*
X30Y428D01*
X42Y428D02*
X43Y428D01*
X54Y428D02*
X55Y428D01*
X60Y428D02*
X62Y428D01*
X86Y428D02*
X87Y428D01*
X90Y428D02*
X92Y428D01*
X106Y428D02*
X108Y428D01*
X135Y428D02*
X136Y428D01*
X140Y428D02*
X141Y428D01*
X147Y428D02*
X148Y428D01*
X185Y428D02*
X186Y428D01*
X189Y428D02*
X191Y428D01*
X201Y428D02*
X202Y428D01*
X206Y428D02*
X207Y428D01*
X234Y428D02*
X236Y428D01*
X239Y428D02*
X240Y428D01*
X246Y428D02*
X247Y428D01*
X255Y428D02*
X256Y428D01*
X296Y428D02*
X297Y428D01*
X338Y428D02*
X340Y428D01*
X347Y428D02*
X348Y428D01*
X392Y428D02*
X393Y428D01*
X438Y428D02*
X440Y428D01*
X447Y428D02*
X449Y428D01*
X496Y428D02*
X498Y428D01*
X521Y428D02*
X523Y428D01*
X530Y428D02*
X532Y428D01*
X538Y428D02*
X539Y428D01*
X544Y428D02*
X548Y428D01*
X556Y428D02*
X557Y428D01*
X561Y428D02*
X563Y428D01*
X588Y428D02*
X589Y428D01*
X598Y428D02*
X602Y428D01*
X23Y427D02*
X25Y427D01*
X28Y427D02*
X29Y427D01*
X42Y427D02*
X43Y427D01*
X54Y427D02*
X55Y427D01*
X61Y427D02*
X63Y427D01*
X86Y427D02*
X87Y427D01*
X90Y427D02*
X92Y427D01*
X106Y427D02*
X108Y427D01*
X135Y427D02*
X136Y427D01*
X140Y427D02*
X141Y427D01*
X147Y427D02*
X148Y427D01*
X185Y427D02*
X186Y427D01*
X189Y427D02*
X191Y427D01*
X201Y427D02*
X202Y427D01*
X206Y427D02*
X207Y427D01*
X234Y427D02*
X236Y427D01*
X239Y427D02*
X240Y427D01*
X246Y427D02*
X247Y427D01*
X255Y427D02*
X256Y427D01*
X296Y427D02*
X297Y427D01*
X338Y427D02*
X340Y427D01*
X347Y427D02*
X348Y427D01*
X392Y427D02*
X393Y427D01*
X438Y427D02*
X440Y427D01*
X447Y427D02*
X449Y427D01*
X496Y427D02*
X498Y427D01*
X521Y427D02*
X523Y427D01*
X530Y427D02*
X532Y427D01*
X538Y427D02*
X539Y427D01*
X544Y427D02*
X548Y427D01*
X556Y427D02*
X557Y427D01*
X560Y427D02*
X562Y427D01*
X588Y427D02*
X589Y427D01*
X599Y427D02*
X602Y427D01*
X22Y426D02*
X29Y426D01*
X42Y426D02*
X43Y426D01*
X54Y426D02*
X55Y426D01*
X62Y426D02*
X63Y426D01*
X86Y426D02*
X87Y426D01*
X90Y426D02*
X92Y426D01*
X106Y426D02*
X108Y426D01*
X135Y426D02*
X136Y426D01*
X140Y426D02*
X141Y426D01*
X147Y426D02*
X148Y426D01*
X185Y426D02*
X186Y426D01*
X189Y426D02*
X191Y426D01*
X201Y426D02*
X202Y426D01*
X205Y426D02*
X207Y426D01*
X234Y426D02*
X236Y426D01*
X239Y426D02*
X240Y426D01*
X246Y426D02*
X247Y426D01*
X255Y426D02*
X256Y426D01*
X296Y426D02*
X297Y426D01*
X338Y426D02*
X340Y426D01*
X347Y426D02*
X348Y426D01*
X392Y426D02*
X393Y426D01*
X438Y426D02*
X440Y426D01*
X447Y426D02*
X449Y426D01*
X488Y426D02*
X489Y426D01*
X496Y426D02*
X498Y426D01*
X522Y426D02*
X523Y426D01*
X530Y426D02*
X531Y426D01*
X538Y426D02*
X539Y426D01*
X545Y426D02*
X548Y426D01*
X556Y426D02*
X557Y426D01*
X560Y426D02*
X562Y426D01*
X579Y426D02*
X582Y426D01*
X587Y426D02*
X589Y426D01*
X599Y426D02*
X601Y426D01*
X21Y425D02*
X28Y425D01*
X42Y425D02*
X43Y425D01*
X54Y425D02*
X55Y425D01*
X62Y425D02*
X64Y425D01*
X82Y425D02*
X92Y425D01*
X98Y425D02*
X108Y425D01*
X131Y425D02*
X141Y425D01*
X147Y425D02*
X157Y425D01*
X181Y425D02*
X191Y425D01*
X197Y425D02*
X207Y425D01*
X231Y425D02*
X240Y425D01*
X246Y425D02*
X256Y425D01*
X295Y425D02*
X297Y425D01*
X338Y425D02*
X348Y425D01*
X392Y425D02*
X393Y425D01*
X438Y425D02*
X449Y425D01*
X488Y425D02*
X498Y425D01*
X522Y425D02*
X531Y425D01*
X538Y425D02*
X539Y425D01*
X545Y425D02*
X548Y425D01*
X554Y425D02*
X561Y425D01*
X579Y425D02*
X589Y425D01*
X599Y425D02*
X601Y425D01*
X22Y424D02*
X27Y424D01*
X42Y424D02*
X42Y424D01*
X54Y424D02*
X54Y424D01*
X63Y424D02*
X63Y424D01*
X82Y424D02*
X91Y424D01*
X98Y424D02*
X107Y424D01*
X131Y424D02*
X141Y424D01*
X147Y424D02*
X157Y424D01*
X181Y424D02*
X190Y424D01*
X197Y424D02*
X207Y424D01*
X230Y424D02*
X240Y424D01*
X247Y424D02*
X256Y424D01*
X295Y424D02*
X297Y424D01*
X339Y424D02*
X348Y424D01*
X392Y424D02*
X393Y424D01*
X439Y424D02*
X448Y424D01*
X489Y424D02*
X497Y424D01*
X523Y424D02*
X530Y424D01*
X538Y424D02*
X539Y424D01*
X545Y424D02*
X548Y424D01*
X554Y424D02*
X560Y424D01*
X581Y424D02*
X588Y424D01*
X600Y424D02*
X600Y424D01*
X231Y423D02*
X239Y423D01*
X248Y423D02*
X254Y423D01*
X341Y423D02*
X346Y423D01*
X607Y351D02*
X612Y351D01*
X624Y351D02*
X626Y351D01*
X606Y350D02*
X613Y350D01*
X622Y350D02*
X626Y350D01*
X605Y349D02*
X614Y349D01*
X621Y349D02*
X626Y349D01*
X605Y348D02*
X607Y348D01*
X612Y348D02*
X614Y348D01*
X619Y348D02*
X624Y348D01*
X605Y347D02*
X607Y347D01*
X612Y347D02*
X614Y347D01*
X617Y347D02*
X622Y347D01*
X605Y346D02*
X607Y346D01*
X612Y346D02*
X620Y346D01*
X605Y345D02*
X607Y345D01*
X612Y345D02*
X619Y345D01*
X605Y344D02*
X607Y344D01*
X612Y344D02*
X617Y344D01*
X605Y343D02*
X607Y343D01*
X612Y343D02*
X615Y343D01*
X605Y342D02*
X607Y342D01*
X612Y342D02*
X614Y342D01*
X605Y341D02*
X607Y341D01*
X612Y341D02*
X614Y341D01*
X605Y340D02*
X626Y340D01*
X605Y339D02*
X626Y339D01*
X605Y338D02*
X626Y338D01*
X73Y332D02*
X81Y332D01*
X98Y332D02*
X111Y332D01*
X70Y331D02*
X83Y331D01*
X97Y331D02*
X113Y331D01*
X69Y330D02*
X83Y330D01*
X97Y330D02*
X113Y330D01*
X605Y330D02*
X624Y330D01*
X69Y329D02*
X83Y329D01*
X97Y329D02*
X113Y329D01*
X605Y329D02*
X626Y329D01*
X68Y328D02*
X81Y328D01*
X97Y328D02*
X111Y328D01*
X623Y328D02*
X626Y328D01*
X68Y327D02*
X71Y327D01*
X97Y327D02*
X100Y327D01*
X624Y327D02*
X626Y327D01*
X67Y326D02*
X71Y326D01*
X97Y326D02*
X100Y326D01*
X624Y326D02*
X626Y326D01*
X67Y325D02*
X70Y325D01*
X97Y325D02*
X100Y325D01*
X613Y325D02*
X626Y325D01*
X66Y324D02*
X70Y324D01*
X97Y324D02*
X100Y324D01*
X612Y324D02*
X626Y324D01*
X66Y323D02*
X69Y323D01*
X97Y323D02*
X100Y323D01*
X613Y323D02*
X626Y323D01*
X65Y322D02*
X69Y322D01*
X97Y322D02*
X100Y322D01*
X623Y322D02*
X626Y322D01*
X65Y321D02*
X68Y321D01*
X97Y321D02*
X100Y321D01*
X624Y321D02*
X626Y321D01*
X64Y320D02*
X68Y320D01*
X97Y320D02*
X100Y320D01*
X624Y320D02*
X626Y320D01*
X64Y319D02*
X67Y319D01*
X97Y319D02*
X100Y319D01*
X605Y319D02*
X626Y319D01*
X63Y318D02*
X67Y318D01*
X97Y318D02*
X109Y318D01*
X605Y318D02*
X625Y318D01*
X63Y317D02*
X67Y317D01*
X97Y317D02*
X111Y317D01*
X605Y317D02*
X624Y317D01*
X63Y316D02*
X66Y316D01*
X97Y316D02*
X112Y316D01*
X63Y315D02*
X66Y315D01*
X97Y315D02*
X113Y315D01*
X63Y314D02*
X67Y314D01*
X98Y314D02*
X113Y314D01*
X64Y313D02*
X67Y313D01*
X110Y313D02*
X113Y313D01*
X64Y312D02*
X68Y312D01*
X110Y312D02*
X113Y312D01*
X64Y311D02*
X68Y311D01*
X110Y311D02*
X113Y311D01*
X65Y310D02*
X69Y310D01*
X110Y310D02*
X113Y310D01*
X608Y310D02*
X614Y310D01*
X65Y309D02*
X69Y309D01*
X110Y309D02*
X113Y309D01*
X606Y309D02*
X616Y309D01*
X66Y308D02*
X70Y308D01*
X110Y308D02*
X113Y308D01*
X606Y308D02*
X617Y308D01*
X66Y307D02*
X70Y307D01*
X110Y307D02*
X113Y307D01*
X605Y307D02*
X608Y307D01*
X615Y307D02*
X618Y307D01*
X67Y306D02*
X71Y306D01*
X110Y306D02*
X113Y306D01*
X605Y306D02*
X607Y306D01*
X616Y306D02*
X618Y306D01*
X67Y305D02*
X71Y305D01*
X94Y305D02*
X96Y305D01*
X110Y305D02*
X113Y305D01*
X605Y305D02*
X607Y305D01*
X616Y305D02*
X618Y305D01*
X68Y304D02*
X73Y304D01*
X93Y304D02*
X99Y304D01*
X109Y304D02*
X113Y304D01*
X605Y304D02*
X607Y304D01*
X616Y304D02*
X618Y304D01*
X69Y303D02*
X82Y303D01*
X93Y303D02*
X113Y303D01*
X605Y303D02*
X607Y303D01*
X616Y303D02*
X618Y303D01*
X69Y302D02*
X83Y302D01*
X94Y302D02*
X112Y302D01*
X605Y302D02*
X607Y302D01*
X616Y302D02*
X618Y302D01*
X70Y301D02*
X83Y301D01*
X96Y301D02*
X112Y301D01*
X605Y301D02*
X607Y301D01*
X616Y301D02*
X618Y301D01*
X72Y300D02*
X82Y300D01*
X98Y300D02*
X110Y300D01*
X605Y300D02*
X607Y300D01*
X616Y300D02*
X618Y300D01*
X605Y299D02*
X607Y299D01*
X616Y299D02*
X618Y299D01*
X605Y298D02*
X626Y298D01*
X605Y297D02*
X626Y297D01*
X605Y296D02*
X625Y296D01*
X304Y256D02*
X316Y256D01*
X327Y256D02*
X338Y256D01*
X303Y255D02*
X316Y255D01*
X326Y255D02*
X338Y255D01*
X302Y254D02*
X316Y254D01*
X327Y254D02*
X338Y254D01*
X302Y253D02*
X315Y253D01*
X327Y253D02*
X338Y253D01*
X301Y252D02*
X305Y252D01*
X335Y252D02*
X338Y252D01*
X607Y252D02*
X619Y252D01*
X301Y251D02*
X304Y251D01*
X335Y251D02*
X338Y251D01*
X607Y251D02*
X620Y251D01*
X300Y250D02*
X304Y250D01*
X335Y250D02*
X338Y250D01*
X606Y250D02*
X620Y250D01*
X300Y249D02*
X303Y249D01*
X335Y249D02*
X338Y249D01*
X607Y249D02*
X620Y249D01*
X299Y248D02*
X303Y248D01*
X335Y248D02*
X338Y248D01*
X617Y248D02*
X620Y248D01*
X299Y247D02*
X302Y247D01*
X335Y247D02*
X338Y247D01*
X617Y247D02*
X620Y247D01*
X298Y246D02*
X302Y246D01*
X335Y246D02*
X338Y246D01*
X617Y246D02*
X620Y246D01*
X298Y245D02*
X301Y245D01*
X335Y245D02*
X338Y245D01*
X617Y245D02*
X620Y245D01*
X297Y244D02*
X301Y244D01*
X335Y244D02*
X338Y244D01*
X589Y244D02*
X620Y244D01*
X297Y243D02*
X300Y243D01*
X335Y243D02*
X338Y243D01*
X589Y243D02*
X620Y243D01*
X297Y242D02*
X300Y242D01*
X335Y242D02*
X338Y242D01*
X589Y242D02*
X620Y242D01*
X296Y241D02*
X300Y241D01*
X335Y241D02*
X338Y241D01*
X589Y241D02*
X620Y241D01*
X296Y240D02*
X300Y240D01*
X335Y240D02*
X338Y240D01*
X589Y240D02*
X620Y240D01*
X297Y239D02*
X300Y239D01*
X335Y239D02*
X338Y239D01*
X589Y239D02*
X592Y239D01*
X617Y239D02*
X620Y239D01*
X297Y238D02*
X300Y238D01*
X335Y238D02*
X338Y238D01*
X343Y238D02*
X346Y238D01*
X589Y238D02*
X592Y238D01*
X617Y238D02*
X620Y238D01*
X297Y237D02*
X301Y237D01*
X335Y237D02*
X338Y237D01*
X343Y237D02*
X346Y237D01*
X589Y237D02*
X592Y237D01*
X617Y237D02*
X620Y237D01*
X298Y236D02*
X301Y236D01*
X335Y236D02*
X338Y236D01*
X343Y236D02*
X346Y236D01*
X589Y236D02*
X592Y236D01*
X617Y236D02*
X620Y236D01*
X20Y235D02*
X20Y235D01*
X298Y235D02*
X302Y235D01*
X335Y235D02*
X338Y235D01*
X343Y235D02*
X346Y235D01*
X589Y235D02*
X592Y235D01*
X617Y235D02*
X620Y235D01*
X18Y234D02*
X31Y234D01*
X41Y234D02*
X46Y234D01*
X299Y234D02*
X302Y234D01*
X335Y234D02*
X338Y234D01*
X343Y234D02*
X346Y234D01*
X589Y234D02*
X592Y234D01*
X617Y234D02*
X620Y234D01*
X17Y233D02*
X31Y233D01*
X41Y233D02*
X46Y233D01*
X299Y233D02*
X303Y233D01*
X335Y233D02*
X338Y233D01*
X343Y233D02*
X346Y233D01*
X589Y233D02*
X592Y233D01*
X617Y233D02*
X620Y233D01*
X17Y232D02*
X30Y232D01*
X41Y232D02*
X46Y232D01*
X300Y232D02*
X303Y232D01*
X335Y232D02*
X338Y232D01*
X343Y232D02*
X346Y232D01*
X590Y232D02*
X591Y232D01*
X618Y232D02*
X619Y232D01*
X16Y231D02*
X20Y231D01*
X41Y231D02*
X45Y231D01*
X300Y231D02*
X304Y231D01*
X335Y231D02*
X338Y231D01*
X343Y231D02*
X346Y231D01*
X16Y230D02*
X19Y230D01*
X41Y230D02*
X44Y230D01*
X301Y230D02*
X304Y230D01*
X335Y230D02*
X338Y230D01*
X343Y230D02*
X346Y230D01*
X15Y229D02*
X19Y229D01*
X41Y229D02*
X44Y229D01*
X301Y229D02*
X305Y229D01*
X335Y229D02*
X338Y229D01*
X343Y229D02*
X346Y229D01*
X15Y228D02*
X18Y228D01*
X41Y228D02*
X44Y228D01*
X302Y228D02*
X315Y228D01*
X327Y228D02*
X346Y228D01*
X14Y227D02*
X18Y227D01*
X41Y227D02*
X44Y227D01*
X302Y227D02*
X316Y227D01*
X14Y226D02*
X17Y226D01*
X41Y226D02*
X44Y226D01*
X303Y226D02*
X316Y226D01*
X13Y225D02*
X17Y225D01*
X41Y225D02*
X44Y225D01*
X304Y225D02*
X316Y225D01*
X13Y224D02*
X16Y224D01*
X41Y224D02*
X44Y224D01*
X12Y223D02*
X16Y223D01*
X41Y223D02*
X44Y223D01*
X12Y222D02*
X15Y222D01*
X41Y222D02*
X44Y222D01*
X593Y222D02*
X598Y222D01*
X618Y222D02*
X619Y222D01*
X12Y221D02*
X15Y221D01*
X41Y221D02*
X44Y221D01*
X591Y221D02*
X600Y221D01*
X616Y221D02*
X620Y221D01*
X11Y220D02*
X15Y220D01*
X41Y220D02*
X44Y220D01*
X590Y220D02*
X601Y220D01*
X614Y220D02*
X620Y220D01*
X11Y219D02*
X15Y219D01*
X41Y219D02*
X44Y219D01*
X590Y219D02*
X602Y219D01*
X613Y219D02*
X620Y219D01*
X11Y218D02*
X15Y218D01*
X41Y218D02*
X45Y218D01*
X589Y218D02*
X593Y218D01*
X598Y218D02*
X602Y218D01*
X611Y218D02*
X618Y218D01*
X12Y217D02*
X15Y217D01*
X41Y217D02*
X55Y217D01*
X589Y217D02*
X592Y217D01*
X599Y217D02*
X602Y217D01*
X609Y217D02*
X617Y217D01*
X12Y216D02*
X15Y216D01*
X41Y216D02*
X55Y216D01*
X589Y216D02*
X592Y216D01*
X599Y216D02*
X602Y216D01*
X608Y216D02*
X615Y216D01*
X12Y215D02*
X16Y215D01*
X41Y215D02*
X55Y215D01*
X589Y215D02*
X592Y215D01*
X599Y215D02*
X603Y215D01*
X606Y215D02*
X613Y215D01*
X13Y214D02*
X17Y214D01*
X41Y214D02*
X55Y214D01*
X589Y214D02*
X592Y214D01*
X599Y214D02*
X612Y214D01*
X13Y213D02*
X17Y213D01*
X41Y213D02*
X44Y213D01*
X589Y213D02*
X592Y213D01*
X599Y213D02*
X610Y213D01*
X14Y212D02*
X18Y212D01*
X41Y212D02*
X44Y212D01*
X589Y212D02*
X592Y212D01*
X599Y212D02*
X608Y212D01*
X14Y211D02*
X18Y211D01*
X41Y211D02*
X44Y211D01*
X589Y211D02*
X592Y211D01*
X599Y211D02*
X606Y211D01*
X15Y210D02*
X19Y210D01*
X41Y210D02*
X44Y210D01*
X589Y210D02*
X592Y210D01*
X599Y210D02*
X605Y210D01*
X15Y209D02*
X19Y209D01*
X41Y209D02*
X44Y209D01*
X589Y209D02*
X592Y209D01*
X599Y209D02*
X603Y209D01*
X16Y208D02*
X20Y208D01*
X41Y208D02*
X44Y208D01*
X589Y208D02*
X592Y208D01*
X599Y208D02*
X603Y208D01*
X16Y207D02*
X30Y207D01*
X41Y207D02*
X55Y207D01*
X589Y207D02*
X592Y207D01*
X599Y207D02*
X603Y207D01*
X17Y206D02*
X31Y206D01*
X41Y206D02*
X55Y206D01*
X589Y206D02*
X592Y206D01*
X599Y206D02*
X603Y206D01*
X18Y205D02*
X31Y205D01*
X41Y205D02*
X55Y205D01*
X589Y205D02*
X620Y205D01*
X18Y204D02*
X31Y204D01*
X42Y204D02*
X55Y204D01*
X589Y204D02*
X620Y204D01*
X17Y203D02*
X31Y203D01*
X42Y203D02*
X45Y203D01*
X589Y203D02*
X620Y203D01*
X16Y202D02*
X30Y202D01*
X42Y202D02*
X45Y202D01*
X589Y202D02*
X619Y202D01*
X16Y201D02*
X20Y201D01*
X42Y201D02*
X45Y201D01*
X55Y201D02*
X55Y201D01*
X15Y200D02*
X19Y200D01*
X42Y200D02*
X45Y200D01*
X55Y200D02*
X55Y200D01*
X15Y199D02*
X19Y199D01*
X42Y199D02*
X45Y199D01*
X55Y199D02*
X55Y199D01*
X14Y198D02*
X18Y198D01*
X42Y198D02*
X45Y198D01*
X55Y198D02*
X55Y198D01*
X14Y197D02*
X18Y197D01*
X42Y197D02*
X45Y197D01*
X55Y197D02*
X55Y197D01*
X13Y196D02*
X17Y196D01*
X42Y196D02*
X45Y196D01*
X55Y196D02*
X55Y196D01*
X13Y195D02*
X17Y195D01*
X42Y195D02*
X45Y195D01*
X55Y195D02*
X55Y195D01*
X12Y194D02*
X16Y194D01*
X42Y194D02*
X45Y194D01*
X55Y194D02*
X55Y194D01*
X12Y193D02*
X16Y193D01*
X42Y193D02*
X45Y193D01*
X55Y193D02*
X58Y193D01*
X12Y192D02*
X15Y192D01*
X42Y192D02*
X45Y192D01*
X55Y192D02*
X58Y192D01*
X11Y191D02*
X15Y191D01*
X42Y191D02*
X45Y191D01*
X55Y191D02*
X58Y191D01*
X11Y190D02*
X14Y190D01*
X42Y190D02*
X45Y190D01*
X55Y190D02*
X58Y190D01*
X11Y189D02*
X14Y189D01*
X42Y189D02*
X45Y189D01*
X55Y189D02*
X58Y189D01*
X11Y188D02*
X15Y188D01*
X42Y188D02*
X46Y188D01*
X54Y188D02*
X58Y188D01*
X12Y187D02*
X15Y187D01*
X42Y187D02*
X59Y187D01*
X12Y186D02*
X15Y186D01*
X42Y186D02*
X60Y186D01*
X12Y185D02*
X16Y185D01*
X42Y185D02*
X59Y185D01*
X13Y184D02*
X16Y184D01*
X42Y184D02*
X58Y184D01*
X13Y183D02*
X17Y183D01*
X55Y183D02*
X58Y183D01*
X14Y182D02*
X17Y182D01*
X55Y182D02*
X57Y182D01*
X14Y181D02*
X18Y181D01*
X55Y181D02*
X57Y181D01*
X15Y180D02*
X18Y180D01*
X55Y180D02*
X56Y180D01*
X15Y179D02*
X19Y179D01*
X55Y179D02*
X56Y179D01*
X16Y178D02*
X20Y178D01*
X55Y178D02*
X56Y178D01*
X16Y177D02*
X30Y177D01*
X55Y177D02*
X56Y177D01*
X17Y176D02*
X31Y176D01*
X55Y176D02*
X56Y176D01*
X18Y175D02*
X31Y175D01*
X55Y175D02*
X56Y175D01*
X19Y174D02*
X30Y174D01*
X55Y174D02*
X56Y174D01*
X77Y136D02*
X79Y136D01*
X77Y135D02*
X82Y135D01*
X79Y134D02*
X86Y134D01*
X81Y133D02*
X89Y133D01*
X362Y133D02*
X371Y133D01*
X384Y133D02*
X400Y133D01*
X81Y132D02*
X82Y132D01*
X85Y132D02*
X92Y132D01*
X360Y132D02*
X372Y132D01*
X383Y132D02*
X401Y132D01*
X81Y131D02*
X82Y131D01*
X89Y131D02*
X93Y131D01*
X359Y131D02*
X373Y131D01*
X383Y131D02*
X402Y131D01*
X81Y130D02*
X82Y130D01*
X87Y130D02*
X93Y130D01*
X358Y130D02*
X372Y130D01*
X383Y130D02*
X402Y130D01*
X81Y129D02*
X90Y129D01*
X358Y129D02*
X363Y129D01*
X399Y129D02*
X403Y129D01*
X80Y128D02*
X87Y128D01*
X357Y128D02*
X361Y128D01*
X399Y128D02*
X403Y128D01*
X77Y127D02*
X83Y127D01*
X357Y127D02*
X360Y127D01*
X399Y127D02*
X403Y127D01*
X77Y126D02*
X80Y126D01*
X356Y126D02*
X360Y126D01*
X399Y126D02*
X403Y126D01*
X356Y125D02*
X359Y125D01*
X399Y125D02*
X403Y125D01*
X355Y124D02*
X359Y124D01*
X399Y124D02*
X403Y124D01*
X355Y123D02*
X358Y123D01*
X399Y123D02*
X403Y123D01*
X354Y122D02*
X358Y122D01*
X399Y122D02*
X403Y122D01*
X354Y121D02*
X357Y121D01*
X399Y121D02*
X403Y121D01*
X77Y120D02*
X85Y120D01*
X93Y120D02*
X93Y120D01*
X353Y120D02*
X357Y120D01*
X399Y120D02*
X402Y120D01*
X77Y119D02*
X86Y119D01*
X92Y119D02*
X94Y119D01*
X353Y119D02*
X356Y119D01*
X389Y119D02*
X402Y119D01*
X77Y118D02*
X86Y118D01*
X92Y118D02*
X94Y118D01*
X353Y118D02*
X356Y118D01*
X387Y118D02*
X402Y118D01*
X583Y118D02*
X593Y118D01*
X606Y118D02*
X622Y118D01*
X77Y117D02*
X78Y117D01*
X85Y117D02*
X86Y117D01*
X92Y117D02*
X94Y117D01*
X353Y117D02*
X356Y117D01*
X387Y117D02*
X401Y117D01*
X582Y117D02*
X594Y117D01*
X605Y117D02*
X623Y117D01*
X77Y116D02*
X78Y116D01*
X85Y116D02*
X86Y116D01*
X92Y116D02*
X94Y116D01*
X353Y116D02*
X356Y116D01*
X387Y116D02*
X402Y116D01*
X580Y116D02*
X594Y116D01*
X605Y116D02*
X624Y116D01*
X77Y115D02*
X78Y115D01*
X85Y115D02*
X86Y115D01*
X92Y115D02*
X94Y115D01*
X353Y115D02*
X356Y115D01*
X389Y115D02*
X402Y115D01*
X580Y115D02*
X594Y115D01*
X605Y115D02*
X624Y115D01*
X77Y114D02*
X78Y114D01*
X85Y114D02*
X86Y114D01*
X92Y114D02*
X94Y114D01*
X353Y114D02*
X357Y114D01*
X399Y114D02*
X402Y114D01*
X579Y114D02*
X584Y114D01*
X621Y114D02*
X624Y114D01*
X77Y113D02*
X78Y113D01*
X85Y113D02*
X86Y113D01*
X92Y113D02*
X94Y113D01*
X354Y113D02*
X357Y113D01*
X399Y113D02*
X403Y113D01*
X579Y113D02*
X583Y113D01*
X621Y113D02*
X624Y113D01*
X77Y112D02*
X78Y112D01*
X85Y112D02*
X86Y112D01*
X92Y112D02*
X94Y112D01*
X354Y112D02*
X358Y112D01*
X399Y112D02*
X403Y112D01*
X578Y112D02*
X582Y112D01*
X621Y112D02*
X624Y112D01*
X77Y111D02*
X78Y111D01*
X85Y111D02*
X94Y111D01*
X355Y111D02*
X358Y111D01*
X399Y111D02*
X403Y111D01*
X578Y111D02*
X582Y111D01*
X621Y111D02*
X624Y111D01*
X77Y110D02*
X78Y110D01*
X85Y110D02*
X93Y110D01*
X355Y110D02*
X359Y110D01*
X399Y110D02*
X403Y110D01*
X577Y110D02*
X581Y110D01*
X621Y110D02*
X624Y110D01*
X356Y109D02*
X359Y109D01*
X399Y109D02*
X403Y109D01*
X577Y109D02*
X581Y109D01*
X621Y109D02*
X624Y109D01*
X356Y108D02*
X360Y108D01*
X399Y108D02*
X403Y108D01*
X576Y108D02*
X580Y108D01*
X621Y108D02*
X624Y108D01*
X357Y107D02*
X360Y107D01*
X399Y107D02*
X403Y107D01*
X576Y107D02*
X580Y107D01*
X621Y107D02*
X624Y107D01*
X357Y106D02*
X361Y106D01*
X399Y106D02*
X403Y106D01*
X575Y106D02*
X579Y106D01*
X621Y106D02*
X624Y106D01*
X358Y105D02*
X363Y105D01*
X399Y105D02*
X403Y105D01*
X575Y105D02*
X579Y105D01*
X621Y105D02*
X624Y105D01*
X358Y104D02*
X372Y104D01*
X383Y104D02*
X402Y104D01*
X575Y104D02*
X578Y104D01*
X608Y104D02*
X624Y104D01*
X359Y103D02*
X373Y103D01*
X383Y103D02*
X402Y103D01*
X575Y103D02*
X578Y103D01*
X606Y103D02*
X624Y103D01*
X360Y102D02*
X372Y102D01*
X383Y102D02*
X401Y102D01*
X575Y102D02*
X578Y102D01*
X605Y102D02*
X623Y102D01*
X362Y101D02*
X371Y101D01*
X384Y101D02*
X400Y101D01*
X575Y101D02*
X578Y101D01*
X605Y101D02*
X623Y101D01*
X575Y100D02*
X578Y100D01*
X605Y100D02*
X608Y100D01*
X575Y99D02*
X579Y99D01*
X605Y99D02*
X608Y99D01*
X576Y98D02*
X579Y98D01*
X605Y98D02*
X608Y98D01*
X576Y97D02*
X580Y97D01*
X605Y97D02*
X608Y97D01*
X576Y96D02*
X580Y96D01*
X605Y96D02*
X608Y96D01*
X577Y95D02*
X581Y95D01*
X605Y95D02*
X608Y95D01*
X577Y94D02*
X581Y94D01*
X605Y94D02*
X608Y94D01*
X578Y93D02*
X582Y93D01*
X605Y93D02*
X608Y93D01*
X578Y92D02*
X582Y92D01*
X605Y92D02*
X608Y92D01*
X579Y91D02*
X583Y91D01*
X605Y91D02*
X608Y91D01*
X579Y90D02*
X593Y90D01*
X605Y90D02*
X623Y90D01*
X580Y89D02*
X594Y89D01*
X605Y89D02*
X624Y89D01*
X581Y88D02*
X591Y88D01*
X605Y88D02*
X624Y88D01*
X582Y87D02*
X588Y87D01*
X605Y87D02*
X624Y87D01*
X585Y86D02*
X586Y86D01*
X607Y86D02*
X623Y86D01*
X36Y36D02*
X37Y36D01*
X48Y36D02*
X57Y36D01*
X86Y36D02*
X87Y36D01*
X99Y36D02*
X99Y36D01*
X137Y36D02*
X138Y36D01*
X151Y36D02*
X158Y36D01*
X178Y36D02*
X185Y36D01*
X194Y36D02*
X201Y36D01*
X208Y36D02*
X217Y36D01*
X243Y36D02*
X252Y36D01*
X293Y36D02*
X298Y36D01*
X343Y36D02*
X353Y36D01*
X393Y36D02*
X401Y36D01*
X443Y36D02*
X443Y36D01*
X488Y36D02*
X494Y36D01*
X501Y36D02*
X501Y36D01*
X509Y36D02*
X509Y36D01*
X534Y36D02*
X538Y36D01*
X544Y36D02*
X546Y36D01*
X553Y36D02*
X553Y36D01*
X559Y36D02*
X564Y36D01*
X578Y36D02*
X578Y36D01*
X587Y36D02*
X587Y36D01*
X598Y36D02*
X602Y36D01*
X613Y36D02*
X618Y36D01*
X36Y35D02*
X37Y35D01*
X48Y35D02*
X58Y35D01*
X86Y35D02*
X87Y35D01*
X98Y35D02*
X99Y35D01*
X137Y35D02*
X138Y35D01*
X151Y35D02*
X159Y35D01*
X177Y35D02*
X186Y35D01*
X193Y35D02*
X202Y35D01*
X208Y35D02*
X217Y35D01*
X242Y35D02*
X252Y35D01*
X293Y35D02*
X298Y35D01*
X344Y35D02*
X353Y35D01*
X392Y35D02*
X402Y35D01*
X442Y35D02*
X444Y35D01*
X488Y35D02*
X495Y35D01*
X501Y35D02*
X502Y35D01*
X509Y35D02*
X510Y35D01*
X533Y35D02*
X538Y35D01*
X544Y35D02*
X546Y35D01*
X552Y35D02*
X553Y35D01*
X559Y35D02*
X565Y35D01*
X578Y35D02*
X579Y35D01*
X586Y35D02*
X587Y35D01*
X596Y35D02*
X603Y35D01*
X612Y35D02*
X618Y35D01*
X35Y34D02*
X38Y34D01*
X56Y34D02*
X58Y34D01*
X85Y34D02*
X88Y34D01*
X98Y34D02*
X99Y34D01*
X105Y34D02*
X106Y34D01*
X136Y34D02*
X139Y34D01*
X151Y34D02*
X152Y34D01*
X177Y34D02*
X179Y34D01*
X185Y34D02*
X187Y34D01*
X193Y34D02*
X194Y34D01*
X201Y34D02*
X202Y34D01*
X208Y34D02*
X209Y34D01*
X212Y34D02*
X213Y34D01*
X216Y34D02*
X217Y34D01*
X242Y34D02*
X244Y34D01*
X251Y34D02*
X253Y34D01*
X297Y34D02*
X298Y34D01*
X352Y34D02*
X353Y34D01*
X394Y34D02*
X402Y34D01*
X442Y34D02*
X444Y34D01*
X450Y34D02*
X450Y34D01*
X488Y34D02*
X489Y34D01*
X500Y34D02*
X502Y34D01*
X509Y34D02*
X510Y34D01*
X532Y34D02*
X534Y34D01*
X544Y34D02*
X547Y34D01*
X552Y34D02*
X553Y34D01*
X561Y34D02*
X562Y34D01*
X564Y34D02*
X566Y34D01*
X578Y34D02*
X579Y34D01*
X586Y34D02*
X588Y34D01*
X596Y34D02*
X598Y34D01*
X611Y34D02*
X613Y34D01*
X35Y33D02*
X38Y33D01*
X57Y33D02*
X58Y33D01*
X85Y33D02*
X88Y33D01*
X98Y33D02*
X99Y33D01*
X105Y33D02*
X106Y33D01*
X136Y33D02*
X139Y33D01*
X151Y33D02*
X152Y33D01*
X177Y33D02*
X179Y33D01*
X186Y33D02*
X187Y33D01*
X193Y33D02*
X194Y33D01*
X201Y33D02*
X202Y33D01*
X208Y33D02*
X208Y33D01*
X212Y33D02*
X213Y33D01*
X216Y33D02*
X217Y33D01*
X242Y33D02*
X244Y33D01*
X251Y33D02*
X253Y33D01*
X297Y33D02*
X298Y33D01*
X352Y33D02*
X353Y33D01*
X401Y33D02*
X402Y33D01*
X442Y33D02*
X444Y33D01*
X449Y33D02*
X450Y33D01*
X488Y33D02*
X489Y33D01*
X500Y33D02*
X502Y33D01*
X509Y33D02*
X510Y33D01*
X531Y33D02*
X533Y33D01*
X544Y33D02*
X547Y33D01*
X552Y33D02*
X553Y33D01*
X561Y33D02*
X562Y33D01*
X565Y33D02*
X566Y33D01*
X578Y33D02*
X579Y33D01*
X586Y33D02*
X588Y33D01*
X595Y33D02*
X597Y33D01*
X611Y33D02*
X612Y33D01*
X35Y32D02*
X38Y32D01*
X57Y32D02*
X58Y32D01*
X85Y32D02*
X88Y32D01*
X98Y32D02*
X99Y32D01*
X105Y32D02*
X106Y32D01*
X136Y32D02*
X139Y32D01*
X151Y32D02*
X152Y32D01*
X177Y32D02*
X179Y32D01*
X186Y32D02*
X187Y32D01*
X193Y32D02*
X195Y32D01*
X212Y32D02*
X213Y32D01*
X242Y32D02*
X244Y32D01*
X251Y32D02*
X253Y32D01*
X297Y32D02*
X298Y32D01*
X352Y32D02*
X353Y32D01*
X401Y32D02*
X402Y32D01*
X442Y32D02*
X444Y32D01*
X449Y32D02*
X450Y32D01*
X488Y32D02*
X489Y32D01*
X500Y32D02*
X502Y32D01*
X509Y32D02*
X510Y32D01*
X530Y32D02*
X532Y32D01*
X544Y32D02*
X548Y32D01*
X552Y32D02*
X553Y32D01*
X561Y32D02*
X562Y32D01*
X565Y32D02*
X567Y32D01*
X578Y32D02*
X579Y32D01*
X586Y32D02*
X588Y32D01*
X595Y32D02*
X596Y32D01*
X610Y32D02*
X612Y32D01*
X35Y31D02*
X39Y31D01*
X57Y31D02*
X58Y31D01*
X85Y31D02*
X88Y31D01*
X98Y31D02*
X99Y31D01*
X105Y31D02*
X106Y31D01*
X136Y31D02*
X139Y31D01*
X151Y31D02*
X152Y31D01*
X177Y31D02*
X187Y31D01*
X194Y31D02*
X196Y31D01*
X212Y31D02*
X213Y31D01*
X242Y31D02*
X244Y31D01*
X251Y31D02*
X253Y31D01*
X297Y31D02*
X298Y31D01*
X352Y31D02*
X353Y31D01*
X401Y31D02*
X402Y31D01*
X442Y31D02*
X444Y31D01*
X449Y31D02*
X450Y31D01*
X488Y31D02*
X489Y31D01*
X501Y31D02*
X502Y31D01*
X508Y31D02*
X510Y31D01*
X530Y31D02*
X531Y31D01*
X544Y31D02*
X545Y31D01*
X547Y31D02*
X548Y31D01*
X552Y31D02*
X553Y31D01*
X561Y31D02*
X562Y31D01*
X566Y31D02*
X567Y31D01*
X578Y31D02*
X579Y31D01*
X586Y31D02*
X587Y31D01*
X594Y31D02*
X596Y31D01*
X610Y31D02*
X611Y31D01*
X34Y30D02*
X39Y30D01*
X57Y30D02*
X58Y30D01*
X84Y30D02*
X89Y30D01*
X98Y30D02*
X99Y30D01*
X105Y30D02*
X106Y30D01*
X135Y30D02*
X140Y30D01*
X151Y30D02*
X152Y30D01*
X177Y30D02*
X186Y30D01*
X195Y30D02*
X197Y30D01*
X212Y30D02*
X213Y30D01*
X242Y30D02*
X244Y30D01*
X251Y30D02*
X253Y30D01*
X297Y30D02*
X298Y30D01*
X352Y30D02*
X353Y30D01*
X401Y30D02*
X402Y30D01*
X442Y30D02*
X444Y30D01*
X449Y30D02*
X450Y30D01*
X488Y30D02*
X489Y30D01*
X501Y30D02*
X502Y30D01*
X508Y30D02*
X509Y30D01*
X529Y30D02*
X531Y30D01*
X544Y30D02*
X545Y30D01*
X547Y30D02*
X548Y30D01*
X552Y30D02*
X553Y30D01*
X561Y30D02*
X562Y30D01*
X566Y30D02*
X568Y30D01*
X578Y30D02*
X580Y30D01*
X586Y30D02*
X587Y30D01*
X594Y30D02*
X595Y30D01*
X609Y30D02*
X611Y30D01*
X34Y29D02*
X35Y29D01*
X38Y29D02*
X39Y29D01*
X56Y29D02*
X58Y29D01*
X84Y29D02*
X85Y29D01*
X88Y29D02*
X89Y29D01*
X98Y29D02*
X99Y29D01*
X105Y29D02*
X106Y29D01*
X135Y29D02*
X136Y29D01*
X139Y29D02*
X140Y29D01*
X151Y29D02*
X152Y29D01*
X177Y29D02*
X184Y29D01*
X196Y29D02*
X198Y29D01*
X212Y29D02*
X213Y29D01*
X242Y29D02*
X244Y29D01*
X251Y29D02*
X253Y29D01*
X297Y29D02*
X298Y29D01*
X345Y29D02*
X353Y29D01*
X400Y29D02*
X402Y29D01*
X442Y29D02*
X444Y29D01*
X449Y29D02*
X450Y29D01*
X488Y29D02*
X494Y29D01*
X501Y29D02*
X503Y29D01*
X507Y29D02*
X509Y29D01*
X529Y29D02*
X530Y29D01*
X544Y29D02*
X545Y29D01*
X548Y29D02*
X549Y29D01*
X552Y29D02*
X553Y29D01*
X561Y29D02*
X562Y29D01*
X567Y29D02*
X568Y29D01*
X579Y29D02*
X580Y29D01*
X585Y29D02*
X587Y29D01*
X593Y29D02*
X595Y29D01*
X609Y29D02*
X610Y29D01*
X34Y28D02*
X35Y28D01*
X38Y28D02*
X39Y28D01*
X50Y28D02*
X57Y28D01*
X84Y28D02*
X85Y28D01*
X88Y28D02*
X89Y28D01*
X98Y28D02*
X99Y28D01*
X105Y28D02*
X106Y28D01*
X135Y28D02*
X136Y28D01*
X139Y28D02*
X140Y28D01*
X151Y28D02*
X158Y28D01*
X177Y28D02*
X179Y28D01*
X182Y28D02*
X183Y28D01*
X197Y28D02*
X198Y28D01*
X212Y28D02*
X213Y28D01*
X242Y28D02*
X244Y28D01*
X251Y28D02*
X253Y28D01*
X297Y28D02*
X298Y28D01*
X344Y28D02*
X353Y28D01*
X394Y28D02*
X402Y28D01*
X442Y28D02*
X444Y28D01*
X449Y28D02*
X450Y28D01*
X488Y28D02*
X495Y28D01*
X502Y28D02*
X503Y28D01*
X507Y28D02*
X508Y28D01*
X529Y28D02*
X530Y28D01*
X544Y28D02*
X545Y28D01*
X548Y28D02*
X549Y28D01*
X552Y28D02*
X553Y28D01*
X561Y28D02*
X562Y28D01*
X567Y28D02*
X568Y28D01*
X579Y28D02*
X580Y28D01*
X585Y28D02*
X586Y28D01*
X593Y28D02*
X594Y28D01*
X609Y28D02*
X610Y28D01*
X33Y27D02*
X35Y27D01*
X38Y27D02*
X40Y27D01*
X50Y27D02*
X57Y27D01*
X83Y27D02*
X85Y27D01*
X88Y27D02*
X90Y27D01*
X98Y27D02*
X100Y27D01*
X104Y27D02*
X106Y27D01*
X134Y27D02*
X136Y27D01*
X139Y27D02*
X141Y27D01*
X151Y27D02*
X159Y27D01*
X177Y27D02*
X179Y27D01*
X182Y27D02*
X184Y27D01*
X197Y27D02*
X199Y27D01*
X212Y27D02*
X213Y27D01*
X242Y27D02*
X244Y27D01*
X251Y27D02*
X253Y27D01*
X297Y27D02*
X298Y27D01*
X343Y27D02*
X352Y27D01*
X395Y27D02*
X402Y27D01*
X442Y27D02*
X444Y27D01*
X449Y27D02*
X450Y27D01*
X494Y27D02*
X495Y27D01*
X502Y27D02*
X504Y27D01*
X507Y27D02*
X508Y27D01*
X529Y27D02*
X530Y27D01*
X534Y27D02*
X538Y27D01*
X544Y27D02*
X545Y27D01*
X548Y27D02*
X550Y27D01*
X552Y27D02*
X553Y27D01*
X561Y27D02*
X562Y27D01*
X566Y27D02*
X568Y27D01*
X580Y27D02*
X581Y27D01*
X584Y27D02*
X586Y27D01*
X593Y27D02*
X595Y27D01*
X609Y27D02*
X610Y27D01*
X33Y26D02*
X35Y26D01*
X39Y26D02*
X40Y26D01*
X56Y26D02*
X58Y26D01*
X83Y26D02*
X84Y26D01*
X89Y26D02*
X90Y26D01*
X98Y26D02*
X107Y26D01*
X134Y26D02*
X135Y26D01*
X140Y26D02*
X141Y26D01*
X157Y26D02*
X159Y26D01*
X177Y26D02*
X179Y26D01*
X183Y26D02*
X184Y26D01*
X198Y26D02*
X200Y26D01*
X212Y26D02*
X213Y26D01*
X242Y26D02*
X244Y26D01*
X251Y26D02*
X253Y26D01*
X297Y26D02*
X298Y26D01*
X302Y26D02*
X303Y26D01*
X343Y26D02*
X345Y26D01*
X400Y26D02*
X402Y26D01*
X442Y26D02*
X451Y26D01*
X494Y26D02*
X495Y26D01*
X503Y26D02*
X504Y26D01*
X506Y26D02*
X508Y26D01*
X529Y26D02*
X530Y26D01*
X535Y26D02*
X538Y26D01*
X544Y26D02*
X545Y26D01*
X549Y26D02*
X550Y26D01*
X552Y26D02*
X553Y26D01*
X561Y26D02*
X562Y26D01*
X566Y26D02*
X567Y26D01*
X580Y26D02*
X581Y26D01*
X584Y26D02*
X585Y26D01*
X594Y26D02*
X595Y26D01*
X609Y26D02*
X610Y26D01*
X33Y25D02*
X40Y25D01*
X57Y25D02*
X58Y25D01*
X83Y25D02*
X90Y25D01*
X98Y25D02*
X107Y25D01*
X134Y25D02*
X141Y25D01*
X157Y25D02*
X159Y25D01*
X177Y25D02*
X179Y25D01*
X183Y25D02*
X185Y25D01*
X199Y25D02*
X201Y25D01*
X212Y25D02*
X213Y25D01*
X242Y25D02*
X244Y25D01*
X251Y25D02*
X253Y25D01*
X297Y25D02*
X298Y25D01*
X301Y25D02*
X303Y25D01*
X343Y25D02*
X345Y25D01*
X401Y25D02*
X402Y25D01*
X442Y25D02*
X451Y25D01*
X494Y25D02*
X495Y25D01*
X503Y25D02*
X504Y25D01*
X506Y25D02*
X507Y25D01*
X529Y25D02*
X530Y25D01*
X537Y25D02*
X538Y25D01*
X544Y25D02*
X545Y25D01*
X549Y25D02*
X553Y25D01*
X561Y25D02*
X562Y25D01*
X565Y25D02*
X567Y25D01*
X580Y25D02*
X582Y25D01*
X584Y25D02*
X585Y25D01*
X594Y25D02*
X596Y25D01*
X610Y25D02*
X611Y25D01*
X33Y24D02*
X41Y24D01*
X57Y24D02*
X58Y24D01*
X83Y24D02*
X91Y24D01*
X105Y24D02*
X106Y24D01*
X133Y24D02*
X141Y24D01*
X157Y24D02*
X159Y24D01*
X177Y24D02*
X179Y24D01*
X184Y24D02*
X185Y24D01*
X200Y24D02*
X201Y24D01*
X212Y24D02*
X213Y24D01*
X242Y24D02*
X244Y24D01*
X251Y24D02*
X253Y24D01*
X297Y24D02*
X298Y24D01*
X301Y24D02*
X303Y24D01*
X343Y24D02*
X345Y24D01*
X401Y24D02*
X402Y24D01*
X449Y24D02*
X450Y24D01*
X494Y24D02*
X495Y24D01*
X503Y24D02*
X507Y24D01*
X529Y24D02*
X530Y24D01*
X537Y24D02*
X538Y24D01*
X544Y24D02*
X545Y24D01*
X550Y24D02*
X553Y24D01*
X561Y24D02*
X562Y24D01*
X565Y24D02*
X566Y24D01*
X581Y24D02*
X585Y24D01*
X595Y24D02*
X596Y24D01*
X610Y24D02*
X611Y24D01*
X32Y23D02*
X41Y23D01*
X57Y23D02*
X58Y23D01*
X82Y23D02*
X91Y23D01*
X105Y23D02*
X106Y23D01*
X133Y23D02*
X142Y23D01*
X157Y23D02*
X159Y23D01*
X177Y23D02*
X179Y23D01*
X185Y23D02*
X186Y23D01*
X193Y23D02*
X194Y23D01*
X200Y23D02*
X202Y23D01*
X212Y23D02*
X213Y23D01*
X242Y23D02*
X244Y23D01*
X251Y23D02*
X253Y23D01*
X297Y23D02*
X298Y23D01*
X301Y23D02*
X303Y23D01*
X343Y23D02*
X345Y23D01*
X401Y23D02*
X402Y23D01*
X449Y23D02*
X450Y23D01*
X486Y23D02*
X486Y23D01*
X494Y23D02*
X495Y23D01*
X504Y23D02*
X506Y23D01*
X529Y23D02*
X530Y23D01*
X537Y23D02*
X538Y23D01*
X544Y23D02*
X545Y23D01*
X550Y23D02*
X553Y23D01*
X561Y23D02*
X562Y23D01*
X564Y23D02*
X566Y23D01*
X581Y23D02*
X584Y23D01*
X595Y23D02*
X597Y23D01*
X611Y23D02*
X612Y23D01*
X32Y22D02*
X33Y22D01*
X40Y22D02*
X41Y22D01*
X57Y22D02*
X58Y22D01*
X82Y22D02*
X83Y22D01*
X90Y22D02*
X91Y22D01*
X105Y22D02*
X106Y22D01*
X133Y22D02*
X134Y22D01*
X141Y22D02*
X142Y22D01*
X149Y22D02*
X149Y22D01*
X157Y22D02*
X159Y22D01*
X177Y22D02*
X179Y22D01*
X185Y22D02*
X187Y22D01*
X193Y22D02*
X202Y22D01*
X212Y22D02*
X213Y22D01*
X242Y22D02*
X244Y22D01*
X251Y22D02*
X253Y22D01*
X297Y22D02*
X298Y22D01*
X301Y22D02*
X303Y22D01*
X343Y22D02*
X345Y22D01*
X401Y22D02*
X402Y22D01*
X449Y22D02*
X450Y22D01*
X486Y22D02*
X495Y22D01*
X504Y22D02*
X506Y22D01*
X529Y22D02*
X538Y22D01*
X544Y22D02*
X545Y22D01*
X551Y22D02*
X553Y22D01*
X559Y22D02*
X565Y22D01*
X581Y22D02*
X584Y22D01*
X596Y22D02*
X597Y22D01*
X611Y22D02*
X613Y22D01*
X32Y21D02*
X33Y21D01*
X40Y21D02*
X41Y21D01*
X48Y21D02*
X58Y21D01*
X82Y21D02*
X83Y21D01*
X90Y21D02*
X91Y21D01*
X105Y21D02*
X106Y21D01*
X133Y21D02*
X134Y21D01*
X141Y21D02*
X142Y21D01*
X149Y21D02*
X159Y21D01*
X178Y21D02*
X178Y21D01*
X186Y21D02*
X187Y21D01*
X193Y21D02*
X201Y21D01*
X212Y21D02*
X213Y21D01*
X243Y21D02*
X252Y21D01*
X293Y21D02*
X303Y21D01*
X343Y21D02*
X353Y21D01*
X393Y21D02*
X402Y21D01*
X449Y21D02*
X450Y21D01*
X487Y21D02*
X494Y21D01*
X505Y21D02*
X506Y21D01*
X530Y21D02*
X537Y21D01*
X544Y21D02*
X545Y21D01*
X551Y21D02*
X553Y21D01*
X559Y21D02*
X564Y21D01*
X582Y21D02*
X583Y21D01*
X596Y21D02*
X603Y21D01*
X612Y21D02*
X618Y21D01*
X32Y20D02*
X33Y20D01*
X40Y20D02*
X42Y20D01*
X48Y20D02*
X57Y20D01*
X81Y20D02*
X83Y20D01*
X90Y20D02*
X92Y20D01*
X105Y20D02*
X106Y20D01*
X132Y20D02*
X134Y20D01*
X141Y20D02*
X142Y20D01*
X149Y20D02*
X158Y20D01*
X243Y20D02*
X252Y20D01*
X293Y20D02*
X303Y20D01*
X343Y20D02*
X353Y20D01*
X392Y20D02*
X402Y20D01*
X449Y20D02*
X450Y20D01*
X582Y20D02*
X583Y20D01*
X597Y20D02*
X603Y20D01*
X613Y20D02*
X618Y20D01*
X152Y19D02*
X157Y19D01*
X294Y19D02*
X302Y19D01*
X393Y19D02*
X401Y19D01*
X450Y19D02*
X450Y19D01*
D02*
G04 End of Silk1*
M02*