; NON-PLATED HOLES START AT T1
; THROUGH (PLATED) HOLES START AT T100
M48
INCH
T100C0.022741
T101C0.012992
T102C0.019685
T103C0.010000
%
T100
X005441Y003956
X005941Y003956
X002441Y003956
X003469Y000629
X001441Y003956
X002941Y003956
X002469Y000629
X003969Y000629
X000469Y000629
X000969Y000629
X004441Y003956
X005469Y000629
X003441Y003956
X004941Y003956
X004469Y000629
X005969Y000629
X003941Y003956
X004969Y000629
X000441Y003956
X001941Y003956
X001469Y000629
X002969Y000629
X000941Y003956
X001969Y000629
T101
X004992Y001531
X001654Y001889
X003756Y002133
X005433Y002873
X002205Y002460
T102
X000461Y001192
T103
X000709Y002755
X000414Y003129
X000709Y001751
T00
M30
