G04 MADE WITH FRITZING*
G04 WWW.FRITZING.ORG*
G04 DOUBLE SIDED*
G04 HOLES PLATED*
G04 CONTOUR ON CENTER OF CONTOUR VECTOR*
%ASAXBY*%
%FSLAX23Y23*%
%MOIN*%
%OFA0B0*%
%SFA1.0B1.0*%
%ADD10C,0.027165*%
%ADD11C,0.043307*%
%ADD12C,0.042426*%
%ADD13C,0.018661*%
%ADD14C,0.012000*%
%ADD15C,0.006000*%
%LNCOPPER0*%
G90*
G70*
G54D10*
X165Y189D03*
X221Y246D03*
G54D11*
X46Y119D03*
G54D12*
X47Y63D03*
X97Y63D03*
X147Y63D03*
X197Y63D03*
X247Y63D03*
X297Y63D03*
X347Y63D03*
X397Y63D03*
X447Y63D03*
X497Y63D03*
X547Y63D03*
X597Y63D03*
X44Y396D03*
X94Y396D03*
X144Y396D03*
X194Y396D03*
X244Y396D03*
X294Y396D03*
X344Y396D03*
X394Y396D03*
X444Y396D03*
X494Y396D03*
X544Y396D03*
X594Y396D03*
G54D10*
X376Y213D03*
X499Y153D03*
X543Y287D03*
G54D13*
X71Y175D03*
X71Y276D03*
X41Y313D03*
G54D14*
X75Y279D02*
X78Y283D01*
D02*
X118Y319D02*
X75Y279D01*
G54D15*
D02*
X168Y97D02*
X109Y97D01*
D02*
X109Y97D02*
X95Y107D01*
D02*
X95Y107D02*
X96Y128D01*
D02*
X96Y128D02*
X41Y170D01*
D02*
X42Y313D02*
X51Y318D01*
D02*
X41Y170D02*
X42Y313D01*
D02*
X186Y76D02*
X168Y97D01*
G54D14*
D02*
X583Y319D02*
X594Y329D01*
D02*
X594Y329D02*
X594Y379D01*
D02*
X118Y319D02*
X583Y319D01*
G36*
X58Y371D02*
X58Y369D01*
X80Y369D01*
X80Y371D01*
X58Y371D01*
G37*
D02*
G36*
X108Y371D02*
X108Y369D01*
X104Y369D01*
X104Y367D01*
X96Y367D01*
X96Y365D01*
X140Y365D01*
X140Y367D01*
X134Y367D01*
X134Y369D01*
X130Y369D01*
X130Y371D01*
X108Y371D01*
G37*
D02*
G36*
X158Y371D02*
X158Y369D01*
X154Y369D01*
X154Y367D01*
X146Y367D01*
X146Y365D01*
X190Y365D01*
X190Y367D01*
X184Y367D01*
X184Y369D01*
X180Y369D01*
X180Y371D01*
X158Y371D01*
G37*
D02*
G36*
X208Y371D02*
X208Y369D01*
X204Y369D01*
X204Y367D01*
X196Y367D01*
X196Y365D01*
X240Y365D01*
X240Y367D01*
X234Y367D01*
X234Y369D01*
X230Y369D01*
X230Y371D01*
X208Y371D01*
G37*
D02*
G36*
X258Y371D02*
X258Y369D01*
X254Y369D01*
X254Y367D01*
X246Y367D01*
X246Y365D01*
X290Y365D01*
X290Y367D01*
X284Y367D01*
X284Y369D01*
X280Y369D01*
X280Y371D01*
X258Y371D01*
G37*
D02*
G36*
X308Y371D02*
X308Y369D01*
X304Y369D01*
X304Y367D01*
X296Y367D01*
X296Y365D01*
X340Y365D01*
X340Y367D01*
X334Y367D01*
X334Y369D01*
X330Y369D01*
X330Y371D01*
X308Y371D01*
G37*
D02*
G36*
X358Y371D02*
X358Y369D01*
X354Y369D01*
X354Y367D01*
X346Y367D01*
X346Y365D01*
X390Y365D01*
X390Y367D01*
X384Y367D01*
X384Y369D01*
X380Y369D01*
X380Y371D01*
X358Y371D01*
G37*
D02*
G36*
X408Y371D02*
X408Y369D01*
X404Y369D01*
X404Y367D01*
X396Y367D01*
X396Y365D01*
X440Y365D01*
X440Y367D01*
X434Y367D01*
X434Y369D01*
X430Y369D01*
X430Y371D01*
X408Y371D01*
G37*
D02*
G36*
X458Y371D02*
X458Y369D01*
X454Y369D01*
X454Y367D01*
X446Y367D01*
X446Y365D01*
X490Y365D01*
X490Y367D01*
X484Y367D01*
X484Y369D01*
X480Y369D01*
X480Y371D01*
X458Y371D01*
G37*
D02*
G36*
X508Y371D02*
X508Y369D01*
X504Y369D01*
X504Y367D01*
X496Y367D01*
X496Y365D01*
X540Y365D01*
X540Y367D01*
X534Y367D01*
X534Y369D01*
X530Y369D01*
X530Y371D01*
X508Y371D01*
G37*
D02*
G36*
X54Y369D02*
X54Y367D01*
X46Y367D01*
X46Y365D01*
X90Y365D01*
X90Y367D01*
X84Y367D01*
X84Y369D01*
X54Y369D01*
G37*
D02*
G36*
X554Y369D02*
X554Y367D01*
X546Y367D01*
X546Y365D01*
X574Y365D01*
X574Y369D01*
X554Y369D01*
G37*
D02*
G36*
X40Y365D02*
X40Y363D01*
X574Y363D01*
X574Y365D01*
X40Y365D01*
G37*
D02*
G36*
X40Y365D02*
X40Y363D01*
X574Y363D01*
X574Y365D01*
X40Y365D01*
G37*
D02*
G36*
X40Y365D02*
X40Y363D01*
X574Y363D01*
X574Y365D01*
X40Y365D01*
G37*
D02*
G36*
X40Y365D02*
X40Y363D01*
X574Y363D01*
X574Y365D01*
X40Y365D01*
G37*
D02*
G36*
X40Y365D02*
X40Y363D01*
X574Y363D01*
X574Y365D01*
X40Y365D01*
G37*
D02*
G36*
X40Y365D02*
X40Y363D01*
X574Y363D01*
X574Y365D01*
X40Y365D01*
G37*
D02*
G36*
X40Y365D02*
X40Y363D01*
X574Y363D01*
X574Y365D01*
X40Y365D01*
G37*
D02*
G36*
X40Y365D02*
X40Y363D01*
X574Y363D01*
X574Y365D01*
X40Y365D01*
G37*
D02*
G36*
X40Y365D02*
X40Y363D01*
X574Y363D01*
X574Y365D01*
X40Y365D01*
G37*
D02*
G36*
X40Y365D02*
X40Y363D01*
X574Y363D01*
X574Y365D01*
X40Y365D01*
G37*
D02*
G36*
X40Y365D02*
X40Y363D01*
X574Y363D01*
X574Y365D01*
X40Y365D01*
G37*
D02*
G36*
X40Y363D02*
X40Y337D01*
X54Y337D01*
X54Y335D01*
X60Y335D01*
X60Y333D01*
X62Y333D01*
X62Y331D01*
X64Y331D01*
X64Y329D01*
X66Y329D01*
X66Y325D01*
X68Y325D01*
X68Y319D01*
X88Y319D01*
X88Y321D01*
X90Y321D01*
X90Y323D01*
X92Y323D01*
X92Y325D01*
X94Y325D01*
X94Y327D01*
X96Y327D01*
X96Y329D01*
X98Y329D01*
X98Y331D01*
X100Y331D01*
X100Y333D01*
X102Y333D01*
X102Y335D01*
X106Y335D01*
X106Y337D01*
X108Y337D01*
X108Y339D01*
X114Y339D01*
X114Y341D01*
X574Y341D01*
X574Y363D01*
X40Y363D01*
G37*
D02*
G36*
X126Y299D02*
X126Y297D01*
X124Y297D01*
X124Y295D01*
X122Y295D01*
X122Y293D01*
X120Y293D01*
X120Y291D01*
X116Y291D01*
X116Y289D01*
X114Y289D01*
X114Y287D01*
X112Y287D01*
X112Y285D01*
X110Y285D01*
X110Y283D01*
X108Y283D01*
X108Y281D01*
X106Y281D01*
X106Y279D01*
X104Y279D01*
X104Y277D01*
X102Y277D01*
X102Y275D01*
X226Y275D01*
X226Y273D01*
X232Y273D01*
X232Y271D01*
X234Y271D01*
X234Y269D01*
X238Y269D01*
X238Y267D01*
X240Y267D01*
X240Y265D01*
X242Y265D01*
X242Y261D01*
X244Y261D01*
X244Y259D01*
X538Y259D01*
X538Y261D01*
X532Y261D01*
X532Y263D01*
X530Y263D01*
X530Y265D01*
X526Y265D01*
X526Y267D01*
X524Y267D01*
X524Y269D01*
X522Y269D01*
X522Y273D01*
X520Y273D01*
X520Y275D01*
X518Y275D01*
X518Y279D01*
X516Y279D01*
X516Y287D01*
X514Y287D01*
X514Y299D01*
X126Y299D01*
G37*
D02*
G36*
X572Y299D02*
X572Y283D01*
X570Y283D01*
X570Y277D01*
X568Y277D01*
X568Y273D01*
X566Y273D01*
X566Y271D01*
X564Y271D01*
X564Y269D01*
X562Y269D01*
X562Y267D01*
X560Y267D01*
X560Y265D01*
X558Y265D01*
X558Y263D01*
X554Y263D01*
X554Y261D01*
X548Y261D01*
X548Y259D01*
X608Y259D01*
X608Y299D01*
X572Y299D01*
G37*
D02*
G36*
X100Y275D02*
X100Y273D01*
X98Y273D01*
X98Y271D01*
X96Y271D01*
X96Y269D01*
X94Y269D01*
X94Y267D01*
X92Y267D01*
X92Y265D01*
X90Y265D01*
X90Y261D01*
X88Y261D01*
X88Y259D01*
X86Y259D01*
X86Y257D01*
X82Y257D01*
X82Y255D01*
X80Y255D01*
X80Y253D01*
X74Y253D01*
X74Y251D01*
X60Y251D01*
X60Y205D01*
X78Y205D01*
X78Y203D01*
X82Y203D01*
X82Y201D01*
X84Y201D01*
X84Y199D01*
X86Y199D01*
X86Y197D01*
X88Y197D01*
X88Y195D01*
X90Y195D01*
X90Y193D01*
X92Y193D01*
X92Y189D01*
X94Y189D01*
X94Y183D01*
X96Y183D01*
X96Y179D01*
X94Y179D01*
X94Y173D01*
X92Y173D01*
X92Y161D01*
X158Y161D01*
X158Y163D01*
X154Y163D01*
X154Y165D01*
X150Y165D01*
X150Y167D01*
X148Y167D01*
X148Y169D01*
X146Y169D01*
X146Y171D01*
X144Y171D01*
X144Y173D01*
X142Y173D01*
X142Y177D01*
X140Y177D01*
X140Y181D01*
X138Y181D01*
X138Y189D01*
X136Y189D01*
X136Y191D01*
X138Y191D01*
X138Y199D01*
X140Y199D01*
X140Y201D01*
X142Y201D01*
X142Y205D01*
X144Y205D01*
X144Y207D01*
X146Y207D01*
X146Y209D01*
X148Y209D01*
X148Y211D01*
X150Y211D01*
X150Y213D01*
X154Y213D01*
X154Y215D01*
X158Y215D01*
X158Y217D01*
X218Y217D01*
X218Y219D01*
X212Y219D01*
X212Y221D01*
X208Y221D01*
X208Y223D01*
X204Y223D01*
X204Y225D01*
X202Y225D01*
X202Y227D01*
X200Y227D01*
X200Y229D01*
X198Y229D01*
X198Y233D01*
X196Y233D01*
X196Y235D01*
X194Y235D01*
X194Y241D01*
X192Y241D01*
X192Y253D01*
X194Y253D01*
X194Y257D01*
X196Y257D01*
X196Y261D01*
X198Y261D01*
X198Y263D01*
X200Y263D01*
X200Y265D01*
X202Y265D01*
X202Y267D01*
X204Y267D01*
X204Y269D01*
X206Y269D01*
X206Y271D01*
X210Y271D01*
X210Y273D01*
X214Y273D01*
X214Y275D01*
X100Y275D01*
G37*
D02*
G36*
X246Y259D02*
X246Y257D01*
X608Y257D01*
X608Y259D01*
X246Y259D01*
G37*
D02*
G36*
X246Y259D02*
X246Y257D01*
X608Y257D01*
X608Y259D01*
X246Y259D01*
G37*
D02*
G36*
X246Y257D02*
X246Y255D01*
X248Y255D01*
X248Y247D01*
X250Y247D01*
X250Y245D01*
X248Y245D01*
X248Y243D01*
X378Y243D01*
X378Y241D01*
X384Y241D01*
X384Y239D01*
X388Y239D01*
X388Y237D01*
X392Y237D01*
X392Y235D01*
X394Y235D01*
X394Y233D01*
X396Y233D01*
X396Y231D01*
X398Y231D01*
X398Y229D01*
X400Y229D01*
X400Y225D01*
X402Y225D01*
X402Y221D01*
X404Y221D01*
X404Y207D01*
X402Y207D01*
X402Y203D01*
X400Y203D01*
X400Y199D01*
X398Y199D01*
X398Y197D01*
X396Y197D01*
X396Y195D01*
X394Y195D01*
X394Y193D01*
X392Y193D01*
X392Y191D01*
X390Y191D01*
X390Y189D01*
X386Y189D01*
X386Y187D01*
X382Y187D01*
X382Y185D01*
X608Y185D01*
X608Y257D01*
X246Y257D01*
G37*
D02*
G36*
X248Y243D02*
X248Y237D01*
X246Y237D01*
X246Y233D01*
X244Y233D01*
X244Y231D01*
X242Y231D01*
X242Y229D01*
X240Y229D01*
X240Y227D01*
X238Y227D01*
X238Y225D01*
X236Y225D01*
X236Y223D01*
X234Y223D01*
X234Y221D01*
X230Y221D01*
X230Y219D01*
X222Y219D01*
X222Y217D01*
X348Y217D01*
X348Y221D01*
X350Y221D01*
X350Y225D01*
X352Y225D01*
X352Y229D01*
X354Y229D01*
X354Y231D01*
X356Y231D01*
X356Y233D01*
X358Y233D01*
X358Y235D01*
X360Y235D01*
X360Y237D01*
X362Y237D01*
X362Y239D01*
X366Y239D01*
X366Y241D01*
X374Y241D01*
X374Y243D01*
X248Y243D01*
G37*
D02*
G36*
X174Y217D02*
X174Y215D01*
X348Y215D01*
X348Y217D01*
X174Y217D01*
G37*
D02*
G36*
X174Y217D02*
X174Y215D01*
X348Y215D01*
X348Y217D01*
X174Y217D01*
G37*
D02*
G36*
X178Y215D02*
X178Y213D01*
X180Y213D01*
X180Y211D01*
X182Y211D01*
X182Y209D01*
X186Y209D01*
X186Y205D01*
X188Y205D01*
X188Y203D01*
X190Y203D01*
X190Y201D01*
X192Y201D01*
X192Y195D01*
X194Y195D01*
X194Y185D01*
X370Y185D01*
X370Y187D01*
X366Y187D01*
X366Y189D01*
X362Y189D01*
X362Y191D01*
X360Y191D01*
X360Y193D01*
X356Y193D01*
X356Y197D01*
X354Y197D01*
X354Y199D01*
X352Y199D01*
X352Y201D01*
X350Y201D01*
X350Y205D01*
X348Y205D01*
X348Y215D01*
X178Y215D01*
G37*
D02*
G36*
X194Y185D02*
X194Y183D01*
X608Y183D01*
X608Y185D01*
X194Y185D01*
G37*
D02*
G36*
X194Y185D02*
X194Y183D01*
X608Y183D01*
X608Y185D01*
X194Y185D01*
G37*
D02*
G36*
X192Y183D02*
X192Y181D01*
X508Y181D01*
X508Y179D01*
X512Y179D01*
X512Y177D01*
X514Y177D01*
X514Y175D01*
X518Y175D01*
X518Y173D01*
X520Y173D01*
X520Y169D01*
X522Y169D01*
X522Y167D01*
X524Y167D01*
X524Y163D01*
X526Y163D01*
X526Y159D01*
X528Y159D01*
X528Y147D01*
X526Y147D01*
X526Y143D01*
X524Y143D01*
X524Y139D01*
X522Y139D01*
X522Y137D01*
X520Y137D01*
X520Y135D01*
X518Y135D01*
X518Y133D01*
X516Y133D01*
X516Y131D01*
X514Y131D01*
X514Y129D01*
X510Y129D01*
X510Y127D01*
X506Y127D01*
X506Y125D01*
X608Y125D01*
X608Y183D01*
X192Y183D01*
G37*
D02*
G36*
X192Y181D02*
X192Y179D01*
X190Y179D01*
X190Y175D01*
X188Y175D01*
X188Y173D01*
X186Y173D01*
X186Y171D01*
X184Y171D01*
X184Y169D01*
X182Y169D01*
X182Y167D01*
X180Y167D01*
X180Y165D01*
X176Y165D01*
X176Y163D01*
X172Y163D01*
X172Y161D01*
X472Y161D01*
X472Y163D01*
X474Y163D01*
X474Y167D01*
X476Y167D01*
X476Y169D01*
X478Y169D01*
X478Y171D01*
X480Y171D01*
X480Y173D01*
X482Y173D01*
X482Y175D01*
X484Y175D01*
X484Y177D01*
X486Y177D01*
X486Y179D01*
X490Y179D01*
X490Y181D01*
X192Y181D01*
G37*
D02*
G36*
X92Y161D02*
X92Y159D01*
X472Y159D01*
X472Y161D01*
X92Y161D01*
G37*
D02*
G36*
X92Y161D02*
X92Y159D01*
X472Y159D01*
X472Y161D01*
X92Y161D01*
G37*
D02*
G36*
X92Y159D02*
X92Y153D01*
X94Y153D01*
X94Y151D01*
X96Y151D01*
X96Y149D01*
X100Y149D01*
X100Y147D01*
X102Y147D01*
X102Y145D01*
X104Y145D01*
X104Y143D01*
X108Y143D01*
X108Y141D01*
X110Y141D01*
X110Y137D01*
X112Y137D01*
X112Y133D01*
X114Y133D01*
X114Y125D01*
X494Y125D01*
X494Y127D01*
X488Y127D01*
X488Y129D01*
X486Y129D01*
X486Y131D01*
X482Y131D01*
X482Y133D01*
X480Y133D01*
X480Y135D01*
X478Y135D01*
X478Y137D01*
X476Y137D01*
X476Y141D01*
X474Y141D01*
X474Y145D01*
X472Y145D01*
X472Y151D01*
X470Y151D01*
X470Y155D01*
X472Y155D01*
X472Y159D01*
X92Y159D01*
G37*
D02*
G36*
X114Y125D02*
X114Y123D01*
X608Y123D01*
X608Y125D01*
X114Y125D01*
G37*
D02*
G36*
X114Y125D02*
X114Y123D01*
X608Y123D01*
X608Y125D01*
X114Y125D01*
G37*
D02*
G36*
X114Y123D02*
X114Y115D01*
X174Y115D01*
X174Y113D01*
X178Y113D01*
X178Y111D01*
X180Y111D01*
X180Y109D01*
X182Y109D01*
X182Y107D01*
X184Y107D01*
X184Y105D01*
X186Y105D01*
X186Y103D01*
X188Y103D01*
X188Y101D01*
X190Y101D01*
X190Y97D01*
X192Y97D01*
X192Y95D01*
X194Y95D01*
X194Y93D01*
X556Y93D01*
X556Y91D01*
X560Y91D01*
X560Y89D01*
X562Y89D01*
X562Y87D01*
X582Y87D01*
X582Y89D01*
X584Y89D01*
X584Y91D01*
X590Y91D01*
X590Y93D01*
X608Y93D01*
X608Y123D01*
X114Y123D01*
G37*
D02*
G36*
X206Y93D02*
X206Y91D01*
X210Y91D01*
X210Y89D01*
X212Y89D01*
X212Y87D01*
X232Y87D01*
X232Y89D01*
X234Y89D01*
X234Y91D01*
X240Y91D01*
X240Y93D01*
X206Y93D01*
G37*
D02*
G36*
X256Y93D02*
X256Y91D01*
X260Y91D01*
X260Y89D01*
X262Y89D01*
X262Y87D01*
X282Y87D01*
X282Y89D01*
X284Y89D01*
X284Y91D01*
X290Y91D01*
X290Y93D01*
X256Y93D01*
G37*
D02*
G36*
X306Y93D02*
X306Y91D01*
X310Y91D01*
X310Y89D01*
X312Y89D01*
X312Y87D01*
X332Y87D01*
X332Y89D01*
X334Y89D01*
X334Y91D01*
X340Y91D01*
X340Y93D01*
X306Y93D01*
G37*
D02*
G36*
X356Y93D02*
X356Y91D01*
X360Y91D01*
X360Y89D01*
X362Y89D01*
X362Y87D01*
X382Y87D01*
X382Y89D01*
X384Y89D01*
X384Y91D01*
X390Y91D01*
X390Y93D01*
X356Y93D01*
G37*
D02*
G36*
X406Y93D02*
X406Y91D01*
X410Y91D01*
X410Y89D01*
X412Y89D01*
X412Y87D01*
X432Y87D01*
X432Y89D01*
X434Y89D01*
X434Y91D01*
X440Y91D01*
X440Y93D01*
X406Y93D01*
G37*
D02*
G36*
X456Y93D02*
X456Y91D01*
X460Y91D01*
X460Y89D01*
X462Y89D01*
X462Y87D01*
X482Y87D01*
X482Y89D01*
X484Y89D01*
X484Y91D01*
X490Y91D01*
X490Y93D01*
X456Y93D01*
G37*
D02*
G36*
X506Y93D02*
X506Y91D01*
X510Y91D01*
X510Y89D01*
X512Y89D01*
X512Y87D01*
X532Y87D01*
X532Y89D01*
X534Y89D01*
X534Y91D01*
X540Y91D01*
X540Y93D01*
X506Y93D01*
G37*
D02*
G36*
X210Y279D02*
X229Y279D01*
X229Y255D01*
X210Y255D01*
X210Y279D01*
G37*
D02*
G36*
X210Y241D02*
X229Y241D01*
X229Y217D01*
X210Y217D01*
X210Y241D01*
G37*
D02*
G36*
X188Y257D02*
X212Y257D01*
X212Y238D01*
X188Y238D01*
X188Y257D01*
G37*
D02*
G36*
X226Y257D02*
X250Y257D01*
X250Y238D01*
X226Y238D01*
X226Y257D01*
G37*
D02*
G36*
X364Y247D02*
X383Y247D01*
X383Y223D01*
X364Y223D01*
X364Y247D01*
G37*
D02*
G36*
X364Y209D02*
X383Y209D01*
X383Y185D01*
X364Y185D01*
X364Y209D01*
G37*
D02*
G36*
X344Y225D02*
X366Y225D01*
X366Y206D01*
X344Y206D01*
X344Y225D01*
G37*
D02*
G36*
X380Y225D02*
X404Y225D01*
X404Y206D01*
X380Y206D01*
X380Y225D01*
G37*
D02*
G36*
X154Y221D02*
X173Y221D01*
X173Y199D01*
X154Y199D01*
X154Y221D01*
G37*
D02*
G36*
X154Y185D02*
X173Y185D01*
X173Y161D01*
X154Y161D01*
X154Y185D01*
G37*
D02*
G36*
X132Y201D02*
X156Y201D01*
X156Y182D01*
X132Y182D01*
X132Y201D01*
G37*
D02*
G36*
X170Y201D02*
X194Y201D01*
X194Y182D01*
X170Y182D01*
X170Y201D01*
G37*
D02*
G36*
X533Y97D02*
X560Y97D01*
X560Y77D01*
X533Y77D01*
X533Y97D01*
G37*
D02*
G36*
X74Y207D02*
X89Y207D01*
X89Y187D01*
X74Y187D01*
X74Y207D01*
G37*
D02*
G36*
X74Y191D02*
X96Y191D01*
X96Y176D01*
X74Y176D01*
X74Y191D01*
G37*
D02*
G36*
X532Y283D02*
X551Y283D01*
X551Y259D01*
X532Y259D01*
X532Y283D01*
G37*
D02*
G36*
X510Y299D02*
X534Y299D01*
X534Y280D01*
X510Y280D01*
X510Y299D01*
G37*
D02*
G36*
X548Y299D02*
X572Y299D01*
X572Y280D01*
X548Y280D01*
X548Y299D01*
G37*
D02*
G36*
X488Y185D02*
X507Y185D01*
X507Y163D01*
X488Y163D01*
X488Y185D01*
G37*
D02*
G36*
X488Y149D02*
X507Y149D01*
X507Y125D01*
X488Y125D01*
X488Y149D01*
G37*
D02*
G36*
X466Y165D02*
X490Y165D01*
X490Y146D01*
X466Y146D01*
X466Y165D01*
G37*
D02*
G36*
X504Y165D02*
X528Y165D01*
X528Y146D01*
X504Y146D01*
X504Y165D01*
G37*
D02*
G04 End of Copper0*
M02*