<?xml version='1.0' encoding='UTF-8' standalone='no'?>
<!-- Created with Fritzing (http://www.fritzing.org/) -->
<svg xmlns="http://www.w3.org/2000/svg" version="1.2" width="0.655323in" viewBox="0 0 47.1832 32.8819" xmlns:svg="http://www.w3.org/2000/svg" height="0.456693in"  baseProfile="tiny" x="0in" y="0in">
 <g transform="matrix(-1, 0, 0, 1, 47.1832, 0)">
  <g partID="20320">
   <g id="board" >
    <rect id="boardoutline" fill="none" stroke="black" width="46.6073" stroke-width="0.5" height="32.3059"  fill-opacity="0.5" x="0.288" y="0.288"/>
   </g>
  </g>
  <g partID="3929940">
   <g transform="translate(4.176,6.192)">
    <g id="groundplane" >
     <g id="connector0pad" >
      <polygon fill="black" stroke="none" points="0.432,0,0.432,0.144,0.144,0.144,0.144,0.288,0,0.288,0,0.432,2.736,0.432,2.736,0.288,2.304,0.288,2.304,0.144,2.016,0.144,2.016,0" stroke-width="0" />
      <polygon fill="black" stroke="none" points="4.032,0,4.032,0.144,3.744,0.144,3.744,0.288,3.168,0.288,3.168,0.432,5.616,0.432,5.616,0" stroke-width="0" />
      <polygon fill="black" stroke="none" points="0,0.432,0,0.576,5.616,0.576,5.616,0.432" stroke-width="0" />
      <polygon fill="black" stroke="none" points="0,0.432,0,0.576,5.616,0.576,5.616,0.432" stroke-width="0" />
      <polygon fill="black" stroke="none" points="0,0.576,0,4.752,1.584,4.752,1.584,4.608,1.728,4.608,1.728,4.464,1.872,4.464,1.872,4.32,2.016,4.32,2.016,4.176,2.16,4.176,2.16,4.032,2.448,4.032,2.448,3.888,2.592,3.888,2.592,3.744,2.736,3.744,2.736,3.6,2.88,3.6,2.88,3.456,3.168,3.456,3.168,3.312,3.312,3.312,3.312,3.168,3.456,3.168,3.456,3.024,3.6,3.024,3.6,2.88,3.744,2.88,3.744,2.736,4.032,2.736,4.032,2.592,4.176,2.592,4.176,2.448,4.32,2.448,4.32,2.304,4.464,2.304,4.464,2.16,4.752,2.16,4.752,2.016,4.896,2.016,4.896,1.872,5.04,1.872,5.04,1.728,5.184,1.728,5.184,1.584,5.328,1.584,5.328,1.44,5.616,1.44,5.616,0.576" stroke-width="0" />
     </g>
    </g>
   </g>
  </g>
  <g partID="3929950">
   <g transform="translate(6.336,9.216)">
    <g id="groundplane" >
     <polygon fill="black" stroke="none" points="36.432,0,36.432,0.144,36.144,0.144,36.144,0.288,35.568,0.288,35.568,0.432,26.352,0.432,26.352,1.728,26.208,1.728,26.208,2.16,26.064,2.16,26.064,2.304,25.92,2.304,25.92,2.448,25.776,2.448,25.776,2.592,25.632,2.592,25.632,2.736,25.488,2.736,25.488,2.88,25.344,2.88,25.344,3.024,25.056,3.024,25.056,3.168,24.768,3.168,24.768,3.312,22.608,3.312,22.608,7.344,11.232,7.344,11.232,7.488,11.088,7.488,11.088,7.632,10.8,7.632,10.8,7.776,10.656,7.776,10.656,7.92,10.08,7.92,10.08,8.064,37.872,8.064,37.872,0" stroke-width="0" />
     <polygon fill="black" stroke="none" points="6.624,2.736,6.624,2.88,6.48,2.88,6.48,3.024,6.336,3.024,6.336,3.168,6.048,3.168,6.048,3.312,5.904,3.312,5.904,3.456,5.76,3.456,5.76,3.6,5.616,3.6,5.616,3.744,5.328,3.744,5.328,3.888,5.184,3.888,5.184,4.032,5.04,4.032,5.04,4.176,4.896,4.176,4.896,4.32,4.752,4.32,4.752,4.464,4.464,4.464,4.464,4.608,4.32,4.608,4.32,4.752,4.176,4.752,4.176,4.896,4.032,4.896,4.032,5.04,3.744,5.04,3.744,5.184,3.6,5.184,3.6,5.328,3.456,5.328,3.456,5.472,3.312,5.472,3.312,5.616,3.024,5.616,3.024,5.76,2.88,5.76,2.88,5.904,2.736,5.904,2.736,6.048,2.592,6.048,2.592,6.192,2.448,6.192,2.448,6.336,2.16,6.336,2.16,6.48,2.016,6.48,2.016,6.624,1.872,6.624,1.872,6.768,1.728,6.768,1.728,6.912,1.44,6.912,1.44,7.056,1.296,7.056,1.296,7.2,1.152,7.2,1.152,7.344,1.008,7.344,1.008,7.488,0.72,7.488,0.72,7.632,0.576,7.632,0.576,7.776,0.432,7.776,0.432,7.92,0.288,7.92,0.288,8.064,0,8.064,0,9.648,0.144,9.648,0.144,9.792,0.288,9.792,0.288,9.936,0.432,9.936,0.432,10.08,0.576,10.08,0.576,10.224,0.72,10.224,0.72,10.512,0.864,10.512,0.864,12.096,5.472,12.096,5.472,11.952,5.184,11.952,5.184,11.808,4.896,11.808,4.896,11.664,4.752,11.664,4.752,11.52,4.608,11.52,4.608,11.376,4.464,11.376,4.464,11.232,4.32,11.232,4.32,10.944,4.176,10.944,4.176,10.8,4.032,10.8,4.032,10.368,3.888,10.368,3.888,9.792,4.032,9.792,4.032,9.36,4.176,9.36,4.176,9.072,4.32,9.072,4.32,8.928,4.464,8.928,4.464,8.784,4.608,8.784,4.608,8.64,4.752,8.64,4.752,8.496,4.896,8.496,4.896,8.352,5.184,8.352,5.184,8.208,5.472,8.208,5.472,8.064,9.792,8.064,9.792,7.92,9.36,7.92,9.36,7.776,9.072,7.776,9.072,7.632,8.784,7.632,8.784,7.488,8.64,7.488,8.64,7.344,8.496,7.344,8.496,7.2,8.352,7.2,8.352,7.056,8.208,7.056,8.208,6.768,8.064,6.768,8.064,6.48,7.92,6.48,7.92,5.472,8.064,5.472,8.064,5.184,8.208,5.184,8.208,4.896,8.352,4.896,8.352,4.752,8.496,4.752,8.496,4.608,8.64,4.608,8.64,4.464,8.784,4.464,8.784,4.32,8.928,4.32,8.928,4.176,9.216,4.176,9.216,2.736" stroke-width="0" />
     <polygon fill="black" stroke="none" points="6.624,8.064,6.624,8.208,37.872,8.208,37.872,8.064" stroke-width="0" />
     <polygon fill="black" stroke="none" points="6.624,8.064,6.624,8.208,37.872,8.208,37.872,8.064" stroke-width="0" />
     <polygon fill="black" stroke="none" points="6.912,8.208,6.912,8.352,26.352,8.352,26.352,8.496,26.784,8.496,26.784,8.64,26.928,8.64,26.928,8.784,27.216,8.784,27.216,8.928,27.36,8.928,27.36,9.072,27.504,9.072,27.504,9.216,27.648,9.216,27.648,9.504,27.792,9.504,27.792,9.792,27.936,9.792,27.936,10.224,28.08,10.224,28.08,10.512,27.936,10.512,27.936,11.088,27.792,11.088,27.792,11.376,27.648,11.376,27.648,11.52,27.504,11.52,27.504,11.664,27.36,11.664,27.36,11.808,27.216,11.808,27.216,11.952,27.072,11.952,27.072,12.096,26.928,12.096,26.928,12.24,26.64,12.24,26.64,12.384,26.064,12.384,26.064,12.528,37.872,12.528,37.872,8.208" stroke-width="0" />
     <polygon fill="black" stroke="none" points="7.056,8.352,7.056,8.496,7.2,8.496,7.2,8.64,7.344,8.64,7.344,8.784,7.488,8.784,7.488,8.928,7.632,8.928,7.632,9.072,7.776,9.072,7.776,9.36,7.92,9.36,7.92,9.504,22.608,9.504,22.608,9.936,24.048,9.936,24.048,9.648,24.192,9.648,24.192,9.36,24.336,9.36,24.336,9.216,24.48,9.216,24.48,9.072,24.624,9.072,24.624,8.928,24.768,8.928,24.768,8.784,24.912,8.784,24.912,8.64,25.2,8.64,25.2,8.496,25.488,8.496,25.488,8.352" stroke-width="0" />
     <polygon fill="black" stroke="none" points="7.92,9.504,7.92,9.648,8.064,9.648,8.064,10.368,7.92,10.368,7.92,10.8,7.776,10.8,7.776,11.088,7.632,11.088,7.632,11.232,7.488,11.232,7.488,11.376,7.344,11.376,7.344,11.52,7.2,11.52,7.2,11.664,7.056,11.664,7.056,11.808,6.768,11.808,6.768,11.952,6.48,11.952,6.48,12.096,11.088,12.096,11.088,9.504" stroke-width="0" />
     <polygon fill="black" stroke="none" points="22.608,10.8,22.608,12.528,25.92,12.528,25.92,12.384,25.344,12.384,25.344,12.24,25.056,12.24,25.056,12.096,24.912,12.096,24.912,11.952,24.624,11.952,24.624,11.808,24.48,11.808,24.48,11.664,24.336,11.664,24.336,11.376,24.192,11.376,24.192,11.232,24.048,11.232,24.048,10.8" stroke-width="0" />
     <polygon fill="black" stroke="none" points="0.864,12.096,0.864,12.24,11.088,12.24,11.088,12.096" stroke-width="0" />
     <polygon fill="black" stroke="none" points="0.864,12.096,0.864,12.24,11.088,12.24,11.088,12.096" stroke-width="0" />
     <polygon fill="black" stroke="none" points="0.864,12.24,0.864,12.816,1.008,12.816,1.008,12.96,1.296,12.96,1.296,13.104,1.44,13.104,1.44,13.248,1.728,13.248,1.728,13.392,1.872,13.392,1.872,13.536,2.016,13.536,2.016,13.824,2.16,13.824,2.16,15.264,2.304,15.264,2.304,15.408,6.624,15.408,6.624,15.552,6.912,15.552,6.912,15.696,7.056,15.696,7.056,15.84,7.2,15.84,7.2,15.984,7.344,15.984,7.344,16.128,7.488,16.128,7.488,16.272,7.632,16.272,7.632,16.56,7.776,16.56,7.776,16.704,7.92,16.704,7.92,16.848,8.064,16.848,8.064,16.992,8.928,16.992,8.928,17.136,10.368,17.136,10.368,16.992,10.512,16.992,10.512,16.56,10.656,16.56,10.656,16.128,10.8,16.128,10.8,15.696,10.944,15.696,10.944,15.408,11.088,15.408,11.088,12.24" stroke-width="0" />
     <polygon fill="black" stroke="none" points="22.608,12.528,22.608,12.672,37.872,12.672,37.872,12.528" stroke-width="0" />
     <polygon fill="black" stroke="none" points="22.608,12.528,22.608,12.672,37.872,12.672,37.872,12.528" stroke-width="0" />
     <polygon fill="black" stroke="none" points="22.608,12.672,22.608,16.992,34.128,16.992,34.128,17.136,34.416,17.136,34.416,17.28,36.144,17.28,36.144,17.136,36.432,17.136,36.432,16.992,37.872,16.992,37.872,12.672" stroke-width="0" />
     <polygon fill="black" stroke="none" points="23.328,16.992,23.328,17.136,23.616,17.136,23.616,17.28,25.344,17.28,25.344,17.136,25.632,17.136,25.632,16.992" stroke-width="0" />
     <polygon fill="black" stroke="none" points="26.928,16.992,26.928,17.136,27.216,17.136,27.216,17.28,28.944,17.28,28.944,17.136,29.232,17.136,29.232,16.992" stroke-width="0" />
     <polygon fill="black" stroke="none" points="30.528,16.992,30.528,17.136,30.816,17.136,30.816,17.28,32.544,17.28,32.544,17.136,32.832,17.136,32.832,16.992" stroke-width="0" />
     <g id="connector0pad" >
      <circle fill="black" cx="30.3462" cy="3.837" stroke="none" r="2.7" stroke-width="0" />
     </g>
    </g>
   </g>
  </g>
  <g partID="3929960">
   <g transform="translate(14.2608,13.1688)">
    <g id="groundplane" >
     <polygon fill="black" stroke="none" points="0,0,1.368,0,1.368,1.728,0,1.728" stroke-width="0" />
    </g>
   </g>
  </g>
  <g partID="3929970">
   <g transform="translate(15.408,15.552)">
    <g id="groundplane" >
     <polygon fill="black" stroke="none" points="0,0,1.368,0,1.368,1.728,0,1.728" stroke-width="0" />
    </g>
   </g>
  </g>
  <g partID="3929980">
   <g transform="translate(13.968,14.4)">
    <g id="groundplane" >
     <polygon fill="black" stroke="none" points="0,0,1.584,0,1.584,1.368,0,1.368" stroke-width="0" />
    </g>
   </g>
  </g>
  <g partID="3929990">
   <g transform="translate(31.392,17.28)">
    <g id="groundplane" >
     <polygon fill="black" stroke="none" points="0,0,1.368,0,1.368,1.728,0,1.728" stroke-width="0" />
    </g>
   </g>
  </g>
  <g partID="3930000">
   <g transform="translate(32.544,18.864)">
    <g id="groundplane" >
     <polygon fill="black" stroke="none" points="0,0,1.872,0,1.872,1.368,0,1.368" stroke-width="0" />
    </g>
   </g>
  </g>
  <g partID="3930010">
   <g transform="translate(11.52,16.992)">
    <g id="groundplane" >
     <polygon fill="black" stroke="none" points="0,0,1.368,0,1.368,1.584,0,1.584" stroke-width="0" />
    </g>
   </g>
  </g>
  <g partID="3930020">
   <g transform="translate(11.52,19.584)">
    <g id="groundplane" >
     <polygon fill="black" stroke="none" points="0,0,1.368,0,1.368,1.728,0,1.728" stroke-width="0" />
    </g>
   </g>
  </g>
  <g partID="3930030">
   <g transform="translate(9.936,18.432)">
    <g id="groundplane" >
     <polygon fill="black" stroke="none" points="0,0,1.728,0,1.728,1.368,0,1.368" stroke-width="0" />
    </g>
   </g>
  </g>
  <g partID="3930040">
   <g transform="translate(12.672,18.432)">
    <g id="groundplane" >
     <polygon fill="black" stroke="none" points="0,0,1.728,0,1.728,1.368,0,1.368" stroke-width="0" />
    </g>
   </g>
  </g>
  <g partID="3930050">
   <g transform="translate(30.96,9.648)">
    <g id="groundplane" >
     <polygon fill="black" stroke="none" points="0,0,1.728,0,1.728,1.368,0,1.368" stroke-width="0" />
    </g>
   </g>
  </g>
  <g partID="3930060">
   <g transform="translate(25.848,18.432)">
    <g id="groundplane" >
     <polygon fill="black" stroke="none" points="0,0,1.512,0,1.512,4.032,0,4.032" stroke-width="0" />
    </g>
   </g>
  </g>
  <g partID="3930070">
   <g transform="translate(5.228,18.3664)">
    <g id="groundplane" >
     <polygon fill="black" stroke="none" points="0,0,1.944,0,1.944,1.296,0,1.296" stroke-width="0" />
    </g>
   </g>
  </g>
  <g partID="3930080">
   <g transform="translate(38.592,25.92)">
    <g id="groundplane" >
     <polygon fill="black" stroke="none" points="0,0,1.944,0,1.944,1.44,0,1.44" stroke-width="0" />
    </g>
   </g>
  </g>
  <g partID="3930090">
   <g transform="translate(27.2504,18.6912)">
    <g id="groundplane" >
     <polygon fill="black" stroke="none" points="0,0,1.944,0,1.944,1.296,0,1.296" stroke-width="0" />
    </g>
   </g>
  </g>
  <g partID="3930100">
   <g transform="translate(29.132,19.0016)">
    <g id="groundplane" >
     <polygon fill="black" stroke="none" points="0,0,1.08,0,1.08,1.44,0,1.44" stroke-width="0" />
    </g>
   </g>
  </g>
  <g partID="3930110">
   <g transform="translate(5.76,19.584)">
    <g id="groundplane" >
     <polygon fill="black" stroke="none" points="0,0,1.44,0,1.44,1.08,0,1.08" stroke-width="0" />
    </g>
   </g>
  </g>
  <g partID="3420160">
   <g transform="translate(27.8287,25.6044)">
    <g transform="matrix(-1,0,0,-1,0,0)">
     <g id="copper0" flipped="1">
      <g transform="matrix(-1, 0, 0, 1, 9.35433, 0)">
       <g>
        <g transform="matrix(1, 0, 0, 1, -0.420793, 2.40809)">
         <g>
          <g>
           <g gorn="0.4.0.0" stroke-width="0">
            <rect gorn="0.4.0.0.0" id="connector0pin" fill="black" stroke="none" width="2.15433" height="5.81102" x="0.420793" y="7.6549"/>
            <rect gorn="0.4.0.0.1" id="connector5pin" fill="black" stroke="none" width="2.15433" height="5.81102" x="0.420793" y="-2.40809"/>
            <rect gorn="0.4.0.0.2" id="connector4pin" fill="black" stroke="none" width="2.15433" height="5.81102" x="4.02079" y="-2.40809"/>
            <rect gorn="0.4.0.0.3" id="connector3pin" fill="black" stroke="none" width="2.15433" height="5.81102" x="7.62079" y="-2.40809"/>
            <rect gorn="0.4.0.0.4" id="connector1pin" fill="black" stroke="none" width="2.15433" height="5.81102" x="4.02079" y="7.6549"/>
            <rect gorn="0.4.0.0.5" id="connector2pin" fill="black" stroke="none" width="2.15433" height="5.81102" x="7.62079" y="7.6549"/>
           </g>
          </g>
         </g>
        </g>
       </g>
      </g>
     </g>
    </g>
   </g>
  </g>
  <g partID="3401360">
   <g transform="translate(9.7448,16.6984)">
    <g id="copper0" >
     <circle id="connector0pin" fill="none" cx="2.57795" cy="2.57795" stroke="black" r="0.722837" stroke-width="0.510236" />
    </g>
   </g>
  </g>
  <g partID="3401290">
   <g transform="translate(13.7136,12.588)">
    <g id="copper0" >
     <circle id="connector0pin" fill="none" cx="2.57795" cy="2.57795" stroke="black" r="0.722837" stroke-width="0.510236" />
    </g>
   </g>
  </g>
  <g partID="3299590">
   <g transform="translate(0.5184,21.0776)">
    <g id="copper0" >
     <circle id="connector0pin" fill="none" cx="3.21575" cy="3.21575" stroke="black" r="1.23307" stroke-width="0.765353" />
    </g>
   </g>
  </g>
  <g partID="3281950">
   <g transform="translate(2.2632,26.82)">
    <g transform="matrix(1, 0, 0, 1, -2.83433, 12.7208)">
     <g id="copper0">
      <g gorn="0.6.0.0">
       <g gorn="0.6.0.0.0" id="copper1">
        <g transform="matrix(0.602248, 0.037216, -0.037216, 0.602248, 2.02247, -13.8408)">
         <g>
          <g>
           <circle gorn="0.6.0.0.0.0.0.0" id="connector0pin" connectorname="1" fill="none" style="stroke-miterlimit:4;stroke-dasharray:none" cx="4.14" cy="4.14" stroke="black" r="1.944" stroke-width="1.17445" d="m 8450,5750 c 0,1491.1688 -1208.8312,2700 -2700,2700 -1491.1688,0 -2700,-1208.8312 -2700,-2700 0,-1491.1688 1208.8312,-2700 2700,-2700 1491.1688,0 2700,1208.8312 2700,2700 z"/>
          </g>
         </g>
        </g>
        <g transform="matrix(0.602248, 0.037216, -0.037216, 0.602248, 5.62247, -13.8408)">
         <g>
          <g>
           <circle gorn="0.6.0.0.0.1.0.0" id="connector1pin" connectorname="1" fill="none" style="stroke-miterlimit:4;stroke-dasharray:none" cx="4.14" cy="4.14" stroke="black" r="1.944" stroke-width="1.17445" d="m 8450,5750 c 0,1491.1688 -1208.8312,2700 -2700,2700 -1491.1688,0 -2700,-1208.8312 -2700,-2700 0,-1491.1688 1208.8312,-2700 2700,-2700 1491.1688,0 2700,1208.8312 2700,2700 z"/>
          </g>
         </g>
        </g>
        <g transform="matrix(0.602248, 0.037216, -0.037216, 0.602248, 9.22247, -13.8408)">
         <g>
          <g>
           <circle gorn="0.6.0.0.0.2.0.0" id="connector2pin" connectorname="1" fill="none" style="stroke-miterlimit:4;stroke-dasharray:none" cx="4.14" cy="4.14" stroke="black" r="1.944" stroke-width="1.17445" d="m 8450,5750 c 0,1491.1688 -1208.8312,2700 -2700,2700 -1491.1688,0 -2700,-1208.8312 -2700,-2700 0,-1491.1688 1208.8312,-2700 2700,-2700 1491.1688,0 2700,1208.8312 2700,2700 z"/>
          </g>
         </g>
        </g>
        <g transform="matrix(0.602248, 0.037216, -0.037216, 0.602248, 12.8225, -13.8408)">
         <g>
          <g>
           <circle gorn="0.6.0.0.0.3.0.0" id="connector3pin" connectorname="1" fill="none" style="stroke-miterlimit:4;stroke-dasharray:none" cx="4.14" cy="4.14" stroke="black" r="1.944" stroke-width="1.17445" d="m 8450,5750 c 0,1491.1688 -1208.8312,2700 -2700,2700 -1491.1688,0 -2700,-1208.8312 -2700,-2700 0,-1491.1688 1208.8312,-2700 2700,-2700 1491.1688,0 2700,1208.8312 2700,2700 z"/>
          </g>
         </g>
        </g>
        <g transform="matrix(0.602248, 0.037216, -0.037216, 0.602248, 16.4225, -13.8408)">
         <g>
          <g>
           <circle gorn="0.6.0.0.0.4.0.0" id="connector4pin" connectorname="1" fill="none" style="stroke-miterlimit:4;stroke-dasharray:none" cx="4.14" cy="4.14" stroke="black" r="1.944" stroke-width="1.17445" d="m 8450,5750 c 0,1491.1688 -1208.8312,2700 -2700,2700 -1491.1688,0 -2700,-1208.8312 -2700,-2700 0,-1491.1688 1208.8312,-2700 2700,-2700 1491.1688,0 2700,1208.8312 2700,2700 z"/>
          </g>
         </g>
        </g>
        <g transform="matrix(0.602248, 0.037216, -0.037216, 0.602248, 20.0225, -13.8408)">
         <g>
          <g>
           <circle gorn="0.6.0.0.0.5.0.0" id="connector5pin" connectorname="1" fill="none" style="stroke-miterlimit:4;stroke-dasharray:none" cx="4.14" cy="4.14" stroke="black" r="1.944" stroke-width="1.17445" d="m 8450,5750 c 0,1491.1688 -1208.8312,2700 -2700,2700 -1491.1688,0 -2700,-1208.8312 -2700,-2700 0,-1491.1688 1208.8312,-2700 2700,-2700 1491.1688,0 2700,1208.8312 2700,2700 z"/>
          </g>
         </g>
        </g>
        <g transform="matrix(0.602248, 0.037216, -0.037216, 0.602248, 23.6225, -13.8408)">
         <g>
          <g>
           <circle gorn="0.6.0.0.0.6.0.0" id="connector6pin" connectorname="1" fill="none" style="stroke-miterlimit:4;stroke-dasharray:none" cx="4.14" cy="4.14" stroke="black" r="1.944" stroke-width="1.17445" d="m 8450,5750 c 0,1491.1688 -1208.8312,2700 -2700,2700 -1491.1688,0 -2700,-1208.8312 -2700,-2700 0,-1491.1688 1208.8312,-2700 2700,-2700 1491.1688,0 2700,1208.8312 2700,2700 z"/>
          </g>
         </g>
        </g>
        <g transform="matrix(0.602248, 0.037216, -0.037216, 0.602248, 27.2225, -13.8408)">
         <g>
          <g>
           <circle gorn="0.6.0.0.0.7.0.0" id="connector7pin" connectorname="1" fill="none" style="stroke-miterlimit:4;stroke-dasharray:none" cx="4.14" cy="4.14" stroke="black" r="1.944" stroke-width="1.17445" d="m 8450,5750 c 0,1491.1688 -1208.8312,2700 -2700,2700 -1491.1688,0 -2700,-1208.8312 -2700,-2700 0,-1491.1688 1208.8312,-2700 2700,-2700 1491.1688,0 2700,1208.8312 2700,2700 z"/>
          </g>
         </g>
        </g>
        <g transform="matrix(0.602248, 0.037216, -0.037216, 0.602248, 30.8225, -13.8408)">
         <g>
          <g>
           <circle gorn="0.6.0.0.0.8.0.0" id="connector8pin" connectorname="1" fill="none" style="stroke-miterlimit:4;stroke-dasharray:none" cx="4.14" cy="4.14" stroke="black" r="1.944" stroke-width="1.17445" d="m 8450,5750 c 0,1491.1688 -1208.8312,2700 -2700,2700 -1491.1688,0 -2700,-1208.8312 -2700,-2700 0,-1491.1688 1208.8312,-2700 2700,-2700 1491.1688,0 2700,1208.8312 2700,2700 z"/>
          </g>
         </g>
        </g>
        <g transform="matrix(0.602248, 0.037216, -0.037216, 0.602248, 34.4225, -13.8408)">
         <g>
          <g>
           <circle gorn="0.6.0.0.0.9.0.0" id="connector9pin" connectorname="1" fill="none" style="stroke-miterlimit:4;stroke-dasharray:none" cx="4.14" cy="4.14" stroke="black" r="1.944" stroke-width="1.17445" d="m 8450,5750 c 0,1491.1688 -1208.8312,2700 -2700,2700 -1491.1688,0 -2700,-1208.8312 -2700,-2700 0,-1491.1688 1208.8312,-2700 2700,-2700 1491.1688,0 2700,1208.8312 2700,2700 z"/>
          </g>
         </g>
        </g>
        <g transform="matrix(0.602248, 0.037216, -0.037216, 0.602248, 38.0225, -13.8408)">
         <g>
          <g>
           <circle gorn="0.6.0.0.0.10.0.0" id="connector10pin" connectorname="1" fill="none" style="stroke-miterlimit:4;stroke-dasharray:none" cx="4.14" cy="4.14" stroke="black" r="1.944" stroke-width="1.17445" d="m 8450,5750 c 0,1491.1688 -1208.8312,2700 -2700,2700 -1491.1688,0 -2700,-1208.8312 -2700,-2700 0,-1491.1688 1208.8312,-2700 2700,-2700 1491.1688,0 2700,1208.8312 2700,2700 z"/>
          </g>
         </g>
        </g>
        <g transform="matrix(0.602248, 0.037216, -0.037216, 0.602248, 41.6225, -13.8408)">
         <g>
          <g>
           <circle gorn="0.6.0.0.0.11.0.0" id="connector11pin" connectorname="1" fill="none" style="stroke-miterlimit:4;stroke-dasharray:none" cx="4.14" cy="4.14" stroke="black" r="1.944" stroke-width="1.17445" d="m 8450,5750 c 0,1491.1688 -1208.8312,2700 -2700,2700 -1491.1688,0 -2700,-1208.8312 -2700,-2700 0,-1491.1688 1208.8312,-2700 2700,-2700 1491.1688,0 2700,1208.8312 2700,2700 z"/>
          </g>
         </g>
        </g>
       </g>
      </g>
     </g>
    </g>
   </g>
  </g>
  <g partID="3281680">
   <g transform="translate(2.0648,2.86808)">
    <g transform="matrix(1, 0, 0, 1, -2.83433, 12.7208)">
     <g id="copper0">
      <g gorn="0.6.0.0">
       <g gorn="0.6.0.0.0" id="copper1">
        <g transform="matrix(0.602248, 0.037216, -0.037216, 0.602248, 2.02247, -13.8408)">
         <g>
          <g>
           <circle gorn="0.6.0.0.0.0.0.0" id="connector0pin" connectorname="1" fill="none" style="stroke-miterlimit:4;stroke-dasharray:none" cx="4.14" cy="4.14" stroke="black" r="1.944" stroke-width="1.17445" d="m 8450,5750 c 0,1491.1688 -1208.8312,2700 -2700,2700 -1491.1688,0 -2700,-1208.8312 -2700,-2700 0,-1491.1688 1208.8312,-2700 2700,-2700 1491.1688,0 2700,1208.8312 2700,2700 z"/>
          </g>
         </g>
        </g>
        <g transform="matrix(0.602248, 0.037216, -0.037216, 0.602248, 5.62247, -13.8408)">
         <g>
          <g>
           <circle gorn="0.6.0.0.0.1.0.0" id="connector1pin" connectorname="1" fill="none" style="stroke-miterlimit:4;stroke-dasharray:none" cx="4.14" cy="4.14" stroke="black" r="1.944" stroke-width="1.17445" d="m 8450,5750 c 0,1491.1688 -1208.8312,2700 -2700,2700 -1491.1688,0 -2700,-1208.8312 -2700,-2700 0,-1491.1688 1208.8312,-2700 2700,-2700 1491.1688,0 2700,1208.8312 2700,2700 z"/>
          </g>
         </g>
        </g>
        <g transform="matrix(0.602248, 0.037216, -0.037216, 0.602248, 9.22247, -13.8408)">
         <g>
          <g>
           <circle gorn="0.6.0.0.0.2.0.0" id="connector2pin" connectorname="1" fill="none" style="stroke-miterlimit:4;stroke-dasharray:none" cx="4.14" cy="4.14" stroke="black" r="1.944" stroke-width="1.17445" d="m 8450,5750 c 0,1491.1688 -1208.8312,2700 -2700,2700 -1491.1688,0 -2700,-1208.8312 -2700,-2700 0,-1491.1688 1208.8312,-2700 2700,-2700 1491.1688,0 2700,1208.8312 2700,2700 z"/>
          </g>
         </g>
        </g>
        <g transform="matrix(0.602248, 0.037216, -0.037216, 0.602248, 12.8225, -13.8408)">
         <g>
          <g>
           <circle gorn="0.6.0.0.0.3.0.0" id="connector3pin" connectorname="1" fill="none" style="stroke-miterlimit:4;stroke-dasharray:none" cx="4.14" cy="4.14" stroke="black" r="1.944" stroke-width="1.17445" d="m 8450,5750 c 0,1491.1688 -1208.8312,2700 -2700,2700 -1491.1688,0 -2700,-1208.8312 -2700,-2700 0,-1491.1688 1208.8312,-2700 2700,-2700 1491.1688,0 2700,1208.8312 2700,2700 z"/>
          </g>
         </g>
        </g>
        <g transform="matrix(0.602248, 0.037216, -0.037216, 0.602248, 16.4225, -13.8408)">
         <g>
          <g>
           <circle gorn="0.6.0.0.0.4.0.0" id="connector4pin" connectorname="1" fill="none" style="stroke-miterlimit:4;stroke-dasharray:none" cx="4.14" cy="4.14" stroke="black" r="1.944" stroke-width="1.17445" d="m 8450,5750 c 0,1491.1688 -1208.8312,2700 -2700,2700 -1491.1688,0 -2700,-1208.8312 -2700,-2700 0,-1491.1688 1208.8312,-2700 2700,-2700 1491.1688,0 2700,1208.8312 2700,2700 z"/>
          </g>
         </g>
        </g>
        <g transform="matrix(0.602248, 0.037216, -0.037216, 0.602248, 20.0225, -13.8408)">
         <g>
          <g>
           <circle gorn="0.6.0.0.0.5.0.0" id="connector5pin" connectorname="1" fill="none" style="stroke-miterlimit:4;stroke-dasharray:none" cx="4.14" cy="4.14" stroke="black" r="1.944" stroke-width="1.17445" d="m 8450,5750 c 0,1491.1688 -1208.8312,2700 -2700,2700 -1491.1688,0 -2700,-1208.8312 -2700,-2700 0,-1491.1688 1208.8312,-2700 2700,-2700 1491.1688,0 2700,1208.8312 2700,2700 z"/>
          </g>
         </g>
        </g>
        <g transform="matrix(0.602248, 0.037216, -0.037216, 0.602248, 23.6225, -13.8408)">
         <g>
          <g>
           <circle gorn="0.6.0.0.0.6.0.0" id="connector6pin" connectorname="1" fill="none" style="stroke-miterlimit:4;stroke-dasharray:none" cx="4.14" cy="4.14" stroke="black" r="1.944" stroke-width="1.17445" d="m 8450,5750 c 0,1491.1688 -1208.8312,2700 -2700,2700 -1491.1688,0 -2700,-1208.8312 -2700,-2700 0,-1491.1688 1208.8312,-2700 2700,-2700 1491.1688,0 2700,1208.8312 2700,2700 z"/>
          </g>
         </g>
        </g>
        <g transform="matrix(0.602248, 0.037216, -0.037216, 0.602248, 27.2225, -13.8408)">
         <g>
          <g>
           <circle gorn="0.6.0.0.0.7.0.0" id="connector7pin" connectorname="1" fill="none" style="stroke-miterlimit:4;stroke-dasharray:none" cx="4.14" cy="4.14" stroke="black" r="1.944" stroke-width="1.17445" d="m 8450,5750 c 0,1491.1688 -1208.8312,2700 -2700,2700 -1491.1688,0 -2700,-1208.8312 -2700,-2700 0,-1491.1688 1208.8312,-2700 2700,-2700 1491.1688,0 2700,1208.8312 2700,2700 z"/>
          </g>
         </g>
        </g>
        <g transform="matrix(0.602248, 0.037216, -0.037216, 0.602248, 30.8225, -13.8408)">
         <g>
          <g>
           <circle gorn="0.6.0.0.0.8.0.0" id="connector8pin" connectorname="1" fill="none" style="stroke-miterlimit:4;stroke-dasharray:none" cx="4.14" cy="4.14" stroke="black" r="1.944" stroke-width="1.17445" d="m 8450,5750 c 0,1491.1688 -1208.8312,2700 -2700,2700 -1491.1688,0 -2700,-1208.8312 -2700,-2700 0,-1491.1688 1208.8312,-2700 2700,-2700 1491.1688,0 2700,1208.8312 2700,2700 z"/>
          </g>
         </g>
        </g>
        <g transform="matrix(0.602248, 0.037216, -0.037216, 0.602248, 34.4225, -13.8408)">
         <g>
          <g>
           <circle gorn="0.6.0.0.0.9.0.0" id="connector9pin" connectorname="1" fill="none" style="stroke-miterlimit:4;stroke-dasharray:none" cx="4.14" cy="4.14" stroke="black" r="1.944" stroke-width="1.17445" d="m 8450,5750 c 0,1491.1688 -1208.8312,2700 -2700,2700 -1491.1688,0 -2700,-1208.8312 -2700,-2700 0,-1491.1688 1208.8312,-2700 2700,-2700 1491.1688,0 2700,1208.8312 2700,2700 z"/>
          </g>
         </g>
        </g>
        <g transform="matrix(0.602248, 0.037216, -0.037216, 0.602248, 38.0225, -13.8408)">
         <g>
          <g>
           <circle gorn="0.6.0.0.0.10.0.0" id="connector10pin" connectorname="1" fill="none" style="stroke-miterlimit:4;stroke-dasharray:none" cx="4.14" cy="4.14" stroke="black" r="1.944" stroke-width="1.17445" d="m 8450,5750 c 0,1491.1688 -1208.8312,2700 -2700,2700 -1491.1688,0 -2700,-1208.8312 -2700,-2700 0,-1491.1688 1208.8312,-2700 2700,-2700 1491.1688,0 2700,1208.8312 2700,2700 z"/>
          </g>
         </g>
        </g>
        <g transform="matrix(0.602248, 0.037216, -0.037216, 0.602248, 41.6225, -13.8408)">
         <g>
          <g>
           <circle gorn="0.6.0.0.0.11.0.0" id="connector11pin" connectorname="1" fill="none" style="stroke-miterlimit:4;stroke-dasharray:none" cx="4.14" cy="4.14" stroke="black" r="1.944" stroke-width="1.17445" d="m 8450,5750 c 0,1491.1688 -1208.8312,2700 -2700,2700 -1491.1688,0 -2700,-1208.8312 -2700,-2700 0,-1491.1688 1208.8312,-2700 2700,-2700 1491.1688,0 2700,1208.8312 2700,2700 z"/>
          </g>
         </g>
        </g>
       </g>
      </g>
     </g>
    </g>
   </g>
  </g>
  <g partID="3364230">
   <g transform="translate(29.7272,17.0504)">
    <g id="copper0" >
     <circle id="connector0pin" fill="none" cx="2.57795" cy="2.57795" stroke="black" r="0.722837" stroke-width="0.510236" />
    </g>
   </g>
  </g>
  <g partID="3354610">
   <g transform="translate(3.248,17.9968)">
    <g id="copper0" >
     <circle id="connector0pin" fill="none" cx="2.27181" cy="2.27181" stroke="black" r="0.515905" stroke-width="0.311811" />
    </g>
   </g>
  </g>
  <g partID="3346630">
   <g transform="translate(3.3496,10.9032)">
    <g id="copper0" >
     <circle id="connector0pin" fill="none" cx="2.27181" cy="2.27181" stroke="black" r="0.515905" stroke-width="0.311811" />
    </g>
   </g>
  </g>
  <g partID="3330380">
   <g transform="translate(0.3248,18.3)">
    <g id="copper0" >
     <circle id="connector0pin" fill="none" cx="2.27181" cy="2.27181" stroke="black" r="0.515905" stroke-width="0.311811" />
    </g>
   </g>
  </g>
  <g partID="3760920">
   <g transform="translate(28.0872,7.9052)">
    <g id="copper0" >
     <circle id="connector0pin" fill="none" cx="2.57795" cy="2.57795" stroke="black" r="0.722837" stroke-width="0.510236" />
    </g>
   </g>
  </g>
  <g partID="3929530">
   <line stroke-linecap="round" y1="22.6992" y2="22.6992" stroke="black" x1="32.3048" x2="27.4287" stroke-width="1.728"/>
  </g>
  <g partID="3929200">
   <line stroke-linecap="round" y1="20.8957" y2="22.6985" stroke="black" x1="32.3048" x2="32.3048" stroke-width="1.728"/>
  </g>
  <g partID="3437660">
   <line stroke-linecap="round" y1="6.3516" y2="5.49704" stroke="black" x1="2.6664" x2="3.0708" stroke-width="0.72"/>
  </g>
  <g partID="3437590">
   <line stroke-linecap="round" y1="14.7424" y2="6.3516" stroke="black" x1="2.6664" x2="2.6664" stroke-width="0.72"/>
  </g>
  <g partID="3437520">
   <line stroke-linecap="round" y1="16.3224" y2="14.7423" stroke="black" x1="4.5192" x2="2.66668" stroke-width="0.72"/>
  </g>
  <g partID="3437450">
   <line stroke-linecap="round" y1="16.3224" y2="16.3224" stroke="black" x1="5.3904" x2="4.51862" stroke-width="0.72"/>
  </g>
  <g partID="3437380">
   <line stroke-linecap="round" y1="10.4928" y2="16.3228" stroke="black" x1="12.5832" x2="5.39106" stroke-width="0.72"/>
  </g>
  <g partID="3437310">
   <line stroke-linecap="round" y1="10.4992" y2="10.4924" stroke="black" x1="19.3424" x2="12.5833" stroke-width="0.72"/>
  </g>
  <g partID="3437240">
   <line stroke-linecap="round" y1="12.6359" y2="10.499" stroke="black" x1="19.5516" x2="19.3418" stroke-width="0.72"/>
  </g>
  <g partID="3438490">
   <line stroke-linecap="round" y1="8.0712" y2="10.1304" stroke="black" x1="23.1512" x2="23.1512" stroke-width="0.864"/>
  </g>
  <g partID="3439140">
   <line stroke-linecap="round" y1="26.6584" y2="27.1293" stroke="black" x1="18.144" x2="18.1569" stroke-width="0.72"/>
  </g>
  <g partID="3439070">
   <line stroke-linecap="round" y1="24.6028" y2="26.6581" stroke="black" x1="18.8744" x2="18.1439" stroke-width="0.72"/>
  </g>
  <g partID="3439280">
   <line stroke-linecap="round" y1="26.5184" y2="24.6446" stroke="black" x1="21.8224" x2="22.4744" stroke-width="0.72"/>
  </g>
  <g partID="3439210">
   <line stroke-linecap="round" y1="27.1287" y2="26.5184" stroke="black" x1="21.8115" x2="21.8221" stroke-width="0.72"/>
  </g>
  <g partID="3397010">
   <line stroke-linecap="round" y1="12.7592" y2="12.475" stroke="black" x1="5.7968" x2="5.91677" stroke-width="0.864"/>
  </g>
  <g partID="3396820">
   <line stroke-linecap="round" y1="7.95184" y2="12.7592" stroke="black" x1="11.6384" x2="5.79697" stroke-width="0.864"/>
  </g>
  <g partID="3357440">
   <line stroke-linecap="round" y1="25.9168" y2="25.8785" stroke="black" x1="12.4936" x2="8.2397" stroke-width="0.432"/>
  </g>
  <g partID="3357370">
   <line stroke-linecap="round" y1="25.8784" y2="25.1502" stroke="black" x1="8.24" x2="7.28222" stroke-width="0.432"/>
  </g>
  <g partID="3357300">
   <line stroke-linecap="round" y1="25.1504" y2="23.5406" stroke="black" x1="7.2824" x2="7.23658" stroke-width="0.432"/>
  </g>
  <g partID="3930640">
   <line stroke-linecap="round" y1="20.536" y2="20.2615" stroke="black" x1="2.5176" x2="1.90296" stroke-width="0.432"/>
  </g>
  <g partID="3357160">
   <line stroke-linecap="round" y1="23.54" y2="20.536" stroke="black" x1="7.236" x2="2.5169" stroke-width="0.432"/>
  </g>
  <g partID="3357090">
   <line stroke-linecap="round" y1="27.4245" y2="25.9168" stroke="black" x1="13.7943" x2="12.4936" stroke-width="0.432"/>
  </g>
  <g partID="3389820">
   <line stroke-linecap="round" y1="8.0712" y2="6.93303" stroke="black" x1="41.8136" x2="43.1794" stroke-width="0.864"/>
  </g>
  <g partID="3389630">
   <line stroke-linecap="round" y1="6.93272" y2="5.61414" stroke="black" x1="43.1792" x2="43.186" stroke-width="0.864"/>
  </g>
  <g partID="3437750">
   <line stroke-linecap="round" y1="8.0712" y2="8.0712" stroke="black" x1="23.1512" x2="41.813" stroke-width="0.864"/>
  </g>
  <g partID="3365590">
   <line stroke-linecap="round" y1="7.95184" y2="8.07088" stroke="black" x1="11.6384" x2="23.1516" stroke-width="0.864"/>
  </g>
  <g partID="3765590">
   <line stroke-linecap="round" y1="12.6072" y2="12.6308" stroke="black" x1="30.6776" x2="27.4287" stroke-width="0.864"/>
  </g>
  <g partID="3765240">
   <line stroke-linecap="round" y1="11.3509" y2="12.6074" stroke="black" x1="30.6707" x2="30.6781" stroke-width="0.864"/>
  </g>
 </g>
</svg>
