G04 MADE WITH FRITZING*
G04 WWW.FRITZING.ORG*
G04 DOUBLE SIDED*
G04 HOLES PLATED*
G04 CONTOUR ON CENTER OF CONTOUR VECTOR*
%ASAXBY*%
%FSLAX23Y23*%
%MOIN*%
%OFA0B0*%
%SFA1.0B1.0*%
%ADD10C,0.042426*%
%ADD11C,0.078000*%
%ADD12R,0.078000X0.078000*%
%ADD13C,0.012000*%
%ADD14C,0.024000*%
%ADD15C,0.016000*%
%LNCOPPER1*%
G90*
G70*
G54D10*
X52Y66D03*
X102Y66D03*
X152Y66D03*
X202Y66D03*
X252Y66D03*
X302Y66D03*
X352Y66D03*
X402Y66D03*
X452Y66D03*
X502Y66D03*
X552Y66D03*
X602Y66D03*
X50Y398D03*
X100Y398D03*
X150Y398D03*
X200Y398D03*
X250Y398D03*
X300Y398D03*
X350Y398D03*
X400Y398D03*
X450Y398D03*
X500Y398D03*
X550Y398D03*
X600Y398D03*
G54D11*
X228Y178D03*
X328Y178D03*
X428Y178D03*
X226Y294D03*
X326Y294D03*
X426Y294D03*
X568Y286D03*
X568Y186D03*
G54D12*
X228Y178D03*
X226Y294D03*
X568Y286D03*
G54D13*
X440Y314D02*
X451Y330D01*
D02*
X451Y330D02*
X450Y381D01*
D02*
X448Y192D02*
X501Y231D01*
D02*
X501Y231D02*
X500Y381D01*
G54D14*
D02*
X328Y208D02*
X327Y264D01*
G54D15*
D02*
X568Y111D02*
X378Y111D01*
D02*
X601Y95D02*
X568Y111D01*
D02*
X378Y111D02*
X343Y158D01*
D02*
X601Y83D02*
X601Y95D01*
D02*
X629Y208D02*
X629Y375D01*
D02*
X629Y375D02*
X614Y388D01*
D02*
X591Y194D02*
X629Y208D01*
D02*
X568Y111D02*
X568Y161D01*
G04 End of Copper1*
M02*