G04 MADE WITH FRITZING*
G04 WWW.FRITZING.ORG*
G04 DOUBLE SIDED*
G04 HOLES PLATED*
G04 CONTOUR ON CENTER OF CONTOUR VECTOR*
%ASAXBY*%
%FSLAX23Y23*%
%MOIN*%
%OFA0B0*%
%SFA1.0B1.0*%
%ADD10R,0.653543X0.456693X0.637543X0.440693*%
%ADD11C,0.008000*%
%ADD12R,0.001000X0.001000*%
%LNSILK0*%
G90*
G70*
G54D11*
X4Y453D02*
X650Y453D01*
X650Y4D01*
X4Y4D01*
X4Y453D01*
D02*
G36*
X151Y368D02*
X151Y368D01*
X154Y368D01*
X154Y367D01*
X156Y367D01*
X156Y366D01*
X157Y366D01*
X157Y366D01*
X156Y366D01*
X156Y365D01*
X155Y365D01*
X155Y364D01*
X154Y364D01*
X154Y363D01*
X154Y363D01*
X154Y363D01*
X153Y363D01*
X153Y362D01*
X152Y362D01*
X152Y361D01*
X152Y361D01*
X152Y360D01*
X35Y360D01*
X35Y360D01*
X32Y360D01*
X32Y359D01*
X30Y359D01*
X30Y358D01*
X29Y358D01*
X29Y358D01*
X27Y358D01*
X27Y357D01*
X27Y357D01*
X27Y356D01*
X26Y356D01*
X26Y355D01*
X25Y355D01*
X25Y355D01*
X24Y355D01*
X24Y354D01*
X24Y354D01*
X24Y353D01*
X23Y353D01*
X23Y352D01*
X22Y352D01*
X22Y351D01*
X22Y351D01*
X22Y350D01*
X21Y350D01*
X21Y347D01*
X20Y347D01*
X20Y241D01*
X12Y241D01*
X12Y354D01*
X13Y354D01*
X13Y356D01*
X14Y356D01*
X14Y358D01*
X14Y358D01*
X14Y359D01*
X15Y359D01*
X15Y360D01*
X16Y360D01*
X16Y361D01*
X17Y361D01*
X17Y362D01*
X17Y362D01*
X17Y363D01*
X18Y363D01*
X18Y363D01*
X19Y363D01*
X19Y364D01*
X20Y364D01*
X20Y365D01*
X21Y365D01*
X21Y366D01*
X22Y366D01*
X22Y366D01*
X24Y366D01*
X24Y367D01*
X26Y367D01*
X26Y368D01*
X29Y368D01*
X29Y368D01*
X151Y368D01*
G37*
D02*
G36*
X151Y360D02*
X151Y360D01*
X150Y360D01*
X150Y359D01*
X149Y359D01*
X149Y358D01*
X149Y358D01*
X149Y358D01*
X148Y358D01*
X148Y357D01*
X147Y357D01*
X147Y356D01*
X147Y356D01*
X147Y355D01*
X146Y355D01*
X146Y355D01*
X145Y355D01*
X145Y354D01*
X144Y354D01*
X144Y353D01*
X144Y353D01*
X144Y353D01*
X143Y353D01*
X143Y352D01*
X142Y352D01*
X142Y351D01*
X141Y351D01*
X141Y350D01*
X141Y350D01*
X141Y350D01*
X140Y350D01*
X140Y349D01*
X139Y349D01*
X139Y348D01*
X139Y348D01*
X139Y347D01*
X138Y347D01*
X138Y347D01*
X137Y347D01*
X137Y346D01*
X136Y346D01*
X136Y345D01*
X136Y345D01*
X136Y345D01*
X135Y345D01*
X135Y344D01*
X134Y344D01*
X134Y343D01*
X134Y343D01*
X134Y342D01*
X133Y342D01*
X133Y342D01*
X132Y342D01*
X132Y341D01*
X131Y341D01*
X131Y340D01*
X131Y340D01*
X131Y340D01*
X130Y340D01*
X130Y339D01*
X129Y339D01*
X129Y338D01*
X128Y338D01*
X128Y337D01*
X128Y337D01*
X128Y337D01*
X127Y337D01*
X127Y336D01*
X126Y336D01*
X126Y335D01*
X126Y335D01*
X126Y334D01*
X125Y334D01*
X125Y334D01*
X124Y334D01*
X124Y333D01*
X123Y333D01*
X123Y332D01*
X123Y332D01*
X123Y332D01*
X122Y332D01*
X122Y331D01*
X121Y331D01*
X121Y330D01*
X121Y330D01*
X121Y329D01*
X120Y329D01*
X120Y329D01*
X119Y329D01*
X119Y328D01*
X118Y328D01*
X118Y327D01*
X107Y327D01*
X107Y328D01*
X108Y328D01*
X108Y329D01*
X108Y329D01*
X108Y329D01*
X109Y329D01*
X109Y330D01*
X110Y330D01*
X110Y331D01*
X110Y331D01*
X110Y332D01*
X111Y332D01*
X111Y332D01*
X112Y332D01*
X112Y333D01*
X113Y333D01*
X113Y334D01*
X113Y334D01*
X113Y334D01*
X114Y334D01*
X114Y335D01*
X115Y335D01*
X115Y336D01*
X115Y336D01*
X115Y337D01*
X116Y337D01*
X116Y337D01*
X117Y337D01*
X117Y338D01*
X118Y338D01*
X118Y339D01*
X118Y339D01*
X118Y340D01*
X119Y340D01*
X119Y340D01*
X120Y340D01*
X120Y341D01*
X121Y341D01*
X121Y342D01*
X121Y342D01*
X121Y342D01*
X122Y342D01*
X122Y343D01*
X123Y343D01*
X123Y344D01*
X123Y344D01*
X123Y345D01*
X124Y345D01*
X124Y345D01*
X125Y345D01*
X125Y346D01*
X126Y346D01*
X126Y347D01*
X126Y347D01*
X126Y347D01*
X127Y347D01*
X127Y348D01*
X128Y348D01*
X128Y349D01*
X128Y349D01*
X128Y350D01*
X129Y350D01*
X129Y350D01*
X130Y350D01*
X130Y351D01*
X131Y351D01*
X131Y352D01*
X131Y352D01*
X131Y353D01*
X132Y353D01*
X132Y353D01*
X133Y353D01*
X133Y354D01*
X134Y354D01*
X134Y355D01*
X134Y355D01*
X134Y355D01*
X135Y355D01*
X135Y356D01*
X136Y356D01*
X136Y357D01*
X136Y357D01*
X136Y358D01*
X137Y358D01*
X137Y358D01*
X138Y358D01*
X138Y359D01*
X139Y359D01*
X139Y360D01*
X151Y360D01*
G37*
D02*
G36*
X38Y350D02*
X38Y350D01*
X39Y350D01*
X39Y349D01*
X40Y349D01*
X40Y348D01*
X35Y348D01*
X35Y347D01*
X34Y347D01*
X34Y345D01*
X35Y345D01*
X35Y344D01*
X32Y344D01*
X32Y345D01*
X32Y345D01*
X32Y347D01*
X32Y347D01*
X32Y349D01*
X33Y349D01*
X33Y350D01*
X34Y350D01*
X34Y350D01*
X38Y350D01*
G37*
D02*
G36*
X64Y350D02*
X64Y349D01*
X65Y349D01*
X65Y348D01*
X66Y348D01*
X66Y347D01*
X61Y347D01*
X61Y347D01*
X60Y347D01*
X60Y344D01*
X61Y344D01*
X61Y343D01*
X58Y343D01*
X58Y347D01*
X58Y347D01*
X58Y348D01*
X59Y348D01*
X59Y349D01*
X60Y349D01*
X60Y350D01*
X64Y350D01*
G37*
D02*
G36*
X88Y348D02*
X88Y347D01*
X89Y347D01*
X89Y347D01*
X90Y347D01*
X90Y346D01*
X85Y346D01*
X85Y345D01*
X84Y345D01*
X84Y342D01*
X85Y342D01*
X85Y342D01*
X82Y342D01*
X82Y343D01*
X82Y343D01*
X82Y345D01*
X82Y345D01*
X82Y346D01*
X83Y346D01*
X83Y347D01*
X84Y347D01*
X84Y347D01*
X84Y347D01*
X84Y348D01*
X88Y348D01*
G37*
D02*
G36*
X40Y348D02*
X40Y344D01*
X37Y344D01*
X37Y345D01*
X38Y345D01*
X38Y347D01*
X37Y347D01*
X37Y348D01*
X40Y348D01*
G37*
D02*
G36*
X66Y347D02*
X66Y343D01*
X63Y343D01*
X63Y344D01*
X64Y344D01*
X64Y347D01*
X63Y347D01*
X63Y347D01*
X66Y347D01*
G37*
D02*
G36*
X90Y346D02*
X90Y345D01*
X91Y345D01*
X91Y342D01*
X90Y342D01*
X90Y342D01*
X88Y342D01*
X88Y343D01*
X89Y343D01*
X89Y345D01*
X88Y345D01*
X88Y345D01*
X87Y345D01*
X87Y346D01*
X90Y346D01*
G37*
D02*
G36*
X40Y344D02*
X40Y343D01*
X32Y343D01*
X32Y344D01*
X40Y344D01*
G37*
D02*
G36*
X40Y344D02*
X40Y343D01*
X32Y343D01*
X32Y344D01*
X40Y344D01*
G37*
D02*
G36*
X66Y343D02*
X66Y342D01*
X58Y342D01*
X58Y343D01*
X66Y343D01*
G37*
D02*
G36*
X66Y343D02*
X66Y342D01*
X58Y342D01*
X58Y343D01*
X66Y343D01*
G37*
D02*
G36*
X40Y343D02*
X40Y342D01*
X41Y342D01*
X41Y342D01*
X42Y342D01*
X42Y341D01*
X43Y341D01*
X43Y340D01*
X43Y340D01*
X43Y340D01*
X44Y340D01*
X44Y339D01*
X45Y339D01*
X45Y338D01*
X45Y338D01*
X45Y337D01*
X46Y337D01*
X46Y337D01*
X47Y337D01*
X47Y336D01*
X48Y336D01*
X48Y335D01*
X48Y335D01*
X48Y334D01*
X49Y334D01*
X49Y334D01*
X50Y334D01*
X50Y333D01*
X50Y333D01*
X50Y332D01*
X51Y332D01*
X51Y332D01*
X52Y332D01*
X52Y331D01*
X53Y331D01*
X53Y330D01*
X53Y330D01*
X53Y329D01*
X54Y329D01*
X54Y329D01*
X55Y329D01*
X55Y328D01*
X56Y328D01*
X56Y327D01*
X56Y327D01*
X56Y327D01*
X57Y327D01*
X57Y326D01*
X58Y326D01*
X58Y325D01*
X58Y325D01*
X58Y324D01*
X59Y324D01*
X59Y324D01*
X60Y324D01*
X60Y323D01*
X61Y323D01*
X61Y322D01*
X61Y322D01*
X61Y321D01*
X62Y321D01*
X62Y321D01*
X63Y321D01*
X63Y320D01*
X63Y320D01*
X63Y319D01*
X64Y319D01*
X64Y319D01*
X65Y319D01*
X65Y318D01*
X66Y318D01*
X66Y317D01*
X66Y317D01*
X66Y316D01*
X67Y316D01*
X67Y300D01*
X68Y300D01*
X68Y296D01*
X66Y296D01*
X66Y316D01*
X65Y316D01*
X65Y316D01*
X64Y316D01*
X64Y317D01*
X63Y317D01*
X63Y318D01*
X63Y318D01*
X63Y319D01*
X62Y319D01*
X62Y319D01*
X61Y319D01*
X61Y320D01*
X61Y320D01*
X61Y321D01*
X60Y321D01*
X60Y321D01*
X59Y321D01*
X59Y322D01*
X58Y322D01*
X58Y323D01*
X58Y323D01*
X58Y324D01*
X57Y324D01*
X57Y324D01*
X56Y324D01*
X56Y325D01*
X56Y325D01*
X56Y326D01*
X55Y326D01*
X55Y327D01*
X54Y327D01*
X54Y327D01*
X53Y327D01*
X53Y328D01*
X53Y328D01*
X53Y329D01*
X52Y329D01*
X52Y329D01*
X51Y329D01*
X51Y330D01*
X50Y330D01*
X50Y331D01*
X50Y331D01*
X50Y332D01*
X49Y332D01*
X49Y332D01*
X48Y332D01*
X48Y333D01*
X48Y333D01*
X48Y334D01*
X47Y334D01*
X47Y334D01*
X46Y334D01*
X46Y335D01*
X45Y335D01*
X45Y336D01*
X45Y336D01*
X45Y337D01*
X44Y337D01*
X44Y337D01*
X43Y337D01*
X43Y338D01*
X43Y338D01*
X43Y339D01*
X42Y339D01*
X42Y340D01*
X41Y340D01*
X41Y340D01*
X40Y340D01*
X40Y341D01*
X40Y341D01*
X40Y342D01*
X34Y342D01*
X34Y342D01*
X33Y342D01*
X33Y343D01*
X40Y343D01*
G37*
D02*
G36*
X65Y342D02*
X65Y342D01*
X64Y342D01*
X64Y341D01*
X62Y341D01*
X62Y335D01*
X63Y335D01*
X63Y334D01*
X63Y334D01*
X63Y334D01*
X64Y334D01*
X64Y333D01*
X65Y333D01*
X65Y332D01*
X66Y332D01*
X66Y332D01*
X66Y332D01*
X66Y331D01*
X67Y331D01*
X67Y330D01*
X68Y330D01*
X68Y329D01*
X69Y329D01*
X69Y329D01*
X69Y329D01*
X69Y328D01*
X70Y328D01*
X70Y327D01*
X71Y327D01*
X71Y327D01*
X71Y327D01*
X71Y326D01*
X72Y326D01*
X72Y325D01*
X73Y325D01*
X73Y324D01*
X74Y324D01*
X74Y324D01*
X74Y324D01*
X74Y323D01*
X75Y323D01*
X75Y322D01*
X76Y322D01*
X76Y321D01*
X76Y321D01*
X76Y321D01*
X77Y321D01*
X77Y320D01*
X78Y320D01*
X78Y319D01*
X79Y319D01*
X79Y319D01*
X79Y319D01*
X79Y308D01*
X78Y308D01*
X78Y317D01*
X77Y317D01*
X77Y318D01*
X76Y318D01*
X76Y319D01*
X76Y319D01*
X76Y319D01*
X75Y319D01*
X75Y320D01*
X74Y320D01*
X74Y321D01*
X74Y321D01*
X74Y321D01*
X73Y321D01*
X73Y322D01*
X72Y322D01*
X72Y323D01*
X71Y323D01*
X71Y324D01*
X71Y324D01*
X71Y324D01*
X70Y324D01*
X70Y325D01*
X69Y325D01*
X69Y326D01*
X69Y326D01*
X69Y327D01*
X68Y327D01*
X68Y327D01*
X67Y327D01*
X67Y328D01*
X66Y328D01*
X66Y329D01*
X66Y329D01*
X66Y329D01*
X65Y329D01*
X65Y330D01*
X64Y330D01*
X64Y331D01*
X63Y331D01*
X63Y332D01*
X63Y332D01*
X63Y332D01*
X62Y332D01*
X62Y333D01*
X61Y333D01*
X61Y334D01*
X61Y334D01*
X61Y341D01*
X60Y341D01*
X60Y342D01*
X59Y342D01*
X59Y342D01*
X65Y342D01*
G37*
D02*
G36*
X90Y342D02*
X90Y341D01*
X82Y341D01*
X82Y342D01*
X90Y342D01*
G37*
D02*
G36*
X90Y342D02*
X90Y341D01*
X82Y341D01*
X82Y342D01*
X90Y342D01*
G37*
D02*
G36*
X90Y341D02*
X90Y340D01*
X87Y340D01*
X87Y339D01*
X86Y339D01*
X86Y340D01*
X84Y340D01*
X84Y340D01*
X83Y340D01*
X83Y341D01*
X90Y341D01*
G37*
D02*
G36*
X91Y340D02*
X91Y339D01*
X92Y339D01*
X92Y338D01*
X92Y338D01*
X92Y337D01*
X93Y337D01*
X93Y337D01*
X94Y337D01*
X94Y336D01*
X95Y336D01*
X95Y335D01*
X95Y335D01*
X95Y334D01*
X96Y334D01*
X96Y334D01*
X97Y334D01*
X97Y333D01*
X97Y333D01*
X97Y332D01*
X98Y332D01*
X98Y332D01*
X99Y332D01*
X99Y331D01*
X100Y331D01*
X100Y330D01*
X100Y330D01*
X100Y329D01*
X101Y329D01*
X101Y329D01*
X99Y329D01*
X99Y329D01*
X98Y329D01*
X98Y330D01*
X97Y330D01*
X97Y331D01*
X97Y331D01*
X97Y332D01*
X96Y332D01*
X96Y332D01*
X95Y332D01*
X95Y333D01*
X95Y333D01*
X95Y334D01*
X94Y334D01*
X94Y334D01*
X93Y334D01*
X93Y335D01*
X92Y335D01*
X92Y336D01*
X92Y336D01*
X92Y337D01*
X91Y337D01*
X91Y337D01*
X90Y337D01*
X90Y338D01*
X89Y338D01*
X89Y339D01*
X89Y339D01*
X89Y340D01*
X91Y340D01*
G37*
D02*
G36*
X83Y334D02*
X83Y333D01*
X84Y333D01*
X84Y332D01*
X84Y332D01*
X84Y332D01*
X79Y332D01*
X79Y331D01*
X79Y331D01*
X79Y328D01*
X79Y328D01*
X79Y327D01*
X76Y327D01*
X76Y332D01*
X77Y332D01*
X77Y332D01*
X78Y332D01*
X78Y333D01*
X79Y333D01*
X79Y334D01*
X83Y334D01*
G37*
D02*
G36*
X85Y332D02*
X85Y327D01*
X82Y327D01*
X82Y328D01*
X83Y328D01*
X83Y331D01*
X82Y331D01*
X82Y332D01*
X85Y332D01*
G37*
D02*
G36*
X104Y329D02*
X104Y329D01*
X102Y329D01*
X102Y329D01*
X104Y329D01*
G37*
D02*
G36*
X105Y329D02*
X105Y328D01*
X100Y328D01*
X100Y329D01*
X105Y329D01*
G37*
D02*
G36*
X105Y329D02*
X105Y328D01*
X100Y328D01*
X100Y329D01*
X105Y329D01*
G37*
D02*
G36*
X105Y328D02*
X105Y327D01*
X100Y327D01*
X100Y328D01*
X105Y328D01*
G37*
D02*
G36*
X118Y327D02*
X118Y327D01*
X100Y327D01*
X100Y327D01*
X118Y327D01*
G37*
D02*
G36*
X118Y327D02*
X118Y327D01*
X100Y327D01*
X100Y327D01*
X118Y327D01*
G37*
D02*
G36*
X84Y327D02*
X84Y327D01*
X77Y327D01*
X77Y327D01*
X84Y327D01*
G37*
D02*
G36*
X84Y327D02*
X84Y327D01*
X77Y327D01*
X77Y327D01*
X84Y327D01*
G37*
D02*
G36*
X117Y327D02*
X117Y326D01*
X116Y326D01*
X116Y325D01*
X115Y325D01*
X115Y324D01*
X115Y324D01*
X115Y324D01*
X114Y324D01*
X114Y323D01*
X113Y323D01*
X113Y322D01*
X113Y322D01*
X113Y321D01*
X112Y321D01*
X112Y321D01*
X111Y321D01*
X111Y320D01*
X110Y320D01*
X110Y319D01*
X110Y319D01*
X110Y319D01*
X109Y319D01*
X109Y318D01*
X108Y318D01*
X108Y317D01*
X97Y317D01*
X97Y318D01*
X97Y318D01*
X97Y319D01*
X98Y319D01*
X98Y319D01*
X99Y319D01*
X99Y320D01*
X100Y320D01*
X100Y321D01*
X100Y321D01*
X100Y321D01*
X101Y321D01*
X101Y324D01*
X100Y324D01*
X100Y324D01*
X100Y324D01*
X100Y325D01*
X99Y325D01*
X99Y326D01*
X100Y326D01*
X100Y327D01*
X117Y327D01*
G37*
D02*
G36*
X84Y327D02*
X84Y326D01*
X85Y326D01*
X85Y325D01*
X86Y325D01*
X86Y324D01*
X87Y324D01*
X87Y324D01*
X87Y324D01*
X87Y323D01*
X88Y323D01*
X88Y322D01*
X89Y322D01*
X89Y321D01*
X89Y321D01*
X89Y321D01*
X90Y321D01*
X90Y320D01*
X91Y320D01*
X91Y319D01*
X89Y319D01*
X89Y320D01*
X88Y320D01*
X88Y321D01*
X87Y321D01*
X87Y321D01*
X87Y321D01*
X87Y322D01*
X86Y322D01*
X86Y323D01*
X85Y323D01*
X85Y324D01*
X84Y324D01*
X84Y324D01*
X84Y324D01*
X84Y325D01*
X79Y325D01*
X79Y326D01*
X78Y326D01*
X78Y327D01*
X84Y327D01*
G37*
D02*
G36*
X45Y321D02*
X45Y321D01*
X45Y321D01*
X45Y320D01*
X46Y320D01*
X46Y319D01*
X41Y319D01*
X41Y319D01*
X40Y319D01*
X40Y316D01*
X41Y316D01*
X41Y315D01*
X38Y315D01*
X38Y319D01*
X39Y319D01*
X39Y320D01*
X40Y320D01*
X40Y321D01*
X40Y321D01*
X40Y321D01*
X45Y321D01*
G37*
D02*
G36*
X93Y320D02*
X93Y319D01*
X92Y319D01*
X92Y320D01*
X93Y320D01*
G37*
D02*
G36*
X94Y319D02*
X94Y319D01*
X89Y319D01*
X89Y319D01*
X94Y319D01*
G37*
D02*
G36*
X94Y319D02*
X94Y319D01*
X89Y319D01*
X89Y319D01*
X94Y319D01*
G37*
D02*
G36*
X46Y319D02*
X46Y319D01*
X47Y319D01*
X47Y315D01*
X44Y315D01*
X44Y316D01*
X45Y316D01*
X45Y318D01*
X44Y318D01*
X44Y319D01*
X43Y319D01*
X43Y319D01*
X46Y319D01*
G37*
D02*
G36*
X95Y319D02*
X95Y318D01*
X95Y318D01*
X95Y317D01*
X90Y317D01*
X90Y319D01*
X95Y319D01*
G37*
D02*
G36*
X108Y317D02*
X108Y316D01*
X89Y316D01*
X89Y317D01*
X108Y317D01*
G37*
D02*
G36*
X108Y317D02*
X108Y316D01*
X89Y316D01*
X89Y317D01*
X108Y317D01*
G37*
D02*
G36*
X107Y316D02*
X107Y316D01*
X106Y316D01*
X106Y315D01*
X105Y315D01*
X105Y314D01*
X105Y314D01*
X105Y314D01*
X104Y314D01*
X104Y313D01*
X103Y313D01*
X103Y312D01*
X102Y312D01*
X102Y311D01*
X102Y311D01*
X102Y311D01*
X101Y311D01*
X101Y310D01*
X100Y310D01*
X100Y309D01*
X100Y309D01*
X100Y308D01*
X99Y308D01*
X99Y308D01*
X98Y308D01*
X98Y307D01*
X97Y307D01*
X97Y306D01*
X86Y306D01*
X86Y307D01*
X87Y307D01*
X87Y308D01*
X87Y308D01*
X87Y308D01*
X88Y308D01*
X88Y309D01*
X89Y309D01*
X89Y310D01*
X89Y310D01*
X89Y311D01*
X90Y311D01*
X90Y311D01*
X91Y311D01*
X91Y312D01*
X92Y312D01*
X92Y313D01*
X91Y313D01*
X91Y314D01*
X90Y314D01*
X90Y314D01*
X89Y314D01*
X89Y315D01*
X89Y315D01*
X89Y316D01*
X107Y316D01*
G37*
D02*
G36*
X46Y315D02*
X46Y314D01*
X39Y314D01*
X39Y315D01*
X46Y315D01*
G37*
D02*
G36*
X46Y315D02*
X46Y314D01*
X39Y314D01*
X39Y315D01*
X46Y315D01*
G37*
D02*
G36*
X47Y314D02*
X47Y314D01*
X48Y314D01*
X48Y313D01*
X48Y313D01*
X48Y312D01*
X49Y312D01*
X49Y311D01*
X50Y311D01*
X50Y311D01*
X50Y311D01*
X50Y310D01*
X51Y310D01*
X51Y309D01*
X52Y309D01*
X52Y308D01*
X53Y308D01*
X53Y308D01*
X53Y308D01*
X53Y307D01*
X54Y307D01*
X54Y306D01*
X55Y306D01*
X55Y306D01*
X56Y306D01*
X56Y305D01*
X56Y305D01*
X56Y304D01*
X57Y304D01*
X57Y287D01*
X58Y287D01*
X58Y286D01*
X56Y286D01*
X56Y303D01*
X55Y303D01*
X55Y303D01*
X54Y303D01*
X54Y304D01*
X53Y304D01*
X53Y305D01*
X53Y305D01*
X53Y306D01*
X52Y306D01*
X52Y306D01*
X51Y306D01*
X51Y307D01*
X50Y307D01*
X50Y308D01*
X50Y308D01*
X50Y308D01*
X49Y308D01*
X49Y309D01*
X48Y309D01*
X48Y310D01*
X48Y310D01*
X48Y311D01*
X47Y311D01*
X47Y311D01*
X46Y311D01*
X46Y312D01*
X45Y312D01*
X45Y313D01*
X40Y313D01*
X40Y314D01*
X39Y314D01*
X39Y314D01*
X47Y314D01*
G37*
D02*
G36*
X82Y309D02*
X82Y308D01*
X83Y308D01*
X83Y308D01*
X81Y308D01*
X81Y308D01*
X82Y308D01*
X82Y309D01*
X82Y309D01*
G37*
D02*
G36*
X84Y308D02*
X84Y307D01*
X78Y307D01*
X78Y308D01*
X84Y308D01*
G37*
D02*
G36*
X84Y308D02*
X84Y307D01*
X78Y307D01*
X78Y308D01*
X84Y308D01*
G37*
D02*
G36*
X84Y307D02*
X84Y306D01*
X78Y306D01*
X78Y307D01*
X84Y307D01*
G37*
D02*
G36*
X97Y306D02*
X97Y306D01*
X79Y306D01*
X79Y306D01*
X97Y306D01*
G37*
D02*
G36*
X97Y306D02*
X97Y306D01*
X79Y306D01*
X79Y306D01*
X97Y306D01*
G37*
D02*
G36*
X96Y306D02*
X96Y305D01*
X95Y305D01*
X95Y304D01*
X95Y304D01*
X95Y303D01*
X94Y303D01*
X94Y303D01*
X93Y303D01*
X93Y302D01*
X92Y302D01*
X92Y301D01*
X92Y301D01*
X92Y301D01*
X91Y301D01*
X91Y300D01*
X90Y300D01*
X90Y299D01*
X89Y299D01*
X89Y298D01*
X89Y298D01*
X89Y298D01*
X88Y298D01*
X88Y297D01*
X87Y297D01*
X87Y296D01*
X87Y296D01*
X87Y295D01*
X86Y295D01*
X86Y295D01*
X74Y295D01*
X74Y295D01*
X75Y295D01*
X75Y296D01*
X76Y296D01*
X76Y297D01*
X76Y297D01*
X76Y298D01*
X77Y298D01*
X77Y298D01*
X78Y298D01*
X78Y299D01*
X79Y299D01*
X79Y300D01*
X79Y300D01*
X79Y301D01*
X80Y301D01*
X80Y303D01*
X79Y303D01*
X79Y303D01*
X79Y303D01*
X79Y304D01*
X78Y304D01*
X78Y306D01*
X96Y306D01*
G37*
D02*
G36*
X71Y298D02*
X71Y297D01*
X71Y297D01*
X71Y296D01*
X69Y296D01*
X69Y297D01*
X70Y297D01*
X70Y298D01*
X71Y298D01*
G37*
D02*
G36*
X35Y298D02*
X35Y297D01*
X37Y297D01*
X37Y296D01*
X37Y296D01*
X37Y295D01*
X38Y295D01*
X38Y295D01*
X32Y295D01*
X32Y291D01*
X30Y291D01*
X30Y292D01*
X30Y292D01*
X30Y294D01*
X30Y294D01*
X30Y295D01*
X31Y295D01*
X31Y296D01*
X32Y296D01*
X32Y297D01*
X33Y297D01*
X33Y298D01*
X35Y298D01*
G37*
D02*
G36*
X72Y296D02*
X72Y295D01*
X66Y295D01*
X66Y296D01*
X72Y296D01*
G37*
D02*
G36*
X72Y296D02*
X72Y295D01*
X66Y295D01*
X66Y296D01*
X72Y296D01*
G37*
D02*
G36*
X73Y295D02*
X73Y295D01*
X67Y295D01*
X67Y295D01*
X73Y295D01*
G37*
D02*
G36*
X85Y295D02*
X85Y294D01*
X67Y294D01*
X67Y295D01*
X85Y295D01*
G37*
D02*
G36*
X85Y295D02*
X85Y294D01*
X67Y294D01*
X67Y295D01*
X85Y295D01*
G37*
D02*
G36*
X38Y295D02*
X38Y294D01*
X39Y294D01*
X39Y292D01*
X38Y292D01*
X38Y291D01*
X36Y291D01*
X36Y295D01*
X38Y295D01*
G37*
D02*
G36*
X84Y294D02*
X84Y293D01*
X84Y293D01*
X84Y293D01*
X83Y293D01*
X83Y292D01*
X82Y292D01*
X82Y291D01*
X82Y291D01*
X82Y290D01*
X81Y290D01*
X81Y290D01*
X80Y290D01*
X80Y289D01*
X79Y289D01*
X79Y288D01*
X79Y288D01*
X79Y288D01*
X78Y288D01*
X78Y287D01*
X77Y287D01*
X77Y286D01*
X76Y286D01*
X76Y285D01*
X76Y285D01*
X76Y285D01*
X64Y285D01*
X64Y285D01*
X65Y285D01*
X65Y286D01*
X66Y286D01*
X66Y287D01*
X66Y287D01*
X66Y288D01*
X67Y288D01*
X67Y288D01*
X68Y288D01*
X68Y289D01*
X69Y289D01*
X69Y291D01*
X68Y291D01*
X68Y292D01*
X67Y292D01*
X67Y293D01*
X66Y293D01*
X66Y294D01*
X84Y294D01*
G37*
D02*
G36*
X38Y291D02*
X38Y290D01*
X30Y290D01*
X30Y291D01*
X38Y291D01*
G37*
D02*
G36*
X38Y291D02*
X38Y290D01*
X30Y290D01*
X30Y291D01*
X38Y291D01*
G37*
D02*
G36*
X37Y290D02*
X37Y290D01*
X38Y290D01*
X38Y289D01*
X35Y289D01*
X35Y288D01*
X33Y288D01*
X33Y289D01*
X32Y289D01*
X32Y290D01*
X31Y290D01*
X31Y290D01*
X37Y290D01*
G37*
D02*
G36*
X39Y289D02*
X39Y288D01*
X40Y288D01*
X40Y288D01*
X40Y288D01*
X40Y287D01*
X41Y287D01*
X41Y286D01*
X42Y286D01*
X42Y285D01*
X43Y285D01*
X43Y285D01*
X43Y285D01*
X43Y284D01*
X44Y284D01*
X44Y283D01*
X45Y283D01*
X45Y282D01*
X45Y282D01*
X45Y282D01*
X46Y282D01*
X46Y281D01*
X47Y281D01*
X47Y280D01*
X48Y280D01*
X48Y280D01*
X48Y280D01*
X48Y279D01*
X49Y279D01*
X49Y278D01*
X46Y278D01*
X46Y279D01*
X45Y279D01*
X45Y280D01*
X45Y280D01*
X45Y280D01*
X44Y280D01*
X44Y281D01*
X43Y281D01*
X43Y282D01*
X43Y282D01*
X43Y282D01*
X42Y282D01*
X42Y283D01*
X41Y283D01*
X41Y284D01*
X40Y284D01*
X40Y285D01*
X40Y285D01*
X40Y285D01*
X39Y285D01*
X39Y286D01*
X38Y286D01*
X38Y287D01*
X37Y287D01*
X37Y288D01*
X37Y288D01*
X37Y288D01*
X36Y288D01*
X36Y289D01*
X39Y289D01*
G37*
D02*
G36*
X61Y287D02*
X61Y286D01*
X59Y286D01*
X59Y287D01*
X61Y287D01*
G37*
D02*
G36*
X61Y286D02*
X61Y285D01*
X56Y285D01*
X56Y286D01*
X61Y286D01*
G37*
D02*
G36*
X61Y286D02*
X61Y285D01*
X56Y285D01*
X56Y286D01*
X61Y286D01*
G37*
D02*
G36*
X62Y285D02*
X62Y285D01*
X57Y285D01*
X57Y285D01*
X62Y285D01*
G37*
D02*
G36*
X75Y285D02*
X75Y284D01*
X57Y284D01*
X57Y285D01*
X75Y285D01*
G37*
D02*
G36*
X75Y285D02*
X75Y284D01*
X57Y284D01*
X57Y285D01*
X75Y285D01*
G37*
D02*
G36*
X74Y284D02*
X74Y283D01*
X74Y283D01*
X74Y282D01*
X73Y282D01*
X73Y282D01*
X72Y282D01*
X72Y281D01*
X71Y281D01*
X71Y280D01*
X71Y280D01*
X71Y280D01*
X70Y280D01*
X70Y279D01*
X69Y279D01*
X69Y278D01*
X69Y278D01*
X69Y277D01*
X68Y277D01*
X68Y277D01*
X67Y277D01*
X67Y276D01*
X56Y276D01*
X56Y277D01*
X56Y277D01*
X56Y277D01*
X57Y277D01*
X57Y278D01*
X58Y278D01*
X58Y279D01*
X58Y279D01*
X58Y281D01*
X58Y281D01*
X58Y282D01*
X57Y282D01*
X57Y282D01*
X56Y282D01*
X56Y284D01*
X74Y284D01*
G37*
D02*
G36*
X51Y279D02*
X51Y278D01*
X50Y278D01*
X50Y279D01*
X51Y279D01*
G37*
D02*
G36*
X52Y278D02*
X52Y277D01*
X47Y277D01*
X47Y278D01*
X52Y278D01*
G37*
D02*
G36*
X52Y278D02*
X52Y277D01*
X47Y277D01*
X47Y278D01*
X52Y278D01*
G37*
D02*
G36*
X53Y277D02*
X53Y277D01*
X53Y277D01*
X53Y276D01*
X48Y276D01*
X48Y277D01*
X48Y277D01*
X48Y277D01*
X53Y277D01*
G37*
D02*
G36*
X66Y276D02*
X66Y275D01*
X48Y275D01*
X48Y276D01*
X66Y276D01*
G37*
D02*
G36*
X66Y276D02*
X66Y275D01*
X48Y275D01*
X48Y276D01*
X66Y276D01*
G37*
D02*
G36*
X66Y275D02*
X66Y275D01*
X65Y275D01*
X65Y274D01*
X64Y274D01*
X64Y273D01*
X63Y273D01*
X63Y272D01*
X63Y272D01*
X63Y272D01*
X62Y272D01*
X62Y271D01*
X61Y271D01*
X61Y270D01*
X61Y270D01*
X61Y269D01*
X60Y269D01*
X60Y269D01*
X59Y269D01*
X59Y268D01*
X58Y268D01*
X58Y267D01*
X58Y267D01*
X58Y267D01*
X57Y267D01*
X57Y266D01*
X56Y266D01*
X56Y265D01*
X56Y265D01*
X56Y264D01*
X55Y264D01*
X55Y264D01*
X54Y264D01*
X54Y263D01*
X53Y263D01*
X53Y262D01*
X53Y262D01*
X53Y262D01*
X52Y262D01*
X52Y261D01*
X51Y261D01*
X51Y260D01*
X50Y260D01*
X50Y259D01*
X50Y259D01*
X50Y259D01*
X49Y259D01*
X49Y258D01*
X48Y258D01*
X48Y257D01*
X48Y257D01*
X48Y256D01*
X47Y256D01*
X47Y256D01*
X46Y256D01*
X46Y255D01*
X45Y255D01*
X45Y254D01*
X45Y254D01*
X45Y254D01*
X44Y254D01*
X44Y253D01*
X43Y253D01*
X43Y252D01*
X43Y252D01*
X43Y251D01*
X42Y251D01*
X42Y251D01*
X41Y251D01*
X41Y250D01*
X40Y250D01*
X40Y249D01*
X40Y249D01*
X40Y249D01*
X39Y249D01*
X39Y248D01*
X38Y248D01*
X38Y247D01*
X37Y247D01*
X37Y246D01*
X37Y246D01*
X37Y246D01*
X36Y246D01*
X36Y245D01*
X35Y245D01*
X35Y244D01*
X35Y244D01*
X35Y243D01*
X34Y243D01*
X34Y243D01*
X33Y243D01*
X33Y242D01*
X32Y242D01*
X32Y241D01*
X21Y241D01*
X21Y242D01*
X22Y242D01*
X22Y243D01*
X22Y243D01*
X22Y243D01*
X23Y243D01*
X23Y244D01*
X24Y244D01*
X24Y245D01*
X24Y245D01*
X24Y246D01*
X25Y246D01*
X25Y246D01*
X26Y246D01*
X26Y247D01*
X27Y247D01*
X27Y248D01*
X27Y248D01*
X27Y249D01*
X28Y249D01*
X28Y249D01*
X29Y249D01*
X29Y250D01*
X30Y250D01*
X30Y251D01*
X30Y251D01*
X30Y251D01*
X31Y251D01*
X31Y252D01*
X32Y252D01*
X32Y253D01*
X32Y253D01*
X32Y254D01*
X33Y254D01*
X33Y254D01*
X34Y254D01*
X34Y255D01*
X35Y255D01*
X35Y256D01*
X35Y256D01*
X35Y256D01*
X36Y256D01*
X36Y257D01*
X37Y257D01*
X37Y258D01*
X37Y258D01*
X37Y259D01*
X38Y259D01*
X38Y259D01*
X39Y259D01*
X39Y260D01*
X40Y260D01*
X40Y261D01*
X40Y261D01*
X40Y262D01*
X41Y262D01*
X41Y262D01*
X42Y262D01*
X42Y263D01*
X43Y263D01*
X43Y264D01*
X43Y264D01*
X43Y264D01*
X44Y264D01*
X44Y265D01*
X45Y265D01*
X45Y266D01*
X45Y266D01*
X45Y267D01*
X46Y267D01*
X46Y267D01*
X47Y267D01*
X47Y268D01*
X48Y268D01*
X48Y269D01*
X48Y269D01*
X48Y269D01*
X49Y269D01*
X49Y270D01*
X50Y270D01*
X50Y272D01*
X49Y272D01*
X49Y272D01*
X48Y272D01*
X48Y273D01*
X48Y273D01*
X48Y274D01*
X47Y274D01*
X47Y275D01*
X66Y275D01*
G37*
D02*
G36*
X32Y241D02*
X32Y241D01*
X12Y241D01*
X12Y241D01*
X32Y241D01*
G37*
D02*
G36*
X32Y241D02*
X32Y241D01*
X12Y241D01*
X12Y241D01*
X32Y241D01*
G37*
D02*
G36*
X31Y241D02*
X31Y240D01*
X30Y240D01*
X30Y239D01*
X30Y239D01*
X30Y238D01*
X29Y238D01*
X29Y238D01*
X28Y238D01*
X28Y237D01*
X27Y237D01*
X27Y236D01*
X27Y236D01*
X27Y236D01*
X26Y236D01*
X26Y235D01*
X25Y235D01*
X25Y234D01*
X24Y234D01*
X24Y233D01*
X24Y233D01*
X24Y233D01*
X23Y233D01*
X23Y232D01*
X22Y232D01*
X22Y231D01*
X22Y231D01*
X22Y230D01*
X21Y230D01*
X21Y230D01*
X20Y230D01*
X20Y229D01*
X19Y229D01*
X19Y228D01*
X19Y228D01*
X19Y228D01*
X18Y228D01*
X18Y227D01*
X17Y227D01*
X17Y226D01*
X17Y226D01*
X17Y225D01*
X16Y225D01*
X16Y225D01*
X15Y225D01*
X15Y224D01*
X14Y224D01*
X14Y223D01*
X14Y223D01*
X14Y225D01*
X13Y225D01*
X13Y227D01*
X12Y227D01*
X12Y241D01*
X31Y241D01*
G37*
D02*
G36*
X166Y357D02*
X166Y356D01*
X167Y356D01*
X167Y355D01*
X167Y355D01*
X167Y351D01*
X168Y351D01*
X168Y339D01*
X159Y339D01*
X159Y338D01*
X158Y338D01*
X158Y337D01*
X157Y337D01*
X157Y337D01*
X157Y337D01*
X157Y336D01*
X156Y336D01*
X156Y335D01*
X155Y335D01*
X155Y334D01*
X154Y334D01*
X154Y334D01*
X154Y334D01*
X154Y333D01*
X153Y333D01*
X153Y332D01*
X152Y332D01*
X152Y332D01*
X152Y332D01*
X152Y331D01*
X151Y331D01*
X151Y330D01*
X150Y330D01*
X150Y329D01*
X149Y329D01*
X149Y329D01*
X149Y329D01*
X149Y328D01*
X148Y328D01*
X148Y327D01*
X147Y327D01*
X147Y327D01*
X147Y327D01*
X147Y326D01*
X146Y326D01*
X146Y325D01*
X145Y325D01*
X145Y324D01*
X144Y324D01*
X144Y324D01*
X144Y324D01*
X144Y323D01*
X143Y323D01*
X143Y322D01*
X142Y322D01*
X142Y321D01*
X141Y321D01*
X141Y321D01*
X141Y321D01*
X141Y320D01*
X140Y320D01*
X140Y319D01*
X139Y319D01*
X139Y319D01*
X139Y319D01*
X139Y318D01*
X138Y318D01*
X138Y317D01*
X137Y317D01*
X137Y316D01*
X136Y316D01*
X136Y316D01*
X136Y316D01*
X136Y315D01*
X135Y315D01*
X135Y314D01*
X134Y314D01*
X134Y314D01*
X134Y314D01*
X134Y313D01*
X133Y313D01*
X133Y312D01*
X132Y312D01*
X132Y311D01*
X131Y311D01*
X131Y311D01*
X131Y311D01*
X131Y310D01*
X130Y310D01*
X130Y308D01*
X131Y308D01*
X131Y308D01*
X131Y308D01*
X131Y307D01*
X132Y307D01*
X132Y306D01*
X133Y306D01*
X133Y305D01*
X125Y305D01*
X125Y304D01*
X124Y304D01*
X124Y303D01*
X123Y303D01*
X123Y303D01*
X123Y303D01*
X123Y302D01*
X122Y302D01*
X122Y301D01*
X121Y301D01*
X121Y300D01*
X122Y300D01*
X122Y299D01*
X123Y299D01*
X123Y298D01*
X123Y298D01*
X123Y298D01*
X124Y298D01*
X124Y297D01*
X123Y297D01*
X123Y296D01*
X116Y296D01*
X116Y295D01*
X115Y295D01*
X115Y295D01*
X115Y295D01*
X115Y294D01*
X114Y294D01*
X114Y293D01*
X113Y293D01*
X113Y293D01*
X113Y293D01*
X113Y292D01*
X112Y292D01*
X112Y291D01*
X111Y291D01*
X111Y290D01*
X112Y290D01*
X112Y289D01*
X113Y289D01*
X113Y288D01*
X113Y288D01*
X113Y288D01*
X114Y288D01*
X114Y287D01*
X113Y287D01*
X113Y286D01*
X106Y286D01*
X106Y285D01*
X105Y285D01*
X105Y285D01*
X105Y285D01*
X105Y284D01*
X104Y284D01*
X104Y283D01*
X103Y283D01*
X103Y282D01*
X102Y282D01*
X102Y282D01*
X102Y282D01*
X102Y281D01*
X101Y281D01*
X101Y280D01*
X100Y280D01*
X100Y280D01*
X100Y280D01*
X100Y278D01*
X100Y278D01*
X100Y277D01*
X101Y277D01*
X101Y277D01*
X102Y277D01*
X102Y276D01*
X102Y276D01*
X102Y275D01*
X102Y275D01*
X102Y275D01*
X95Y275D01*
X95Y274D01*
X94Y274D01*
X94Y273D01*
X93Y273D01*
X93Y272D01*
X92Y272D01*
X92Y272D01*
X92Y272D01*
X92Y271D01*
X91Y271D01*
X91Y270D01*
X90Y270D01*
X90Y269D01*
X89Y269D01*
X89Y269D01*
X89Y269D01*
X89Y267D01*
X89Y267D01*
X89Y266D01*
X90Y266D01*
X90Y265D01*
X91Y265D01*
X91Y264D01*
X90Y264D01*
X90Y263D01*
X83Y263D01*
X83Y262D01*
X82Y262D01*
X82Y262D01*
X82Y262D01*
X82Y261D01*
X81Y261D01*
X81Y260D01*
X80Y260D01*
X80Y259D01*
X79Y259D01*
X79Y259D01*
X79Y259D01*
X79Y257D01*
X79Y257D01*
X79Y256D01*
X80Y256D01*
X80Y256D01*
X81Y256D01*
X81Y254D01*
X80Y254D01*
X80Y254D01*
X74Y254D01*
X74Y253D01*
X73Y253D01*
X73Y252D01*
X72Y252D01*
X72Y251D01*
X71Y251D01*
X71Y251D01*
X71Y251D01*
X71Y250D01*
X70Y250D01*
X70Y249D01*
X69Y249D01*
X69Y249D01*
X69Y249D01*
X69Y248D01*
X68Y248D01*
X68Y247D01*
X67Y247D01*
X67Y246D01*
X66Y246D01*
X66Y246D01*
X66Y246D01*
X66Y245D01*
X65Y245D01*
X65Y244D01*
X64Y244D01*
X64Y243D01*
X63Y243D01*
X63Y243D01*
X63Y243D01*
X63Y242D01*
X62Y242D01*
X62Y241D01*
X61Y241D01*
X61Y241D01*
X61Y241D01*
X61Y240D01*
X60Y240D01*
X60Y239D01*
X59Y239D01*
X59Y238D01*
X58Y238D01*
X58Y238D01*
X58Y238D01*
X58Y237D01*
X57Y237D01*
X57Y236D01*
X56Y236D01*
X56Y236D01*
X56Y236D01*
X56Y235D01*
X55Y235D01*
X55Y234D01*
X54Y234D01*
X54Y233D01*
X53Y233D01*
X53Y233D01*
X53Y233D01*
X53Y232D01*
X52Y232D01*
X52Y231D01*
X51Y231D01*
X51Y230D01*
X50Y230D01*
X50Y230D01*
X50Y230D01*
X50Y229D01*
X49Y229D01*
X49Y228D01*
X48Y228D01*
X48Y228D01*
X48Y228D01*
X48Y227D01*
X47Y227D01*
X47Y226D01*
X46Y226D01*
X46Y225D01*
X45Y225D01*
X45Y225D01*
X45Y225D01*
X45Y224D01*
X44Y224D01*
X44Y223D01*
X43Y223D01*
X43Y223D01*
X43Y223D01*
X43Y222D01*
X42Y222D01*
X42Y221D01*
X41Y221D01*
X41Y220D01*
X30Y220D01*
X30Y221D01*
X30Y221D01*
X30Y222D01*
X31Y222D01*
X31Y223D01*
X32Y223D01*
X32Y223D01*
X32Y223D01*
X32Y224D01*
X33Y224D01*
X33Y225D01*
X34Y225D01*
X34Y225D01*
X35Y225D01*
X35Y226D01*
X35Y226D01*
X35Y227D01*
X36Y227D01*
X36Y228D01*
X37Y228D01*
X37Y228D01*
X37Y228D01*
X37Y229D01*
X38Y229D01*
X38Y230D01*
X39Y230D01*
X39Y230D01*
X40Y230D01*
X40Y231D01*
X40Y231D01*
X40Y232D01*
X41Y232D01*
X41Y233D01*
X42Y233D01*
X42Y233D01*
X43Y233D01*
X43Y234D01*
X43Y234D01*
X43Y235D01*
X44Y235D01*
X44Y236D01*
X45Y236D01*
X45Y236D01*
X45Y236D01*
X45Y237D01*
X46Y237D01*
X46Y238D01*
X47Y238D01*
X47Y238D01*
X48Y238D01*
X48Y239D01*
X48Y239D01*
X48Y240D01*
X49Y240D01*
X49Y241D01*
X50Y241D01*
X50Y241D01*
X50Y241D01*
X50Y242D01*
X51Y242D01*
X51Y243D01*
X52Y243D01*
X52Y243D01*
X53Y243D01*
X53Y244D01*
X53Y244D01*
X53Y245D01*
X54Y245D01*
X54Y246D01*
X55Y246D01*
X55Y246D01*
X56Y246D01*
X56Y247D01*
X56Y247D01*
X56Y248D01*
X57Y248D01*
X57Y249D01*
X58Y249D01*
X58Y249D01*
X58Y249D01*
X58Y250D01*
X59Y250D01*
X59Y251D01*
X60Y251D01*
X60Y251D01*
X61Y251D01*
X61Y252D01*
X61Y252D01*
X61Y253D01*
X62Y253D01*
X62Y254D01*
X63Y254D01*
X63Y254D01*
X63Y254D01*
X63Y255D01*
X64Y255D01*
X64Y256D01*
X65Y256D01*
X65Y256D01*
X66Y256D01*
X66Y257D01*
X66Y257D01*
X66Y258D01*
X67Y258D01*
X67Y259D01*
X68Y259D01*
X68Y259D01*
X69Y259D01*
X69Y260D01*
X69Y260D01*
X69Y261D01*
X70Y261D01*
X70Y262D01*
X71Y262D01*
X71Y262D01*
X71Y262D01*
X71Y263D01*
X72Y263D01*
X72Y264D01*
X73Y264D01*
X73Y264D01*
X74Y264D01*
X74Y265D01*
X74Y265D01*
X74Y266D01*
X75Y266D01*
X75Y267D01*
X76Y267D01*
X76Y267D01*
X76Y267D01*
X76Y268D01*
X77Y268D01*
X77Y269D01*
X78Y269D01*
X78Y269D01*
X79Y269D01*
X79Y270D01*
X79Y270D01*
X79Y271D01*
X80Y271D01*
X80Y272D01*
X81Y272D01*
X81Y272D01*
X82Y272D01*
X82Y273D01*
X82Y273D01*
X82Y274D01*
X83Y274D01*
X83Y275D01*
X84Y275D01*
X84Y275D01*
X84Y275D01*
X84Y276D01*
X85Y276D01*
X85Y277D01*
X86Y277D01*
X86Y277D01*
X87Y277D01*
X87Y278D01*
X87Y278D01*
X87Y279D01*
X88Y279D01*
X88Y280D01*
X89Y280D01*
X89Y280D01*
X89Y280D01*
X89Y281D01*
X90Y281D01*
X90Y282D01*
X91Y282D01*
X91Y282D01*
X92Y282D01*
X92Y283D01*
X92Y283D01*
X92Y284D01*
X93Y284D01*
X93Y285D01*
X94Y285D01*
X94Y285D01*
X95Y285D01*
X95Y286D01*
X95Y286D01*
X95Y287D01*
X96Y287D01*
X96Y288D01*
X97Y288D01*
X97Y288D01*
X97Y288D01*
X97Y289D01*
X98Y289D01*
X98Y290D01*
X99Y290D01*
X99Y290D01*
X100Y290D01*
X100Y291D01*
X100Y291D01*
X100Y292D01*
X101Y292D01*
X101Y293D01*
X102Y293D01*
X102Y293D01*
X102Y293D01*
X102Y294D01*
X103Y294D01*
X103Y295D01*
X104Y295D01*
X104Y295D01*
X105Y295D01*
X105Y296D01*
X105Y296D01*
X105Y297D01*
X106Y297D01*
X106Y298D01*
X107Y298D01*
X107Y298D01*
X108Y298D01*
X108Y299D01*
X108Y299D01*
X108Y300D01*
X109Y300D01*
X109Y301D01*
X110Y301D01*
X110Y301D01*
X110Y301D01*
X110Y302D01*
X111Y302D01*
X111Y303D01*
X112Y303D01*
X112Y303D01*
X113Y303D01*
X113Y304D01*
X113Y304D01*
X113Y305D01*
X114Y305D01*
X114Y306D01*
X115Y306D01*
X115Y306D01*
X115Y306D01*
X115Y307D01*
X116Y307D01*
X116Y308D01*
X117Y308D01*
X117Y308D01*
X118Y308D01*
X118Y309D01*
X118Y309D01*
X118Y310D01*
X119Y310D01*
X119Y311D01*
X120Y311D01*
X120Y311D01*
X121Y311D01*
X121Y312D01*
X121Y312D01*
X121Y313D01*
X122Y313D01*
X122Y314D01*
X123Y314D01*
X123Y314D01*
X123Y314D01*
X123Y315D01*
X124Y315D01*
X124Y316D01*
X125Y316D01*
X125Y316D01*
X126Y316D01*
X126Y317D01*
X126Y317D01*
X126Y318D01*
X127Y318D01*
X127Y319D01*
X128Y319D01*
X128Y319D01*
X128Y319D01*
X128Y320D01*
X129Y320D01*
X129Y321D01*
X130Y321D01*
X130Y321D01*
X131Y321D01*
X131Y322D01*
X131Y322D01*
X131Y323D01*
X132Y323D01*
X132Y324D01*
X133Y324D01*
X133Y324D01*
X134Y324D01*
X134Y325D01*
X134Y325D01*
X134Y326D01*
X135Y326D01*
X135Y327D01*
X136Y327D01*
X136Y327D01*
X136Y327D01*
X136Y328D01*
X137Y328D01*
X137Y329D01*
X138Y329D01*
X138Y329D01*
X139Y329D01*
X139Y330D01*
X139Y330D01*
X139Y331D01*
X140Y331D01*
X140Y332D01*
X141Y332D01*
X141Y332D01*
X141Y332D01*
X141Y333D01*
X142Y333D01*
X142Y334D01*
X143Y334D01*
X143Y334D01*
X144Y334D01*
X144Y335D01*
X144Y335D01*
X144Y336D01*
X145Y336D01*
X145Y337D01*
X146Y337D01*
X146Y337D01*
X147Y337D01*
X147Y338D01*
X147Y338D01*
X147Y339D01*
X148Y339D01*
X148Y340D01*
X149Y340D01*
X149Y340D01*
X149Y340D01*
X149Y341D01*
X150Y341D01*
X150Y342D01*
X151Y342D01*
X151Y342D01*
X152Y342D01*
X152Y343D01*
X152Y343D01*
X152Y344D01*
X153Y344D01*
X153Y345D01*
X154Y345D01*
X154Y345D01*
X154Y345D01*
X154Y346D01*
X155Y346D01*
X155Y347D01*
X156Y347D01*
X156Y347D01*
X157Y347D01*
X157Y348D01*
X157Y348D01*
X157Y349D01*
X158Y349D01*
X158Y350D01*
X159Y350D01*
X159Y350D01*
X160Y350D01*
X160Y351D01*
X160Y351D01*
X160Y352D01*
X161Y352D01*
X161Y353D01*
X162Y353D01*
X162Y353D01*
X162Y353D01*
X162Y354D01*
X163Y354D01*
X163Y355D01*
X164Y355D01*
X164Y355D01*
X165Y355D01*
X165Y356D01*
X165Y356D01*
X165Y357D01*
X166Y357D01*
G37*
D02*
G36*
X168Y339D02*
X168Y229D01*
X167Y229D01*
X167Y226D01*
X167Y226D01*
X167Y224D01*
X166Y224D01*
X166Y223D01*
X165Y223D01*
X165Y221D01*
X165Y221D01*
X165Y220D01*
X147Y220D01*
X147Y221D01*
X149Y221D01*
X149Y222D01*
X151Y222D01*
X151Y223D01*
X152Y223D01*
X152Y223D01*
X153Y223D01*
X153Y224D01*
X154Y224D01*
X154Y225D01*
X154Y225D01*
X154Y225D01*
X155Y225D01*
X155Y226D01*
X156Y226D01*
X156Y227D01*
X157Y227D01*
X157Y228D01*
X157Y228D01*
X157Y229D01*
X158Y229D01*
X158Y230D01*
X159Y230D01*
X159Y233D01*
X160Y233D01*
X160Y236D01*
X160Y236D01*
X160Y339D01*
X168Y339D01*
G37*
D02*
G36*
X132Y305D02*
X132Y303D01*
X130Y303D01*
X130Y302D01*
X128Y302D01*
X128Y303D01*
X128Y303D01*
X128Y303D01*
X127Y303D01*
X127Y304D01*
X126Y304D01*
X126Y305D01*
X132Y305D01*
G37*
D02*
G36*
X133Y303D02*
X133Y302D01*
X134Y302D01*
X134Y301D01*
X134Y301D01*
X134Y301D01*
X135Y301D01*
X135Y300D01*
X136Y300D01*
X136Y299D01*
X136Y299D01*
X136Y298D01*
X137Y298D01*
X137Y298D01*
X138Y298D01*
X138Y297D01*
X139Y297D01*
X139Y296D01*
X139Y296D01*
X139Y295D01*
X140Y295D01*
X140Y295D01*
X141Y295D01*
X141Y294D01*
X141Y294D01*
X141Y293D01*
X142Y293D01*
X142Y293D01*
X143Y293D01*
X143Y292D01*
X148Y292D01*
X148Y291D01*
X149Y291D01*
X149Y290D01*
X149Y290D01*
X149Y290D01*
X144Y290D01*
X144Y289D01*
X144Y289D01*
X144Y286D01*
X144Y286D01*
X144Y285D01*
X141Y285D01*
X141Y290D01*
X142Y290D01*
X142Y291D01*
X141Y291D01*
X141Y292D01*
X141Y292D01*
X141Y293D01*
X140Y293D01*
X140Y293D01*
X139Y293D01*
X139Y294D01*
X139Y294D01*
X139Y295D01*
X138Y295D01*
X138Y295D01*
X137Y295D01*
X137Y296D01*
X136Y296D01*
X136Y297D01*
X136Y297D01*
X136Y298D01*
X135Y298D01*
X135Y298D01*
X134Y298D01*
X134Y299D01*
X134Y299D01*
X134Y300D01*
X133Y300D01*
X133Y301D01*
X132Y301D01*
X132Y301D01*
X131Y301D01*
X131Y302D01*
X131Y302D01*
X131Y303D01*
X133Y303D01*
G37*
D02*
G36*
X123Y296D02*
X123Y295D01*
X123Y295D01*
X123Y295D01*
X124Y295D01*
X124Y294D01*
X121Y294D01*
X121Y293D01*
X119Y293D01*
X119Y294D01*
X118Y294D01*
X118Y295D01*
X118Y295D01*
X118Y295D01*
X117Y295D01*
X117Y296D01*
X123Y296D01*
G37*
D02*
G36*
X124Y294D02*
X124Y277D01*
X125Y277D01*
X125Y277D01*
X126Y277D01*
X126Y276D01*
X126Y276D01*
X126Y275D01*
X127Y275D01*
X127Y275D01*
X128Y275D01*
X128Y274D01*
X128Y274D01*
X128Y273D01*
X129Y273D01*
X129Y272D01*
X130Y272D01*
X130Y272D01*
X131Y272D01*
X131Y271D01*
X131Y271D01*
X131Y270D01*
X132Y270D01*
X132Y269D01*
X133Y269D01*
X133Y269D01*
X134Y269D01*
X134Y268D01*
X134Y268D01*
X134Y267D01*
X132Y267D01*
X132Y268D01*
X131Y268D01*
X131Y269D01*
X131Y269D01*
X131Y269D01*
X130Y269D01*
X130Y270D01*
X129Y270D01*
X129Y271D01*
X128Y271D01*
X128Y272D01*
X128Y272D01*
X128Y272D01*
X127Y272D01*
X127Y273D01*
X126Y273D01*
X126Y274D01*
X126Y274D01*
X126Y275D01*
X125Y275D01*
X125Y275D01*
X124Y275D01*
X124Y276D01*
X123Y276D01*
X123Y277D01*
X123Y277D01*
X123Y294D01*
X124Y294D01*
G37*
D02*
G36*
X150Y290D02*
X150Y285D01*
X147Y285D01*
X147Y286D01*
X148Y286D01*
X148Y288D01*
X147Y288D01*
X147Y289D01*
X147Y289D01*
X147Y290D01*
X150Y290D01*
G37*
D02*
G36*
X113Y286D02*
X113Y285D01*
X113Y285D01*
X113Y285D01*
X114Y285D01*
X114Y284D01*
X110Y284D01*
X110Y283D01*
X109Y283D01*
X109Y284D01*
X108Y284D01*
X108Y285D01*
X108Y285D01*
X108Y285D01*
X107Y285D01*
X107Y286D01*
X113Y286D01*
G37*
D02*
G36*
X149Y285D02*
X149Y285D01*
X142Y285D01*
X142Y285D01*
X149Y285D01*
G37*
D02*
G36*
X149Y285D02*
X149Y285D01*
X142Y285D01*
X142Y285D01*
X149Y285D01*
G37*
D02*
G36*
X149Y285D02*
X149Y284D01*
X148Y284D01*
X148Y283D01*
X144Y283D01*
X144Y284D01*
X142Y284D01*
X142Y285D01*
X149Y285D01*
G37*
D02*
G36*
X114Y284D02*
X114Y265D01*
X115Y265D01*
X115Y264D01*
X115Y264D01*
X115Y264D01*
X116Y264D01*
X116Y263D01*
X117Y263D01*
X117Y262D01*
X118Y262D01*
X118Y262D01*
X118Y262D01*
X118Y261D01*
X119Y261D01*
X119Y260D01*
X120Y260D01*
X120Y259D01*
X121Y259D01*
X121Y259D01*
X121Y259D01*
X121Y258D01*
X122Y258D01*
X122Y257D01*
X123Y257D01*
X123Y256D01*
X123Y256D01*
X123Y256D01*
X124Y256D01*
X124Y255D01*
X125Y255D01*
X125Y254D01*
X126Y254D01*
X126Y254D01*
X126Y254D01*
X126Y253D01*
X127Y253D01*
X127Y252D01*
X128Y252D01*
X128Y251D01*
X128Y251D01*
X128Y251D01*
X129Y251D01*
X129Y250D01*
X130Y250D01*
X130Y249D01*
X131Y249D01*
X131Y249D01*
X131Y249D01*
X131Y248D01*
X132Y248D01*
X132Y247D01*
X133Y247D01*
X133Y246D01*
X134Y246D01*
X134Y246D01*
X134Y246D01*
X134Y245D01*
X135Y245D01*
X135Y244D01*
X136Y244D01*
X136Y243D01*
X136Y243D01*
X136Y243D01*
X137Y243D01*
X137Y242D01*
X138Y242D01*
X138Y241D01*
X139Y241D01*
X139Y241D01*
X139Y241D01*
X139Y240D01*
X140Y240D01*
X140Y239D01*
X141Y239D01*
X141Y238D01*
X139Y238D01*
X139Y239D01*
X138Y239D01*
X138Y240D01*
X137Y240D01*
X137Y241D01*
X136Y241D01*
X136Y241D01*
X136Y241D01*
X136Y242D01*
X135Y242D01*
X135Y243D01*
X134Y243D01*
X134Y243D01*
X134Y243D01*
X134Y244D01*
X133Y244D01*
X133Y245D01*
X132Y245D01*
X132Y246D01*
X131Y246D01*
X131Y246D01*
X131Y246D01*
X131Y247D01*
X130Y247D01*
X130Y248D01*
X129Y248D01*
X129Y249D01*
X128Y249D01*
X128Y249D01*
X128Y249D01*
X128Y250D01*
X127Y250D01*
X127Y251D01*
X126Y251D01*
X126Y251D01*
X126Y251D01*
X126Y252D01*
X125Y252D01*
X125Y253D01*
X124Y253D01*
X124Y254D01*
X123Y254D01*
X123Y254D01*
X123Y254D01*
X123Y255D01*
X122Y255D01*
X122Y256D01*
X121Y256D01*
X121Y256D01*
X121Y256D01*
X121Y257D01*
X120Y257D01*
X120Y258D01*
X119Y258D01*
X119Y259D01*
X118Y259D01*
X118Y259D01*
X118Y259D01*
X118Y260D01*
X117Y260D01*
X117Y261D01*
X116Y261D01*
X116Y262D01*
X115Y262D01*
X115Y262D01*
X115Y262D01*
X115Y263D01*
X114Y263D01*
X114Y264D01*
X113Y264D01*
X113Y264D01*
X113Y264D01*
X113Y283D01*
X112Y283D01*
X112Y284D01*
X114Y284D01*
G37*
D02*
G36*
X101Y275D02*
X101Y274D01*
X102Y274D01*
X102Y273D01*
X100Y273D01*
X100Y272D01*
X99Y272D01*
X99Y272D01*
X97Y272D01*
X97Y272D01*
X97Y272D01*
X97Y273D01*
X96Y273D01*
X96Y274D01*
X95Y274D01*
X95Y275D01*
X101Y275D01*
G37*
D02*
G36*
X102Y273D02*
X102Y262D01*
X103Y262D01*
X103Y262D01*
X104Y262D01*
X104Y261D01*
X105Y261D01*
X105Y260D01*
X105Y260D01*
X105Y259D01*
X106Y259D01*
X106Y259D01*
X107Y259D01*
X107Y258D01*
X108Y258D01*
X108Y257D01*
X108Y257D01*
X108Y256D01*
X109Y256D01*
X109Y256D01*
X110Y256D01*
X110Y255D01*
X110Y255D01*
X110Y254D01*
X111Y254D01*
X111Y254D01*
X112Y254D01*
X112Y253D01*
X113Y253D01*
X113Y252D01*
X113Y252D01*
X113Y251D01*
X114Y251D01*
X114Y251D01*
X115Y251D01*
X115Y250D01*
X115Y250D01*
X115Y249D01*
X116Y249D01*
X116Y249D01*
X117Y249D01*
X117Y248D01*
X118Y248D01*
X118Y247D01*
X118Y247D01*
X118Y246D01*
X119Y246D01*
X119Y246D01*
X120Y246D01*
X120Y239D01*
X121Y239D01*
X121Y238D01*
X121Y238D01*
X121Y238D01*
X122Y238D01*
X122Y237D01*
X116Y237D01*
X116Y236D01*
X115Y236D01*
X115Y235D01*
X116Y235D01*
X116Y233D01*
X113Y233D01*
X113Y237D01*
X114Y237D01*
X114Y238D01*
X115Y238D01*
X115Y238D01*
X115Y238D01*
X115Y239D01*
X117Y239D01*
X117Y240D01*
X118Y240D01*
X118Y246D01*
X117Y246D01*
X117Y246D01*
X116Y246D01*
X116Y247D01*
X115Y247D01*
X115Y248D01*
X115Y248D01*
X115Y249D01*
X114Y249D01*
X114Y249D01*
X113Y249D01*
X113Y250D01*
X113Y250D01*
X113Y251D01*
X112Y251D01*
X112Y251D01*
X111Y251D01*
X111Y252D01*
X110Y252D01*
X110Y253D01*
X110Y253D01*
X110Y254D01*
X109Y254D01*
X109Y254D01*
X108Y254D01*
X108Y255D01*
X108Y255D01*
X108Y256D01*
X107Y256D01*
X107Y256D01*
X106Y256D01*
X106Y257D01*
X105Y257D01*
X105Y258D01*
X105Y258D01*
X105Y259D01*
X104Y259D01*
X104Y259D01*
X103Y259D01*
X103Y260D01*
X102Y260D01*
X102Y261D01*
X102Y261D01*
X102Y262D01*
X101Y262D01*
X101Y262D01*
X100Y262D01*
X100Y273D01*
X102Y273D01*
G37*
D02*
G36*
X139Y268D02*
X139Y267D01*
X136Y267D01*
X136Y268D01*
X139Y268D01*
G37*
D02*
G36*
X140Y267D02*
X140Y267D01*
X133Y267D01*
X133Y267D01*
X140Y267D01*
G37*
D02*
G36*
X140Y267D02*
X140Y267D01*
X133Y267D01*
X133Y267D01*
X140Y267D01*
G37*
D02*
G36*
X141Y267D02*
X141Y266D01*
X141Y266D01*
X141Y265D01*
X136Y265D01*
X136Y262D01*
X134Y262D01*
X134Y262D01*
X133Y262D01*
X133Y264D01*
X134Y264D01*
X134Y267D01*
X141Y267D01*
G37*
D02*
G36*
X141Y265D02*
X141Y264D01*
X142Y264D01*
X142Y262D01*
X141Y262D01*
X141Y262D01*
X139Y262D01*
X139Y265D01*
X141Y265D01*
G37*
D02*
G36*
X89Y263D02*
X89Y262D01*
X90Y262D01*
X90Y262D01*
X88Y262D01*
X88Y261D01*
X87Y261D01*
X87Y262D01*
X86Y262D01*
X86Y262D01*
X85Y262D01*
X85Y263D01*
X89Y263D01*
G37*
D02*
G36*
X141Y262D02*
X141Y261D01*
X134Y261D01*
X134Y262D01*
X141Y262D01*
G37*
D02*
G36*
X141Y262D02*
X141Y261D01*
X134Y261D01*
X134Y262D01*
X141Y262D01*
G37*
D02*
G36*
X91Y262D02*
X91Y261D01*
X92Y261D01*
X92Y260D01*
X92Y260D01*
X92Y259D01*
X93Y259D01*
X93Y259D01*
X94Y259D01*
X94Y258D01*
X95Y258D01*
X95Y257D01*
X95Y257D01*
X95Y256D01*
X96Y256D01*
X96Y256D01*
X97Y256D01*
X97Y255D01*
X95Y255D01*
X95Y256D01*
X94Y256D01*
X94Y256D01*
X93Y256D01*
X93Y257D01*
X92Y257D01*
X92Y258D01*
X92Y258D01*
X92Y259D01*
X91Y259D01*
X91Y259D01*
X90Y259D01*
X90Y260D01*
X89Y260D01*
X89Y261D01*
X89Y261D01*
X89Y262D01*
X91Y262D01*
G37*
D02*
G36*
X141Y261D02*
X141Y260D01*
X140Y260D01*
X140Y259D01*
X139Y259D01*
X139Y259D01*
X136Y259D01*
X136Y259D01*
X135Y259D01*
X135Y260D01*
X134Y260D01*
X134Y261D01*
X141Y261D01*
G37*
D02*
G36*
X100Y256D02*
X100Y255D01*
X98Y255D01*
X98Y256D01*
X100Y256D01*
G37*
D02*
G36*
X102Y255D02*
X102Y254D01*
X95Y254D01*
X95Y255D01*
X102Y255D01*
G37*
D02*
G36*
X102Y255D02*
X102Y254D01*
X95Y254D01*
X95Y255D01*
X102Y255D01*
G37*
D02*
G36*
X102Y254D02*
X102Y254D01*
X103Y254D01*
X103Y253D01*
X97Y253D01*
X97Y252D01*
X97Y252D01*
X97Y250D01*
X97Y250D01*
X97Y249D01*
X98Y249D01*
X98Y249D01*
X95Y249D01*
X95Y249D01*
X95Y249D01*
X95Y253D01*
X95Y253D01*
X95Y254D01*
X102Y254D01*
G37*
D02*
G36*
X79Y254D02*
X79Y253D01*
X80Y253D01*
X80Y252D01*
X81Y252D01*
X81Y251D01*
X77Y251D01*
X77Y251D01*
X76Y251D01*
X76Y251D01*
X76Y251D01*
X76Y252D01*
X75Y252D01*
X75Y253D01*
X74Y253D01*
X74Y254D01*
X79Y254D01*
G37*
D02*
G36*
X103Y253D02*
X103Y251D01*
X104Y251D01*
X104Y251D01*
X103Y251D01*
X103Y249D01*
X100Y249D01*
X100Y249D01*
X101Y249D01*
X101Y252D01*
X100Y252D01*
X100Y253D01*
X103Y253D01*
G37*
D02*
G36*
X82Y251D02*
X82Y251D01*
X82Y251D01*
X82Y250D01*
X83Y250D01*
X83Y249D01*
X84Y249D01*
X84Y249D01*
X84Y249D01*
X84Y248D01*
X85Y248D01*
X85Y247D01*
X86Y247D01*
X86Y246D01*
X87Y246D01*
X87Y246D01*
X87Y246D01*
X87Y245D01*
X88Y245D01*
X88Y244D01*
X89Y244D01*
X89Y243D01*
X89Y243D01*
X89Y243D01*
X90Y243D01*
X90Y242D01*
X91Y242D01*
X91Y241D01*
X92Y241D01*
X92Y241D01*
X89Y241D01*
X89Y241D01*
X88Y241D01*
X88Y242D01*
X87Y242D01*
X87Y243D01*
X87Y243D01*
X87Y243D01*
X86Y243D01*
X86Y244D01*
X85Y244D01*
X85Y245D01*
X84Y245D01*
X84Y246D01*
X84Y246D01*
X84Y246D01*
X83Y246D01*
X83Y247D01*
X82Y247D01*
X82Y248D01*
X82Y248D01*
X82Y249D01*
X81Y249D01*
X81Y249D01*
X80Y249D01*
X80Y250D01*
X79Y250D01*
X79Y251D01*
X79Y251D01*
X79Y251D01*
X82Y251D01*
G37*
D02*
G36*
X102Y249D02*
X102Y248D01*
X95Y248D01*
X95Y249D01*
X102Y249D01*
G37*
D02*
G36*
X102Y249D02*
X102Y248D01*
X95Y248D01*
X95Y249D01*
X102Y249D01*
G37*
D02*
G36*
X102Y248D02*
X102Y247D01*
X100Y247D01*
X100Y246D01*
X97Y246D01*
X97Y247D01*
X96Y247D01*
X96Y248D01*
X102Y248D01*
G37*
D02*
G36*
X95Y241D02*
X95Y241D01*
X92Y241D01*
X92Y241D01*
X95Y241D01*
G37*
D02*
G36*
X96Y241D02*
X96Y240D01*
X89Y240D01*
X89Y241D01*
X96Y241D01*
G37*
D02*
G36*
X96Y241D02*
X96Y240D01*
X89Y240D01*
X89Y241D01*
X96Y241D01*
G37*
D02*
G36*
X97Y240D02*
X97Y239D01*
X93Y239D01*
X93Y238D01*
X92Y238D01*
X92Y235D01*
X89Y235D01*
X89Y236D01*
X89Y236D01*
X89Y238D01*
X89Y238D01*
X89Y239D01*
X90Y239D01*
X90Y240D01*
X97Y240D01*
G37*
D02*
G36*
X144Y239D02*
X144Y238D01*
X143Y238D01*
X143Y239D01*
X144Y239D01*
G37*
D02*
G36*
X97Y239D02*
X97Y238D01*
X98Y238D01*
X98Y235D01*
X95Y235D01*
X95Y236D01*
X96Y236D01*
X96Y238D01*
X95Y238D01*
X95Y238D01*
X94Y238D01*
X94Y239D01*
X97Y239D01*
G37*
D02*
G36*
X147Y238D02*
X147Y238D01*
X139Y238D01*
X139Y238D01*
X147Y238D01*
G37*
D02*
G36*
X147Y238D02*
X147Y238D01*
X139Y238D01*
X139Y238D01*
X147Y238D01*
G37*
D02*
G36*
X147Y238D02*
X147Y236D01*
X142Y236D01*
X142Y236D01*
X141Y236D01*
X141Y233D01*
X142Y233D01*
X142Y233D01*
X143Y233D01*
X143Y232D01*
X140Y232D01*
X140Y233D01*
X139Y233D01*
X139Y236D01*
X140Y236D01*
X140Y238D01*
X147Y238D01*
G37*
D02*
G36*
X122Y237D02*
X122Y236D01*
X123Y236D01*
X123Y234D01*
X122Y234D01*
X122Y233D01*
X120Y233D01*
X120Y237D01*
X122Y237D01*
G37*
D02*
G36*
X148Y236D02*
X148Y232D01*
X144Y232D01*
X144Y233D01*
X146Y233D01*
X146Y236D01*
X145Y236D01*
X145Y236D01*
X148Y236D01*
G37*
D02*
G36*
X97Y235D02*
X97Y234D01*
X89Y234D01*
X89Y235D01*
X97Y235D01*
G37*
D02*
G36*
X97Y235D02*
X97Y234D01*
X89Y234D01*
X89Y235D01*
X97Y235D01*
G37*
D02*
G36*
X97Y234D02*
X97Y233D01*
X96Y233D01*
X96Y233D01*
X95Y233D01*
X95Y232D01*
X92Y232D01*
X92Y233D01*
X91Y233D01*
X91Y233D01*
X90Y233D01*
X90Y234D01*
X97Y234D01*
G37*
D02*
G36*
X122Y233D02*
X122Y233D01*
X114Y233D01*
X114Y233D01*
X122Y233D01*
G37*
D02*
G36*
X122Y233D02*
X122Y233D01*
X114Y233D01*
X114Y233D01*
X122Y233D01*
G37*
D02*
G36*
X121Y233D02*
X121Y232D01*
X121Y232D01*
X121Y231D01*
X119Y231D01*
X119Y230D01*
X117Y230D01*
X117Y231D01*
X115Y231D01*
X115Y232D01*
X115Y232D01*
X115Y233D01*
X121Y233D01*
G37*
D02*
G36*
X147Y232D02*
X147Y231D01*
X140Y231D01*
X140Y232D01*
X147Y232D01*
G37*
D02*
G36*
X147Y232D02*
X147Y231D01*
X140Y231D01*
X140Y232D01*
X147Y232D01*
G37*
D02*
G36*
X147Y231D02*
X147Y230D01*
X145Y230D01*
X145Y230D01*
X142Y230D01*
X142Y230D01*
X141Y230D01*
X141Y231D01*
X147Y231D01*
G37*
D02*
G36*
X164Y220D02*
X164Y220D01*
X29Y220D01*
X29Y220D01*
X164Y220D01*
G37*
D02*
G36*
X164Y220D02*
X164Y220D01*
X29Y220D01*
X29Y220D01*
X164Y220D01*
G37*
D02*
G36*
X164Y220D02*
X164Y219D01*
X163Y219D01*
X163Y218D01*
X162Y218D01*
X162Y217D01*
X162Y217D01*
X162Y217D01*
X161Y217D01*
X161Y216D01*
X160Y216D01*
X160Y215D01*
X159Y215D01*
X159Y215D01*
X157Y215D01*
X157Y214D01*
X156Y214D01*
X156Y213D01*
X154Y213D01*
X154Y212D01*
X27Y212D01*
X27Y213D01*
X24Y213D01*
X24Y214D01*
X23Y214D01*
X23Y215D01*
X24Y215D01*
X24Y215D01*
X24Y215D01*
X24Y216D01*
X25Y216D01*
X25Y217D01*
X26Y217D01*
X26Y217D01*
X27Y217D01*
X27Y218D01*
X27Y218D01*
X27Y219D01*
X28Y219D01*
X28Y220D01*
X164Y220D01*
G37*
D02*
G54D12*
X85Y205D02*
X92Y205D01*
X84Y204D02*
X92Y204D01*
X84Y203D02*
X93Y203D01*
X84Y202D02*
X93Y202D01*
X84Y201D02*
X93Y201D01*
X83Y200D02*
X93Y200D01*
X83Y199D02*
X93Y199D01*
X83Y198D02*
X93Y198D01*
X83Y197D02*
X94Y197D01*
X83Y196D02*
X94Y196D01*
X83Y195D02*
X94Y195D01*
X59Y194D02*
X61Y194D01*
X82Y194D02*
X94Y194D01*
X116Y194D02*
X118Y194D01*
X58Y193D02*
X62Y193D01*
X82Y193D02*
X94Y193D01*
X114Y193D02*
X119Y193D01*
X57Y192D02*
X64Y192D01*
X80Y192D02*
X97Y192D01*
X113Y192D02*
X120Y192D01*
X56Y191D02*
X65Y191D01*
X77Y191D02*
X100Y191D01*
X111Y191D02*
X121Y191D01*
X55Y190D02*
X67Y190D01*
X75Y190D02*
X102Y190D01*
X110Y190D02*
X122Y190D01*
X54Y189D02*
X68Y189D01*
X73Y189D02*
X104Y189D01*
X108Y189D02*
X122Y189D01*
X55Y188D02*
X122Y188D01*
X55Y187D02*
X121Y187D01*
X56Y186D02*
X120Y186D01*
X57Y185D02*
X120Y185D01*
X57Y184D02*
X119Y184D01*
X58Y183D02*
X118Y183D01*
X59Y182D02*
X118Y182D01*
X60Y181D02*
X117Y181D01*
X60Y180D02*
X116Y180D01*
X61Y179D02*
X116Y179D01*
X61Y178D02*
X116Y178D01*
X60Y177D02*
X116Y177D01*
X60Y176D02*
X85Y176D01*
X92Y176D02*
X117Y176D01*
X59Y175D02*
X82Y175D01*
X95Y175D02*
X117Y175D01*
X59Y174D02*
X80Y174D01*
X97Y174D02*
X118Y174D01*
X58Y173D02*
X78Y173D01*
X98Y173D02*
X118Y173D01*
X58Y172D02*
X77Y172D01*
X100Y172D02*
X119Y172D01*
X57Y171D02*
X76Y171D01*
X101Y171D02*
X119Y171D01*
X57Y170D02*
X75Y170D01*
X101Y170D02*
X120Y170D01*
X57Y169D02*
X74Y169D01*
X102Y169D02*
X120Y169D01*
X56Y168D02*
X74Y168D01*
X103Y168D02*
X120Y168D01*
X56Y167D02*
X73Y167D01*
X103Y167D02*
X121Y167D01*
X51Y166D02*
X73Y166D01*
X104Y166D02*
X126Y166D01*
X45Y165D02*
X73Y165D01*
X104Y165D02*
X131Y165D01*
X44Y164D02*
X72Y164D01*
X104Y164D02*
X133Y164D01*
X44Y163D02*
X72Y163D01*
X104Y163D02*
X133Y163D01*
X44Y162D02*
X72Y162D01*
X105Y162D02*
X133Y162D01*
X44Y161D02*
X72Y161D01*
X105Y161D02*
X133Y161D01*
X44Y160D02*
X72Y160D01*
X105Y160D02*
X133Y160D01*
X44Y159D02*
X72Y159D01*
X105Y159D02*
X133Y159D01*
X44Y158D02*
X72Y158D01*
X105Y158D02*
X133Y158D01*
X44Y157D02*
X72Y157D01*
X104Y157D02*
X133Y157D01*
X44Y156D02*
X72Y156D01*
X104Y156D02*
X132Y156D01*
X50Y155D02*
X73Y155D01*
X104Y155D02*
X127Y155D01*
X55Y154D02*
X73Y154D01*
X103Y154D02*
X122Y154D01*
X56Y153D02*
X74Y153D01*
X103Y153D02*
X120Y153D01*
X56Y152D02*
X74Y152D01*
X102Y152D02*
X120Y152D01*
X57Y151D02*
X75Y151D01*
X102Y151D02*
X120Y151D01*
X57Y150D02*
X76Y150D01*
X101Y150D02*
X120Y150D01*
X57Y149D02*
X77Y149D01*
X100Y149D02*
X119Y149D01*
X58Y148D02*
X78Y148D01*
X99Y148D02*
X119Y148D01*
X58Y147D02*
X79Y147D01*
X98Y147D02*
X119Y147D01*
X58Y146D02*
X79Y146D01*
X97Y146D02*
X118Y146D01*
X59Y145D02*
X79Y145D01*
X98Y145D02*
X118Y145D01*
X59Y144D02*
X78Y144D01*
X98Y144D02*
X117Y144D01*
X60Y143D02*
X78Y143D01*
X99Y143D02*
X117Y143D01*
X61Y142D02*
X78Y142D01*
X99Y142D02*
X116Y142D01*
X60Y141D02*
X77Y141D01*
X99Y141D02*
X116Y141D01*
X60Y140D02*
X77Y140D01*
X100Y140D02*
X117Y140D01*
X59Y139D02*
X76Y139D01*
X100Y139D02*
X118Y139D01*
X58Y138D02*
X76Y138D01*
X101Y138D02*
X118Y138D01*
X58Y137D02*
X75Y137D01*
X101Y137D02*
X119Y137D01*
X57Y136D02*
X75Y136D01*
X102Y136D02*
X120Y136D01*
X56Y135D02*
X75Y135D01*
X102Y135D02*
X120Y135D01*
X56Y134D02*
X74Y134D01*
X102Y134D02*
X121Y134D01*
X55Y133D02*
X74Y133D01*
X103Y133D02*
X122Y133D01*
X54Y132D02*
X68Y132D01*
X70Y132D02*
X73Y132D01*
X103Y132D02*
X106Y132D01*
X108Y132D02*
X122Y132D01*
X55Y131D02*
X67Y131D01*
X72Y131D02*
X73Y131D01*
X104Y131D02*
X104Y131D01*
X110Y131D02*
X122Y131D01*
X56Y130D02*
X66Y130D01*
X111Y130D02*
X121Y130D01*
X57Y129D02*
X64Y129D01*
X113Y129D02*
X120Y129D01*
X58Y128D02*
X63Y128D01*
X114Y128D02*
X119Y128D01*
X59Y127D02*
X61Y127D01*
X115Y127D02*
X118Y127D01*
X60Y126D02*
X60Y126D01*
X117Y126D02*
X117Y126D01*
X69Y118D02*
X69Y118D01*
X101Y118D02*
X101Y118D01*
X69Y117D02*
X69Y117D01*
X101Y117D02*
X101Y117D01*
X69Y116D02*
X69Y116D01*
X101Y116D02*
X101Y116D01*
X113Y116D02*
X114Y116D01*
X122Y116D02*
X124Y116D01*
X132Y116D02*
X133Y116D01*
X141Y116D02*
X142Y116D01*
X34Y115D02*
X37Y115D01*
X43Y115D02*
X46Y115D01*
X52Y115D02*
X55Y115D01*
X59Y115D02*
X59Y115D01*
X62Y115D02*
X63Y115D01*
X66Y115D02*
X66Y115D01*
X69Y115D02*
X73Y115D01*
X79Y115D02*
X82Y115D01*
X88Y115D02*
X91Y115D01*
X97Y115D02*
X101Y115D01*
X111Y115D02*
X116Y115D01*
X121Y115D02*
X125Y115D01*
X130Y115D02*
X134Y115D01*
X140Y115D02*
X144Y115D01*
X33Y114D02*
X34Y114D01*
X37Y114D02*
X38Y114D01*
X42Y114D02*
X43Y114D01*
X46Y114D02*
X47Y114D01*
X51Y114D02*
X52Y114D01*
X55Y114D02*
X56Y114D01*
X59Y114D02*
X59Y114D01*
X62Y114D02*
X63Y114D01*
X66Y114D02*
X66Y114D01*
X69Y114D02*
X70Y114D01*
X73Y114D02*
X74Y114D01*
X78Y114D02*
X79Y114D01*
X82Y114D02*
X83Y114D01*
X87Y114D02*
X88Y114D01*
X91Y114D02*
X92Y114D01*
X96Y114D02*
X97Y114D01*
X100Y114D02*
X101Y114D01*
X111Y114D02*
X112Y114D01*
X115Y114D02*
X116Y114D01*
X120Y114D02*
X122Y114D01*
X124Y114D02*
X126Y114D01*
X129Y114D02*
X131Y114D01*
X134Y114D02*
X135Y114D01*
X139Y114D02*
X140Y114D01*
X143Y114D02*
X145Y114D01*
X33Y113D02*
X34Y113D01*
X38Y113D02*
X39Y113D01*
X42Y113D02*
X42Y113D01*
X47Y113D02*
X48Y113D01*
X51Y113D02*
X51Y113D01*
X56Y113D02*
X56Y113D01*
X59Y113D02*
X59Y113D01*
X62Y113D02*
X63Y113D01*
X66Y113D02*
X66Y113D01*
X69Y113D02*
X69Y113D01*
X74Y113D02*
X74Y113D01*
X78Y113D02*
X78Y113D01*
X83Y113D02*
X83Y113D01*
X87Y113D02*
X87Y113D01*
X92Y113D02*
X92Y113D01*
X96Y113D02*
X96Y113D01*
X101Y113D02*
X101Y113D01*
X110Y113D02*
X111Y113D01*
X116Y113D02*
X117Y113D01*
X120Y113D02*
X121Y113D01*
X125Y113D02*
X126Y113D01*
X129Y113D02*
X130Y113D01*
X134Y113D02*
X135Y113D01*
X139Y113D02*
X140Y113D01*
X144Y113D02*
X145Y113D01*
X33Y112D02*
X34Y112D01*
X38Y112D02*
X39Y112D01*
X47Y112D02*
X48Y112D01*
X51Y112D02*
X52Y112D01*
X59Y112D02*
X59Y112D01*
X62Y112D02*
X63Y112D01*
X66Y112D02*
X66Y112D01*
X69Y112D02*
X69Y112D01*
X74Y112D02*
X74Y112D01*
X78Y112D02*
X78Y112D01*
X83Y112D02*
X83Y112D01*
X86Y112D02*
X88Y112D01*
X92Y112D02*
X92Y112D01*
X95Y112D02*
X96Y112D01*
X101Y112D02*
X101Y112D01*
X110Y112D02*
X111Y112D01*
X116Y112D02*
X117Y112D01*
X120Y112D02*
X123Y112D01*
X125Y112D02*
X126Y112D01*
X129Y112D02*
X130Y112D01*
X134Y112D02*
X135Y112D01*
X139Y112D02*
X140Y112D01*
X144Y112D02*
X145Y112D01*
X34Y111D02*
X39Y111D01*
X47Y111D02*
X48Y111D01*
X51Y111D02*
X54Y111D01*
X59Y111D02*
X59Y111D01*
X62Y111D02*
X63Y111D01*
X66Y111D02*
X66Y111D01*
X69Y111D02*
X69Y111D01*
X74Y111D02*
X74Y111D01*
X83Y111D02*
X83Y111D01*
X86Y111D02*
X90Y111D01*
X95Y111D02*
X96Y111D01*
X101Y111D02*
X101Y111D01*
X110Y111D02*
X111Y111D01*
X116Y111D02*
X117Y111D01*
X121Y111D02*
X126Y111D01*
X129Y111D02*
X130Y111D01*
X134Y111D02*
X135Y111D01*
X139Y111D02*
X140Y111D01*
X144Y111D02*
X145Y111D01*
X36Y110D02*
X39Y110D01*
X47Y110D02*
X48Y110D01*
X51Y110D02*
X51Y110D01*
X54Y110D02*
X56Y110D01*
X59Y110D02*
X59Y110D01*
X62Y110D02*
X63Y110D01*
X66Y110D02*
X66Y110D01*
X69Y110D02*
X69Y110D01*
X74Y110D02*
X74Y110D01*
X83Y110D02*
X83Y110D01*
X86Y110D02*
X87Y110D01*
X90Y110D02*
X92Y110D01*
X95Y110D02*
X96Y110D01*
X101Y110D02*
X101Y110D01*
X110Y110D02*
X111Y110D01*
X116Y110D02*
X117Y110D01*
X120Y110D02*
X120Y110D01*
X123Y110D02*
X126Y110D01*
X129Y110D02*
X130Y110D01*
X134Y110D02*
X135Y110D01*
X139Y110D02*
X140Y110D01*
X144Y110D02*
X145Y110D01*
X33Y109D02*
X33Y109D01*
X38Y109D02*
X39Y109D01*
X47Y109D02*
X48Y109D01*
X51Y109D02*
X51Y109D01*
X56Y109D02*
X57Y109D01*
X59Y109D02*
X59Y109D01*
X62Y109D02*
X63Y109D01*
X66Y109D02*
X66Y109D01*
X69Y109D02*
X69Y109D01*
X74Y109D02*
X74Y109D01*
X83Y109D02*
X83Y109D01*
X86Y109D02*
X87Y109D01*
X91Y109D02*
X92Y109D01*
X95Y109D02*
X96Y109D01*
X101Y109D02*
X101Y109D01*
X110Y109D02*
X111Y109D01*
X116Y109D02*
X117Y109D01*
X120Y109D02*
X121Y109D01*
X125Y109D02*
X126Y109D01*
X129Y109D02*
X130Y109D01*
X134Y109D02*
X135Y109D01*
X139Y109D02*
X140Y109D01*
X144Y109D02*
X145Y109D01*
X33Y108D02*
X34Y108D01*
X38Y108D02*
X38Y108D01*
X47Y108D02*
X48Y108D01*
X51Y108D02*
X51Y108D01*
X56Y108D02*
X57Y108D01*
X59Y108D02*
X59Y108D01*
X62Y108D02*
X63Y108D01*
X66Y108D02*
X66Y108D01*
X69Y108D02*
X69Y108D01*
X74Y108D02*
X74Y108D01*
X83Y108D02*
X83Y108D01*
X86Y108D02*
X87Y108D01*
X92Y108D02*
X92Y108D01*
X95Y108D02*
X96Y108D01*
X101Y108D02*
X101Y108D01*
X110Y108D02*
X111Y108D01*
X116Y108D02*
X117Y108D01*
X120Y108D02*
X122Y108D01*
X124Y108D02*
X126Y108D01*
X129Y108D02*
X131Y108D01*
X134Y108D02*
X135Y108D01*
X139Y108D02*
X140Y108D01*
X143Y108D02*
X145Y108D01*
X34Y107D02*
X38Y107D01*
X47Y107D02*
X48Y107D01*
X51Y107D02*
X51Y107D01*
X53Y107D02*
X56Y107D01*
X59Y107D02*
X66Y107D01*
X69Y107D02*
X74Y107D01*
X83Y107D02*
X83Y107D01*
X86Y107D02*
X87Y107D01*
X89Y107D02*
X92Y107D01*
X95Y107D02*
X96Y107D01*
X101Y107D02*
X101Y107D01*
X110Y107D02*
X111Y107D01*
X116Y107D02*
X117Y107D01*
X121Y107D02*
X125Y107D01*
X130Y107D02*
X135Y107D01*
X140Y107D02*
X144Y107D01*
X35Y106D02*
X37Y106D01*
X53Y106D02*
X55Y106D01*
X60Y106D02*
X61Y106D01*
X64Y106D02*
X65Y106D01*
X71Y106D02*
X72Y106D01*
X87Y106D02*
X87Y106D01*
X89Y106D02*
X90Y106D01*
X96Y106D02*
X96Y106D01*
X101Y106D02*
X101Y106D01*
X111Y106D02*
X111Y106D01*
X117Y106D02*
X117Y106D01*
X122Y106D02*
X124Y106D01*
X132Y106D02*
X135Y106D01*
X141Y106D02*
X142Y106D01*
X134Y105D02*
X135Y105D01*
X134Y104D02*
X135Y104D01*
X135Y103D02*
X136Y103D01*
D02*
G04 End of Silk0*
M02*