G04 MADE WITH FRITZING*
G04 WWW.FRITZING.ORG*
G04 DOUBLE SIDED*
G04 HOLES PLATED*
G04 CONTOUR ON CENTER OF CONTOUR VECTOR*
%ASAXBY*%
%FSLAX23Y23*%
%MOIN*%
%OFA0B0*%
%SFA1.0B1.0*%
%ADD10C,0.010000*%
%ADD11R,0.001000X0.001000*%
%LNSILK1*%
G90*
G70*
G54D10*
X178Y128D02*
X478Y128D01*
D02*
X478Y128D02*
X478Y228D01*
D02*
X478Y228D02*
X178Y228D01*
D02*
X178Y228D02*
X178Y128D01*
D02*
X176Y244D02*
X476Y244D01*
D02*
X476Y244D02*
X476Y344D01*
D02*
X476Y344D02*
X176Y344D01*
D02*
X176Y344D02*
X176Y244D01*
D02*
X518Y336D02*
X518Y136D01*
D02*
X518Y136D02*
X618Y136D01*
D02*
X618Y136D02*
X618Y336D01*
D02*
X618Y336D02*
X518Y336D01*
G54D11*
X0Y457D02*
X652Y457D01*
X0Y456D02*
X652Y456D01*
X0Y455D02*
X652Y455D01*
X0Y454D02*
X652Y454D01*
X0Y453D02*
X652Y453D01*
X0Y452D02*
X652Y452D01*
X0Y451D02*
X652Y451D01*
X0Y450D02*
X652Y450D01*
X0Y449D02*
X7Y449D01*
X645Y449D02*
X652Y449D01*
X0Y448D02*
X7Y448D01*
X645Y448D02*
X652Y448D01*
X0Y447D02*
X7Y447D01*
X645Y447D02*
X652Y447D01*
X0Y446D02*
X7Y446D01*
X645Y446D02*
X652Y446D01*
X0Y445D02*
X7Y445D01*
X645Y445D02*
X652Y445D01*
X0Y444D02*
X7Y444D01*
X645Y444D02*
X652Y444D01*
X0Y443D02*
X7Y443D01*
X26Y443D02*
X32Y443D01*
X42Y443D02*
X52Y443D01*
X58Y443D02*
X67Y443D01*
X87Y443D02*
X92Y443D01*
X103Y443D02*
X112Y443D01*
X136Y443D02*
X141Y443D01*
X152Y443D02*
X161Y443D01*
X186Y443D02*
X191Y443D01*
X202Y443D02*
X207Y443D01*
X236Y443D02*
X240Y443D01*
X253Y443D02*
X259Y443D01*
X293Y443D02*
X302Y443D01*
X347Y443D02*
X350Y443D01*
X393Y443D02*
X403Y443D01*
X444Y443D02*
X445Y443D01*
X495Y443D02*
X502Y443D01*
X532Y443D02*
X536Y443D01*
X543Y443D02*
X545Y443D01*
X552Y443D02*
X552Y443D01*
X559Y443D02*
X564Y443D01*
X583Y443D02*
X583Y443D01*
X599Y443D02*
X608Y443D01*
X615Y443D02*
X616Y443D01*
X624Y443D02*
X624Y443D01*
X645Y443D02*
X652Y443D01*
X0Y442D02*
X7Y442D01*
X27Y442D02*
X33Y442D01*
X42Y442D02*
X52Y442D01*
X58Y442D02*
X68Y442D01*
X86Y442D02*
X92Y442D01*
X103Y442D02*
X112Y442D01*
X136Y442D02*
X141Y442D01*
X152Y442D02*
X162Y442D01*
X186Y442D02*
X191Y442D01*
X202Y442D02*
X207Y442D01*
X235Y442D02*
X241Y442D01*
X252Y442D02*
X261Y442D01*
X292Y442D02*
X302Y442D01*
X346Y442D02*
X351Y442D01*
X393Y442D02*
X403Y442D01*
X443Y442D02*
X446Y442D01*
X495Y442D02*
X503Y442D01*
X530Y442D02*
X536Y442D01*
X543Y442D02*
X545Y442D01*
X551Y442D02*
X553Y442D01*
X559Y442D02*
X566Y442D01*
X582Y442D02*
X583Y442D01*
X591Y442D02*
X592Y442D01*
X598Y442D02*
X608Y442D01*
X615Y442D02*
X617Y442D01*
X623Y442D02*
X625Y442D01*
X645Y442D02*
X652Y442D01*
X0Y441D02*
X7Y441D01*
X28Y441D02*
X30Y441D01*
X32Y441D02*
X34Y441D01*
X42Y441D02*
X44Y441D01*
X47Y441D02*
X48Y441D01*
X51Y441D02*
X52Y441D01*
X58Y441D02*
X60Y441D01*
X67Y441D02*
X69Y441D01*
X90Y441D02*
X92Y441D01*
X111Y441D02*
X113Y441D01*
X140Y441D02*
X141Y441D01*
X160Y441D02*
X162Y441D01*
X190Y441D02*
X191Y441D01*
X206Y441D02*
X207Y441D01*
X236Y441D02*
X241Y441D01*
X251Y441D02*
X261Y441D01*
X292Y441D02*
X294Y441D01*
X301Y441D02*
X302Y441D01*
X345Y441D02*
X351Y441D01*
X393Y441D02*
X394Y441D01*
X401Y441D02*
X403Y441D01*
X443Y441D02*
X445Y441D01*
X495Y441D02*
X496Y441D01*
X530Y441D02*
X532Y441D01*
X543Y441D02*
X546Y441D01*
X551Y441D02*
X553Y441D01*
X561Y441D02*
X566Y441D01*
X582Y441D02*
X583Y441D01*
X591Y441D02*
X592Y441D01*
X599Y441D02*
X608Y441D01*
X615Y441D02*
X617Y441D01*
X623Y441D02*
X625Y441D01*
X645Y441D02*
X652Y441D01*
X0Y440D02*
X7Y440D01*
X28Y440D02*
X30Y440D01*
X33Y440D02*
X34Y440D01*
X43Y440D02*
X43Y440D01*
X47Y440D02*
X48Y440D01*
X52Y440D02*
X52Y440D01*
X58Y440D02*
X60Y440D01*
X67Y440D02*
X69Y440D01*
X91Y440D02*
X92Y440D01*
X111Y440D02*
X113Y440D01*
X140Y440D02*
X141Y440D01*
X161Y440D02*
X162Y440D01*
X190Y440D02*
X191Y440D01*
X206Y440D02*
X207Y440D01*
X239Y440D02*
X241Y440D01*
X251Y440D02*
X252Y440D01*
X260Y440D02*
X261Y440D01*
X292Y440D02*
X293Y440D01*
X301Y440D02*
X302Y440D01*
X345Y440D02*
X347Y440D01*
X350Y440D02*
X351Y440D01*
X402Y440D02*
X403Y440D01*
X443Y440D02*
X445Y440D01*
X495Y440D02*
X496Y440D01*
X529Y440D02*
X531Y440D01*
X543Y440D02*
X546Y440D01*
X551Y440D02*
X553Y440D01*
X561Y440D02*
X562Y440D01*
X565Y440D02*
X567Y440D01*
X582Y440D02*
X583Y440D01*
X591Y440D02*
X592Y440D01*
X603Y440D02*
X604Y440D01*
X615Y440D02*
X618Y440D01*
X623Y440D02*
X625Y440D01*
X645Y440D02*
X652Y440D01*
X0Y439D02*
X7Y439D01*
X28Y439D02*
X30Y439D01*
X33Y439D02*
X35Y439D01*
X47Y439D02*
X48Y439D01*
X58Y439D02*
X60Y439D01*
X67Y439D02*
X69Y439D01*
X91Y439D02*
X92Y439D01*
X111Y439D02*
X113Y439D01*
X140Y439D02*
X141Y439D01*
X161Y439D02*
X162Y439D01*
X190Y439D02*
X191Y439D01*
X206Y439D02*
X207Y439D01*
X239Y439D02*
X241Y439D01*
X251Y439D02*
X252Y439D01*
X260Y439D02*
X261Y439D01*
X292Y439D02*
X293Y439D01*
X301Y439D02*
X302Y439D01*
X345Y439D02*
X347Y439D01*
X350Y439D02*
X351Y439D01*
X402Y439D02*
X403Y439D01*
X443Y439D02*
X445Y439D01*
X495Y439D02*
X496Y439D01*
X528Y439D02*
X530Y439D01*
X543Y439D02*
X546Y439D01*
X551Y439D02*
X553Y439D01*
X561Y439D02*
X562Y439D01*
X566Y439D02*
X567Y439D01*
X582Y439D02*
X583Y439D01*
X591Y439D02*
X592Y439D01*
X603Y439D02*
X604Y439D01*
X615Y439D02*
X618Y439D01*
X623Y439D02*
X625Y439D01*
X645Y439D02*
X652Y439D01*
X0Y438D02*
X7Y438D01*
X28Y438D02*
X30Y438D01*
X34Y438D02*
X35Y438D01*
X47Y438D02*
X48Y438D01*
X58Y438D02*
X68Y438D01*
X91Y438D02*
X92Y438D01*
X111Y438D02*
X113Y438D01*
X140Y438D02*
X141Y438D01*
X161Y438D02*
X162Y438D01*
X190Y438D02*
X191Y438D01*
X206Y438D02*
X207Y438D01*
X239Y438D02*
X241Y438D01*
X251Y438D02*
X252Y438D01*
X260Y438D02*
X261Y438D01*
X292Y438D02*
X293Y438D01*
X301Y438D02*
X302Y438D01*
X345Y438D02*
X347Y438D01*
X350Y438D02*
X351Y438D01*
X402Y438D02*
X403Y438D01*
X443Y438D02*
X445Y438D01*
X495Y438D02*
X496Y438D01*
X527Y438D02*
X529Y438D01*
X543Y438D02*
X547Y438D01*
X551Y438D02*
X553Y438D01*
X561Y438D02*
X562Y438D01*
X566Y438D02*
X568Y438D01*
X582Y438D02*
X584Y438D01*
X591Y438D02*
X592Y438D01*
X603Y438D02*
X604Y438D01*
X615Y438D02*
X619Y438D01*
X623Y438D02*
X625Y438D01*
X645Y438D02*
X652Y438D01*
X0Y437D02*
X7Y437D01*
X28Y437D02*
X30Y437D01*
X34Y437D02*
X36Y437D01*
X47Y437D02*
X48Y437D01*
X58Y437D02*
X68Y437D01*
X91Y437D02*
X92Y437D01*
X111Y437D02*
X113Y437D01*
X140Y437D02*
X141Y437D01*
X161Y437D02*
X162Y437D01*
X176Y437D02*
X178Y437D01*
X190Y437D02*
X191Y437D01*
X206Y437D02*
X207Y437D01*
X239Y437D02*
X241Y437D01*
X251Y437D02*
X252Y437D01*
X260Y437D02*
X261Y437D01*
X280Y437D02*
X282Y437D01*
X292Y437D02*
X302Y437D01*
X345Y437D02*
X347Y437D01*
X350Y437D02*
X351Y437D01*
X401Y437D02*
X403Y437D01*
X443Y437D02*
X445Y437D01*
X495Y437D02*
X496Y437D01*
X527Y437D02*
X528Y437D01*
X543Y437D02*
X544Y437D01*
X546Y437D02*
X547Y437D01*
X551Y437D02*
X553Y437D01*
X561Y437D02*
X562Y437D01*
X567Y437D02*
X568Y437D01*
X583Y437D02*
X584Y437D01*
X591Y437D02*
X592Y437D01*
X603Y437D02*
X604Y437D01*
X615Y437D02*
X616Y437D01*
X618Y437D02*
X619Y437D01*
X623Y437D02*
X625Y437D01*
X645Y437D02*
X652Y437D01*
X0Y436D02*
X7Y436D01*
X28Y436D02*
X30Y436D01*
X35Y436D02*
X36Y436D01*
X47Y436D02*
X48Y436D01*
X58Y436D02*
X66Y436D01*
X91Y436D02*
X92Y436D01*
X111Y436D02*
X113Y436D01*
X140Y436D02*
X141Y436D01*
X161Y436D02*
X162Y436D01*
X174Y436D02*
X181Y436D01*
X183Y436D02*
X184Y436D01*
X190Y436D02*
X191Y436D01*
X206Y436D02*
X207Y436D01*
X226Y436D02*
X229Y436D01*
X239Y436D02*
X241Y436D01*
X251Y436D02*
X252Y436D01*
X260Y436D02*
X261Y436D01*
X278Y436D02*
X285Y436D01*
X287Y436D02*
X288Y436D01*
X292Y436D02*
X302Y436D01*
X345Y436D02*
X347Y436D01*
X350Y436D02*
X351Y436D01*
X400Y436D02*
X402Y436D01*
X429Y436D02*
X434Y436D01*
X439Y436D02*
X439Y436D01*
X443Y436D02*
X445Y436D01*
X480Y436D02*
X485Y436D01*
X489Y436D02*
X490Y436D01*
X495Y436D02*
X496Y436D01*
X527Y436D02*
X528Y436D01*
X543Y436D02*
X544Y436D01*
X546Y436D02*
X548Y436D01*
X551Y436D02*
X553Y436D01*
X561Y436D02*
X562Y436D01*
X567Y436D02*
X569Y436D01*
X583Y436D02*
X584Y436D01*
X590Y436D02*
X592Y436D01*
X603Y436D02*
X604Y436D01*
X615Y436D02*
X616Y436D01*
X618Y436D02*
X620Y436D01*
X623Y436D02*
X625Y436D01*
X645Y436D02*
X652Y436D01*
X0Y435D02*
X7Y435D01*
X28Y435D02*
X30Y435D01*
X35Y435D02*
X36Y435D01*
X47Y435D02*
X48Y435D01*
X58Y435D02*
X60Y435D01*
X63Y435D02*
X64Y435D01*
X91Y435D02*
X92Y435D01*
X105Y435D02*
X112Y435D01*
X140Y435D02*
X141Y435D01*
X153Y435D02*
X162Y435D01*
X174Y435D02*
X175Y435D01*
X178Y435D02*
X184Y435D01*
X190Y435D02*
X191Y435D01*
X206Y435D02*
X207Y435D01*
X225Y435D02*
X235Y435D01*
X239Y435D02*
X241Y435D01*
X251Y435D02*
X252Y435D01*
X260Y435D02*
X261Y435D01*
X278Y435D02*
X279Y435D01*
X282Y435D02*
X288Y435D01*
X301Y435D02*
X302Y435D01*
X344Y435D02*
X352Y435D01*
X399Y435D02*
X401Y435D01*
X429Y435D02*
X439Y435D01*
X443Y435D02*
X445Y435D01*
X480Y435D02*
X490Y435D01*
X495Y435D02*
X502Y435D01*
X526Y435D02*
X528Y435D01*
X543Y435D02*
X544Y435D01*
X547Y435D02*
X548Y435D01*
X551Y435D02*
X553Y435D01*
X561Y435D02*
X562Y435D01*
X568Y435D02*
X569Y435D01*
X583Y435D02*
X585Y435D01*
X590Y435D02*
X591Y435D01*
X603Y435D02*
X604Y435D01*
X615Y435D02*
X616Y435D01*
X619Y435D02*
X620Y435D01*
X623Y435D02*
X625Y435D01*
X645Y435D02*
X652Y435D01*
X0Y434D02*
X7Y434D01*
X28Y434D02*
X30Y434D01*
X35Y434D02*
X36Y434D01*
X47Y434D02*
X48Y434D01*
X58Y434D02*
X60Y434D01*
X63Y434D02*
X65Y434D01*
X91Y434D02*
X92Y434D01*
X105Y434D02*
X112Y434D01*
X140Y434D02*
X141Y434D01*
X152Y434D02*
X161Y434D01*
X181Y434D02*
X183Y434D01*
X190Y434D02*
X191Y434D01*
X206Y434D02*
X207Y434D01*
X224Y434D02*
X225Y434D01*
X229Y434D02*
X234Y434D01*
X239Y434D02*
X241Y434D01*
X251Y434D02*
X252Y434D01*
X260Y434D02*
X261Y434D01*
X285Y434D02*
X286Y434D01*
X301Y434D02*
X302Y434D01*
X343Y434D02*
X353Y434D01*
X398Y434D02*
X400Y434D01*
X429Y434D02*
X429Y434D01*
X435Y434D02*
X438Y434D01*
X443Y434D02*
X445Y434D01*
X485Y434D02*
X489Y434D01*
X495Y434D02*
X503Y434D01*
X526Y434D02*
X528Y434D01*
X543Y434D02*
X544Y434D01*
X547Y434D02*
X549Y434D01*
X551Y434D02*
X553Y434D01*
X561Y434D02*
X562Y434D01*
X567Y434D02*
X569Y434D01*
X584Y434D02*
X585Y434D01*
X589Y434D02*
X591Y434D01*
X603Y434D02*
X604Y434D01*
X615Y434D02*
X616Y434D01*
X619Y434D02*
X621Y434D01*
X623Y434D02*
X625Y434D01*
X645Y434D02*
X652Y434D01*
X0Y433D02*
X7Y433D01*
X28Y433D02*
X30Y433D01*
X34Y433D02*
X36Y433D01*
X47Y433D02*
X48Y433D01*
X58Y433D02*
X60Y433D01*
X64Y433D02*
X66Y433D01*
X91Y433D02*
X92Y433D01*
X95Y433D02*
X96Y433D01*
X111Y433D02*
X113Y433D01*
X140Y433D02*
X141Y433D01*
X145Y433D02*
X146Y433D01*
X152Y433D02*
X153Y433D01*
X190Y433D02*
X191Y433D01*
X194Y433D02*
X196Y433D01*
X206Y433D02*
X207Y433D01*
X211Y433D02*
X212Y433D01*
X232Y433D02*
X232Y433D01*
X239Y433D02*
X241Y433D01*
X244Y433D02*
X245Y433D01*
X251Y433D02*
X252Y433D01*
X260Y433D02*
X261Y433D01*
X301Y433D02*
X302Y433D01*
X343Y433D02*
X345Y433D01*
X352Y433D02*
X353Y433D01*
X397Y433D02*
X399Y433D01*
X443Y433D02*
X453Y433D01*
X501Y433D02*
X503Y433D01*
X526Y433D02*
X528Y433D01*
X532Y433D02*
X537Y433D01*
X543Y433D02*
X544Y433D01*
X548Y433D02*
X549Y433D01*
X551Y433D02*
X553Y433D01*
X561Y433D02*
X562Y433D01*
X567Y433D02*
X569Y433D01*
X584Y433D02*
X586Y433D01*
X589Y433D02*
X590Y433D01*
X603Y433D02*
X604Y433D01*
X615Y433D02*
X616Y433D01*
X619Y433D02*
X621Y433D01*
X623Y433D02*
X625Y433D01*
X645Y433D02*
X652Y433D01*
X0Y432D02*
X7Y432D01*
X28Y432D02*
X30Y432D01*
X34Y432D02*
X35Y432D01*
X47Y432D02*
X48Y432D01*
X58Y432D02*
X60Y432D01*
X65Y432D02*
X66Y432D01*
X91Y432D02*
X92Y432D01*
X95Y432D02*
X97Y432D01*
X111Y432D02*
X113Y432D01*
X140Y432D02*
X141Y432D01*
X145Y432D02*
X146Y432D01*
X152Y432D02*
X153Y432D01*
X190Y432D02*
X191Y432D01*
X194Y432D02*
X196Y432D01*
X206Y432D02*
X207Y432D01*
X211Y432D02*
X212Y432D01*
X239Y432D02*
X241Y432D01*
X244Y432D02*
X245Y432D01*
X251Y432D02*
X252Y432D01*
X260Y432D02*
X261Y432D01*
X301Y432D02*
X302Y432D01*
X343Y432D02*
X344Y432D01*
X352Y432D02*
X353Y432D01*
X397Y432D02*
X398Y432D01*
X443Y432D02*
X454Y432D01*
X501Y432D02*
X503Y432D01*
X526Y432D02*
X528Y432D01*
X532Y432D02*
X537Y432D01*
X543Y432D02*
X544Y432D01*
X548Y432D02*
X553Y432D01*
X561Y432D02*
X562Y432D01*
X567Y432D02*
X568Y432D01*
X584Y432D02*
X586Y432D01*
X589Y432D02*
X590Y432D01*
X603Y432D02*
X604Y432D01*
X615Y432D02*
X616Y432D01*
X620Y432D02*
X621Y432D01*
X623Y432D02*
X625Y432D01*
X645Y432D02*
X652Y432D01*
X0Y431D02*
X7Y431D01*
X28Y431D02*
X30Y431D01*
X33Y431D02*
X35Y431D01*
X47Y431D02*
X48Y431D01*
X58Y431D02*
X60Y431D01*
X65Y431D02*
X67Y431D01*
X91Y431D02*
X92Y431D01*
X95Y431D02*
X97Y431D01*
X111Y431D02*
X113Y431D01*
X140Y431D02*
X141Y431D01*
X145Y431D02*
X146Y431D01*
X152Y431D02*
X153Y431D01*
X190Y431D02*
X191Y431D01*
X194Y431D02*
X196Y431D01*
X206Y431D02*
X207Y431D01*
X211Y431D02*
X212Y431D01*
X239Y431D02*
X241Y431D01*
X244Y431D02*
X245Y431D01*
X251Y431D02*
X252Y431D01*
X260Y431D02*
X261Y431D01*
X301Y431D02*
X302Y431D01*
X343Y431D02*
X344Y431D01*
X352Y431D02*
X353Y431D01*
X397Y431D02*
X398Y431D01*
X443Y431D02*
X445Y431D01*
X452Y431D02*
X454Y431D01*
X501Y431D02*
X503Y431D01*
X526Y431D02*
X528Y431D01*
X535Y431D02*
X537Y431D01*
X543Y431D02*
X544Y431D01*
X548Y431D02*
X553Y431D01*
X561Y431D02*
X562Y431D01*
X566Y431D02*
X568Y431D01*
X585Y431D02*
X586Y431D01*
X588Y431D02*
X590Y431D01*
X603Y431D02*
X604Y431D01*
X615Y431D02*
X616Y431D01*
X620Y431D02*
X625Y431D01*
X645Y431D02*
X652Y431D01*
X0Y430D02*
X7Y430D01*
X28Y430D02*
X30Y430D01*
X33Y430D02*
X34Y430D01*
X47Y430D02*
X48Y430D01*
X58Y430D02*
X60Y430D01*
X66Y430D02*
X67Y430D01*
X91Y430D02*
X92Y430D01*
X95Y430D02*
X97Y430D01*
X111Y430D02*
X113Y430D01*
X140Y430D02*
X141Y430D01*
X145Y430D02*
X146Y430D01*
X152Y430D02*
X153Y430D01*
X190Y430D02*
X191Y430D01*
X194Y430D02*
X196Y430D01*
X206Y430D02*
X207Y430D01*
X211Y430D02*
X212Y430D01*
X239Y430D02*
X241Y430D01*
X244Y430D02*
X245Y430D01*
X251Y430D02*
X252Y430D01*
X260Y430D02*
X261Y430D01*
X301Y430D02*
X302Y430D01*
X343Y430D02*
X344Y430D01*
X352Y430D02*
X353Y430D01*
X397Y430D02*
X398Y430D01*
X443Y430D02*
X445Y430D01*
X452Y430D02*
X454Y430D01*
X501Y430D02*
X503Y430D01*
X526Y430D02*
X528Y430D01*
X535Y430D02*
X537Y430D01*
X543Y430D02*
X544Y430D01*
X549Y430D02*
X553Y430D01*
X561Y430D02*
X562Y430D01*
X566Y430D02*
X567Y430D01*
X585Y430D02*
X589Y430D01*
X603Y430D02*
X604Y430D01*
X615Y430D02*
X616Y430D01*
X621Y430D02*
X625Y430D01*
X645Y430D02*
X652Y430D01*
X0Y429D02*
X7Y429D01*
X28Y429D02*
X30Y429D01*
X32Y429D02*
X34Y429D01*
X47Y429D02*
X48Y429D01*
X58Y429D02*
X60Y429D01*
X66Y429D02*
X68Y429D01*
X91Y429D02*
X92Y429D01*
X95Y429D02*
X97Y429D01*
X111Y429D02*
X113Y429D01*
X140Y429D02*
X141Y429D01*
X145Y429D02*
X146Y429D01*
X152Y429D02*
X153Y429D01*
X190Y429D02*
X191Y429D01*
X194Y429D02*
X196Y429D01*
X206Y429D02*
X207Y429D01*
X211Y429D02*
X212Y429D01*
X239Y429D02*
X241Y429D01*
X244Y429D02*
X245Y429D01*
X251Y429D02*
X252Y429D01*
X260Y429D02*
X261Y429D01*
X301Y429D02*
X302Y429D01*
X343Y429D02*
X344Y429D01*
X352Y429D02*
X353Y429D01*
X397Y429D02*
X398Y429D01*
X443Y429D02*
X445Y429D01*
X452Y429D02*
X454Y429D01*
X501Y429D02*
X503Y429D01*
X526Y429D02*
X528Y429D01*
X535Y429D02*
X537Y429D01*
X543Y429D02*
X544Y429D01*
X549Y429D02*
X553Y429D01*
X561Y429D02*
X562Y429D01*
X565Y429D02*
X567Y429D01*
X586Y429D02*
X589Y429D01*
X603Y429D02*
X604Y429D01*
X615Y429D02*
X616Y429D01*
X621Y429D02*
X625Y429D01*
X645Y429D02*
X652Y429D01*
X0Y428D02*
X7Y428D01*
X26Y428D02*
X33Y428D01*
X47Y428D02*
X48Y428D01*
X58Y428D02*
X60Y428D01*
X67Y428D02*
X68Y428D01*
X87Y428D02*
X97Y428D01*
X103Y428D02*
X113Y428D01*
X137Y428D02*
X146Y428D01*
X152Y428D02*
X161Y428D01*
X186Y428D02*
X196Y428D01*
X202Y428D02*
X212Y428D01*
X239Y428D02*
X241Y428D01*
X244Y428D02*
X245Y428D01*
X251Y428D02*
X253Y428D01*
X260Y428D02*
X261Y428D01*
X301Y428D02*
X302Y428D01*
X343Y428D02*
X345Y428D01*
X352Y428D02*
X353Y428D01*
X397Y428D02*
X398Y428D01*
X443Y428D02*
X454Y428D01*
X493Y428D02*
X503Y428D01*
X527Y428D02*
X536Y428D01*
X543Y428D02*
X544Y428D01*
X550Y428D02*
X553Y428D01*
X560Y428D02*
X566Y428D01*
X586Y428D02*
X588Y428D01*
X602Y428D02*
X604Y428D01*
X615Y428D02*
X616Y428D01*
X622Y428D02*
X625Y428D01*
X645Y428D02*
X652Y428D01*
X0Y427D02*
X7Y427D01*
X26Y427D02*
X32Y427D01*
X47Y427D02*
X48Y427D01*
X59Y427D02*
X59Y427D01*
X67Y427D02*
X68Y427D01*
X86Y427D02*
X96Y427D01*
X103Y427D02*
X112Y427D01*
X136Y427D02*
X146Y427D01*
X152Y427D02*
X162Y427D01*
X186Y427D02*
X196Y427D01*
X202Y427D02*
X212Y427D01*
X235Y427D02*
X245Y427D01*
X251Y427D02*
X261Y427D01*
X300Y427D02*
X302Y427D01*
X343Y427D02*
X353Y427D01*
X397Y427D02*
X398Y427D01*
X443Y427D02*
X453Y427D01*
X493Y427D02*
X502Y427D01*
X527Y427D02*
X536Y427D01*
X543Y427D02*
X544Y427D01*
X550Y427D02*
X553Y427D01*
X559Y427D02*
X566Y427D01*
X586Y427D02*
X588Y427D01*
X598Y427D02*
X608Y427D01*
X615Y427D02*
X616Y427D01*
X622Y427D02*
X625Y427D01*
X645Y427D02*
X652Y427D01*
X0Y426D02*
X7Y426D01*
X87Y426D02*
X96Y426D01*
X103Y426D02*
X111Y426D01*
X136Y426D02*
X145Y426D01*
X152Y426D02*
X161Y426D01*
X187Y426D02*
X194Y426D01*
X203Y426D02*
X211Y426D01*
X235Y426D02*
X245Y426D01*
X252Y426D02*
X260Y426D01*
X301Y426D02*
X301Y426D01*
X344Y426D02*
X352Y426D01*
X444Y426D02*
X453Y426D01*
X495Y426D02*
X501Y426D01*
X529Y426D02*
X534Y426D01*
X543Y426D02*
X543Y426D01*
X551Y426D02*
X553Y426D01*
X559Y426D02*
X564Y426D01*
X587Y426D02*
X588Y426D01*
X599Y426D02*
X608Y426D01*
X615Y426D02*
X615Y426D01*
X623Y426D02*
X625Y426D01*
X645Y426D02*
X652Y426D01*
X0Y425D02*
X7Y425D01*
X645Y425D02*
X652Y425D01*
X0Y424D02*
X7Y424D01*
X645Y424D02*
X652Y424D01*
X0Y423D02*
X7Y423D01*
X645Y423D02*
X652Y423D01*
X0Y422D02*
X7Y422D01*
X645Y422D02*
X652Y422D01*
X0Y421D02*
X7Y421D01*
X645Y421D02*
X652Y421D01*
X0Y420D02*
X7Y420D01*
X645Y420D02*
X652Y420D01*
X0Y419D02*
X7Y419D01*
X645Y419D02*
X652Y419D01*
X0Y418D02*
X7Y418D01*
X645Y418D02*
X652Y418D01*
X0Y417D02*
X7Y417D01*
X645Y417D02*
X652Y417D01*
X0Y416D02*
X7Y416D01*
X645Y416D02*
X652Y416D01*
X0Y415D02*
X7Y415D01*
X645Y415D02*
X652Y415D01*
X0Y414D02*
X7Y414D01*
X645Y414D02*
X652Y414D01*
X0Y413D02*
X7Y413D01*
X645Y413D02*
X652Y413D01*
X0Y412D02*
X7Y412D01*
X645Y412D02*
X652Y412D01*
X0Y411D02*
X7Y411D01*
X645Y411D02*
X652Y411D01*
X0Y410D02*
X7Y410D01*
X645Y410D02*
X652Y410D01*
X0Y409D02*
X7Y409D01*
X645Y409D02*
X652Y409D01*
X0Y408D02*
X7Y408D01*
X645Y408D02*
X652Y408D01*
X0Y407D02*
X7Y407D01*
X645Y407D02*
X652Y407D01*
X0Y406D02*
X7Y406D01*
X645Y406D02*
X652Y406D01*
X0Y405D02*
X7Y405D01*
X645Y405D02*
X652Y405D01*
X0Y404D02*
X7Y404D01*
X645Y404D02*
X652Y404D01*
X0Y403D02*
X7Y403D01*
X645Y403D02*
X652Y403D01*
X0Y402D02*
X7Y402D01*
X645Y402D02*
X652Y402D01*
X0Y401D02*
X7Y401D01*
X645Y401D02*
X652Y401D01*
X0Y400D02*
X7Y400D01*
X645Y400D02*
X652Y400D01*
X0Y399D02*
X7Y399D01*
X645Y399D02*
X652Y399D01*
X0Y398D02*
X7Y398D01*
X645Y398D02*
X652Y398D01*
X0Y397D02*
X7Y397D01*
X645Y397D02*
X652Y397D01*
X0Y396D02*
X7Y396D01*
X645Y396D02*
X652Y396D01*
X0Y395D02*
X7Y395D01*
X645Y395D02*
X652Y395D01*
X0Y394D02*
X7Y394D01*
X645Y394D02*
X652Y394D01*
X0Y393D02*
X7Y393D01*
X645Y393D02*
X652Y393D01*
X0Y392D02*
X7Y392D01*
X645Y392D02*
X652Y392D01*
X0Y391D02*
X7Y391D01*
X645Y391D02*
X652Y391D01*
X0Y390D02*
X7Y390D01*
X645Y390D02*
X652Y390D01*
X0Y389D02*
X7Y389D01*
X645Y389D02*
X652Y389D01*
X0Y388D02*
X7Y388D01*
X645Y388D02*
X652Y388D01*
X0Y387D02*
X7Y387D01*
X645Y387D02*
X652Y387D01*
X0Y386D02*
X7Y386D01*
X645Y386D02*
X652Y386D01*
X0Y385D02*
X7Y385D01*
X645Y385D02*
X652Y385D01*
X0Y384D02*
X7Y384D01*
X645Y384D02*
X652Y384D01*
X0Y383D02*
X7Y383D01*
X645Y383D02*
X652Y383D01*
X0Y382D02*
X7Y382D01*
X645Y382D02*
X652Y382D01*
X0Y381D02*
X7Y381D01*
X645Y381D02*
X652Y381D01*
X0Y380D02*
X7Y380D01*
X645Y380D02*
X652Y380D01*
X0Y379D02*
X7Y379D01*
X645Y379D02*
X652Y379D01*
X0Y378D02*
X7Y378D01*
X645Y378D02*
X652Y378D01*
X0Y377D02*
X7Y377D01*
X645Y377D02*
X652Y377D01*
X0Y376D02*
X7Y376D01*
X645Y376D02*
X652Y376D01*
X0Y375D02*
X7Y375D01*
X645Y375D02*
X652Y375D01*
X0Y374D02*
X7Y374D01*
X645Y374D02*
X652Y374D01*
X0Y373D02*
X7Y373D01*
X645Y373D02*
X652Y373D01*
X0Y372D02*
X7Y372D01*
X645Y372D02*
X652Y372D01*
X0Y371D02*
X7Y371D01*
X645Y371D02*
X652Y371D01*
X0Y370D02*
X7Y370D01*
X645Y370D02*
X652Y370D01*
X0Y369D02*
X7Y369D01*
X645Y369D02*
X652Y369D01*
X0Y368D02*
X7Y368D01*
X645Y368D02*
X652Y368D01*
X0Y367D02*
X7Y367D01*
X645Y367D02*
X652Y367D01*
X0Y366D02*
X7Y366D01*
X645Y366D02*
X652Y366D01*
X0Y365D02*
X7Y365D01*
X645Y365D02*
X652Y365D01*
X0Y364D02*
X7Y364D01*
X645Y364D02*
X652Y364D01*
X0Y363D02*
X7Y363D01*
X645Y363D02*
X652Y363D01*
X0Y362D02*
X7Y362D01*
X645Y362D02*
X652Y362D01*
X0Y361D02*
X7Y361D01*
X645Y361D02*
X652Y361D01*
X0Y360D02*
X7Y360D01*
X645Y360D02*
X652Y360D01*
X0Y359D02*
X7Y359D01*
X645Y359D02*
X652Y359D01*
X0Y358D02*
X7Y358D01*
X645Y358D02*
X652Y358D01*
X0Y357D02*
X7Y357D01*
X645Y357D02*
X652Y357D01*
X0Y356D02*
X7Y356D01*
X645Y356D02*
X652Y356D01*
X0Y355D02*
X7Y355D01*
X645Y355D02*
X652Y355D01*
X0Y354D02*
X7Y354D01*
X645Y354D02*
X652Y354D01*
X0Y353D02*
X7Y353D01*
X645Y353D02*
X652Y353D01*
X0Y352D02*
X7Y352D01*
X645Y352D02*
X652Y352D01*
X0Y351D02*
X7Y351D01*
X645Y351D02*
X652Y351D01*
X0Y350D02*
X7Y350D01*
X645Y350D02*
X652Y350D01*
X0Y349D02*
X7Y349D01*
X645Y349D02*
X652Y349D01*
X0Y348D02*
X7Y348D01*
X645Y348D02*
X652Y348D01*
X0Y347D02*
X7Y347D01*
X645Y347D02*
X652Y347D01*
X0Y346D02*
X7Y346D01*
X645Y346D02*
X652Y346D01*
X0Y345D02*
X7Y345D01*
X645Y345D02*
X652Y345D01*
X0Y344D02*
X7Y344D01*
X645Y344D02*
X652Y344D01*
X0Y343D02*
X7Y343D01*
X645Y343D02*
X652Y343D01*
X0Y342D02*
X7Y342D01*
X645Y342D02*
X652Y342D01*
X0Y341D02*
X7Y341D01*
X645Y341D02*
X652Y341D01*
X0Y340D02*
X7Y340D01*
X645Y340D02*
X652Y340D01*
X0Y339D02*
X7Y339D01*
X645Y339D02*
X652Y339D01*
X0Y338D02*
X7Y338D01*
X550Y338D02*
X550Y338D01*
X645Y338D02*
X652Y338D01*
X0Y337D02*
X7Y337D01*
X549Y337D02*
X551Y337D01*
X645Y337D02*
X652Y337D01*
X0Y336D02*
X7Y336D01*
X548Y336D02*
X552Y336D01*
X645Y336D02*
X652Y336D01*
X0Y335D02*
X7Y335D01*
X547Y335D02*
X553Y335D01*
X645Y335D02*
X652Y335D01*
X0Y334D02*
X7Y334D01*
X546Y334D02*
X552Y334D01*
X645Y334D02*
X652Y334D01*
X0Y333D02*
X7Y333D01*
X545Y333D02*
X551Y333D01*
X645Y333D02*
X652Y333D01*
X0Y332D02*
X7Y332D01*
X544Y332D02*
X550Y332D01*
X645Y332D02*
X652Y332D01*
X0Y331D02*
X7Y331D01*
X543Y331D02*
X549Y331D01*
X645Y331D02*
X652Y331D01*
X0Y330D02*
X7Y330D01*
X645Y330D02*
X652Y330D01*
X0Y329D02*
X7Y329D01*
X645Y329D02*
X652Y329D01*
X0Y328D02*
X7Y328D01*
X645Y328D02*
X652Y328D01*
X0Y327D02*
X7Y327D01*
X645Y327D02*
X652Y327D01*
X0Y326D02*
X7Y326D01*
X69Y326D02*
X89Y326D01*
X115Y326D02*
X132Y326D01*
X645Y326D02*
X652Y326D01*
X0Y325D02*
X7Y325D01*
X67Y325D02*
X92Y325D01*
X114Y325D02*
X132Y325D01*
X645Y325D02*
X652Y325D01*
X0Y324D02*
X7Y324D01*
X66Y324D02*
X93Y324D01*
X113Y324D02*
X132Y324D01*
X645Y324D02*
X652Y324D01*
X0Y323D02*
X7Y323D01*
X65Y323D02*
X94Y323D01*
X113Y323D02*
X132Y323D01*
X645Y323D02*
X652Y323D01*
X0Y322D02*
X7Y322D01*
X64Y322D02*
X95Y322D01*
X113Y322D02*
X132Y322D01*
X645Y322D02*
X652Y322D01*
X0Y321D02*
X7Y321D01*
X64Y321D02*
X95Y321D01*
X113Y321D02*
X132Y321D01*
X645Y321D02*
X652Y321D01*
X0Y320D02*
X7Y320D01*
X63Y320D02*
X96Y320D01*
X114Y320D02*
X132Y320D01*
X645Y320D02*
X652Y320D01*
X0Y319D02*
X7Y319D01*
X63Y319D02*
X70Y319D01*
X89Y319D02*
X96Y319D01*
X126Y319D02*
X132Y319D01*
X645Y319D02*
X652Y319D01*
X0Y318D02*
X7Y318D01*
X63Y318D02*
X69Y318D01*
X90Y318D02*
X96Y318D01*
X126Y318D02*
X132Y318D01*
X645Y318D02*
X652Y318D01*
X0Y317D02*
X7Y317D01*
X63Y317D02*
X70Y317D01*
X91Y317D02*
X96Y317D01*
X126Y317D02*
X132Y317D01*
X645Y317D02*
X652Y317D01*
X0Y316D02*
X7Y316D01*
X64Y316D02*
X71Y316D01*
X91Y316D02*
X96Y316D01*
X126Y316D02*
X132Y316D01*
X645Y316D02*
X652Y316D01*
X0Y315D02*
X7Y315D01*
X64Y315D02*
X72Y315D01*
X91Y315D02*
X96Y315D01*
X126Y315D02*
X132Y315D01*
X645Y315D02*
X652Y315D01*
X0Y314D02*
X7Y314D01*
X65Y314D02*
X72Y314D01*
X92Y314D02*
X95Y314D01*
X126Y314D02*
X132Y314D01*
X645Y314D02*
X652Y314D01*
X0Y313D02*
X7Y313D01*
X65Y313D02*
X73Y313D01*
X126Y313D02*
X132Y313D01*
X645Y313D02*
X652Y313D01*
X0Y312D02*
X7Y312D01*
X66Y312D02*
X74Y312D01*
X126Y312D02*
X132Y312D01*
X645Y312D02*
X652Y312D01*
X0Y311D02*
X7Y311D01*
X67Y311D02*
X75Y311D01*
X126Y311D02*
X132Y311D01*
X523Y311D02*
X523Y311D01*
X645Y311D02*
X652Y311D01*
X0Y310D02*
X7Y310D01*
X68Y310D02*
X75Y310D01*
X126Y310D02*
X132Y310D01*
X522Y310D02*
X523Y310D01*
X645Y310D02*
X652Y310D01*
X0Y309D02*
X7Y309D01*
X68Y309D02*
X76Y309D01*
X126Y309D02*
X132Y309D01*
X521Y309D02*
X523Y309D01*
X645Y309D02*
X652Y309D01*
X0Y308D02*
X7Y308D01*
X69Y308D02*
X77Y308D01*
X126Y308D02*
X132Y308D01*
X520Y308D02*
X523Y308D01*
X645Y308D02*
X652Y308D01*
X0Y307D02*
X7Y307D01*
X70Y307D02*
X78Y307D01*
X126Y307D02*
X132Y307D01*
X519Y307D02*
X523Y307D01*
X645Y307D02*
X652Y307D01*
X0Y306D02*
X7Y306D01*
X71Y306D02*
X79Y306D01*
X126Y306D02*
X132Y306D01*
X518Y306D02*
X523Y306D01*
X645Y306D02*
X652Y306D01*
X0Y305D02*
X7Y305D01*
X71Y305D02*
X79Y305D01*
X126Y305D02*
X132Y305D01*
X517Y305D02*
X523Y305D01*
X645Y305D02*
X652Y305D01*
X0Y304D02*
X7Y304D01*
X72Y304D02*
X80Y304D01*
X126Y304D02*
X132Y304D01*
X516Y304D02*
X522Y304D01*
X645Y304D02*
X652Y304D01*
X0Y303D02*
X7Y303D01*
X73Y303D02*
X81Y303D01*
X126Y303D02*
X132Y303D01*
X516Y303D02*
X521Y303D01*
X631Y303D02*
X636Y303D01*
X645Y303D02*
X652Y303D01*
X0Y302D02*
X7Y302D01*
X74Y302D02*
X82Y302D01*
X126Y302D02*
X132Y302D01*
X517Y302D02*
X520Y302D01*
X630Y302D02*
X637Y302D01*
X645Y302D02*
X652Y302D01*
X0Y301D02*
X7Y301D01*
X75Y301D02*
X82Y301D01*
X126Y301D02*
X132Y301D01*
X518Y301D02*
X519Y301D01*
X630Y301D02*
X637Y301D01*
X645Y301D02*
X652Y301D01*
X0Y300D02*
X7Y300D01*
X75Y300D02*
X83Y300D01*
X126Y300D02*
X132Y300D01*
X630Y300D02*
X637Y300D01*
X645Y300D02*
X652Y300D01*
X0Y299D02*
X7Y299D01*
X76Y299D02*
X84Y299D01*
X126Y299D02*
X132Y299D01*
X630Y299D02*
X637Y299D01*
X645Y299D02*
X652Y299D01*
X0Y298D02*
X7Y298D01*
X77Y298D02*
X85Y298D01*
X126Y298D02*
X132Y298D01*
X630Y298D02*
X637Y298D01*
X645Y298D02*
X652Y298D01*
X0Y297D02*
X7Y297D01*
X78Y297D02*
X86Y297D01*
X126Y297D02*
X132Y297D01*
X143Y297D02*
X143Y297D01*
X630Y297D02*
X637Y297D01*
X645Y297D02*
X652Y297D01*
X0Y296D02*
X7Y296D01*
X78Y296D02*
X86Y296D01*
X126Y296D02*
X132Y296D01*
X141Y296D02*
X145Y296D01*
X630Y296D02*
X637Y296D01*
X645Y296D02*
X652Y296D01*
X0Y295D02*
X7Y295D01*
X79Y295D02*
X87Y295D01*
X126Y295D02*
X132Y295D01*
X140Y295D02*
X146Y295D01*
X630Y295D02*
X637Y295D01*
X645Y295D02*
X652Y295D01*
X0Y294D02*
X7Y294D01*
X80Y294D02*
X88Y294D01*
X126Y294D02*
X132Y294D01*
X140Y294D02*
X146Y294D01*
X630Y294D02*
X637Y294D01*
X645Y294D02*
X652Y294D01*
X0Y293D02*
X7Y293D01*
X81Y293D02*
X89Y293D01*
X126Y293D02*
X132Y293D01*
X140Y293D02*
X146Y293D01*
X630Y293D02*
X637Y293D01*
X645Y293D02*
X652Y293D01*
X0Y292D02*
X7Y292D01*
X82Y292D02*
X89Y292D01*
X126Y292D02*
X132Y292D01*
X140Y292D02*
X146Y292D01*
X630Y292D02*
X637Y292D01*
X645Y292D02*
X652Y292D01*
X0Y291D02*
X7Y291D01*
X82Y291D02*
X90Y291D01*
X126Y291D02*
X132Y291D01*
X140Y291D02*
X146Y291D01*
X630Y291D02*
X637Y291D01*
X645Y291D02*
X652Y291D01*
X0Y290D02*
X7Y290D01*
X83Y290D02*
X91Y290D01*
X126Y290D02*
X132Y290D01*
X140Y290D02*
X146Y290D01*
X630Y290D02*
X637Y290D01*
X645Y290D02*
X652Y290D01*
X0Y289D02*
X7Y289D01*
X84Y289D02*
X92Y289D01*
X126Y289D02*
X132Y289D01*
X140Y289D02*
X146Y289D01*
X630Y289D02*
X637Y289D01*
X645Y289D02*
X652Y289D01*
X0Y288D02*
X7Y288D01*
X85Y288D02*
X93Y288D01*
X126Y288D02*
X132Y288D01*
X140Y288D02*
X146Y288D01*
X630Y288D02*
X637Y288D01*
X645Y288D02*
X652Y288D01*
X0Y287D02*
X7Y287D01*
X85Y287D02*
X93Y287D01*
X126Y287D02*
X132Y287D01*
X140Y287D02*
X146Y287D01*
X630Y287D02*
X637Y287D01*
X645Y287D02*
X652Y287D01*
X0Y286D02*
X7Y286D01*
X86Y286D02*
X94Y286D01*
X126Y286D02*
X132Y286D01*
X140Y286D02*
X146Y286D01*
X630Y286D02*
X637Y286D01*
X645Y286D02*
X652Y286D01*
X0Y285D02*
X7Y285D01*
X65Y285D02*
X67Y285D01*
X87Y285D02*
X95Y285D01*
X126Y285D02*
X132Y285D01*
X140Y285D02*
X146Y285D01*
X630Y285D02*
X637Y285D01*
X645Y285D02*
X652Y285D01*
X0Y284D02*
X7Y284D01*
X64Y284D02*
X68Y284D01*
X88Y284D02*
X95Y284D01*
X126Y284D02*
X132Y284D01*
X140Y284D02*
X146Y284D01*
X630Y284D02*
X637Y284D01*
X645Y284D02*
X652Y284D01*
X0Y283D02*
X7Y283D01*
X63Y283D02*
X69Y283D01*
X89Y283D02*
X96Y283D01*
X126Y283D02*
X132Y283D01*
X140Y283D02*
X146Y283D01*
X630Y283D02*
X637Y283D01*
X645Y283D02*
X652Y283D01*
X0Y282D02*
X7Y282D01*
X63Y282D02*
X69Y282D01*
X89Y282D02*
X96Y282D01*
X126Y282D02*
X132Y282D01*
X140Y282D02*
X146Y282D01*
X630Y282D02*
X637Y282D01*
X645Y282D02*
X652Y282D01*
X0Y281D02*
X7Y281D01*
X63Y281D02*
X69Y281D01*
X90Y281D02*
X96Y281D01*
X126Y281D02*
X132Y281D01*
X140Y281D02*
X146Y281D01*
X177Y281D02*
X178Y281D01*
X630Y281D02*
X637Y281D01*
X645Y281D02*
X652Y281D01*
X0Y280D02*
X7Y280D01*
X63Y280D02*
X70Y280D01*
X90Y280D02*
X96Y280D01*
X126Y280D02*
X132Y280D01*
X140Y280D02*
X146Y280D01*
X176Y280D02*
X179Y280D01*
X630Y280D02*
X637Y280D01*
X645Y280D02*
X652Y280D01*
X0Y279D02*
X7Y279D01*
X64Y279D02*
X96Y279D01*
X115Y279D02*
X146Y279D01*
X175Y279D02*
X180Y279D01*
X630Y279D02*
X637Y279D01*
X645Y279D02*
X652Y279D01*
X0Y278D02*
X7Y278D01*
X64Y278D02*
X96Y278D01*
X113Y278D02*
X146Y278D01*
X175Y278D02*
X181Y278D01*
X630Y278D02*
X637Y278D01*
X645Y278D02*
X652Y278D01*
X0Y277D02*
X7Y277D01*
X65Y277D02*
X96Y277D01*
X113Y277D02*
X146Y277D01*
X176Y277D02*
X181Y277D01*
X630Y277D02*
X637Y277D01*
X645Y277D02*
X652Y277D01*
X0Y276D02*
X7Y276D01*
X65Y276D02*
X95Y276D01*
X113Y276D02*
X146Y276D01*
X177Y276D02*
X181Y276D01*
X630Y276D02*
X637Y276D01*
X645Y276D02*
X652Y276D01*
X0Y275D02*
X7Y275D01*
X66Y275D02*
X94Y275D01*
X113Y275D02*
X146Y275D01*
X178Y275D02*
X181Y275D01*
X631Y275D02*
X636Y275D01*
X645Y275D02*
X652Y275D01*
X0Y274D02*
X7Y274D01*
X68Y274D02*
X93Y274D01*
X114Y274D02*
X145Y274D01*
X179Y274D02*
X181Y274D01*
X645Y274D02*
X652Y274D01*
X0Y273D02*
X7Y273D01*
X70Y273D02*
X91Y273D01*
X115Y273D02*
X144Y273D01*
X180Y273D02*
X181Y273D01*
X645Y273D02*
X652Y273D01*
X0Y272D02*
X7Y272D01*
X181Y272D02*
X181Y272D01*
X645Y272D02*
X652Y272D01*
X0Y271D02*
X7Y271D01*
X645Y271D02*
X652Y271D01*
X0Y270D02*
X7Y270D01*
X645Y270D02*
X652Y270D01*
X0Y269D02*
X7Y269D01*
X645Y269D02*
X652Y269D01*
X0Y268D02*
X7Y268D01*
X645Y268D02*
X652Y268D01*
X0Y267D02*
X7Y267D01*
X645Y267D02*
X652Y267D01*
X0Y266D02*
X7Y266D01*
X645Y266D02*
X652Y266D01*
X0Y265D02*
X7Y265D01*
X645Y265D02*
X652Y265D01*
X0Y264D02*
X7Y264D01*
X645Y264D02*
X652Y264D01*
X0Y263D02*
X7Y263D01*
X645Y263D02*
X652Y263D01*
X0Y262D02*
X7Y262D01*
X645Y262D02*
X652Y262D01*
X0Y261D02*
X7Y261D01*
X645Y261D02*
X652Y261D01*
X0Y260D02*
X7Y260D01*
X645Y260D02*
X652Y260D01*
X0Y259D02*
X7Y259D01*
X645Y259D02*
X652Y259D01*
X0Y258D02*
X7Y258D01*
X645Y258D02*
X652Y258D01*
X0Y257D02*
X7Y257D01*
X645Y257D02*
X652Y257D01*
X0Y256D02*
X7Y256D01*
X645Y256D02*
X652Y256D01*
X0Y255D02*
X7Y255D01*
X645Y255D02*
X652Y255D01*
X0Y254D02*
X7Y254D01*
X645Y254D02*
X652Y254D01*
X0Y253D02*
X7Y253D01*
X645Y253D02*
X652Y253D01*
X0Y252D02*
X7Y252D01*
X645Y252D02*
X652Y252D01*
X0Y251D02*
X7Y251D01*
X645Y251D02*
X652Y251D01*
X0Y250D02*
X7Y250D01*
X203Y250D02*
X209Y250D01*
X645Y250D02*
X652Y250D01*
X0Y249D02*
X7Y249D01*
X204Y249D02*
X210Y249D01*
X645Y249D02*
X652Y249D01*
X0Y248D02*
X7Y248D01*
X205Y248D02*
X211Y248D01*
X645Y248D02*
X652Y248D01*
X0Y247D02*
X7Y247D01*
X206Y247D02*
X212Y247D01*
X645Y247D02*
X652Y247D01*
X0Y246D02*
X7Y246D01*
X207Y246D02*
X211Y246D01*
X645Y246D02*
X652Y246D01*
X0Y245D02*
X7Y245D01*
X208Y245D02*
X210Y245D01*
X645Y245D02*
X652Y245D01*
X0Y244D02*
X7Y244D01*
X209Y244D02*
X209Y244D01*
X645Y244D02*
X652Y244D01*
X0Y243D02*
X7Y243D01*
X645Y243D02*
X652Y243D01*
X0Y242D02*
X7Y242D01*
X645Y242D02*
X652Y242D01*
X0Y241D02*
X7Y241D01*
X645Y241D02*
X652Y241D01*
X0Y240D02*
X7Y240D01*
X645Y240D02*
X652Y240D01*
X0Y239D02*
X7Y239D01*
X645Y239D02*
X652Y239D01*
X0Y238D02*
X7Y238D01*
X645Y238D02*
X652Y238D01*
X0Y237D02*
X7Y237D01*
X645Y237D02*
X652Y237D01*
X0Y236D02*
X7Y236D01*
X645Y236D02*
X652Y236D01*
X0Y235D02*
X7Y235D01*
X645Y235D02*
X652Y235D01*
X0Y234D02*
X7Y234D01*
X645Y234D02*
X652Y234D01*
X0Y233D02*
X7Y233D01*
X645Y233D02*
X652Y233D01*
X0Y232D02*
X7Y232D01*
X645Y232D02*
X652Y232D01*
X0Y231D02*
X7Y231D01*
X645Y231D02*
X652Y231D01*
X0Y230D02*
X7Y230D01*
X645Y230D02*
X652Y230D01*
X0Y229D02*
X7Y229D01*
X645Y229D02*
X652Y229D01*
X0Y228D02*
X7Y228D01*
X645Y228D02*
X652Y228D01*
X0Y227D02*
X7Y227D01*
X645Y227D02*
X652Y227D01*
X0Y226D02*
X7Y226D01*
X645Y226D02*
X652Y226D01*
X0Y225D02*
X7Y225D01*
X645Y225D02*
X652Y225D01*
X0Y224D02*
X7Y224D01*
X645Y224D02*
X652Y224D01*
X0Y223D02*
X7Y223D01*
X645Y223D02*
X652Y223D01*
X0Y222D02*
X7Y222D01*
X645Y222D02*
X652Y222D01*
X0Y221D02*
X7Y221D01*
X645Y221D02*
X652Y221D01*
X0Y220D02*
X7Y220D01*
X645Y220D02*
X652Y220D01*
X0Y219D02*
X7Y219D01*
X645Y219D02*
X652Y219D01*
X0Y218D02*
X7Y218D01*
X645Y218D02*
X652Y218D01*
X0Y217D02*
X7Y217D01*
X645Y217D02*
X652Y217D01*
X0Y216D02*
X7Y216D01*
X645Y216D02*
X652Y216D01*
X0Y215D02*
X7Y215D01*
X645Y215D02*
X652Y215D01*
X0Y214D02*
X7Y214D01*
X68Y214D02*
X91Y214D01*
X114Y214D02*
X142Y214D01*
X645Y214D02*
X652Y214D01*
X0Y213D02*
X7Y213D01*
X66Y213D02*
X93Y213D01*
X113Y213D02*
X144Y213D01*
X645Y213D02*
X652Y213D01*
X0Y212D02*
X7Y212D01*
X65Y212D02*
X94Y212D01*
X113Y212D02*
X145Y212D01*
X645Y212D02*
X652Y212D01*
X0Y211D02*
X7Y211D01*
X64Y211D02*
X95Y211D01*
X113Y211D02*
X145Y211D01*
X645Y211D02*
X652Y211D01*
X0Y210D02*
X7Y210D01*
X64Y210D02*
X95Y210D01*
X113Y210D02*
X146Y210D01*
X645Y210D02*
X652Y210D01*
X0Y209D02*
X7Y209D01*
X63Y209D02*
X96Y209D01*
X114Y209D02*
X146Y209D01*
X645Y209D02*
X652Y209D01*
X0Y208D02*
X7Y208D01*
X63Y208D02*
X96Y208D01*
X115Y208D02*
X146Y208D01*
X645Y208D02*
X652Y208D01*
X0Y207D02*
X7Y207D01*
X63Y207D02*
X69Y207D01*
X90Y207D02*
X96Y207D01*
X140Y207D02*
X146Y207D01*
X645Y207D02*
X652Y207D01*
X0Y206D02*
X7Y206D01*
X63Y206D02*
X70Y206D01*
X90Y206D02*
X96Y206D01*
X140Y206D02*
X146Y206D01*
X645Y206D02*
X652Y206D01*
X0Y205D02*
X7Y205D01*
X64Y205D02*
X70Y205D01*
X91Y205D02*
X96Y205D01*
X140Y205D02*
X146Y205D01*
X645Y205D02*
X652Y205D01*
X0Y204D02*
X7Y204D01*
X64Y204D02*
X71Y204D01*
X91Y204D02*
X96Y204D01*
X140Y204D02*
X146Y204D01*
X645Y204D02*
X652Y204D01*
X0Y203D02*
X7Y203D01*
X64Y203D02*
X72Y203D01*
X92Y203D02*
X95Y203D01*
X140Y203D02*
X146Y203D01*
X645Y203D02*
X652Y203D01*
X0Y202D02*
X7Y202D01*
X65Y202D02*
X73Y202D01*
X140Y202D02*
X146Y202D01*
X645Y202D02*
X652Y202D01*
X0Y201D02*
X7Y201D01*
X66Y201D02*
X74Y201D01*
X140Y201D02*
X146Y201D01*
X645Y201D02*
X652Y201D01*
X0Y200D02*
X7Y200D01*
X66Y200D02*
X74Y200D01*
X140Y200D02*
X146Y200D01*
X645Y200D02*
X652Y200D01*
X0Y199D02*
X7Y199D01*
X67Y199D02*
X75Y199D01*
X140Y199D02*
X146Y199D01*
X645Y199D02*
X652Y199D01*
X0Y198D02*
X7Y198D01*
X68Y198D02*
X76Y198D01*
X140Y198D02*
X146Y198D01*
X645Y198D02*
X652Y198D01*
X0Y197D02*
X7Y197D01*
X69Y197D02*
X77Y197D01*
X140Y197D02*
X146Y197D01*
X633Y197D02*
X633Y197D01*
X645Y197D02*
X652Y197D01*
X0Y196D02*
X7Y196D01*
X70Y196D02*
X77Y196D01*
X140Y196D02*
X146Y196D01*
X631Y196D02*
X635Y196D01*
X645Y196D02*
X652Y196D01*
X0Y195D02*
X7Y195D01*
X70Y195D02*
X78Y195D01*
X140Y195D02*
X146Y195D01*
X631Y195D02*
X635Y195D01*
X645Y195D02*
X652Y195D01*
X0Y194D02*
X7Y194D01*
X71Y194D02*
X79Y194D01*
X140Y194D02*
X146Y194D01*
X631Y194D02*
X636Y194D01*
X645Y194D02*
X652Y194D01*
X0Y193D02*
X7Y193D01*
X72Y193D02*
X80Y193D01*
X140Y193D02*
X146Y193D01*
X631Y193D02*
X636Y193D01*
X645Y193D02*
X652Y193D01*
X0Y192D02*
X7Y192D01*
X73Y192D02*
X81Y192D01*
X140Y192D02*
X146Y192D01*
X631Y192D02*
X636Y192D01*
X645Y192D02*
X652Y192D01*
X0Y191D02*
X7Y191D01*
X73Y191D02*
X81Y191D01*
X118Y191D02*
X146Y191D01*
X631Y191D02*
X636Y191D01*
X645Y191D02*
X652Y191D01*
X0Y190D02*
X7Y190D01*
X74Y190D02*
X82Y190D01*
X116Y190D02*
X146Y190D01*
X631Y190D02*
X636Y190D01*
X645Y190D02*
X652Y190D01*
X0Y189D02*
X7Y189D01*
X75Y189D02*
X83Y189D01*
X115Y189D02*
X146Y189D01*
X631Y189D02*
X636Y189D01*
X645Y189D02*
X652Y189D01*
X0Y188D02*
X7Y188D01*
X76Y188D02*
X84Y188D01*
X114Y188D02*
X145Y188D01*
X631Y188D02*
X636Y188D01*
X645Y188D02*
X652Y188D01*
X0Y187D02*
X7Y187D01*
X77Y187D02*
X84Y187D01*
X113Y187D02*
X144Y187D01*
X631Y187D02*
X636Y187D01*
X645Y187D02*
X652Y187D01*
X0Y186D02*
X7Y186D01*
X77Y186D02*
X85Y186D01*
X113Y186D02*
X143Y186D01*
X631Y186D02*
X636Y186D01*
X645Y186D02*
X652Y186D01*
X0Y185D02*
X7Y185D01*
X78Y185D02*
X86Y185D01*
X113Y185D02*
X142Y185D01*
X621Y185D02*
X652Y185D01*
X0Y184D02*
X7Y184D01*
X79Y184D02*
X87Y184D01*
X113Y184D02*
X119Y184D01*
X619Y184D02*
X652Y184D01*
X0Y183D02*
X7Y183D01*
X80Y183D02*
X88Y183D01*
X113Y183D02*
X119Y183D01*
X619Y183D02*
X652Y183D01*
X0Y182D02*
X7Y182D01*
X80Y182D02*
X88Y182D01*
X113Y182D02*
X119Y182D01*
X619Y182D02*
X652Y182D01*
X0Y181D02*
X7Y181D01*
X81Y181D02*
X89Y181D01*
X113Y181D02*
X119Y181D01*
X619Y181D02*
X652Y181D01*
X0Y180D02*
X7Y180D01*
X82Y180D02*
X90Y180D01*
X113Y180D02*
X119Y180D01*
X620Y180D02*
X652Y180D01*
X0Y179D02*
X7Y179D01*
X83Y179D02*
X91Y179D01*
X113Y179D02*
X119Y179D01*
X631Y179D02*
X636Y179D01*
X645Y179D02*
X652Y179D01*
X0Y178D02*
X7Y178D01*
X84Y178D02*
X91Y178D01*
X113Y178D02*
X119Y178D01*
X631Y178D02*
X636Y178D01*
X645Y178D02*
X652Y178D01*
X0Y177D02*
X7Y177D01*
X84Y177D02*
X92Y177D01*
X113Y177D02*
X119Y177D01*
X631Y177D02*
X636Y177D01*
X645Y177D02*
X652Y177D01*
X0Y176D02*
X7Y176D01*
X85Y176D02*
X93Y176D01*
X113Y176D02*
X119Y176D01*
X631Y176D02*
X636Y176D01*
X645Y176D02*
X652Y176D01*
X0Y175D02*
X7Y175D01*
X86Y175D02*
X94Y175D01*
X113Y175D02*
X119Y175D01*
X631Y175D02*
X636Y175D01*
X645Y175D02*
X652Y175D01*
X0Y174D02*
X7Y174D01*
X87Y174D02*
X95Y174D01*
X113Y174D02*
X119Y174D01*
X631Y174D02*
X636Y174D01*
X645Y174D02*
X652Y174D01*
X0Y173D02*
X7Y173D01*
X64Y173D02*
X68Y173D01*
X87Y173D02*
X95Y173D01*
X113Y173D02*
X119Y173D01*
X631Y173D02*
X636Y173D01*
X645Y173D02*
X652Y173D01*
X0Y172D02*
X7Y172D01*
X64Y172D02*
X69Y172D01*
X88Y172D02*
X96Y172D01*
X113Y172D02*
X119Y172D01*
X631Y172D02*
X636Y172D01*
X645Y172D02*
X652Y172D01*
X0Y171D02*
X7Y171D01*
X63Y171D02*
X69Y171D01*
X89Y171D02*
X96Y171D01*
X113Y171D02*
X119Y171D01*
X631Y171D02*
X636Y171D01*
X645Y171D02*
X652Y171D01*
X0Y170D02*
X7Y170D01*
X63Y170D02*
X69Y170D01*
X90Y170D02*
X96Y170D01*
X113Y170D02*
X119Y170D01*
X631Y170D02*
X635Y170D01*
X645Y170D02*
X652Y170D01*
X0Y169D02*
X7Y169D01*
X63Y169D02*
X70Y169D01*
X90Y169D02*
X96Y169D01*
X113Y169D02*
X119Y169D01*
X631Y169D02*
X635Y169D01*
X645Y169D02*
X652Y169D01*
X0Y168D02*
X7Y168D01*
X64Y168D02*
X96Y168D01*
X113Y168D02*
X143Y168D01*
X632Y168D02*
X634Y168D01*
X645Y168D02*
X652Y168D01*
X0Y167D02*
X7Y167D01*
X64Y167D02*
X96Y167D01*
X113Y167D02*
X145Y167D01*
X645Y167D02*
X652Y167D01*
X0Y166D02*
X7Y166D01*
X64Y166D02*
X96Y166D01*
X113Y166D02*
X146Y166D01*
X645Y166D02*
X652Y166D01*
X0Y165D02*
X7Y165D01*
X65Y165D02*
X95Y165D01*
X113Y165D02*
X146Y165D01*
X179Y165D02*
X180Y165D01*
X645Y165D02*
X652Y165D01*
X0Y164D02*
X7Y164D01*
X66Y164D02*
X95Y164D01*
X113Y164D02*
X146Y164D01*
X178Y164D02*
X181Y164D01*
X645Y164D02*
X652Y164D01*
X0Y163D02*
X7Y163D01*
X67Y163D02*
X94Y163D01*
X113Y163D02*
X146Y163D01*
X177Y163D02*
X182Y163D01*
X645Y163D02*
X652Y163D01*
X0Y162D02*
X7Y162D01*
X69Y162D02*
X92Y162D01*
X113Y162D02*
X145Y162D01*
X177Y162D02*
X183Y162D01*
X645Y162D02*
X652Y162D01*
X0Y161D02*
X7Y161D01*
X178Y161D02*
X183Y161D01*
X645Y161D02*
X652Y161D01*
X0Y160D02*
X7Y160D01*
X179Y160D02*
X183Y160D01*
X645Y160D02*
X652Y160D01*
X0Y159D02*
X7Y159D01*
X180Y159D02*
X183Y159D01*
X645Y159D02*
X652Y159D01*
X0Y158D02*
X7Y158D01*
X181Y158D02*
X183Y158D01*
X645Y158D02*
X652Y158D01*
X0Y157D02*
X7Y157D01*
X182Y157D02*
X183Y157D01*
X645Y157D02*
X652Y157D01*
X0Y156D02*
X7Y156D01*
X183Y156D02*
X183Y156D01*
X645Y156D02*
X652Y156D01*
X0Y155D02*
X7Y155D01*
X645Y155D02*
X652Y155D01*
X0Y154D02*
X7Y154D01*
X645Y154D02*
X652Y154D01*
X0Y153D02*
X7Y153D01*
X645Y153D02*
X652Y153D01*
X0Y152D02*
X7Y152D01*
X645Y152D02*
X652Y152D01*
X0Y151D02*
X7Y151D01*
X645Y151D02*
X652Y151D01*
X0Y150D02*
X7Y150D01*
X645Y150D02*
X652Y150D01*
X0Y149D02*
X7Y149D01*
X645Y149D02*
X652Y149D01*
X0Y148D02*
X7Y148D01*
X645Y148D02*
X652Y148D01*
X0Y147D02*
X7Y147D01*
X645Y147D02*
X652Y147D01*
X0Y146D02*
X7Y146D01*
X645Y146D02*
X652Y146D01*
X0Y145D02*
X7Y145D01*
X645Y145D02*
X652Y145D01*
X0Y144D02*
X7Y144D01*
X645Y144D02*
X652Y144D01*
X0Y143D02*
X7Y143D01*
X645Y143D02*
X652Y143D01*
X0Y142D02*
X7Y142D01*
X645Y142D02*
X652Y142D01*
X0Y141D02*
X7Y141D01*
X645Y141D02*
X652Y141D01*
X0Y140D02*
X7Y140D01*
X645Y140D02*
X652Y140D01*
X0Y139D02*
X7Y139D01*
X645Y139D02*
X652Y139D01*
X0Y138D02*
X7Y138D01*
X645Y138D02*
X652Y138D01*
X0Y137D02*
X7Y137D01*
X645Y137D02*
X652Y137D01*
X0Y136D02*
X7Y136D01*
X645Y136D02*
X652Y136D01*
X0Y135D02*
X7Y135D01*
X204Y135D02*
X210Y135D01*
X645Y135D02*
X652Y135D01*
X0Y134D02*
X7Y134D01*
X205Y134D02*
X211Y134D01*
X645Y134D02*
X652Y134D01*
X0Y133D02*
X7Y133D01*
X206Y133D02*
X212Y133D01*
X645Y133D02*
X652Y133D01*
X0Y132D02*
X7Y132D01*
X207Y132D02*
X213Y132D01*
X645Y132D02*
X652Y132D01*
X0Y131D02*
X7Y131D01*
X208Y131D02*
X214Y131D01*
X645Y131D02*
X652Y131D01*
X0Y130D02*
X7Y130D01*
X209Y130D02*
X213Y130D01*
X645Y130D02*
X652Y130D01*
X0Y129D02*
X7Y129D01*
X210Y129D02*
X212Y129D01*
X645Y129D02*
X652Y129D01*
X0Y128D02*
X7Y128D01*
X211Y128D02*
X211Y128D01*
X645Y128D02*
X652Y128D01*
X0Y127D02*
X7Y127D01*
X645Y127D02*
X652Y127D01*
X0Y126D02*
X7Y126D01*
X645Y126D02*
X652Y126D01*
X0Y125D02*
X7Y125D01*
X645Y125D02*
X652Y125D01*
X0Y124D02*
X7Y124D01*
X645Y124D02*
X652Y124D01*
X0Y123D02*
X7Y123D01*
X645Y123D02*
X652Y123D01*
X0Y122D02*
X7Y122D01*
X645Y122D02*
X652Y122D01*
X0Y121D02*
X7Y121D01*
X328Y121D02*
X330Y121D01*
X645Y121D02*
X652Y121D01*
X0Y120D02*
X7Y120D01*
X327Y120D02*
X331Y120D01*
X645Y120D02*
X652Y120D01*
X0Y119D02*
X7Y119D01*
X326Y119D02*
X331Y119D01*
X422Y119D02*
X431Y119D01*
X645Y119D02*
X652Y119D01*
X0Y118D02*
X7Y118D01*
X326Y118D02*
X331Y118D01*
X422Y118D02*
X432Y118D01*
X645Y118D02*
X652Y118D01*
X0Y117D02*
X7Y117D01*
X326Y117D02*
X331Y117D01*
X423Y117D02*
X433Y117D01*
X645Y117D02*
X652Y117D01*
X0Y116D02*
X7Y116D01*
X326Y116D02*
X331Y116D01*
X425Y116D02*
X427Y116D01*
X430Y116D02*
X433Y116D01*
X645Y116D02*
X652Y116D01*
X0Y115D02*
X7Y115D01*
X215Y115D02*
X239Y115D01*
X326Y115D02*
X331Y115D01*
X425Y115D02*
X427Y115D01*
X431Y115D02*
X434Y115D01*
X645Y115D02*
X652Y115D01*
X0Y114D02*
X7Y114D01*
X213Y114D02*
X240Y114D01*
X326Y114D02*
X331Y114D01*
X425Y114D02*
X427Y114D01*
X431Y114D02*
X434Y114D01*
X645Y114D02*
X652Y114D01*
X0Y113D02*
X7Y113D01*
X213Y113D02*
X241Y113D01*
X326Y113D02*
X331Y113D01*
X425Y113D02*
X427Y113D01*
X432Y113D02*
X435Y113D01*
X645Y113D02*
X652Y113D01*
X0Y112D02*
X7Y112D01*
X213Y112D02*
X241Y112D01*
X326Y112D02*
X331Y112D01*
X425Y112D02*
X427Y112D01*
X432Y112D02*
X435Y112D01*
X645Y112D02*
X652Y112D01*
X0Y111D02*
X7Y111D01*
X213Y111D02*
X241Y111D01*
X326Y111D02*
X331Y111D01*
X425Y111D02*
X427Y111D01*
X433Y111D02*
X436Y111D01*
X645Y111D02*
X652Y111D01*
X0Y110D02*
X7Y110D01*
X213Y110D02*
X241Y110D01*
X326Y110D02*
X331Y110D01*
X425Y110D02*
X427Y110D01*
X433Y110D02*
X436Y110D01*
X645Y110D02*
X652Y110D01*
X0Y109D02*
X7Y109D01*
X213Y109D02*
X241Y109D01*
X316Y109D02*
X342Y109D01*
X425Y109D02*
X427Y109D01*
X434Y109D02*
X436Y109D01*
X645Y109D02*
X652Y109D01*
X0Y108D02*
X7Y108D01*
X213Y108D02*
X240Y108D01*
X315Y108D02*
X343Y108D01*
X425Y108D02*
X427Y108D01*
X434Y108D02*
X436Y108D01*
X645Y108D02*
X652Y108D01*
X0Y107D02*
X7Y107D01*
X214Y107D02*
X239Y107D01*
X315Y107D02*
X343Y107D01*
X425Y107D02*
X427Y107D01*
X434Y107D02*
X436Y107D01*
X645Y107D02*
X652Y107D01*
X0Y106D02*
X7Y106D01*
X315Y106D02*
X343Y106D01*
X425Y106D02*
X427Y106D01*
X434Y106D02*
X436Y106D01*
X645Y106D02*
X652Y106D01*
X0Y105D02*
X7Y105D01*
X315Y105D02*
X342Y105D01*
X425Y105D02*
X427Y105D01*
X433Y105D02*
X436Y105D01*
X645Y105D02*
X652Y105D01*
X0Y104D02*
X7Y104D01*
X317Y104D02*
X341Y104D01*
X425Y104D02*
X427Y104D01*
X433Y104D02*
X435Y104D01*
X645Y104D02*
X652Y104D01*
X0Y103D02*
X7Y103D01*
X326Y103D02*
X331Y103D01*
X425Y103D02*
X427Y103D01*
X432Y103D02*
X435Y103D01*
X645Y103D02*
X652Y103D01*
X0Y102D02*
X7Y102D01*
X326Y102D02*
X331Y102D01*
X425Y102D02*
X427Y102D01*
X432Y102D02*
X434Y102D01*
X645Y102D02*
X652Y102D01*
X0Y101D02*
X7Y101D01*
X326Y101D02*
X331Y101D01*
X425Y101D02*
X427Y101D01*
X431Y101D02*
X434Y101D01*
X645Y101D02*
X652Y101D01*
X0Y100D02*
X7Y100D01*
X326Y100D02*
X331Y100D01*
X425Y100D02*
X427Y100D01*
X431Y100D02*
X433Y100D01*
X645Y100D02*
X652Y100D01*
X0Y99D02*
X7Y99D01*
X326Y99D02*
X331Y99D01*
X425Y99D02*
X427Y99D01*
X430Y99D02*
X433Y99D01*
X645Y99D02*
X652Y99D01*
X0Y98D02*
X7Y98D01*
X326Y98D02*
X331Y98D01*
X422Y98D02*
X432Y98D01*
X645Y98D02*
X652Y98D01*
X0Y97D02*
X7Y97D01*
X326Y97D02*
X331Y97D01*
X422Y97D02*
X432Y97D01*
X645Y97D02*
X652Y97D01*
X0Y96D02*
X7Y96D01*
X326Y96D02*
X331Y96D01*
X422Y96D02*
X430Y96D01*
X645Y96D02*
X652Y96D01*
X0Y95D02*
X7Y95D01*
X326Y95D02*
X331Y95D01*
X645Y95D02*
X652Y95D01*
X0Y94D02*
X7Y94D01*
X327Y94D02*
X331Y94D01*
X645Y94D02*
X652Y94D01*
X0Y93D02*
X7Y93D01*
X327Y93D02*
X330Y93D01*
X645Y93D02*
X652Y93D01*
X0Y92D02*
X7Y92D01*
X645Y92D02*
X652Y92D01*
X0Y91D02*
X7Y91D01*
X645Y91D02*
X652Y91D01*
X0Y90D02*
X7Y90D01*
X645Y90D02*
X652Y90D01*
X0Y89D02*
X7Y89D01*
X645Y89D02*
X652Y89D01*
X0Y88D02*
X7Y88D01*
X645Y88D02*
X652Y88D01*
X0Y87D02*
X7Y87D01*
X645Y87D02*
X652Y87D01*
X0Y86D02*
X7Y86D01*
X645Y86D02*
X652Y86D01*
X0Y85D02*
X7Y85D01*
X645Y85D02*
X652Y85D01*
X0Y84D02*
X7Y84D01*
X645Y84D02*
X652Y84D01*
X0Y83D02*
X7Y83D01*
X645Y83D02*
X652Y83D01*
X0Y82D02*
X7Y82D01*
X645Y82D02*
X652Y82D01*
X0Y81D02*
X7Y81D01*
X645Y81D02*
X652Y81D01*
X0Y80D02*
X7Y80D01*
X645Y80D02*
X652Y80D01*
X0Y79D02*
X7Y79D01*
X645Y79D02*
X652Y79D01*
X0Y78D02*
X7Y78D01*
X645Y78D02*
X652Y78D01*
X0Y77D02*
X7Y77D01*
X645Y77D02*
X652Y77D01*
X0Y76D02*
X7Y76D01*
X645Y76D02*
X652Y76D01*
X0Y75D02*
X7Y75D01*
X645Y75D02*
X652Y75D01*
X0Y74D02*
X7Y74D01*
X645Y74D02*
X652Y74D01*
X0Y73D02*
X7Y73D01*
X645Y73D02*
X652Y73D01*
X0Y72D02*
X7Y72D01*
X645Y72D02*
X652Y72D01*
X0Y71D02*
X7Y71D01*
X645Y71D02*
X652Y71D01*
X0Y70D02*
X7Y70D01*
X645Y70D02*
X652Y70D01*
X0Y69D02*
X7Y69D01*
X645Y69D02*
X652Y69D01*
X0Y68D02*
X7Y68D01*
X645Y68D02*
X652Y68D01*
X0Y67D02*
X7Y67D01*
X645Y67D02*
X652Y67D01*
X0Y66D02*
X7Y66D01*
X645Y66D02*
X652Y66D01*
X0Y65D02*
X7Y65D01*
X645Y65D02*
X652Y65D01*
X0Y64D02*
X7Y64D01*
X645Y64D02*
X652Y64D01*
X0Y63D02*
X7Y63D01*
X645Y63D02*
X652Y63D01*
X0Y62D02*
X7Y62D01*
X645Y62D02*
X652Y62D01*
X0Y61D02*
X7Y61D01*
X645Y61D02*
X652Y61D01*
X0Y60D02*
X7Y60D01*
X645Y60D02*
X652Y60D01*
X0Y59D02*
X7Y59D01*
X645Y59D02*
X652Y59D01*
X0Y58D02*
X7Y58D01*
X645Y58D02*
X652Y58D01*
X0Y57D02*
X7Y57D01*
X645Y57D02*
X652Y57D01*
X0Y56D02*
X7Y56D01*
X645Y56D02*
X652Y56D01*
X0Y55D02*
X7Y55D01*
X645Y55D02*
X652Y55D01*
X0Y54D02*
X7Y54D01*
X645Y54D02*
X652Y54D01*
X0Y53D02*
X7Y53D01*
X645Y53D02*
X652Y53D01*
X0Y52D02*
X7Y52D01*
X645Y52D02*
X652Y52D01*
X0Y51D02*
X7Y51D01*
X645Y51D02*
X652Y51D01*
X0Y50D02*
X7Y50D01*
X645Y50D02*
X652Y50D01*
X0Y49D02*
X7Y49D01*
X645Y49D02*
X652Y49D01*
X0Y48D02*
X7Y48D01*
X645Y48D02*
X652Y48D01*
X0Y47D02*
X7Y47D01*
X645Y47D02*
X652Y47D01*
X0Y46D02*
X7Y46D01*
X645Y46D02*
X652Y46D01*
X0Y45D02*
X7Y45D01*
X645Y45D02*
X652Y45D01*
X0Y44D02*
X7Y44D01*
X645Y44D02*
X652Y44D01*
X0Y43D02*
X7Y43D01*
X645Y43D02*
X652Y43D01*
X0Y42D02*
X7Y42D01*
X645Y42D02*
X652Y42D01*
X0Y41D02*
X7Y41D01*
X645Y41D02*
X652Y41D01*
X0Y40D02*
X7Y40D01*
X645Y40D02*
X652Y40D01*
X0Y39D02*
X7Y39D01*
X54Y39D02*
X61Y39D01*
X248Y39D02*
X256Y39D01*
X349Y39D02*
X357Y39D01*
X645Y39D02*
X652Y39D01*
X0Y38D02*
X7Y38D01*
X41Y38D02*
X42Y38D01*
X53Y38D02*
X62Y38D01*
X91Y38D02*
X92Y38D01*
X103Y38D02*
X104Y38D01*
X142Y38D02*
X143Y38D01*
X156Y38D02*
X164Y38D01*
X182Y38D02*
X191Y38D01*
X198Y38D02*
X206Y38D01*
X213Y38D02*
X222Y38D01*
X248Y38D02*
X257Y38D01*
X298Y38D02*
X303Y38D01*
X348Y38D02*
X358Y38D01*
X397Y38D02*
X407Y38D01*
X448Y38D02*
X449Y38D01*
X482Y38D02*
X483Y38D01*
X491Y38D02*
X491Y38D01*
X500Y38D02*
X506Y38D01*
X515Y38D02*
X521Y38D01*
X538Y38D02*
X543Y38D01*
X549Y38D02*
X551Y38D01*
X557Y38D02*
X558Y38D01*
X564Y38D02*
X570Y38D01*
X583Y38D02*
X584Y38D01*
X591Y38D02*
X592Y38D01*
X598Y38D02*
X607Y38D01*
X613Y38D02*
X615Y38D01*
X621Y38D02*
X622Y38D01*
X645Y38D02*
X652Y38D01*
X0Y37D02*
X7Y37D01*
X41Y37D02*
X42Y37D01*
X53Y37D02*
X63Y37D01*
X91Y37D02*
X92Y37D01*
X103Y37D02*
X104Y37D01*
X141Y37D02*
X143Y37D01*
X156Y37D02*
X163Y37D01*
X182Y37D02*
X192Y37D01*
X198Y37D02*
X207Y37D01*
X213Y37D02*
X222Y37D01*
X247Y37D02*
X249Y37D01*
X256Y37D02*
X258Y37D01*
X298Y37D02*
X303Y37D01*
X357Y37D02*
X358Y37D01*
X397Y37D02*
X407Y37D01*
X447Y37D02*
X449Y37D01*
X482Y37D02*
X483Y37D01*
X490Y37D02*
X492Y37D01*
X500Y37D02*
X506Y37D01*
X514Y37D02*
X520Y37D01*
X537Y37D02*
X543Y37D01*
X549Y37D02*
X551Y37D01*
X557Y37D02*
X558Y37D01*
X564Y37D02*
X570Y37D01*
X583Y37D02*
X584Y37D01*
X591Y37D02*
X592Y37D01*
X598Y37D02*
X606Y37D01*
X613Y37D02*
X615Y37D01*
X621Y37D02*
X622Y37D01*
X645Y37D02*
X652Y37D01*
X0Y36D02*
X7Y36D01*
X40Y36D02*
X43Y36D01*
X62Y36D02*
X63Y36D01*
X90Y36D02*
X93Y36D01*
X103Y36D02*
X104Y36D01*
X110Y36D02*
X111Y36D01*
X141Y36D02*
X144Y36D01*
X156Y36D02*
X157Y36D01*
X182Y36D02*
X184Y36D01*
X191Y36D02*
X192Y36D01*
X198Y36D02*
X199Y36D01*
X206Y36D02*
X207Y36D01*
X213Y36D02*
X214Y36D01*
X217Y36D02*
X218Y36D01*
X221Y36D02*
X222Y36D01*
X247Y36D02*
X249Y36D01*
X256Y36D02*
X258Y36D01*
X302Y36D02*
X303Y36D01*
X357Y36D02*
X358Y36D01*
X406Y36D02*
X407Y36D01*
X447Y36D02*
X449Y36D01*
X454Y36D02*
X455Y36D01*
X482Y36D02*
X483Y36D01*
X490Y36D02*
X492Y36D01*
X499Y36D02*
X500Y36D01*
X514Y36D02*
X515Y36D01*
X536Y36D02*
X538Y36D01*
X549Y36D02*
X552Y36D01*
X557Y36D02*
X558Y36D01*
X566Y36D02*
X567Y36D01*
X570Y36D02*
X571Y36D01*
X583Y36D02*
X584Y36D01*
X591Y36D02*
X592Y36D01*
X602Y36D02*
X603Y36D01*
X613Y36D02*
X616Y36D01*
X621Y36D02*
X622Y36D01*
X645Y36D02*
X652Y36D01*
X0Y35D02*
X7Y35D01*
X40Y35D02*
X43Y35D01*
X62Y35D02*
X63Y35D01*
X90Y35D02*
X93Y35D01*
X103Y35D02*
X104Y35D01*
X110Y35D02*
X111Y35D01*
X141Y35D02*
X144Y35D01*
X156Y35D02*
X157Y35D01*
X182Y35D02*
X184Y35D01*
X191Y35D02*
X192Y35D01*
X198Y35D02*
X200Y35D01*
X217Y35D02*
X218Y35D01*
X247Y35D02*
X249Y35D01*
X256Y35D02*
X258Y35D01*
X302Y35D02*
X303Y35D01*
X357Y35D02*
X358Y35D01*
X406Y35D02*
X407Y35D01*
X447Y35D02*
X449Y35D01*
X454Y35D02*
X455Y35D01*
X482Y35D02*
X483Y35D01*
X490Y35D02*
X492Y35D01*
X499Y35D02*
X500Y35D01*
X513Y35D02*
X515Y35D01*
X536Y35D02*
X537Y35D01*
X549Y35D02*
X552Y35D01*
X557Y35D02*
X558Y35D01*
X566Y35D02*
X567Y35D01*
X570Y35D02*
X571Y35D01*
X583Y35D02*
X584Y35D01*
X591Y35D02*
X592Y35D01*
X602Y35D02*
X603Y35D01*
X613Y35D02*
X616Y35D01*
X621Y35D02*
X622Y35D01*
X645Y35D02*
X652Y35D01*
X0Y34D02*
X7Y34D01*
X40Y34D02*
X43Y34D01*
X62Y34D02*
X63Y34D01*
X90Y34D02*
X93Y34D01*
X103Y34D02*
X104Y34D01*
X110Y34D02*
X111Y34D01*
X141Y34D02*
X144Y34D01*
X156Y34D02*
X157Y34D01*
X182Y34D02*
X184Y34D01*
X190Y34D02*
X192Y34D01*
X199Y34D02*
X201Y34D01*
X217Y34D02*
X218Y34D01*
X247Y34D02*
X249Y34D01*
X256Y34D02*
X258Y34D01*
X302Y34D02*
X303Y34D01*
X357Y34D02*
X358Y34D01*
X406Y34D02*
X407Y34D01*
X447Y34D02*
X449Y34D01*
X454Y34D02*
X455Y34D01*
X482Y34D02*
X484Y34D01*
X490Y34D02*
X491Y34D01*
X498Y34D02*
X499Y34D01*
X513Y34D02*
X514Y34D01*
X535Y34D02*
X537Y34D01*
X549Y34D02*
X553Y34D01*
X557Y34D02*
X558Y34D01*
X566Y34D02*
X567Y34D01*
X571Y34D02*
X572Y34D01*
X583Y34D02*
X584Y34D01*
X591Y34D02*
X592Y34D01*
X602Y34D02*
X603Y34D01*
X613Y34D02*
X616Y34D01*
X621Y34D02*
X622Y34D01*
X645Y34D02*
X652Y34D01*
X0Y33D02*
X7Y33D01*
X39Y33D02*
X44Y33D01*
X62Y33D02*
X63Y33D01*
X89Y33D02*
X94Y33D01*
X103Y33D02*
X104Y33D01*
X110Y33D02*
X111Y33D01*
X140Y33D02*
X145Y33D01*
X156Y33D02*
X157Y33D01*
X182Y33D02*
X191Y33D01*
X200Y33D02*
X201Y33D01*
X217Y33D02*
X218Y33D01*
X247Y33D02*
X249Y33D01*
X256Y33D02*
X258Y33D01*
X302Y33D02*
X303Y33D01*
X357Y33D02*
X358Y33D01*
X406Y33D02*
X407Y33D01*
X447Y33D02*
X449Y33D01*
X454Y33D02*
X455Y33D01*
X483Y33D02*
X484Y33D01*
X490Y33D02*
X491Y33D01*
X498Y33D02*
X499Y33D01*
X512Y33D02*
X514Y33D01*
X534Y33D02*
X536Y33D01*
X549Y33D02*
X550Y33D01*
X552Y33D02*
X553Y33D01*
X557Y33D02*
X558Y33D01*
X566Y33D02*
X567Y33D01*
X571Y33D02*
X572Y33D01*
X583Y33D02*
X585Y33D01*
X591Y33D02*
X592Y33D01*
X602Y33D02*
X603Y33D01*
X613Y33D02*
X614Y33D01*
X616Y33D02*
X617Y33D01*
X621Y33D02*
X622Y33D01*
X645Y33D02*
X652Y33D01*
X0Y32D02*
X7Y32D01*
X39Y32D02*
X40Y32D01*
X43Y32D02*
X44Y32D01*
X61Y32D02*
X63Y32D01*
X89Y32D02*
X90Y32D01*
X92Y32D02*
X94Y32D01*
X103Y32D02*
X104Y32D01*
X110Y32D02*
X111Y32D01*
X140Y32D02*
X141Y32D01*
X143Y32D02*
X145Y32D01*
X156Y32D02*
X157Y32D01*
X182Y32D02*
X190Y32D01*
X200Y32D02*
X202Y32D01*
X217Y32D02*
X218Y32D01*
X247Y32D02*
X249Y32D01*
X256Y32D02*
X258Y32D01*
X302Y32D02*
X303Y32D01*
X357Y32D02*
X358Y32D01*
X387Y32D02*
X387Y32D01*
X406Y32D02*
X407Y32D01*
X447Y32D02*
X449Y32D01*
X454Y32D02*
X455Y32D01*
X483Y32D02*
X484Y32D01*
X489Y32D02*
X491Y32D01*
X497Y32D02*
X498Y32D01*
X512Y32D02*
X513Y32D01*
X534Y32D02*
X535Y32D01*
X549Y32D02*
X550Y32D01*
X552Y32D02*
X554Y32D01*
X557Y32D02*
X558Y32D01*
X566Y32D02*
X567Y32D01*
X572Y32D02*
X573Y32D01*
X584Y32D02*
X585Y32D01*
X590Y32D02*
X591Y32D01*
X602Y32D02*
X603Y32D01*
X613Y32D02*
X614Y32D01*
X616Y32D02*
X617Y32D01*
X621Y32D02*
X622Y32D01*
X645Y32D02*
X652Y32D01*
X0Y31D02*
X7Y31D01*
X39Y31D02*
X40Y31D01*
X43Y31D02*
X44Y31D01*
X55Y31D02*
X62Y31D01*
X89Y31D02*
X90Y31D01*
X93Y31D02*
X94Y31D01*
X103Y31D02*
X104Y31D01*
X110Y31D02*
X111Y31D01*
X140Y31D02*
X141Y31D01*
X144Y31D02*
X145Y31D01*
X156Y31D02*
X163Y31D01*
X182Y31D02*
X184Y31D01*
X186Y31D02*
X188Y31D01*
X201Y31D02*
X203Y31D01*
X217Y31D02*
X218Y31D01*
X247Y31D02*
X249Y31D01*
X256Y31D02*
X258Y31D01*
X302Y31D02*
X303Y31D01*
X349Y31D02*
X358Y31D01*
X385Y31D02*
X390Y31D01*
X394Y31D02*
X394Y31D01*
X400Y31D02*
X407Y31D01*
X447Y31D02*
X449Y31D01*
X454Y31D02*
X455Y31D01*
X483Y31D02*
X485Y31D01*
X489Y31D02*
X490Y31D01*
X497Y31D02*
X498Y31D01*
X512Y31D02*
X513Y31D01*
X534Y31D02*
X535Y31D01*
X549Y31D02*
X550Y31D01*
X553Y31D02*
X554Y31D01*
X557Y31D02*
X558Y31D01*
X566Y31D02*
X567Y31D01*
X572Y31D02*
X573Y31D01*
X584Y31D02*
X585Y31D01*
X590Y31D02*
X591Y31D01*
X602Y31D02*
X603Y31D01*
X613Y31D02*
X614Y31D01*
X616Y31D02*
X618Y31D01*
X621Y31D02*
X622Y31D01*
X645Y31D02*
X652Y31D01*
X0Y30D02*
X7Y30D01*
X39Y30D02*
X40Y30D01*
X43Y30D02*
X45Y30D01*
X55Y30D02*
X62Y30D01*
X88Y30D02*
X90Y30D01*
X93Y30D02*
X94Y30D01*
X103Y30D02*
X104Y30D01*
X110Y30D02*
X111Y30D01*
X139Y30D02*
X141Y30D01*
X144Y30D02*
X145Y30D01*
X156Y30D02*
X163Y30D01*
X182Y30D02*
X184Y30D01*
X187Y30D02*
X188Y30D01*
X202Y30D02*
X204Y30D01*
X217Y30D02*
X218Y30D01*
X247Y30D02*
X249Y30D01*
X256Y30D02*
X258Y30D01*
X302Y30D02*
X303Y30D01*
X348Y30D02*
X358Y30D01*
X384Y30D02*
X394Y30D01*
X399Y30D02*
X406Y30D01*
X447Y30D02*
X449Y30D01*
X454Y30D02*
X455Y30D01*
X484Y30D02*
X485Y30D01*
X489Y30D02*
X490Y30D01*
X497Y30D02*
X498Y30D01*
X512Y30D02*
X513Y30D01*
X534Y30D02*
X535Y30D01*
X540Y30D02*
X543Y30D01*
X549Y30D02*
X550Y30D01*
X553Y30D02*
X555Y30D01*
X557Y30D02*
X558Y30D01*
X566Y30D02*
X567Y30D01*
X572Y30D02*
X573Y30D01*
X585Y30D02*
X586Y30D01*
X589Y30D02*
X591Y30D01*
X602Y30D02*
X603Y30D01*
X613Y30D02*
X614Y30D01*
X617Y30D02*
X618Y30D01*
X621Y30D02*
X622Y30D01*
X645Y30D02*
X652Y30D01*
X0Y29D02*
X7Y29D01*
X38Y29D02*
X40Y29D01*
X43Y29D02*
X45Y29D01*
X61Y29D02*
X63Y29D01*
X88Y29D02*
X90Y29D01*
X93Y29D02*
X95Y29D01*
X103Y29D02*
X112Y29D01*
X139Y29D02*
X140Y29D01*
X144Y29D02*
X146Y29D01*
X162Y29D02*
X164Y29D01*
X182Y29D02*
X184Y29D01*
X187Y29D02*
X189Y29D01*
X203Y29D02*
X204Y29D01*
X217Y29D02*
X218Y29D01*
X247Y29D02*
X249Y29D01*
X256Y29D02*
X258Y29D01*
X302Y29D02*
X303Y29D01*
X307Y29D02*
X307Y29D01*
X348Y29D02*
X350Y29D01*
X384Y29D02*
X384Y29D01*
X390Y29D02*
X393Y29D01*
X400Y29D02*
X407Y29D01*
X447Y29D02*
X456Y29D01*
X484Y29D02*
X485Y29D01*
X488Y29D02*
X489Y29D01*
X497Y29D02*
X499Y29D01*
X512Y29D02*
X514Y29D01*
X534Y29D02*
X535Y29D01*
X539Y29D02*
X543Y29D01*
X549Y29D02*
X550Y29D01*
X554Y29D02*
X555Y29D01*
X557Y29D02*
X558Y29D01*
X566Y29D02*
X567Y29D01*
X571Y29D02*
X572Y29D01*
X585Y29D02*
X586Y29D01*
X589Y29D02*
X590Y29D01*
X602Y29D02*
X603Y29D01*
X613Y29D02*
X614Y29D01*
X617Y29D02*
X619Y29D01*
X621Y29D02*
X622Y29D01*
X645Y29D02*
X652Y29D01*
X0Y28D02*
X7Y28D01*
X38Y28D02*
X39Y28D01*
X44Y28D02*
X45Y28D01*
X61Y28D02*
X63Y28D01*
X88Y28D02*
X89Y28D01*
X94Y28D02*
X95Y28D01*
X103Y28D02*
X112Y28D01*
X139Y28D02*
X140Y28D01*
X145Y28D02*
X146Y28D01*
X162Y28D02*
X164Y28D01*
X182Y28D02*
X184Y28D01*
X188Y28D02*
X189Y28D01*
X204Y28D02*
X205Y28D01*
X217Y28D02*
X218Y28D01*
X247Y28D02*
X249Y28D01*
X256Y28D02*
X258Y28D01*
X302Y28D02*
X303Y28D01*
X306Y28D02*
X308Y28D01*
X348Y28D02*
X350Y28D01*
X406Y28D02*
X407Y28D01*
X447Y28D02*
X456Y28D01*
X485Y28D02*
X486Y28D01*
X488Y28D02*
X489Y28D01*
X498Y28D02*
X499Y28D01*
X513Y28D02*
X514Y28D01*
X534Y28D02*
X535Y28D01*
X542Y28D02*
X543Y28D01*
X549Y28D02*
X550Y28D01*
X554Y28D02*
X555Y28D01*
X557Y28D02*
X558Y28D01*
X566Y28D02*
X567Y28D01*
X571Y28D02*
X572Y28D01*
X585Y28D02*
X587Y28D01*
X589Y28D02*
X590Y28D01*
X602Y28D02*
X603Y28D01*
X613Y28D02*
X614Y28D01*
X618Y28D02*
X619Y28D01*
X621Y28D02*
X622Y28D01*
X645Y28D02*
X652Y28D01*
X0Y27D02*
X7Y27D01*
X38Y27D02*
X45Y27D01*
X62Y27D02*
X63Y27D01*
X88Y27D02*
X95Y27D01*
X110Y27D02*
X111Y27D01*
X139Y27D02*
X146Y27D01*
X162Y27D02*
X164Y27D01*
X182Y27D02*
X184Y27D01*
X189Y27D02*
X190Y27D01*
X204Y27D02*
X206Y27D01*
X217Y27D02*
X218Y27D01*
X247Y27D02*
X249Y27D01*
X256Y27D02*
X258Y27D01*
X302Y27D02*
X303Y27D01*
X306Y27D02*
X308Y27D01*
X348Y27D02*
X350Y27D01*
X406Y27D02*
X407Y27D01*
X454Y27D02*
X456Y27D01*
X485Y27D02*
X489Y27D01*
X498Y27D02*
X500Y27D01*
X513Y27D02*
X515Y27D01*
X534Y27D02*
X535Y27D01*
X542Y27D02*
X543Y27D01*
X549Y27D02*
X550Y27D01*
X555Y27D02*
X558Y27D01*
X566Y27D02*
X567Y27D01*
X570Y27D02*
X572Y27D01*
X586Y27D02*
X589Y27D01*
X602Y27D02*
X603Y27D01*
X613Y27D02*
X614Y27D01*
X618Y27D02*
X622Y27D01*
X645Y27D02*
X652Y27D01*
X0Y26D02*
X7Y26D01*
X37Y26D02*
X46Y26D01*
X62Y26D02*
X63Y26D01*
X87Y26D02*
X96Y26D01*
X110Y26D02*
X111Y26D01*
X138Y26D02*
X147Y26D01*
X162Y26D02*
X164Y26D01*
X182Y26D02*
X184Y26D01*
X189Y26D02*
X191Y26D01*
X198Y26D02*
X198Y26D01*
X205Y26D02*
X207Y26D01*
X217Y26D02*
X218Y26D01*
X247Y26D02*
X249Y26D01*
X256Y26D02*
X258Y26D01*
X302Y26D02*
X303Y26D01*
X306Y26D02*
X308Y26D01*
X348Y26D02*
X350Y26D01*
X406Y26D02*
X407Y26D01*
X454Y26D02*
X455Y26D01*
X485Y26D02*
X488Y26D01*
X499Y26D02*
X500Y26D01*
X514Y26D02*
X515Y26D01*
X534Y26D02*
X535Y26D01*
X542Y26D02*
X543Y26D01*
X549Y26D02*
X550Y26D01*
X555Y26D02*
X558Y26D01*
X566Y26D02*
X567Y26D01*
X570Y26D02*
X571Y26D01*
X586Y26D02*
X589Y26D01*
X602Y26D02*
X603Y26D01*
X613Y26D02*
X614Y26D01*
X619Y26D02*
X622Y26D01*
X645Y26D02*
X652Y26D01*
X0Y25D02*
X7Y25D01*
X37Y25D02*
X38Y25D01*
X45Y25D02*
X46Y25D01*
X62Y25D02*
X63Y25D01*
X87Y25D02*
X88Y25D01*
X95Y25D02*
X96Y25D01*
X110Y25D02*
X111Y25D01*
X138Y25D02*
X139Y25D01*
X145Y25D02*
X147Y25D01*
X162Y25D02*
X164Y25D01*
X182Y25D02*
X184Y25D01*
X190Y25D02*
X191Y25D01*
X198Y25D02*
X199Y25D01*
X206Y25D02*
X207Y25D01*
X217Y25D02*
X218Y25D01*
X247Y25D02*
X249Y25D01*
X256Y25D02*
X258Y25D01*
X302Y25D02*
X303Y25D01*
X306Y25D02*
X308Y25D01*
X348Y25D02*
X350Y25D01*
X406Y25D02*
X407Y25D01*
X454Y25D02*
X455Y25D01*
X486Y25D02*
X488Y25D01*
X499Y25D02*
X501Y25D01*
X514Y25D02*
X516Y25D01*
X534Y25D02*
X536Y25D01*
X541Y25D02*
X543Y25D01*
X549Y25D02*
X550Y25D01*
X555Y25D02*
X558Y25D01*
X565Y25D02*
X567Y25D01*
X569Y25D02*
X571Y25D01*
X587Y25D02*
X589Y25D01*
X602Y25D02*
X603Y25D01*
X613Y25D02*
X614Y25D01*
X619Y25D02*
X622Y25D01*
X645Y25D02*
X652Y25D01*
X0Y24D02*
X7Y24D01*
X37Y24D02*
X38Y24D01*
X45Y24D02*
X46Y24D01*
X61Y24D02*
X63Y24D01*
X87Y24D02*
X88Y24D01*
X95Y24D02*
X96Y24D01*
X110Y24D02*
X111Y24D01*
X138Y24D02*
X139Y24D01*
X146Y24D02*
X147Y24D01*
X154Y24D02*
X156Y24D01*
X162Y24D02*
X164Y24D01*
X182Y24D02*
X184Y24D01*
X190Y24D02*
X192Y24D01*
X198Y24D02*
X207Y24D01*
X217Y24D02*
X218Y24D01*
X247Y24D02*
X257Y24D01*
X302Y24D02*
X303Y24D01*
X306Y24D02*
X308Y24D01*
X348Y24D02*
X358Y24D01*
X406Y24D02*
X407Y24D01*
X454Y24D02*
X455Y24D01*
X486Y24D02*
X488Y24D01*
X500Y24D02*
X506Y24D01*
X515Y24D02*
X521Y24D01*
X535Y24D02*
X543Y24D01*
X549Y24D02*
X550Y24D01*
X556Y24D02*
X558Y24D01*
X564Y24D02*
X570Y24D01*
X587Y24D02*
X588Y24D01*
X598Y24D02*
X607Y24D01*
X613Y24D02*
X614Y24D01*
X620Y24D02*
X622Y24D01*
X645Y24D02*
X652Y24D01*
X0Y23D02*
X7Y23D01*
X36Y23D02*
X38Y23D01*
X45Y23D02*
X47Y23D01*
X53Y23D02*
X63Y23D01*
X86Y23D02*
X88Y23D01*
X95Y23D02*
X96Y23D01*
X110Y23D02*
X111Y23D01*
X137Y23D02*
X139Y23D01*
X146Y23D02*
X147Y23D01*
X154Y23D02*
X163Y23D01*
X183Y23D02*
X183Y23D01*
X191Y23D02*
X191Y23D01*
X199Y23D02*
X206Y23D01*
X217Y23D02*
X217Y23D01*
X248Y23D02*
X257Y23D01*
X298Y23D02*
X308Y23D01*
X348Y23D02*
X358Y23D01*
X397Y23D02*
X407Y23D01*
X454Y23D02*
X455Y23D01*
X487Y23D02*
X487Y23D01*
X502Y23D02*
X506Y23D01*
X516Y23D02*
X520Y23D01*
X536Y23D02*
X541Y23D01*
X556Y23D02*
X558Y23D01*
X564Y23D02*
X568Y23D01*
X588Y23D02*
X588Y23D01*
X598Y23D02*
X606Y23D01*
X613Y23D02*
X613Y23D01*
X620Y23D02*
X622Y23D01*
X645Y23D02*
X652Y23D01*
X0Y22D02*
X7Y22D01*
X37Y22D02*
X37Y22D01*
X46Y22D02*
X46Y22D01*
X53Y22D02*
X62Y22D01*
X87Y22D02*
X87Y22D01*
X96Y22D02*
X96Y22D01*
X110Y22D02*
X111Y22D01*
X138Y22D02*
X138Y22D01*
X147Y22D02*
X147Y22D01*
X155Y22D02*
X163Y22D01*
X249Y22D02*
X255Y22D01*
X298Y22D02*
X307Y22D01*
X349Y22D02*
X358Y22D01*
X397Y22D02*
X406Y22D01*
X454Y22D02*
X455Y22D01*
X645Y22D02*
X652Y22D01*
X0Y21D02*
X7Y21D01*
X645Y21D02*
X652Y21D01*
X0Y20D02*
X7Y20D01*
X645Y20D02*
X652Y20D01*
X0Y19D02*
X7Y19D01*
X645Y19D02*
X652Y19D01*
X0Y18D02*
X7Y18D01*
X645Y18D02*
X652Y18D01*
X0Y17D02*
X7Y17D01*
X645Y17D02*
X652Y17D01*
X0Y16D02*
X7Y16D01*
X645Y16D02*
X652Y16D01*
X0Y15D02*
X7Y15D01*
X645Y15D02*
X652Y15D01*
X0Y14D02*
X7Y14D01*
X645Y14D02*
X652Y14D01*
X0Y13D02*
X7Y13D01*
X645Y13D02*
X652Y13D01*
X0Y12D02*
X7Y12D01*
X645Y12D02*
X652Y12D01*
X0Y11D02*
X7Y11D01*
X645Y11D02*
X652Y11D01*
X0Y10D02*
X7Y10D01*
X645Y10D02*
X652Y10D01*
X0Y9D02*
X652Y9D01*
X0Y8D02*
X652Y8D01*
X0Y7D02*
X652Y7D01*
X0Y6D02*
X652Y6D01*
X0Y5D02*
X652Y5D01*
X0Y4D02*
X652Y4D01*
X0Y3D02*
X652Y3D01*
X0Y2D02*
X652Y2D01*
D02*
G04 End of Silk1*
M02*