G04 MADE WITH FRITZING*
G04 WWW.FRITZING.ORG*
G04 DOUBLE SIDED*
G04 HOLES PLATED*
G04 CONTOUR ON CENTER OF CONTOUR VECTOR*
%ASAXBY*%
%FSLAX23Y23*%
%MOIN*%
%OFA0B0*%
%SFA1.0B1.0*%
%ADD10C,0.075000*%
%ADD11C,0.042426*%
%ADD12C,0.039370*%
%ADD13R,0.039370X0.027559*%
%ADD14R,0.019667X0.013987*%
%ADD15R,0.013987X0.019667*%
%ADD16C,0.016000*%
%LNCOPPER1*%
G90*
G70*
G54D10*
X550Y300D03*
G54D11*
X50Y398D03*
X100Y398D03*
X150Y398D03*
X200Y398D03*
X250Y398D03*
X300Y398D03*
X350Y398D03*
X400Y398D03*
X450Y398D03*
X500Y398D03*
X550Y398D03*
X600Y398D03*
X52Y66D03*
X102Y66D03*
X152Y66D03*
X202Y66D03*
X252Y66D03*
X302Y66D03*
X352Y66D03*
X402Y66D03*
X452Y66D03*
X502Y66D03*
X552Y66D03*
X602Y66D03*
G54D12*
X262Y141D03*
G54D13*
X381Y207D03*
X381Y255D03*
X436Y255D03*
X436Y207D03*
X206Y208D03*
X206Y255D03*
X261Y255D03*
X261Y208D03*
G54D14*
X381Y174D03*
X381Y144D03*
X262Y310D03*
X262Y280D03*
X207Y312D03*
X207Y283D03*
X437Y313D03*
X437Y283D03*
G54D15*
X133Y208D03*
X163Y208D03*
G54D14*
X382Y312D03*
X382Y282D03*
G54D16*
X381Y199D02*
X381Y175D01*
D02*
X401Y104D02*
X401Y83D01*
D02*
X381Y143D02*
X381Y126D01*
D02*
X381Y126D02*
X401Y104D01*
D02*
X450Y381D02*
X450Y371D01*
D02*
X450Y371D02*
X382Y323D01*
D02*
X382Y323D02*
X382Y313D01*
D02*
X381Y263D02*
X382Y281D01*
D02*
X436Y263D02*
X437Y282D01*
D02*
X439Y314D02*
X500Y355D01*
D02*
X500Y355D02*
X500Y381D01*
D02*
X192Y208D02*
X164Y208D01*
D02*
X132Y322D02*
X133Y212D01*
D02*
X199Y367D02*
X132Y322D01*
D02*
X200Y381D02*
X199Y367D01*
D02*
X207Y281D02*
X207Y264D01*
D02*
X251Y359D02*
X251Y381D01*
D02*
X207Y314D02*
X208Y328D01*
D02*
X208Y328D02*
X251Y359D01*
D02*
X262Y264D02*
X262Y279D01*
D02*
X300Y381D02*
X301Y339D01*
D02*
X301Y339D02*
X264Y311D01*
D02*
X262Y160D02*
X261Y200D01*
D02*
X450Y207D02*
X532Y206D01*
D02*
X532Y206D02*
X602Y133D01*
D02*
X602Y133D02*
X602Y83D01*
G36*
X64Y377D02*
X64Y375D01*
X86Y375D01*
X86Y377D01*
X64Y377D01*
G37*
D02*
G36*
X114Y377D02*
X114Y375D01*
X110Y375D01*
X110Y373D01*
X104Y373D01*
X104Y371D01*
X146Y371D01*
X146Y373D01*
X140Y373D01*
X140Y375D01*
X136Y375D01*
X136Y377D01*
X114Y377D01*
G37*
D02*
G36*
X364Y377D02*
X364Y375D01*
X360Y375D01*
X360Y373D01*
X354Y373D01*
X354Y371D01*
X394Y371D01*
X394Y373D01*
X390Y373D01*
X390Y375D01*
X386Y375D01*
X386Y377D01*
X364Y377D01*
G37*
D02*
G36*
X60Y375D02*
X60Y373D01*
X54Y373D01*
X54Y371D01*
X96Y371D01*
X96Y373D01*
X90Y373D01*
X90Y375D01*
X60Y375D01*
G37*
D02*
G36*
X318Y375D02*
X318Y371D01*
X346Y371D01*
X346Y373D01*
X340Y373D01*
X340Y375D01*
X318Y375D01*
G37*
D02*
G36*
X40Y371D02*
X40Y369D01*
X146Y369D01*
X146Y371D01*
X40Y371D01*
G37*
D02*
G36*
X40Y371D02*
X40Y369D01*
X146Y369D01*
X146Y371D01*
X40Y371D01*
G37*
D02*
G36*
X318Y371D02*
X318Y369D01*
X394Y369D01*
X394Y371D01*
X318Y371D01*
G37*
D02*
G36*
X318Y371D02*
X318Y369D01*
X394Y369D01*
X394Y371D01*
X318Y371D01*
G37*
D02*
G36*
X40Y369D02*
X40Y111D01*
X260Y111D01*
X260Y113D01*
X252Y113D01*
X252Y115D01*
X248Y115D01*
X248Y117D01*
X246Y117D01*
X246Y119D01*
X244Y119D01*
X244Y121D01*
X240Y121D01*
X240Y125D01*
X238Y125D01*
X238Y127D01*
X236Y127D01*
X236Y131D01*
X234Y131D01*
X234Y135D01*
X232Y135D01*
X232Y147D01*
X234Y147D01*
X234Y153D01*
X236Y153D01*
X236Y155D01*
X238Y155D01*
X238Y159D01*
X240Y159D01*
X240Y161D01*
X242Y161D01*
X242Y163D01*
X244Y163D01*
X244Y185D01*
X176Y185D01*
X176Y189D01*
X116Y189D01*
X116Y211D01*
X114Y211D01*
X114Y327D01*
X116Y327D01*
X116Y331D01*
X118Y331D01*
X118Y335D01*
X120Y335D01*
X120Y337D01*
X124Y337D01*
X124Y339D01*
X126Y339D01*
X126Y341D01*
X130Y341D01*
X130Y343D01*
X132Y343D01*
X132Y345D01*
X136Y345D01*
X136Y347D01*
X138Y347D01*
X138Y349D01*
X142Y349D01*
X142Y351D01*
X144Y351D01*
X144Y353D01*
X146Y353D01*
X146Y369D01*
X40Y369D01*
G37*
D02*
G36*
X318Y369D02*
X318Y349D01*
X320Y349D01*
X320Y337D01*
X318Y337D01*
X318Y331D01*
X316Y331D01*
X316Y329D01*
X314Y329D01*
X314Y327D01*
X312Y327D01*
X312Y325D01*
X310Y325D01*
X310Y323D01*
X308Y323D01*
X308Y321D01*
X304Y321D01*
X304Y319D01*
X302Y319D01*
X302Y317D01*
X300Y317D01*
X300Y315D01*
X296Y315D01*
X296Y313D01*
X294Y313D01*
X294Y311D01*
X292Y311D01*
X292Y309D01*
X288Y309D01*
X288Y307D01*
X286Y307D01*
X286Y305D01*
X284Y305D01*
X284Y303D01*
X282Y303D01*
X282Y279D01*
X290Y279D01*
X290Y185D01*
X280Y185D01*
X280Y163D01*
X282Y163D01*
X282Y161D01*
X284Y161D01*
X284Y157D01*
X286Y157D01*
X286Y155D01*
X288Y155D01*
X288Y151D01*
X290Y151D01*
X290Y145D01*
X292Y145D01*
X292Y139D01*
X290Y139D01*
X290Y131D01*
X288Y131D01*
X288Y127D01*
X286Y127D01*
X286Y125D01*
X284Y125D01*
X284Y123D01*
X282Y123D01*
X282Y121D01*
X280Y121D01*
X280Y119D01*
X278Y119D01*
X278Y117D01*
X274Y117D01*
X274Y115D01*
X272Y115D01*
X272Y113D01*
X264Y113D01*
X264Y111D01*
X370Y111D01*
X370Y113D01*
X368Y113D01*
X368Y115D01*
X366Y115D01*
X366Y119D01*
X364Y119D01*
X364Y127D01*
X362Y127D01*
X362Y183D01*
X352Y183D01*
X352Y279D01*
X362Y279D01*
X362Y329D01*
X366Y329D01*
X366Y333D01*
X368Y333D01*
X368Y337D01*
X372Y337D01*
X372Y339D01*
X374Y339D01*
X374Y341D01*
X376Y341D01*
X376Y343D01*
X380Y343D01*
X380Y345D01*
X382Y345D01*
X382Y347D01*
X386Y347D01*
X386Y349D01*
X388Y349D01*
X388Y351D01*
X390Y351D01*
X390Y353D01*
X394Y353D01*
X394Y369D01*
X318Y369D01*
G37*
D02*
G36*
X40Y111D02*
X40Y109D01*
X372Y109D01*
X372Y111D01*
X40Y111D01*
G37*
D02*
G36*
X40Y111D02*
X40Y109D01*
X372Y109D01*
X372Y111D01*
X40Y111D01*
G37*
D02*
G36*
X40Y109D02*
X40Y93D01*
X360Y93D01*
X360Y91D01*
X380Y91D01*
X380Y101D01*
X378Y101D01*
X378Y105D01*
X376Y105D01*
X376Y107D01*
X374Y107D01*
X374Y109D01*
X40Y109D01*
G37*
D02*
G36*
X60Y93D02*
X60Y91D01*
X64Y91D01*
X64Y89D01*
X66Y89D01*
X66Y87D01*
X88Y87D01*
X88Y89D01*
X90Y89D01*
X90Y91D01*
X94Y91D01*
X94Y93D01*
X60Y93D01*
G37*
D02*
G36*
X110Y93D02*
X110Y91D01*
X114Y91D01*
X114Y89D01*
X116Y89D01*
X116Y87D01*
X138Y87D01*
X138Y89D01*
X140Y89D01*
X140Y91D01*
X144Y91D01*
X144Y93D01*
X110Y93D01*
G37*
D02*
G36*
X160Y93D02*
X160Y91D01*
X164Y91D01*
X164Y89D01*
X166Y89D01*
X166Y87D01*
X188Y87D01*
X188Y89D01*
X190Y89D01*
X190Y91D01*
X194Y91D01*
X194Y93D01*
X160Y93D01*
G37*
D02*
G36*
X210Y93D02*
X210Y91D01*
X214Y91D01*
X214Y89D01*
X216Y89D01*
X216Y87D01*
X238Y87D01*
X238Y89D01*
X240Y89D01*
X240Y91D01*
X244Y91D01*
X244Y93D01*
X210Y93D01*
G37*
D02*
G36*
X260Y93D02*
X260Y91D01*
X264Y91D01*
X264Y89D01*
X266Y89D01*
X266Y87D01*
X288Y87D01*
X288Y89D01*
X290Y89D01*
X290Y91D01*
X294Y91D01*
X294Y93D01*
X260Y93D01*
G37*
D02*
G36*
X310Y93D02*
X310Y91D01*
X314Y91D01*
X314Y89D01*
X316Y89D01*
X316Y87D01*
X338Y87D01*
X338Y89D01*
X340Y89D01*
X340Y91D01*
X344Y91D01*
X344Y93D01*
X310Y93D01*
G37*
D02*
G36*
X564Y377D02*
X564Y375D01*
X560Y375D01*
X560Y373D01*
X554Y373D01*
X554Y371D01*
X596Y371D01*
X596Y373D01*
X590Y373D01*
X590Y375D01*
X586Y375D01*
X586Y377D01*
X564Y377D01*
G37*
D02*
G36*
X518Y375D02*
X518Y371D01*
X546Y371D01*
X546Y373D01*
X540Y373D01*
X540Y375D01*
X518Y375D01*
G37*
D02*
G36*
X518Y371D02*
X518Y369D01*
X612Y369D01*
X612Y371D01*
X518Y371D01*
G37*
D02*
G36*
X518Y371D02*
X518Y369D01*
X612Y369D01*
X612Y371D01*
X518Y371D01*
G37*
D02*
G36*
X518Y369D02*
X518Y349D01*
X516Y349D01*
X516Y345D01*
X514Y345D01*
X514Y343D01*
X512Y343D01*
X512Y341D01*
X510Y341D01*
X510Y339D01*
X506Y339D01*
X506Y337D01*
X504Y337D01*
X504Y335D01*
X500Y335D01*
X500Y333D01*
X498Y333D01*
X498Y331D01*
X494Y331D01*
X494Y329D01*
X492Y329D01*
X492Y327D01*
X488Y327D01*
X488Y325D01*
X486Y325D01*
X486Y323D01*
X482Y323D01*
X482Y321D01*
X480Y321D01*
X480Y319D01*
X476Y319D01*
X476Y317D01*
X474Y317D01*
X474Y315D01*
X470Y315D01*
X470Y313D01*
X468Y313D01*
X468Y311D01*
X464Y311D01*
X464Y309D01*
X462Y309D01*
X462Y307D01*
X458Y307D01*
X458Y305D01*
X456Y305D01*
X456Y279D01*
X466Y279D01*
X466Y225D01*
X532Y225D01*
X532Y223D01*
X540Y223D01*
X540Y221D01*
X544Y221D01*
X544Y219D01*
X546Y219D01*
X546Y217D01*
X548Y217D01*
X548Y215D01*
X550Y215D01*
X550Y213D01*
X552Y213D01*
X552Y211D01*
X554Y211D01*
X554Y209D01*
X556Y209D01*
X556Y205D01*
X558Y205D01*
X558Y203D01*
X560Y203D01*
X560Y201D01*
X562Y201D01*
X562Y199D01*
X564Y199D01*
X564Y197D01*
X566Y197D01*
X566Y195D01*
X568Y195D01*
X568Y193D01*
X570Y193D01*
X570Y191D01*
X572Y191D01*
X572Y189D01*
X574Y189D01*
X574Y187D01*
X576Y187D01*
X576Y185D01*
X578Y185D01*
X578Y183D01*
X580Y183D01*
X580Y181D01*
X582Y181D01*
X582Y179D01*
X584Y179D01*
X584Y177D01*
X586Y177D01*
X586Y175D01*
X588Y175D01*
X588Y173D01*
X590Y173D01*
X590Y171D01*
X592Y171D01*
X592Y169D01*
X612Y169D01*
X612Y369D01*
X518Y369D01*
G37*
D02*
G36*
X168Y325D02*
X168Y323D01*
X164Y323D01*
X164Y321D01*
X162Y321D01*
X162Y319D01*
X158Y319D01*
X158Y317D01*
X156Y317D01*
X156Y315D01*
X152Y315D01*
X152Y313D01*
X150Y313D01*
X150Y229D01*
X176Y229D01*
X176Y279D01*
X188Y279D01*
X188Y325D01*
X168Y325D01*
G37*
D02*
G36*
X466Y189D02*
X466Y183D01*
X400Y183D01*
X400Y131D01*
X402Y131D01*
X402Y129D01*
X404Y129D01*
X404Y127D01*
X406Y127D01*
X406Y125D01*
X408Y125D01*
X408Y123D01*
X410Y123D01*
X410Y119D01*
X412Y119D01*
X412Y117D01*
X414Y117D01*
X414Y115D01*
X416Y115D01*
X416Y111D01*
X418Y111D01*
X418Y93D01*
X560Y93D01*
X560Y91D01*
X564Y91D01*
X564Y89D01*
X584Y89D01*
X584Y127D01*
X582Y127D01*
X582Y129D01*
X580Y129D01*
X580Y131D01*
X578Y131D01*
X578Y133D01*
X576Y133D01*
X576Y135D01*
X574Y135D01*
X574Y137D01*
X572Y137D01*
X572Y139D01*
X570Y139D01*
X570Y141D01*
X568Y141D01*
X568Y145D01*
X566Y145D01*
X566Y147D01*
X564Y147D01*
X564Y149D01*
X562Y149D01*
X562Y151D01*
X560Y151D01*
X560Y153D01*
X558Y153D01*
X558Y155D01*
X556Y155D01*
X556Y157D01*
X554Y157D01*
X554Y159D01*
X552Y159D01*
X552Y161D01*
X550Y161D01*
X550Y163D01*
X548Y163D01*
X548Y165D01*
X546Y165D01*
X546Y167D01*
X544Y167D01*
X544Y169D01*
X542Y169D01*
X542Y171D01*
X540Y171D01*
X540Y173D01*
X538Y173D01*
X538Y175D01*
X536Y175D01*
X536Y177D01*
X534Y177D01*
X534Y179D01*
X532Y179D01*
X532Y181D01*
X530Y181D01*
X530Y183D01*
X528Y183D01*
X528Y185D01*
X526Y185D01*
X526Y187D01*
X524Y187D01*
X524Y189D01*
X466Y189D01*
G37*
D02*
G36*
X418Y93D02*
X418Y91D01*
X420Y91D01*
X420Y89D01*
X440Y89D01*
X440Y91D01*
X444Y91D01*
X444Y93D01*
X418Y93D01*
G37*
D02*
G36*
X460Y93D02*
X460Y91D01*
X464Y91D01*
X464Y89D01*
X466Y89D01*
X466Y87D01*
X488Y87D01*
X488Y89D01*
X490Y89D01*
X490Y91D01*
X494Y91D01*
X494Y93D01*
X460Y93D01*
G37*
D02*
G36*
X510Y93D02*
X510Y91D01*
X514Y91D01*
X514Y89D01*
X516Y89D01*
X516Y87D01*
X538Y87D01*
X538Y89D01*
X540Y89D01*
X540Y91D01*
X544Y91D01*
X544Y93D01*
X510Y93D01*
G37*
D02*
G04 End of Copper1*
M02*