G04 MADE WITH FRITZING*
G04 WWW.FRITZING.ORG*
G04 DOUBLE SIDED*
G04 HOLES PLATED*
G04 CONTOUR ON CENTER OF CONTOUR VECTOR*
%ASAXBY*%
%FSLAX23Y23*%
%MOIN*%
%OFA0B0*%
%SFA1.0B1.0*%
%ADD10R,1.019510X0.473676X1.003510X0.457676*%
%ADD11C,0.008000*%
%LNSILK0*%
G90*
G70*
G54D11*
X4Y470D02*
X1016Y470D01*
X1016Y4D01*
X4Y4D01*
X4Y470D01*
D02*
G36*
X306Y387D02*
X306Y385D01*
X313Y385D01*
X313Y384D01*
X316Y384D01*
X316Y383D01*
X318Y383D01*
X318Y381D01*
X316Y381D01*
X316Y380D01*
X315Y380D01*
X315Y378D01*
X313Y378D01*
X313Y377D01*
X312Y377D01*
X312Y375D01*
X311Y375D01*
X311Y374D01*
X309Y374D01*
X309Y372D01*
X308Y372D01*
X308Y371D01*
X75Y371D01*
X75Y370D01*
X68Y370D01*
X68Y368D01*
X65Y368D01*
X65Y367D01*
X62Y367D01*
X62Y365D01*
X59Y365D01*
X59Y364D01*
X58Y364D01*
X58Y362D01*
X56Y362D01*
X56Y361D01*
X55Y361D01*
X55Y359D01*
X53Y359D01*
X53Y358D01*
X52Y358D01*
X52Y357D01*
X51Y357D01*
X51Y354D01*
X49Y354D01*
X49Y352D01*
X48Y352D01*
X48Y349D01*
X46Y349D01*
X46Y345D01*
X45Y345D01*
X45Y133D01*
X29Y133D01*
X29Y358D01*
X30Y358D01*
X30Y362D01*
X32Y362D01*
X32Y365D01*
X33Y365D01*
X33Y368D01*
X35Y368D01*
X35Y370D01*
X36Y370D01*
X36Y372D01*
X38Y372D01*
X38Y374D01*
X39Y374D01*
X39Y375D01*
X40Y375D01*
X40Y377D01*
X42Y377D01*
X42Y378D01*
X45Y378D01*
X45Y380D01*
X46Y380D01*
X46Y381D01*
X49Y381D01*
X49Y383D01*
X52Y383D01*
X52Y384D01*
X56Y384D01*
X56Y385D01*
X62Y385D01*
X62Y387D01*
X306Y387D01*
G37*
D02*
G36*
X306Y371D02*
X306Y370D01*
X305Y370D01*
X305Y368D01*
X303Y368D01*
X303Y367D01*
X302Y367D01*
X302Y365D01*
X300Y365D01*
X300Y364D01*
X299Y364D01*
X299Y362D01*
X298Y362D01*
X298Y361D01*
X296Y361D01*
X296Y359D01*
X295Y359D01*
X295Y358D01*
X293Y358D01*
X293Y357D01*
X292Y357D01*
X292Y355D01*
X290Y355D01*
X290Y354D01*
X289Y354D01*
X289Y352D01*
X287Y352D01*
X287Y351D01*
X286Y351D01*
X286Y349D01*
X285Y349D01*
X285Y348D01*
X283Y348D01*
X283Y346D01*
X282Y346D01*
X282Y345D01*
X280Y345D01*
X280Y344D01*
X279Y344D01*
X279Y342D01*
X277Y342D01*
X277Y341D01*
X276Y341D01*
X276Y339D01*
X274Y339D01*
X274Y338D01*
X273Y338D01*
X273Y336D01*
X272Y336D01*
X272Y335D01*
X270Y335D01*
X270Y333D01*
X269Y333D01*
X269Y332D01*
X267Y332D01*
X267Y331D01*
X266Y331D01*
X266Y329D01*
X264Y329D01*
X264Y328D01*
X263Y328D01*
X263Y326D01*
X261Y326D01*
X261Y325D01*
X260Y325D01*
X260Y323D01*
X259Y323D01*
X259Y322D01*
X257Y322D01*
X257Y320D01*
X256Y320D01*
X256Y319D01*
X254Y319D01*
X254Y318D01*
X253Y318D01*
X253Y316D01*
X251Y316D01*
X251Y315D01*
X250Y315D01*
X250Y313D01*
X248Y313D01*
X248Y312D01*
X247Y312D01*
X247Y310D01*
X246Y310D01*
X246Y309D01*
X244Y309D01*
X244Y307D01*
X243Y307D01*
X243Y306D01*
X241Y306D01*
X241Y305D01*
X218Y305D01*
X218Y306D01*
X220Y306D01*
X220Y307D01*
X221Y307D01*
X221Y309D01*
X222Y309D01*
X222Y310D01*
X224Y310D01*
X224Y312D01*
X225Y312D01*
X225Y313D01*
X227Y313D01*
X227Y315D01*
X228Y315D01*
X228Y316D01*
X230Y316D01*
X230Y318D01*
X231Y318D01*
X231Y319D01*
X233Y319D01*
X233Y320D01*
X234Y320D01*
X234Y322D01*
X235Y322D01*
X235Y323D01*
X237Y323D01*
X237Y325D01*
X238Y325D01*
X238Y326D01*
X240Y326D01*
X240Y328D01*
X241Y328D01*
X241Y329D01*
X243Y329D01*
X243Y331D01*
X244Y331D01*
X244Y332D01*
X246Y332D01*
X246Y333D01*
X247Y333D01*
X247Y335D01*
X248Y335D01*
X248Y336D01*
X250Y336D01*
X250Y338D01*
X251Y338D01*
X251Y339D01*
X253Y339D01*
X253Y341D01*
X254Y341D01*
X254Y342D01*
X256Y342D01*
X256Y344D01*
X257Y344D01*
X257Y345D01*
X259Y345D01*
X259Y346D01*
X260Y346D01*
X260Y348D01*
X261Y348D01*
X261Y349D01*
X263Y349D01*
X263Y351D01*
X264Y351D01*
X264Y352D01*
X266Y352D01*
X266Y354D01*
X267Y354D01*
X267Y355D01*
X269Y355D01*
X269Y357D01*
X270Y357D01*
X270Y358D01*
X272Y358D01*
X272Y359D01*
X273Y359D01*
X273Y361D01*
X274Y361D01*
X274Y362D01*
X276Y362D01*
X276Y364D01*
X277Y364D01*
X277Y365D01*
X279Y365D01*
X279Y367D01*
X280Y367D01*
X280Y368D01*
X282Y368D01*
X282Y371D01*
X306Y371D01*
G37*
D02*
G36*
X81Y351D02*
X81Y349D01*
X82Y349D01*
X82Y348D01*
X84Y348D01*
X84Y346D01*
X74Y346D01*
X74Y344D01*
X72Y344D01*
X72Y341D01*
X74Y341D01*
X74Y338D01*
X69Y338D01*
X69Y339D01*
X68Y339D01*
X68Y345D01*
X69Y345D01*
X69Y348D01*
X71Y348D01*
X71Y349D01*
X72Y349D01*
X72Y351D01*
X81Y351D01*
G37*
D02*
G36*
X133Y349D02*
X133Y348D01*
X134Y348D01*
X134Y346D01*
X136Y346D01*
X136Y345D01*
X126Y345D01*
X126Y344D01*
X124Y344D01*
X124Y338D01*
X126Y338D01*
X126Y336D01*
X120Y336D01*
X120Y345D01*
X121Y345D01*
X121Y346D01*
X123Y346D01*
X123Y348D01*
X124Y348D01*
X124Y349D01*
X133Y349D01*
G37*
D02*
G36*
X181Y346D02*
X181Y345D01*
X183Y345D01*
X183Y344D01*
X185Y344D01*
X185Y342D01*
X175Y342D01*
X175Y341D01*
X173Y341D01*
X173Y335D01*
X175Y335D01*
X175Y333D01*
X169Y333D01*
X169Y336D01*
X168Y336D01*
X168Y339D01*
X169Y339D01*
X169Y342D01*
X170Y342D01*
X170Y344D01*
X172Y344D01*
X172Y345D01*
X173Y345D01*
X173Y346D01*
X181Y346D01*
G37*
D02*
G36*
X85Y346D02*
X85Y338D01*
X79Y338D01*
X79Y339D01*
X81Y339D01*
X81Y345D01*
X79Y345D01*
X79Y346D01*
X85Y346D01*
G37*
D02*
G36*
X137Y345D02*
X137Y336D01*
X131Y336D01*
X131Y338D01*
X133Y338D01*
X133Y344D01*
X130Y344D01*
X130Y345D01*
X137Y345D01*
G37*
D02*
G36*
X185Y342D02*
X185Y341D01*
X186Y341D01*
X186Y335D01*
X185Y335D01*
X185Y333D01*
X181Y333D01*
X181Y336D01*
X182Y336D01*
X182Y339D01*
X181Y339D01*
X181Y341D01*
X179Y341D01*
X179Y342D01*
X185Y342D01*
G37*
D02*
G36*
X85Y338D02*
X85Y336D01*
X69Y336D01*
X69Y338D01*
X85Y338D01*
G37*
D02*
G36*
X85Y338D02*
X85Y336D01*
X69Y336D01*
X69Y338D01*
X85Y338D01*
G37*
D02*
G36*
X136Y336D02*
X136Y335D01*
X121Y335D01*
X121Y336D01*
X136Y336D01*
G37*
D02*
G36*
X136Y336D02*
X136Y335D01*
X121Y335D01*
X121Y336D01*
X136Y336D01*
G37*
D02*
G36*
X85Y336D02*
X85Y335D01*
X87Y335D01*
X87Y333D01*
X88Y333D01*
X88Y332D01*
X90Y332D01*
X90Y331D01*
X91Y331D01*
X91Y329D01*
X92Y329D01*
X92Y328D01*
X94Y328D01*
X94Y326D01*
X95Y326D01*
X95Y325D01*
X97Y325D01*
X97Y323D01*
X98Y323D01*
X98Y322D01*
X100Y322D01*
X100Y320D01*
X101Y320D01*
X101Y319D01*
X103Y319D01*
X103Y318D01*
X104Y318D01*
X104Y316D01*
X105Y316D01*
X105Y315D01*
X107Y315D01*
X107Y313D01*
X108Y313D01*
X108Y312D01*
X110Y312D01*
X110Y310D01*
X111Y310D01*
X111Y309D01*
X113Y309D01*
X113Y307D01*
X114Y307D01*
X114Y306D01*
X116Y306D01*
X116Y305D01*
X117Y305D01*
X117Y303D01*
X118Y303D01*
X118Y302D01*
X120Y302D01*
X120Y300D01*
X121Y300D01*
X121Y299D01*
X123Y299D01*
X123Y297D01*
X124Y297D01*
X124Y296D01*
X126Y296D01*
X126Y294D01*
X127Y294D01*
X127Y293D01*
X129Y293D01*
X129Y292D01*
X130Y292D01*
X130Y290D01*
X131Y290D01*
X131Y289D01*
X133Y289D01*
X133Y287D01*
X134Y287D01*
X134Y286D01*
X136Y286D01*
X136Y284D01*
X137Y284D01*
X137Y283D01*
X139Y283D01*
X139Y250D01*
X140Y250D01*
X140Y242D01*
X136Y242D01*
X136Y281D01*
X134Y281D01*
X134Y283D01*
X133Y283D01*
X133Y284D01*
X131Y284D01*
X131Y286D01*
X130Y286D01*
X130Y287D01*
X129Y287D01*
X129Y289D01*
X127Y289D01*
X127Y290D01*
X126Y290D01*
X126Y292D01*
X124Y292D01*
X124Y293D01*
X123Y293D01*
X123Y294D01*
X121Y294D01*
X121Y296D01*
X120Y296D01*
X120Y297D01*
X118Y297D01*
X118Y299D01*
X117Y299D01*
X117Y300D01*
X116Y300D01*
X116Y302D01*
X114Y302D01*
X114Y303D01*
X113Y303D01*
X113Y305D01*
X111Y305D01*
X111Y306D01*
X110Y306D01*
X110Y307D01*
X108Y307D01*
X108Y309D01*
X107Y309D01*
X107Y310D01*
X105Y310D01*
X105Y312D01*
X104Y312D01*
X104Y313D01*
X103Y313D01*
X103Y315D01*
X101Y315D01*
X101Y316D01*
X100Y316D01*
X100Y318D01*
X98Y318D01*
X98Y319D01*
X97Y319D01*
X97Y320D01*
X95Y320D01*
X95Y322D01*
X94Y322D01*
X94Y323D01*
X92Y323D01*
X92Y325D01*
X91Y325D01*
X91Y326D01*
X90Y326D01*
X90Y328D01*
X88Y328D01*
X88Y329D01*
X87Y329D01*
X87Y331D01*
X85Y331D01*
X85Y332D01*
X84Y332D01*
X84Y333D01*
X72Y333D01*
X72Y335D01*
X71Y335D01*
X71Y336D01*
X85Y336D01*
G37*
D02*
G36*
X134Y335D02*
X134Y333D01*
X133Y333D01*
X133Y332D01*
X129Y332D01*
X129Y320D01*
X130Y320D01*
X130Y319D01*
X131Y319D01*
X131Y318D01*
X133Y318D01*
X133Y316D01*
X134Y316D01*
X134Y315D01*
X136Y315D01*
X136Y313D01*
X137Y313D01*
X137Y312D01*
X139Y312D01*
X139Y310D01*
X140Y310D01*
X140Y309D01*
X142Y309D01*
X142Y307D01*
X143Y307D01*
X143Y306D01*
X144Y306D01*
X144Y305D01*
X146Y305D01*
X146Y303D01*
X147Y303D01*
X147Y302D01*
X149Y302D01*
X149Y300D01*
X150Y300D01*
X150Y299D01*
X152Y299D01*
X152Y297D01*
X153Y297D01*
X153Y296D01*
X155Y296D01*
X155Y294D01*
X156Y294D01*
X156Y293D01*
X157Y293D01*
X157Y292D01*
X159Y292D01*
X159Y290D01*
X160Y290D01*
X160Y289D01*
X162Y289D01*
X162Y287D01*
X163Y287D01*
X163Y266D01*
X160Y266D01*
X160Y284D01*
X159Y284D01*
X159Y286D01*
X157Y286D01*
X157Y287D01*
X156Y287D01*
X156Y289D01*
X155Y289D01*
X155Y290D01*
X153Y290D01*
X153Y292D01*
X152Y292D01*
X152Y293D01*
X150Y293D01*
X150Y294D01*
X149Y294D01*
X149Y296D01*
X147Y296D01*
X147Y297D01*
X146Y297D01*
X146Y299D01*
X144Y299D01*
X144Y300D01*
X143Y300D01*
X143Y302D01*
X142Y302D01*
X142Y303D01*
X140Y303D01*
X140Y305D01*
X139Y305D01*
X139Y306D01*
X137Y306D01*
X137Y307D01*
X136Y307D01*
X136Y309D01*
X134Y309D01*
X134Y310D01*
X133Y310D01*
X133Y312D01*
X131Y312D01*
X131Y313D01*
X130Y313D01*
X130Y315D01*
X129Y315D01*
X129Y316D01*
X127Y316D01*
X127Y318D01*
X126Y318D01*
X126Y332D01*
X124Y332D01*
X124Y333D01*
X123Y333D01*
X123Y335D01*
X134Y335D01*
G37*
D02*
G36*
X185Y333D02*
X185Y332D01*
X169Y332D01*
X169Y333D01*
X185Y333D01*
G37*
D02*
G36*
X185Y333D02*
X185Y332D01*
X169Y332D01*
X169Y333D01*
X185Y333D01*
G37*
D02*
G36*
X185Y332D02*
X185Y329D01*
X178Y329D01*
X178Y328D01*
X176Y328D01*
X176Y329D01*
X172Y329D01*
X172Y331D01*
X170Y331D01*
X170Y332D01*
X185Y332D01*
G37*
D02*
G36*
X186Y329D02*
X186Y328D01*
X188Y328D01*
X188Y326D01*
X189Y326D01*
X189Y325D01*
X191Y325D01*
X191Y323D01*
X192Y323D01*
X192Y322D01*
X194Y322D01*
X194Y320D01*
X195Y320D01*
X195Y319D01*
X196Y319D01*
X196Y318D01*
X198Y318D01*
X198Y316D01*
X199Y316D01*
X199Y315D01*
X201Y315D01*
X201Y313D01*
X202Y313D01*
X202Y312D01*
X204Y312D01*
X204Y310D01*
X205Y310D01*
X205Y309D01*
X207Y309D01*
X207Y307D01*
X202Y307D01*
X202Y309D01*
X201Y309D01*
X201Y310D01*
X199Y310D01*
X199Y312D01*
X198Y312D01*
X198Y313D01*
X196Y313D01*
X196Y315D01*
X195Y315D01*
X195Y316D01*
X194Y316D01*
X194Y318D01*
X192Y318D01*
X192Y319D01*
X191Y319D01*
X191Y320D01*
X189Y320D01*
X189Y322D01*
X188Y322D01*
X188Y323D01*
X186Y323D01*
X186Y325D01*
X185Y325D01*
X185Y326D01*
X183Y326D01*
X183Y328D01*
X182Y328D01*
X182Y329D01*
X186Y329D01*
G37*
D02*
G36*
X170Y318D02*
X170Y316D01*
X172Y316D01*
X172Y315D01*
X173Y315D01*
X173Y313D01*
X163Y313D01*
X163Y312D01*
X162Y312D01*
X162Y306D01*
X163Y306D01*
X163Y305D01*
X157Y305D01*
X157Y313D01*
X159Y313D01*
X159Y315D01*
X160Y315D01*
X160Y316D01*
X162Y316D01*
X162Y318D01*
X170Y318D01*
G37*
D02*
G36*
X175Y313D02*
X175Y305D01*
X169Y305D01*
X169Y306D01*
X170Y306D01*
X170Y312D01*
X169Y312D01*
X169Y313D01*
X175Y313D01*
G37*
D02*
G36*
X212Y309D02*
X212Y307D01*
X209Y307D01*
X209Y309D01*
X212Y309D01*
G37*
D02*
G36*
X214Y307D02*
X214Y306D01*
X204Y306D01*
X204Y307D01*
X214Y307D01*
G37*
D02*
G36*
X214Y307D02*
X214Y306D01*
X204Y306D01*
X204Y307D01*
X214Y307D01*
G37*
D02*
G36*
X215Y306D02*
X215Y305D01*
X205Y305D01*
X205Y306D01*
X215Y306D01*
G37*
D02*
G36*
X240Y305D02*
X240Y303D01*
X205Y303D01*
X205Y305D01*
X240Y305D01*
G37*
D02*
G36*
X240Y305D02*
X240Y303D01*
X205Y303D01*
X205Y305D01*
X240Y305D01*
G37*
D02*
G36*
X173Y305D02*
X173Y303D01*
X159Y303D01*
X159Y305D01*
X173Y305D01*
G37*
D02*
G36*
X173Y305D02*
X173Y303D01*
X159Y303D01*
X159Y305D01*
X173Y305D01*
G37*
D02*
G36*
X238Y303D02*
X238Y302D01*
X237Y302D01*
X237Y300D01*
X235Y300D01*
X235Y299D01*
X234Y299D01*
X234Y297D01*
X233Y297D01*
X233Y296D01*
X231Y296D01*
X231Y294D01*
X230Y294D01*
X230Y293D01*
X228Y293D01*
X228Y292D01*
X227Y292D01*
X227Y290D01*
X225Y290D01*
X225Y289D01*
X224Y289D01*
X224Y287D01*
X222Y287D01*
X222Y286D01*
X221Y286D01*
X221Y284D01*
X198Y284D01*
X198Y286D01*
X199Y286D01*
X199Y287D01*
X201Y287D01*
X201Y289D01*
X202Y289D01*
X202Y290D01*
X204Y290D01*
X204Y292D01*
X205Y292D01*
X205Y293D01*
X207Y293D01*
X207Y297D01*
X205Y297D01*
X205Y299D01*
X204Y299D01*
X204Y300D01*
X202Y300D01*
X202Y302D01*
X204Y302D01*
X204Y303D01*
X238Y303D01*
G37*
D02*
G36*
X173Y303D02*
X173Y302D01*
X175Y302D01*
X175Y300D01*
X176Y300D01*
X176Y299D01*
X178Y299D01*
X178Y297D01*
X179Y297D01*
X179Y296D01*
X181Y296D01*
X181Y294D01*
X182Y294D01*
X182Y293D01*
X183Y293D01*
X183Y292D01*
X185Y292D01*
X185Y290D01*
X186Y290D01*
X186Y289D01*
X182Y289D01*
X182Y290D01*
X181Y290D01*
X181Y292D01*
X179Y292D01*
X179Y293D01*
X178Y293D01*
X178Y294D01*
X176Y294D01*
X176Y296D01*
X175Y296D01*
X175Y297D01*
X173Y297D01*
X173Y299D01*
X172Y299D01*
X172Y300D01*
X162Y300D01*
X162Y302D01*
X160Y302D01*
X160Y303D01*
X173Y303D01*
G37*
D02*
G36*
X94Y293D02*
X94Y292D01*
X95Y292D01*
X95Y290D01*
X97Y290D01*
X97Y289D01*
X87Y289D01*
X87Y287D01*
X85Y287D01*
X85Y281D01*
X87Y281D01*
X87Y280D01*
X81Y280D01*
X81Y289D01*
X82Y289D01*
X82Y290D01*
X84Y290D01*
X84Y292D01*
X85Y292D01*
X85Y293D01*
X94Y293D01*
G37*
D02*
G36*
X191Y290D02*
X191Y289D01*
X189Y289D01*
X189Y290D01*
X191Y290D01*
G37*
D02*
G36*
X192Y289D02*
X192Y287D01*
X183Y287D01*
X183Y289D01*
X192Y289D01*
G37*
D02*
G36*
X192Y289D02*
X192Y287D01*
X183Y287D01*
X183Y289D01*
X192Y289D01*
G37*
D02*
G36*
X97Y289D02*
X97Y287D01*
X98Y287D01*
X98Y280D01*
X92Y280D01*
X92Y283D01*
X94Y283D01*
X94Y286D01*
X92Y286D01*
X92Y287D01*
X91Y287D01*
X91Y289D01*
X97Y289D01*
G37*
D02*
G36*
X194Y287D02*
X194Y286D01*
X195Y286D01*
X195Y284D01*
X185Y284D01*
X185Y287D01*
X194Y287D01*
G37*
D02*
G36*
X220Y284D02*
X220Y283D01*
X183Y283D01*
X183Y284D01*
X220Y284D01*
G37*
D02*
G36*
X220Y284D02*
X220Y283D01*
X183Y283D01*
X183Y284D01*
X220Y284D01*
G37*
D02*
G36*
X218Y283D02*
X218Y281D01*
X217Y281D01*
X217Y280D01*
X215Y280D01*
X215Y279D01*
X214Y279D01*
X214Y277D01*
X212Y277D01*
X212Y276D01*
X211Y276D01*
X211Y274D01*
X209Y274D01*
X209Y273D01*
X208Y273D01*
X208Y271D01*
X207Y271D01*
X207Y270D01*
X205Y270D01*
X205Y268D01*
X204Y268D01*
X204Y267D01*
X202Y267D01*
X202Y266D01*
X201Y266D01*
X201Y264D01*
X199Y264D01*
X199Y263D01*
X176Y263D01*
X176Y264D01*
X178Y264D01*
X178Y266D01*
X179Y266D01*
X179Y267D01*
X181Y267D01*
X181Y268D01*
X182Y268D01*
X182Y270D01*
X183Y270D01*
X183Y271D01*
X185Y271D01*
X185Y273D01*
X186Y273D01*
X186Y274D01*
X188Y274D01*
X188Y276D01*
X186Y276D01*
X186Y277D01*
X185Y277D01*
X185Y279D01*
X183Y279D01*
X183Y280D01*
X182Y280D01*
X182Y283D01*
X218Y283D01*
G37*
D02*
G36*
X97Y280D02*
X97Y279D01*
X82Y279D01*
X82Y280D01*
X97Y280D01*
G37*
D02*
G36*
X97Y280D02*
X97Y279D01*
X82Y279D01*
X82Y280D01*
X97Y280D01*
G37*
D02*
G36*
X98Y279D02*
X98Y277D01*
X100Y277D01*
X100Y276D01*
X101Y276D01*
X101Y274D01*
X103Y274D01*
X103Y273D01*
X104Y273D01*
X104Y271D01*
X105Y271D01*
X105Y270D01*
X107Y270D01*
X107Y268D01*
X108Y268D01*
X108Y267D01*
X110Y267D01*
X110Y266D01*
X111Y266D01*
X111Y264D01*
X113Y264D01*
X113Y263D01*
X114Y263D01*
X114Y261D01*
X116Y261D01*
X116Y260D01*
X117Y260D01*
X117Y258D01*
X118Y258D01*
X118Y224D01*
X120Y224D01*
X120Y222D01*
X116Y222D01*
X116Y255D01*
X114Y255D01*
X114Y257D01*
X113Y257D01*
X113Y258D01*
X111Y258D01*
X111Y260D01*
X110Y260D01*
X110Y261D01*
X108Y261D01*
X108Y263D01*
X107Y263D01*
X107Y264D01*
X105Y264D01*
X105Y266D01*
X104Y266D01*
X104Y267D01*
X103Y267D01*
X103Y268D01*
X101Y268D01*
X101Y270D01*
X100Y270D01*
X100Y271D01*
X98Y271D01*
X98Y273D01*
X97Y273D01*
X97Y274D01*
X95Y274D01*
X95Y276D01*
X85Y276D01*
X85Y277D01*
X82Y277D01*
X82Y279D01*
X98Y279D01*
G37*
D02*
G36*
X169Y268D02*
X169Y267D01*
X170Y267D01*
X170Y266D01*
X166Y266D01*
X166Y267D01*
X168Y267D01*
X168Y268D01*
X169Y268D01*
G37*
D02*
G36*
X172Y266D02*
X172Y264D01*
X160Y264D01*
X160Y266D01*
X172Y266D01*
G37*
D02*
G36*
X172Y266D02*
X172Y264D01*
X160Y264D01*
X160Y266D01*
X172Y266D01*
G37*
D02*
G36*
X173Y264D02*
X173Y263D01*
X160Y263D01*
X160Y264D01*
X173Y264D01*
G37*
D02*
G36*
X198Y263D02*
X198Y261D01*
X162Y261D01*
X162Y263D01*
X198Y263D01*
G37*
D02*
G36*
X198Y263D02*
X198Y261D01*
X162Y261D01*
X162Y263D01*
X198Y263D01*
G37*
D02*
G36*
X196Y261D02*
X196Y260D01*
X195Y260D01*
X195Y258D01*
X194Y258D01*
X194Y257D01*
X192Y257D01*
X192Y255D01*
X191Y255D01*
X191Y254D01*
X189Y254D01*
X189Y253D01*
X188Y253D01*
X188Y251D01*
X186Y251D01*
X186Y250D01*
X185Y250D01*
X185Y248D01*
X183Y248D01*
X183Y247D01*
X182Y247D01*
X182Y245D01*
X181Y245D01*
X181Y244D01*
X179Y244D01*
X179Y242D01*
X178Y242D01*
X178Y241D01*
X176Y241D01*
X176Y240D01*
X153Y240D01*
X153Y241D01*
X155Y241D01*
X155Y242D01*
X156Y242D01*
X156Y244D01*
X157Y244D01*
X157Y245D01*
X159Y245D01*
X159Y247D01*
X160Y247D01*
X160Y248D01*
X162Y248D01*
X162Y250D01*
X163Y250D01*
X163Y251D01*
X165Y251D01*
X165Y255D01*
X163Y255D01*
X163Y257D01*
X162Y257D01*
X162Y258D01*
X160Y258D01*
X160Y261D01*
X196Y261D01*
G37*
D02*
G36*
X146Y245D02*
X146Y244D01*
X147Y244D01*
X147Y242D01*
X143Y242D01*
X143Y244D01*
X144Y244D01*
X144Y245D01*
X146Y245D01*
G37*
D02*
G36*
X75Y245D02*
X75Y244D01*
X78Y244D01*
X78Y242D01*
X79Y242D01*
X79Y241D01*
X81Y241D01*
X81Y240D01*
X69Y240D01*
X69Y232D01*
X65Y232D01*
X65Y234D01*
X64Y234D01*
X64Y238D01*
X65Y238D01*
X65Y241D01*
X66Y241D01*
X66Y242D01*
X68Y242D01*
X68Y244D01*
X71Y244D01*
X71Y245D01*
X75Y245D01*
G37*
D02*
G36*
X149Y242D02*
X149Y241D01*
X137Y241D01*
X137Y242D01*
X149Y242D01*
G37*
D02*
G36*
X149Y242D02*
X149Y241D01*
X137Y241D01*
X137Y242D01*
X149Y242D01*
G37*
D02*
G36*
X150Y241D02*
X150Y240D01*
X139Y240D01*
X139Y241D01*
X150Y241D01*
G37*
D02*
G36*
X175Y240D02*
X175Y238D01*
X139Y238D01*
X139Y240D01*
X175Y240D01*
G37*
D02*
G36*
X175Y240D02*
X175Y238D01*
X139Y238D01*
X139Y240D01*
X175Y240D01*
G37*
D02*
G36*
X81Y240D02*
X81Y238D01*
X82Y238D01*
X82Y234D01*
X81Y234D01*
X81Y232D01*
X77Y232D01*
X77Y240D01*
X81Y240D01*
G37*
D02*
G36*
X173Y238D02*
X173Y237D01*
X172Y237D01*
X172Y235D01*
X170Y235D01*
X170Y234D01*
X169Y234D01*
X169Y232D01*
X168Y232D01*
X168Y231D01*
X166Y231D01*
X166Y229D01*
X165Y229D01*
X165Y228D01*
X163Y228D01*
X163Y227D01*
X162Y227D01*
X162Y225D01*
X160Y225D01*
X160Y224D01*
X159Y224D01*
X159Y222D01*
X157Y222D01*
X157Y221D01*
X156Y221D01*
X156Y219D01*
X133Y219D01*
X133Y221D01*
X134Y221D01*
X134Y222D01*
X136Y222D01*
X136Y224D01*
X137Y224D01*
X137Y225D01*
X139Y225D01*
X139Y227D01*
X140Y227D01*
X140Y228D01*
X142Y228D01*
X142Y232D01*
X140Y232D01*
X140Y234D01*
X139Y234D01*
X139Y235D01*
X137Y235D01*
X137Y238D01*
X173Y238D01*
G37*
D02*
G36*
X81Y232D02*
X81Y231D01*
X65Y231D01*
X65Y232D01*
X81Y232D01*
G37*
D02*
G36*
X81Y232D02*
X81Y231D01*
X65Y231D01*
X65Y232D01*
X81Y232D01*
G37*
D02*
G36*
X79Y231D02*
X79Y229D01*
X81Y229D01*
X81Y228D01*
X75Y228D01*
X75Y227D01*
X71Y227D01*
X71Y228D01*
X68Y228D01*
X68Y229D01*
X66Y229D01*
X66Y231D01*
X79Y231D01*
G37*
D02*
G36*
X82Y228D02*
X82Y227D01*
X84Y227D01*
X84Y225D01*
X85Y225D01*
X85Y224D01*
X87Y224D01*
X87Y222D01*
X88Y222D01*
X88Y221D01*
X90Y221D01*
X90Y219D01*
X91Y219D01*
X91Y218D01*
X92Y218D01*
X92Y216D01*
X94Y216D01*
X94Y215D01*
X95Y215D01*
X95Y214D01*
X97Y214D01*
X97Y212D01*
X98Y212D01*
X98Y211D01*
X100Y211D01*
X100Y209D01*
X101Y209D01*
X101Y208D01*
X103Y208D01*
X103Y206D01*
X97Y206D01*
X97Y208D01*
X95Y208D01*
X95Y209D01*
X94Y209D01*
X94Y211D01*
X92Y211D01*
X92Y212D01*
X91Y212D01*
X91Y214D01*
X90Y214D01*
X90Y215D01*
X88Y215D01*
X88Y216D01*
X87Y216D01*
X87Y218D01*
X85Y218D01*
X85Y219D01*
X84Y219D01*
X84Y221D01*
X82Y221D01*
X82Y222D01*
X81Y222D01*
X81Y224D01*
X79Y224D01*
X79Y225D01*
X78Y225D01*
X78Y227D01*
X77Y227D01*
X77Y228D01*
X82Y228D01*
G37*
D02*
G36*
X126Y224D02*
X126Y222D01*
X123Y222D01*
X123Y224D01*
X126Y224D01*
G37*
D02*
G36*
X127Y222D02*
X127Y221D01*
X117Y221D01*
X117Y222D01*
X127Y222D01*
G37*
D02*
G36*
X127Y222D02*
X127Y221D01*
X117Y221D01*
X117Y222D01*
X127Y222D01*
G37*
D02*
G36*
X129Y221D02*
X129Y219D01*
X118Y219D01*
X118Y221D01*
X129Y221D01*
G37*
D02*
G36*
X155Y219D02*
X155Y218D01*
X118Y218D01*
X118Y219D01*
X155Y219D01*
G37*
D02*
G36*
X155Y219D02*
X155Y218D01*
X118Y218D01*
X118Y219D01*
X155Y219D01*
G37*
D02*
G36*
X153Y218D02*
X153Y216D01*
X152Y216D01*
X152Y215D01*
X150Y215D01*
X150Y214D01*
X149Y214D01*
X149Y212D01*
X147Y212D01*
X147Y211D01*
X146Y211D01*
X146Y209D01*
X144Y209D01*
X144Y208D01*
X143Y208D01*
X143Y206D01*
X142Y206D01*
X142Y205D01*
X140Y205D01*
X140Y203D01*
X139Y203D01*
X139Y202D01*
X116Y202D01*
X116Y203D01*
X117Y203D01*
X117Y205D01*
X118Y205D01*
X118Y206D01*
X120Y206D01*
X120Y208D01*
X121Y208D01*
X121Y212D01*
X120Y212D01*
X120Y214D01*
X118Y214D01*
X118Y215D01*
X117Y215D01*
X117Y218D01*
X153Y218D01*
G37*
D02*
G36*
X107Y208D02*
X107Y206D01*
X105Y206D01*
X105Y208D01*
X107Y208D01*
G37*
D02*
G36*
X108Y206D02*
X108Y205D01*
X98Y205D01*
X98Y206D01*
X108Y206D01*
G37*
D02*
G36*
X108Y206D02*
X108Y205D01*
X98Y205D01*
X98Y206D01*
X108Y206D01*
G37*
D02*
G36*
X110Y205D02*
X110Y203D01*
X111Y203D01*
X111Y202D01*
X101Y202D01*
X101Y203D01*
X100Y203D01*
X100Y205D01*
X110Y205D01*
G37*
D02*
G36*
X137Y202D02*
X137Y201D01*
X100Y201D01*
X100Y202D01*
X137Y202D01*
G37*
D02*
G36*
X137Y202D02*
X137Y201D01*
X100Y201D01*
X100Y202D01*
X137Y202D01*
G37*
D02*
G36*
X136Y201D02*
X136Y199D01*
X134Y199D01*
X134Y198D01*
X133Y198D01*
X133Y196D01*
X131Y196D01*
X131Y195D01*
X130Y195D01*
X130Y193D01*
X129Y193D01*
X129Y192D01*
X127Y192D01*
X127Y190D01*
X126Y190D01*
X126Y189D01*
X124Y189D01*
X124Y188D01*
X123Y188D01*
X123Y186D01*
X121Y186D01*
X121Y185D01*
X120Y185D01*
X120Y183D01*
X118Y183D01*
X118Y182D01*
X117Y182D01*
X117Y180D01*
X116Y180D01*
X116Y179D01*
X114Y179D01*
X114Y177D01*
X113Y177D01*
X113Y176D01*
X111Y176D01*
X111Y175D01*
X110Y175D01*
X110Y173D01*
X108Y173D01*
X108Y172D01*
X107Y172D01*
X107Y170D01*
X105Y170D01*
X105Y169D01*
X104Y169D01*
X104Y167D01*
X103Y167D01*
X103Y166D01*
X101Y166D01*
X101Y164D01*
X100Y164D01*
X100Y163D01*
X98Y163D01*
X98Y162D01*
X97Y162D01*
X97Y160D01*
X95Y160D01*
X95Y159D01*
X94Y159D01*
X94Y157D01*
X92Y157D01*
X92Y156D01*
X91Y156D01*
X91Y154D01*
X90Y154D01*
X90Y153D01*
X88Y153D01*
X88Y151D01*
X87Y151D01*
X87Y150D01*
X85Y150D01*
X85Y149D01*
X84Y149D01*
X84Y147D01*
X82Y147D01*
X82Y146D01*
X81Y146D01*
X81Y144D01*
X79Y144D01*
X79Y143D01*
X78Y143D01*
X78Y141D01*
X77Y141D01*
X77Y140D01*
X75Y140D01*
X75Y138D01*
X74Y138D01*
X74Y137D01*
X72Y137D01*
X72Y136D01*
X71Y136D01*
X71Y134D01*
X69Y134D01*
X69Y133D01*
X46Y133D01*
X46Y134D01*
X48Y134D01*
X48Y136D01*
X49Y136D01*
X49Y137D01*
X51Y137D01*
X51Y138D01*
X52Y138D01*
X52Y140D01*
X53Y140D01*
X53Y141D01*
X55Y141D01*
X55Y143D01*
X56Y143D01*
X56Y144D01*
X58Y144D01*
X58Y146D01*
X59Y146D01*
X59Y147D01*
X61Y147D01*
X61Y149D01*
X62Y149D01*
X62Y150D01*
X64Y150D01*
X64Y151D01*
X65Y151D01*
X65Y153D01*
X66Y153D01*
X66Y154D01*
X68Y154D01*
X68Y156D01*
X69Y156D01*
X69Y157D01*
X71Y157D01*
X71Y159D01*
X72Y159D01*
X72Y160D01*
X74Y160D01*
X74Y162D01*
X75Y162D01*
X75Y163D01*
X77Y163D01*
X77Y164D01*
X78Y164D01*
X78Y166D01*
X79Y166D01*
X79Y167D01*
X81Y167D01*
X81Y169D01*
X82Y169D01*
X82Y170D01*
X84Y170D01*
X84Y172D01*
X85Y172D01*
X85Y173D01*
X87Y173D01*
X87Y175D01*
X88Y175D01*
X88Y176D01*
X90Y176D01*
X90Y177D01*
X91Y177D01*
X91Y179D01*
X92Y179D01*
X92Y180D01*
X94Y180D01*
X94Y182D01*
X95Y182D01*
X95Y183D01*
X97Y183D01*
X97Y185D01*
X98Y185D01*
X98Y186D01*
X100Y186D01*
X100Y188D01*
X101Y188D01*
X101Y189D01*
X103Y189D01*
X103Y190D01*
X104Y190D01*
X104Y193D01*
X103Y193D01*
X103Y195D01*
X101Y195D01*
X101Y196D01*
X100Y196D01*
X100Y198D01*
X98Y198D01*
X98Y201D01*
X136Y201D01*
G37*
D02*
G36*
X68Y133D02*
X68Y131D01*
X29Y131D01*
X29Y133D01*
X68Y133D01*
G37*
D02*
G36*
X68Y133D02*
X68Y131D01*
X29Y131D01*
X29Y133D01*
X68Y133D01*
G37*
D02*
G36*
X66Y131D02*
X66Y130D01*
X65Y130D01*
X65Y128D01*
X64Y128D01*
X64Y127D01*
X62Y127D01*
X62Y125D01*
X61Y125D01*
X61Y124D01*
X59Y124D01*
X59Y123D01*
X58Y123D01*
X58Y121D01*
X56Y121D01*
X56Y120D01*
X55Y120D01*
X55Y118D01*
X53Y118D01*
X53Y117D01*
X52Y117D01*
X52Y115D01*
X51Y115D01*
X51Y114D01*
X49Y114D01*
X49Y112D01*
X48Y112D01*
X48Y111D01*
X46Y111D01*
X46Y110D01*
X45Y110D01*
X45Y108D01*
X43Y108D01*
X43Y107D01*
X42Y107D01*
X42Y105D01*
X40Y105D01*
X40Y104D01*
X39Y104D01*
X39Y102D01*
X38Y102D01*
X38Y101D01*
X36Y101D01*
X36Y99D01*
X35Y99D01*
X35Y98D01*
X33Y98D01*
X33Y97D01*
X32Y97D01*
X32Y99D01*
X30Y99D01*
X30Y104D01*
X29Y104D01*
X29Y131D01*
X66Y131D01*
G37*
D02*
G36*
X337Y364D02*
X337Y362D01*
X338Y362D01*
X338Y359D01*
X339Y359D01*
X339Y352D01*
X341Y352D01*
X341Y328D01*
X322Y328D01*
X322Y326D01*
X321Y326D01*
X321Y325D01*
X319Y325D01*
X319Y323D01*
X318Y323D01*
X318Y322D01*
X316Y322D01*
X316Y320D01*
X315Y320D01*
X315Y319D01*
X313Y319D01*
X313Y318D01*
X312Y318D01*
X312Y316D01*
X311Y316D01*
X311Y315D01*
X309Y315D01*
X309Y313D01*
X308Y313D01*
X308Y312D01*
X306Y312D01*
X306Y310D01*
X305Y310D01*
X305Y309D01*
X303Y309D01*
X303Y307D01*
X302Y307D01*
X302Y306D01*
X300Y306D01*
X300Y305D01*
X299Y305D01*
X299Y303D01*
X298Y303D01*
X298Y302D01*
X296Y302D01*
X296Y300D01*
X295Y300D01*
X295Y299D01*
X293Y299D01*
X293Y297D01*
X292Y297D01*
X292Y296D01*
X290Y296D01*
X290Y294D01*
X289Y294D01*
X289Y293D01*
X287Y293D01*
X287Y292D01*
X286Y292D01*
X286Y290D01*
X285Y290D01*
X285Y289D01*
X283Y289D01*
X283Y287D01*
X282Y287D01*
X282Y286D01*
X280Y286D01*
X280Y284D01*
X279Y284D01*
X279Y283D01*
X277Y283D01*
X277Y281D01*
X276Y281D01*
X276Y280D01*
X274Y280D01*
X274Y279D01*
X273Y279D01*
X273Y277D01*
X272Y277D01*
X272Y276D01*
X270Y276D01*
X270Y274D01*
X269Y274D01*
X269Y273D01*
X267Y273D01*
X267Y271D01*
X266Y271D01*
X266Y270D01*
X264Y270D01*
X264Y267D01*
X266Y267D01*
X266Y266D01*
X267Y266D01*
X267Y264D01*
X269Y264D01*
X269Y263D01*
X270Y263D01*
X270Y260D01*
X254Y260D01*
X254Y258D01*
X253Y258D01*
X253Y257D01*
X251Y257D01*
X251Y255D01*
X250Y255D01*
X250Y254D01*
X248Y254D01*
X248Y253D01*
X247Y253D01*
X247Y250D01*
X248Y250D01*
X248Y248D01*
X250Y248D01*
X250Y247D01*
X251Y247D01*
X251Y245D01*
X253Y245D01*
X253Y244D01*
X251Y244D01*
X251Y242D01*
X237Y242D01*
X237Y241D01*
X235Y241D01*
X235Y240D01*
X234Y240D01*
X234Y238D01*
X233Y238D01*
X233Y237D01*
X231Y237D01*
X231Y235D01*
X230Y235D01*
X230Y234D01*
X228Y234D01*
X228Y232D01*
X227Y232D01*
X227Y229D01*
X228Y229D01*
X228Y228D01*
X230Y228D01*
X230Y227D01*
X231Y227D01*
X231Y225D01*
X233Y225D01*
X233Y224D01*
X231Y224D01*
X231Y222D01*
X217Y222D01*
X217Y221D01*
X215Y221D01*
X215Y219D01*
X214Y219D01*
X214Y218D01*
X212Y218D01*
X212Y216D01*
X211Y216D01*
X211Y215D01*
X209Y215D01*
X209Y214D01*
X208Y214D01*
X208Y212D01*
X207Y212D01*
X207Y211D01*
X205Y211D01*
X205Y209D01*
X204Y209D01*
X204Y206D01*
X205Y206D01*
X205Y205D01*
X207Y205D01*
X207Y203D01*
X208Y203D01*
X208Y202D01*
X209Y202D01*
X209Y201D01*
X208Y201D01*
X208Y199D01*
X194Y199D01*
X194Y198D01*
X192Y198D01*
X192Y196D01*
X191Y196D01*
X191Y195D01*
X189Y195D01*
X189Y193D01*
X188Y193D01*
X188Y192D01*
X186Y192D01*
X186Y190D01*
X185Y190D01*
X185Y189D01*
X183Y189D01*
X183Y188D01*
X182Y188D01*
X182Y183D01*
X183Y183D01*
X183Y182D01*
X185Y182D01*
X185Y180D01*
X186Y180D01*
X186Y177D01*
X185Y177D01*
X185Y176D01*
X170Y176D01*
X170Y175D01*
X169Y175D01*
X169Y173D01*
X168Y173D01*
X168Y172D01*
X166Y172D01*
X166Y170D01*
X165Y170D01*
X165Y169D01*
X163Y169D01*
X163Y167D01*
X162Y167D01*
X162Y164D01*
X163Y164D01*
X163Y163D01*
X165Y163D01*
X165Y162D01*
X166Y162D01*
X166Y159D01*
X165Y159D01*
X165Y157D01*
X152Y157D01*
X152Y156D01*
X150Y156D01*
X150Y154D01*
X149Y154D01*
X149Y153D01*
X147Y153D01*
X147Y151D01*
X146Y151D01*
X146Y150D01*
X144Y150D01*
X144Y149D01*
X143Y149D01*
X143Y147D01*
X142Y147D01*
X142Y146D01*
X140Y146D01*
X140Y144D01*
X139Y144D01*
X139Y143D01*
X137Y143D01*
X137Y141D01*
X136Y141D01*
X136Y140D01*
X134Y140D01*
X134Y138D01*
X133Y138D01*
X133Y137D01*
X131Y137D01*
X131Y136D01*
X130Y136D01*
X130Y134D01*
X129Y134D01*
X129Y133D01*
X127Y133D01*
X127Y131D01*
X126Y131D01*
X126Y130D01*
X124Y130D01*
X124Y128D01*
X123Y128D01*
X123Y127D01*
X121Y127D01*
X121Y125D01*
X120Y125D01*
X120Y124D01*
X118Y124D01*
X118Y123D01*
X117Y123D01*
X117Y121D01*
X116Y121D01*
X116Y120D01*
X114Y120D01*
X114Y118D01*
X113Y118D01*
X113Y117D01*
X111Y117D01*
X111Y115D01*
X110Y115D01*
X110Y114D01*
X108Y114D01*
X108Y112D01*
X107Y112D01*
X107Y111D01*
X105Y111D01*
X105Y110D01*
X104Y110D01*
X104Y108D01*
X103Y108D01*
X103Y107D01*
X101Y107D01*
X101Y105D01*
X100Y105D01*
X100Y104D01*
X98Y104D01*
X98Y102D01*
X97Y102D01*
X97Y101D01*
X95Y101D01*
X95Y99D01*
X94Y99D01*
X94Y98D01*
X92Y98D01*
X92Y97D01*
X91Y97D01*
X91Y95D01*
X90Y95D01*
X90Y94D01*
X88Y94D01*
X88Y92D01*
X87Y92D01*
X87Y91D01*
X64Y91D01*
X64Y92D01*
X65Y92D01*
X65Y94D01*
X66Y94D01*
X66Y95D01*
X68Y95D01*
X68Y97D01*
X69Y97D01*
X69Y98D01*
X71Y98D01*
X71Y99D01*
X72Y99D01*
X72Y101D01*
X74Y101D01*
X74Y102D01*
X75Y102D01*
X75Y104D01*
X77Y104D01*
X77Y105D01*
X78Y105D01*
X78Y107D01*
X79Y107D01*
X79Y108D01*
X81Y108D01*
X81Y110D01*
X82Y110D01*
X82Y111D01*
X84Y111D01*
X84Y112D01*
X85Y112D01*
X85Y114D01*
X87Y114D01*
X87Y115D01*
X88Y115D01*
X88Y117D01*
X90Y117D01*
X90Y118D01*
X91Y118D01*
X91Y120D01*
X92Y120D01*
X92Y121D01*
X94Y121D01*
X94Y123D01*
X95Y123D01*
X95Y124D01*
X97Y124D01*
X97Y125D01*
X98Y125D01*
X98Y127D01*
X100Y127D01*
X100Y128D01*
X101Y128D01*
X101Y130D01*
X103Y130D01*
X103Y131D01*
X104Y131D01*
X104Y133D01*
X105Y133D01*
X105Y134D01*
X107Y134D01*
X107Y136D01*
X108Y136D01*
X108Y137D01*
X110Y137D01*
X110Y138D01*
X111Y138D01*
X111Y140D01*
X113Y140D01*
X113Y141D01*
X114Y141D01*
X114Y143D01*
X116Y143D01*
X116Y144D01*
X117Y144D01*
X117Y146D01*
X118Y146D01*
X118Y147D01*
X120Y147D01*
X120Y149D01*
X121Y149D01*
X121Y150D01*
X123Y150D01*
X123Y151D01*
X124Y151D01*
X124Y153D01*
X126Y153D01*
X126Y154D01*
X127Y154D01*
X127Y156D01*
X129Y156D01*
X129Y157D01*
X130Y157D01*
X130Y159D01*
X131Y159D01*
X131Y160D01*
X133Y160D01*
X133Y162D01*
X134Y162D01*
X134Y163D01*
X136Y163D01*
X136Y164D01*
X137Y164D01*
X137Y166D01*
X139Y166D01*
X139Y167D01*
X140Y167D01*
X140Y169D01*
X142Y169D01*
X142Y170D01*
X143Y170D01*
X143Y172D01*
X144Y172D01*
X144Y173D01*
X146Y173D01*
X146Y175D01*
X147Y175D01*
X147Y176D01*
X149Y176D01*
X149Y177D01*
X150Y177D01*
X150Y179D01*
X152Y179D01*
X152Y180D01*
X153Y180D01*
X153Y182D01*
X155Y182D01*
X155Y183D01*
X156Y183D01*
X156Y185D01*
X157Y185D01*
X157Y186D01*
X159Y186D01*
X159Y188D01*
X160Y188D01*
X160Y189D01*
X162Y189D01*
X162Y190D01*
X163Y190D01*
X163Y192D01*
X165Y192D01*
X165Y193D01*
X166Y193D01*
X166Y195D01*
X168Y195D01*
X168Y196D01*
X169Y196D01*
X169Y198D01*
X170Y198D01*
X170Y199D01*
X172Y199D01*
X172Y201D01*
X173Y201D01*
X173Y202D01*
X175Y202D01*
X175Y203D01*
X176Y203D01*
X176Y205D01*
X178Y205D01*
X178Y206D01*
X179Y206D01*
X179Y208D01*
X181Y208D01*
X181Y209D01*
X182Y209D01*
X182Y211D01*
X183Y211D01*
X183Y212D01*
X185Y212D01*
X185Y214D01*
X186Y214D01*
X186Y215D01*
X188Y215D01*
X188Y216D01*
X189Y216D01*
X189Y218D01*
X191Y218D01*
X191Y219D01*
X192Y219D01*
X192Y221D01*
X194Y221D01*
X194Y222D01*
X195Y222D01*
X195Y224D01*
X196Y224D01*
X196Y225D01*
X198Y225D01*
X198Y227D01*
X199Y227D01*
X199Y228D01*
X201Y228D01*
X201Y229D01*
X202Y229D01*
X202Y231D01*
X204Y231D01*
X204Y232D01*
X205Y232D01*
X205Y234D01*
X207Y234D01*
X207Y235D01*
X208Y235D01*
X208Y237D01*
X209Y237D01*
X209Y238D01*
X211Y238D01*
X211Y240D01*
X212Y240D01*
X212Y241D01*
X214Y241D01*
X214Y242D01*
X215Y242D01*
X215Y244D01*
X217Y244D01*
X217Y245D01*
X218Y245D01*
X218Y247D01*
X220Y247D01*
X220Y248D01*
X221Y248D01*
X221Y250D01*
X222Y250D01*
X222Y251D01*
X224Y251D01*
X224Y253D01*
X225Y253D01*
X225Y254D01*
X227Y254D01*
X227Y255D01*
X228Y255D01*
X228Y257D01*
X230Y257D01*
X230Y258D01*
X231Y258D01*
X231Y260D01*
X233Y260D01*
X233Y261D01*
X234Y261D01*
X234Y263D01*
X235Y263D01*
X235Y264D01*
X237Y264D01*
X237Y266D01*
X238Y266D01*
X238Y267D01*
X240Y267D01*
X240Y268D01*
X241Y268D01*
X241Y270D01*
X243Y270D01*
X243Y271D01*
X244Y271D01*
X244Y273D01*
X246Y273D01*
X246Y274D01*
X247Y274D01*
X247Y276D01*
X248Y276D01*
X248Y277D01*
X250Y277D01*
X250Y279D01*
X251Y279D01*
X251Y280D01*
X253Y280D01*
X253Y281D01*
X254Y281D01*
X254Y283D01*
X256Y283D01*
X256Y284D01*
X257Y284D01*
X257Y286D01*
X259Y286D01*
X259Y287D01*
X260Y287D01*
X260Y289D01*
X261Y289D01*
X261Y290D01*
X263Y290D01*
X263Y292D01*
X264Y292D01*
X264Y293D01*
X266Y293D01*
X266Y294D01*
X267Y294D01*
X267Y296D01*
X269Y296D01*
X269Y297D01*
X270Y297D01*
X270Y299D01*
X272Y299D01*
X272Y300D01*
X273Y300D01*
X273Y302D01*
X274Y302D01*
X274Y303D01*
X276Y303D01*
X276Y305D01*
X277Y305D01*
X277Y306D01*
X279Y306D01*
X279Y307D01*
X280Y307D01*
X280Y309D01*
X282Y309D01*
X282Y310D01*
X283Y310D01*
X283Y312D01*
X285Y312D01*
X285Y313D01*
X286Y313D01*
X286Y315D01*
X287Y315D01*
X287Y316D01*
X289Y316D01*
X289Y318D01*
X290Y318D01*
X290Y319D01*
X292Y319D01*
X292Y320D01*
X293Y320D01*
X293Y322D01*
X295Y322D01*
X295Y323D01*
X296Y323D01*
X296Y325D01*
X298Y325D01*
X298Y326D01*
X299Y326D01*
X299Y328D01*
X300Y328D01*
X300Y329D01*
X302Y329D01*
X302Y331D01*
X303Y331D01*
X303Y332D01*
X305Y332D01*
X305Y333D01*
X306Y333D01*
X306Y335D01*
X308Y335D01*
X308Y336D01*
X309Y336D01*
X309Y338D01*
X311Y338D01*
X311Y339D01*
X312Y339D01*
X312Y341D01*
X313Y341D01*
X313Y342D01*
X315Y342D01*
X315Y344D01*
X316Y344D01*
X316Y345D01*
X318Y345D01*
X318Y346D01*
X319Y346D01*
X319Y348D01*
X321Y348D01*
X321Y349D01*
X322Y349D01*
X322Y351D01*
X324Y351D01*
X324Y352D01*
X325Y352D01*
X325Y354D01*
X326Y354D01*
X326Y355D01*
X328Y355D01*
X328Y357D01*
X329Y357D01*
X329Y358D01*
X331Y358D01*
X331Y359D01*
X332Y359D01*
X332Y361D01*
X334Y361D01*
X334Y362D01*
X335Y362D01*
X335Y364D01*
X337Y364D01*
G37*
D02*
G36*
X341Y328D02*
X341Y108D01*
X339Y108D01*
X339Y102D01*
X338Y102D01*
X338Y98D01*
X337Y98D01*
X337Y95D01*
X335Y95D01*
X335Y92D01*
X334Y92D01*
X334Y91D01*
X299Y91D01*
X299Y92D01*
X303Y92D01*
X303Y94D01*
X306Y94D01*
X306Y95D01*
X308Y95D01*
X308Y97D01*
X311Y97D01*
X311Y98D01*
X312Y98D01*
X312Y99D01*
X313Y99D01*
X313Y101D01*
X315Y101D01*
X315Y102D01*
X316Y102D01*
X316Y104D01*
X318Y104D01*
X318Y105D01*
X319Y105D01*
X319Y108D01*
X321Y108D01*
X321Y111D01*
X322Y111D01*
X322Y115D01*
X324Y115D01*
X324Y121D01*
X325Y121D01*
X325Y328D01*
X341Y328D01*
G37*
D02*
G36*
X269Y260D02*
X269Y255D01*
X264Y255D01*
X264Y254D01*
X261Y254D01*
X261Y255D01*
X260Y255D01*
X260Y257D01*
X259Y257D01*
X259Y258D01*
X257Y258D01*
X257Y260D01*
X269Y260D01*
G37*
D02*
G36*
X270Y255D02*
X270Y254D01*
X272Y254D01*
X272Y253D01*
X273Y253D01*
X273Y251D01*
X274Y251D01*
X274Y250D01*
X276Y250D01*
X276Y248D01*
X277Y248D01*
X277Y247D01*
X279Y247D01*
X279Y245D01*
X280Y245D01*
X280Y244D01*
X282Y244D01*
X282Y242D01*
X283Y242D01*
X283Y241D01*
X285Y241D01*
X285Y240D01*
X286Y240D01*
X286Y238D01*
X287Y238D01*
X287Y237D01*
X289Y237D01*
X289Y235D01*
X290Y235D01*
X290Y234D01*
X300Y234D01*
X300Y232D01*
X302Y232D01*
X302Y231D01*
X303Y231D01*
X303Y229D01*
X293Y229D01*
X293Y228D01*
X292Y228D01*
X292Y222D01*
X293Y222D01*
X293Y221D01*
X287Y221D01*
X287Y229D01*
X289Y229D01*
X289Y232D01*
X287Y232D01*
X287Y234D01*
X286Y234D01*
X286Y235D01*
X285Y235D01*
X285Y237D01*
X283Y237D01*
X283Y238D01*
X282Y238D01*
X282Y240D01*
X280Y240D01*
X280Y241D01*
X279Y241D01*
X279Y242D01*
X277Y242D01*
X277Y244D01*
X276Y244D01*
X276Y245D01*
X274Y245D01*
X274Y247D01*
X273Y247D01*
X273Y248D01*
X272Y248D01*
X272Y250D01*
X270Y250D01*
X270Y251D01*
X269Y251D01*
X269Y253D01*
X267Y253D01*
X267Y254D01*
X266Y254D01*
X266Y255D01*
X270Y255D01*
G37*
D02*
G36*
X250Y242D02*
X250Y241D01*
X251Y241D01*
X251Y240D01*
X253Y240D01*
X253Y238D01*
X246Y238D01*
X246Y237D01*
X243Y237D01*
X243Y238D01*
X241Y238D01*
X241Y240D01*
X240Y240D01*
X240Y241D01*
X238Y241D01*
X238Y242D01*
X250Y242D01*
G37*
D02*
G36*
X253Y238D02*
X253Y205D01*
X254Y205D01*
X254Y203D01*
X256Y203D01*
X256Y202D01*
X257Y202D01*
X257Y201D01*
X259Y201D01*
X259Y199D01*
X260Y199D01*
X260Y198D01*
X261Y198D01*
X261Y196D01*
X263Y196D01*
X263Y195D01*
X264Y195D01*
X264Y193D01*
X266Y193D01*
X266Y192D01*
X267Y192D01*
X267Y190D01*
X269Y190D01*
X269Y189D01*
X270Y189D01*
X270Y188D01*
X272Y188D01*
X272Y186D01*
X273Y186D01*
X273Y185D01*
X269Y185D01*
X269Y186D01*
X267Y186D01*
X267Y188D01*
X266Y188D01*
X266Y189D01*
X264Y189D01*
X264Y190D01*
X263Y190D01*
X263Y192D01*
X261Y192D01*
X261Y193D01*
X260Y193D01*
X260Y195D01*
X259Y195D01*
X259Y196D01*
X257Y196D01*
X257Y198D01*
X256Y198D01*
X256Y199D01*
X254Y199D01*
X254Y201D01*
X253Y201D01*
X253Y202D01*
X251Y202D01*
X251Y203D01*
X250Y203D01*
X250Y238D01*
X253Y238D01*
G37*
D02*
G36*
X305Y229D02*
X305Y221D01*
X299Y221D01*
X299Y222D01*
X300Y222D01*
X300Y227D01*
X299Y227D01*
X299Y228D01*
X298Y228D01*
X298Y229D01*
X305Y229D01*
G37*
D02*
G36*
X230Y222D02*
X230Y221D01*
X231Y221D01*
X231Y219D01*
X233Y219D01*
X233Y218D01*
X225Y218D01*
X225Y216D01*
X222Y216D01*
X222Y218D01*
X221Y218D01*
X221Y219D01*
X220Y219D01*
X220Y221D01*
X218Y221D01*
X218Y222D01*
X230Y222D01*
G37*
D02*
G36*
X303Y221D02*
X303Y219D01*
X289Y219D01*
X289Y221D01*
X303Y221D01*
G37*
D02*
G36*
X303Y221D02*
X303Y219D01*
X289Y219D01*
X289Y221D01*
X303Y221D01*
G37*
D02*
G36*
X302Y219D02*
X302Y218D01*
X300Y218D01*
X300Y216D01*
X292Y216D01*
X292Y218D01*
X289Y218D01*
X289Y219D01*
X302Y219D01*
G37*
D02*
G36*
X233Y218D02*
X233Y180D01*
X234Y180D01*
X234Y179D01*
X235Y179D01*
X235Y177D01*
X237Y177D01*
X237Y176D01*
X238Y176D01*
X238Y175D01*
X240Y175D01*
X240Y173D01*
X241Y173D01*
X241Y172D01*
X243Y172D01*
X243Y170D01*
X244Y170D01*
X244Y169D01*
X246Y169D01*
X246Y167D01*
X247Y167D01*
X247Y166D01*
X248Y166D01*
X248Y164D01*
X250Y164D01*
X250Y163D01*
X251Y163D01*
X251Y162D01*
X253Y162D01*
X253Y160D01*
X254Y160D01*
X254Y159D01*
X256Y159D01*
X256Y157D01*
X257Y157D01*
X257Y156D01*
X259Y156D01*
X259Y154D01*
X260Y154D01*
X260Y153D01*
X261Y153D01*
X261Y151D01*
X263Y151D01*
X263Y150D01*
X264Y150D01*
X264Y149D01*
X266Y149D01*
X266Y147D01*
X267Y147D01*
X267Y146D01*
X269Y146D01*
X269Y144D01*
X270Y144D01*
X270Y143D01*
X272Y143D01*
X272Y141D01*
X273Y141D01*
X273Y140D01*
X274Y140D01*
X274Y138D01*
X276Y138D01*
X276Y137D01*
X277Y137D01*
X277Y136D01*
X279Y136D01*
X279Y134D01*
X280Y134D01*
X280Y133D01*
X282Y133D01*
X282Y131D01*
X283Y131D01*
X283Y130D01*
X285Y130D01*
X285Y128D01*
X286Y128D01*
X286Y127D01*
X282Y127D01*
X282Y128D01*
X280Y128D01*
X280Y130D01*
X279Y130D01*
X279Y131D01*
X277Y131D01*
X277Y133D01*
X276Y133D01*
X276Y134D01*
X274Y134D01*
X274Y136D01*
X273Y136D01*
X273Y137D01*
X272Y137D01*
X272Y138D01*
X270Y138D01*
X270Y140D01*
X269Y140D01*
X269Y141D01*
X267Y141D01*
X267Y143D01*
X266Y143D01*
X266Y144D01*
X264Y144D01*
X264Y146D01*
X263Y146D01*
X263Y147D01*
X261Y147D01*
X261Y149D01*
X260Y149D01*
X260Y150D01*
X259Y150D01*
X259Y151D01*
X257Y151D01*
X257Y153D01*
X256Y153D01*
X256Y154D01*
X254Y154D01*
X254Y156D01*
X253Y156D01*
X253Y157D01*
X251Y157D01*
X251Y159D01*
X250Y159D01*
X250Y160D01*
X248Y160D01*
X248Y162D01*
X247Y162D01*
X247Y163D01*
X246Y163D01*
X246Y164D01*
X244Y164D01*
X244Y166D01*
X243Y166D01*
X243Y167D01*
X241Y167D01*
X241Y169D01*
X240Y169D01*
X240Y170D01*
X238Y170D01*
X238Y172D01*
X237Y172D01*
X237Y173D01*
X235Y173D01*
X235Y175D01*
X234Y175D01*
X234Y176D01*
X233Y176D01*
X233Y177D01*
X231Y177D01*
X231Y179D01*
X230Y179D01*
X230Y216D01*
X228Y216D01*
X228Y218D01*
X233Y218D01*
G37*
D02*
G36*
X207Y199D02*
X207Y198D01*
X208Y198D01*
X208Y196D01*
X204Y196D01*
X204Y195D01*
X202Y195D01*
X202Y193D01*
X199Y193D01*
X199Y195D01*
X198Y195D01*
X198Y196D01*
X196Y196D01*
X196Y198D01*
X195Y198D01*
X195Y199D01*
X207Y199D01*
G37*
D02*
G36*
X209Y196D02*
X209Y175D01*
X211Y175D01*
X211Y173D01*
X212Y173D01*
X212Y172D01*
X214Y172D01*
X214Y170D01*
X215Y170D01*
X215Y169D01*
X217Y169D01*
X217Y167D01*
X218Y167D01*
X218Y166D01*
X220Y166D01*
X220Y164D01*
X221Y164D01*
X221Y163D01*
X222Y163D01*
X222Y162D01*
X224Y162D01*
X224Y160D01*
X225Y160D01*
X225Y159D01*
X227Y159D01*
X227Y157D01*
X228Y157D01*
X228Y156D01*
X230Y156D01*
X230Y154D01*
X231Y154D01*
X231Y153D01*
X233Y153D01*
X233Y151D01*
X234Y151D01*
X234Y150D01*
X235Y150D01*
X235Y149D01*
X237Y149D01*
X237Y147D01*
X238Y147D01*
X238Y146D01*
X240Y146D01*
X240Y144D01*
X241Y144D01*
X241Y143D01*
X243Y143D01*
X243Y141D01*
X244Y141D01*
X244Y128D01*
X246Y128D01*
X246Y127D01*
X247Y127D01*
X247Y125D01*
X248Y125D01*
X248Y124D01*
X237Y124D01*
X237Y121D01*
X235Y121D01*
X235Y120D01*
X237Y120D01*
X237Y117D01*
X231Y117D01*
X231Y124D01*
X233Y124D01*
X233Y125D01*
X234Y125D01*
X234Y127D01*
X235Y127D01*
X235Y128D01*
X238Y128D01*
X238Y130D01*
X240Y130D01*
X240Y141D01*
X238Y141D01*
X238Y143D01*
X237Y143D01*
X237Y144D01*
X235Y144D01*
X235Y146D01*
X234Y146D01*
X234Y147D01*
X233Y147D01*
X233Y149D01*
X231Y149D01*
X231Y150D01*
X230Y150D01*
X230Y151D01*
X228Y151D01*
X228Y153D01*
X227Y153D01*
X227Y154D01*
X225Y154D01*
X225Y156D01*
X224Y156D01*
X224Y157D01*
X222Y157D01*
X222Y159D01*
X221Y159D01*
X221Y160D01*
X220Y160D01*
X220Y162D01*
X218Y162D01*
X218Y163D01*
X217Y163D01*
X217Y164D01*
X215Y164D01*
X215Y166D01*
X214Y166D01*
X214Y167D01*
X212Y167D01*
X212Y169D01*
X211Y169D01*
X211Y170D01*
X209Y170D01*
X209Y172D01*
X208Y172D01*
X208Y173D01*
X207Y173D01*
X207Y175D01*
X205Y175D01*
X205Y196D01*
X209Y196D01*
G37*
D02*
G36*
X282Y186D02*
X282Y185D01*
X277Y185D01*
X277Y186D01*
X282Y186D01*
G37*
D02*
G36*
X285Y185D02*
X285Y183D01*
X270Y183D01*
X270Y185D01*
X285Y185D01*
G37*
D02*
G36*
X285Y185D02*
X285Y183D01*
X270Y183D01*
X270Y185D01*
X285Y185D01*
G37*
D02*
G36*
X286Y183D02*
X286Y182D01*
X287Y182D01*
X287Y180D01*
X276Y180D01*
X276Y173D01*
X272Y173D01*
X272Y175D01*
X270Y175D01*
X270Y179D01*
X272Y179D01*
X272Y183D01*
X286Y183D01*
G37*
D02*
G36*
X287Y180D02*
X287Y179D01*
X289Y179D01*
X289Y175D01*
X287Y175D01*
X287Y173D01*
X283Y173D01*
X283Y180D01*
X287Y180D01*
G37*
D02*
G36*
X183Y176D02*
X183Y175D01*
X185Y175D01*
X185Y173D01*
X181Y173D01*
X181Y172D01*
X178Y172D01*
X178Y173D01*
X176Y173D01*
X176Y175D01*
X175Y175D01*
X175Y176D01*
X183Y176D01*
G37*
D02*
G36*
X287Y173D02*
X287Y172D01*
X272Y172D01*
X272Y173D01*
X287Y173D01*
G37*
D02*
G36*
X287Y173D02*
X287Y172D01*
X272Y172D01*
X272Y173D01*
X287Y173D01*
G37*
D02*
G36*
X186Y173D02*
X186Y172D01*
X188Y172D01*
X188Y170D01*
X189Y170D01*
X189Y169D01*
X191Y169D01*
X191Y167D01*
X192Y167D01*
X192Y166D01*
X194Y166D01*
X194Y164D01*
X195Y164D01*
X195Y163D01*
X196Y163D01*
X196Y162D01*
X198Y162D01*
X198Y160D01*
X194Y160D01*
X194Y162D01*
X192Y162D01*
X192Y163D01*
X191Y163D01*
X191Y164D01*
X189Y164D01*
X189Y166D01*
X188Y166D01*
X188Y167D01*
X186Y167D01*
X186Y169D01*
X185Y169D01*
X185Y170D01*
X183Y170D01*
X183Y172D01*
X182Y172D01*
X182Y173D01*
X186Y173D01*
G37*
D02*
G36*
X286Y172D02*
X286Y170D01*
X285Y170D01*
X285Y169D01*
X282Y169D01*
X282Y167D01*
X277Y167D01*
X277Y169D01*
X274Y169D01*
X274Y170D01*
X273Y170D01*
X273Y172D01*
X286Y172D01*
G37*
D02*
G36*
X204Y162D02*
X204Y160D01*
X201Y160D01*
X201Y162D01*
X204Y162D01*
G37*
D02*
G36*
X208Y160D02*
X208Y159D01*
X195Y159D01*
X195Y160D01*
X208Y160D01*
G37*
D02*
G36*
X208Y160D02*
X208Y159D01*
X195Y159D01*
X195Y160D01*
X208Y160D01*
G37*
D02*
G36*
X209Y159D02*
X209Y157D01*
X211Y157D01*
X211Y156D01*
X199Y156D01*
X199Y154D01*
X198Y154D01*
X198Y150D01*
X199Y150D01*
X199Y149D01*
X201Y149D01*
X201Y147D01*
X195Y147D01*
X195Y149D01*
X194Y149D01*
X194Y156D01*
X195Y156D01*
X195Y159D01*
X209Y159D01*
G37*
D02*
G36*
X163Y157D02*
X163Y156D01*
X165Y156D01*
X165Y154D01*
X166Y154D01*
X166Y153D01*
X159Y153D01*
X159Y151D01*
X157Y151D01*
X157Y153D01*
X156Y153D01*
X156Y154D01*
X155Y154D01*
X155Y156D01*
X153Y156D01*
X153Y157D01*
X163Y157D01*
G37*
D02*
G36*
X211Y156D02*
X211Y153D01*
X212Y153D01*
X212Y151D01*
X211Y151D01*
X211Y147D01*
X204Y147D01*
X204Y149D01*
X207Y149D01*
X207Y154D01*
X205Y154D01*
X205Y156D01*
X211Y156D01*
G37*
D02*
G36*
X168Y153D02*
X168Y151D01*
X169Y151D01*
X169Y150D01*
X170Y150D01*
X170Y149D01*
X172Y149D01*
X172Y147D01*
X173Y147D01*
X173Y146D01*
X175Y146D01*
X175Y144D01*
X176Y144D01*
X176Y143D01*
X178Y143D01*
X178Y141D01*
X179Y141D01*
X179Y140D01*
X181Y140D01*
X181Y138D01*
X182Y138D01*
X182Y137D01*
X183Y137D01*
X183Y136D01*
X185Y136D01*
X185Y134D01*
X186Y134D01*
X186Y133D01*
X188Y133D01*
X188Y131D01*
X182Y131D01*
X182Y133D01*
X181Y133D01*
X181Y134D01*
X179Y134D01*
X179Y136D01*
X178Y136D01*
X178Y137D01*
X176Y137D01*
X176Y138D01*
X175Y138D01*
X175Y140D01*
X173Y140D01*
X173Y141D01*
X172Y141D01*
X172Y143D01*
X170Y143D01*
X170Y144D01*
X169Y144D01*
X169Y146D01*
X168Y146D01*
X168Y147D01*
X166Y147D01*
X166Y149D01*
X165Y149D01*
X165Y150D01*
X163Y150D01*
X163Y151D01*
X162Y151D01*
X162Y153D01*
X168Y153D01*
G37*
D02*
G36*
X209Y147D02*
X209Y146D01*
X195Y146D01*
X195Y147D01*
X209Y147D01*
G37*
D02*
G36*
X209Y147D02*
X209Y146D01*
X195Y146D01*
X195Y147D01*
X209Y147D01*
G37*
D02*
G36*
X208Y146D02*
X208Y144D01*
X205Y144D01*
X205Y143D01*
X199Y143D01*
X199Y144D01*
X196Y144D01*
X196Y146D01*
X208Y146D01*
G37*
D02*
G36*
X195Y133D02*
X195Y131D01*
X189Y131D01*
X189Y133D01*
X195Y133D01*
G37*
D02*
G36*
X196Y131D02*
X196Y130D01*
X183Y130D01*
X183Y131D01*
X196Y131D01*
G37*
D02*
G36*
X196Y131D02*
X196Y130D01*
X183Y130D01*
X183Y131D01*
X196Y131D01*
G37*
D02*
G36*
X198Y130D02*
X198Y128D01*
X191Y128D01*
X191Y127D01*
X188Y127D01*
X188Y120D01*
X183Y120D01*
X183Y121D01*
X182Y121D01*
X182Y125D01*
X183Y125D01*
X183Y128D01*
X185Y128D01*
X185Y130D01*
X198Y130D01*
G37*
D02*
G36*
X293Y128D02*
X293Y127D01*
X290Y127D01*
X290Y128D01*
X293Y128D01*
G37*
D02*
G36*
X199Y128D02*
X199Y127D01*
X201Y127D01*
X201Y120D01*
X195Y120D01*
X195Y123D01*
X196Y123D01*
X196Y125D01*
X195Y125D01*
X195Y127D01*
X192Y127D01*
X192Y128D01*
X199Y128D01*
G37*
D02*
G36*
X298Y127D02*
X298Y125D01*
X283Y125D01*
X283Y127D01*
X298Y127D01*
G37*
D02*
G36*
X298Y127D02*
X298Y125D01*
X283Y125D01*
X283Y127D01*
X298Y127D01*
G37*
D02*
G36*
X299Y125D02*
X299Y123D01*
X289Y123D01*
X289Y121D01*
X287Y121D01*
X287Y117D01*
X289Y117D01*
X289Y115D01*
X290Y115D01*
X290Y114D01*
X285Y114D01*
X285Y115D01*
X283Y115D01*
X283Y123D01*
X285Y123D01*
X285Y125D01*
X299Y125D01*
G37*
D02*
G36*
X248Y124D02*
X248Y123D01*
X250Y123D01*
X250Y118D01*
X248Y118D01*
X248Y117D01*
X244Y117D01*
X244Y124D01*
X248Y124D01*
G37*
D02*
G36*
X300Y123D02*
X300Y114D01*
X293Y114D01*
X293Y115D01*
X296Y115D01*
X296Y121D01*
X295Y121D01*
X295Y123D01*
X300Y123D01*
G37*
D02*
G36*
X199Y120D02*
X199Y118D01*
X183Y118D01*
X183Y120D01*
X199Y120D01*
G37*
D02*
G36*
X199Y120D02*
X199Y118D01*
X183Y118D01*
X183Y120D01*
X199Y120D01*
G37*
D02*
G36*
X198Y118D02*
X198Y117D01*
X196Y117D01*
X196Y115D01*
X194Y115D01*
X194Y114D01*
X189Y114D01*
X189Y115D01*
X186Y115D01*
X186Y117D01*
X185Y117D01*
X185Y118D01*
X198Y118D01*
G37*
D02*
G36*
X248Y117D02*
X248Y115D01*
X233Y115D01*
X233Y117D01*
X248Y117D01*
G37*
D02*
G36*
X248Y117D02*
X248Y115D01*
X233Y115D01*
X233Y117D01*
X248Y117D01*
G37*
D02*
G36*
X247Y115D02*
X247Y114D01*
X246Y114D01*
X246Y112D01*
X243Y112D01*
X243Y111D01*
X238Y111D01*
X238Y112D01*
X235Y112D01*
X235Y114D01*
X234Y114D01*
X234Y115D01*
X247Y115D01*
G37*
D02*
G36*
X299Y114D02*
X299Y112D01*
X285Y112D01*
X285Y114D01*
X299Y114D01*
G37*
D02*
G36*
X299Y114D02*
X299Y112D01*
X285Y112D01*
X285Y114D01*
X299Y114D01*
G37*
D02*
G36*
X298Y112D02*
X298Y111D01*
X295Y111D01*
X295Y110D01*
X289Y110D01*
X289Y111D01*
X286Y111D01*
X286Y112D01*
X298Y112D01*
G37*
D02*
G36*
X332Y91D02*
X332Y89D01*
X62Y89D01*
X62Y91D01*
X332Y91D01*
G37*
D02*
G36*
X332Y91D02*
X332Y89D01*
X62Y89D01*
X62Y91D01*
X332Y91D01*
G37*
D02*
G36*
X332Y89D02*
X332Y88D01*
X331Y88D01*
X331Y86D01*
X329Y86D01*
X329Y85D01*
X328Y85D01*
X328Y83D01*
X326Y83D01*
X326Y82D01*
X324Y82D01*
X324Y81D01*
X322Y81D01*
X322Y79D01*
X319Y79D01*
X319Y78D01*
X316Y78D01*
X316Y76D01*
X312Y76D01*
X312Y75D01*
X58Y75D01*
X58Y76D01*
X53Y76D01*
X53Y78D01*
X51Y78D01*
X51Y79D01*
X52Y79D01*
X52Y81D01*
X53Y81D01*
X53Y82D01*
X55Y82D01*
X55Y83D01*
X56Y83D01*
X56Y85D01*
X58Y85D01*
X58Y86D01*
X59Y86D01*
X59Y88D01*
X61Y88D01*
X61Y89D01*
X332Y89D01*
G37*
D02*
G04 End of Silk0*
M02*