; NON-PLATED HOLES START AT T1
; THROUGH (PLATED) HOLES START AT T100
M48
INCH
T100C0.022741
T101C0.012992
%
T100
X005692Y000646
X004692Y000646
X004176Y003971
X004676Y003971
X009192Y000646
X009176Y003971
X008176Y003971
X006192Y000646
X009676Y003971
X007692Y000646
X006692Y000646
X006176Y003971
X005176Y003971
X006676Y003971
X005676Y003971
X008192Y000646
X009692Y000646
X007192Y000646
X008692Y000646
X007176Y003971
X005192Y000646
X008676Y003971
X004192Y000646
X007676Y003971
T101
X003843Y001389
X005217Y002141
X004709Y001656
X006910Y002290
X006516Y003231
X008044Y002857
X007207Y002853
X008327Y001554
X005803Y002755
T00
M30
