G04 MADE WITH FRITZING*
G04 WWW.FRITZING.ORG*
G04 DOUBLE SIDED*
G04 HOLES PLATED*
G04 CONTOUR ON CENTER OF CONTOUR VECTOR*
%ASAXBY*%
%FSLAX23Y23*%
%MOIN*%
%OFA0B0*%
%SFA1.0B1.0*%
%ADD10C,0.048460*%
%ADD11C,0.037165*%
%ADD12R,0.013994X0.019674*%
%ADD13R,0.023780X0.041496*%
%ADD14R,0.041496X0.023780*%
%ADD15R,0.108425X0.108425*%
%ADD16R,0.019674X0.013994*%
%ADD17R,0.305276X0.069055*%
%ADD18R,0.265906X0.049370*%
%ADD19C,0.000007*%
%ADD20R,0.001000X0.001000*%
%LNMASK1*%
G90*
G70*
G54D10*
X968Y397D03*
X918Y397D03*
X868Y397D03*
X818Y397D03*
X768Y397D03*
X718Y397D03*
X668Y397D03*
X618Y397D03*
X568Y397D03*
X518Y397D03*
X468Y397D03*
X418Y397D03*
X969Y65D03*
X919Y65D03*
X869Y65D03*
X819Y65D03*
X769Y65D03*
X719Y65D03*
X669Y65D03*
X619Y65D03*
X569Y65D03*
X519Y65D03*
X469Y65D03*
X419Y65D03*
G54D11*
X721Y285D03*
X804Y286D03*
X652Y323D03*
X471Y166D03*
X384Y139D03*
X522Y214D03*
X580Y276D03*
X691Y229D03*
X833Y155D03*
G54D12*
X750Y220D03*
X780Y220D03*
X750Y190D03*
X780Y190D03*
X803Y220D03*
X833Y220D03*
X803Y190D03*
X833Y191D03*
G54D13*
X587Y323D03*
X562Y323D03*
X536Y323D03*
X511Y323D03*
G54D14*
X470Y283D03*
X470Y257D03*
X470Y232D03*
X470Y206D03*
G54D13*
X511Y166D03*
X536Y166D03*
X562Y166D03*
X587Y166D03*
G54D14*
X628Y206D03*
X628Y232D03*
X628Y257D03*
X628Y283D03*
G54D15*
X549Y244D03*
G54D12*
X430Y219D03*
X400Y219D03*
X430Y255D03*
X400Y255D03*
X409Y165D03*
X439Y165D03*
G54D16*
X690Y155D03*
X690Y125D03*
X720Y155D03*
X720Y126D03*
X369Y168D03*
X369Y198D03*
X366Y306D03*
X366Y277D03*
G54D17*
X188Y100D03*
G54D18*
X207Y199D03*
X207Y277D03*
G54D17*
X188Y376D03*
G54D19*
G36*
X761Y148D02*
X741Y148D01*
X741Y162D01*
X761Y162D01*
X761Y148D01*
G37*
D02*
G36*
X761Y119D02*
X741Y119D01*
X741Y133D01*
X761Y133D01*
X761Y119D01*
G37*
D02*
G54D20*
D02*
G04 End of Mask1*
M02*