G04 #@! TF.FileFunction,Copper,L2,Bot,Signal*
%FSLAX46Y46*%
G04 Gerber Fmt 4.6, Leading zero omitted, Abs format (unit mm)*
G04 Created by KiCad (PCBNEW 4.0.0-rc2-stable) date 12/26/2015 3:45:16 PM*
%MOMM*%
G01*
G04 APERTURE LIST*
%ADD10C,0.100000*%
%ADD11C,0.685800*%
%ADD12O,0.762000X1.270000*%
%ADD13O,1.270000X0.762000*%
%ADD14C,0.203200*%
%ADD15C,0.152400*%
G04 APERTURE END LIST*
D10*
D11*
X106553000Y-121031000D03*
X106629200Y-123698000D03*
X109372400Y-121945400D03*
X116586000Y-124841000D03*
X111353600Y-123901200D03*
D12*
X105791000Y-117475000D03*
X107061000Y-117475000D03*
X108331000Y-117475000D03*
X109601000Y-117475000D03*
X110871000Y-117475000D03*
X112141000Y-117475000D03*
X113411000Y-117475000D03*
X114681000Y-117475000D03*
X115951000Y-117475000D03*
X117221000Y-117475000D03*
X118491000Y-117475000D03*
X119761000Y-117475000D03*
X105791000Y-127635000D03*
X107061000Y-127635000D03*
X108331000Y-127635000D03*
X109601000Y-127635000D03*
X110871000Y-127635000D03*
X112141000Y-127635000D03*
X113411000Y-127635000D03*
X114681000Y-127635000D03*
X115951000Y-127635000D03*
X117221000Y-127635000D03*
X118491000Y-127635000D03*
X119761000Y-127635000D03*
D11*
X120142000Y-119253000D03*
D13*
X104521000Y-125730000D03*
X104521000Y-124460000D03*
X104521000Y-123190000D03*
X104521000Y-121920000D03*
X104521000Y-120650000D03*
X104521000Y-119380000D03*
D11*
X108077000Y-125031500D03*
X107632500Y-120713500D03*
X114681000Y-123748800D03*
X115138200Y-122920760D03*
X114300000Y-121793000D03*
X107670600Y-125882400D03*
D14*
X104521000Y-123190000D02*
X105359200Y-123190000D01*
X105359200Y-123190000D02*
X105448101Y-123101099D01*
X105448101Y-123101099D02*
X106915713Y-123101099D01*
X106915713Y-123101099D02*
X108077000Y-124262386D01*
X108077000Y-124262386D02*
X108077000Y-125031500D01*
X107632500Y-120713500D02*
X111645700Y-120713500D01*
X111645700Y-120713500D02*
X114681000Y-123748800D01*
X104521000Y-125730000D02*
X104521000Y-124460000D01*
X104521000Y-124460000D02*
X105867200Y-124460000D01*
X105867200Y-124460000D02*
X106629200Y-123698000D01*
D15*
X109601000Y-127635000D02*
X109601000Y-127327867D01*
X109601000Y-127327867D02*
X108155533Y-125882400D01*
X108155533Y-125882400D02*
X107670600Y-125882400D01*
D14*
X109601000Y-127635000D02*
X109601000Y-127381000D01*
D15*
X110871000Y-127635000D02*
X110871000Y-125381317D01*
X110871000Y-125381317D02*
X107870787Y-122381104D01*
X107870787Y-122381104D02*
X105769504Y-122381104D01*
X105769504Y-122381104D02*
X105308400Y-121920000D01*
X105308400Y-121920000D02*
X104521000Y-121920000D01*
X104521000Y-120650000D02*
X104718642Y-120650000D01*
X104718642Y-120650000D02*
X106144937Y-122076295D01*
X106144937Y-122076295D02*
X107997044Y-122076295D01*
X107997044Y-122076295D02*
X112141000Y-126220251D01*
X112141000Y-126220251D02*
X112141000Y-126847600D01*
X112141000Y-126847600D02*
X112141000Y-127635000D01*
X112141000Y-127635000D02*
X112141000Y-127527020D01*
G36*
X107746800Y-124399160D02*
X107746800Y-124553606D01*
X107592789Y-124707349D01*
X107505600Y-124917323D01*
X107505401Y-125144680D01*
X107574047Y-125310816D01*
X107557420Y-125310801D01*
X107347294Y-125397624D01*
X107186389Y-125558249D01*
X107099200Y-125768223D01*
X107099001Y-125995580D01*
X107185824Y-126205706D01*
X107346449Y-126366611D01*
X107556423Y-126453800D01*
X107783780Y-126453999D01*
X107993906Y-126367176D01*
X108101675Y-126259594D01*
X109027031Y-127184950D01*
X108991400Y-127364081D01*
X108991400Y-127905919D01*
X109037803Y-128139203D01*
X109169948Y-128336971D01*
X109222971Y-128372400D01*
X108709029Y-128372400D01*
X108762052Y-128336971D01*
X108894197Y-128139203D01*
X108940600Y-127905919D01*
X108940600Y-127364081D01*
X108894197Y-127130797D01*
X108762052Y-126933029D01*
X108564284Y-126800884D01*
X108331000Y-126754481D01*
X108097716Y-126800884D01*
X107899948Y-126933029D01*
X107767803Y-127130797D01*
X107721400Y-127364081D01*
X107721400Y-127905919D01*
X107767803Y-128139203D01*
X107899948Y-128336971D01*
X107952971Y-128372400D01*
X107439029Y-128372400D01*
X107492052Y-128336971D01*
X107624197Y-128139203D01*
X107670600Y-127905919D01*
X107670600Y-127364081D01*
X107624197Y-127130797D01*
X107492052Y-126933029D01*
X107294284Y-126800884D01*
X107061000Y-126754481D01*
X106827716Y-126800884D01*
X106629948Y-126933029D01*
X106497803Y-127130797D01*
X106451400Y-127364081D01*
X106451400Y-127905919D01*
X106497803Y-128139203D01*
X106629948Y-128336971D01*
X106682971Y-128372400D01*
X106169029Y-128372400D01*
X106222052Y-128336971D01*
X106354197Y-128139203D01*
X106400600Y-127905919D01*
X106400600Y-127364081D01*
X106354197Y-127130797D01*
X106222052Y-126933029D01*
X106024284Y-126800884D01*
X105791000Y-126754481D01*
X105557716Y-126800884D01*
X105359948Y-126933029D01*
X105227803Y-127130797D01*
X105181400Y-127364081D01*
X105181400Y-127905919D01*
X105227803Y-128139203D01*
X105359948Y-128336971D01*
X105412971Y-128372400D01*
X104521000Y-128372400D01*
X104463190Y-128383899D01*
X104448352Y-128377753D01*
X104113897Y-128311226D01*
X103876439Y-128152561D01*
X103717774Y-127915103D01*
X103656600Y-127607559D01*
X103656600Y-125974650D01*
X103782066Y-126179013D01*
X103990809Y-126330410D01*
X104241600Y-126390400D01*
X104495600Y-126390400D01*
X104495600Y-125755400D01*
X104546400Y-125755400D01*
X104546400Y-126390400D01*
X104800400Y-126390400D01*
X105051191Y-126330410D01*
X105259934Y-126179013D01*
X105394850Y-125959258D01*
X105422813Y-125858320D01*
X105365004Y-125755400D01*
X104546400Y-125755400D01*
X104495600Y-125755400D01*
X104475600Y-125755400D01*
X104475600Y-125704600D01*
X104495600Y-125704600D01*
X104495600Y-124485400D01*
X104546400Y-124485400D01*
X104546400Y-125704600D01*
X105365004Y-125704600D01*
X105422813Y-125601680D01*
X105394850Y-125500742D01*
X105259934Y-125280987D01*
X105051191Y-125129590D01*
X104906586Y-125095000D01*
X105051191Y-125060410D01*
X105259934Y-124909013D01*
X105394850Y-124689258D01*
X105422813Y-124588320D01*
X105365004Y-124485400D01*
X104546400Y-124485400D01*
X104495600Y-124485400D01*
X104475600Y-124485400D01*
X104475600Y-124434600D01*
X104495600Y-124434600D01*
X104495600Y-123799600D01*
X104546400Y-123799600D01*
X104546400Y-124434600D01*
X105365004Y-124434600D01*
X105422813Y-124331680D01*
X105394850Y-124230742D01*
X105259934Y-124010987D01*
X105051191Y-123859590D01*
X104800400Y-123799600D01*
X104791919Y-123799600D01*
X105025203Y-123753197D01*
X105222971Y-123621052D01*
X105290358Y-123520200D01*
X105359200Y-123520200D01*
X105485562Y-123495065D01*
X105580995Y-123431299D01*
X106778939Y-123431299D01*
X107746800Y-124399160D01*
X107746800Y-124399160D01*
G37*
X107746800Y-124399160D02*
X107746800Y-124553606D01*
X107592789Y-124707349D01*
X107505600Y-124917323D01*
X107505401Y-125144680D01*
X107574047Y-125310816D01*
X107557420Y-125310801D01*
X107347294Y-125397624D01*
X107186389Y-125558249D01*
X107099200Y-125768223D01*
X107099001Y-125995580D01*
X107185824Y-126205706D01*
X107346449Y-126366611D01*
X107556423Y-126453800D01*
X107783780Y-126453999D01*
X107993906Y-126367176D01*
X108101675Y-126259594D01*
X109027031Y-127184950D01*
X108991400Y-127364081D01*
X108991400Y-127905919D01*
X109037803Y-128139203D01*
X109169948Y-128336971D01*
X109222971Y-128372400D01*
X108709029Y-128372400D01*
X108762052Y-128336971D01*
X108894197Y-128139203D01*
X108940600Y-127905919D01*
X108940600Y-127364081D01*
X108894197Y-127130797D01*
X108762052Y-126933029D01*
X108564284Y-126800884D01*
X108331000Y-126754481D01*
X108097716Y-126800884D01*
X107899948Y-126933029D01*
X107767803Y-127130797D01*
X107721400Y-127364081D01*
X107721400Y-127905919D01*
X107767803Y-128139203D01*
X107899948Y-128336971D01*
X107952971Y-128372400D01*
X107439029Y-128372400D01*
X107492052Y-128336971D01*
X107624197Y-128139203D01*
X107670600Y-127905919D01*
X107670600Y-127364081D01*
X107624197Y-127130797D01*
X107492052Y-126933029D01*
X107294284Y-126800884D01*
X107061000Y-126754481D01*
X106827716Y-126800884D01*
X106629948Y-126933029D01*
X106497803Y-127130797D01*
X106451400Y-127364081D01*
X106451400Y-127905919D01*
X106497803Y-128139203D01*
X106629948Y-128336971D01*
X106682971Y-128372400D01*
X106169029Y-128372400D01*
X106222052Y-128336971D01*
X106354197Y-128139203D01*
X106400600Y-127905919D01*
X106400600Y-127364081D01*
X106354197Y-127130797D01*
X106222052Y-126933029D01*
X106024284Y-126800884D01*
X105791000Y-126754481D01*
X105557716Y-126800884D01*
X105359948Y-126933029D01*
X105227803Y-127130797D01*
X105181400Y-127364081D01*
X105181400Y-127905919D01*
X105227803Y-128139203D01*
X105359948Y-128336971D01*
X105412971Y-128372400D01*
X104521000Y-128372400D01*
X104463190Y-128383899D01*
X104448352Y-128377753D01*
X104113897Y-128311226D01*
X103876439Y-128152561D01*
X103717774Y-127915103D01*
X103656600Y-127607559D01*
X103656600Y-125974650D01*
X103782066Y-126179013D01*
X103990809Y-126330410D01*
X104241600Y-126390400D01*
X104495600Y-126390400D01*
X104495600Y-125755400D01*
X104546400Y-125755400D01*
X104546400Y-126390400D01*
X104800400Y-126390400D01*
X105051191Y-126330410D01*
X105259934Y-126179013D01*
X105394850Y-125959258D01*
X105422813Y-125858320D01*
X105365004Y-125755400D01*
X104546400Y-125755400D01*
X104495600Y-125755400D01*
X104475600Y-125755400D01*
X104475600Y-125704600D01*
X104495600Y-125704600D01*
X104495600Y-124485400D01*
X104546400Y-124485400D01*
X104546400Y-125704600D01*
X105365004Y-125704600D01*
X105422813Y-125601680D01*
X105394850Y-125500742D01*
X105259934Y-125280987D01*
X105051191Y-125129590D01*
X104906586Y-125095000D01*
X105051191Y-125060410D01*
X105259934Y-124909013D01*
X105394850Y-124689258D01*
X105422813Y-124588320D01*
X105365004Y-124485400D01*
X104546400Y-124485400D01*
X104495600Y-124485400D01*
X104475600Y-124485400D01*
X104475600Y-124434600D01*
X104495600Y-124434600D01*
X104495600Y-123799600D01*
X104546400Y-123799600D01*
X104546400Y-124434600D01*
X105365004Y-124434600D01*
X105422813Y-124331680D01*
X105394850Y-124230742D01*
X105259934Y-124010987D01*
X105051191Y-123859590D01*
X104800400Y-123799600D01*
X104791919Y-123799600D01*
X105025203Y-123753197D01*
X105222971Y-123621052D01*
X105290358Y-123520200D01*
X105359200Y-123520200D01*
X105485562Y-123495065D01*
X105580995Y-123431299D01*
X106778939Y-123431299D01*
X107746800Y-124399160D01*
G36*
X105227803Y-116970797D02*
X105181400Y-117204081D01*
X105181400Y-117745919D01*
X105227803Y-117979203D01*
X105359948Y-118176971D01*
X105557716Y-118309116D01*
X105791000Y-118355519D01*
X106024284Y-118309116D01*
X106222052Y-118176971D01*
X106354197Y-117979203D01*
X106400600Y-117745919D01*
X106400600Y-117204081D01*
X106354197Y-116970797D01*
X106283238Y-116864600D01*
X106568762Y-116864600D01*
X106497803Y-116970797D01*
X106451400Y-117204081D01*
X106451400Y-117745919D01*
X106497803Y-117979203D01*
X106629948Y-118176971D01*
X106827716Y-118309116D01*
X107061000Y-118355519D01*
X107294284Y-118309116D01*
X107492052Y-118176971D01*
X107624197Y-117979203D01*
X107670600Y-117745919D01*
X107670600Y-117204081D01*
X107624197Y-116970797D01*
X107553238Y-116864600D01*
X107838762Y-116864600D01*
X107767803Y-116970797D01*
X107721400Y-117204081D01*
X107721400Y-117745919D01*
X107767803Y-117979203D01*
X107899948Y-118176971D01*
X108097716Y-118309116D01*
X108331000Y-118355519D01*
X108564284Y-118309116D01*
X108762052Y-118176971D01*
X108894197Y-117979203D01*
X108940600Y-117745919D01*
X108940600Y-117204081D01*
X108894197Y-116970797D01*
X108823238Y-116864600D01*
X109108762Y-116864600D01*
X109037803Y-116970797D01*
X108991400Y-117204081D01*
X108991400Y-117745919D01*
X109037803Y-117979203D01*
X109169948Y-118176971D01*
X109367716Y-118309116D01*
X109601000Y-118355519D01*
X109834284Y-118309116D01*
X110032052Y-118176971D01*
X110164197Y-117979203D01*
X110210600Y-117745919D01*
X110210600Y-117204081D01*
X110164197Y-116970797D01*
X110093238Y-116864600D01*
X110378762Y-116864600D01*
X110307803Y-116970797D01*
X110261400Y-117204081D01*
X110261400Y-117745919D01*
X110307803Y-117979203D01*
X110439948Y-118176971D01*
X110637716Y-118309116D01*
X110871000Y-118355519D01*
X111104284Y-118309116D01*
X111302052Y-118176971D01*
X111434197Y-117979203D01*
X111480600Y-117745919D01*
X111480600Y-117204081D01*
X111434197Y-116970797D01*
X111363238Y-116864600D01*
X111648762Y-116864600D01*
X111577803Y-116970797D01*
X111531400Y-117204081D01*
X111531400Y-117745919D01*
X111577803Y-117979203D01*
X111709948Y-118176971D01*
X111907716Y-118309116D01*
X112141000Y-118355519D01*
X112374284Y-118309116D01*
X112572052Y-118176971D01*
X112704197Y-117979203D01*
X112750600Y-117745919D01*
X112750600Y-117204081D01*
X112704197Y-116970797D01*
X112633238Y-116864600D01*
X112918762Y-116864600D01*
X112847803Y-116970797D01*
X112801400Y-117204081D01*
X112801400Y-117745919D01*
X112847803Y-117979203D01*
X112979948Y-118176971D01*
X113177716Y-118309116D01*
X113411000Y-118355519D01*
X113644284Y-118309116D01*
X113842052Y-118176971D01*
X113974197Y-117979203D01*
X114020600Y-117745919D01*
X114020600Y-117204081D01*
X113974197Y-116970797D01*
X113903238Y-116864600D01*
X114188762Y-116864600D01*
X114117803Y-116970797D01*
X114071400Y-117204081D01*
X114071400Y-117745919D01*
X114117803Y-117979203D01*
X114249948Y-118176971D01*
X114447716Y-118309116D01*
X114681000Y-118355519D01*
X114914284Y-118309116D01*
X115112052Y-118176971D01*
X115244197Y-117979203D01*
X115290600Y-117745919D01*
X115290600Y-117204081D01*
X115244197Y-116970797D01*
X115173238Y-116864600D01*
X115458762Y-116864600D01*
X115387803Y-116970797D01*
X115341400Y-117204081D01*
X115341400Y-117745919D01*
X115387803Y-117979203D01*
X115519948Y-118176971D01*
X115717716Y-118309116D01*
X115951000Y-118355519D01*
X116184284Y-118309116D01*
X116382052Y-118176971D01*
X116514197Y-117979203D01*
X116560600Y-117745919D01*
X116560600Y-117204081D01*
X116514197Y-116970797D01*
X116443238Y-116864600D01*
X116728762Y-116864600D01*
X116657803Y-116970797D01*
X116611400Y-117204081D01*
X116611400Y-117745919D01*
X116657803Y-117979203D01*
X116789948Y-118176971D01*
X116987716Y-118309116D01*
X117221000Y-118355519D01*
X117454284Y-118309116D01*
X117652052Y-118176971D01*
X117784197Y-117979203D01*
X117830600Y-117745919D01*
X117830600Y-117754400D01*
X117890590Y-118005191D01*
X118041987Y-118213934D01*
X118261742Y-118348850D01*
X118362680Y-118376813D01*
X118465600Y-118319004D01*
X118465600Y-117500400D01*
X117830600Y-117500400D01*
X117830600Y-117449600D01*
X118465600Y-117449600D01*
X118465600Y-117429600D01*
X118516400Y-117429600D01*
X118516400Y-117449600D01*
X119151400Y-117449600D01*
X119151400Y-117500400D01*
X118516400Y-117500400D01*
X118516400Y-118319004D01*
X118619320Y-118376813D01*
X118720258Y-118348850D01*
X118940013Y-118213934D01*
X119091410Y-118005191D01*
X119151400Y-117754400D01*
X119151400Y-117745919D01*
X119197803Y-117979203D01*
X119329948Y-118176971D01*
X119527716Y-118309116D01*
X119761000Y-118355519D01*
X119994284Y-118309116D01*
X120192052Y-118176971D01*
X120324197Y-117979203D01*
X120370600Y-117745919D01*
X120370600Y-117204081D01*
X120324197Y-116970797D01*
X120293962Y-116925547D01*
X120295103Y-116925774D01*
X120532561Y-117084439D01*
X120691226Y-117321897D01*
X120752400Y-117629441D01*
X120752400Y-127607559D01*
X120691226Y-127915103D01*
X120532561Y-128152561D01*
X120295103Y-128311226D01*
X120196095Y-128330920D01*
X120324197Y-128139203D01*
X120370600Y-127905919D01*
X120370600Y-127364081D01*
X120324197Y-127130797D01*
X120192052Y-126933029D01*
X119994284Y-126800884D01*
X119761000Y-126754481D01*
X119527716Y-126800884D01*
X119329948Y-126933029D01*
X119197803Y-127130797D01*
X119151400Y-127364081D01*
X119151400Y-127355600D01*
X119091410Y-127104809D01*
X118940013Y-126896066D01*
X118720258Y-126761150D01*
X118619320Y-126733187D01*
X118516400Y-126790996D01*
X118516400Y-127609600D01*
X119151400Y-127609600D01*
X119151400Y-127660400D01*
X118516400Y-127660400D01*
X118516400Y-127680400D01*
X118465600Y-127680400D01*
X118465600Y-127660400D01*
X117830600Y-127660400D01*
X117830600Y-127609600D01*
X118465600Y-127609600D01*
X118465600Y-126790996D01*
X118362680Y-126733187D01*
X118261742Y-126761150D01*
X118041987Y-126896066D01*
X117890590Y-127104809D01*
X117830600Y-127355600D01*
X117830600Y-127364081D01*
X117784197Y-127130797D01*
X117652052Y-126933029D01*
X117454284Y-126800884D01*
X117221000Y-126754481D01*
X116987716Y-126800884D01*
X116789948Y-126933029D01*
X116657803Y-127130797D01*
X116611400Y-127364081D01*
X116611400Y-127905919D01*
X116657803Y-128139203D01*
X116789948Y-128336971D01*
X116842971Y-128372400D01*
X116329029Y-128372400D01*
X116382052Y-128336971D01*
X116514197Y-128139203D01*
X116560600Y-127905919D01*
X116560600Y-127364081D01*
X116514197Y-127130797D01*
X116382052Y-126933029D01*
X116184284Y-126800884D01*
X115951000Y-126754481D01*
X115717716Y-126800884D01*
X115519948Y-126933029D01*
X115387803Y-127130797D01*
X115341400Y-127364081D01*
X115341400Y-127905919D01*
X115387803Y-128139203D01*
X115519948Y-128336971D01*
X115572971Y-128372400D01*
X115059029Y-128372400D01*
X115112052Y-128336971D01*
X115244197Y-128139203D01*
X115290600Y-127905919D01*
X115290600Y-127364081D01*
X115244197Y-127130797D01*
X115112052Y-126933029D01*
X114914284Y-126800884D01*
X114681000Y-126754481D01*
X114447716Y-126800884D01*
X114249948Y-126933029D01*
X114117803Y-127130797D01*
X114071400Y-127364081D01*
X114071400Y-127905919D01*
X114117803Y-128139203D01*
X114249948Y-128336971D01*
X114302971Y-128372400D01*
X113789029Y-128372400D01*
X113842052Y-128336971D01*
X113974197Y-128139203D01*
X114020600Y-127905919D01*
X114020600Y-127364081D01*
X113974197Y-127130797D01*
X113842052Y-126933029D01*
X113644284Y-126800884D01*
X113411000Y-126754481D01*
X113177716Y-126800884D01*
X112979948Y-126933029D01*
X112847803Y-127130797D01*
X112801400Y-127364081D01*
X112801400Y-127905919D01*
X112847803Y-128139203D01*
X112979948Y-128336971D01*
X113032971Y-128372400D01*
X112519029Y-128372400D01*
X112572052Y-128336971D01*
X112704197Y-128139203D01*
X112750600Y-127905919D01*
X112750600Y-127364081D01*
X112704197Y-127130797D01*
X112572052Y-126933029D01*
X112445800Y-126848670D01*
X112445800Y-126220251D01*
X112422598Y-126103609D01*
X112356526Y-126004725D01*
X108212570Y-121860769D01*
X108113686Y-121794697D01*
X107997044Y-121771495D01*
X106271189Y-121771495D01*
X105359739Y-120860045D01*
X105366375Y-120826680D01*
X107060901Y-120826680D01*
X107147724Y-121036806D01*
X107308349Y-121197711D01*
X107518323Y-121284900D01*
X107745680Y-121285099D01*
X107955806Y-121198276D01*
X108110651Y-121043700D01*
X111508926Y-121043700D01*
X114109591Y-123644365D01*
X114109401Y-123861980D01*
X114196224Y-124072106D01*
X114356849Y-124233011D01*
X114566823Y-124320200D01*
X114794180Y-124320399D01*
X115004306Y-124233576D01*
X115165211Y-124072951D01*
X115252400Y-123862977D01*
X115252599Y-123635620D01*
X115165776Y-123425494D01*
X115005151Y-123264589D01*
X114795177Y-123177400D01*
X114576382Y-123177208D01*
X111879187Y-120480013D01*
X111772062Y-120408435D01*
X111645700Y-120383300D01*
X108110394Y-120383300D01*
X107956651Y-120229289D01*
X107746677Y-120142100D01*
X107519320Y-120141901D01*
X107309194Y-120228724D01*
X107148289Y-120389349D01*
X107061100Y-120599323D01*
X107060901Y-120826680D01*
X105366375Y-120826680D01*
X105401519Y-120650000D01*
X105355116Y-120416716D01*
X105222971Y-120218948D01*
X105025203Y-120086803D01*
X104791919Y-120040400D01*
X104250081Y-120040400D01*
X104016797Y-120086803D01*
X103819029Y-120218948D01*
X103686884Y-120416716D01*
X103656600Y-120568964D01*
X103656600Y-119461036D01*
X103686884Y-119613284D01*
X103819029Y-119811052D01*
X104016797Y-119943197D01*
X104250081Y-119989600D01*
X104791919Y-119989600D01*
X105025203Y-119943197D01*
X105222971Y-119811052D01*
X105355116Y-119613284D01*
X105401519Y-119380000D01*
X105355116Y-119146716D01*
X105222971Y-118948948D01*
X105025203Y-118816803D01*
X104791919Y-118770400D01*
X104250081Y-118770400D01*
X104016797Y-118816803D01*
X103819029Y-118948948D01*
X103686884Y-119146716D01*
X103656600Y-119298964D01*
X103656600Y-117629441D01*
X103717774Y-117321897D01*
X103876439Y-117084439D01*
X104113897Y-116925774D01*
X104421441Y-116864600D01*
X105298762Y-116864600D01*
X105227803Y-116970797D01*
X105227803Y-116970797D01*
G37*
X105227803Y-116970797D02*
X105181400Y-117204081D01*
X105181400Y-117745919D01*
X105227803Y-117979203D01*
X105359948Y-118176971D01*
X105557716Y-118309116D01*
X105791000Y-118355519D01*
X106024284Y-118309116D01*
X106222052Y-118176971D01*
X106354197Y-117979203D01*
X106400600Y-117745919D01*
X106400600Y-117204081D01*
X106354197Y-116970797D01*
X106283238Y-116864600D01*
X106568762Y-116864600D01*
X106497803Y-116970797D01*
X106451400Y-117204081D01*
X106451400Y-117745919D01*
X106497803Y-117979203D01*
X106629948Y-118176971D01*
X106827716Y-118309116D01*
X107061000Y-118355519D01*
X107294284Y-118309116D01*
X107492052Y-118176971D01*
X107624197Y-117979203D01*
X107670600Y-117745919D01*
X107670600Y-117204081D01*
X107624197Y-116970797D01*
X107553238Y-116864600D01*
X107838762Y-116864600D01*
X107767803Y-116970797D01*
X107721400Y-117204081D01*
X107721400Y-117745919D01*
X107767803Y-117979203D01*
X107899948Y-118176971D01*
X108097716Y-118309116D01*
X108331000Y-118355519D01*
X108564284Y-118309116D01*
X108762052Y-118176971D01*
X108894197Y-117979203D01*
X108940600Y-117745919D01*
X108940600Y-117204081D01*
X108894197Y-116970797D01*
X108823238Y-116864600D01*
X109108762Y-116864600D01*
X109037803Y-116970797D01*
X108991400Y-117204081D01*
X108991400Y-117745919D01*
X109037803Y-117979203D01*
X109169948Y-118176971D01*
X109367716Y-118309116D01*
X109601000Y-118355519D01*
X109834284Y-118309116D01*
X110032052Y-118176971D01*
X110164197Y-117979203D01*
X110210600Y-117745919D01*
X110210600Y-117204081D01*
X110164197Y-116970797D01*
X110093238Y-116864600D01*
X110378762Y-116864600D01*
X110307803Y-116970797D01*
X110261400Y-117204081D01*
X110261400Y-117745919D01*
X110307803Y-117979203D01*
X110439948Y-118176971D01*
X110637716Y-118309116D01*
X110871000Y-118355519D01*
X111104284Y-118309116D01*
X111302052Y-118176971D01*
X111434197Y-117979203D01*
X111480600Y-117745919D01*
X111480600Y-117204081D01*
X111434197Y-116970797D01*
X111363238Y-116864600D01*
X111648762Y-116864600D01*
X111577803Y-116970797D01*
X111531400Y-117204081D01*
X111531400Y-117745919D01*
X111577803Y-117979203D01*
X111709948Y-118176971D01*
X111907716Y-118309116D01*
X112141000Y-118355519D01*
X112374284Y-118309116D01*
X112572052Y-118176971D01*
X112704197Y-117979203D01*
X112750600Y-117745919D01*
X112750600Y-117204081D01*
X112704197Y-116970797D01*
X112633238Y-116864600D01*
X112918762Y-116864600D01*
X112847803Y-116970797D01*
X112801400Y-117204081D01*
X112801400Y-117745919D01*
X112847803Y-117979203D01*
X112979948Y-118176971D01*
X113177716Y-118309116D01*
X113411000Y-118355519D01*
X113644284Y-118309116D01*
X113842052Y-118176971D01*
X113974197Y-117979203D01*
X114020600Y-117745919D01*
X114020600Y-117204081D01*
X113974197Y-116970797D01*
X113903238Y-116864600D01*
X114188762Y-116864600D01*
X114117803Y-116970797D01*
X114071400Y-117204081D01*
X114071400Y-117745919D01*
X114117803Y-117979203D01*
X114249948Y-118176971D01*
X114447716Y-118309116D01*
X114681000Y-118355519D01*
X114914284Y-118309116D01*
X115112052Y-118176971D01*
X115244197Y-117979203D01*
X115290600Y-117745919D01*
X115290600Y-117204081D01*
X115244197Y-116970797D01*
X115173238Y-116864600D01*
X115458762Y-116864600D01*
X115387803Y-116970797D01*
X115341400Y-117204081D01*
X115341400Y-117745919D01*
X115387803Y-117979203D01*
X115519948Y-118176971D01*
X115717716Y-118309116D01*
X115951000Y-118355519D01*
X116184284Y-118309116D01*
X116382052Y-118176971D01*
X116514197Y-117979203D01*
X116560600Y-117745919D01*
X116560600Y-117204081D01*
X116514197Y-116970797D01*
X116443238Y-116864600D01*
X116728762Y-116864600D01*
X116657803Y-116970797D01*
X116611400Y-117204081D01*
X116611400Y-117745919D01*
X116657803Y-117979203D01*
X116789948Y-118176971D01*
X116987716Y-118309116D01*
X117221000Y-118355519D01*
X117454284Y-118309116D01*
X117652052Y-118176971D01*
X117784197Y-117979203D01*
X117830600Y-117745919D01*
X117830600Y-117754400D01*
X117890590Y-118005191D01*
X118041987Y-118213934D01*
X118261742Y-118348850D01*
X118362680Y-118376813D01*
X118465600Y-118319004D01*
X118465600Y-117500400D01*
X117830600Y-117500400D01*
X117830600Y-117449600D01*
X118465600Y-117449600D01*
X118465600Y-117429600D01*
X118516400Y-117429600D01*
X118516400Y-117449600D01*
X119151400Y-117449600D01*
X119151400Y-117500400D01*
X118516400Y-117500400D01*
X118516400Y-118319004D01*
X118619320Y-118376813D01*
X118720258Y-118348850D01*
X118940013Y-118213934D01*
X119091410Y-118005191D01*
X119151400Y-117754400D01*
X119151400Y-117745919D01*
X119197803Y-117979203D01*
X119329948Y-118176971D01*
X119527716Y-118309116D01*
X119761000Y-118355519D01*
X119994284Y-118309116D01*
X120192052Y-118176971D01*
X120324197Y-117979203D01*
X120370600Y-117745919D01*
X120370600Y-117204081D01*
X120324197Y-116970797D01*
X120293962Y-116925547D01*
X120295103Y-116925774D01*
X120532561Y-117084439D01*
X120691226Y-117321897D01*
X120752400Y-117629441D01*
X120752400Y-127607559D01*
X120691226Y-127915103D01*
X120532561Y-128152561D01*
X120295103Y-128311226D01*
X120196095Y-128330920D01*
X120324197Y-128139203D01*
X120370600Y-127905919D01*
X120370600Y-127364081D01*
X120324197Y-127130797D01*
X120192052Y-126933029D01*
X119994284Y-126800884D01*
X119761000Y-126754481D01*
X119527716Y-126800884D01*
X119329948Y-126933029D01*
X119197803Y-127130797D01*
X119151400Y-127364081D01*
X119151400Y-127355600D01*
X119091410Y-127104809D01*
X118940013Y-126896066D01*
X118720258Y-126761150D01*
X118619320Y-126733187D01*
X118516400Y-126790996D01*
X118516400Y-127609600D01*
X119151400Y-127609600D01*
X119151400Y-127660400D01*
X118516400Y-127660400D01*
X118516400Y-127680400D01*
X118465600Y-127680400D01*
X118465600Y-127660400D01*
X117830600Y-127660400D01*
X117830600Y-127609600D01*
X118465600Y-127609600D01*
X118465600Y-126790996D01*
X118362680Y-126733187D01*
X118261742Y-126761150D01*
X118041987Y-126896066D01*
X117890590Y-127104809D01*
X117830600Y-127355600D01*
X117830600Y-127364081D01*
X117784197Y-127130797D01*
X117652052Y-126933029D01*
X117454284Y-126800884D01*
X117221000Y-126754481D01*
X116987716Y-126800884D01*
X116789948Y-126933029D01*
X116657803Y-127130797D01*
X116611400Y-127364081D01*
X116611400Y-127905919D01*
X116657803Y-128139203D01*
X116789948Y-128336971D01*
X116842971Y-128372400D01*
X116329029Y-128372400D01*
X116382052Y-128336971D01*
X116514197Y-128139203D01*
X116560600Y-127905919D01*
X116560600Y-127364081D01*
X116514197Y-127130797D01*
X116382052Y-126933029D01*
X116184284Y-126800884D01*
X115951000Y-126754481D01*
X115717716Y-126800884D01*
X115519948Y-126933029D01*
X115387803Y-127130797D01*
X115341400Y-127364081D01*
X115341400Y-127905919D01*
X115387803Y-128139203D01*
X115519948Y-128336971D01*
X115572971Y-128372400D01*
X115059029Y-128372400D01*
X115112052Y-128336971D01*
X115244197Y-128139203D01*
X115290600Y-127905919D01*
X115290600Y-127364081D01*
X115244197Y-127130797D01*
X115112052Y-126933029D01*
X114914284Y-126800884D01*
X114681000Y-126754481D01*
X114447716Y-126800884D01*
X114249948Y-126933029D01*
X114117803Y-127130797D01*
X114071400Y-127364081D01*
X114071400Y-127905919D01*
X114117803Y-128139203D01*
X114249948Y-128336971D01*
X114302971Y-128372400D01*
X113789029Y-128372400D01*
X113842052Y-128336971D01*
X113974197Y-128139203D01*
X114020600Y-127905919D01*
X114020600Y-127364081D01*
X113974197Y-127130797D01*
X113842052Y-126933029D01*
X113644284Y-126800884D01*
X113411000Y-126754481D01*
X113177716Y-126800884D01*
X112979948Y-126933029D01*
X112847803Y-127130797D01*
X112801400Y-127364081D01*
X112801400Y-127905919D01*
X112847803Y-128139203D01*
X112979948Y-128336971D01*
X113032971Y-128372400D01*
X112519029Y-128372400D01*
X112572052Y-128336971D01*
X112704197Y-128139203D01*
X112750600Y-127905919D01*
X112750600Y-127364081D01*
X112704197Y-127130797D01*
X112572052Y-126933029D01*
X112445800Y-126848670D01*
X112445800Y-126220251D01*
X112422598Y-126103609D01*
X112356526Y-126004725D01*
X108212570Y-121860769D01*
X108113686Y-121794697D01*
X107997044Y-121771495D01*
X106271189Y-121771495D01*
X105359739Y-120860045D01*
X105366375Y-120826680D01*
X107060901Y-120826680D01*
X107147724Y-121036806D01*
X107308349Y-121197711D01*
X107518323Y-121284900D01*
X107745680Y-121285099D01*
X107955806Y-121198276D01*
X108110651Y-121043700D01*
X111508926Y-121043700D01*
X114109591Y-123644365D01*
X114109401Y-123861980D01*
X114196224Y-124072106D01*
X114356849Y-124233011D01*
X114566823Y-124320200D01*
X114794180Y-124320399D01*
X115004306Y-124233576D01*
X115165211Y-124072951D01*
X115252400Y-123862977D01*
X115252599Y-123635620D01*
X115165776Y-123425494D01*
X115005151Y-123264589D01*
X114795177Y-123177400D01*
X114576382Y-123177208D01*
X111879187Y-120480013D01*
X111772062Y-120408435D01*
X111645700Y-120383300D01*
X108110394Y-120383300D01*
X107956651Y-120229289D01*
X107746677Y-120142100D01*
X107519320Y-120141901D01*
X107309194Y-120228724D01*
X107148289Y-120389349D01*
X107061100Y-120599323D01*
X107060901Y-120826680D01*
X105366375Y-120826680D01*
X105401519Y-120650000D01*
X105355116Y-120416716D01*
X105222971Y-120218948D01*
X105025203Y-120086803D01*
X104791919Y-120040400D01*
X104250081Y-120040400D01*
X104016797Y-120086803D01*
X103819029Y-120218948D01*
X103686884Y-120416716D01*
X103656600Y-120568964D01*
X103656600Y-119461036D01*
X103686884Y-119613284D01*
X103819029Y-119811052D01*
X104016797Y-119943197D01*
X104250081Y-119989600D01*
X104791919Y-119989600D01*
X105025203Y-119943197D01*
X105222971Y-119811052D01*
X105355116Y-119613284D01*
X105401519Y-119380000D01*
X105355116Y-119146716D01*
X105222971Y-118948948D01*
X105025203Y-118816803D01*
X104791919Y-118770400D01*
X104250081Y-118770400D01*
X104016797Y-118816803D01*
X103819029Y-118948948D01*
X103686884Y-119146716D01*
X103656600Y-119298964D01*
X103656600Y-117629441D01*
X103717774Y-117321897D01*
X103876439Y-117084439D01*
X104113897Y-116925774D01*
X104421441Y-116864600D01*
X105298762Y-116864600D01*
X105227803Y-116970797D01*
M02*
