G04 #@! TF.FileFunction,Paste,Top*
%FSLAX46Y46*%
G04 Gerber Fmt 4.6, Leading zero omitted, Abs format (unit mm)*
G04 Created by KiCad (PCBNEW 4.0.0-rc2-stable) date 12/26/2015 3:45:16 PM*
%MOMM*%
G01*
G04 APERTURE LIST*
%ADD10C,0.100000*%
%ADD11R,0.500000X1.500000*%
%ADD12R,0.550000X1.000000*%
%ADD13R,0.600000X0.500000*%
%ADD14R,0.300000X0.350000*%
%ADD15R,0.350000X0.300000*%
%ADD16R,0.500000X0.600000*%
%ADD17R,0.600000X0.600000*%
%ADD18O,0.250000X0.800000*%
%ADD19O,0.800000X0.250000*%
G04 APERTURE END LIST*
D10*
D11*
X116008000Y-120523000D03*
X114808000Y-120523000D03*
X113608000Y-120523000D03*
D12*
X118029000Y-124617000D03*
X118979000Y-124617000D03*
X119929000Y-124617000D03*
X119929000Y-121917000D03*
X118029000Y-121917000D03*
D13*
X117433000Y-120396000D03*
X118533000Y-120396000D03*
D14*
X107209000Y-121920000D03*
X106659000Y-121920000D03*
D15*
X113665000Y-123465000D03*
X113665000Y-122915000D03*
D14*
X106650200Y-125857000D03*
X106100200Y-125857000D03*
X119613000Y-120396000D03*
X120163000Y-120396000D03*
X106659000Y-124714000D03*
X107209000Y-124714000D03*
X107209000Y-122682000D03*
X106659000Y-122682000D03*
D13*
X117941000Y-126111000D03*
X119041000Y-126111000D03*
D16*
X116586000Y-122513000D03*
X116586000Y-123613000D03*
D13*
X108362840Y-119105680D03*
X107262840Y-119105680D03*
D15*
X106172000Y-119105000D03*
X106172000Y-119655000D03*
D17*
X110744000Y-122555000D03*
X109982000Y-122555000D03*
X109982000Y-123317000D03*
D18*
X109013000Y-124936000D03*
X109463000Y-124936000D03*
X109913000Y-124936000D03*
X110363000Y-124936000D03*
X110813000Y-124936000D03*
X111263000Y-124936000D03*
X111713000Y-124936000D03*
D19*
X108363000Y-121586000D03*
X108363000Y-122036000D03*
X108363000Y-122486000D03*
X108363000Y-122936000D03*
X108363000Y-123386000D03*
X108363000Y-123836000D03*
X108363000Y-124286000D03*
X112363000Y-124286000D03*
X112363000Y-123836000D03*
X112363000Y-123386000D03*
X112363000Y-122936000D03*
X112363000Y-122486000D03*
X112363000Y-122036000D03*
X112363000Y-121586000D03*
D18*
X111713000Y-120936000D03*
X111263000Y-120936000D03*
X110813000Y-120936000D03*
X110363000Y-120936000D03*
X109913000Y-120936000D03*
X109463000Y-120936000D03*
X109013000Y-120936000D03*
D17*
X110744000Y-123317000D03*
M02*
