G04 #@! TF.FileFunction,Legend,Bot*
%FSLAX46Y46*%
G04 Gerber Fmt 4.6, Leading zero omitted, Abs format (unit mm)*
G04 Created by KiCad (PCBNEW 4.0.0-rc2-stable) date 12/26/2015 3:45:16 PM*
%MOMM*%
G01*
G04 APERTURE LIST*
%ADD10C,0.100000*%
%ADD11C,0.190500*%
%ADD12C,0.158750*%
G04 APERTURE END LIST*
D10*
D11*
X118708714Y-122518714D02*
X118237000Y-122518714D01*
X118491000Y-122809000D01*
X118382142Y-122809000D01*
X118309571Y-122845286D01*
X118273285Y-122881571D01*
X118237000Y-122954143D01*
X118237000Y-123135571D01*
X118273285Y-123208143D01*
X118309571Y-123244429D01*
X118382142Y-123280714D01*
X118599857Y-123280714D01*
X118672428Y-123244429D01*
X118708714Y-123208143D01*
X117946714Y-122591286D02*
X117910428Y-122555000D01*
X117837857Y-122518714D01*
X117656428Y-122518714D01*
X117583857Y-122555000D01*
X117547571Y-122591286D01*
X117511286Y-122663857D01*
X117511286Y-122736429D01*
X117547571Y-122845286D01*
X117983000Y-123280714D01*
X117511286Y-123280714D01*
X117075857Y-122845286D02*
X117148429Y-122809000D01*
X117184714Y-122772714D01*
X117221000Y-122700143D01*
X117221000Y-122663857D01*
X117184714Y-122591286D01*
X117148429Y-122555000D01*
X117075857Y-122518714D01*
X116930714Y-122518714D01*
X116858143Y-122555000D01*
X116821857Y-122591286D01*
X116785572Y-122663857D01*
X116785572Y-122700143D01*
X116821857Y-122772714D01*
X116858143Y-122809000D01*
X116930714Y-122845286D01*
X117075857Y-122845286D01*
X117148429Y-122881571D01*
X117184714Y-122917857D01*
X117221000Y-122990429D01*
X117221000Y-123135571D01*
X117184714Y-123208143D01*
X117148429Y-123244429D01*
X117075857Y-123280714D01*
X116930714Y-123280714D01*
X116858143Y-123244429D01*
X116821857Y-123208143D01*
X116785572Y-123135571D01*
X116785572Y-122990429D01*
X116821857Y-122917857D01*
X116858143Y-122881571D01*
X116930714Y-122845286D01*
X113610571Y-121375714D02*
X113429142Y-121883714D01*
X113247714Y-121375714D01*
X112812286Y-121121714D02*
X112739714Y-121121714D01*
X112667143Y-121158000D01*
X112630857Y-121194286D01*
X112594571Y-121266857D01*
X112558286Y-121412000D01*
X112558286Y-121593429D01*
X112594571Y-121738571D01*
X112630857Y-121811143D01*
X112667143Y-121847429D01*
X112739714Y-121883714D01*
X112812286Y-121883714D01*
X112884857Y-121847429D01*
X112921143Y-121811143D01*
X112957428Y-121738571D01*
X112993714Y-121593429D01*
X112993714Y-121412000D01*
X112957428Y-121266857D01*
X112921143Y-121194286D01*
X112884857Y-121158000D01*
X112812286Y-121121714D01*
X112231714Y-121811143D02*
X112195429Y-121847429D01*
X112231714Y-121883714D01*
X112268000Y-121847429D01*
X112231714Y-121811143D01*
X112231714Y-121883714D01*
X111542286Y-121121714D02*
X111687429Y-121121714D01*
X111760000Y-121158000D01*
X111796286Y-121194286D01*
X111868857Y-121303143D01*
X111905143Y-121448286D01*
X111905143Y-121738571D01*
X111868857Y-121811143D01*
X111832572Y-121847429D01*
X111760000Y-121883714D01*
X111614857Y-121883714D01*
X111542286Y-121847429D01*
X111506000Y-121811143D01*
X111469715Y-121738571D01*
X111469715Y-121557143D01*
X111506000Y-121484571D01*
X111542286Y-121448286D01*
X111614857Y-121412000D01*
X111760000Y-121412000D01*
X111832572Y-121448286D01*
X111868857Y-121484571D01*
X111905143Y-121557143D01*
X120510904Y-121998619D02*
X120510904Y-120982619D01*
X120172238Y-121708333D01*
X119833571Y-120982619D01*
X119833571Y-121998619D01*
X119349761Y-121998619D02*
X119349761Y-121321286D01*
X119349761Y-120982619D02*
X119398142Y-121031000D01*
X119349761Y-121079381D01*
X119301380Y-121031000D01*
X119349761Y-120982619D01*
X119349761Y-121079381D01*
X118430523Y-121950238D02*
X118527285Y-121998619D01*
X118720808Y-121998619D01*
X118817570Y-121950238D01*
X118865951Y-121901857D01*
X118914332Y-121805095D01*
X118914332Y-121514810D01*
X118865951Y-121418048D01*
X118817570Y-121369667D01*
X118720808Y-121321286D01*
X118527285Y-121321286D01*
X118430523Y-121369667D01*
X117995094Y-121998619D02*
X117995094Y-121321286D01*
X117995094Y-121514810D02*
X117946713Y-121418048D01*
X117898332Y-121369667D01*
X117801570Y-121321286D01*
X117704809Y-121321286D01*
X117220999Y-121998619D02*
X117317761Y-121950238D01*
X117366142Y-121901857D01*
X117414523Y-121805095D01*
X117414523Y-121514810D01*
X117366142Y-121418048D01*
X117317761Y-121369667D01*
X117220999Y-121321286D01*
X117075857Y-121321286D01*
X116979095Y-121369667D01*
X116930714Y-121418048D01*
X116882333Y-121514810D01*
X116882333Y-121805095D01*
X116930714Y-121901857D01*
X116979095Y-121950238D01*
X117075857Y-121998619D01*
X117220999Y-121998619D01*
X116446904Y-121998619D02*
X116446904Y-120982619D01*
X116446904Y-121369667D02*
X116350142Y-121321286D01*
X116156619Y-121321286D01*
X116059857Y-121369667D01*
X116011476Y-121418048D01*
X115963095Y-121514810D01*
X115963095Y-121805095D01*
X116011476Y-121901857D01*
X116059857Y-121950238D01*
X116156619Y-121998619D01*
X116350142Y-121998619D01*
X116446904Y-121950238D01*
X115527666Y-121998619D02*
X115527666Y-121321286D01*
X115527666Y-120982619D02*
X115576047Y-121031000D01*
X115527666Y-121079381D01*
X115479285Y-121031000D01*
X115527666Y-120982619D01*
X115527666Y-121079381D01*
X115188999Y-121321286D02*
X114801951Y-121321286D01*
X115043856Y-120982619D02*
X115043856Y-121853476D01*
X114995475Y-121950238D01*
X114898713Y-121998619D01*
X114801951Y-121998619D01*
D12*
X120108738Y-120226667D02*
X119473738Y-120015000D01*
X120108738Y-119803333D01*
X119534214Y-119228809D02*
X119503976Y-119259047D01*
X119473738Y-119349762D01*
X119473738Y-119410238D01*
X119503976Y-119500952D01*
X119564452Y-119561428D01*
X119624929Y-119591667D01*
X119745881Y-119621905D01*
X119836595Y-119621905D01*
X119957548Y-119591667D01*
X120018024Y-119561428D01*
X120078500Y-119500952D01*
X120108738Y-119410238D01*
X120108738Y-119349762D01*
X120078500Y-119259047D01*
X120048262Y-119228809D01*
X119534214Y-118593809D02*
X119503976Y-118624047D01*
X119473738Y-118714762D01*
X119473738Y-118775238D01*
X119503976Y-118865952D01*
X119564452Y-118926428D01*
X119624929Y-118956667D01*
X119745881Y-118986905D01*
X119836595Y-118986905D01*
X119957548Y-118956667D01*
X120018024Y-118926428D01*
X120078500Y-118865952D01*
X120108738Y-118775238D01*
X120108738Y-118714762D01*
X120078500Y-118624047D01*
X120048262Y-118593809D01*
X118808500Y-119863809D02*
X118838738Y-119924286D01*
X118838738Y-120015000D01*
X118808500Y-120105714D01*
X118748024Y-120166190D01*
X118687548Y-120196429D01*
X118566595Y-120226667D01*
X118475881Y-120226667D01*
X118354929Y-120196429D01*
X118294452Y-120166190D01*
X118233976Y-120105714D01*
X118203738Y-120015000D01*
X118203738Y-119954524D01*
X118233976Y-119863809D01*
X118264214Y-119833571D01*
X118475881Y-119833571D01*
X118475881Y-119954524D01*
X118203738Y-119561429D02*
X118838738Y-119561429D01*
X118203738Y-119198571D01*
X118838738Y-119198571D01*
X118203738Y-118896191D02*
X118838738Y-118896191D01*
X118838738Y-118745000D01*
X118808500Y-118654286D01*
X118748024Y-118593810D01*
X118687548Y-118563571D01*
X118566595Y-118533333D01*
X118475881Y-118533333D01*
X118354929Y-118563571D01*
X118294452Y-118593810D01*
X118233976Y-118654286D01*
X118203738Y-118745000D01*
X118203738Y-118896191D01*
X116933738Y-119848691D02*
X117568738Y-119848691D01*
X117568738Y-119697500D01*
X117538500Y-119606786D01*
X117478024Y-119546310D01*
X117417548Y-119516071D01*
X117296595Y-119485833D01*
X117205881Y-119485833D01*
X117084929Y-119516071D01*
X117024452Y-119546310D01*
X116963976Y-119606786D01*
X116933738Y-119697500D01*
X116933738Y-119848691D01*
X117568738Y-118911310D02*
X117568738Y-119213691D01*
X117266357Y-119243929D01*
X117296595Y-119213691D01*
X117326833Y-119153214D01*
X117326833Y-119002024D01*
X117296595Y-118941548D01*
X117266357Y-118911310D01*
X117205881Y-118881071D01*
X117054690Y-118881071D01*
X116994214Y-118911310D01*
X116963976Y-118941548D01*
X116933738Y-119002024D01*
X116933738Y-119153214D01*
X116963976Y-119213691D01*
X116994214Y-119243929D01*
X115663738Y-119848691D02*
X116298738Y-119848691D01*
X116298738Y-119697500D01*
X116268500Y-119606786D01*
X116208024Y-119546310D01*
X116147548Y-119516071D01*
X116026595Y-119485833D01*
X115935881Y-119485833D01*
X115814929Y-119516071D01*
X115754452Y-119546310D01*
X115693976Y-119606786D01*
X115663738Y-119697500D01*
X115663738Y-119848691D01*
X116298738Y-118941548D02*
X116298738Y-119062500D01*
X116268500Y-119122976D01*
X116238262Y-119153214D01*
X116147548Y-119213691D01*
X116026595Y-119243929D01*
X115784690Y-119243929D01*
X115724214Y-119213691D01*
X115693976Y-119183452D01*
X115663738Y-119122976D01*
X115663738Y-119002024D01*
X115693976Y-118941548D01*
X115724214Y-118911310D01*
X115784690Y-118881071D01*
X115935881Y-118881071D01*
X115996357Y-118911310D01*
X116026595Y-118941548D01*
X116056833Y-119002024D01*
X116056833Y-119122976D01*
X116026595Y-119183452D01*
X115996357Y-119213691D01*
X115935881Y-119243929D01*
X114393738Y-119848691D02*
X115028738Y-119848691D01*
X115028738Y-119697500D01*
X114998500Y-119606786D01*
X114938024Y-119546310D01*
X114877548Y-119516071D01*
X114756595Y-119485833D01*
X114665881Y-119485833D01*
X114544929Y-119516071D01*
X114484452Y-119546310D01*
X114423976Y-119606786D01*
X114393738Y-119697500D01*
X114393738Y-119848691D01*
X115028738Y-119274167D02*
X115028738Y-118850833D01*
X114393738Y-119122976D01*
X113123738Y-119848691D02*
X113758738Y-119848691D01*
X113758738Y-119697500D01*
X113728500Y-119606786D01*
X113668024Y-119546310D01*
X113607548Y-119516071D01*
X113486595Y-119485833D01*
X113395881Y-119485833D01*
X113274929Y-119516071D01*
X113214452Y-119546310D01*
X113153976Y-119606786D01*
X113123738Y-119697500D01*
X113123738Y-119848691D01*
X113486595Y-119122976D02*
X113516833Y-119183452D01*
X113547071Y-119213691D01*
X113607548Y-119243929D01*
X113637786Y-119243929D01*
X113698262Y-119213691D01*
X113728500Y-119183452D01*
X113758738Y-119122976D01*
X113758738Y-119002024D01*
X113728500Y-118941548D01*
X113698262Y-118911310D01*
X113637786Y-118881071D01*
X113607548Y-118881071D01*
X113547071Y-118911310D01*
X113516833Y-118941548D01*
X113486595Y-119002024D01*
X113486595Y-119122976D01*
X113456357Y-119183452D01*
X113426119Y-119213691D01*
X113365643Y-119243929D01*
X113244690Y-119243929D01*
X113184214Y-119213691D01*
X113153976Y-119183452D01*
X113123738Y-119122976D01*
X113123738Y-119002024D01*
X113153976Y-118941548D01*
X113184214Y-118911310D01*
X113244690Y-118881071D01*
X113365643Y-118881071D01*
X113426119Y-118911310D01*
X113456357Y-118941548D01*
X113486595Y-119002024D01*
X111853738Y-119848691D02*
X112488738Y-119848691D01*
X112488738Y-119697500D01*
X112458500Y-119606786D01*
X112398024Y-119546310D01*
X112337548Y-119516071D01*
X112216595Y-119485833D01*
X112125881Y-119485833D01*
X112004929Y-119516071D01*
X111944452Y-119546310D01*
X111883976Y-119606786D01*
X111853738Y-119697500D01*
X111853738Y-119848691D01*
X111853738Y-119183452D02*
X111853738Y-119062500D01*
X111883976Y-119002024D01*
X111914214Y-118971786D01*
X112004929Y-118911310D01*
X112125881Y-118881071D01*
X112367786Y-118881071D01*
X112428262Y-118911310D01*
X112458500Y-118941548D01*
X112488738Y-119002024D01*
X112488738Y-119122976D01*
X112458500Y-119183452D01*
X112428262Y-119213691D01*
X112367786Y-119243929D01*
X112216595Y-119243929D01*
X112156119Y-119213691D01*
X112125881Y-119183452D01*
X112095643Y-119122976D01*
X112095643Y-119002024D01*
X112125881Y-118941548D01*
X112156119Y-118911310D01*
X112216595Y-118881071D01*
X110583738Y-120151072D02*
X111218738Y-120151072D01*
X111218738Y-119999881D01*
X111188500Y-119909167D01*
X111128024Y-119848691D01*
X111067548Y-119818452D01*
X110946595Y-119788214D01*
X110855881Y-119788214D01*
X110734929Y-119818452D01*
X110674452Y-119848691D01*
X110613976Y-119909167D01*
X110583738Y-119999881D01*
X110583738Y-120151072D01*
X110583738Y-119183452D02*
X110583738Y-119546310D01*
X110583738Y-119364881D02*
X111218738Y-119364881D01*
X111128024Y-119425357D01*
X111067548Y-119485833D01*
X111037310Y-119546310D01*
X111218738Y-118790357D02*
X111218738Y-118729881D01*
X111188500Y-118669405D01*
X111158262Y-118639167D01*
X111097786Y-118608929D01*
X110976833Y-118578690D01*
X110825643Y-118578690D01*
X110704690Y-118608929D01*
X110644214Y-118639167D01*
X110613976Y-118669405D01*
X110583738Y-118729881D01*
X110583738Y-118790357D01*
X110613976Y-118850833D01*
X110644214Y-118881071D01*
X110704690Y-118911310D01*
X110825643Y-118941548D01*
X110976833Y-118941548D01*
X111097786Y-118911310D01*
X111158262Y-118881071D01*
X111188500Y-118850833D01*
X111218738Y-118790357D01*
X109313738Y-120151072D02*
X109948738Y-120151072D01*
X109948738Y-119999881D01*
X109918500Y-119909167D01*
X109858024Y-119848691D01*
X109797548Y-119818452D01*
X109676595Y-119788214D01*
X109585881Y-119788214D01*
X109464929Y-119818452D01*
X109404452Y-119848691D01*
X109343976Y-119909167D01*
X109313738Y-119999881D01*
X109313738Y-120151072D01*
X109313738Y-119183452D02*
X109313738Y-119546310D01*
X109313738Y-119364881D02*
X109948738Y-119364881D01*
X109858024Y-119425357D01*
X109797548Y-119485833D01*
X109767310Y-119546310D01*
X109313738Y-118578690D02*
X109313738Y-118941548D01*
X109313738Y-118760119D02*
X109948738Y-118760119D01*
X109858024Y-118820595D01*
X109797548Y-118881071D01*
X109767310Y-118941548D01*
X108043738Y-120151072D02*
X108678738Y-120151072D01*
X108678738Y-119999881D01*
X108648500Y-119909167D01*
X108588024Y-119848691D01*
X108527548Y-119818452D01*
X108406595Y-119788214D01*
X108315881Y-119788214D01*
X108194929Y-119818452D01*
X108134452Y-119848691D01*
X108073976Y-119909167D01*
X108043738Y-119999881D01*
X108043738Y-120151072D01*
X108043738Y-119183452D02*
X108043738Y-119546310D01*
X108043738Y-119364881D02*
X108678738Y-119364881D01*
X108588024Y-119425357D01*
X108527548Y-119485833D01*
X108497310Y-119546310D01*
X108618262Y-118941548D02*
X108648500Y-118911310D01*
X108678738Y-118850833D01*
X108678738Y-118699643D01*
X108648500Y-118639167D01*
X108618262Y-118608929D01*
X108557786Y-118578690D01*
X108497310Y-118578690D01*
X108406595Y-118608929D01*
X108043738Y-118971786D01*
X108043738Y-118578690D01*
X106773738Y-120151072D02*
X107408738Y-120151072D01*
X107408738Y-119999881D01*
X107378500Y-119909167D01*
X107318024Y-119848691D01*
X107257548Y-119818452D01*
X107136595Y-119788214D01*
X107045881Y-119788214D01*
X106924929Y-119818452D01*
X106864452Y-119848691D01*
X106803976Y-119909167D01*
X106773738Y-119999881D01*
X106773738Y-120151072D01*
X106773738Y-119183452D02*
X106773738Y-119546310D01*
X106773738Y-119364881D02*
X107408738Y-119364881D01*
X107318024Y-119425357D01*
X107257548Y-119485833D01*
X107227310Y-119546310D01*
X107408738Y-118971786D02*
X107408738Y-118578690D01*
X107166833Y-118790357D01*
X107166833Y-118699643D01*
X107136595Y-118639167D01*
X107106357Y-118608929D01*
X107045881Y-118578690D01*
X106894690Y-118578690D01*
X106834214Y-118608929D01*
X106803976Y-118639167D01*
X106773738Y-118699643D01*
X106773738Y-118881071D01*
X106803976Y-118941548D01*
X106834214Y-118971786D01*
X105503738Y-120105715D02*
X106138738Y-120105715D01*
X106138738Y-119954524D01*
X106108500Y-119863810D01*
X106048024Y-119803334D01*
X105987548Y-119773095D01*
X105866595Y-119742857D01*
X105775881Y-119742857D01*
X105654929Y-119773095D01*
X105594452Y-119803334D01*
X105533976Y-119863810D01*
X105503738Y-119954524D01*
X105503738Y-120105715D01*
X106138738Y-119561429D02*
X106138738Y-119198572D01*
X105503738Y-119380000D02*
X106138738Y-119380000D01*
X105503738Y-118624047D02*
X105806119Y-118835714D01*
X105503738Y-118986905D02*
X106138738Y-118986905D01*
X106138738Y-118745000D01*
X106108500Y-118684524D01*
X106078262Y-118654285D01*
X106017786Y-118624047D01*
X105927071Y-118624047D01*
X105866595Y-118654285D01*
X105836357Y-118684524D01*
X105806119Y-118745000D01*
X105806119Y-118986905D01*
X105685167Y-126183572D02*
X105685167Y-125881191D01*
X105503738Y-126244048D02*
X106138738Y-126032381D01*
X105503738Y-125820714D01*
X106138738Y-125669524D02*
X106138738Y-125276428D01*
X105896833Y-125488095D01*
X105896833Y-125397381D01*
X105866595Y-125336905D01*
X105836357Y-125306667D01*
X105775881Y-125276428D01*
X105624690Y-125276428D01*
X105564214Y-125306667D01*
X105533976Y-125336905D01*
X105503738Y-125397381D01*
X105503738Y-125578809D01*
X105533976Y-125639286D01*
X105564214Y-125669524D01*
X106955167Y-126183572D02*
X106955167Y-125881191D01*
X106773738Y-126244048D02*
X107408738Y-126032381D01*
X106773738Y-125820714D01*
X107197071Y-125336905D02*
X106773738Y-125336905D01*
X107438976Y-125488095D02*
X106985405Y-125639286D01*
X106985405Y-125246190D01*
X108225167Y-126183572D02*
X108225167Y-125881191D01*
X108043738Y-126244048D02*
X108678738Y-126032381D01*
X108043738Y-125820714D01*
X108678738Y-125306667D02*
X108678738Y-125609048D01*
X108376357Y-125639286D01*
X108406595Y-125609048D01*
X108436833Y-125548571D01*
X108436833Y-125397381D01*
X108406595Y-125336905D01*
X108376357Y-125306667D01*
X108315881Y-125276428D01*
X108164690Y-125276428D01*
X108104214Y-125306667D01*
X108073976Y-125336905D01*
X108043738Y-125397381D01*
X108043738Y-125548571D01*
X108073976Y-125609048D01*
X108104214Y-125639286D01*
X109313738Y-126077738D02*
X109616119Y-126289405D01*
X109313738Y-126440596D02*
X109948738Y-126440596D01*
X109948738Y-126198691D01*
X109918500Y-126138215D01*
X109888262Y-126107976D01*
X109827786Y-126077738D01*
X109737071Y-126077738D01*
X109676595Y-126107976D01*
X109646357Y-126138215D01*
X109616119Y-126198691D01*
X109616119Y-126440596D01*
X109343976Y-125835834D02*
X109313738Y-125745119D01*
X109313738Y-125593929D01*
X109343976Y-125533453D01*
X109374214Y-125503215D01*
X109434690Y-125472976D01*
X109495167Y-125472976D01*
X109555643Y-125503215D01*
X109585881Y-125533453D01*
X109616119Y-125593929D01*
X109646357Y-125714881D01*
X109676595Y-125775357D01*
X109706833Y-125805596D01*
X109767310Y-125835834D01*
X109827786Y-125835834D01*
X109888262Y-125805596D01*
X109918500Y-125775357D01*
X109948738Y-125714881D01*
X109948738Y-125563691D01*
X109918500Y-125472976D01*
X109948738Y-125291548D02*
X109948738Y-124928691D01*
X109313738Y-125110119D02*
X109948738Y-125110119D01*
X110583738Y-126198691D02*
X111218738Y-126198691D01*
X111218738Y-126047500D01*
X111188500Y-125956786D01*
X111128024Y-125896310D01*
X111067548Y-125866071D01*
X110946595Y-125835833D01*
X110855881Y-125835833D01*
X110734929Y-125866071D01*
X110674452Y-125896310D01*
X110613976Y-125956786D01*
X110583738Y-126047500D01*
X110583738Y-126198691D01*
X111218738Y-125442738D02*
X111218738Y-125382262D01*
X111188500Y-125321786D01*
X111158262Y-125291548D01*
X111097786Y-125261310D01*
X110976833Y-125231071D01*
X110825643Y-125231071D01*
X110704690Y-125261310D01*
X110644214Y-125291548D01*
X110613976Y-125321786D01*
X110583738Y-125382262D01*
X110583738Y-125442738D01*
X110613976Y-125503214D01*
X110644214Y-125533452D01*
X110704690Y-125563691D01*
X110825643Y-125593929D01*
X110976833Y-125593929D01*
X111097786Y-125563691D01*
X111158262Y-125533452D01*
X111188500Y-125503214D01*
X111218738Y-125442738D01*
X111853738Y-126198691D02*
X112488738Y-126198691D01*
X112488738Y-126047500D01*
X112458500Y-125956786D01*
X112398024Y-125896310D01*
X112337548Y-125866071D01*
X112216595Y-125835833D01*
X112125881Y-125835833D01*
X112004929Y-125866071D01*
X111944452Y-125896310D01*
X111883976Y-125956786D01*
X111853738Y-126047500D01*
X111853738Y-126198691D01*
X111853738Y-125231071D02*
X111853738Y-125593929D01*
X111853738Y-125412500D02*
X112488738Y-125412500D01*
X112398024Y-125472976D01*
X112337548Y-125533452D01*
X112307310Y-125593929D01*
X113123738Y-126198691D02*
X113758738Y-126198691D01*
X113758738Y-126047500D01*
X113728500Y-125956786D01*
X113668024Y-125896310D01*
X113607548Y-125866071D01*
X113486595Y-125835833D01*
X113395881Y-125835833D01*
X113274929Y-125866071D01*
X113214452Y-125896310D01*
X113153976Y-125956786D01*
X113123738Y-126047500D01*
X113123738Y-126198691D01*
X113698262Y-125593929D02*
X113728500Y-125563691D01*
X113758738Y-125503214D01*
X113758738Y-125352024D01*
X113728500Y-125291548D01*
X113698262Y-125261310D01*
X113637786Y-125231071D01*
X113577310Y-125231071D01*
X113486595Y-125261310D01*
X113123738Y-125624167D01*
X113123738Y-125231071D01*
X114393738Y-126198691D02*
X115028738Y-126198691D01*
X115028738Y-126047500D01*
X114998500Y-125956786D01*
X114938024Y-125896310D01*
X114877548Y-125866071D01*
X114756595Y-125835833D01*
X114665881Y-125835833D01*
X114544929Y-125866071D01*
X114484452Y-125896310D01*
X114423976Y-125956786D01*
X114393738Y-126047500D01*
X114393738Y-126198691D01*
X115028738Y-125624167D02*
X115028738Y-125231071D01*
X114786833Y-125442738D01*
X114786833Y-125352024D01*
X114756595Y-125291548D01*
X114726357Y-125261310D01*
X114665881Y-125231071D01*
X114514690Y-125231071D01*
X114454214Y-125261310D01*
X114423976Y-125291548D01*
X114393738Y-125352024D01*
X114393738Y-125533452D01*
X114423976Y-125593929D01*
X114454214Y-125624167D01*
X115663738Y-126198691D02*
X116298738Y-126198691D01*
X116298738Y-126047500D01*
X116268500Y-125956786D01*
X116208024Y-125896310D01*
X116147548Y-125866071D01*
X116026595Y-125835833D01*
X115935881Y-125835833D01*
X115814929Y-125866071D01*
X115754452Y-125896310D01*
X115693976Y-125956786D01*
X115663738Y-126047500D01*
X115663738Y-126198691D01*
X116087071Y-125291548D02*
X115663738Y-125291548D01*
X116328976Y-125442738D02*
X115875405Y-125593929D01*
X115875405Y-125200833D01*
X118808500Y-126213809D02*
X118838738Y-126274286D01*
X118838738Y-126365000D01*
X118808500Y-126455714D01*
X118748024Y-126516190D01*
X118687548Y-126546429D01*
X118566595Y-126576667D01*
X118475881Y-126576667D01*
X118354929Y-126546429D01*
X118294452Y-126516190D01*
X118233976Y-126455714D01*
X118203738Y-126365000D01*
X118203738Y-126304524D01*
X118233976Y-126213809D01*
X118264214Y-126183571D01*
X118475881Y-126183571D01*
X118475881Y-126304524D01*
X118203738Y-125911429D02*
X118838738Y-125911429D01*
X118203738Y-125548571D01*
X118838738Y-125548571D01*
X118203738Y-125246191D02*
X118838738Y-125246191D01*
X118838738Y-125095000D01*
X118808500Y-125004286D01*
X118748024Y-124943810D01*
X118687548Y-124913571D01*
X118566595Y-124883333D01*
X118475881Y-124883333D01*
X118354929Y-124913571D01*
X118294452Y-124943810D01*
X118233976Y-125004286D01*
X118203738Y-125095000D01*
X118203738Y-125246191D01*
X120108738Y-126425476D02*
X119473738Y-126213809D01*
X120108738Y-126002142D01*
X119473738Y-125790476D02*
X120108738Y-125790476D01*
X119473738Y-125488095D02*
X120108738Y-125488095D01*
X119473738Y-125125237D01*
X120108738Y-125125237D01*
X117568738Y-126576667D02*
X116933738Y-126365000D01*
X117568738Y-126153333D01*
X116994214Y-125578809D02*
X116963976Y-125609047D01*
X116933738Y-125699762D01*
X116933738Y-125760238D01*
X116963976Y-125850952D01*
X117024452Y-125911428D01*
X117084929Y-125941667D01*
X117205881Y-125971905D01*
X117296595Y-125971905D01*
X117417548Y-125941667D01*
X117478024Y-125911428D01*
X117538500Y-125850952D01*
X117568738Y-125760238D01*
X117568738Y-125699762D01*
X117538500Y-125609047D01*
X117508262Y-125578809D01*
X116994214Y-124943809D02*
X116963976Y-124974047D01*
X116933738Y-125064762D01*
X116933738Y-125125238D01*
X116963976Y-125215952D01*
X117024452Y-125276428D01*
X117084929Y-125306667D01*
X117205881Y-125336905D01*
X117296595Y-125336905D01*
X117417548Y-125306667D01*
X117478024Y-125276428D01*
X117538500Y-125215952D01*
X117568738Y-125125238D01*
X117568738Y-125064762D01*
X117538500Y-124974047D01*
X117508262Y-124943809D01*
M02*
