G04 #@! TF.FileFunction,Legend,Top*
%FSLAX46Y46*%
G04 Gerber Fmt 4.6, Leading zero omitted, Abs format (unit mm)*
G04 Created by KiCad (PCBNEW 4.0.0-rc2-stable) date 12/26/2015 3:45:16 PM*
%MOMM*%
G01*
G04 APERTURE LIST*
%ADD10C,0.100000*%
%ADD11C,0.158750*%
%ADD12C,0.150000*%
G04 APERTURE END LIST*
D10*
D11*
X115663738Y-125642309D02*
X116298738Y-125642309D01*
X116298738Y-125793500D01*
X116268500Y-125884214D01*
X116208024Y-125944690D01*
X116147548Y-125974929D01*
X116026595Y-126005167D01*
X115935881Y-126005167D01*
X115814929Y-125974929D01*
X115754452Y-125944690D01*
X115693976Y-125884214D01*
X115663738Y-125793500D01*
X115663738Y-125642309D01*
X116087071Y-126549452D02*
X115663738Y-126549452D01*
X116328976Y-126398262D02*
X115875405Y-126247071D01*
X115875405Y-126640167D01*
X114393738Y-125642309D02*
X115028738Y-125642309D01*
X115028738Y-125793500D01*
X114998500Y-125884214D01*
X114938024Y-125944690D01*
X114877548Y-125974929D01*
X114756595Y-126005167D01*
X114665881Y-126005167D01*
X114544929Y-125974929D01*
X114484452Y-125944690D01*
X114423976Y-125884214D01*
X114393738Y-125793500D01*
X114393738Y-125642309D01*
X115028738Y-126216833D02*
X115028738Y-126609929D01*
X114786833Y-126398262D01*
X114786833Y-126488976D01*
X114756595Y-126549452D01*
X114726357Y-126579690D01*
X114665881Y-126609929D01*
X114514690Y-126609929D01*
X114454214Y-126579690D01*
X114423976Y-126549452D01*
X114393738Y-126488976D01*
X114393738Y-126307548D01*
X114423976Y-126247071D01*
X114454214Y-126216833D01*
X113123738Y-125642309D02*
X113758738Y-125642309D01*
X113758738Y-125793500D01*
X113728500Y-125884214D01*
X113668024Y-125944690D01*
X113607548Y-125974929D01*
X113486595Y-126005167D01*
X113395881Y-126005167D01*
X113274929Y-125974929D01*
X113214452Y-125944690D01*
X113153976Y-125884214D01*
X113123738Y-125793500D01*
X113123738Y-125642309D01*
X113698262Y-126247071D02*
X113728500Y-126277309D01*
X113758738Y-126337786D01*
X113758738Y-126488976D01*
X113728500Y-126549452D01*
X113698262Y-126579690D01*
X113637786Y-126609929D01*
X113577310Y-126609929D01*
X113486595Y-126579690D01*
X113123738Y-126216833D01*
X113123738Y-126609929D01*
X111853738Y-125642309D02*
X112488738Y-125642309D01*
X112488738Y-125793500D01*
X112458500Y-125884214D01*
X112398024Y-125944690D01*
X112337548Y-125974929D01*
X112216595Y-126005167D01*
X112125881Y-126005167D01*
X112004929Y-125974929D01*
X111944452Y-125944690D01*
X111883976Y-125884214D01*
X111853738Y-125793500D01*
X111853738Y-125642309D01*
X111853738Y-126609929D02*
X111853738Y-126247071D01*
X111853738Y-126428500D02*
X112488738Y-126428500D01*
X112398024Y-126368024D01*
X112337548Y-126307548D01*
X112307310Y-126247071D01*
X110583738Y-125642309D02*
X111218738Y-125642309D01*
X111218738Y-125793500D01*
X111188500Y-125884214D01*
X111128024Y-125944690D01*
X111067548Y-125974929D01*
X110946595Y-126005167D01*
X110855881Y-126005167D01*
X110734929Y-125974929D01*
X110674452Y-125944690D01*
X110613976Y-125884214D01*
X110583738Y-125793500D01*
X110583738Y-125642309D01*
X111218738Y-126398262D02*
X111218738Y-126458738D01*
X111188500Y-126519214D01*
X111158262Y-126549452D01*
X111097786Y-126579690D01*
X110976833Y-126609929D01*
X110825643Y-126609929D01*
X110704690Y-126579690D01*
X110644214Y-126549452D01*
X110613976Y-126519214D01*
X110583738Y-126458738D01*
X110583738Y-126398262D01*
X110613976Y-126337786D01*
X110644214Y-126307548D01*
X110704690Y-126277309D01*
X110825643Y-126247071D01*
X110976833Y-126247071D01*
X111097786Y-126277309D01*
X111158262Y-126307548D01*
X111188500Y-126337786D01*
X111218738Y-126398262D01*
X118445643Y-118630095D02*
X118445643Y-119113905D01*
X116933738Y-118530309D02*
X117568738Y-118530309D01*
X117568738Y-118681500D01*
X117538500Y-118772214D01*
X117478024Y-118832690D01*
X117417548Y-118862929D01*
X117296595Y-118893167D01*
X117205881Y-118893167D01*
X117084929Y-118862929D01*
X117024452Y-118832690D01*
X116963976Y-118772214D01*
X116933738Y-118681500D01*
X116933738Y-118530309D01*
X117568738Y-119467690D02*
X117568738Y-119165309D01*
X117266357Y-119135071D01*
X117296595Y-119165309D01*
X117326833Y-119225786D01*
X117326833Y-119376976D01*
X117296595Y-119437452D01*
X117266357Y-119467690D01*
X117205881Y-119497929D01*
X117054690Y-119497929D01*
X116994214Y-119467690D01*
X116963976Y-119437452D01*
X116933738Y-119376976D01*
X116933738Y-119225786D01*
X116963976Y-119165309D01*
X116994214Y-119135071D01*
X115663738Y-118530309D02*
X116298738Y-118530309D01*
X116298738Y-118681500D01*
X116268500Y-118772214D01*
X116208024Y-118832690D01*
X116147548Y-118862929D01*
X116026595Y-118893167D01*
X115935881Y-118893167D01*
X115814929Y-118862929D01*
X115754452Y-118832690D01*
X115693976Y-118772214D01*
X115663738Y-118681500D01*
X115663738Y-118530309D01*
X116298738Y-119437452D02*
X116298738Y-119316500D01*
X116268500Y-119256024D01*
X116238262Y-119225786D01*
X116147548Y-119165309D01*
X116026595Y-119135071D01*
X115784690Y-119135071D01*
X115724214Y-119165309D01*
X115693976Y-119195548D01*
X115663738Y-119256024D01*
X115663738Y-119376976D01*
X115693976Y-119437452D01*
X115724214Y-119467690D01*
X115784690Y-119497929D01*
X115935881Y-119497929D01*
X115996357Y-119467690D01*
X116026595Y-119437452D01*
X116056833Y-119376976D01*
X116056833Y-119256024D01*
X116026595Y-119195548D01*
X115996357Y-119165309D01*
X115935881Y-119135071D01*
X114393738Y-118530309D02*
X115028738Y-118530309D01*
X115028738Y-118681500D01*
X114998500Y-118772214D01*
X114938024Y-118832690D01*
X114877548Y-118862929D01*
X114756595Y-118893167D01*
X114665881Y-118893167D01*
X114544929Y-118862929D01*
X114484452Y-118832690D01*
X114423976Y-118772214D01*
X114393738Y-118681500D01*
X114393738Y-118530309D01*
X115028738Y-119104833D02*
X115028738Y-119528167D01*
X114393738Y-119256024D01*
X113123738Y-118530309D02*
X113758738Y-118530309D01*
X113758738Y-118681500D01*
X113728500Y-118772214D01*
X113668024Y-118832690D01*
X113607548Y-118862929D01*
X113486595Y-118893167D01*
X113395881Y-118893167D01*
X113274929Y-118862929D01*
X113214452Y-118832690D01*
X113153976Y-118772214D01*
X113123738Y-118681500D01*
X113123738Y-118530309D01*
X113486595Y-119256024D02*
X113516833Y-119195548D01*
X113547071Y-119165309D01*
X113607548Y-119135071D01*
X113637786Y-119135071D01*
X113698262Y-119165309D01*
X113728500Y-119195548D01*
X113758738Y-119256024D01*
X113758738Y-119376976D01*
X113728500Y-119437452D01*
X113698262Y-119467690D01*
X113637786Y-119497929D01*
X113607548Y-119497929D01*
X113547071Y-119467690D01*
X113516833Y-119437452D01*
X113486595Y-119376976D01*
X113486595Y-119256024D01*
X113456357Y-119195548D01*
X113426119Y-119165309D01*
X113365643Y-119135071D01*
X113244690Y-119135071D01*
X113184214Y-119165309D01*
X113153976Y-119195548D01*
X113123738Y-119256024D01*
X113123738Y-119376976D01*
X113153976Y-119437452D01*
X113184214Y-119467690D01*
X113244690Y-119497929D01*
X113365643Y-119497929D01*
X113426119Y-119467690D01*
X113456357Y-119437452D01*
X113486595Y-119376976D01*
X111853738Y-118530309D02*
X112488738Y-118530309D01*
X112488738Y-118681500D01*
X112458500Y-118772214D01*
X112398024Y-118832690D01*
X112337548Y-118862929D01*
X112216595Y-118893167D01*
X112125881Y-118893167D01*
X112004929Y-118862929D01*
X111944452Y-118832690D01*
X111883976Y-118772214D01*
X111853738Y-118681500D01*
X111853738Y-118530309D01*
X111853738Y-119195548D02*
X111853738Y-119316500D01*
X111883976Y-119376976D01*
X111914214Y-119407214D01*
X112004929Y-119467690D01*
X112125881Y-119497929D01*
X112367786Y-119497929D01*
X112428262Y-119467690D01*
X112458500Y-119437452D01*
X112488738Y-119376976D01*
X112488738Y-119256024D01*
X112458500Y-119195548D01*
X112428262Y-119165309D01*
X112367786Y-119135071D01*
X112216595Y-119135071D01*
X112156119Y-119165309D01*
X112125881Y-119195548D01*
X112095643Y-119256024D01*
X112095643Y-119376976D01*
X112125881Y-119437452D01*
X112156119Y-119467690D01*
X112216595Y-119497929D01*
X110583738Y-118481928D02*
X111218738Y-118481928D01*
X111218738Y-118633119D01*
X111188500Y-118723833D01*
X111128024Y-118784309D01*
X111067548Y-118814548D01*
X110946595Y-118844786D01*
X110855881Y-118844786D01*
X110734929Y-118814548D01*
X110674452Y-118784309D01*
X110613976Y-118723833D01*
X110583738Y-118633119D01*
X110583738Y-118481928D01*
X110583738Y-119449548D02*
X110583738Y-119086690D01*
X110583738Y-119268119D02*
X111218738Y-119268119D01*
X111128024Y-119207643D01*
X111067548Y-119147167D01*
X111037310Y-119086690D01*
X111218738Y-119842643D02*
X111218738Y-119903119D01*
X111188500Y-119963595D01*
X111158262Y-119993833D01*
X111097786Y-120024071D01*
X110976833Y-120054310D01*
X110825643Y-120054310D01*
X110704690Y-120024071D01*
X110644214Y-119993833D01*
X110613976Y-119963595D01*
X110583738Y-119903119D01*
X110583738Y-119842643D01*
X110613976Y-119782167D01*
X110644214Y-119751929D01*
X110704690Y-119721690D01*
X110825643Y-119691452D01*
X110976833Y-119691452D01*
X111097786Y-119721690D01*
X111158262Y-119751929D01*
X111188500Y-119782167D01*
X111218738Y-119842643D01*
X109313738Y-118481928D02*
X109948738Y-118481928D01*
X109948738Y-118633119D01*
X109918500Y-118723833D01*
X109858024Y-118784309D01*
X109797548Y-118814548D01*
X109676595Y-118844786D01*
X109585881Y-118844786D01*
X109464929Y-118814548D01*
X109404452Y-118784309D01*
X109343976Y-118723833D01*
X109313738Y-118633119D01*
X109313738Y-118481928D01*
X109313738Y-119449548D02*
X109313738Y-119086690D01*
X109313738Y-119268119D02*
X109948738Y-119268119D01*
X109858024Y-119207643D01*
X109797548Y-119147167D01*
X109767310Y-119086690D01*
X109313738Y-120054310D02*
X109313738Y-119691452D01*
X109313738Y-119872881D02*
X109948738Y-119872881D01*
X109858024Y-119812405D01*
X109797548Y-119751929D01*
X109767310Y-119691452D01*
D12*
X118233000Y-120876000D02*
X117983000Y-121116000D01*
X118233000Y-119926000D02*
X117973000Y-119676000D01*
X118233000Y-119921000D02*
X117733000Y-119921000D01*
X117733000Y-120871000D02*
X118233000Y-120871000D01*
X106809000Y-121520000D02*
X107059000Y-121520000D01*
X107059000Y-122320000D02*
X106809000Y-122320000D01*
X114065000Y-123065000D02*
X114065000Y-123315000D01*
X113265000Y-123315000D02*
X113265000Y-123065000D01*
X106250200Y-125457000D02*
X106500200Y-125457000D01*
X106500200Y-126257000D02*
X106250200Y-126257000D01*
X120013000Y-120796000D02*
X119763000Y-120796000D01*
X119763000Y-119996000D02*
X120013000Y-119996000D01*
X107059000Y-125114000D02*
X106809000Y-125114000D01*
X106809000Y-124314000D02*
X107059000Y-124314000D01*
X106809000Y-122282000D02*
X107059000Y-122282000D01*
X107059000Y-123082000D02*
X106809000Y-123082000D01*
X118741000Y-125636000D02*
X118241000Y-125636000D01*
X118241000Y-126586000D02*
X118741000Y-126586000D01*
X117061000Y-123313000D02*
X117061000Y-122813000D01*
X116111000Y-122813000D02*
X116111000Y-123313000D01*
X107562840Y-118625680D02*
X107812840Y-118385680D01*
X107562840Y-119575680D02*
X107822840Y-119825680D01*
X107562840Y-119580680D02*
X108062840Y-119580680D01*
X108062840Y-118630680D02*
X107562840Y-118630680D01*
X105772000Y-119505000D02*
X105772000Y-119255000D01*
X106572000Y-119255000D02*
X106572000Y-119505000D01*
M02*
