G04 MADE WITH FRITZING*
G04 WWW.FRITZING.ORG*
G04 DOUBLE SIDED*
G04 HOLES PLATED*
G04 CONTOUR ON CENTER OF CONTOUR VECTOR*
%ASAXBY*%
%FSLAX23Y23*%
%MOIN*%
%OFA0B0*%
%SFA1.0B1.0*%
%ADD10C,0.027165*%
%ADD11C,0.044882*%
%ADD12C,0.042426*%
%ADD13C,0.018661*%
%ADD14R,0.013987X0.019667*%
%ADD15R,0.021654X0.047244*%
%ADD16R,0.019667X0.013987*%
%ADD17R,0.011811X0.031496*%
%ADD18R,0.086614X0.086614*%
%ADD19R,0.031496X0.011811*%
%ADD20C,0.006000*%
%ADD21C,0.012000*%
%ADD22C,0.008000*%
%ADD23C,0.011111*%
%ADD24C,0.010000*%
%ADD25R,0.001000X0.001000*%
%LNCOPPER1*%
G90*
G70*
G54D10*
X171Y189D03*
X226Y246D03*
G54D11*
X52Y119D03*
G54D12*
X53Y63D03*
X103Y63D03*
X153Y63D03*
X203Y63D03*
X253Y63D03*
X303Y63D03*
X353Y63D03*
X403Y63D03*
X453Y63D03*
X503Y63D03*
X553Y63D03*
X603Y63D03*
X50Y396D03*
X100Y396D03*
X150Y396D03*
X200Y396D03*
X250Y396D03*
X300Y396D03*
X350Y396D03*
X400Y396D03*
X450Y396D03*
X500Y396D03*
X550Y396D03*
X600Y396D03*
G54D10*
X449Y184D03*
G54D13*
X77Y175D03*
X78Y274D03*
X36Y171D03*
G54D10*
X426Y311D03*
G54D14*
X507Y336D03*
X537Y337D03*
X30Y339D03*
X59Y339D03*
G54D15*
X527Y155D03*
X564Y155D03*
X602Y155D03*
X602Y257D03*
X527Y257D03*
G54D16*
X85Y205D03*
X85Y234D03*
X406Y184D03*
X406Y154D03*
G54D14*
X572Y107D03*
X602Y107D03*
G54D17*
X254Y138D03*
G54D18*
X201Y216D03*
G54D17*
X236Y138D03*
X219Y138D03*
X201Y138D03*
X183Y138D03*
X166Y138D03*
X148Y138D03*
G54D19*
X280Y181D03*
X280Y199D03*
X280Y216D03*
X280Y234D03*
X280Y252D03*
X280Y269D03*
X122Y163D03*
X122Y181D03*
X122Y199D03*
X122Y216D03*
X122Y234D03*
X122Y252D03*
X122Y269D03*
G54D17*
X254Y295D03*
X236Y295D03*
X219Y295D03*
X201Y295D03*
X183Y295D03*
X166Y295D03*
X148Y295D03*
G54D14*
X600Y336D03*
X570Y336D03*
X76Y307D03*
X47Y307D03*
G54D20*
X470Y360D02*
X448Y360D01*
D02*
X448Y360D02*
X437Y346D01*
D02*
X437Y346D02*
X411Y346D01*
D02*
X411Y346D02*
X395Y328D01*
D02*
X395Y328D02*
X361Y328D01*
D02*
X361Y328D02*
X346Y313D01*
D02*
X346Y313D02*
X318Y313D01*
D02*
X318Y313D02*
X279Y280D01*
D02*
X279Y280D02*
X280Y270D01*
D02*
X425Y362D02*
X398Y362D01*
D02*
X398Y362D02*
X385Y346D01*
D02*
X385Y346D02*
X355Y346D01*
D02*
X355Y346D02*
X342Y331D01*
D02*
X342Y331D02*
X308Y331D01*
D02*
X308Y331D02*
X266Y295D01*
D02*
X266Y295D02*
X254Y295D01*
D02*
X489Y383D02*
X470Y360D01*
D02*
X440Y382D02*
X425Y362D01*
D02*
X373Y363D02*
X346Y363D01*
D02*
X346Y363D02*
X332Y346D01*
D02*
X332Y346D02*
X299Y346D01*
D02*
X299Y346D02*
X281Y330D01*
D02*
X281Y330D02*
X256Y330D01*
D02*
X256Y330D02*
X244Y318D01*
D02*
X244Y318D02*
X238Y318D01*
D02*
X238Y318D02*
X236Y316D01*
D02*
X236Y316D02*
X236Y305D01*
D02*
X389Y383D02*
X373Y363D01*
D02*
X320Y361D02*
X290Y361D01*
D02*
X290Y361D02*
X274Y346D01*
D02*
X274Y346D02*
X249Y346D01*
D02*
X249Y346D02*
X236Y332D01*
D02*
X236Y332D02*
X222Y332D01*
D02*
X222Y332D02*
X218Y328D01*
D02*
X218Y328D02*
X219Y305D01*
D02*
X339Y383D02*
X320Y361D01*
D02*
X265Y361D02*
X241Y361D01*
D02*
X241Y361D02*
X227Y346D01*
D02*
X227Y346D02*
X206Y346D01*
D02*
X206Y346D02*
X201Y341D01*
D02*
X201Y341D02*
X201Y305D01*
D02*
X288Y384D02*
X265Y361D01*
D02*
X122Y281D02*
X122Y270D01*
D02*
X100Y305D02*
X122Y281D01*
D02*
X100Y379D02*
X100Y305D01*
G54D21*
D02*
X600Y183D02*
X585Y195D01*
D02*
X585Y195D02*
X542Y195D01*
D02*
X542Y195D02*
X527Y182D01*
D02*
X527Y182D02*
X527Y173D01*
D02*
X601Y173D02*
X600Y183D01*
D02*
X564Y107D02*
X564Y137D01*
D02*
X557Y79D02*
X564Y107D01*
D02*
X602Y80D02*
X602Y103D01*
D02*
X602Y111D02*
X602Y137D01*
D02*
X564Y107D02*
X571Y107D01*
G54D20*
D02*
X420Y102D02*
X396Y103D01*
D02*
X396Y103D02*
X381Y122D01*
D02*
X381Y122D02*
X353Y123D01*
D02*
X353Y123D02*
X301Y181D01*
D02*
X301Y181D02*
X290Y181D01*
D02*
X442Y76D02*
X420Y102D01*
D02*
X88Y100D02*
X109Y100D01*
D02*
X109Y100D02*
X144Y138D01*
D02*
X144Y138D02*
X147Y138D01*
D02*
X64Y75D02*
X88Y100D01*
G54D22*
D02*
X349Y265D02*
X331Y252D01*
D02*
X331Y252D02*
X290Y252D01*
D02*
X370Y270D02*
X349Y265D01*
G54D21*
D02*
X491Y129D02*
X491Y201D01*
D02*
X492Y107D02*
X491Y129D01*
D02*
X491Y201D02*
X528Y230D01*
D02*
X499Y79D02*
X492Y107D01*
G54D22*
D02*
X472Y228D02*
X465Y220D01*
D02*
X465Y220D02*
X349Y220D01*
D02*
X349Y220D02*
X332Y234D01*
D02*
X332Y234D02*
X290Y234D01*
D02*
X472Y244D02*
X472Y228D01*
G54D21*
D02*
X402Y184D02*
X378Y184D01*
D02*
X437Y184D02*
X410Y184D01*
D02*
X402Y154D02*
X378Y154D01*
D02*
X426Y129D02*
X407Y153D01*
D02*
X491Y129D02*
X426Y129D01*
G54D23*
D02*
X473Y337D02*
X444Y323D01*
D02*
X505Y336D02*
X473Y337D01*
D02*
X533Y367D02*
X507Y350D01*
D02*
X507Y350D02*
X507Y341D01*
D02*
X541Y381D02*
X533Y367D01*
G54D20*
D02*
X352Y184D02*
X321Y216D01*
D02*
X321Y216D02*
X290Y216D01*
D02*
X370Y184D02*
X352Y184D01*
D02*
X351Y155D02*
X370Y154D01*
D02*
X310Y199D02*
X351Y155D01*
D02*
X290Y199D02*
X310Y199D01*
D02*
X29Y177D02*
X28Y178D01*
D02*
X29Y307D02*
X29Y177D01*
D02*
X30Y334D02*
X29Y307D01*
G54D24*
D02*
X227Y247D02*
X218Y237D01*
D02*
X180Y197D02*
X171Y189D01*
G54D20*
D02*
X59Y367D02*
X55Y380D01*
D02*
X59Y343D02*
X59Y367D01*
D02*
X147Y358D02*
X149Y379D01*
D02*
X148Y305D02*
X147Y358D01*
D02*
X89Y205D02*
X100Y217D01*
D02*
X100Y217D02*
X112Y217D01*
D02*
X89Y205D02*
X89Y205D01*
D02*
X89Y234D02*
X112Y234D01*
D02*
X69Y179D02*
X67Y180D01*
D02*
X51Y190D02*
X69Y179D01*
D02*
X51Y203D02*
X51Y190D01*
D02*
X77Y179D02*
X77Y186D01*
D02*
X84Y203D02*
X77Y179D01*
D02*
X73Y275D02*
X68Y277D01*
D02*
X51Y256D02*
X73Y275D01*
D02*
X51Y235D02*
X51Y256D01*
D02*
X96Y252D02*
X112Y252D01*
D02*
X85Y266D02*
X96Y252D01*
D02*
X165Y364D02*
X166Y305D01*
D02*
X187Y384D02*
X165Y364D01*
D02*
X219Y362D02*
X187Y362D01*
D02*
X187Y362D02*
X183Y358D01*
D02*
X183Y358D02*
X183Y305D01*
D02*
X238Y383D02*
X219Y362D01*
D02*
X202Y92D02*
X201Y127D01*
D02*
X202Y80D02*
X202Y92D01*
D02*
X101Y119D02*
X122Y143D01*
D02*
X122Y143D02*
X122Y163D01*
D02*
X69Y119D02*
X101Y119D01*
D02*
X139Y103D02*
X158Y103D01*
D02*
X158Y103D02*
X165Y111D01*
D02*
X165Y111D02*
X165Y127D01*
D02*
X114Y75D02*
X139Y103D01*
D02*
X183Y102D02*
X183Y127D01*
D02*
X163Y76D02*
X183Y102D01*
D02*
X293Y134D02*
X280Y146D01*
D02*
X372Y100D02*
X346Y100D01*
D02*
X346Y100D02*
X317Y134D01*
D02*
X317Y134D02*
X293Y134D01*
D02*
X280Y146D02*
X280Y163D01*
D02*
X392Y76D02*
X372Y100D01*
D02*
X307Y116D02*
X262Y116D01*
D02*
X262Y116D02*
X255Y120D01*
D02*
X255Y120D02*
X254Y127D01*
D02*
X342Y76D02*
X307Y116D01*
D02*
X273Y98D02*
X246Y98D01*
D02*
X246Y98D02*
X237Y107D01*
D02*
X237Y107D02*
X237Y127D01*
D02*
X292Y76D02*
X273Y98D01*
D02*
X219Y97D02*
X219Y127D01*
D02*
X241Y75D02*
X219Y97D01*
G54D21*
D02*
X599Y318D02*
X568Y294D01*
D02*
X568Y294D02*
X567Y276D01*
D02*
X567Y276D02*
X551Y257D01*
D02*
X551Y257D02*
X532Y257D01*
D02*
X538Y337D02*
X569Y336D01*
D02*
X600Y341D02*
X600Y379D01*
D02*
X600Y332D02*
X599Y318D01*
G54D20*
D02*
X426Y300D02*
X426Y299D01*
G54D23*
D02*
X444Y323D02*
X436Y318D01*
G54D21*
D02*
X528Y230D02*
X527Y239D01*
G54D20*
D02*
X29Y307D02*
X45Y307D01*
D02*
X78Y284D02*
X77Y303D01*
G36*
X41Y211D02*
X61Y211D01*
X61Y197D01*
X41Y197D01*
X41Y211D01*
G37*
D02*
G36*
X41Y241D02*
X61Y241D01*
X61Y227D01*
X41Y227D01*
X41Y241D01*
G37*
D02*
G36*
X459Y238D02*
X459Y305D01*
X486Y305D01*
X486Y238D01*
X459Y238D01*
G37*
D02*
G36*
X412Y238D02*
X412Y305D01*
X439Y305D01*
X439Y238D01*
X412Y238D01*
G37*
D02*
G36*
X364Y238D02*
X364Y305D01*
X392Y305D01*
X392Y238D01*
X364Y238D01*
G37*
D02*
G36*
X384Y177D02*
X364Y177D01*
X364Y191D01*
X384Y191D01*
X384Y177D01*
G37*
D02*
G36*
X384Y147D02*
X364Y147D01*
X364Y161D01*
X384Y161D01*
X384Y147D01*
G37*
D02*
G54D25*
X264Y170D02*
X294Y170D01*
X264Y169D02*
X294Y169D01*
X264Y168D02*
X294Y168D01*
X264Y167D02*
X294Y167D01*
X264Y166D02*
X294Y166D01*
X264Y165D02*
X294Y165D01*
X264Y164D02*
X294Y164D01*
X264Y163D02*
X294Y163D01*
X264Y162D02*
X294Y162D01*
X264Y161D02*
X294Y161D01*
X264Y160D02*
X294Y160D01*
X264Y159D02*
X294Y159D01*
D02*
G04 End of Copper1*
M02*