; NON-PLATED HOLES START AT T1
; THROUGH (PLATED) HOLES START AT T100
M48
INCH
T100C0.022741
T101C0.012992
T102C0.023622
T103C0.010000
%
T100
X000526Y000629
X005498Y003956
X004498Y003956
X005998Y003956
X001498Y003956
X002998Y003956
X004026Y000629
X005526Y000629
X001998Y003956
X004526Y000629
X001026Y000629
X001526Y000629
X003498Y003956
X004998Y003956
X006026Y000629
X002498Y003956
X003998Y003956
X005026Y000629
X000498Y003956
X003026Y000629
X000998Y003956
X002026Y000629
X003526Y000629
X002526Y000629
T101
X004486Y001840
X002262Y002460
X001711Y001889
X004259Y003110
T102
X000518Y001192
T103
X000780Y002737
X000766Y001751
X000360Y001709
T00
M30
