G04 MADE WITH FRITZING*
G04 WWW.FRITZING.ORG*
G04 DOUBLE SIDED*
G04 HOLES PLATED*
G04 CONTOUR ON CENTER OF CONTOUR VECTOR*
%ASAXBY*%
%FSLAX23Y23*%
%MOIN*%
%OFA0B0*%
%SFA1.0B1.0*%
%ADD10C,0.075000*%
%ADD11C,0.027165*%
%ADD12C,0.044882*%
%ADD13C,0.042426*%
%ADD14C,0.018661*%
%ADD15R,0.029921X0.080709*%
%ADD16C,0.010000*%
%ADD17C,0.012000*%
%ADD18C,0.006000*%
%ADD19C,0.024000*%
%LNCOPPER0*%
G90*
G70*
G54D10*
X509Y275D03*
G54D11*
X171Y189D03*
X226Y246D03*
G54D12*
X52Y119D03*
G54D13*
X53Y63D03*
X103Y63D03*
X153Y63D03*
X203Y63D03*
X253Y63D03*
X303Y63D03*
X353Y63D03*
X403Y63D03*
X453Y63D03*
X503Y63D03*
X553Y63D03*
X603Y63D03*
X50Y396D03*
X100Y396D03*
X150Y396D03*
X200Y396D03*
X250Y396D03*
X300Y396D03*
X350Y396D03*
X400Y396D03*
X450Y396D03*
X500Y396D03*
X550Y396D03*
X600Y396D03*
G54D11*
X449Y184D03*
G54D14*
X77Y175D03*
X78Y274D03*
X36Y171D03*
G54D11*
X426Y311D03*
G54D15*
X272Y281D03*
X272Y141D03*
X322Y141D03*
X372Y141D03*
X322Y281D03*
X372Y281D03*
G54D16*
X37Y368D02*
X43Y380D01*
D02*
X37Y252D02*
X37Y368D01*
D02*
X63Y230D02*
X37Y252D01*
D02*
X75Y230D02*
X63Y230D01*
D02*
X175Y311D02*
X75Y230D01*
D02*
X269Y311D02*
X175Y311D01*
D02*
X272Y281D02*
X269Y311D01*
G54D17*
D02*
X322Y345D02*
X322Y316D01*
G54D16*
D02*
X252Y86D02*
X252Y80D01*
D02*
X262Y115D02*
X252Y86D01*
D02*
X303Y88D02*
X312Y114D01*
D02*
X303Y80D02*
X303Y88D01*
G54D17*
D02*
X81Y279D02*
X82Y283D01*
D02*
X162Y346D02*
X81Y279D01*
G54D18*
D02*
X174Y97D02*
X114Y97D01*
D02*
X114Y97D02*
X101Y107D01*
D02*
X101Y107D02*
X101Y130D01*
D02*
X35Y171D02*
X26Y175D01*
D02*
X101Y130D02*
X35Y171D01*
D02*
X192Y76D02*
X174Y97D01*
G54D17*
D02*
X581Y345D02*
X600Y360D01*
D02*
X600Y360D02*
X600Y379D01*
D02*
X322Y345D02*
X581Y345D01*
D02*
X162Y346D02*
X322Y345D01*
D02*
X426Y282D02*
X381Y281D01*
D02*
X426Y299D02*
X426Y282D01*
G54D19*
D02*
X449Y166D02*
X449Y141D01*
D02*
X449Y141D02*
X381Y141D01*
G36*
X64Y371D02*
X64Y369D01*
X60Y369D01*
X60Y367D01*
X58Y367D01*
X58Y365D01*
X96Y365D01*
X96Y367D01*
X90Y367D01*
X90Y369D01*
X86Y369D01*
X86Y371D01*
X64Y371D01*
G37*
D02*
G36*
X114Y371D02*
X114Y369D01*
X110Y369D01*
X110Y367D01*
X102Y367D01*
X102Y365D01*
X136Y365D01*
X136Y371D01*
X114Y371D01*
G37*
D02*
G36*
X58Y365D02*
X58Y363D01*
X136Y363D01*
X136Y365D01*
X58Y365D01*
G37*
D02*
G36*
X58Y365D02*
X58Y363D01*
X136Y363D01*
X136Y365D01*
X58Y365D01*
G37*
D02*
G36*
X58Y363D02*
X58Y305D01*
X80Y305D01*
X80Y307D01*
X82Y307D01*
X82Y309D01*
X84Y309D01*
X84Y311D01*
X86Y311D01*
X86Y313D01*
X88Y313D01*
X88Y315D01*
X92Y315D01*
X92Y317D01*
X94Y317D01*
X94Y319D01*
X96Y319D01*
X96Y321D01*
X98Y321D01*
X98Y323D01*
X102Y323D01*
X102Y325D01*
X104Y325D01*
X104Y327D01*
X106Y327D01*
X106Y329D01*
X108Y329D01*
X108Y331D01*
X110Y331D01*
X110Y333D01*
X114Y333D01*
X114Y335D01*
X116Y335D01*
X116Y337D01*
X118Y337D01*
X118Y339D01*
X120Y339D01*
X120Y341D01*
X124Y341D01*
X124Y343D01*
X126Y343D01*
X126Y345D01*
X128Y345D01*
X128Y347D01*
X130Y347D01*
X130Y349D01*
X132Y349D01*
X132Y351D01*
X136Y351D01*
X136Y363D01*
X58Y363D01*
G37*
D02*
G36*
X594Y329D02*
X594Y327D01*
X590Y327D01*
X590Y325D01*
X582Y325D01*
X582Y323D01*
X454Y323D01*
X454Y305D01*
X452Y305D01*
X452Y299D01*
X450Y299D01*
X450Y297D01*
X448Y297D01*
X448Y295D01*
X446Y295D01*
X446Y293D01*
X444Y293D01*
X444Y291D01*
X442Y291D01*
X442Y289D01*
X440Y289D01*
X440Y287D01*
X436Y287D01*
X436Y285D01*
X432Y285D01*
X432Y283D01*
X402Y283D01*
X402Y227D01*
X244Y227D01*
X244Y225D01*
X242Y225D01*
X242Y223D01*
X238Y223D01*
X238Y221D01*
X236Y221D01*
X236Y219D01*
X228Y219D01*
X228Y217D01*
X614Y217D01*
X614Y329D01*
X594Y329D01*
G37*
D02*
G36*
X180Y291D02*
X180Y289D01*
X178Y289D01*
X178Y287D01*
X176Y287D01*
X176Y285D01*
X172Y285D01*
X172Y283D01*
X170Y283D01*
X170Y281D01*
X168Y281D01*
X168Y279D01*
X166Y279D01*
X166Y277D01*
X162Y277D01*
X162Y275D01*
X160Y275D01*
X160Y273D01*
X158Y273D01*
X158Y271D01*
X156Y271D01*
X156Y269D01*
X154Y269D01*
X154Y267D01*
X150Y267D01*
X150Y265D01*
X148Y265D01*
X148Y263D01*
X146Y263D01*
X146Y261D01*
X144Y261D01*
X144Y259D01*
X140Y259D01*
X140Y257D01*
X138Y257D01*
X138Y255D01*
X136Y255D01*
X136Y253D01*
X134Y253D01*
X134Y251D01*
X130Y251D01*
X130Y249D01*
X128Y249D01*
X128Y247D01*
X126Y247D01*
X126Y245D01*
X124Y245D01*
X124Y243D01*
X122Y243D01*
X122Y241D01*
X118Y241D01*
X118Y239D01*
X116Y239D01*
X116Y237D01*
X114Y237D01*
X114Y235D01*
X112Y235D01*
X112Y233D01*
X108Y233D01*
X108Y231D01*
X106Y231D01*
X106Y229D01*
X104Y229D01*
X104Y227D01*
X102Y227D01*
X102Y225D01*
X98Y225D01*
X98Y223D01*
X96Y223D01*
X96Y221D01*
X94Y221D01*
X94Y219D01*
X92Y219D01*
X92Y217D01*
X88Y217D01*
X88Y195D01*
X90Y195D01*
X90Y193D01*
X92Y193D01*
X92Y191D01*
X94Y191D01*
X94Y189D01*
X96Y189D01*
X96Y187D01*
X98Y187D01*
X98Y183D01*
X100Y183D01*
X100Y161D01*
X164Y161D01*
X164Y163D01*
X160Y163D01*
X160Y165D01*
X156Y165D01*
X156Y167D01*
X154Y167D01*
X154Y169D01*
X152Y169D01*
X152Y171D01*
X150Y171D01*
X150Y173D01*
X148Y173D01*
X148Y177D01*
X146Y177D01*
X146Y179D01*
X144Y179D01*
X144Y185D01*
X142Y185D01*
X142Y193D01*
X144Y193D01*
X144Y199D01*
X146Y199D01*
X146Y203D01*
X148Y203D01*
X148Y205D01*
X150Y205D01*
X150Y207D01*
X152Y207D01*
X152Y209D01*
X154Y209D01*
X154Y211D01*
X156Y211D01*
X156Y213D01*
X160Y213D01*
X160Y215D01*
X164Y215D01*
X164Y217D01*
X224Y217D01*
X224Y219D01*
X218Y219D01*
X218Y221D01*
X214Y221D01*
X214Y223D01*
X210Y223D01*
X210Y225D01*
X208Y225D01*
X208Y227D01*
X206Y227D01*
X206Y229D01*
X204Y229D01*
X204Y231D01*
X202Y231D01*
X202Y235D01*
X200Y235D01*
X200Y239D01*
X198Y239D01*
X198Y253D01*
X200Y253D01*
X200Y257D01*
X202Y257D01*
X202Y261D01*
X204Y261D01*
X204Y263D01*
X206Y263D01*
X206Y265D01*
X208Y265D01*
X208Y267D01*
X210Y267D01*
X210Y269D01*
X212Y269D01*
X212Y271D01*
X216Y271D01*
X216Y291D01*
X180Y291D01*
G37*
D02*
G36*
X180Y217D02*
X180Y215D01*
X614Y215D01*
X614Y217D01*
X180Y217D01*
G37*
D02*
G36*
X180Y217D02*
X180Y215D01*
X614Y215D01*
X614Y217D01*
X180Y217D01*
G37*
D02*
G36*
X184Y215D02*
X184Y213D01*
X454Y213D01*
X454Y211D01*
X460Y211D01*
X460Y209D01*
X462Y209D01*
X462Y207D01*
X466Y207D01*
X466Y205D01*
X468Y205D01*
X468Y203D01*
X470Y203D01*
X470Y201D01*
X472Y201D01*
X472Y197D01*
X474Y197D01*
X474Y193D01*
X476Y193D01*
X476Y187D01*
X478Y187D01*
X478Y183D01*
X476Y183D01*
X476Y175D01*
X474Y175D01*
X474Y171D01*
X472Y171D01*
X472Y169D01*
X470Y169D01*
X470Y167D01*
X468Y167D01*
X468Y165D01*
X466Y165D01*
X466Y163D01*
X464Y163D01*
X464Y161D01*
X462Y161D01*
X462Y159D01*
X458Y159D01*
X458Y157D01*
X450Y157D01*
X450Y155D01*
X614Y155D01*
X614Y215D01*
X184Y215D01*
G37*
D02*
G36*
X186Y213D02*
X186Y211D01*
X188Y211D01*
X188Y209D01*
X190Y209D01*
X190Y207D01*
X192Y207D01*
X192Y205D01*
X194Y205D01*
X194Y203D01*
X196Y203D01*
X196Y199D01*
X198Y199D01*
X198Y197D01*
X402Y197D01*
X402Y191D01*
X422Y191D01*
X422Y195D01*
X424Y195D01*
X424Y199D01*
X426Y199D01*
X426Y201D01*
X428Y201D01*
X428Y203D01*
X430Y203D01*
X430Y205D01*
X432Y205D01*
X432Y207D01*
X434Y207D01*
X434Y209D01*
X438Y209D01*
X438Y211D01*
X442Y211D01*
X442Y213D01*
X186Y213D01*
G37*
D02*
G36*
X198Y197D02*
X198Y195D01*
X200Y195D01*
X200Y185D01*
X198Y185D01*
X198Y179D01*
X196Y179D01*
X196Y175D01*
X194Y175D01*
X194Y173D01*
X192Y173D01*
X192Y171D01*
X190Y171D01*
X190Y169D01*
X188Y169D01*
X188Y167D01*
X186Y167D01*
X186Y165D01*
X182Y165D01*
X182Y163D01*
X178Y163D01*
X178Y161D01*
X242Y161D01*
X242Y197D01*
X198Y197D01*
G37*
D02*
G36*
X402Y179D02*
X402Y155D01*
X448Y155D01*
X448Y157D01*
X440Y157D01*
X440Y159D01*
X436Y159D01*
X436Y161D01*
X434Y161D01*
X434Y163D01*
X430Y163D01*
X430Y165D01*
X428Y165D01*
X428Y167D01*
X426Y167D01*
X426Y171D01*
X424Y171D01*
X424Y173D01*
X422Y173D01*
X422Y179D01*
X402Y179D01*
G37*
D02*
G36*
X100Y161D02*
X100Y159D01*
X242Y159D01*
X242Y161D01*
X100Y161D01*
G37*
D02*
G36*
X100Y161D02*
X100Y159D01*
X242Y159D01*
X242Y161D01*
X100Y161D01*
G37*
D02*
G36*
X100Y159D02*
X100Y151D01*
X102Y151D01*
X102Y149D01*
X106Y149D01*
X106Y147D01*
X108Y147D01*
X108Y145D01*
X112Y145D01*
X112Y143D01*
X114Y143D01*
X114Y141D01*
X116Y141D01*
X116Y137D01*
X118Y137D01*
X118Y117D01*
X120Y117D01*
X120Y115D01*
X180Y115D01*
X180Y113D01*
X184Y113D01*
X184Y111D01*
X186Y111D01*
X186Y109D01*
X188Y109D01*
X188Y107D01*
X190Y107D01*
X190Y105D01*
X192Y105D01*
X192Y103D01*
X194Y103D01*
X194Y99D01*
X196Y99D01*
X196Y97D01*
X198Y97D01*
X198Y95D01*
X200Y95D01*
X200Y93D01*
X212Y93D01*
X212Y91D01*
X232Y91D01*
X232Y93D01*
X234Y93D01*
X234Y99D01*
X236Y99D01*
X236Y105D01*
X238Y105D01*
X238Y111D01*
X240Y111D01*
X240Y115D01*
X242Y115D01*
X242Y159D01*
X100Y159D01*
G37*
D02*
G36*
X402Y155D02*
X402Y153D01*
X614Y153D01*
X614Y155D01*
X402Y155D01*
G37*
D02*
G36*
X402Y155D02*
X402Y153D01*
X614Y153D01*
X614Y155D01*
X402Y155D01*
G37*
D02*
G36*
X402Y153D02*
X402Y93D01*
X562Y93D01*
X562Y91D01*
X566Y91D01*
X566Y89D01*
X590Y89D01*
X590Y91D01*
X594Y91D01*
X594Y93D01*
X614Y93D01*
X614Y153D01*
X402Y153D01*
G37*
D02*
G36*
X412Y93D02*
X412Y91D01*
X416Y91D01*
X416Y89D01*
X440Y89D01*
X440Y91D01*
X444Y91D01*
X444Y93D01*
X412Y93D01*
G37*
D02*
G36*
X462Y93D02*
X462Y91D01*
X466Y91D01*
X466Y89D01*
X490Y89D01*
X490Y91D01*
X494Y91D01*
X494Y93D01*
X462Y93D01*
G37*
D02*
G36*
X512Y93D02*
X512Y91D01*
X516Y91D01*
X516Y89D01*
X540Y89D01*
X540Y91D01*
X544Y91D01*
X544Y93D01*
X512Y93D01*
G37*
D02*
G36*
X198Y274D02*
X217Y274D01*
X217Y250D01*
X198Y250D01*
X198Y274D01*
G37*
D02*
G36*
X214Y241D02*
X233Y241D01*
X233Y217D01*
X214Y217D01*
X214Y241D01*
G37*
D02*
G36*
X194Y257D02*
X216Y257D01*
X216Y238D01*
X194Y238D01*
X194Y257D01*
G37*
D02*
G36*
X436Y217D02*
X455Y217D01*
X455Y193D01*
X436Y193D01*
X436Y217D01*
G37*
D02*
G36*
X452Y195D02*
X478Y195D01*
X478Y176D01*
X452Y176D01*
X452Y195D01*
G37*
D02*
G36*
X160Y221D02*
X179Y221D01*
X179Y199D01*
X160Y199D01*
X160Y221D01*
G37*
D02*
G36*
X160Y185D02*
X179Y185D01*
X179Y161D01*
X160Y161D01*
X160Y185D01*
G37*
D02*
G36*
X138Y201D02*
X162Y201D01*
X162Y182D01*
X138Y182D01*
X138Y201D01*
G37*
D02*
G36*
X176Y201D02*
X200Y201D01*
X200Y182D01*
X176Y182D01*
X176Y201D01*
G37*
D02*
G36*
X430Y323D02*
X454Y323D01*
X454Y304D01*
X430Y304D01*
X430Y323D01*
G37*
D02*
G36*
X359Y201D02*
X380Y201D01*
X380Y145D01*
X359Y145D01*
X359Y201D01*
G37*
D02*
G36*
X73Y202D02*
X100Y202D01*
X100Y184D01*
X73Y184D01*
X73Y202D01*
G37*
D02*
G36*
X536Y97D02*
X563Y97D01*
X563Y77D01*
X536Y77D01*
X536Y97D01*
G37*
D02*
G36*
X378Y197D02*
X405Y197D01*
X405Y179D01*
X378Y179D01*
X378Y197D01*
G37*
D02*
G36*
X405Y193D02*
X420Y193D01*
X420Y173D01*
X405Y173D01*
X405Y193D01*
G37*
D02*
G36*
X80Y185D02*
X100Y185D01*
X100Y170D01*
X80Y170D01*
X80Y185D01*
G37*
D02*
G04 End of Copper0*
M02*