G04 #@! TF.FileFunction,Other,Fab,Top*
%FSLAX46Y46*%
G04 Gerber Fmt 4.6, Leading zero omitted, Abs format (unit mm)*
G04 Created by KiCad (PCBNEW 4.0.0-rc2-stable) date 12/28/2015 10:24:42 PM*
%MOMM*%
G01*
G04 APERTURE LIST*
%ADD10C,0.100000*%
%ADD11C,0.150000*%
%ADD12C,0.127000*%
G04 APERTURE END LIST*
D10*
D11*
X116832143Y-118054381D02*
X116498809Y-117578190D01*
X116260714Y-118054381D02*
X116260714Y-117054381D01*
X116641667Y-117054381D01*
X116736905Y-117102000D01*
X116784524Y-117149619D01*
X116832143Y-117244857D01*
X116832143Y-117387714D01*
X116784524Y-117482952D01*
X116736905Y-117530571D01*
X116641667Y-117578190D01*
X116260714Y-117578190D01*
X117260714Y-117530571D02*
X117594048Y-117530571D01*
X117736905Y-118054381D02*
X117260714Y-118054381D01*
X117260714Y-117054381D01*
X117736905Y-117054381D01*
X118165476Y-118054381D02*
X118165476Y-117054381D01*
X118403571Y-117054381D01*
X118546429Y-117102000D01*
X118641667Y-117197238D01*
X118689286Y-117292476D01*
X118736905Y-117482952D01*
X118736905Y-117625810D01*
X118689286Y-117816286D01*
X118641667Y-117911524D01*
X118546429Y-118006762D01*
X118403571Y-118054381D01*
X118165476Y-118054381D01*
D12*
D11*
X100338143Y-120991381D02*
X100433382Y-120991381D01*
X100528620Y-121039000D01*
X100576239Y-121086619D01*
X100623858Y-121181857D01*
X100671477Y-121372333D01*
X100671477Y-121610429D01*
X100623858Y-121800905D01*
X100576239Y-121896143D01*
X100528620Y-121943762D01*
X100433382Y-121991381D01*
X100338143Y-121991381D01*
X100242905Y-121943762D01*
X100195286Y-121896143D01*
X100147667Y-121800905D01*
X100100048Y-121610429D01*
X100100048Y-121372333D01*
X100147667Y-121181857D01*
X100195286Y-121086619D01*
X100242905Y-121039000D01*
X100338143Y-120991381D01*
X101100048Y-121896143D02*
X101147667Y-121943762D01*
X101100048Y-121991381D01*
X101052429Y-121943762D01*
X101100048Y-121896143D01*
X101100048Y-121991381D01*
X102100048Y-121991381D02*
X101528619Y-121991381D01*
X101814333Y-121991381D02*
X101814333Y-120991381D01*
X101719095Y-121134238D01*
X101623857Y-121229476D01*
X101528619Y-121277095D01*
X102957191Y-121324714D02*
X102957191Y-121991381D01*
X102528619Y-121324714D02*
X102528619Y-121848524D01*
X102576238Y-121943762D01*
X102671476Y-121991381D01*
X102814334Y-121991381D01*
X102909572Y-121943762D01*
X102957191Y-121896143D01*
X103766715Y-121467571D02*
X103433381Y-121467571D01*
X103433381Y-121991381D02*
X103433381Y-120991381D01*
X103909572Y-120991381D01*
D12*
X113338428Y-124181810D02*
X113386809Y-124181810D01*
X113435190Y-124206000D01*
X113459381Y-124230190D01*
X113483571Y-124278571D01*
X113507762Y-124375333D01*
X113507762Y-124496286D01*
X113483571Y-124593048D01*
X113459381Y-124641429D01*
X113435190Y-124665619D01*
X113386809Y-124689810D01*
X113338428Y-124689810D01*
X113290047Y-124665619D01*
X113265857Y-124641429D01*
X113241666Y-124593048D01*
X113217476Y-124496286D01*
X113217476Y-124375333D01*
X113241666Y-124278571D01*
X113265857Y-124230190D01*
X113290047Y-124206000D01*
X113338428Y-124181810D01*
X113725476Y-124641429D02*
X113749667Y-124665619D01*
X113725476Y-124689810D01*
X113701286Y-124665619D01*
X113725476Y-124641429D01*
X113725476Y-124689810D01*
X114233477Y-124689810D02*
X113943191Y-124689810D01*
X114088334Y-124689810D02*
X114088334Y-124181810D01*
X114039953Y-124254381D01*
X113991572Y-124302762D01*
X113943191Y-124326952D01*
X114668906Y-124351143D02*
X114668906Y-124689810D01*
X114451191Y-124351143D02*
X114451191Y-124617238D01*
X114475382Y-124665619D01*
X114523763Y-124689810D01*
X114596334Y-124689810D01*
X114644715Y-124665619D01*
X114668906Y-124641429D01*
X115080144Y-124423714D02*
X114910810Y-124423714D01*
X114910810Y-124689810D02*
X114910810Y-124181810D01*
X115152715Y-124181810D01*
D11*
X104783143Y-127976381D02*
X104878382Y-127976381D01*
X104973620Y-128024000D01*
X105021239Y-128071619D01*
X105068858Y-128166857D01*
X105116477Y-128357333D01*
X105116477Y-128595429D01*
X105068858Y-128785905D01*
X105021239Y-128881143D01*
X104973620Y-128928762D01*
X104878382Y-128976381D01*
X104783143Y-128976381D01*
X104687905Y-128928762D01*
X104640286Y-128881143D01*
X104592667Y-128785905D01*
X104545048Y-128595429D01*
X104545048Y-128357333D01*
X104592667Y-128166857D01*
X104640286Y-128071619D01*
X104687905Y-128024000D01*
X104783143Y-127976381D01*
X105545048Y-128881143D02*
X105592667Y-128928762D01*
X105545048Y-128976381D01*
X105497429Y-128928762D01*
X105545048Y-128881143D01*
X105545048Y-128976381D01*
X106545048Y-128976381D02*
X105973619Y-128976381D01*
X106259333Y-128976381D02*
X106259333Y-127976381D01*
X106164095Y-128119238D01*
X106068857Y-128214476D01*
X105973619Y-128262095D01*
X107402191Y-128309714D02*
X107402191Y-128976381D01*
X106973619Y-128309714D02*
X106973619Y-128833524D01*
X107021238Y-128928762D01*
X107116476Y-128976381D01*
X107259334Y-128976381D01*
X107354572Y-128928762D01*
X107402191Y-128881143D01*
X108211715Y-128452571D02*
X107878381Y-128452571D01*
X107878381Y-128976381D02*
X107878381Y-127976381D01*
X108354572Y-127976381D01*
X119753238Y-117149619D02*
X119800857Y-117102000D01*
X119896095Y-117054381D01*
X120134191Y-117054381D01*
X120229429Y-117102000D01*
X120277048Y-117149619D01*
X120324667Y-117244857D01*
X120324667Y-117340095D01*
X120277048Y-117482952D01*
X119705619Y-118054381D01*
X120324667Y-118054381D01*
X120753238Y-117959143D02*
X120800857Y-118006762D01*
X120753238Y-118054381D01*
X120705619Y-118006762D01*
X120753238Y-117959143D01*
X120753238Y-118054381D01*
X121134190Y-117054381D02*
X121800857Y-117054381D01*
X121372285Y-118054381D01*
X122181809Y-118054381D02*
X122181809Y-117054381D01*
X122277047Y-117673429D02*
X122562762Y-118054381D01*
X122562762Y-117387714D02*
X122181809Y-117768667D01*
X102147762Y-125039381D02*
X101576333Y-125039381D01*
X101862047Y-125039381D02*
X101862047Y-124039381D01*
X101766809Y-124182238D01*
X101671571Y-124277476D01*
X101576333Y-124325095D01*
X102766809Y-124039381D02*
X102862048Y-124039381D01*
X102957286Y-124087000D01*
X103004905Y-124134619D01*
X103052524Y-124229857D01*
X103100143Y-124420333D01*
X103100143Y-124658429D01*
X103052524Y-124848905D01*
X103004905Y-124944143D01*
X102957286Y-124991762D01*
X102862048Y-125039381D01*
X102766809Y-125039381D01*
X102671571Y-124991762D01*
X102623952Y-124944143D01*
X102576333Y-124848905D01*
X102528714Y-124658429D01*
X102528714Y-124420333D01*
X102576333Y-124229857D01*
X102623952Y-124134619D01*
X102671571Y-124087000D01*
X102766809Y-124039381D01*
X103528714Y-125039381D02*
X103528714Y-124039381D01*
X103623952Y-124658429D02*
X103909667Y-125039381D01*
X103909667Y-124372714D02*
X103528714Y-124753667D01*
X100465143Y-122388381D02*
X100560382Y-122388381D01*
X100655620Y-122436000D01*
X100703239Y-122483619D01*
X100750858Y-122578857D01*
X100798477Y-122769333D01*
X100798477Y-123007429D01*
X100750858Y-123197905D01*
X100703239Y-123293143D01*
X100655620Y-123340762D01*
X100560382Y-123388381D01*
X100465143Y-123388381D01*
X100369905Y-123340762D01*
X100322286Y-123293143D01*
X100274667Y-123197905D01*
X100227048Y-123007429D01*
X100227048Y-122769333D01*
X100274667Y-122578857D01*
X100322286Y-122483619D01*
X100369905Y-122436000D01*
X100465143Y-122388381D01*
X101227048Y-123293143D02*
X101274667Y-123340762D01*
X101227048Y-123388381D01*
X101179429Y-123340762D01*
X101227048Y-123293143D01*
X101227048Y-123388381D01*
X102227048Y-123388381D02*
X101655619Y-123388381D01*
X101941333Y-123388381D02*
X101941333Y-122388381D01*
X101846095Y-122531238D01*
X101750857Y-122626476D01*
X101655619Y-122674095D01*
X103084191Y-122721714D02*
X103084191Y-123388381D01*
X102655619Y-122721714D02*
X102655619Y-123245524D01*
X102703238Y-123340762D01*
X102798476Y-123388381D01*
X102941334Y-123388381D01*
X103036572Y-123340762D01*
X103084191Y-123293143D01*
X103893715Y-122864571D02*
X103560381Y-122864571D01*
X103560381Y-123388381D02*
X103560381Y-122388381D01*
X104036572Y-122388381D01*
X120562762Y-127960381D02*
X119991333Y-127960381D01*
X120277047Y-127960381D02*
X120277047Y-126960381D01*
X120181809Y-127103238D01*
X120086571Y-127198476D01*
X119991333Y-127246095D01*
X121419905Y-127293714D02*
X121419905Y-127960381D01*
X120991333Y-127293714D02*
X120991333Y-127817524D01*
X121038952Y-127912762D01*
X121134190Y-127960381D01*
X121277048Y-127960381D01*
X121372286Y-127912762D01*
X121419905Y-127865143D01*
X122229429Y-127436571D02*
X121896095Y-127436571D01*
X121896095Y-127960381D02*
X121896095Y-126960381D01*
X122372286Y-126960381D01*
X114502595Y-125823738D02*
X114532833Y-125793500D01*
X114593310Y-125763262D01*
X114744500Y-125763262D01*
X114804976Y-125793500D01*
X114835214Y-125823738D01*
X114865453Y-125884214D01*
X114865453Y-125944690D01*
X114835214Y-126035405D01*
X114472357Y-126398262D01*
X114865453Y-126398262D01*
X115137595Y-126337786D02*
X115167834Y-126368024D01*
X115137595Y-126398262D01*
X115107357Y-126368024D01*
X115137595Y-126337786D01*
X115137595Y-126398262D01*
X115409738Y-125823738D02*
X115439976Y-125793500D01*
X115500453Y-125763262D01*
X115651643Y-125763262D01*
X115712119Y-125793500D01*
X115742357Y-125823738D01*
X115772596Y-125884214D01*
X115772596Y-125944690D01*
X115742357Y-126035405D01*
X115379500Y-126398262D01*
X115772596Y-126398262D01*
X116316881Y-125974929D02*
X116316881Y-126398262D01*
X116044738Y-125974929D02*
X116044738Y-126307548D01*
X116074977Y-126368024D01*
X116135453Y-126398262D01*
X116226167Y-126398262D01*
X116286643Y-126368024D01*
X116316881Y-126337786D01*
X116830929Y-126065643D02*
X116619262Y-126065643D01*
X116619262Y-126398262D02*
X116619262Y-125763262D01*
X116921643Y-125763262D01*
X106640477Y-116260571D02*
X106783334Y-116308190D01*
X106830953Y-116355810D01*
X106878572Y-116451048D01*
X106878572Y-116593905D01*
X106830953Y-116689143D01*
X106783334Y-116736762D01*
X106688096Y-116784381D01*
X106307143Y-116784381D01*
X106307143Y-115784381D01*
X106640477Y-115784381D01*
X106735715Y-115832000D01*
X106783334Y-115879619D01*
X106830953Y-115974857D01*
X106830953Y-116070095D01*
X106783334Y-116165333D01*
X106735715Y-116212952D01*
X106640477Y-116260571D01*
X106307143Y-116260571D01*
X107783334Y-116784381D02*
X107307143Y-116784381D01*
X107307143Y-115784381D01*
X108116667Y-115784381D02*
X108116667Y-116593905D01*
X108164286Y-116689143D01*
X108211905Y-116736762D01*
X108307143Y-116784381D01*
X108497620Y-116784381D01*
X108592858Y-116736762D01*
X108640477Y-116689143D01*
X108688096Y-116593905D01*
X108688096Y-115784381D01*
X109164286Y-116260571D02*
X109497620Y-116260571D01*
X109640477Y-116784381D02*
X109164286Y-116784381D01*
X109164286Y-115784381D01*
X109640477Y-115784381D01*
X100703238Y-119054619D02*
X100750857Y-119007000D01*
X100846095Y-118959381D01*
X101084191Y-118959381D01*
X101179429Y-119007000D01*
X101227048Y-119054619D01*
X101274667Y-119149857D01*
X101274667Y-119245095D01*
X101227048Y-119387952D01*
X100655619Y-119959381D01*
X101274667Y-119959381D01*
X101703238Y-119864143D02*
X101750857Y-119911762D01*
X101703238Y-119959381D01*
X101655619Y-119911762D01*
X101703238Y-119864143D01*
X101703238Y-119959381D01*
X102084190Y-118959381D02*
X102750857Y-118959381D01*
X102322285Y-119959381D01*
X103131809Y-119959381D02*
X103131809Y-118959381D01*
X103227047Y-119578429D02*
X103512762Y-119959381D01*
X103512762Y-119292714D02*
X103131809Y-119673667D01*
M02*
