G04 #@! TF.FileFunction,Copper,L1,Top,Signal*
%FSLAX46Y46*%
G04 Gerber Fmt 4.6, Leading zero omitted, Abs format (unit mm)*
G04 Created by KiCad (PCBNEW 4.0.0-rc2-stable) date 12/28/2015 10:24:42 PM*
%MOMM*%
G01*
G04 APERTURE LIST*
%ADD10C,0.100000*%
%ADD11R,0.600000X0.500000*%
%ADD12O,0.250000X0.800000*%
%ADD13O,0.800000X0.250000*%
%ADD14R,2.250000X2.250000*%
%ADD15C,0.685800*%
%ADD16O,0.762000X1.270000*%
%ADD17R,0.500000X1.500000*%
%ADD18R,0.550000X1.000000*%
%ADD19R,0.300000X0.350000*%
%ADD20R,0.350000X0.300000*%
%ADD21R,0.500000X0.600000*%
%ADD22O,1.270000X0.762000*%
%ADD23C,0.203200*%
%ADD24C,0.304800*%
%ADD25C,0.152400*%
G04 APERTURE END LIST*
D10*
D11*
X117433000Y-120396000D03*
X118533000Y-120396000D03*
D12*
X109013000Y-124936000D03*
X109463000Y-124936000D03*
X109913000Y-124936000D03*
X110363000Y-124936000D03*
X110813000Y-124936000D03*
X111263000Y-124936000D03*
X111713000Y-124936000D03*
D13*
X108363000Y-121586000D03*
X108363000Y-122036000D03*
X108363000Y-122486000D03*
X108363000Y-122936000D03*
X108363000Y-123386000D03*
X108363000Y-123836000D03*
X108363000Y-124286000D03*
X112363000Y-124286000D03*
X112363000Y-123836000D03*
X112363000Y-123386000D03*
X112363000Y-122936000D03*
X112363000Y-122486000D03*
X112363000Y-122036000D03*
X112363000Y-121586000D03*
D12*
X111713000Y-120936000D03*
X111263000Y-120936000D03*
X110813000Y-120936000D03*
X110363000Y-120936000D03*
X109913000Y-120936000D03*
X109463000Y-120936000D03*
X109013000Y-120936000D03*
D14*
X110363000Y-122936000D03*
D15*
X106553000Y-121031000D03*
X106629200Y-123698000D03*
X109372400Y-121945400D03*
X116586000Y-124841000D03*
X111353600Y-123901200D03*
D16*
X105791000Y-117475000D03*
X107061000Y-117475000D03*
X108331000Y-117475000D03*
X109601000Y-117475000D03*
X110871000Y-117475000D03*
X112141000Y-117475000D03*
X113411000Y-117475000D03*
X114681000Y-117475000D03*
X115951000Y-117475000D03*
X117221000Y-117475000D03*
X118491000Y-117475000D03*
X119761000Y-117475000D03*
X105791000Y-127635000D03*
X107061000Y-127635000D03*
X108331000Y-127635000D03*
X109601000Y-127635000D03*
X110871000Y-127635000D03*
X112141000Y-127635000D03*
X113411000Y-127635000D03*
X114681000Y-127635000D03*
X115951000Y-127635000D03*
X117221000Y-127635000D03*
X118491000Y-127635000D03*
X119761000Y-127635000D03*
D17*
X116008000Y-120523000D03*
X114808000Y-120523000D03*
X113608000Y-120523000D03*
D18*
X118029000Y-124617000D03*
X118979000Y-124617000D03*
X119929000Y-124617000D03*
X119929000Y-121917000D03*
X118029000Y-121917000D03*
D19*
X107209000Y-121920000D03*
X106659000Y-121920000D03*
D20*
X113665000Y-123465000D03*
X113665000Y-122915000D03*
D19*
X106650200Y-125857000D03*
X106100200Y-125857000D03*
X119613000Y-120396000D03*
X120163000Y-120396000D03*
X106659000Y-124714000D03*
X107209000Y-124714000D03*
X107209000Y-122682000D03*
X106659000Y-122682000D03*
D11*
X117941000Y-126111000D03*
X119041000Y-126111000D03*
D21*
X116586000Y-122513000D03*
X116586000Y-123613000D03*
D15*
X120142000Y-119253000D03*
D11*
X108362840Y-119105680D03*
X107262840Y-119105680D03*
D20*
X106172000Y-119105000D03*
X106172000Y-119655000D03*
D22*
X104521000Y-125730000D03*
X104521000Y-124460000D03*
X104521000Y-123190000D03*
X104521000Y-121920000D03*
X104521000Y-120650000D03*
X104521000Y-119380000D03*
D15*
X108077000Y-125031500D03*
X107632500Y-120713500D03*
X114681000Y-123748800D03*
X115138200Y-122920760D03*
X114300000Y-121793000D03*
X107670600Y-125882400D03*
D23*
X108077000Y-125031500D02*
X107526500Y-125031500D01*
X107526500Y-125031500D02*
X107209000Y-124714000D01*
X107209000Y-121920000D02*
X107209000Y-121137000D01*
X107209000Y-121137000D02*
X107632500Y-120713500D01*
D24*
X114681000Y-123748800D02*
X113948800Y-123748800D01*
X113948800Y-123748800D02*
X113665000Y-123465000D01*
X116586000Y-122513000D02*
X116488601Y-122513000D01*
X116488601Y-122513000D02*
X115252801Y-123748800D01*
X115252801Y-123748800D02*
X114681000Y-123748800D01*
X114681000Y-124287666D02*
X114681000Y-123748800D01*
D23*
X107209000Y-122682000D02*
X107221067Y-122669933D01*
X107221067Y-122669933D02*
X107221067Y-122546593D01*
X107221067Y-122546593D02*
X107281660Y-122486000D01*
X107209000Y-121920000D02*
X107209000Y-122682000D01*
X107209000Y-122682000D02*
X107209000Y-123060200D01*
X107209000Y-123060200D02*
X107209000Y-124714000D01*
D24*
X117433000Y-120396000D02*
X117433000Y-119244218D01*
X117433000Y-119244218D02*
X118036819Y-118640399D01*
X118036819Y-118640399D02*
X119372963Y-118640399D01*
X119372963Y-118640399D02*
X119761000Y-118252362D01*
X119761000Y-118252362D02*
X119761000Y-117475000D01*
X118029000Y-121712000D02*
X117433000Y-121116000D01*
X117433000Y-121116000D02*
X117433000Y-120396000D01*
X118029000Y-121917000D02*
X118029000Y-121712000D01*
D23*
X107209000Y-121920000D02*
X107325000Y-122036000D01*
X107325000Y-122036000D02*
X108363000Y-122036000D01*
X118029000Y-121692000D02*
X118029000Y-121917000D01*
D24*
X114681000Y-124287666D02*
X117221000Y-126827666D01*
X117221000Y-126827666D02*
X117221000Y-127635000D01*
X116586000Y-122513000D02*
X117433000Y-122513000D01*
X117433000Y-122513000D02*
X118029000Y-121917000D01*
D25*
X113586000Y-123386000D02*
X113665000Y-123465000D01*
D23*
X107281660Y-122486000D02*
X108363000Y-122486000D01*
D25*
X112363000Y-123386000D02*
X113586000Y-123386000D01*
D23*
X106659000Y-121920000D02*
X106659000Y-121137000D01*
X106659000Y-121137000D02*
X106553000Y-121031000D01*
D25*
X113665000Y-122915000D02*
X115132440Y-122915000D01*
X115132440Y-122915000D02*
X115138200Y-122920760D01*
D23*
X116586000Y-124841000D02*
X116586000Y-123613000D01*
D25*
X106629200Y-123698000D02*
X106629200Y-122711800D01*
X106629200Y-122711800D02*
X106659000Y-122682000D01*
D23*
X106659000Y-122682000D02*
X106659000Y-121920000D01*
X114808000Y-120523000D02*
X114808000Y-121285000D01*
D25*
X114808000Y-121285000D02*
X114300000Y-121793000D01*
D24*
X118491000Y-127127000D02*
X118579800Y-127127000D01*
X118579800Y-127127000D02*
X119041000Y-126665800D01*
X119041000Y-126665800D02*
X119041000Y-126111000D01*
X118491000Y-127635000D02*
X118491000Y-127127000D01*
X118979000Y-124617000D02*
X118979000Y-126049000D01*
X118979000Y-126049000D02*
X119041000Y-126111000D01*
D25*
X113644000Y-122936000D02*
X113665000Y-122915000D01*
X111810600Y-122936000D02*
X110363000Y-122936000D01*
X112363000Y-122936000D02*
X113644000Y-122936000D01*
X112363000Y-122936000D02*
X111810600Y-122936000D01*
X108363000Y-122936000D02*
X110363000Y-122936000D01*
D24*
X119929000Y-124617000D02*
X119929000Y-124029295D01*
X117997296Y-124585296D02*
X118029000Y-124617000D01*
X119929000Y-124029295D02*
X119527476Y-123627771D01*
X119527476Y-123627771D02*
X118369720Y-123627771D01*
X118369720Y-123627771D02*
X117997296Y-124000195D01*
X117997296Y-124000195D02*
X117997296Y-124585296D01*
X117941000Y-126111000D02*
X117941000Y-124705000D01*
X117941000Y-124705000D02*
X118029000Y-124617000D01*
X119761000Y-127635000D02*
X119761000Y-124785000D01*
X119761000Y-124785000D02*
X119929000Y-124617000D01*
D25*
X110363000Y-125488400D02*
X110363000Y-124936000D01*
X106650200Y-125857000D02*
X107645200Y-125857000D01*
X107645200Y-125857000D02*
X107670600Y-125882400D01*
X106659000Y-124714000D02*
X106659000Y-125848200D01*
X106659000Y-125848200D02*
X106650200Y-125857000D01*
D23*
X106638000Y-124735000D02*
X106659000Y-124714000D01*
D25*
X109601000Y-127635000D02*
X109601000Y-126847600D01*
X109601000Y-126847600D02*
X110363000Y-126085600D01*
X110363000Y-126085600D02*
X110363000Y-125488400D01*
X105535609Y-117730391D02*
X105535609Y-119380000D01*
X104521000Y-119380000D02*
X105308400Y-119380000D01*
X105535609Y-119380000D02*
X105535609Y-125267409D01*
X105308400Y-119380000D02*
X105535609Y-119380000D01*
X105791000Y-117475000D02*
X105535609Y-117730391D01*
X105535609Y-125267409D02*
X106100200Y-125832000D01*
X106100200Y-125832000D02*
X106100200Y-125857000D01*
D24*
X119380000Y-120396000D02*
X119613000Y-120396000D01*
X118533000Y-120396000D02*
X119380000Y-120396000D01*
D25*
X109013000Y-118398623D02*
X108331000Y-117716623D01*
X108331000Y-117716623D02*
X108331000Y-117475000D01*
X109013000Y-120936000D02*
X109013000Y-118398623D01*
X109463000Y-117613000D02*
X109601000Y-117475000D01*
X109463000Y-120936000D02*
X109463000Y-117613000D01*
X110871000Y-119267924D02*
X110871000Y-117729000D01*
X110871000Y-117729000D02*
X110871000Y-117475000D01*
X109913000Y-120936000D02*
X109913000Y-120225924D01*
X109913000Y-120225924D02*
X110871000Y-119267924D01*
X110363000Y-120936000D02*
X110363000Y-120264480D01*
X112141000Y-117729000D02*
X112141000Y-117475000D01*
X112141000Y-118486480D02*
X112141000Y-117729000D01*
X110363000Y-120264480D02*
X112141000Y-118486480D01*
X110813000Y-120936000D02*
X110813000Y-120835000D01*
X110813000Y-120835000D02*
X110909390Y-120738610D01*
X110909390Y-120738610D02*
X110909390Y-120230610D01*
X110909390Y-120230610D02*
X113411000Y-117729000D01*
X113411000Y-117729000D02*
X113411000Y-117475000D01*
X113736222Y-118673778D02*
X114681000Y-117729000D01*
X114681000Y-117729000D02*
X114681000Y-117475000D01*
X111263000Y-120936000D02*
X111263000Y-120383600D01*
X111263000Y-120383600D02*
X112972822Y-118673778D01*
X112972822Y-118673778D02*
X113736222Y-118673778D01*
X114677920Y-119002080D02*
X115951000Y-117729000D01*
X115951000Y-117729000D02*
X115951000Y-117475000D01*
X111713000Y-120936000D02*
X111713000Y-120435668D01*
X111713000Y-120435668D02*
X113146588Y-119002080D01*
X113146588Y-119002080D02*
X114677920Y-119002080D01*
X117221000Y-118262400D02*
X117221000Y-117475000D01*
X112363000Y-121586000D02*
X112363000Y-120252017D01*
X112363000Y-120252017D02*
X113278665Y-119336352D01*
X113278665Y-119336352D02*
X116147048Y-119336352D01*
X116147048Y-119336352D02*
X117221000Y-118262400D01*
X106705420Y-126466580D02*
X105791000Y-127381000D01*
X105791000Y-127381000D02*
X105791000Y-127635000D01*
X108991400Y-125528934D02*
X108053754Y-126466580D01*
X108053754Y-126466580D02*
X106705420Y-126466580D01*
X109013000Y-124936000D02*
X109013000Y-125488400D01*
X109013000Y-125488400D02*
X108991400Y-125510000D01*
X108991400Y-125510000D02*
X108991400Y-125528934D01*
X109463000Y-125635432D02*
X109463000Y-124936000D01*
X107061000Y-127635000D02*
X107061000Y-127381000D01*
X107061000Y-127381000D02*
X107670610Y-126771390D01*
X107670610Y-126771390D02*
X108327042Y-126771390D01*
X108327042Y-126771390D02*
X109463000Y-125635432D01*
X109913000Y-125488400D02*
X109913000Y-124936000D01*
X109913000Y-125799000D02*
X109913000Y-125488400D01*
X108331000Y-127635000D02*
X108331000Y-127381000D01*
X108331000Y-127381000D02*
X109913000Y-125799000D01*
X110813000Y-127577000D02*
X110871000Y-127635000D01*
X110813000Y-124936000D02*
X110813000Y-127577000D01*
X111263000Y-126503000D02*
X112141000Y-127381000D01*
X112141000Y-127381000D02*
X112141000Y-127635000D01*
X111263000Y-124936000D02*
X111263000Y-126503000D01*
X111713000Y-125683000D02*
X113411000Y-127381000D01*
X113411000Y-127381000D02*
X113411000Y-127635000D01*
X111713000Y-124936000D02*
X111713000Y-125683000D01*
X112363000Y-124286000D02*
X112363000Y-125063000D01*
X112363000Y-125063000D02*
X114681000Y-127381000D01*
X114681000Y-127381000D02*
X114681000Y-127635000D01*
X112363000Y-123836000D02*
X113079553Y-123836000D01*
X113079553Y-123836000D02*
X115951000Y-126707447D01*
X115951000Y-126707447D02*
X115951000Y-127635000D01*
D23*
X112363000Y-122486000D02*
X114545000Y-122486000D01*
X114545000Y-122486000D02*
X116008000Y-121023000D01*
X116008000Y-121023000D02*
X116008000Y-120523000D01*
X112363000Y-122036000D02*
X113048200Y-122036000D01*
X113048200Y-122036000D02*
X113608000Y-121476200D01*
X113608000Y-121476200D02*
X113608000Y-120523000D01*
D25*
X108363000Y-121308600D02*
X108363000Y-121586000D01*
X108363000Y-121308600D02*
X108362840Y-121308440D01*
X108362840Y-121308440D02*
X108362840Y-119105680D01*
X107061000Y-117475000D02*
X107061000Y-117749729D01*
X107061000Y-117749729D02*
X107810370Y-118499099D01*
X107810370Y-118499099D02*
X107810370Y-118502323D01*
X107810370Y-118502323D02*
X108362840Y-119054793D01*
X108362840Y-119054793D02*
X108362840Y-119105680D01*
X106172000Y-119105000D02*
X107262160Y-119105000D01*
X107262160Y-119105000D02*
X107262840Y-119105680D01*
G36*
X104546400Y-124434600D02*
X104566400Y-124434600D01*
X104566400Y-124485400D01*
X104546400Y-124485400D01*
X104546400Y-125704600D01*
X105365004Y-125704600D01*
X105422813Y-125601680D01*
X105416676Y-125579528D01*
X105717122Y-125879974D01*
X105717122Y-126032000D01*
X105733062Y-126116714D01*
X105783128Y-126194518D01*
X105859520Y-126246715D01*
X105950200Y-126265078D01*
X106250200Y-126265078D01*
X106334914Y-126249138D01*
X106375162Y-126223239D01*
X106409520Y-126246715D01*
X106479967Y-126260981D01*
X105954037Y-126786911D01*
X105791000Y-126754481D01*
X105557716Y-126800884D01*
X105359948Y-126933029D01*
X105227803Y-127130797D01*
X105181400Y-127364081D01*
X105181400Y-127905919D01*
X105227803Y-128139203D01*
X105359948Y-128336971D01*
X105412971Y-128372400D01*
X104521000Y-128372400D01*
X104463190Y-128383899D01*
X104448352Y-128377753D01*
X104113897Y-128311226D01*
X103876439Y-128152561D01*
X103717774Y-127915103D01*
X103656600Y-127607559D01*
X103656600Y-125974650D01*
X103782066Y-126179013D01*
X103990809Y-126330410D01*
X104241600Y-126390400D01*
X104495600Y-126390400D01*
X104495600Y-125755400D01*
X104546400Y-125755400D01*
X104546400Y-126390400D01*
X104800400Y-126390400D01*
X105051191Y-126330410D01*
X105259934Y-126179013D01*
X105394850Y-125959258D01*
X105422813Y-125858320D01*
X105365004Y-125755400D01*
X104546400Y-125755400D01*
X104495600Y-125755400D01*
X104475600Y-125755400D01*
X104475600Y-125704600D01*
X104495600Y-125704600D01*
X104495600Y-124485400D01*
X104475600Y-124485400D01*
X104475600Y-124434600D01*
X104495600Y-124434600D01*
X104495600Y-123799600D01*
X104546400Y-123799600D01*
X104546400Y-124434600D01*
X104546400Y-124434600D01*
G37*
X104546400Y-124434600D02*
X104566400Y-124434600D01*
X104566400Y-124485400D01*
X104546400Y-124485400D01*
X104546400Y-125704600D01*
X105365004Y-125704600D01*
X105422813Y-125601680D01*
X105416676Y-125579528D01*
X105717122Y-125879974D01*
X105717122Y-126032000D01*
X105733062Y-126116714D01*
X105783128Y-126194518D01*
X105859520Y-126246715D01*
X105950200Y-126265078D01*
X106250200Y-126265078D01*
X106334914Y-126249138D01*
X106375162Y-126223239D01*
X106409520Y-126246715D01*
X106479967Y-126260981D01*
X105954037Y-126786911D01*
X105791000Y-126754481D01*
X105557716Y-126800884D01*
X105359948Y-126933029D01*
X105227803Y-127130797D01*
X105181400Y-127364081D01*
X105181400Y-127905919D01*
X105227803Y-128139203D01*
X105359948Y-128336971D01*
X105412971Y-128372400D01*
X104521000Y-128372400D01*
X104463190Y-128383899D01*
X104448352Y-128377753D01*
X104113897Y-128311226D01*
X103876439Y-128152561D01*
X103717774Y-127915103D01*
X103656600Y-127607559D01*
X103656600Y-125974650D01*
X103782066Y-126179013D01*
X103990809Y-126330410D01*
X104241600Y-126390400D01*
X104495600Y-126390400D01*
X104495600Y-125755400D01*
X104546400Y-125755400D01*
X104546400Y-126390400D01*
X104800400Y-126390400D01*
X105051191Y-126330410D01*
X105259934Y-126179013D01*
X105394850Y-125959258D01*
X105422813Y-125858320D01*
X105365004Y-125755400D01*
X104546400Y-125755400D01*
X104495600Y-125755400D01*
X104475600Y-125755400D01*
X104475600Y-125704600D01*
X104495600Y-125704600D01*
X104495600Y-124485400D01*
X104475600Y-124485400D01*
X104475600Y-124434600D01*
X104495600Y-124434600D01*
X104495600Y-123799600D01*
X104546400Y-123799600D01*
X104546400Y-124434600D01*
G36*
X120295103Y-116925774D02*
X120532561Y-117084439D01*
X120691226Y-117321897D01*
X120752400Y-117629441D01*
X120752400Y-127607559D01*
X120691226Y-127915103D01*
X120532561Y-128152561D01*
X120295103Y-128311226D01*
X120196095Y-128330920D01*
X120324197Y-128139203D01*
X120370600Y-127905919D01*
X120370600Y-127364081D01*
X120324197Y-127130797D01*
X120192052Y-126933029D01*
X120142000Y-126899585D01*
X120142000Y-125350078D01*
X120204000Y-125350078D01*
X120288714Y-125334138D01*
X120366518Y-125284072D01*
X120418715Y-125207680D01*
X120437078Y-125117000D01*
X120437078Y-124117000D01*
X120421138Y-124032286D01*
X120371072Y-123954482D01*
X120294680Y-123902285D01*
X120284319Y-123900187D01*
X120280998Y-123883493D01*
X120261554Y-123854393D01*
X120198408Y-123759887D01*
X120198405Y-123759885D01*
X119796884Y-123358363D01*
X119673279Y-123275773D01*
X119527476Y-123246771D01*
X118369720Y-123246771D01*
X118223917Y-123275773D01*
X118100312Y-123358363D01*
X117727888Y-123730787D01*
X117645298Y-123854392D01*
X117634900Y-123906666D01*
X117631405Y-123924238D01*
X117591482Y-123949928D01*
X117539285Y-124026320D01*
X117520922Y-124117000D01*
X117520922Y-125117000D01*
X117536862Y-125201714D01*
X117560000Y-125237671D01*
X117560000Y-125643163D01*
X117556286Y-125643862D01*
X117478482Y-125693928D01*
X117426285Y-125770320D01*
X117407922Y-125861000D01*
X117407922Y-126361000D01*
X117423862Y-126445714D01*
X117473928Y-126523518D01*
X117550320Y-126575715D01*
X117641000Y-126594078D01*
X118241000Y-126594078D01*
X118325714Y-126578138D01*
X118403518Y-126528072D01*
X118455715Y-126451680D01*
X118462422Y-126418560D01*
X118504136Y-126519267D01*
X118582733Y-126597864D01*
X118685424Y-126640400D01*
X118945750Y-126640400D01*
X119015600Y-126570550D01*
X119015600Y-126136400D01*
X118995600Y-126136400D01*
X118995600Y-126085600D01*
X119015600Y-126085600D01*
X119015600Y-125651450D01*
X118945750Y-125581600D01*
X118685424Y-125581600D01*
X118582733Y-125624136D01*
X118504136Y-125702733D01*
X118462989Y-125802069D01*
X118458138Y-125776286D01*
X118408072Y-125698482D01*
X118331680Y-125646285D01*
X118322000Y-125644325D01*
X118322000Y-125346691D01*
X118388714Y-125334138D01*
X118466518Y-125284072D01*
X118470343Y-125278474D01*
X118545733Y-125353864D01*
X118648424Y-125396400D01*
X118883750Y-125396400D01*
X118953600Y-125326550D01*
X118953600Y-124642400D01*
X118933600Y-124642400D01*
X118933600Y-124591600D01*
X118953600Y-124591600D01*
X118953600Y-124571600D01*
X119004400Y-124571600D01*
X119004400Y-124591600D01*
X119024400Y-124591600D01*
X119024400Y-124642400D01*
X119004400Y-124642400D01*
X119004400Y-125326550D01*
X119074250Y-125396400D01*
X119309576Y-125396400D01*
X119380000Y-125367229D01*
X119380000Y-125581600D01*
X119136250Y-125581600D01*
X119066400Y-125651450D01*
X119066400Y-126085600D01*
X119086400Y-126085600D01*
X119086400Y-126136400D01*
X119066400Y-126136400D01*
X119066400Y-126570550D01*
X119136250Y-126640400D01*
X119380000Y-126640400D01*
X119380000Y-126899585D01*
X119329948Y-126933029D01*
X119197803Y-127130797D01*
X119151400Y-127364081D01*
X119151400Y-127355600D01*
X119091410Y-127104809D01*
X118940013Y-126896066D01*
X118720258Y-126761150D01*
X118619320Y-126733187D01*
X118516400Y-126790996D01*
X118516400Y-127609600D01*
X119151400Y-127609600D01*
X119151400Y-127660400D01*
X118516400Y-127660400D01*
X118516400Y-127680400D01*
X118465600Y-127680400D01*
X118465600Y-127660400D01*
X117830600Y-127660400D01*
X117830600Y-127609600D01*
X118465600Y-127609600D01*
X118465600Y-126790996D01*
X118362680Y-126733187D01*
X118261742Y-126761150D01*
X118041987Y-126896066D01*
X117890590Y-127104809D01*
X117830600Y-127355600D01*
X117830600Y-127364081D01*
X117784197Y-127130797D01*
X117652052Y-126933029D01*
X117602000Y-126899585D01*
X117602000Y-126827666D01*
X117572998Y-126681864D01*
X117490408Y-126558258D01*
X117490405Y-126558256D01*
X115085086Y-124152936D01*
X115108263Y-124129800D01*
X115252801Y-124129800D01*
X115398604Y-124100798D01*
X115522209Y-124018208D01*
X115832167Y-123708250D01*
X116056600Y-123708250D01*
X116056600Y-123968576D01*
X116099136Y-124071267D01*
X116177733Y-124149864D01*
X116280424Y-124192400D01*
X116490750Y-124192400D01*
X116560600Y-124122550D01*
X116560600Y-123638400D01*
X116611400Y-123638400D01*
X116611400Y-124122550D01*
X116681250Y-124192400D01*
X116891576Y-124192400D01*
X116994267Y-124149864D01*
X117072864Y-124071267D01*
X117115400Y-123968576D01*
X117115400Y-123708250D01*
X117045550Y-123638400D01*
X116611400Y-123638400D01*
X116560600Y-123638400D01*
X116126450Y-123638400D01*
X116056600Y-123708250D01*
X115832167Y-123708250D01*
X116056600Y-123483817D01*
X116056600Y-123517750D01*
X116126450Y-123587600D01*
X116560600Y-123587600D01*
X116560600Y-123567600D01*
X116611400Y-123567600D01*
X116611400Y-123587600D01*
X117045550Y-123587600D01*
X117115400Y-123517750D01*
X117115400Y-123257424D01*
X117072864Y-123154733D01*
X116994267Y-123076136D01*
X116894931Y-123034989D01*
X116920714Y-123030138D01*
X116998518Y-122980072D01*
X117050715Y-122903680D01*
X117052675Y-122894000D01*
X117433000Y-122894000D01*
X117578803Y-122864998D01*
X117702408Y-122782408D01*
X117834738Y-122650078D01*
X118304000Y-122650078D01*
X118388714Y-122634138D01*
X118466518Y-122584072D01*
X118518715Y-122507680D01*
X118537078Y-122417000D01*
X118537078Y-121417000D01*
X119420922Y-121417000D01*
X119420922Y-122417000D01*
X119436862Y-122501714D01*
X119486928Y-122579518D01*
X119563320Y-122631715D01*
X119654000Y-122650078D01*
X120204000Y-122650078D01*
X120288714Y-122634138D01*
X120366518Y-122584072D01*
X120418715Y-122507680D01*
X120437078Y-122417000D01*
X120437078Y-121417000D01*
X120421138Y-121332286D01*
X120371072Y-121254482D01*
X120294680Y-121202285D01*
X120204000Y-121183922D01*
X119654000Y-121183922D01*
X119569286Y-121199862D01*
X119491482Y-121249928D01*
X119439285Y-121326320D01*
X119420922Y-121417000D01*
X118537078Y-121417000D01*
X118521138Y-121332286D01*
X118471072Y-121254482D01*
X118394680Y-121202285D01*
X118304000Y-121183922D01*
X118039737Y-121183922D01*
X117814000Y-120958184D01*
X117814000Y-120863837D01*
X117817714Y-120863138D01*
X117895518Y-120813072D01*
X117947715Y-120736680D01*
X117966078Y-120646000D01*
X117966078Y-120146000D01*
X117999922Y-120146000D01*
X117999922Y-120646000D01*
X118015862Y-120730714D01*
X118065928Y-120808518D01*
X118142320Y-120860715D01*
X118233000Y-120879078D01*
X118833000Y-120879078D01*
X118917714Y-120863138D01*
X118995518Y-120813072D01*
X119020165Y-120777000D01*
X119359565Y-120777000D01*
X119372320Y-120785715D01*
X119463000Y-120804078D01*
X119763000Y-120804078D01*
X119837019Y-120790150D01*
X119854733Y-120807864D01*
X119957424Y-120850400D01*
X120067750Y-120850400D01*
X120137600Y-120780550D01*
X120137600Y-120421400D01*
X120188400Y-120421400D01*
X120188400Y-120780550D01*
X120258250Y-120850400D01*
X120368576Y-120850400D01*
X120471267Y-120807864D01*
X120549864Y-120729267D01*
X120592400Y-120626576D01*
X120592400Y-120491250D01*
X120522550Y-120421400D01*
X120188400Y-120421400D01*
X120137600Y-120421400D01*
X120117600Y-120421400D01*
X120117600Y-120370600D01*
X120137600Y-120370600D01*
X120137600Y-120011450D01*
X120188400Y-120011450D01*
X120188400Y-120370600D01*
X120522550Y-120370600D01*
X120592400Y-120300750D01*
X120592400Y-120165424D01*
X120549864Y-120062733D01*
X120471267Y-119984136D01*
X120368576Y-119941600D01*
X120258250Y-119941600D01*
X120188400Y-120011450D01*
X120137600Y-120011450D01*
X120067750Y-119941600D01*
X119957424Y-119941600D01*
X119854733Y-119984136D01*
X119836137Y-120002732D01*
X119763000Y-119987922D01*
X119463000Y-119987922D01*
X119378286Y-120003862D01*
X119360977Y-120015000D01*
X119020353Y-120015000D01*
X119000072Y-119983482D01*
X118923680Y-119931285D01*
X118833000Y-119912922D01*
X118233000Y-119912922D01*
X118148286Y-119928862D01*
X118070482Y-119978928D01*
X118018285Y-120055320D01*
X117999922Y-120146000D01*
X117966078Y-120146000D01*
X117950138Y-120061286D01*
X117900072Y-119983482D01*
X117823680Y-119931285D01*
X117814000Y-119929325D01*
X117814000Y-119402034D01*
X118194635Y-119021399D01*
X119372963Y-119021399D01*
X119518766Y-118992397D01*
X119642371Y-118909807D01*
X120030408Y-118521770D01*
X120112998Y-118398165D01*
X120142000Y-118252362D01*
X120142000Y-118210415D01*
X120192052Y-118176971D01*
X120324197Y-117979203D01*
X120370600Y-117745919D01*
X120370600Y-117204081D01*
X120324197Y-116970797D01*
X120293962Y-116925547D01*
X120295103Y-116925774D01*
X120295103Y-116925774D01*
G37*
X120295103Y-116925774D02*
X120532561Y-117084439D01*
X120691226Y-117321897D01*
X120752400Y-117629441D01*
X120752400Y-127607559D01*
X120691226Y-127915103D01*
X120532561Y-128152561D01*
X120295103Y-128311226D01*
X120196095Y-128330920D01*
X120324197Y-128139203D01*
X120370600Y-127905919D01*
X120370600Y-127364081D01*
X120324197Y-127130797D01*
X120192052Y-126933029D01*
X120142000Y-126899585D01*
X120142000Y-125350078D01*
X120204000Y-125350078D01*
X120288714Y-125334138D01*
X120366518Y-125284072D01*
X120418715Y-125207680D01*
X120437078Y-125117000D01*
X120437078Y-124117000D01*
X120421138Y-124032286D01*
X120371072Y-123954482D01*
X120294680Y-123902285D01*
X120284319Y-123900187D01*
X120280998Y-123883493D01*
X120261554Y-123854393D01*
X120198408Y-123759887D01*
X120198405Y-123759885D01*
X119796884Y-123358363D01*
X119673279Y-123275773D01*
X119527476Y-123246771D01*
X118369720Y-123246771D01*
X118223917Y-123275773D01*
X118100312Y-123358363D01*
X117727888Y-123730787D01*
X117645298Y-123854392D01*
X117634900Y-123906666D01*
X117631405Y-123924238D01*
X117591482Y-123949928D01*
X117539285Y-124026320D01*
X117520922Y-124117000D01*
X117520922Y-125117000D01*
X117536862Y-125201714D01*
X117560000Y-125237671D01*
X117560000Y-125643163D01*
X117556286Y-125643862D01*
X117478482Y-125693928D01*
X117426285Y-125770320D01*
X117407922Y-125861000D01*
X117407922Y-126361000D01*
X117423862Y-126445714D01*
X117473928Y-126523518D01*
X117550320Y-126575715D01*
X117641000Y-126594078D01*
X118241000Y-126594078D01*
X118325714Y-126578138D01*
X118403518Y-126528072D01*
X118455715Y-126451680D01*
X118462422Y-126418560D01*
X118504136Y-126519267D01*
X118582733Y-126597864D01*
X118685424Y-126640400D01*
X118945750Y-126640400D01*
X119015600Y-126570550D01*
X119015600Y-126136400D01*
X118995600Y-126136400D01*
X118995600Y-126085600D01*
X119015600Y-126085600D01*
X119015600Y-125651450D01*
X118945750Y-125581600D01*
X118685424Y-125581600D01*
X118582733Y-125624136D01*
X118504136Y-125702733D01*
X118462989Y-125802069D01*
X118458138Y-125776286D01*
X118408072Y-125698482D01*
X118331680Y-125646285D01*
X118322000Y-125644325D01*
X118322000Y-125346691D01*
X118388714Y-125334138D01*
X118466518Y-125284072D01*
X118470343Y-125278474D01*
X118545733Y-125353864D01*
X118648424Y-125396400D01*
X118883750Y-125396400D01*
X118953600Y-125326550D01*
X118953600Y-124642400D01*
X118933600Y-124642400D01*
X118933600Y-124591600D01*
X118953600Y-124591600D01*
X118953600Y-124571600D01*
X119004400Y-124571600D01*
X119004400Y-124591600D01*
X119024400Y-124591600D01*
X119024400Y-124642400D01*
X119004400Y-124642400D01*
X119004400Y-125326550D01*
X119074250Y-125396400D01*
X119309576Y-125396400D01*
X119380000Y-125367229D01*
X119380000Y-125581600D01*
X119136250Y-125581600D01*
X119066400Y-125651450D01*
X119066400Y-126085600D01*
X119086400Y-126085600D01*
X119086400Y-126136400D01*
X119066400Y-126136400D01*
X119066400Y-126570550D01*
X119136250Y-126640400D01*
X119380000Y-126640400D01*
X119380000Y-126899585D01*
X119329948Y-126933029D01*
X119197803Y-127130797D01*
X119151400Y-127364081D01*
X119151400Y-127355600D01*
X119091410Y-127104809D01*
X118940013Y-126896066D01*
X118720258Y-126761150D01*
X118619320Y-126733187D01*
X118516400Y-126790996D01*
X118516400Y-127609600D01*
X119151400Y-127609600D01*
X119151400Y-127660400D01*
X118516400Y-127660400D01*
X118516400Y-127680400D01*
X118465600Y-127680400D01*
X118465600Y-127660400D01*
X117830600Y-127660400D01*
X117830600Y-127609600D01*
X118465600Y-127609600D01*
X118465600Y-126790996D01*
X118362680Y-126733187D01*
X118261742Y-126761150D01*
X118041987Y-126896066D01*
X117890590Y-127104809D01*
X117830600Y-127355600D01*
X117830600Y-127364081D01*
X117784197Y-127130797D01*
X117652052Y-126933029D01*
X117602000Y-126899585D01*
X117602000Y-126827666D01*
X117572998Y-126681864D01*
X117490408Y-126558258D01*
X117490405Y-126558256D01*
X115085086Y-124152936D01*
X115108263Y-124129800D01*
X115252801Y-124129800D01*
X115398604Y-124100798D01*
X115522209Y-124018208D01*
X115832167Y-123708250D01*
X116056600Y-123708250D01*
X116056600Y-123968576D01*
X116099136Y-124071267D01*
X116177733Y-124149864D01*
X116280424Y-124192400D01*
X116490750Y-124192400D01*
X116560600Y-124122550D01*
X116560600Y-123638400D01*
X116611400Y-123638400D01*
X116611400Y-124122550D01*
X116681250Y-124192400D01*
X116891576Y-124192400D01*
X116994267Y-124149864D01*
X117072864Y-124071267D01*
X117115400Y-123968576D01*
X117115400Y-123708250D01*
X117045550Y-123638400D01*
X116611400Y-123638400D01*
X116560600Y-123638400D01*
X116126450Y-123638400D01*
X116056600Y-123708250D01*
X115832167Y-123708250D01*
X116056600Y-123483817D01*
X116056600Y-123517750D01*
X116126450Y-123587600D01*
X116560600Y-123587600D01*
X116560600Y-123567600D01*
X116611400Y-123567600D01*
X116611400Y-123587600D01*
X117045550Y-123587600D01*
X117115400Y-123517750D01*
X117115400Y-123257424D01*
X117072864Y-123154733D01*
X116994267Y-123076136D01*
X116894931Y-123034989D01*
X116920714Y-123030138D01*
X116998518Y-122980072D01*
X117050715Y-122903680D01*
X117052675Y-122894000D01*
X117433000Y-122894000D01*
X117578803Y-122864998D01*
X117702408Y-122782408D01*
X117834738Y-122650078D01*
X118304000Y-122650078D01*
X118388714Y-122634138D01*
X118466518Y-122584072D01*
X118518715Y-122507680D01*
X118537078Y-122417000D01*
X118537078Y-121417000D01*
X119420922Y-121417000D01*
X119420922Y-122417000D01*
X119436862Y-122501714D01*
X119486928Y-122579518D01*
X119563320Y-122631715D01*
X119654000Y-122650078D01*
X120204000Y-122650078D01*
X120288714Y-122634138D01*
X120366518Y-122584072D01*
X120418715Y-122507680D01*
X120437078Y-122417000D01*
X120437078Y-121417000D01*
X120421138Y-121332286D01*
X120371072Y-121254482D01*
X120294680Y-121202285D01*
X120204000Y-121183922D01*
X119654000Y-121183922D01*
X119569286Y-121199862D01*
X119491482Y-121249928D01*
X119439285Y-121326320D01*
X119420922Y-121417000D01*
X118537078Y-121417000D01*
X118521138Y-121332286D01*
X118471072Y-121254482D01*
X118394680Y-121202285D01*
X118304000Y-121183922D01*
X118039737Y-121183922D01*
X117814000Y-120958184D01*
X117814000Y-120863837D01*
X117817714Y-120863138D01*
X117895518Y-120813072D01*
X117947715Y-120736680D01*
X117966078Y-120646000D01*
X117966078Y-120146000D01*
X117999922Y-120146000D01*
X117999922Y-120646000D01*
X118015862Y-120730714D01*
X118065928Y-120808518D01*
X118142320Y-120860715D01*
X118233000Y-120879078D01*
X118833000Y-120879078D01*
X118917714Y-120863138D01*
X118995518Y-120813072D01*
X119020165Y-120777000D01*
X119359565Y-120777000D01*
X119372320Y-120785715D01*
X119463000Y-120804078D01*
X119763000Y-120804078D01*
X119837019Y-120790150D01*
X119854733Y-120807864D01*
X119957424Y-120850400D01*
X120067750Y-120850400D01*
X120137600Y-120780550D01*
X120137600Y-120421400D01*
X120188400Y-120421400D01*
X120188400Y-120780550D01*
X120258250Y-120850400D01*
X120368576Y-120850400D01*
X120471267Y-120807864D01*
X120549864Y-120729267D01*
X120592400Y-120626576D01*
X120592400Y-120491250D01*
X120522550Y-120421400D01*
X120188400Y-120421400D01*
X120137600Y-120421400D01*
X120117600Y-120421400D01*
X120117600Y-120370600D01*
X120137600Y-120370600D01*
X120137600Y-120011450D01*
X120188400Y-120011450D01*
X120188400Y-120370600D01*
X120522550Y-120370600D01*
X120592400Y-120300750D01*
X120592400Y-120165424D01*
X120549864Y-120062733D01*
X120471267Y-119984136D01*
X120368576Y-119941600D01*
X120258250Y-119941600D01*
X120188400Y-120011450D01*
X120137600Y-120011450D01*
X120067750Y-119941600D01*
X119957424Y-119941600D01*
X119854733Y-119984136D01*
X119836137Y-120002732D01*
X119763000Y-119987922D01*
X119463000Y-119987922D01*
X119378286Y-120003862D01*
X119360977Y-120015000D01*
X119020353Y-120015000D01*
X119000072Y-119983482D01*
X118923680Y-119931285D01*
X118833000Y-119912922D01*
X118233000Y-119912922D01*
X118148286Y-119928862D01*
X118070482Y-119978928D01*
X118018285Y-120055320D01*
X117999922Y-120146000D01*
X117966078Y-120146000D01*
X117950138Y-120061286D01*
X117900072Y-119983482D01*
X117823680Y-119931285D01*
X117814000Y-119929325D01*
X117814000Y-119402034D01*
X118194635Y-119021399D01*
X119372963Y-119021399D01*
X119518766Y-118992397D01*
X119642371Y-118909807D01*
X120030408Y-118521770D01*
X120112998Y-118398165D01*
X120142000Y-118252362D01*
X120142000Y-118210415D01*
X120192052Y-118176971D01*
X120324197Y-117979203D01*
X120370600Y-117745919D01*
X120370600Y-117204081D01*
X120324197Y-116970797D01*
X120293962Y-116925547D01*
X120295103Y-116925774D01*
G36*
X107829762Y-118952767D02*
X107829762Y-119355680D01*
X107845702Y-119440394D01*
X107895768Y-119518198D01*
X107972160Y-119570395D01*
X108058040Y-119587786D01*
X108058040Y-120330855D01*
X107956651Y-120229289D01*
X107746677Y-120142100D01*
X107519320Y-120141901D01*
X107309194Y-120228724D01*
X107148289Y-120389349D01*
X107061100Y-120599323D01*
X107060908Y-120818118D01*
X106975513Y-120903513D01*
X106903935Y-121010638D01*
X106878800Y-121137000D01*
X106878800Y-121471492D01*
X106864576Y-121465600D01*
X106754250Y-121465600D01*
X106684400Y-121535450D01*
X106684400Y-121894600D01*
X106704400Y-121894600D01*
X106704400Y-121945400D01*
X106684400Y-121945400D01*
X106684400Y-122656600D01*
X106704400Y-122656600D01*
X106704400Y-122707400D01*
X106684400Y-122707400D01*
X106684400Y-123066550D01*
X106754250Y-123136400D01*
X106864576Y-123136400D01*
X106878800Y-123130508D01*
X106878800Y-124320057D01*
X106809000Y-124305922D01*
X106509000Y-124305922D01*
X106424286Y-124321862D01*
X106346482Y-124371928D01*
X106294285Y-124448320D01*
X106275922Y-124539000D01*
X106275922Y-124889000D01*
X106291862Y-124973714D01*
X106341928Y-125051518D01*
X106354200Y-125059903D01*
X106354200Y-125476386D01*
X106340880Y-125467285D01*
X106250200Y-125448922D01*
X106148174Y-125448922D01*
X105840409Y-125141157D01*
X105840409Y-122777250D01*
X106229600Y-122777250D01*
X106229600Y-122912576D01*
X106272136Y-123015267D01*
X106350733Y-123093864D01*
X106453424Y-123136400D01*
X106563750Y-123136400D01*
X106633600Y-123066550D01*
X106633600Y-122707400D01*
X106299450Y-122707400D01*
X106229600Y-122777250D01*
X105840409Y-122777250D01*
X105840409Y-122015250D01*
X106229600Y-122015250D01*
X106229600Y-122150576D01*
X106272136Y-122253267D01*
X106319869Y-122301000D01*
X106272136Y-122348733D01*
X106229600Y-122451424D01*
X106229600Y-122586750D01*
X106299450Y-122656600D01*
X106633600Y-122656600D01*
X106633600Y-121945400D01*
X106299450Y-121945400D01*
X106229600Y-122015250D01*
X105840409Y-122015250D01*
X105840409Y-121689424D01*
X106229600Y-121689424D01*
X106229600Y-121824750D01*
X106299450Y-121894600D01*
X106633600Y-121894600D01*
X106633600Y-121535450D01*
X106563750Y-121465600D01*
X106453424Y-121465600D01*
X106350733Y-121508136D01*
X106272136Y-121586733D01*
X106229600Y-121689424D01*
X105840409Y-121689424D01*
X105840409Y-120042558D01*
X105941424Y-120084400D01*
X106076750Y-120084400D01*
X106146600Y-120014550D01*
X106146600Y-119680400D01*
X106197400Y-119680400D01*
X106197400Y-120014550D01*
X106267250Y-120084400D01*
X106402576Y-120084400D01*
X106505267Y-120041864D01*
X106583864Y-119963267D01*
X106626400Y-119860576D01*
X106626400Y-119750250D01*
X106556550Y-119680400D01*
X106197400Y-119680400D01*
X106146600Y-119680400D01*
X106126600Y-119680400D01*
X106126600Y-119629600D01*
X106146600Y-119629600D01*
X106146600Y-119609600D01*
X106197400Y-119609600D01*
X106197400Y-119629600D01*
X106556550Y-119629600D01*
X106626400Y-119559750D01*
X106626400Y-119449424D01*
X106609987Y-119409800D01*
X106739945Y-119409800D01*
X106745702Y-119440394D01*
X106795768Y-119518198D01*
X106872160Y-119570395D01*
X106962840Y-119588758D01*
X107562840Y-119588758D01*
X107647554Y-119572818D01*
X107725358Y-119522752D01*
X107777555Y-119446360D01*
X107795918Y-119355680D01*
X107795918Y-118918923D01*
X107829762Y-118952767D01*
X107829762Y-118952767D01*
G37*
X107829762Y-118952767D02*
X107829762Y-119355680D01*
X107845702Y-119440394D01*
X107895768Y-119518198D01*
X107972160Y-119570395D01*
X108058040Y-119587786D01*
X108058040Y-120330855D01*
X107956651Y-120229289D01*
X107746677Y-120142100D01*
X107519320Y-120141901D01*
X107309194Y-120228724D01*
X107148289Y-120389349D01*
X107061100Y-120599323D01*
X107060908Y-120818118D01*
X106975513Y-120903513D01*
X106903935Y-121010638D01*
X106878800Y-121137000D01*
X106878800Y-121471492D01*
X106864576Y-121465600D01*
X106754250Y-121465600D01*
X106684400Y-121535450D01*
X106684400Y-121894600D01*
X106704400Y-121894600D01*
X106704400Y-121945400D01*
X106684400Y-121945400D01*
X106684400Y-122656600D01*
X106704400Y-122656600D01*
X106704400Y-122707400D01*
X106684400Y-122707400D01*
X106684400Y-123066550D01*
X106754250Y-123136400D01*
X106864576Y-123136400D01*
X106878800Y-123130508D01*
X106878800Y-124320057D01*
X106809000Y-124305922D01*
X106509000Y-124305922D01*
X106424286Y-124321862D01*
X106346482Y-124371928D01*
X106294285Y-124448320D01*
X106275922Y-124539000D01*
X106275922Y-124889000D01*
X106291862Y-124973714D01*
X106341928Y-125051518D01*
X106354200Y-125059903D01*
X106354200Y-125476386D01*
X106340880Y-125467285D01*
X106250200Y-125448922D01*
X106148174Y-125448922D01*
X105840409Y-125141157D01*
X105840409Y-122777250D01*
X106229600Y-122777250D01*
X106229600Y-122912576D01*
X106272136Y-123015267D01*
X106350733Y-123093864D01*
X106453424Y-123136400D01*
X106563750Y-123136400D01*
X106633600Y-123066550D01*
X106633600Y-122707400D01*
X106299450Y-122707400D01*
X106229600Y-122777250D01*
X105840409Y-122777250D01*
X105840409Y-122015250D01*
X106229600Y-122015250D01*
X106229600Y-122150576D01*
X106272136Y-122253267D01*
X106319869Y-122301000D01*
X106272136Y-122348733D01*
X106229600Y-122451424D01*
X106229600Y-122586750D01*
X106299450Y-122656600D01*
X106633600Y-122656600D01*
X106633600Y-121945400D01*
X106299450Y-121945400D01*
X106229600Y-122015250D01*
X105840409Y-122015250D01*
X105840409Y-121689424D01*
X106229600Y-121689424D01*
X106229600Y-121824750D01*
X106299450Y-121894600D01*
X106633600Y-121894600D01*
X106633600Y-121535450D01*
X106563750Y-121465600D01*
X106453424Y-121465600D01*
X106350733Y-121508136D01*
X106272136Y-121586733D01*
X106229600Y-121689424D01*
X105840409Y-121689424D01*
X105840409Y-120042558D01*
X105941424Y-120084400D01*
X106076750Y-120084400D01*
X106146600Y-120014550D01*
X106146600Y-119680400D01*
X106197400Y-119680400D01*
X106197400Y-120014550D01*
X106267250Y-120084400D01*
X106402576Y-120084400D01*
X106505267Y-120041864D01*
X106583864Y-119963267D01*
X106626400Y-119860576D01*
X106626400Y-119750250D01*
X106556550Y-119680400D01*
X106197400Y-119680400D01*
X106146600Y-119680400D01*
X106126600Y-119680400D01*
X106126600Y-119629600D01*
X106146600Y-119629600D01*
X106146600Y-119609600D01*
X106197400Y-119609600D01*
X106197400Y-119629600D01*
X106556550Y-119629600D01*
X106626400Y-119559750D01*
X106626400Y-119449424D01*
X106609987Y-119409800D01*
X106739945Y-119409800D01*
X106745702Y-119440394D01*
X106795768Y-119518198D01*
X106872160Y-119570395D01*
X106962840Y-119588758D01*
X107562840Y-119588758D01*
X107647554Y-119572818D01*
X107725358Y-119522752D01*
X107777555Y-119446360D01*
X107795918Y-119355680D01*
X107795918Y-118918923D01*
X107829762Y-118952767D01*
G36*
X117830600Y-117754400D02*
X117890590Y-118005191D01*
X118041987Y-118213934D01*
X118116042Y-118259399D01*
X118036819Y-118259399D01*
X117891016Y-118288401D01*
X117767411Y-118370991D01*
X117163592Y-118974810D01*
X117081002Y-119098415D01*
X117057293Y-119217606D01*
X117052000Y-119244218D01*
X117052000Y-119928163D01*
X117048286Y-119928862D01*
X116970482Y-119978928D01*
X116918285Y-120055320D01*
X116899922Y-120146000D01*
X116899922Y-120646000D01*
X116915862Y-120730714D01*
X116965928Y-120808518D01*
X117042320Y-120860715D01*
X117052000Y-120862675D01*
X117052000Y-121116000D01*
X117081002Y-121261803D01*
X117163592Y-121385408D01*
X117520922Y-121742737D01*
X117520922Y-121886263D01*
X117275184Y-122132000D01*
X117053837Y-122132000D01*
X117053138Y-122128286D01*
X117003072Y-122050482D01*
X116926680Y-121998285D01*
X116836000Y-121979922D01*
X116336000Y-121979922D01*
X116251286Y-121995862D01*
X116173482Y-122045928D01*
X116121285Y-122122320D01*
X116102922Y-122213000D01*
X116102922Y-122359863D01*
X115101589Y-123361196D01*
X115005151Y-123264589D01*
X114795177Y-123177400D01*
X114567820Y-123177201D01*
X114357694Y-123264024D01*
X114253737Y-123367800D01*
X114106616Y-123367800D01*
X114073078Y-123334262D01*
X114073078Y-123315000D01*
X114059150Y-123240981D01*
X114076864Y-123223267D01*
X114119400Y-123120576D01*
X114119400Y-123010250D01*
X114049550Y-122940400D01*
X113690400Y-122940400D01*
X113690400Y-122960400D01*
X113639600Y-122960400D01*
X113639600Y-122940400D01*
X113280450Y-122940400D01*
X113210600Y-123010250D01*
X113210600Y-123081200D01*
X113013257Y-123081200D01*
X113021338Y-123067291D01*
X113032660Y-123024225D01*
X112971584Y-122961400D01*
X112388400Y-122961400D01*
X112388400Y-122981400D01*
X112337600Y-122981400D01*
X112337600Y-122961400D01*
X111754416Y-122961400D01*
X111726384Y-122990234D01*
X111697550Y-122961400D01*
X110388400Y-122961400D01*
X110388400Y-122981400D01*
X110337600Y-122981400D01*
X110337600Y-122961400D01*
X109028450Y-122961400D01*
X108999616Y-122990234D01*
X108971584Y-122961400D01*
X108388400Y-122961400D01*
X108388400Y-122981400D01*
X108337600Y-122981400D01*
X108337600Y-122961400D01*
X107754416Y-122961400D01*
X107693340Y-123024225D01*
X107704662Y-123067291D01*
X107782277Y-123200882D01*
X107749001Y-123250683D01*
X107722085Y-123386000D01*
X107749001Y-123521317D01*
X107808925Y-123611000D01*
X107749001Y-123700683D01*
X107722085Y-123836000D01*
X107749001Y-123971317D01*
X107808925Y-124061000D01*
X107749001Y-124150683D01*
X107722085Y-124286000D01*
X107749001Y-124421317D01*
X107815681Y-124521111D01*
X107753694Y-124546724D01*
X107631089Y-124669115D01*
X107592078Y-124630104D01*
X107592078Y-124539000D01*
X107576138Y-124454286D01*
X107539200Y-124396883D01*
X107539200Y-122998194D01*
X107573715Y-122947680D01*
X107592078Y-122857000D01*
X107592078Y-122816200D01*
X107701641Y-122816200D01*
X107693340Y-122847775D01*
X107754416Y-122910600D01*
X108337600Y-122910600D01*
X108337600Y-122890600D01*
X108388400Y-122890600D01*
X108388400Y-122910600D01*
X108971584Y-122910600D01*
X108999616Y-122881766D01*
X109028450Y-122910600D01*
X110337600Y-122910600D01*
X110337600Y-122890600D01*
X110388400Y-122890600D01*
X110388400Y-122910600D01*
X111697550Y-122910600D01*
X111726384Y-122881766D01*
X111754416Y-122910600D01*
X112337600Y-122910600D01*
X112337600Y-122890600D01*
X112388400Y-122890600D01*
X112388400Y-122910600D01*
X112971584Y-122910600D01*
X113032660Y-122847775D01*
X113024359Y-122816200D01*
X113210600Y-122816200D01*
X113210600Y-122819750D01*
X113280450Y-122889600D01*
X113639600Y-122889600D01*
X113639600Y-122869600D01*
X113690400Y-122869600D01*
X113690400Y-122889600D01*
X114049550Y-122889600D01*
X114119400Y-122819750D01*
X114119400Y-122816200D01*
X114545000Y-122816200D01*
X114671362Y-122791065D01*
X114778487Y-122719487D01*
X115991895Y-121506078D01*
X116258000Y-121506078D01*
X116342714Y-121490138D01*
X116420518Y-121440072D01*
X116472715Y-121363680D01*
X116491078Y-121273000D01*
X116491078Y-119773000D01*
X116475138Y-119688286D01*
X116425072Y-119610482D01*
X116350809Y-119559739D01*
X116362574Y-119551878D01*
X117436526Y-118477926D01*
X117502598Y-118379042D01*
X117507277Y-118355519D01*
X117525800Y-118262400D01*
X117525800Y-118261330D01*
X117652052Y-118176971D01*
X117784197Y-117979203D01*
X117830600Y-117745919D01*
X117830600Y-117754400D01*
X117830600Y-117754400D01*
G37*
X117830600Y-117754400D02*
X117890590Y-118005191D01*
X118041987Y-118213934D01*
X118116042Y-118259399D01*
X118036819Y-118259399D01*
X117891016Y-118288401D01*
X117767411Y-118370991D01*
X117163592Y-118974810D01*
X117081002Y-119098415D01*
X117057293Y-119217606D01*
X117052000Y-119244218D01*
X117052000Y-119928163D01*
X117048286Y-119928862D01*
X116970482Y-119978928D01*
X116918285Y-120055320D01*
X116899922Y-120146000D01*
X116899922Y-120646000D01*
X116915862Y-120730714D01*
X116965928Y-120808518D01*
X117042320Y-120860715D01*
X117052000Y-120862675D01*
X117052000Y-121116000D01*
X117081002Y-121261803D01*
X117163592Y-121385408D01*
X117520922Y-121742737D01*
X117520922Y-121886263D01*
X117275184Y-122132000D01*
X117053837Y-122132000D01*
X117053138Y-122128286D01*
X117003072Y-122050482D01*
X116926680Y-121998285D01*
X116836000Y-121979922D01*
X116336000Y-121979922D01*
X116251286Y-121995862D01*
X116173482Y-122045928D01*
X116121285Y-122122320D01*
X116102922Y-122213000D01*
X116102922Y-122359863D01*
X115101589Y-123361196D01*
X115005151Y-123264589D01*
X114795177Y-123177400D01*
X114567820Y-123177201D01*
X114357694Y-123264024D01*
X114253737Y-123367800D01*
X114106616Y-123367800D01*
X114073078Y-123334262D01*
X114073078Y-123315000D01*
X114059150Y-123240981D01*
X114076864Y-123223267D01*
X114119400Y-123120576D01*
X114119400Y-123010250D01*
X114049550Y-122940400D01*
X113690400Y-122940400D01*
X113690400Y-122960400D01*
X113639600Y-122960400D01*
X113639600Y-122940400D01*
X113280450Y-122940400D01*
X113210600Y-123010250D01*
X113210600Y-123081200D01*
X113013257Y-123081200D01*
X113021338Y-123067291D01*
X113032660Y-123024225D01*
X112971584Y-122961400D01*
X112388400Y-122961400D01*
X112388400Y-122981400D01*
X112337600Y-122981400D01*
X112337600Y-122961400D01*
X111754416Y-122961400D01*
X111726384Y-122990234D01*
X111697550Y-122961400D01*
X110388400Y-122961400D01*
X110388400Y-122981400D01*
X110337600Y-122981400D01*
X110337600Y-122961400D01*
X109028450Y-122961400D01*
X108999616Y-122990234D01*
X108971584Y-122961400D01*
X108388400Y-122961400D01*
X108388400Y-122981400D01*
X108337600Y-122981400D01*
X108337600Y-122961400D01*
X107754416Y-122961400D01*
X107693340Y-123024225D01*
X107704662Y-123067291D01*
X107782277Y-123200882D01*
X107749001Y-123250683D01*
X107722085Y-123386000D01*
X107749001Y-123521317D01*
X107808925Y-123611000D01*
X107749001Y-123700683D01*
X107722085Y-123836000D01*
X107749001Y-123971317D01*
X107808925Y-124061000D01*
X107749001Y-124150683D01*
X107722085Y-124286000D01*
X107749001Y-124421317D01*
X107815681Y-124521111D01*
X107753694Y-124546724D01*
X107631089Y-124669115D01*
X107592078Y-124630104D01*
X107592078Y-124539000D01*
X107576138Y-124454286D01*
X107539200Y-124396883D01*
X107539200Y-122998194D01*
X107573715Y-122947680D01*
X107592078Y-122857000D01*
X107592078Y-122816200D01*
X107701641Y-122816200D01*
X107693340Y-122847775D01*
X107754416Y-122910600D01*
X108337600Y-122910600D01*
X108337600Y-122890600D01*
X108388400Y-122890600D01*
X108388400Y-122910600D01*
X108971584Y-122910600D01*
X108999616Y-122881766D01*
X109028450Y-122910600D01*
X110337600Y-122910600D01*
X110337600Y-122890600D01*
X110388400Y-122890600D01*
X110388400Y-122910600D01*
X111697550Y-122910600D01*
X111726384Y-122881766D01*
X111754416Y-122910600D01*
X112337600Y-122910600D01*
X112337600Y-122890600D01*
X112388400Y-122890600D01*
X112388400Y-122910600D01*
X112971584Y-122910600D01*
X113032660Y-122847775D01*
X113024359Y-122816200D01*
X113210600Y-122816200D01*
X113210600Y-122819750D01*
X113280450Y-122889600D01*
X113639600Y-122889600D01*
X113639600Y-122869600D01*
X113690400Y-122869600D01*
X113690400Y-122889600D01*
X114049550Y-122889600D01*
X114119400Y-122819750D01*
X114119400Y-122816200D01*
X114545000Y-122816200D01*
X114671362Y-122791065D01*
X114778487Y-122719487D01*
X115991895Y-121506078D01*
X116258000Y-121506078D01*
X116342714Y-121490138D01*
X116420518Y-121440072D01*
X116472715Y-121363680D01*
X116491078Y-121273000D01*
X116491078Y-119773000D01*
X116475138Y-119688286D01*
X116425072Y-119610482D01*
X116350809Y-119559739D01*
X116362574Y-119551878D01*
X117436526Y-118477926D01*
X117502598Y-118379042D01*
X117507277Y-118355519D01*
X117525800Y-118262400D01*
X117525800Y-118261330D01*
X117652052Y-118176971D01*
X117784197Y-117979203D01*
X117830600Y-117745919D01*
X117830600Y-117754400D01*
G36*
X114278600Y-119717424D02*
X114278600Y-120427750D01*
X114348450Y-120497600D01*
X114782600Y-120497600D01*
X114782600Y-120477600D01*
X114833400Y-120477600D01*
X114833400Y-120497600D01*
X115267550Y-120497600D01*
X115337400Y-120427750D01*
X115337400Y-119717424D01*
X115305807Y-119641152D01*
X115571414Y-119641152D01*
X115543285Y-119682320D01*
X115524922Y-119773000D01*
X115524922Y-121039105D01*
X115337400Y-121226627D01*
X115337400Y-120618250D01*
X115267550Y-120548400D01*
X114833400Y-120548400D01*
X114833400Y-121482550D01*
X114903250Y-121552400D01*
X115011626Y-121552400D01*
X114408226Y-122155800D01*
X113395374Y-122155800D01*
X113841484Y-121709689D01*
X113841487Y-121709687D01*
X113913065Y-121602562D01*
X113916214Y-121586733D01*
X113935145Y-121491562D01*
X113942714Y-121490138D01*
X114020518Y-121440072D01*
X114072715Y-121363680D01*
X114091078Y-121273000D01*
X114091078Y-120618250D01*
X114278600Y-120618250D01*
X114278600Y-121328576D01*
X114321136Y-121431267D01*
X114399733Y-121509864D01*
X114502424Y-121552400D01*
X114712750Y-121552400D01*
X114782600Y-121482550D01*
X114782600Y-120548400D01*
X114348450Y-120548400D01*
X114278600Y-120618250D01*
X114091078Y-120618250D01*
X114091078Y-119773000D01*
X114075138Y-119688286D01*
X114044808Y-119641152D01*
X114310193Y-119641152D01*
X114278600Y-119717424D01*
X114278600Y-119717424D01*
G37*
X114278600Y-119717424D02*
X114278600Y-120427750D01*
X114348450Y-120497600D01*
X114782600Y-120497600D01*
X114782600Y-120477600D01*
X114833400Y-120477600D01*
X114833400Y-120497600D01*
X115267550Y-120497600D01*
X115337400Y-120427750D01*
X115337400Y-119717424D01*
X115305807Y-119641152D01*
X115571414Y-119641152D01*
X115543285Y-119682320D01*
X115524922Y-119773000D01*
X115524922Y-121039105D01*
X115337400Y-121226627D01*
X115337400Y-120618250D01*
X115267550Y-120548400D01*
X114833400Y-120548400D01*
X114833400Y-121482550D01*
X114903250Y-121552400D01*
X115011626Y-121552400D01*
X114408226Y-122155800D01*
X113395374Y-122155800D01*
X113841484Y-121709689D01*
X113841487Y-121709687D01*
X113913065Y-121602562D01*
X113916214Y-121586733D01*
X113935145Y-121491562D01*
X113942714Y-121490138D01*
X114020518Y-121440072D01*
X114072715Y-121363680D01*
X114091078Y-121273000D01*
X114091078Y-120618250D01*
X114278600Y-120618250D01*
X114278600Y-121328576D01*
X114321136Y-121431267D01*
X114399733Y-121509864D01*
X114502424Y-121552400D01*
X114712750Y-121552400D01*
X114782600Y-121482550D01*
X114782600Y-120548400D01*
X114348450Y-120548400D01*
X114278600Y-120618250D01*
X114091078Y-120618250D01*
X114091078Y-119773000D01*
X114075138Y-119688286D01*
X114044808Y-119641152D01*
X114310193Y-119641152D01*
X114278600Y-119717424D01*
G36*
X118516400Y-117449600D02*
X119151400Y-117449600D01*
X119151400Y-117500400D01*
X118516400Y-117500400D01*
X118516400Y-117520400D01*
X118465600Y-117520400D01*
X118465600Y-117500400D01*
X117830600Y-117500400D01*
X117830600Y-117449600D01*
X118465600Y-117449600D01*
X118465600Y-117429600D01*
X118516400Y-117429600D01*
X118516400Y-117449600D01*
X118516400Y-117449600D01*
G37*
X118516400Y-117449600D02*
X119151400Y-117449600D01*
X119151400Y-117500400D01*
X118516400Y-117500400D01*
X118516400Y-117520400D01*
X118465600Y-117520400D01*
X118465600Y-117500400D01*
X117830600Y-117500400D01*
X117830600Y-117449600D01*
X118465600Y-117449600D01*
X118465600Y-117429600D01*
X118516400Y-117429600D01*
X118516400Y-117449600D01*
M02*
