G04 #@! TF.FileFunction,Drawing*
%FSLAX46Y46*%
G04 Gerber Fmt 4.6, Leading zero omitted, Abs format (unit mm)*
G04 Created by KiCad (PCBNEW 4.0.0-rc2-stable) date 12/28/2015 10:24:42 PM*
%MOMM*%
G01*
G04 APERTURE LIST*
%ADD10C,0.100000*%
%ADD11C,0.101600*%
%ADD12C,0.203200*%
%ADD13C,0.127000*%
G04 APERTURE END LIST*
D10*
D11*
X117729000Y-120396000D02*
X118059200Y-120396000D01*
X117729000Y-120015000D02*
X117729000Y-120751600D01*
X107797600Y-119100600D02*
X107721400Y-119100600D01*
X108026200Y-119100600D02*
X107797600Y-119100600D01*
X108026200Y-118719600D02*
X108026200Y-119456200D01*
D12*
X116310834Y-125412500D02*
X116268500Y-125454833D01*
X116141500Y-125497167D01*
X116056834Y-125497167D01*
X115929834Y-125454833D01*
X115845167Y-125370167D01*
X115802834Y-125285500D01*
X115760500Y-125116167D01*
X115760500Y-124989167D01*
X115802834Y-124819833D01*
X115845167Y-124735167D01*
X115929834Y-124650500D01*
X116056834Y-124608167D01*
X116141500Y-124608167D01*
X116268500Y-124650500D01*
X116310834Y-124692833D01*
X117115167Y-124608167D02*
X116691834Y-124608167D01*
X116649500Y-125031500D01*
X116691834Y-124989167D01*
X116776500Y-124946833D01*
X116988167Y-124946833D01*
X117072834Y-124989167D01*
X117115167Y-125031500D01*
X117157500Y-125116167D01*
X117157500Y-125327833D01*
X117115167Y-125412500D01*
X117072834Y-125454833D01*
X116988167Y-125497167D01*
X116776500Y-125497167D01*
X116691834Y-125454833D01*
X116649500Y-125412500D01*
X118321667Y-127997857D02*
X118273286Y-128046238D01*
X118128143Y-128094619D01*
X118031381Y-128094619D01*
X117886239Y-128046238D01*
X117789477Y-127949476D01*
X117741096Y-127852714D01*
X117692715Y-127659190D01*
X117692715Y-127514048D01*
X117741096Y-127320524D01*
X117789477Y-127223762D01*
X117886239Y-127127000D01*
X118031381Y-127078619D01*
X118128143Y-127078619D01*
X118273286Y-127127000D01*
X118321667Y-127175381D01*
X119192524Y-127417286D02*
X119192524Y-128094619D01*
X118950620Y-127030238D02*
X118708715Y-127755952D01*
X119337667Y-127755952D01*
X118224905Y-122633619D02*
X118224905Y-123456095D01*
X118273286Y-123552857D01*
X118321667Y-123601238D01*
X118418429Y-123649619D01*
X118611952Y-123649619D01*
X118708714Y-123601238D01*
X118757095Y-123552857D01*
X118805476Y-123456095D01*
X118805476Y-122633619D01*
X119240905Y-122730381D02*
X119289286Y-122682000D01*
X119386048Y-122633619D01*
X119627952Y-122633619D01*
X119724714Y-122682000D01*
X119773095Y-122730381D01*
X119821476Y-122827143D01*
X119821476Y-122923905D01*
X119773095Y-123069048D01*
X119192524Y-123649619D01*
X119821476Y-123649619D01*
X120099667Y-119712619D02*
X119761001Y-119228810D01*
X119519096Y-119712619D02*
X119519096Y-118696619D01*
X119906143Y-118696619D01*
X120002905Y-118745000D01*
X120051286Y-118793381D01*
X120099667Y-118890143D01*
X120099667Y-119035286D01*
X120051286Y-119132048D01*
X120002905Y-119180429D01*
X119906143Y-119228810D01*
X119519096Y-119228810D01*
X121067286Y-119712619D02*
X120486715Y-119712619D01*
X120777001Y-119712619D02*
X120777001Y-118696619D01*
X120680239Y-118841762D01*
X120583477Y-118938524D01*
X120486715Y-118986905D01*
X117360096Y-119585619D02*
X117360096Y-118569619D01*
X117602001Y-118569619D01*
X117747143Y-118618000D01*
X117843905Y-118714762D01*
X117892286Y-118811524D01*
X117940667Y-119005048D01*
X117940667Y-119150190D01*
X117892286Y-119343714D01*
X117843905Y-119440476D01*
X117747143Y-119537238D01*
X117602001Y-119585619D01*
X117360096Y-119585619D01*
X118908286Y-119585619D02*
X118327715Y-119585619D01*
X118618001Y-119585619D02*
X118618001Y-118569619D01*
X118521239Y-118714762D01*
X118424477Y-118811524D01*
X118327715Y-118859905D01*
X114711238Y-119428381D02*
X114614476Y-119380000D01*
X114517714Y-119283238D01*
X114372571Y-119138095D01*
X114275810Y-119089714D01*
X114179048Y-119089714D01*
X114227429Y-119331619D02*
X114130667Y-119283238D01*
X114033905Y-119186476D01*
X113985524Y-118992952D01*
X113985524Y-118654286D01*
X114033905Y-118460762D01*
X114130667Y-118364000D01*
X114227429Y-118315619D01*
X114420952Y-118315619D01*
X114517714Y-118364000D01*
X114614476Y-118460762D01*
X114662857Y-118654286D01*
X114662857Y-118992952D01*
X114614476Y-119186476D01*
X114517714Y-119283238D01*
X114420952Y-119331619D01*
X114227429Y-119331619D01*
X115630476Y-119331619D02*
X115049905Y-119331619D01*
X115340191Y-119331619D02*
X115340191Y-118315619D01*
X115243429Y-118460762D01*
X115146667Y-118557524D01*
X115049905Y-118605905D01*
X115125500Y-123338166D02*
X115167833Y-123380500D01*
X115210167Y-123507500D01*
X115210167Y-123592166D01*
X115167833Y-123719166D01*
X115083167Y-123803833D01*
X114998500Y-123846166D01*
X114829167Y-123888500D01*
X114702167Y-123888500D01*
X114532833Y-123846166D01*
X114448167Y-123803833D01*
X114363500Y-123719166D01*
X114321167Y-123592166D01*
X114321167Y-123507500D01*
X114363500Y-123380500D01*
X114405833Y-123338166D01*
X114321167Y-123041833D02*
X114321167Y-122491500D01*
X114659833Y-122787833D01*
X114659833Y-122660833D01*
X114702167Y-122576166D01*
X114744500Y-122533833D01*
X114829167Y-122491500D01*
X115040833Y-122491500D01*
X115125500Y-122533833D01*
X115167833Y-122576166D01*
X115210167Y-122660833D01*
X115210167Y-122914833D01*
X115167833Y-122999500D01*
X115125500Y-123041833D01*
D13*
X109915476Y-124943810D02*
X109915476Y-124435810D01*
X110109000Y-124435810D01*
X110157381Y-124460000D01*
X110181572Y-124484190D01*
X110205762Y-124532571D01*
X110205762Y-124605143D01*
X110181572Y-124653524D01*
X110157381Y-124677714D01*
X110109000Y-124701905D01*
X109915476Y-124701905D01*
X110423476Y-124943810D02*
X110423476Y-124435810D01*
X110665381Y-124943810D02*
X110665381Y-124435810D01*
X110955667Y-124943810D01*
X110955667Y-124435810D01*
X111850715Y-124943810D02*
X111560429Y-124943810D01*
X111705572Y-124943810D02*
X111705572Y-124435810D01*
X111657191Y-124508381D01*
X111608810Y-124556762D01*
X111560429Y-124580952D01*
X112754210Y-124968000D02*
G75*
G03X112754210Y-124968000I-359210J0D01*
G01*
D12*
X109588905Y-122379619D02*
X109588905Y-123202095D01*
X109637286Y-123298857D01*
X109685667Y-123347238D01*
X109782429Y-123395619D01*
X109975952Y-123395619D01*
X110072714Y-123347238D01*
X110121095Y-123298857D01*
X110169476Y-123202095D01*
X110169476Y-122379619D01*
X111185476Y-123395619D02*
X110604905Y-123395619D01*
X110895191Y-123395619D02*
X110895191Y-122379619D01*
X110798429Y-122524762D01*
X110701667Y-122621524D01*
X110604905Y-122669905D01*
X106256667Y-127616857D02*
X106208286Y-127665238D01*
X106063143Y-127713619D01*
X105966381Y-127713619D01*
X105821239Y-127665238D01*
X105724477Y-127568476D01*
X105676096Y-127471714D01*
X105627715Y-127278190D01*
X105627715Y-127133048D01*
X105676096Y-126939524D01*
X105724477Y-126842762D01*
X105821239Y-126746000D01*
X105966381Y-126697619D01*
X106063143Y-126697619D01*
X106208286Y-126746000D01*
X106256667Y-126794381D01*
X107127524Y-126697619D02*
X106934001Y-126697619D01*
X106837239Y-126746000D01*
X106788858Y-126794381D01*
X106692096Y-126939524D01*
X106643715Y-127133048D01*
X106643715Y-127520095D01*
X106692096Y-127616857D01*
X106740477Y-127665238D01*
X106837239Y-127713619D01*
X107030762Y-127713619D01*
X107127524Y-127665238D01*
X107175905Y-127616857D01*
X107224286Y-127520095D01*
X107224286Y-127278190D01*
X107175905Y-127181429D01*
X107127524Y-127133048D01*
X107030762Y-127084667D01*
X106837239Y-127084667D01*
X106740477Y-127133048D01*
X106692096Y-127181429D01*
X106643715Y-127278190D01*
X104859667Y-125046619D02*
X104521001Y-124562810D01*
X104279096Y-125046619D02*
X104279096Y-124030619D01*
X104666143Y-124030619D01*
X104762905Y-124079000D01*
X104811286Y-124127381D01*
X104859667Y-124224143D01*
X104859667Y-124369286D01*
X104811286Y-124466048D01*
X104762905Y-124514429D01*
X104666143Y-124562810D01*
X104279096Y-124562810D01*
X105246715Y-124127381D02*
X105295096Y-124079000D01*
X105391858Y-124030619D01*
X105633762Y-124030619D01*
X105730524Y-124079000D01*
X105778905Y-124127381D01*
X105827286Y-124224143D01*
X105827286Y-124320905D01*
X105778905Y-124466048D01*
X105198334Y-125046619D01*
X105827286Y-125046619D01*
X104859667Y-123425857D02*
X104811286Y-123474238D01*
X104666143Y-123522619D01*
X104569381Y-123522619D01*
X104424239Y-123474238D01*
X104327477Y-123377476D01*
X104279096Y-123280714D01*
X104230715Y-123087190D01*
X104230715Y-122942048D01*
X104279096Y-122748524D01*
X104327477Y-122651762D01*
X104424239Y-122555000D01*
X104569381Y-122506619D01*
X104666143Y-122506619D01*
X104811286Y-122555000D01*
X104859667Y-122603381D01*
X105827286Y-123522619D02*
X105246715Y-123522619D01*
X105537001Y-123522619D02*
X105537001Y-122506619D01*
X105440239Y-122651762D01*
X105343477Y-122748524D01*
X105246715Y-122796905D01*
X104732667Y-121901857D02*
X104684286Y-121950238D01*
X104539143Y-121998619D01*
X104442381Y-121998619D01*
X104297239Y-121950238D01*
X104200477Y-121853476D01*
X104152096Y-121756714D01*
X104103715Y-121563190D01*
X104103715Y-121418048D01*
X104152096Y-121224524D01*
X104200477Y-121127762D01*
X104297239Y-121031000D01*
X104442381Y-120982619D01*
X104539143Y-120982619D01*
X104684286Y-121031000D01*
X104732667Y-121079381D01*
X105119715Y-121079381D02*
X105168096Y-121031000D01*
X105264858Y-120982619D01*
X105506762Y-120982619D01*
X105603524Y-121031000D01*
X105651905Y-121079381D01*
X105700286Y-121176143D01*
X105700286Y-121272905D01*
X105651905Y-121418048D01*
X105071334Y-121998619D01*
X105700286Y-121998619D01*
X107073096Y-118188619D02*
X107073096Y-117172619D01*
X107315001Y-117172619D01*
X107460143Y-117221000D01*
X107556905Y-117317762D01*
X107605286Y-117414524D01*
X107653667Y-117608048D01*
X107653667Y-117753190D01*
X107605286Y-117946714D01*
X107556905Y-118043476D01*
X107460143Y-118140238D01*
X107315001Y-118188619D01*
X107073096Y-118188619D01*
X108040715Y-117269381D02*
X108089096Y-117221000D01*
X108185858Y-117172619D01*
X108427762Y-117172619D01*
X108524524Y-117221000D01*
X108572905Y-117269381D01*
X108621286Y-117366143D01*
X108621286Y-117462905D01*
X108572905Y-117608048D01*
X107992334Y-118188619D01*
X108621286Y-118188619D01*
X104351667Y-119966619D02*
X104013001Y-119482810D01*
X103771096Y-119966619D02*
X103771096Y-118950619D01*
X104158143Y-118950619D01*
X104254905Y-118999000D01*
X104303286Y-119047381D01*
X104351667Y-119144143D01*
X104351667Y-119289286D01*
X104303286Y-119386048D01*
X104254905Y-119434429D01*
X104158143Y-119482810D01*
X103771096Y-119482810D01*
X104690334Y-118950619D02*
X105319286Y-118950619D01*
X104980620Y-119337667D01*
X105125762Y-119337667D01*
X105222524Y-119386048D01*
X105270905Y-119434429D01*
X105319286Y-119531190D01*
X105319286Y-119773095D01*
X105270905Y-119869857D01*
X105222524Y-119918238D01*
X105125762Y-119966619D01*
X104835477Y-119966619D01*
X104738715Y-119918238D01*
X104690334Y-119869857D01*
M02*
