G04 MADE WITH FRITZING*
G04 WWW.FRITZING.ORG*
G04 DOUBLE SIDED*
G04 HOLES PLATED*
G04 CONTOUR ON CENTER OF CONTOUR VECTOR*
%ASAXBY*%
%FSLAX23Y23*%
%MOIN*%
%OFA0B0*%
%SFA1.0B1.0*%
%ADD10C,0.075000*%
%ADD11C,0.042426*%
%ADD12C,0.027165*%
%ADD13C,0.024000*%
%ADD14C,0.012000*%
%LNCOPPER0*%
G90*
G70*
G54D10*
X342Y302D03*
G54D11*
X52Y66D03*
X102Y66D03*
X152Y66D03*
X202Y66D03*
X252Y66D03*
X302Y66D03*
X352Y66D03*
X402Y66D03*
X452Y66D03*
X502Y66D03*
X552Y66D03*
X602Y66D03*
X50Y398D03*
X100Y398D03*
X150Y398D03*
X200Y398D03*
X250Y398D03*
X300Y398D03*
X350Y398D03*
X400Y398D03*
X450Y398D03*
X500Y398D03*
X550Y398D03*
X600Y398D03*
G54D12*
X279Y257D03*
X228Y207D03*
X104Y218D03*
X97Y297D03*
X430Y212D03*
G54D13*
X255Y233D02*
X241Y219D01*
D02*
X267Y244D02*
X255Y233D01*
G54D14*
D02*
X151Y195D02*
X115Y213D01*
D02*
X152Y83D02*
X151Y195D01*
G54D13*
D02*
X342Y302D02*
X291Y269D01*
G36*
X62Y373D02*
X62Y371D01*
X58Y371D01*
X58Y369D01*
X92Y369D01*
X92Y371D01*
X88Y371D01*
X88Y373D01*
X62Y373D01*
G37*
D02*
G36*
X112Y373D02*
X112Y371D01*
X108Y371D01*
X108Y369D01*
X142Y369D01*
X142Y371D01*
X138Y371D01*
X138Y373D01*
X112Y373D01*
G37*
D02*
G36*
X162Y373D02*
X162Y371D01*
X158Y371D01*
X158Y369D01*
X192Y369D01*
X192Y371D01*
X188Y371D01*
X188Y373D01*
X162Y373D01*
G37*
D02*
G36*
X212Y373D02*
X212Y371D01*
X208Y371D01*
X208Y369D01*
X242Y369D01*
X242Y371D01*
X238Y371D01*
X238Y373D01*
X212Y373D01*
G37*
D02*
G36*
X262Y373D02*
X262Y371D01*
X258Y371D01*
X258Y369D01*
X292Y369D01*
X292Y371D01*
X288Y371D01*
X288Y373D01*
X262Y373D01*
G37*
D02*
G36*
X312Y373D02*
X312Y371D01*
X308Y371D01*
X308Y369D01*
X342Y369D01*
X342Y371D01*
X338Y371D01*
X338Y373D01*
X312Y373D01*
G37*
D02*
G36*
X362Y373D02*
X362Y371D01*
X358Y371D01*
X358Y369D01*
X392Y369D01*
X392Y371D01*
X388Y371D01*
X388Y373D01*
X362Y373D01*
G37*
D02*
G36*
X412Y373D02*
X412Y371D01*
X408Y371D01*
X408Y369D01*
X442Y369D01*
X442Y371D01*
X438Y371D01*
X438Y373D01*
X412Y373D01*
G37*
D02*
G36*
X462Y373D02*
X462Y371D01*
X458Y371D01*
X458Y369D01*
X492Y369D01*
X492Y371D01*
X488Y371D01*
X488Y373D01*
X462Y373D01*
G37*
D02*
G36*
X512Y373D02*
X512Y371D01*
X508Y371D01*
X508Y369D01*
X542Y369D01*
X542Y371D01*
X538Y371D01*
X538Y373D01*
X512Y373D01*
G37*
D02*
G36*
X562Y373D02*
X562Y371D01*
X558Y371D01*
X558Y369D01*
X592Y369D01*
X592Y371D01*
X588Y371D01*
X588Y373D01*
X562Y373D01*
G37*
D02*
G36*
X40Y369D02*
X40Y367D01*
X612Y367D01*
X612Y369D01*
X40Y369D01*
G37*
D02*
G36*
X40Y369D02*
X40Y367D01*
X612Y367D01*
X612Y369D01*
X40Y369D01*
G37*
D02*
G36*
X40Y369D02*
X40Y367D01*
X612Y367D01*
X612Y369D01*
X40Y369D01*
G37*
D02*
G36*
X40Y369D02*
X40Y367D01*
X612Y367D01*
X612Y369D01*
X40Y369D01*
G37*
D02*
G36*
X40Y369D02*
X40Y367D01*
X612Y367D01*
X612Y369D01*
X40Y369D01*
G37*
D02*
G36*
X40Y369D02*
X40Y367D01*
X612Y367D01*
X612Y369D01*
X40Y369D01*
G37*
D02*
G36*
X40Y369D02*
X40Y367D01*
X612Y367D01*
X612Y369D01*
X40Y369D01*
G37*
D02*
G36*
X40Y369D02*
X40Y367D01*
X612Y367D01*
X612Y369D01*
X40Y369D01*
G37*
D02*
G36*
X40Y369D02*
X40Y367D01*
X612Y367D01*
X612Y369D01*
X40Y369D01*
G37*
D02*
G36*
X40Y369D02*
X40Y367D01*
X612Y367D01*
X612Y369D01*
X40Y369D01*
G37*
D02*
G36*
X40Y369D02*
X40Y367D01*
X612Y367D01*
X612Y369D01*
X40Y369D01*
G37*
D02*
G36*
X40Y367D02*
X40Y327D01*
X100Y327D01*
X100Y325D01*
X106Y325D01*
X106Y323D01*
X110Y323D01*
X110Y321D01*
X112Y321D01*
X112Y319D01*
X116Y319D01*
X116Y317D01*
X118Y317D01*
X118Y313D01*
X120Y313D01*
X120Y311D01*
X122Y311D01*
X122Y307D01*
X124Y307D01*
X124Y303D01*
X126Y303D01*
X126Y293D01*
X124Y293D01*
X124Y287D01*
X122Y287D01*
X122Y285D01*
X286Y285D01*
X286Y283D01*
X290Y283D01*
X290Y281D01*
X294Y281D01*
X294Y279D01*
X296Y279D01*
X296Y277D01*
X298Y277D01*
X298Y275D01*
X300Y275D01*
X300Y273D01*
X302Y273D01*
X302Y271D01*
X304Y271D01*
X304Y267D01*
X306Y267D01*
X306Y261D01*
X308Y261D01*
X308Y253D01*
X306Y253D01*
X306Y247D01*
X304Y247D01*
X304Y243D01*
X302Y243D01*
X302Y241D01*
X436Y241D01*
X436Y239D01*
X442Y239D01*
X442Y237D01*
X444Y237D01*
X444Y235D01*
X448Y235D01*
X448Y233D01*
X450Y233D01*
X450Y231D01*
X452Y231D01*
X452Y227D01*
X454Y227D01*
X454Y225D01*
X456Y225D01*
X456Y221D01*
X458Y221D01*
X458Y205D01*
X456Y205D01*
X456Y201D01*
X454Y201D01*
X454Y197D01*
X452Y197D01*
X452Y195D01*
X450Y195D01*
X450Y193D01*
X448Y193D01*
X448Y191D01*
X446Y191D01*
X446Y189D01*
X442Y189D01*
X442Y187D01*
X438Y187D01*
X438Y185D01*
X612Y185D01*
X612Y367D01*
X40Y367D01*
G37*
D02*
G36*
X40Y327D02*
X40Y269D01*
X92Y269D01*
X92Y271D01*
X86Y271D01*
X86Y273D01*
X84Y273D01*
X84Y275D01*
X80Y275D01*
X80Y277D01*
X78Y277D01*
X78Y279D01*
X76Y279D01*
X76Y281D01*
X74Y281D01*
X74Y285D01*
X72Y285D01*
X72Y289D01*
X70Y289D01*
X70Y295D01*
X68Y295D01*
X68Y301D01*
X70Y301D01*
X70Y307D01*
X72Y307D01*
X72Y311D01*
X74Y311D01*
X74Y313D01*
X76Y313D01*
X76Y315D01*
X78Y315D01*
X78Y317D01*
X80Y317D01*
X80Y319D01*
X82Y319D01*
X82Y321D01*
X84Y321D01*
X84Y323D01*
X88Y323D01*
X88Y325D01*
X94Y325D01*
X94Y327D01*
X40Y327D01*
G37*
D02*
G36*
X120Y285D02*
X120Y281D01*
X118Y281D01*
X118Y279D01*
X116Y279D01*
X116Y277D01*
X114Y277D01*
X114Y275D01*
X110Y275D01*
X110Y273D01*
X108Y273D01*
X108Y271D01*
X102Y271D01*
X102Y269D01*
X254Y269D01*
X254Y271D01*
X256Y271D01*
X256Y273D01*
X258Y273D01*
X258Y275D01*
X260Y275D01*
X260Y277D01*
X262Y277D01*
X262Y279D01*
X264Y279D01*
X264Y281D01*
X268Y281D01*
X268Y283D01*
X272Y283D01*
X272Y285D01*
X120Y285D01*
G37*
D02*
G36*
X40Y269D02*
X40Y267D01*
X252Y267D01*
X252Y269D01*
X40Y269D01*
G37*
D02*
G36*
X40Y269D02*
X40Y267D01*
X252Y267D01*
X252Y269D01*
X40Y269D01*
G37*
D02*
G36*
X40Y267D02*
X40Y247D01*
X110Y247D01*
X110Y245D01*
X116Y245D01*
X116Y243D01*
X118Y243D01*
X118Y241D01*
X120Y241D01*
X120Y239D01*
X124Y239D01*
X124Y237D01*
X126Y237D01*
X126Y233D01*
X128Y233D01*
X128Y231D01*
X130Y231D01*
X130Y229D01*
X132Y229D01*
X132Y227D01*
X136Y227D01*
X136Y225D01*
X140Y225D01*
X140Y223D01*
X144Y223D01*
X144Y221D01*
X148Y221D01*
X148Y219D01*
X152Y219D01*
X152Y217D01*
X156Y217D01*
X156Y215D01*
X160Y215D01*
X160Y213D01*
X164Y213D01*
X164Y211D01*
X166Y211D01*
X166Y209D01*
X168Y209D01*
X168Y205D01*
X170Y205D01*
X170Y201D01*
X172Y201D01*
X172Y179D01*
X222Y179D01*
X222Y181D01*
X218Y181D01*
X218Y183D01*
X214Y183D01*
X214Y185D01*
X212Y185D01*
X212Y187D01*
X210Y187D01*
X210Y189D01*
X208Y189D01*
X208Y191D01*
X206Y191D01*
X206Y193D01*
X204Y193D01*
X204Y197D01*
X202Y197D01*
X202Y201D01*
X200Y201D01*
X200Y215D01*
X202Y215D01*
X202Y219D01*
X204Y219D01*
X204Y223D01*
X206Y223D01*
X206Y225D01*
X208Y225D01*
X208Y227D01*
X210Y227D01*
X210Y229D01*
X212Y229D01*
X212Y231D01*
X216Y231D01*
X216Y233D01*
X218Y233D01*
X218Y235D01*
X220Y235D01*
X220Y237D01*
X222Y237D01*
X222Y239D01*
X224Y239D01*
X224Y241D01*
X226Y241D01*
X226Y243D01*
X228Y243D01*
X228Y245D01*
X230Y245D01*
X230Y247D01*
X232Y247D01*
X232Y249D01*
X234Y249D01*
X234Y251D01*
X236Y251D01*
X236Y253D01*
X238Y253D01*
X238Y255D01*
X240Y255D01*
X240Y257D01*
X242Y257D01*
X242Y259D01*
X244Y259D01*
X244Y261D01*
X246Y261D01*
X246Y263D01*
X248Y263D01*
X248Y265D01*
X250Y265D01*
X250Y267D01*
X40Y267D01*
G37*
D02*
G36*
X40Y247D02*
X40Y97D01*
X106Y97D01*
X106Y95D01*
X130Y95D01*
X130Y183D01*
X126Y183D01*
X126Y185D01*
X122Y185D01*
X122Y187D01*
X118Y187D01*
X118Y189D01*
X114Y189D01*
X114Y191D01*
X96Y191D01*
X96Y193D01*
X92Y193D01*
X92Y195D01*
X88Y195D01*
X88Y197D01*
X86Y197D01*
X86Y199D01*
X84Y199D01*
X84Y201D01*
X82Y201D01*
X82Y205D01*
X80Y205D01*
X80Y207D01*
X78Y207D01*
X78Y211D01*
X76Y211D01*
X76Y225D01*
X78Y225D01*
X78Y229D01*
X80Y229D01*
X80Y233D01*
X82Y233D01*
X82Y235D01*
X84Y235D01*
X84Y237D01*
X86Y237D01*
X86Y239D01*
X88Y239D01*
X88Y241D01*
X90Y241D01*
X90Y243D01*
X94Y243D01*
X94Y245D01*
X98Y245D01*
X98Y247D01*
X40Y247D01*
G37*
D02*
G36*
X300Y241D02*
X300Y239D01*
X298Y239D01*
X298Y237D01*
X296Y237D01*
X296Y235D01*
X294Y235D01*
X294Y233D01*
X290Y233D01*
X290Y229D01*
X288Y229D01*
X288Y227D01*
X286Y227D01*
X286Y225D01*
X284Y225D01*
X284Y223D01*
X282Y223D01*
X282Y221D01*
X280Y221D01*
X280Y219D01*
X278Y219D01*
X278Y217D01*
X276Y217D01*
X276Y215D01*
X274Y215D01*
X274Y213D01*
X272Y213D01*
X272Y211D01*
X270Y211D01*
X270Y209D01*
X268Y209D01*
X268Y207D01*
X266Y207D01*
X266Y205D01*
X264Y205D01*
X264Y203D01*
X262Y203D01*
X262Y201D01*
X260Y201D01*
X260Y199D01*
X256Y199D01*
X256Y197D01*
X254Y197D01*
X254Y195D01*
X252Y195D01*
X252Y193D01*
X250Y193D01*
X250Y191D01*
X248Y191D01*
X248Y187D01*
X244Y187D01*
X244Y185D01*
X422Y185D01*
X422Y187D01*
X418Y187D01*
X418Y189D01*
X416Y189D01*
X416Y191D01*
X412Y191D01*
X412Y193D01*
X410Y193D01*
X410Y195D01*
X408Y195D01*
X408Y199D01*
X406Y199D01*
X406Y201D01*
X404Y201D01*
X404Y205D01*
X402Y205D01*
X402Y219D01*
X404Y219D01*
X404Y225D01*
X406Y225D01*
X406Y227D01*
X408Y227D01*
X408Y229D01*
X410Y229D01*
X410Y231D01*
X412Y231D01*
X412Y233D01*
X414Y233D01*
X414Y235D01*
X416Y235D01*
X416Y237D01*
X420Y237D01*
X420Y239D01*
X424Y239D01*
X424Y241D01*
X300Y241D01*
G37*
D02*
G36*
X242Y185D02*
X242Y183D01*
X612Y183D01*
X612Y185D01*
X242Y185D01*
G37*
D02*
G36*
X242Y185D02*
X242Y183D01*
X612Y183D01*
X612Y185D01*
X242Y185D01*
G37*
D02*
G36*
X238Y183D02*
X238Y181D01*
X234Y181D01*
X234Y179D01*
X612Y179D01*
X612Y183D01*
X238Y183D01*
G37*
D02*
G36*
X172Y179D02*
X172Y177D01*
X612Y177D01*
X612Y179D01*
X172Y179D01*
G37*
D02*
G36*
X172Y179D02*
X172Y177D01*
X612Y177D01*
X612Y179D01*
X172Y179D01*
G37*
D02*
G36*
X172Y177D02*
X172Y97D01*
X556Y97D01*
X556Y95D01*
X562Y95D01*
X562Y93D01*
X566Y93D01*
X566Y91D01*
X588Y91D01*
X588Y93D01*
X592Y93D01*
X592Y95D01*
X598Y95D01*
X598Y97D01*
X612Y97D01*
X612Y177D01*
X172Y177D01*
G37*
D02*
G36*
X56Y97D02*
X56Y95D01*
X62Y95D01*
X62Y93D01*
X66Y93D01*
X66Y91D01*
X88Y91D01*
X88Y93D01*
X92Y93D01*
X92Y95D01*
X98Y95D01*
X98Y97D01*
X56Y97D01*
G37*
D02*
G36*
X172Y97D02*
X172Y93D01*
X192Y93D01*
X192Y95D01*
X198Y95D01*
X198Y97D01*
X172Y97D01*
G37*
D02*
G36*
X206Y97D02*
X206Y95D01*
X212Y95D01*
X212Y93D01*
X216Y93D01*
X216Y91D01*
X238Y91D01*
X238Y93D01*
X242Y93D01*
X242Y95D01*
X248Y95D01*
X248Y97D01*
X206Y97D01*
G37*
D02*
G36*
X256Y97D02*
X256Y95D01*
X262Y95D01*
X262Y93D01*
X266Y93D01*
X266Y91D01*
X288Y91D01*
X288Y93D01*
X292Y93D01*
X292Y95D01*
X298Y95D01*
X298Y97D01*
X256Y97D01*
G37*
D02*
G36*
X306Y97D02*
X306Y95D01*
X312Y95D01*
X312Y93D01*
X316Y93D01*
X316Y91D01*
X338Y91D01*
X338Y93D01*
X342Y93D01*
X342Y95D01*
X348Y95D01*
X348Y97D01*
X306Y97D01*
G37*
D02*
G36*
X356Y97D02*
X356Y95D01*
X362Y95D01*
X362Y93D01*
X366Y93D01*
X366Y91D01*
X388Y91D01*
X388Y93D01*
X392Y93D01*
X392Y95D01*
X398Y95D01*
X398Y97D01*
X356Y97D01*
G37*
D02*
G36*
X406Y97D02*
X406Y95D01*
X412Y95D01*
X412Y93D01*
X416Y93D01*
X416Y91D01*
X438Y91D01*
X438Y93D01*
X442Y93D01*
X442Y95D01*
X448Y95D01*
X448Y97D01*
X406Y97D01*
G37*
D02*
G36*
X456Y97D02*
X456Y95D01*
X462Y95D01*
X462Y93D01*
X466Y93D01*
X466Y91D01*
X488Y91D01*
X488Y93D01*
X492Y93D01*
X492Y95D01*
X498Y95D01*
X498Y97D01*
X456Y97D01*
G37*
D02*
G36*
X506Y97D02*
X506Y95D01*
X512Y95D01*
X512Y93D01*
X516Y93D01*
X516Y91D01*
X538Y91D01*
X538Y93D01*
X542Y93D01*
X542Y95D01*
X548Y95D01*
X548Y97D01*
X506Y97D01*
G37*
D02*
G36*
X536Y101D02*
X563Y101D01*
X563Y79D01*
X536Y79D01*
X536Y101D01*
G37*
D02*
G36*
X536Y57D02*
X563Y57D01*
X563Y39D01*
X536Y39D01*
X536Y57D01*
G37*
D02*
G36*
X418Y245D02*
X437Y245D01*
X437Y223D01*
X418Y223D01*
X418Y245D01*
G37*
D02*
G36*
X418Y209D02*
X437Y209D01*
X437Y185D01*
X418Y185D01*
X418Y209D01*
G37*
D02*
G36*
X398Y225D02*
X420Y225D01*
X420Y206D01*
X398Y206D01*
X398Y225D01*
G37*
D02*
G36*
X434Y225D02*
X458Y225D01*
X458Y206D01*
X434Y206D01*
X434Y225D01*
G37*
D02*
G36*
X86Y331D02*
X105Y331D01*
X105Y307D01*
X86Y307D01*
X86Y331D01*
G37*
D02*
G36*
X86Y293D02*
X105Y293D01*
X105Y269D01*
X86Y269D01*
X86Y293D01*
G37*
D02*
G36*
X64Y309D02*
X88Y309D01*
X88Y290D01*
X64Y290D01*
X64Y309D01*
G37*
D02*
G36*
X102Y309D02*
X126Y309D01*
X126Y290D01*
X102Y290D01*
X102Y309D01*
G37*
D02*
G36*
X534Y429D02*
X561Y429D01*
X561Y411D01*
X534Y411D01*
X534Y429D01*
G37*
D02*
G36*
X534Y389D02*
X561Y389D01*
X561Y369D01*
X534Y369D01*
X534Y389D01*
G37*
D02*
G04 End of Copper0*
M02*