G04 MADE WITH FRITZING*
G04 WWW.FRITZING.ORG*
G04 DOUBLE SIDED*
G04 HOLES PLATED*
G04 CONTOUR ON CENTER OF CONTOUR VECTOR*
%ASAXBY*%
%FSLAX23Y23*%
%MOIN*%
%OFA0B0*%
%SFA1.0B1.0*%
%ADD10C,0.042426*%
%ADD11C,0.027165*%
%ADD12R,0.090551X0.090551*%
%ADD13R,0.011811X0.031496*%
%ADD14R,0.031496X0.011811*%
%ADD15R,0.013987X0.019667*%
%ADD16R,0.021654X0.047244*%
%ADD17C,0.012000*%
%ADD18C,0.006000*%
%LNCOPPER1*%
G90*
G70*
G54D10*
X52Y66D03*
X102Y66D03*
X152Y66D03*
X202Y66D03*
X252Y66D03*
X302Y66D03*
X352Y66D03*
X402Y66D03*
X452Y66D03*
X502Y66D03*
X552Y66D03*
X602Y66D03*
X50Y398D03*
X100Y398D03*
X150Y398D03*
X200Y398D03*
X250Y398D03*
X300Y398D03*
X350Y398D03*
X400Y398D03*
X450Y398D03*
X500Y398D03*
X550Y398D03*
X600Y398D03*
G54D11*
X279Y257D03*
X228Y207D03*
X104Y218D03*
X97Y297D03*
X430Y212D03*
G54D12*
X253Y232D03*
G54D13*
X224Y155D03*
X283Y312D03*
X204Y312D03*
X243Y155D03*
G54D14*
X174Y223D03*
G54D13*
X263Y155D03*
X243Y312D03*
X283Y155D03*
G54D14*
X174Y263D03*
G54D13*
X302Y155D03*
G54D14*
X174Y184D03*
X332Y184D03*
G54D13*
X263Y312D03*
G54D14*
X332Y204D03*
G54D13*
X224Y312D03*
G54D14*
X332Y223D03*
X174Y282D03*
X332Y243D03*
X174Y243D03*
X332Y263D03*
X174Y204D03*
X332Y282D03*
G54D13*
X302Y312D03*
X204Y155D03*
G54D15*
X430Y313D03*
X400Y313D03*
X430Y255D03*
X400Y255D03*
X430Y172D03*
X401Y172D03*
X127Y263D03*
X97Y263D03*
X551Y126D03*
X581Y126D03*
X543Y326D03*
X513Y326D03*
G54D16*
X514Y173D03*
X551Y173D03*
X588Y173D03*
X588Y275D03*
X514Y275D03*
G54D17*
X551Y155D02*
X551Y130D01*
D02*
X551Y122D02*
X552Y83D01*
D02*
X582Y102D02*
X581Y122D01*
D02*
X594Y81D02*
X582Y102D01*
D02*
X589Y138D02*
X582Y128D01*
D02*
X589Y155D02*
X589Y138D01*
D02*
X574Y216D02*
X527Y217D01*
D02*
X527Y217D02*
X513Y206D01*
D02*
X588Y206D02*
X574Y216D01*
D02*
X513Y206D02*
X513Y191D01*
D02*
X588Y191D02*
X588Y206D01*
D02*
X513Y322D02*
X513Y293D01*
D02*
X543Y373D02*
X543Y357D01*
D02*
X543Y357D02*
X543Y331D01*
D02*
X546Y382D02*
X543Y373D01*
D02*
X368Y243D02*
X342Y243D01*
D02*
X398Y255D02*
X368Y243D01*
D02*
X366Y204D02*
X399Y173D01*
D02*
X342Y204D02*
X366Y204D01*
D02*
X398Y313D02*
X303Y312D01*
D02*
X430Y200D02*
X430Y176D01*
D02*
X430Y224D02*
X430Y251D01*
D02*
X401Y148D02*
X401Y167D01*
D02*
X423Y130D02*
X401Y148D01*
D02*
X457Y130D02*
X423Y130D01*
D02*
X474Y148D02*
X457Y130D01*
D02*
X473Y276D02*
X474Y148D01*
D02*
X508Y275D02*
X473Y276D01*
D02*
X405Y223D02*
X342Y223D01*
D02*
X419Y217D02*
X405Y223D01*
D02*
X445Y357D02*
X429Y343D01*
D02*
X429Y343D02*
X430Y317D01*
D02*
X543Y357D02*
X445Y357D01*
D02*
X462Y284D02*
X410Y285D01*
D02*
X410Y285D02*
X400Y294D01*
D02*
X400Y294D02*
X400Y309D01*
D02*
X473Y276D02*
X462Y284D01*
D02*
X97Y267D02*
X97Y285D01*
D02*
X64Y267D02*
X63Y337D01*
D02*
X68Y255D02*
X64Y267D01*
D02*
X63Y337D02*
X79Y352D01*
D02*
X79Y352D02*
X292Y352D01*
D02*
X292Y352D02*
X302Y343D01*
D02*
X302Y343D02*
X302Y322D01*
D02*
X67Y239D02*
X68Y255D01*
D02*
X102Y184D02*
X40Y184D01*
D02*
X164Y184D02*
X102Y184D01*
D02*
X102Y184D02*
X102Y83D01*
D02*
X81Y210D02*
X72Y209D01*
D02*
X93Y214D02*
X81Y210D01*
D02*
X129Y204D02*
X164Y204D01*
D02*
X115Y212D02*
X129Y204D01*
D02*
X116Y312D02*
X203Y312D01*
D02*
X107Y305D02*
X116Y312D01*
G54D18*
D02*
X270Y249D02*
X283Y261D01*
D02*
X224Y203D02*
X237Y216D01*
G54D17*
D02*
X49Y239D02*
X35Y231D01*
D02*
X35Y231D02*
X35Y215D01*
D02*
X63Y238D02*
X49Y239D01*
D02*
X128Y263D02*
X164Y263D01*
G36*
X318Y373D02*
X318Y369D01*
X342Y369D01*
X342Y371D01*
X338Y371D01*
X338Y373D01*
X318Y373D01*
G37*
D02*
G36*
X362Y373D02*
X362Y371D01*
X358Y371D01*
X358Y369D01*
X392Y369D01*
X392Y371D01*
X388Y371D01*
X388Y373D01*
X362Y373D01*
G37*
D02*
G36*
X412Y373D02*
X412Y371D01*
X408Y371D01*
X408Y369D01*
X442Y369D01*
X442Y371D01*
X438Y371D01*
X438Y373D01*
X412Y373D01*
G37*
D02*
G36*
X462Y373D02*
X462Y371D01*
X458Y371D01*
X458Y369D01*
X492Y369D01*
X492Y371D01*
X488Y371D01*
X488Y373D01*
X462Y373D01*
G37*
D02*
G36*
X318Y369D02*
X318Y367D01*
X492Y367D01*
X492Y369D01*
X318Y369D01*
G37*
D02*
G36*
X318Y369D02*
X318Y367D01*
X492Y367D01*
X492Y369D01*
X318Y369D01*
G37*
D02*
G36*
X318Y369D02*
X318Y367D01*
X492Y367D01*
X492Y369D01*
X318Y369D01*
G37*
D02*
G36*
X318Y369D02*
X318Y367D01*
X492Y367D01*
X492Y369D01*
X318Y369D01*
G37*
D02*
G36*
X318Y367D02*
X318Y355D01*
X320Y355D01*
X320Y351D01*
X322Y351D01*
X322Y343D01*
X324Y343D01*
X324Y339D01*
X450Y339D01*
X450Y337D01*
X452Y337D01*
X452Y305D01*
X488Y305D01*
X488Y315D01*
X492Y315D01*
X492Y367D01*
X318Y367D01*
G37*
D02*
G36*
X324Y339D02*
X324Y333D01*
X378Y333D01*
X378Y337D01*
X408Y337D01*
X408Y339D01*
X324Y339D01*
G37*
D02*
G36*
X562Y373D02*
X562Y371D01*
X558Y371D01*
X558Y351D01*
X564Y351D01*
X564Y315D01*
X612Y315D01*
X612Y369D01*
X592Y369D01*
X592Y371D01*
X588Y371D01*
X588Y373D01*
X562Y373D01*
G37*
D02*
G36*
X120Y331D02*
X120Y311D01*
X122Y311D01*
X122Y307D01*
X124Y307D01*
X124Y303D01*
X182Y303D01*
X182Y331D01*
X120Y331D01*
G37*
D02*
G36*
X540Y301D02*
X540Y237D01*
X562Y237D01*
X562Y301D01*
X540Y301D01*
G37*
D02*
G36*
X40Y163D02*
X40Y97D01*
X56Y97D01*
X56Y95D01*
X80Y95D01*
X80Y163D01*
X40Y163D01*
G37*
D02*
G36*
X122Y163D02*
X122Y125D01*
X182Y125D01*
X182Y163D01*
X122Y163D01*
G37*
D02*
G36*
X324Y163D02*
X324Y125D01*
X394Y125D01*
X394Y127D01*
X392Y127D01*
X392Y129D01*
X390Y129D01*
X390Y131D01*
X388Y131D01*
X388Y133D01*
X386Y133D01*
X386Y135D01*
X384Y135D01*
X384Y137D01*
X382Y137D01*
X382Y141D01*
X380Y141D01*
X380Y147D01*
X378Y147D01*
X378Y163D01*
X324Y163D01*
G37*
D02*
G36*
X122Y125D02*
X122Y123D01*
X398Y123D01*
X398Y125D01*
X122Y125D01*
G37*
D02*
G36*
X122Y125D02*
X122Y123D01*
X398Y123D01*
X398Y125D01*
X122Y125D01*
G37*
D02*
G36*
X122Y123D02*
X122Y97D01*
X356Y97D01*
X356Y95D01*
X362Y95D01*
X362Y93D01*
X366Y93D01*
X366Y91D01*
X388Y91D01*
X388Y93D01*
X392Y93D01*
X392Y95D01*
X398Y95D01*
X398Y97D01*
X410Y97D01*
X410Y115D01*
X406Y115D01*
X406Y117D01*
X404Y117D01*
X404Y119D01*
X402Y119D01*
X402Y121D01*
X400Y121D01*
X400Y123D01*
X122Y123D01*
G37*
D02*
G36*
X122Y97D02*
X122Y93D01*
X142Y93D01*
X142Y95D01*
X148Y95D01*
X148Y97D01*
X122Y97D01*
G37*
D02*
G36*
X156Y97D02*
X156Y95D01*
X162Y95D01*
X162Y93D01*
X166Y93D01*
X166Y91D01*
X188Y91D01*
X188Y93D01*
X192Y93D01*
X192Y95D01*
X198Y95D01*
X198Y97D01*
X156Y97D01*
G37*
D02*
G36*
X206Y97D02*
X206Y95D01*
X212Y95D01*
X212Y93D01*
X216Y93D01*
X216Y91D01*
X238Y91D01*
X238Y93D01*
X242Y93D01*
X242Y95D01*
X248Y95D01*
X248Y97D01*
X206Y97D01*
G37*
D02*
G36*
X256Y97D02*
X256Y95D01*
X262Y95D01*
X262Y93D01*
X266Y93D01*
X266Y91D01*
X288Y91D01*
X288Y93D01*
X292Y93D01*
X292Y95D01*
X298Y95D01*
X298Y97D01*
X256Y97D01*
G37*
D02*
G36*
X306Y97D02*
X306Y95D01*
X312Y95D01*
X312Y93D01*
X316Y93D01*
X316Y91D01*
X338Y91D01*
X338Y93D01*
X342Y93D01*
X342Y95D01*
X348Y95D01*
X348Y97D01*
X306Y97D01*
G37*
D02*
G36*
X490Y135D02*
X490Y133D01*
X488Y133D01*
X488Y131D01*
X486Y131D01*
X486Y129D01*
X484Y129D01*
X484Y127D01*
X482Y127D01*
X482Y125D01*
X480Y125D01*
X480Y123D01*
X478Y123D01*
X478Y121D01*
X476Y121D01*
X476Y119D01*
X474Y119D01*
X474Y117D01*
X472Y117D01*
X472Y115D01*
X470Y115D01*
X470Y113D01*
X468Y113D01*
X468Y111D01*
X466Y111D01*
X466Y97D01*
X506Y97D01*
X506Y95D01*
X530Y95D01*
X530Y135D01*
X490Y135D01*
G37*
D02*
G36*
X466Y97D02*
X466Y91D01*
X488Y91D01*
X488Y93D01*
X492Y93D01*
X492Y95D01*
X498Y95D01*
X498Y97D01*
X466Y97D01*
G37*
D02*
G36*
X526Y135D02*
X546Y135D01*
X546Y120D01*
X526Y120D01*
X526Y135D01*
G37*
D02*
G36*
X536Y57D02*
X563Y57D01*
X563Y39D01*
X536Y39D01*
X536Y57D01*
G37*
D02*
G36*
X533Y327D02*
X546Y327D01*
X546Y301D01*
X533Y301D01*
X533Y327D01*
G37*
D02*
G36*
X540Y335D02*
X564Y335D01*
X564Y320D01*
X540Y320D01*
X540Y335D01*
G37*
D02*
G36*
X428Y323D02*
X452Y323D01*
X452Y308D01*
X428Y308D01*
X428Y323D01*
G37*
D02*
G36*
X534Y429D02*
X561Y429D01*
X561Y411D01*
X534Y411D01*
X534Y429D01*
G37*
D02*
G36*
X77Y231D02*
X57Y231D01*
X57Y245D01*
X77Y245D01*
X77Y231D01*
G37*
D02*
G36*
X77Y201D02*
X57Y201D01*
X57Y215D01*
X77Y215D01*
X77Y201D01*
G37*
D02*
G36*
X45Y207D02*
X25Y207D01*
X25Y221D01*
X45Y221D01*
X45Y207D01*
G37*
D02*
G36*
X45Y177D02*
X26Y177D01*
X26Y191D01*
X45Y191D01*
X45Y177D01*
G37*
D02*
G04 End of Copper1*
M02*