; NON-PLATED HOLES START AT T1
; THROUGH (PLATED) HOLES START AT T100
M48
INCH
T100C0.022741
T101C0.012992
%
T100
X004518Y000658
X001018Y000658
X002518Y000658
X005002Y003983
X001518Y000658
X004002Y003983
X005502Y003983
X004502Y003983
X001002Y003983
X002502Y003983
X001502Y003983
X006018Y000658
X003018Y000658
X002018Y000658
X003518Y000658
X006002Y003983
X000518Y000658
X003002Y003983
X002002Y003983
X003502Y003983
X000502Y003983
X005018Y000658
X004018Y000658
X005518Y000658
T101
X002282Y002072
X004302Y002123
X000971Y002974
X001042Y002182
X002790Y002568
T00
M30
