G04 MADE WITH FRITZING*
G04 WWW.FRITZING.ORG*
G04 DOUBLE SIDED*
G04 HOLES PLATED*
G04 CONTOUR ON CENTER OF CONTOUR VECTOR*
%ASAXBY*%
%FSLAX23Y23*%
%MOIN*%
%OFA0B0*%
%SFA1.0B1.0*%
%ADD10R,0.001000X0.001000*%
%LNSILK0*%
G90*
G70*
G36*
X588Y345D02*
X588Y344D01*
X587Y344D01*
X587Y343D01*
X586Y343D01*
X586Y342D01*
X585Y342D01*
X585Y341D01*
X584Y341D01*
X584Y340D01*
X583Y340D01*
X583Y338D01*
X582Y338D01*
X582Y337D01*
X580Y337D01*
X580Y336D01*
X579Y336D01*
X579Y335D01*
X578Y335D01*
X578Y334D01*
X577Y334D01*
X577Y333D01*
X576Y333D01*
X576Y332D01*
X575Y332D01*
X575Y331D01*
X574Y331D01*
X574Y330D01*
X573Y330D01*
X573Y329D01*
X572Y329D01*
X572Y328D01*
X571Y328D01*
X571Y326D01*
X570Y326D01*
X570Y325D01*
X569Y325D01*
X569Y324D01*
X567Y324D01*
X567Y323D01*
X566Y323D01*
X566Y322D01*
X565Y322D01*
X565Y321D01*
X564Y321D01*
X564Y320D01*
X563Y320D01*
X563Y319D01*
X562Y319D01*
X562Y318D01*
X561Y318D01*
X561Y317D01*
X560Y317D01*
X560Y316D01*
X559Y316D01*
X559Y315D01*
X558Y315D01*
X558Y313D01*
X557Y313D01*
X557Y312D01*
X556Y312D01*
X556Y311D01*
X554Y311D01*
X554Y310D01*
X553Y310D01*
X553Y309D01*
X552Y309D01*
X552Y308D01*
X551Y308D01*
X551Y307D01*
X550Y307D01*
X550Y306D01*
X549Y306D01*
X549Y305D01*
X548Y305D01*
X548Y304D01*
X547Y304D01*
X547Y303D01*
X546Y303D01*
X546Y302D01*
X545Y302D01*
X545Y300D01*
X544Y300D01*
X544Y299D01*
X543Y299D01*
X543Y298D01*
X541Y298D01*
X541Y297D01*
X540Y297D01*
X540Y296D01*
X539Y296D01*
X539Y295D01*
X522Y295D01*
X522Y296D01*
X523Y296D01*
X523Y297D01*
X524Y297D01*
X524Y298D01*
X525Y298D01*
X525Y299D01*
X526Y299D01*
X526Y300D01*
X527Y300D01*
X527Y302D01*
X528Y302D01*
X528Y303D01*
X530Y303D01*
X530Y304D01*
X531Y304D01*
X531Y305D01*
X532Y305D01*
X532Y306D01*
X533Y306D01*
X533Y307D01*
X534Y307D01*
X534Y308D01*
X535Y308D01*
X535Y309D01*
X536Y309D01*
X536Y310D01*
X537Y310D01*
X537Y311D01*
X538Y311D01*
X538Y312D01*
X539Y312D01*
X539Y313D01*
X540Y313D01*
X540Y315D01*
X541Y315D01*
X541Y316D01*
X543Y316D01*
X543Y317D01*
X544Y317D01*
X544Y318D01*
X545Y318D01*
X545Y319D01*
X546Y319D01*
X546Y320D01*
X547Y320D01*
X547Y321D01*
X548Y321D01*
X548Y322D01*
X549Y322D01*
X549Y323D01*
X550Y323D01*
X550Y324D01*
X551Y324D01*
X551Y325D01*
X552Y325D01*
X552Y326D01*
X553Y326D01*
X553Y328D01*
X554Y328D01*
X554Y329D01*
X556Y329D01*
X556Y330D01*
X557Y330D01*
X557Y331D01*
X558Y331D01*
X558Y332D01*
X559Y332D01*
X559Y333D01*
X560Y333D01*
X560Y334D01*
X561Y334D01*
X561Y335D01*
X562Y335D01*
X562Y336D01*
X563Y336D01*
X563Y337D01*
X564Y337D01*
X564Y338D01*
X565Y338D01*
X565Y340D01*
X566Y340D01*
X566Y341D01*
X567Y341D01*
X567Y342D01*
X569Y342D01*
X569Y343D01*
X570Y343D01*
X570Y345D01*
X588Y345D01*
G37*
D02*
G36*
X419Y330D02*
X419Y329D01*
X420Y329D01*
X420Y328D01*
X421Y328D01*
X421Y326D01*
X414Y326D01*
X414Y324D01*
X413Y324D01*
X413Y322D01*
X414Y322D01*
X414Y320D01*
X410Y320D01*
X410Y321D01*
X409Y321D01*
X409Y325D01*
X410Y325D01*
X410Y328D01*
X411Y328D01*
X411Y329D01*
X413Y329D01*
X413Y330D01*
X419Y330D01*
G37*
D02*
G36*
X458Y329D02*
X458Y328D01*
X459Y328D01*
X459Y326D01*
X460Y326D01*
X460Y325D01*
X453Y325D01*
X453Y324D01*
X452Y324D01*
X452Y320D01*
X453Y320D01*
X453Y319D01*
X448Y319D01*
X448Y325D01*
X449Y325D01*
X449Y326D01*
X450Y326D01*
X450Y328D01*
X452Y328D01*
X452Y329D01*
X458Y329D01*
G37*
D02*
G36*
X494Y326D02*
X494Y325D01*
X496Y325D01*
X496Y324D01*
X497Y324D01*
X497Y323D01*
X489Y323D01*
X489Y322D01*
X488Y322D01*
X488Y318D01*
X489Y318D01*
X489Y317D01*
X485Y317D01*
X485Y319D01*
X484Y319D01*
X484Y321D01*
X485Y321D01*
X485Y323D01*
X486Y323D01*
X486Y324D01*
X487Y324D01*
X487Y325D01*
X488Y325D01*
X488Y326D01*
X494Y326D01*
G37*
D02*
G36*
X422Y326D02*
X422Y320D01*
X418Y320D01*
X418Y321D01*
X419Y321D01*
X419Y325D01*
X418Y325D01*
X418Y326D01*
X422Y326D01*
G37*
D02*
G36*
X461Y325D02*
X461Y319D01*
X457Y319D01*
X457Y320D01*
X458Y320D01*
X458Y324D01*
X456Y324D01*
X456Y325D01*
X461Y325D01*
G37*
D02*
G36*
X497Y323D02*
X497Y322D01*
X498Y322D01*
X498Y318D01*
X497Y318D01*
X497Y317D01*
X494Y317D01*
X494Y319D01*
X495Y319D01*
X495Y321D01*
X494Y321D01*
X494Y322D01*
X493Y322D01*
X493Y323D01*
X497Y323D01*
G37*
D02*
G36*
X422Y320D02*
X422Y319D01*
X410Y319D01*
X410Y320D01*
X422Y320D01*
G37*
D02*
G36*
X422Y320D02*
X422Y319D01*
X410Y319D01*
X410Y320D01*
X422Y320D01*
G37*
D02*
G36*
X460Y319D02*
X460Y318D01*
X449Y318D01*
X449Y319D01*
X460Y319D01*
G37*
D02*
G36*
X460Y319D02*
X460Y318D01*
X449Y318D01*
X449Y319D01*
X460Y319D01*
G37*
D02*
G36*
X422Y319D02*
X422Y318D01*
X423Y318D01*
X423Y317D01*
X424Y317D01*
X424Y316D01*
X426Y316D01*
X426Y315D01*
X427Y315D01*
X427Y313D01*
X428Y313D01*
X428Y312D01*
X429Y312D01*
X429Y311D01*
X430Y311D01*
X430Y310D01*
X431Y310D01*
X431Y309D01*
X432Y309D01*
X432Y308D01*
X433Y308D01*
X433Y307D01*
X434Y307D01*
X434Y306D01*
X435Y306D01*
X435Y305D01*
X436Y305D01*
X436Y304D01*
X437Y304D01*
X437Y303D01*
X439Y303D01*
X439Y302D01*
X440Y302D01*
X440Y300D01*
X441Y300D01*
X441Y299D01*
X442Y299D01*
X442Y298D01*
X443Y298D01*
X443Y297D01*
X444Y297D01*
X444Y296D01*
X445Y296D01*
X445Y295D01*
X446Y295D01*
X446Y294D01*
X447Y294D01*
X447Y293D01*
X448Y293D01*
X448Y292D01*
X449Y292D01*
X449Y291D01*
X450Y291D01*
X450Y290D01*
X452Y290D01*
X452Y289D01*
X453Y289D01*
X453Y287D01*
X454Y287D01*
X454Y286D01*
X455Y286D01*
X455Y285D01*
X456Y285D01*
X456Y284D01*
X457Y284D01*
X457Y283D01*
X458Y283D01*
X458Y282D01*
X459Y282D01*
X459Y281D01*
X460Y281D01*
X460Y280D01*
X461Y280D01*
X461Y279D01*
X462Y279D01*
X462Y254D01*
X463Y254D01*
X463Y248D01*
X460Y248D01*
X460Y278D01*
X459Y278D01*
X459Y279D01*
X458Y279D01*
X458Y280D01*
X457Y280D01*
X457Y281D01*
X456Y281D01*
X456Y282D01*
X455Y282D01*
X455Y283D01*
X454Y283D01*
X454Y284D01*
X453Y284D01*
X453Y285D01*
X452Y285D01*
X452Y286D01*
X450Y286D01*
X450Y287D01*
X449Y287D01*
X449Y289D01*
X448Y289D01*
X448Y290D01*
X447Y290D01*
X447Y291D01*
X446Y291D01*
X446Y292D01*
X445Y292D01*
X445Y293D01*
X444Y293D01*
X444Y294D01*
X443Y294D01*
X443Y295D01*
X442Y295D01*
X442Y296D01*
X441Y296D01*
X441Y297D01*
X440Y297D01*
X440Y298D01*
X439Y298D01*
X439Y299D01*
X437Y299D01*
X437Y300D01*
X436Y300D01*
X436Y302D01*
X435Y302D01*
X435Y303D01*
X434Y303D01*
X434Y304D01*
X433Y304D01*
X433Y305D01*
X432Y305D01*
X432Y306D01*
X431Y306D01*
X431Y307D01*
X430Y307D01*
X430Y308D01*
X429Y308D01*
X429Y309D01*
X428Y309D01*
X428Y310D01*
X427Y310D01*
X427Y311D01*
X426Y311D01*
X426Y312D01*
X424Y312D01*
X424Y313D01*
X423Y313D01*
X423Y315D01*
X422Y315D01*
X422Y316D01*
X421Y316D01*
X421Y317D01*
X413Y317D01*
X413Y318D01*
X411Y318D01*
X411Y319D01*
X422Y319D01*
G37*
D02*
G36*
X459Y318D02*
X459Y317D01*
X458Y317D01*
X458Y316D01*
X455Y316D01*
X455Y307D01*
X456Y307D01*
X456Y306D01*
X457Y306D01*
X457Y305D01*
X458Y305D01*
X458Y304D01*
X459Y304D01*
X459Y303D01*
X460Y303D01*
X460Y302D01*
X461Y302D01*
X461Y300D01*
X462Y300D01*
X462Y299D01*
X463Y299D01*
X463Y298D01*
X465Y298D01*
X465Y297D01*
X466Y297D01*
X466Y296D01*
X467Y296D01*
X467Y295D01*
X468Y295D01*
X468Y294D01*
X469Y294D01*
X469Y293D01*
X470Y293D01*
X470Y292D01*
X471Y292D01*
X471Y291D01*
X472Y291D01*
X472Y290D01*
X473Y290D01*
X473Y289D01*
X474Y289D01*
X474Y287D01*
X475Y287D01*
X475Y286D01*
X476Y286D01*
X476Y285D01*
X478Y285D01*
X478Y284D01*
X479Y284D01*
X479Y283D01*
X480Y283D01*
X480Y282D01*
X481Y282D01*
X481Y266D01*
X479Y266D01*
X479Y280D01*
X478Y280D01*
X478Y281D01*
X476Y281D01*
X476Y282D01*
X475Y282D01*
X475Y283D01*
X474Y283D01*
X474Y284D01*
X473Y284D01*
X473Y285D01*
X472Y285D01*
X472Y286D01*
X471Y286D01*
X471Y287D01*
X470Y287D01*
X470Y289D01*
X469Y289D01*
X469Y290D01*
X468Y290D01*
X468Y291D01*
X467Y291D01*
X467Y292D01*
X466Y292D01*
X466Y293D01*
X465Y293D01*
X465Y294D01*
X463Y294D01*
X463Y295D01*
X462Y295D01*
X462Y296D01*
X461Y296D01*
X461Y297D01*
X460Y297D01*
X460Y298D01*
X459Y298D01*
X459Y299D01*
X458Y299D01*
X458Y300D01*
X457Y300D01*
X457Y302D01*
X456Y302D01*
X456Y303D01*
X455Y303D01*
X455Y304D01*
X454Y304D01*
X454Y305D01*
X453Y305D01*
X453Y316D01*
X452Y316D01*
X452Y317D01*
X450Y317D01*
X450Y318D01*
X459Y318D01*
G37*
D02*
G36*
X497Y317D02*
X497Y316D01*
X485Y316D01*
X485Y317D01*
X497Y317D01*
G37*
D02*
G36*
X497Y317D02*
X497Y316D01*
X485Y316D01*
X485Y317D01*
X497Y317D01*
G37*
D02*
G36*
X497Y316D02*
X497Y313D01*
X492Y313D01*
X492Y312D01*
X491Y312D01*
X491Y313D01*
X487Y313D01*
X487Y315D01*
X486Y315D01*
X486Y316D01*
X497Y316D01*
G37*
D02*
G36*
X498Y313D02*
X498Y312D01*
X499Y312D01*
X499Y311D01*
X500Y311D01*
X500Y310D01*
X501Y310D01*
X501Y309D01*
X502Y309D01*
X502Y308D01*
X504Y308D01*
X504Y307D01*
X505Y307D01*
X505Y306D01*
X506Y306D01*
X506Y305D01*
X507Y305D01*
X507Y304D01*
X508Y304D01*
X508Y303D01*
X509Y303D01*
X509Y302D01*
X510Y302D01*
X510Y300D01*
X511Y300D01*
X511Y299D01*
X512Y299D01*
X512Y298D01*
X513Y298D01*
X513Y297D01*
X510Y297D01*
X510Y298D01*
X509Y298D01*
X509Y299D01*
X508Y299D01*
X508Y300D01*
X507Y300D01*
X507Y302D01*
X506Y302D01*
X506Y303D01*
X505Y303D01*
X505Y304D01*
X504Y304D01*
X504Y305D01*
X502Y305D01*
X502Y306D01*
X501Y306D01*
X501Y307D01*
X500Y307D01*
X500Y308D01*
X499Y308D01*
X499Y309D01*
X498Y309D01*
X498Y310D01*
X497Y310D01*
X497Y311D01*
X496Y311D01*
X496Y312D01*
X495Y312D01*
X495Y313D01*
X498Y313D01*
G37*
D02*
G36*
X486Y305D02*
X486Y304D01*
X487Y304D01*
X487Y303D01*
X488Y303D01*
X488Y302D01*
X481Y302D01*
X481Y300D01*
X480Y300D01*
X480Y296D01*
X481Y296D01*
X481Y295D01*
X476Y295D01*
X476Y302D01*
X478Y302D01*
X478Y303D01*
X479Y303D01*
X479Y304D01*
X480Y304D01*
X480Y305D01*
X486Y305D01*
G37*
D02*
G36*
X489Y302D02*
X489Y295D01*
X485Y295D01*
X485Y296D01*
X486Y296D01*
X486Y300D01*
X485Y300D01*
X485Y302D01*
X489Y302D01*
G37*
D02*
G36*
X518Y298D02*
X518Y297D01*
X515Y297D01*
X515Y298D01*
X518Y298D01*
G37*
D02*
G36*
X519Y297D02*
X519Y296D01*
X511Y296D01*
X511Y297D01*
X519Y297D01*
G37*
D02*
G36*
X519Y297D02*
X519Y296D01*
X511Y296D01*
X511Y297D01*
X519Y297D01*
G37*
D02*
G36*
X520Y296D02*
X520Y295D01*
X512Y295D01*
X512Y296D01*
X520Y296D01*
G37*
D02*
G36*
X538Y295D02*
X538Y294D01*
X512Y294D01*
X512Y295D01*
X538Y295D01*
G37*
D02*
G36*
X538Y295D02*
X538Y294D01*
X512Y294D01*
X512Y295D01*
X538Y295D01*
G37*
D02*
G36*
X488Y295D02*
X488Y294D01*
X478Y294D01*
X478Y295D01*
X488Y295D01*
G37*
D02*
G36*
X488Y295D02*
X488Y294D01*
X478Y294D01*
X478Y295D01*
X488Y295D01*
G37*
D02*
G36*
X537Y294D02*
X537Y293D01*
X536Y293D01*
X536Y292D01*
X535Y292D01*
X535Y291D01*
X534Y291D01*
X534Y290D01*
X533Y290D01*
X533Y289D01*
X532Y289D01*
X532Y287D01*
X531Y287D01*
X531Y286D01*
X530Y286D01*
X530Y285D01*
X528Y285D01*
X528Y284D01*
X527Y284D01*
X527Y283D01*
X526Y283D01*
X526Y282D01*
X525Y282D01*
X525Y281D01*
X524Y281D01*
X524Y280D01*
X507Y280D01*
X507Y281D01*
X508Y281D01*
X508Y282D01*
X509Y282D01*
X509Y283D01*
X510Y283D01*
X510Y284D01*
X511Y284D01*
X511Y285D01*
X512Y285D01*
X512Y286D01*
X513Y286D01*
X513Y290D01*
X512Y290D01*
X512Y291D01*
X511Y291D01*
X511Y292D01*
X510Y292D01*
X510Y293D01*
X511Y293D01*
X511Y294D01*
X537Y294D01*
G37*
D02*
G36*
X488Y294D02*
X488Y293D01*
X489Y293D01*
X489Y292D01*
X491Y292D01*
X491Y291D01*
X492Y291D01*
X492Y290D01*
X493Y290D01*
X493Y289D01*
X494Y289D01*
X494Y287D01*
X495Y287D01*
X495Y286D01*
X496Y286D01*
X496Y285D01*
X497Y285D01*
X497Y284D01*
X498Y284D01*
X498Y283D01*
X495Y283D01*
X495Y284D01*
X494Y284D01*
X494Y285D01*
X493Y285D01*
X493Y286D01*
X492Y286D01*
X492Y287D01*
X491Y287D01*
X491Y289D01*
X489Y289D01*
X489Y290D01*
X488Y290D01*
X488Y291D01*
X487Y291D01*
X487Y292D01*
X480Y292D01*
X480Y293D01*
X479Y293D01*
X479Y294D01*
X488Y294D01*
G37*
D02*
G36*
X429Y286D02*
X429Y285D01*
X430Y285D01*
X430Y284D01*
X431Y284D01*
X431Y283D01*
X423Y283D01*
X423Y282D01*
X422Y282D01*
X422Y278D01*
X423Y278D01*
X423Y277D01*
X419Y277D01*
X419Y283D01*
X420Y283D01*
X420Y284D01*
X421Y284D01*
X421Y285D01*
X422Y285D01*
X422Y286D01*
X429Y286D01*
G37*
D02*
G36*
X501Y284D02*
X501Y283D01*
X500Y283D01*
X500Y284D01*
X501Y284D01*
G37*
D02*
G36*
X502Y283D02*
X502Y282D01*
X496Y282D01*
X496Y283D01*
X502Y283D01*
G37*
D02*
G36*
X502Y283D02*
X502Y282D01*
X496Y282D01*
X496Y283D01*
X502Y283D01*
G37*
D02*
G36*
X431Y283D02*
X431Y282D01*
X432Y282D01*
X432Y277D01*
X428Y277D01*
X428Y279D01*
X429Y279D01*
X429Y281D01*
X428Y281D01*
X428Y282D01*
X427Y282D01*
X427Y283D01*
X431Y283D01*
G37*
D02*
G36*
X504Y282D02*
X504Y281D01*
X505Y281D01*
X505Y280D01*
X497Y280D01*
X497Y282D01*
X504Y282D01*
G37*
D02*
G36*
X523Y280D02*
X523Y279D01*
X496Y279D01*
X496Y280D01*
X523Y280D01*
G37*
D02*
G36*
X523Y280D02*
X523Y279D01*
X496Y279D01*
X496Y280D01*
X523Y280D01*
G37*
D02*
G36*
X522Y279D02*
X522Y278D01*
X521Y278D01*
X521Y277D01*
X520Y277D01*
X520Y276D01*
X519Y276D01*
X519Y274D01*
X518Y274D01*
X518Y273D01*
X517Y273D01*
X517Y272D01*
X515Y272D01*
X515Y271D01*
X514Y271D01*
X514Y270D01*
X513Y270D01*
X513Y269D01*
X512Y269D01*
X512Y268D01*
X511Y268D01*
X511Y267D01*
X510Y267D01*
X510Y266D01*
X509Y266D01*
X509Y265D01*
X508Y265D01*
X508Y264D01*
X491Y264D01*
X491Y265D01*
X492Y265D01*
X492Y266D01*
X493Y266D01*
X493Y267D01*
X494Y267D01*
X494Y268D01*
X495Y268D01*
X495Y269D01*
X496Y269D01*
X496Y270D01*
X497Y270D01*
X497Y271D01*
X498Y271D01*
X498Y272D01*
X499Y272D01*
X499Y273D01*
X498Y273D01*
X498Y274D01*
X497Y274D01*
X497Y276D01*
X496Y276D01*
X496Y277D01*
X495Y277D01*
X495Y279D01*
X522Y279D01*
G37*
D02*
G36*
X431Y277D02*
X431Y276D01*
X420Y276D01*
X420Y277D01*
X431Y277D01*
G37*
D02*
G36*
X431Y277D02*
X431Y276D01*
X420Y276D01*
X420Y277D01*
X431Y277D01*
G37*
D02*
G36*
X432Y276D02*
X432Y274D01*
X433Y274D01*
X433Y273D01*
X434Y273D01*
X434Y272D01*
X435Y272D01*
X435Y271D01*
X436Y271D01*
X436Y270D01*
X437Y270D01*
X437Y269D01*
X439Y269D01*
X439Y268D01*
X440Y268D01*
X440Y267D01*
X441Y267D01*
X441Y266D01*
X442Y266D01*
X442Y265D01*
X443Y265D01*
X443Y264D01*
X444Y264D01*
X444Y263D01*
X445Y263D01*
X445Y261D01*
X446Y261D01*
X446Y260D01*
X447Y260D01*
X447Y234D01*
X448Y234D01*
X448Y233D01*
X445Y233D01*
X445Y258D01*
X444Y258D01*
X444Y259D01*
X443Y259D01*
X443Y260D01*
X442Y260D01*
X442Y261D01*
X441Y261D01*
X441Y263D01*
X440Y263D01*
X440Y264D01*
X439Y264D01*
X439Y265D01*
X437Y265D01*
X437Y266D01*
X436Y266D01*
X436Y267D01*
X435Y267D01*
X435Y268D01*
X434Y268D01*
X434Y269D01*
X433Y269D01*
X433Y270D01*
X432Y270D01*
X432Y271D01*
X431Y271D01*
X431Y272D01*
X430Y272D01*
X430Y273D01*
X422Y273D01*
X422Y274D01*
X420Y274D01*
X420Y276D01*
X432Y276D01*
G37*
D02*
G36*
X485Y268D02*
X485Y267D01*
X486Y267D01*
X486Y266D01*
X483Y266D01*
X483Y267D01*
X484Y267D01*
X484Y268D01*
X485Y268D01*
G37*
D02*
G36*
X487Y266D02*
X487Y265D01*
X479Y265D01*
X479Y266D01*
X487Y266D01*
G37*
D02*
G36*
X487Y266D02*
X487Y265D01*
X479Y265D01*
X479Y266D01*
X487Y266D01*
G37*
D02*
G36*
X488Y265D02*
X488Y264D01*
X479Y264D01*
X479Y265D01*
X488Y265D01*
G37*
D02*
G36*
X507Y264D02*
X507Y263D01*
X480Y263D01*
X480Y264D01*
X507Y264D01*
G37*
D02*
G36*
X507Y264D02*
X507Y263D01*
X480Y263D01*
X480Y264D01*
X507Y264D01*
G37*
D02*
G36*
X506Y263D02*
X506Y261D01*
X505Y261D01*
X505Y260D01*
X504Y260D01*
X504Y259D01*
X502Y259D01*
X502Y258D01*
X501Y258D01*
X501Y257D01*
X500Y257D01*
X500Y256D01*
X499Y256D01*
X499Y255D01*
X498Y255D01*
X498Y254D01*
X497Y254D01*
X497Y253D01*
X496Y253D01*
X496Y252D01*
X495Y252D01*
X495Y251D01*
X494Y251D01*
X494Y250D01*
X493Y250D01*
X493Y248D01*
X492Y248D01*
X492Y247D01*
X491Y247D01*
X491Y246D01*
X473Y246D01*
X473Y247D01*
X474Y247D01*
X474Y248D01*
X475Y248D01*
X475Y250D01*
X476Y250D01*
X476Y251D01*
X478Y251D01*
X478Y252D01*
X479Y252D01*
X479Y253D01*
X480Y253D01*
X480Y254D01*
X481Y254D01*
X481Y255D01*
X482Y255D01*
X482Y258D01*
X481Y258D01*
X481Y259D01*
X480Y259D01*
X480Y260D01*
X479Y260D01*
X479Y263D01*
X506Y263D01*
G37*
D02*
G36*
X468Y251D02*
X468Y250D01*
X469Y250D01*
X469Y248D01*
X466Y248D01*
X466Y250D01*
X467Y250D01*
X467Y251D01*
X468Y251D01*
G37*
D02*
G36*
X415Y251D02*
X415Y250D01*
X417Y250D01*
X417Y248D01*
X418Y248D01*
X418Y247D01*
X419Y247D01*
X419Y246D01*
X410Y246D01*
X410Y241D01*
X407Y241D01*
X407Y242D01*
X406Y242D01*
X406Y245D01*
X407Y245D01*
X407Y247D01*
X408Y247D01*
X408Y248D01*
X409Y248D01*
X409Y250D01*
X411Y250D01*
X411Y251D01*
X415Y251D01*
G37*
D02*
G36*
X470Y248D02*
X470Y247D01*
X461Y247D01*
X461Y248D01*
X470Y248D01*
G37*
D02*
G36*
X470Y248D02*
X470Y247D01*
X461Y247D01*
X461Y248D01*
X470Y248D01*
G37*
D02*
G36*
X471Y247D02*
X471Y246D01*
X462Y246D01*
X462Y247D01*
X471Y247D01*
G37*
D02*
G36*
X489Y246D02*
X489Y245D01*
X462Y245D01*
X462Y246D01*
X489Y246D01*
G37*
D02*
G36*
X489Y246D02*
X489Y245D01*
X462Y245D01*
X462Y246D01*
X489Y246D01*
G37*
D02*
G36*
X419Y246D02*
X419Y245D01*
X420Y245D01*
X420Y242D01*
X419Y242D01*
X419Y241D01*
X416Y241D01*
X416Y246D01*
X419Y246D01*
G37*
D02*
G36*
X488Y245D02*
X488Y244D01*
X487Y244D01*
X487Y243D01*
X486Y243D01*
X486Y242D01*
X485Y242D01*
X485Y241D01*
X484Y241D01*
X484Y240D01*
X483Y240D01*
X483Y239D01*
X482Y239D01*
X482Y238D01*
X481Y238D01*
X481Y237D01*
X480Y237D01*
X480Y235D01*
X479Y235D01*
X479Y234D01*
X478Y234D01*
X478Y233D01*
X476Y233D01*
X476Y232D01*
X475Y232D01*
X475Y231D01*
X458Y231D01*
X458Y232D01*
X459Y232D01*
X459Y233D01*
X460Y233D01*
X460Y234D01*
X461Y234D01*
X461Y235D01*
X462Y235D01*
X462Y237D01*
X463Y237D01*
X463Y238D01*
X465Y238D01*
X465Y241D01*
X463Y241D01*
X463Y242D01*
X462Y242D01*
X462Y243D01*
X461Y243D01*
X461Y245D01*
X488Y245D01*
G37*
D02*
G36*
X419Y241D02*
X419Y240D01*
X407Y240D01*
X407Y241D01*
X419Y241D01*
G37*
D02*
G36*
X419Y241D02*
X419Y240D01*
X407Y240D01*
X407Y241D01*
X419Y241D01*
G37*
D02*
G36*
X418Y240D02*
X418Y239D01*
X419Y239D01*
X419Y238D01*
X415Y238D01*
X415Y237D01*
X411Y237D01*
X411Y238D01*
X409Y238D01*
X409Y239D01*
X408Y239D01*
X408Y240D01*
X418Y240D01*
G37*
D02*
G36*
X453Y234D02*
X453Y233D01*
X450Y233D01*
X450Y234D01*
X453Y234D01*
G37*
D02*
G36*
X454Y233D02*
X454Y232D01*
X446Y232D01*
X446Y233D01*
X454Y233D01*
G37*
D02*
G36*
X454Y233D02*
X454Y232D01*
X446Y232D01*
X446Y233D01*
X454Y233D01*
G37*
D02*
G36*
X455Y232D02*
X455Y231D01*
X447Y231D01*
X447Y232D01*
X455Y232D01*
G37*
D02*
G36*
X474Y231D02*
X474Y230D01*
X447Y230D01*
X447Y231D01*
X474Y231D01*
G37*
D02*
G36*
X474Y231D02*
X474Y230D01*
X447Y230D01*
X447Y231D01*
X474Y231D01*
G37*
D02*
G36*
X409Y166D02*
X409Y165D01*
X380Y165D01*
X380Y166D01*
X409Y166D01*
G37*
D02*
G36*
X409Y166D02*
X409Y165D01*
X380Y165D01*
X380Y166D01*
X409Y166D01*
G37*
D02*
G36*
X408Y165D02*
X408Y164D01*
X407Y164D01*
X407Y163D01*
X406Y163D01*
X406Y162D01*
X405Y162D01*
X405Y161D01*
X404Y161D01*
X404Y160D01*
X403Y160D01*
X403Y159D01*
X402Y159D01*
X402Y157D01*
X401Y157D01*
X401Y156D01*
X400Y156D01*
X400Y155D01*
X398Y155D01*
X398Y154D01*
X397Y154D01*
X397Y153D01*
X396Y153D01*
X396Y152D01*
X395Y152D01*
X395Y151D01*
X394Y151D01*
X394Y150D01*
X393Y150D01*
X393Y149D01*
X392Y149D01*
X392Y148D01*
X391Y148D01*
X391Y147D01*
X390Y147D01*
X390Y146D01*
X389Y146D01*
X389Y144D01*
X388Y144D01*
X388Y143D01*
X387Y143D01*
X387Y142D01*
X385Y142D01*
X385Y141D01*
X384Y141D01*
X384Y140D01*
X383Y140D01*
X383Y139D01*
X382Y139D01*
X382Y141D01*
X381Y141D01*
X381Y144D01*
X380Y144D01*
X380Y165D01*
X408Y165D01*
G37*
D02*
G36*
X614Y312D02*
X614Y148D01*
X613Y148D01*
X613Y143D01*
X612Y143D01*
X612Y140D01*
X611Y140D01*
X611Y138D01*
X610Y138D01*
X610Y136D01*
X609Y136D01*
X609Y135D01*
X583Y135D01*
X583Y136D01*
X586Y136D01*
X586Y137D01*
X588Y137D01*
X588Y138D01*
X589Y138D01*
X589Y139D01*
X591Y139D01*
X591Y140D01*
X592Y140D01*
X592Y141D01*
X593Y141D01*
X593Y142D01*
X595Y142D01*
X595Y143D01*
X596Y143D01*
X596Y144D01*
X597Y144D01*
X597Y146D01*
X598Y146D01*
X598Y148D01*
X599Y148D01*
X599Y150D01*
X600Y150D01*
X600Y153D01*
X601Y153D01*
X601Y157D01*
X602Y157D01*
X602Y312D01*
X614Y312D01*
G37*
D02*
G36*
X560Y261D02*
X560Y258D01*
X557Y258D01*
X557Y257D01*
X554Y257D01*
X554Y258D01*
X553Y258D01*
X553Y259D01*
X552Y259D01*
X552Y260D01*
X551Y260D01*
X551Y261D01*
X560Y261D01*
G37*
D02*
G36*
X561Y258D02*
X561Y257D01*
X562Y257D01*
X562Y256D01*
X563Y256D01*
X563Y255D01*
X564Y255D01*
X564Y254D01*
X565Y254D01*
X565Y253D01*
X566Y253D01*
X566Y252D01*
X567Y252D01*
X567Y251D01*
X569Y251D01*
X569Y250D01*
X570Y250D01*
X570Y248D01*
X571Y248D01*
X571Y247D01*
X572Y247D01*
X572Y246D01*
X573Y246D01*
X573Y245D01*
X574Y245D01*
X574Y244D01*
X575Y244D01*
X575Y243D01*
X576Y243D01*
X576Y242D01*
X584Y242D01*
X584Y241D01*
X585Y241D01*
X585Y240D01*
X586Y240D01*
X586Y239D01*
X578Y239D01*
X578Y238D01*
X577Y238D01*
X577Y233D01*
X578Y233D01*
X578Y232D01*
X574Y232D01*
X574Y239D01*
X575Y239D01*
X575Y241D01*
X574Y241D01*
X574Y242D01*
X573Y242D01*
X573Y243D01*
X572Y243D01*
X572Y244D01*
X571Y244D01*
X571Y245D01*
X570Y245D01*
X570Y246D01*
X569Y246D01*
X569Y247D01*
X567Y247D01*
X567Y248D01*
X566Y248D01*
X566Y250D01*
X565Y250D01*
X565Y251D01*
X564Y251D01*
X564Y252D01*
X563Y252D01*
X563Y253D01*
X562Y253D01*
X562Y254D01*
X561Y254D01*
X561Y255D01*
X560Y255D01*
X560Y256D01*
X559Y256D01*
X559Y257D01*
X558Y257D01*
X558Y258D01*
X561Y258D01*
G37*
D02*
G36*
X546Y248D02*
X546Y247D01*
X547Y247D01*
X547Y246D01*
X548Y246D01*
X548Y245D01*
X543Y245D01*
X543Y244D01*
X540Y244D01*
X540Y245D01*
X539Y245D01*
X539Y246D01*
X538Y246D01*
X538Y247D01*
X537Y247D01*
X537Y248D01*
X546Y248D01*
G37*
D02*
G36*
X548Y245D02*
X548Y220D01*
X549Y220D01*
X549Y219D01*
X550Y219D01*
X550Y218D01*
X551Y218D01*
X551Y217D01*
X552Y217D01*
X552Y216D01*
X553Y216D01*
X553Y215D01*
X554Y215D01*
X554Y214D01*
X556Y214D01*
X556Y213D01*
X557Y213D01*
X557Y212D01*
X558Y212D01*
X558Y211D01*
X559Y211D01*
X559Y209D01*
X560Y209D01*
X560Y208D01*
X561Y208D01*
X561Y207D01*
X562Y207D01*
X562Y206D01*
X563Y206D01*
X563Y205D01*
X560Y205D01*
X560Y206D01*
X559Y206D01*
X559Y207D01*
X558Y207D01*
X558Y208D01*
X557Y208D01*
X557Y209D01*
X556Y209D01*
X556Y211D01*
X554Y211D01*
X554Y212D01*
X553Y212D01*
X553Y213D01*
X552Y213D01*
X552Y214D01*
X551Y214D01*
X551Y215D01*
X550Y215D01*
X550Y216D01*
X549Y216D01*
X549Y217D01*
X548Y217D01*
X548Y218D01*
X547Y218D01*
X547Y219D01*
X546Y219D01*
X546Y245D01*
X548Y245D01*
G37*
D02*
G36*
X587Y239D02*
X587Y232D01*
X583Y232D01*
X583Y233D01*
X584Y233D01*
X584Y237D01*
X583Y237D01*
X583Y238D01*
X582Y238D01*
X582Y239D01*
X587Y239D01*
G37*
D02*
G36*
X531Y233D02*
X531Y232D01*
X532Y232D01*
X532Y231D01*
X533Y231D01*
X533Y230D01*
X527Y230D01*
X527Y229D01*
X525Y229D01*
X525Y230D01*
X524Y230D01*
X524Y231D01*
X523Y231D01*
X523Y232D01*
X522Y232D01*
X522Y233D01*
X531Y233D01*
G37*
D02*
G36*
X586Y232D02*
X586Y231D01*
X575Y231D01*
X575Y232D01*
X586Y232D01*
G37*
D02*
G36*
X586Y232D02*
X586Y231D01*
X575Y231D01*
X575Y232D01*
X586Y232D01*
G37*
D02*
G36*
X585Y231D02*
X585Y230D01*
X584Y230D01*
X584Y229D01*
X577Y229D01*
X577Y230D01*
X575Y230D01*
X575Y231D01*
X585Y231D01*
G37*
D02*
G36*
X533Y230D02*
X533Y202D01*
X534Y202D01*
X534Y201D01*
X535Y201D01*
X535Y200D01*
X536Y200D01*
X536Y199D01*
X537Y199D01*
X537Y198D01*
X538Y198D01*
X538Y196D01*
X539Y196D01*
X539Y195D01*
X540Y195D01*
X540Y194D01*
X541Y194D01*
X541Y193D01*
X543Y193D01*
X543Y192D01*
X544Y192D01*
X544Y191D01*
X545Y191D01*
X545Y190D01*
X546Y190D01*
X546Y189D01*
X547Y189D01*
X547Y188D01*
X548Y188D01*
X548Y187D01*
X549Y187D01*
X549Y186D01*
X550Y186D01*
X550Y185D01*
X551Y185D01*
X551Y183D01*
X552Y183D01*
X552Y182D01*
X553Y182D01*
X553Y181D01*
X554Y181D01*
X554Y180D01*
X556Y180D01*
X556Y179D01*
X557Y179D01*
X557Y178D01*
X558Y178D01*
X558Y177D01*
X559Y177D01*
X559Y176D01*
X560Y176D01*
X560Y175D01*
X561Y175D01*
X561Y174D01*
X562Y174D01*
X562Y173D01*
X563Y173D01*
X563Y172D01*
X564Y172D01*
X564Y170D01*
X565Y170D01*
X565Y169D01*
X566Y169D01*
X566Y168D01*
X567Y168D01*
X567Y167D01*
X569Y167D01*
X569Y166D01*
X570Y166D01*
X570Y165D01*
X571Y165D01*
X571Y164D01*
X572Y164D01*
X572Y163D01*
X573Y163D01*
X573Y162D01*
X570Y162D01*
X570Y163D01*
X569Y163D01*
X569Y164D01*
X567Y164D01*
X567Y165D01*
X566Y165D01*
X566Y166D01*
X565Y166D01*
X565Y167D01*
X564Y167D01*
X564Y168D01*
X563Y168D01*
X563Y169D01*
X562Y169D01*
X562Y170D01*
X561Y170D01*
X561Y172D01*
X560Y172D01*
X560Y173D01*
X559Y173D01*
X559Y174D01*
X558Y174D01*
X558Y175D01*
X557Y175D01*
X557Y176D01*
X556Y176D01*
X556Y177D01*
X554Y177D01*
X554Y178D01*
X553Y178D01*
X553Y179D01*
X552Y179D01*
X552Y180D01*
X551Y180D01*
X551Y181D01*
X550Y181D01*
X550Y182D01*
X549Y182D01*
X549Y183D01*
X548Y183D01*
X548Y185D01*
X547Y185D01*
X547Y186D01*
X546Y186D01*
X546Y187D01*
X545Y187D01*
X545Y188D01*
X544Y188D01*
X544Y189D01*
X543Y189D01*
X543Y190D01*
X541Y190D01*
X541Y191D01*
X540Y191D01*
X540Y192D01*
X539Y192D01*
X539Y193D01*
X538Y193D01*
X538Y194D01*
X537Y194D01*
X537Y195D01*
X536Y195D01*
X536Y196D01*
X535Y196D01*
X535Y198D01*
X534Y198D01*
X534Y199D01*
X533Y199D01*
X533Y200D01*
X532Y200D01*
X532Y201D01*
X531Y201D01*
X531Y229D01*
X530Y229D01*
X530Y230D01*
X533Y230D01*
G37*
D02*
G36*
X513Y216D02*
X513Y215D01*
X514Y215D01*
X514Y214D01*
X511Y214D01*
X511Y213D01*
X510Y213D01*
X510Y212D01*
X508Y212D01*
X508Y213D01*
X507Y213D01*
X507Y214D01*
X506Y214D01*
X506Y215D01*
X505Y215D01*
X505Y216D01*
X513Y216D01*
G37*
D02*
G36*
X515Y214D02*
X515Y198D01*
X517Y198D01*
X517Y196D01*
X518Y196D01*
X518Y195D01*
X519Y195D01*
X519Y194D01*
X520Y194D01*
X520Y193D01*
X521Y193D01*
X521Y192D01*
X522Y192D01*
X522Y191D01*
X523Y191D01*
X523Y190D01*
X524Y190D01*
X524Y189D01*
X525Y189D01*
X525Y188D01*
X526Y188D01*
X526Y187D01*
X527Y187D01*
X527Y186D01*
X528Y186D01*
X528Y185D01*
X530Y185D01*
X530Y183D01*
X531Y183D01*
X531Y182D01*
X532Y182D01*
X532Y181D01*
X533Y181D01*
X533Y180D01*
X534Y180D01*
X534Y179D01*
X535Y179D01*
X535Y178D01*
X536Y178D01*
X536Y177D01*
X537Y177D01*
X537Y176D01*
X538Y176D01*
X538Y175D01*
X539Y175D01*
X539Y174D01*
X540Y174D01*
X540Y173D01*
X541Y173D01*
X541Y163D01*
X543Y163D01*
X543Y162D01*
X544Y162D01*
X544Y161D01*
X545Y161D01*
X545Y160D01*
X536Y160D01*
X536Y157D01*
X535Y157D01*
X535Y156D01*
X536Y156D01*
X536Y154D01*
X532Y154D01*
X532Y160D01*
X533Y160D01*
X533Y161D01*
X534Y161D01*
X534Y162D01*
X535Y162D01*
X535Y163D01*
X537Y163D01*
X537Y164D01*
X538Y164D01*
X538Y173D01*
X537Y173D01*
X537Y174D01*
X536Y174D01*
X536Y175D01*
X535Y175D01*
X535Y176D01*
X534Y176D01*
X534Y177D01*
X533Y177D01*
X533Y178D01*
X532Y178D01*
X532Y179D01*
X531Y179D01*
X531Y180D01*
X530Y180D01*
X530Y181D01*
X528Y181D01*
X528Y182D01*
X527Y182D01*
X527Y183D01*
X526Y183D01*
X526Y185D01*
X525Y185D01*
X525Y186D01*
X524Y186D01*
X524Y187D01*
X523Y187D01*
X523Y188D01*
X522Y188D01*
X522Y189D01*
X521Y189D01*
X521Y190D01*
X520Y190D01*
X520Y191D01*
X519Y191D01*
X519Y192D01*
X518Y192D01*
X518Y193D01*
X517Y193D01*
X517Y194D01*
X515Y194D01*
X515Y195D01*
X514Y195D01*
X514Y196D01*
X513Y196D01*
X513Y198D01*
X512Y198D01*
X512Y214D01*
X515Y214D01*
G37*
D02*
G36*
X570Y206D02*
X570Y205D01*
X566Y205D01*
X566Y206D01*
X570Y206D01*
G37*
D02*
G36*
X572Y205D02*
X572Y204D01*
X561Y204D01*
X561Y205D01*
X572Y205D01*
G37*
D02*
G36*
X572Y205D02*
X572Y204D01*
X561Y204D01*
X561Y205D01*
X572Y205D01*
G37*
D02*
G36*
X573Y204D02*
X573Y203D01*
X574Y203D01*
X574Y202D01*
X565Y202D01*
X565Y196D01*
X562Y196D01*
X562Y198D01*
X561Y198D01*
X561Y201D01*
X562Y201D01*
X562Y204D01*
X573Y204D01*
G37*
D02*
G36*
X574Y202D02*
X574Y201D01*
X575Y201D01*
X575Y198D01*
X574Y198D01*
X574Y196D01*
X571Y196D01*
X571Y202D01*
X574Y202D01*
G37*
D02*
G36*
X496Y199D02*
X496Y198D01*
X497Y198D01*
X497Y196D01*
X494Y196D01*
X494Y195D01*
X492Y195D01*
X492Y196D01*
X491Y196D01*
X491Y198D01*
X489Y198D01*
X489Y199D01*
X496Y199D01*
G37*
D02*
G36*
X574Y196D02*
X574Y195D01*
X562Y195D01*
X562Y196D01*
X574Y196D01*
G37*
D02*
G36*
X574Y196D02*
X574Y195D01*
X562Y195D01*
X562Y196D01*
X574Y196D01*
G37*
D02*
G36*
X498Y196D02*
X498Y195D01*
X499Y195D01*
X499Y194D01*
X500Y194D01*
X500Y193D01*
X501Y193D01*
X501Y192D01*
X502Y192D01*
X502Y191D01*
X504Y191D01*
X504Y190D01*
X505Y190D01*
X505Y189D01*
X506Y189D01*
X506Y188D01*
X507Y188D01*
X507Y187D01*
X504Y187D01*
X504Y188D01*
X502Y188D01*
X502Y189D01*
X501Y189D01*
X501Y190D01*
X500Y190D01*
X500Y191D01*
X499Y191D01*
X499Y192D01*
X498Y192D01*
X498Y193D01*
X497Y193D01*
X497Y194D01*
X496Y194D01*
X496Y195D01*
X495Y195D01*
X495Y196D01*
X498Y196D01*
G37*
D02*
G36*
X573Y195D02*
X573Y194D01*
X572Y194D01*
X572Y193D01*
X570Y193D01*
X570Y192D01*
X566Y192D01*
X566Y193D01*
X564Y193D01*
X564Y194D01*
X563Y194D01*
X563Y195D01*
X573Y195D01*
G37*
D02*
G36*
X511Y188D02*
X511Y187D01*
X509Y187D01*
X509Y188D01*
X511Y188D01*
G37*
D02*
G36*
X514Y187D02*
X514Y186D01*
X505Y186D01*
X505Y187D01*
X514Y187D01*
G37*
D02*
G36*
X514Y187D02*
X514Y186D01*
X505Y186D01*
X505Y187D01*
X514Y187D01*
G37*
D02*
G36*
X515Y186D02*
X515Y185D01*
X517Y185D01*
X517Y183D01*
X508Y183D01*
X508Y182D01*
X507Y182D01*
X507Y179D01*
X508Y179D01*
X508Y178D01*
X509Y178D01*
X509Y177D01*
X505Y177D01*
X505Y178D01*
X504Y178D01*
X504Y183D01*
X505Y183D01*
X505Y186D01*
X515Y186D01*
G37*
D02*
G36*
X481Y185D02*
X481Y183D01*
X482Y183D01*
X482Y182D01*
X483Y182D01*
X483Y181D01*
X478Y181D01*
X478Y180D01*
X476Y180D01*
X476Y181D01*
X475Y181D01*
X475Y182D01*
X474Y182D01*
X474Y183D01*
X473Y183D01*
X473Y185D01*
X481Y185D01*
G37*
D02*
G36*
X517Y183D02*
X517Y181D01*
X518Y181D01*
X518Y180D01*
X517Y180D01*
X517Y177D01*
X511Y177D01*
X511Y178D01*
X513Y178D01*
X513Y182D01*
X512Y182D01*
X512Y183D01*
X517Y183D01*
G37*
D02*
G36*
X484Y181D02*
X484Y180D01*
X485Y180D01*
X485Y179D01*
X486Y179D01*
X486Y178D01*
X487Y178D01*
X487Y177D01*
X488Y177D01*
X488Y176D01*
X489Y176D01*
X489Y175D01*
X491Y175D01*
X491Y174D01*
X492Y174D01*
X492Y173D01*
X493Y173D01*
X493Y172D01*
X494Y172D01*
X494Y170D01*
X495Y170D01*
X495Y169D01*
X496Y169D01*
X496Y168D01*
X497Y168D01*
X497Y167D01*
X498Y167D01*
X498Y166D01*
X499Y166D01*
X499Y165D01*
X495Y165D01*
X495Y166D01*
X494Y166D01*
X494Y167D01*
X493Y167D01*
X493Y168D01*
X492Y168D01*
X492Y169D01*
X491Y169D01*
X491Y170D01*
X489Y170D01*
X489Y172D01*
X488Y172D01*
X488Y173D01*
X487Y173D01*
X487Y174D01*
X486Y174D01*
X486Y175D01*
X485Y175D01*
X485Y176D01*
X484Y176D01*
X484Y177D01*
X483Y177D01*
X483Y178D01*
X482Y178D01*
X482Y179D01*
X481Y179D01*
X481Y180D01*
X480Y180D01*
X480Y181D01*
X484Y181D01*
G37*
D02*
G36*
X515Y177D02*
X515Y176D01*
X505Y176D01*
X505Y177D01*
X515Y177D01*
G37*
D02*
G36*
X515Y177D02*
X515Y176D01*
X505Y176D01*
X505Y177D01*
X515Y177D01*
G37*
D02*
G36*
X514Y176D02*
X514Y175D01*
X512Y175D01*
X512Y174D01*
X508Y174D01*
X508Y175D01*
X506Y175D01*
X506Y176D01*
X514Y176D01*
G37*
D02*
G36*
X505Y166D02*
X505Y165D01*
X500Y165D01*
X500Y166D01*
X505Y166D01*
G37*
D02*
G36*
X506Y165D02*
X506Y164D01*
X496Y164D01*
X496Y165D01*
X506Y165D01*
G37*
D02*
G36*
X506Y165D02*
X506Y164D01*
X496Y164D01*
X496Y165D01*
X506Y165D01*
G37*
D02*
G36*
X507Y164D02*
X507Y163D01*
X501Y163D01*
X501Y162D01*
X499Y162D01*
X499Y156D01*
X496Y156D01*
X496Y157D01*
X495Y157D01*
X495Y161D01*
X496Y161D01*
X496Y163D01*
X497Y163D01*
X497Y164D01*
X507Y164D01*
G37*
D02*
G36*
X578Y163D02*
X578Y162D01*
X576Y162D01*
X576Y163D01*
X578Y163D01*
G37*
D02*
G36*
X508Y163D02*
X508Y162D01*
X509Y162D01*
X509Y156D01*
X505Y156D01*
X505Y159D01*
X506Y159D01*
X506Y161D01*
X505Y161D01*
X505Y162D01*
X502Y162D01*
X502Y163D01*
X508Y163D01*
G37*
D02*
G36*
X582Y162D02*
X582Y161D01*
X571Y161D01*
X571Y162D01*
X582Y162D01*
G37*
D02*
G36*
X582Y162D02*
X582Y161D01*
X571Y161D01*
X571Y162D01*
X582Y162D01*
G37*
D02*
G36*
X583Y161D02*
X583Y159D01*
X575Y159D01*
X575Y157D01*
X574Y157D01*
X574Y154D01*
X575Y154D01*
X575Y153D01*
X576Y153D01*
X576Y152D01*
X572Y152D01*
X572Y153D01*
X571Y153D01*
X571Y159D01*
X572Y159D01*
X572Y161D01*
X583Y161D01*
G37*
D02*
G36*
X545Y160D02*
X545Y159D01*
X546Y159D01*
X546Y155D01*
X545Y155D01*
X545Y154D01*
X541Y154D01*
X541Y160D01*
X545Y160D01*
G37*
D02*
G36*
X584Y159D02*
X584Y152D01*
X578Y152D01*
X578Y153D01*
X580Y153D01*
X580Y157D01*
X579Y157D01*
X579Y159D01*
X584Y159D01*
G37*
D02*
G36*
X508Y156D02*
X508Y155D01*
X496Y155D01*
X496Y156D01*
X508Y156D01*
G37*
D02*
G36*
X508Y156D02*
X508Y155D01*
X496Y155D01*
X496Y156D01*
X508Y156D01*
G37*
D02*
G36*
X507Y155D02*
X507Y154D01*
X506Y154D01*
X506Y153D01*
X504Y153D01*
X504Y152D01*
X500Y152D01*
X500Y153D01*
X498Y153D01*
X498Y154D01*
X497Y154D01*
X497Y155D01*
X507Y155D01*
G37*
D02*
G36*
X545Y154D02*
X545Y153D01*
X533Y153D01*
X533Y154D01*
X545Y154D01*
G37*
D02*
G36*
X545Y154D02*
X545Y153D01*
X533Y153D01*
X533Y154D01*
X545Y154D01*
G37*
D02*
G36*
X544Y153D02*
X544Y152D01*
X543Y152D01*
X543Y151D01*
X540Y151D01*
X540Y150D01*
X537Y150D01*
X537Y151D01*
X535Y151D01*
X535Y152D01*
X534Y152D01*
X534Y153D01*
X544Y153D01*
G37*
D02*
G36*
X583Y152D02*
X583Y151D01*
X572Y151D01*
X572Y152D01*
X583Y152D01*
G37*
D02*
G36*
X583Y152D02*
X583Y151D01*
X572Y151D01*
X572Y152D01*
X583Y152D01*
G37*
D02*
G36*
X582Y151D02*
X582Y150D01*
X579Y150D01*
X579Y149D01*
X575Y149D01*
X575Y150D01*
X573Y150D01*
X573Y151D01*
X582Y151D01*
G37*
D02*
G36*
X608Y135D02*
X608Y134D01*
X405Y134D01*
X405Y135D01*
X608Y135D01*
G37*
D02*
G36*
X608Y135D02*
X608Y134D01*
X405Y134D01*
X405Y135D01*
X608Y135D01*
G37*
D02*
G36*
X608Y134D02*
X608Y133D01*
X606Y133D01*
X606Y131D01*
X605Y131D01*
X605Y130D01*
X604Y130D01*
X604Y129D01*
X603Y129D01*
X603Y128D01*
X601Y128D01*
X601Y127D01*
X600Y127D01*
X600Y126D01*
X598Y126D01*
X598Y125D01*
X596Y125D01*
X596Y124D01*
X592Y124D01*
X592Y123D01*
X402Y123D01*
X402Y124D01*
X398Y124D01*
X398Y125D01*
X396Y125D01*
X396Y126D01*
X397Y126D01*
X397Y127D01*
X398Y127D01*
X398Y128D01*
X400Y128D01*
X400Y129D01*
X401Y129D01*
X401Y130D01*
X402Y130D01*
X402Y131D01*
X403Y131D01*
X403Y133D01*
X404Y133D01*
X404Y134D01*
X608Y134D01*
G37*
D02*
G54D10*
X0Y457D02*
X652Y457D01*
X0Y456D02*
X652Y456D01*
X0Y455D02*
X652Y455D01*
X0Y454D02*
X652Y454D01*
X0Y453D02*
X652Y453D01*
X0Y452D02*
X652Y452D01*
X0Y451D02*
X652Y451D01*
X0Y450D02*
X652Y450D01*
X0Y449D02*
X7Y449D01*
X645Y449D02*
X652Y449D01*
X0Y448D02*
X7Y448D01*
X645Y448D02*
X652Y448D01*
X0Y447D02*
X7Y447D01*
X645Y447D02*
X652Y447D01*
X0Y446D02*
X7Y446D01*
X645Y446D02*
X652Y446D01*
X0Y445D02*
X7Y445D01*
X645Y445D02*
X652Y445D01*
X0Y444D02*
X7Y444D01*
X645Y444D02*
X652Y444D01*
X0Y443D02*
X7Y443D01*
X645Y443D02*
X652Y443D01*
X0Y442D02*
X7Y442D01*
X645Y442D02*
X652Y442D01*
X0Y441D02*
X7Y441D01*
X645Y441D02*
X652Y441D01*
X0Y440D02*
X7Y440D01*
X645Y440D02*
X652Y440D01*
X0Y439D02*
X7Y439D01*
X645Y439D02*
X652Y439D01*
X0Y438D02*
X7Y438D01*
X645Y438D02*
X652Y438D01*
X0Y437D02*
X7Y437D01*
X645Y437D02*
X652Y437D01*
X0Y436D02*
X7Y436D01*
X645Y436D02*
X652Y436D01*
X0Y435D02*
X7Y435D01*
X645Y435D02*
X652Y435D01*
X0Y434D02*
X7Y434D01*
X645Y434D02*
X652Y434D01*
X0Y433D02*
X7Y433D01*
X645Y433D02*
X652Y433D01*
X0Y432D02*
X7Y432D01*
X645Y432D02*
X652Y432D01*
X0Y431D02*
X7Y431D01*
X645Y431D02*
X652Y431D01*
X0Y430D02*
X7Y430D01*
X645Y430D02*
X652Y430D01*
X0Y429D02*
X7Y429D01*
X645Y429D02*
X652Y429D01*
X0Y428D02*
X7Y428D01*
X645Y428D02*
X652Y428D01*
X0Y427D02*
X7Y427D01*
X645Y427D02*
X652Y427D01*
X0Y426D02*
X7Y426D01*
X645Y426D02*
X652Y426D01*
X0Y425D02*
X7Y425D01*
X645Y425D02*
X652Y425D01*
X0Y424D02*
X7Y424D01*
X645Y424D02*
X652Y424D01*
X0Y423D02*
X7Y423D01*
X645Y423D02*
X652Y423D01*
X0Y422D02*
X7Y422D01*
X645Y422D02*
X652Y422D01*
X0Y421D02*
X7Y421D01*
X645Y421D02*
X652Y421D01*
X0Y420D02*
X7Y420D01*
X645Y420D02*
X652Y420D01*
X0Y419D02*
X7Y419D01*
X645Y419D02*
X652Y419D01*
X0Y418D02*
X7Y418D01*
X645Y418D02*
X652Y418D01*
X0Y417D02*
X7Y417D01*
X645Y417D02*
X652Y417D01*
X0Y416D02*
X7Y416D01*
X645Y416D02*
X652Y416D01*
X0Y415D02*
X7Y415D01*
X645Y415D02*
X652Y415D01*
X0Y414D02*
X7Y414D01*
X645Y414D02*
X652Y414D01*
X0Y413D02*
X7Y413D01*
X645Y413D02*
X652Y413D01*
X0Y412D02*
X7Y412D01*
X645Y412D02*
X652Y412D01*
X0Y411D02*
X7Y411D01*
X645Y411D02*
X652Y411D01*
X0Y410D02*
X7Y410D01*
X645Y410D02*
X652Y410D01*
X0Y409D02*
X7Y409D01*
X645Y409D02*
X652Y409D01*
X0Y408D02*
X7Y408D01*
X645Y408D02*
X652Y408D01*
X0Y407D02*
X7Y407D01*
X645Y407D02*
X652Y407D01*
X0Y406D02*
X7Y406D01*
X645Y406D02*
X652Y406D01*
X0Y405D02*
X7Y405D01*
X645Y405D02*
X652Y405D01*
X0Y404D02*
X7Y404D01*
X645Y404D02*
X652Y404D01*
X0Y403D02*
X7Y403D01*
X645Y403D02*
X652Y403D01*
X0Y402D02*
X7Y402D01*
X645Y402D02*
X652Y402D01*
X0Y401D02*
X7Y401D01*
X645Y401D02*
X652Y401D01*
X0Y400D02*
X7Y400D01*
X645Y400D02*
X652Y400D01*
X0Y399D02*
X7Y399D01*
X645Y399D02*
X652Y399D01*
X0Y398D02*
X7Y398D01*
X645Y398D02*
X652Y398D01*
X0Y397D02*
X7Y397D01*
X645Y397D02*
X652Y397D01*
X0Y396D02*
X7Y396D01*
X645Y396D02*
X652Y396D01*
X0Y395D02*
X7Y395D01*
X645Y395D02*
X652Y395D01*
X0Y394D02*
X7Y394D01*
X645Y394D02*
X652Y394D01*
X0Y393D02*
X7Y393D01*
X645Y393D02*
X652Y393D01*
X0Y392D02*
X7Y392D01*
X645Y392D02*
X652Y392D01*
X0Y391D02*
X7Y391D01*
X645Y391D02*
X652Y391D01*
X0Y390D02*
X7Y390D01*
X645Y390D02*
X652Y390D01*
X0Y389D02*
X7Y389D01*
X645Y389D02*
X652Y389D01*
X0Y388D02*
X7Y388D01*
X645Y388D02*
X652Y388D01*
X0Y387D02*
X7Y387D01*
X645Y387D02*
X652Y387D01*
X0Y386D02*
X7Y386D01*
X645Y386D02*
X652Y386D01*
X0Y385D02*
X7Y385D01*
X645Y385D02*
X652Y385D01*
X0Y384D02*
X7Y384D01*
X645Y384D02*
X652Y384D01*
X0Y383D02*
X7Y383D01*
X645Y383D02*
X652Y383D01*
X0Y382D02*
X7Y382D01*
X645Y382D02*
X652Y382D01*
X0Y381D02*
X7Y381D01*
X645Y381D02*
X652Y381D01*
X0Y380D02*
X7Y380D01*
X645Y380D02*
X652Y380D01*
X0Y379D02*
X7Y379D01*
X645Y379D02*
X652Y379D01*
X0Y378D02*
X7Y378D01*
X645Y378D02*
X652Y378D01*
X0Y377D02*
X7Y377D01*
X645Y377D02*
X652Y377D01*
X0Y376D02*
X7Y376D01*
X645Y376D02*
X652Y376D01*
X0Y375D02*
X7Y375D01*
X645Y375D02*
X652Y375D01*
X0Y374D02*
X7Y374D01*
X645Y374D02*
X652Y374D01*
X0Y373D02*
X7Y373D01*
X645Y373D02*
X652Y373D01*
X0Y372D02*
X7Y372D01*
X645Y372D02*
X652Y372D01*
X0Y371D02*
X7Y371D01*
X645Y371D02*
X652Y371D01*
X0Y370D02*
X7Y370D01*
X645Y370D02*
X652Y370D01*
X0Y369D02*
X7Y369D01*
X645Y369D02*
X652Y369D01*
X0Y368D02*
X7Y368D01*
X645Y368D02*
X652Y368D01*
X0Y367D02*
X7Y367D01*
X645Y367D02*
X652Y367D01*
X0Y366D02*
X7Y366D01*
X645Y366D02*
X652Y366D01*
X0Y365D02*
X7Y365D01*
X645Y365D02*
X652Y365D01*
X0Y364D02*
X7Y364D01*
X645Y364D02*
X652Y364D01*
X0Y363D02*
X7Y363D01*
X645Y363D02*
X652Y363D01*
X0Y362D02*
X7Y362D01*
X645Y362D02*
X652Y362D01*
X0Y361D02*
X7Y361D01*
X645Y361D02*
X652Y361D01*
X0Y360D02*
X7Y360D01*
X645Y360D02*
X652Y360D01*
X0Y359D02*
X7Y359D01*
X224Y359D02*
X227Y359D01*
X645Y359D02*
X652Y359D01*
X0Y358D02*
X7Y358D01*
X33Y358D02*
X40Y358D01*
X71Y358D02*
X82Y358D01*
X112Y358D02*
X114Y358D01*
X124Y358D02*
X125Y358D01*
X155Y358D02*
X156Y358D01*
X182Y358D02*
X188Y358D01*
X224Y358D02*
X228Y358D01*
X252Y358D02*
X253Y358D01*
X304Y358D02*
X305Y358D01*
X315Y358D02*
X316Y358D01*
X324Y358D02*
X328Y358D01*
X335Y358D02*
X338Y358D01*
X346Y358D02*
X359Y358D01*
X645Y358D02*
X652Y358D01*
X0Y357D02*
X7Y357D01*
X33Y357D02*
X41Y357D01*
X70Y357D02*
X83Y357D01*
X112Y357D02*
X114Y357D01*
X124Y357D02*
X126Y357D01*
X155Y357D02*
X156Y357D01*
X182Y357D02*
X188Y357D01*
X224Y357D02*
X227Y357D01*
X251Y357D02*
X253Y357D01*
X303Y357D02*
X305Y357D01*
X315Y357D02*
X317Y357D01*
X324Y357D02*
X328Y357D01*
X334Y357D02*
X338Y357D01*
X346Y357D02*
X359Y357D01*
X404Y357D02*
X587Y357D01*
X645Y357D02*
X652Y357D01*
X0Y356D02*
X7Y356D01*
X33Y356D02*
X40Y356D01*
X70Y356D02*
X83Y356D01*
X112Y356D02*
X114Y356D01*
X124Y356D02*
X126Y356D01*
X154Y356D02*
X156Y356D01*
X182Y356D02*
X187Y356D01*
X225Y356D02*
X227Y356D01*
X251Y356D02*
X253Y356D01*
X303Y356D02*
X305Y356D01*
X315Y356D02*
X317Y356D01*
X324Y356D02*
X329Y356D01*
X334Y356D02*
X338Y356D01*
X346Y356D02*
X359Y356D01*
X400Y356D02*
X592Y356D01*
X645Y356D02*
X652Y356D01*
X0Y355D02*
X7Y355D01*
X33Y355D02*
X35Y355D01*
X70Y355D02*
X72Y355D01*
X81Y355D02*
X83Y355D01*
X112Y355D02*
X114Y355D01*
X124Y355D02*
X126Y355D01*
X154Y355D02*
X156Y355D01*
X182Y355D02*
X184Y355D01*
X251Y355D02*
X253Y355D01*
X303Y355D02*
X305Y355D01*
X315Y355D02*
X317Y355D01*
X324Y355D02*
X330Y355D01*
X333Y355D02*
X338Y355D01*
X352Y355D02*
X354Y355D01*
X397Y355D02*
X594Y355D01*
X645Y355D02*
X652Y355D01*
X0Y354D02*
X7Y354D01*
X33Y354D02*
X35Y354D01*
X70Y354D02*
X72Y354D01*
X81Y354D02*
X83Y354D01*
X112Y354D02*
X114Y354D01*
X124Y354D02*
X126Y354D01*
X154Y354D02*
X156Y354D01*
X182Y354D02*
X184Y354D01*
X251Y354D02*
X253Y354D01*
X303Y354D02*
X305Y354D01*
X315Y354D02*
X317Y354D01*
X324Y354D02*
X330Y354D01*
X332Y354D02*
X338Y354D01*
X352Y354D02*
X354Y354D01*
X395Y354D02*
X595Y354D01*
X645Y354D02*
X652Y354D01*
X0Y353D02*
X7Y353D01*
X33Y353D02*
X35Y353D01*
X70Y353D02*
X72Y353D01*
X81Y353D02*
X83Y353D01*
X112Y353D02*
X114Y353D01*
X124Y353D02*
X126Y353D01*
X154Y353D02*
X156Y353D01*
X182Y353D02*
X184Y353D01*
X251Y353D02*
X253Y353D01*
X303Y353D02*
X305Y353D01*
X315Y353D02*
X317Y353D01*
X324Y353D02*
X326Y353D01*
X329Y353D02*
X334Y353D01*
X336Y353D02*
X338Y353D01*
X352Y353D02*
X354Y353D01*
X393Y353D02*
X594Y353D01*
X645Y353D02*
X652Y353D01*
X0Y352D02*
X7Y352D01*
X33Y352D02*
X35Y352D01*
X70Y352D02*
X72Y352D01*
X81Y352D02*
X83Y352D01*
X112Y352D02*
X114Y352D01*
X124Y352D02*
X126Y352D01*
X154Y352D02*
X156Y352D01*
X160Y352D02*
X164Y352D01*
X182Y352D02*
X184Y352D01*
X201Y352D02*
X207Y352D01*
X225Y352D02*
X230Y352D01*
X242Y352D02*
X247Y352D01*
X251Y352D02*
X253Y352D01*
X263Y352D02*
X272Y352D01*
X303Y352D02*
X305Y352D01*
X315Y352D02*
X317Y352D01*
X324Y352D02*
X326Y352D01*
X329Y352D02*
X333Y352D01*
X336Y352D02*
X338Y352D01*
X352Y352D02*
X354Y352D01*
X392Y352D02*
X593Y352D01*
X645Y352D02*
X652Y352D01*
X0Y351D02*
X7Y351D01*
X33Y351D02*
X35Y351D01*
X70Y351D02*
X72Y351D01*
X81Y351D02*
X83Y351D01*
X112Y351D02*
X115Y351D01*
X123Y351D02*
X125Y351D01*
X154Y351D02*
X166Y351D01*
X182Y351D02*
X184Y351D01*
X199Y351D02*
X208Y351D01*
X224Y351D02*
X230Y351D01*
X241Y351D02*
X248Y351D01*
X251Y351D02*
X253Y351D01*
X262Y351D02*
X273Y351D01*
X303Y351D02*
X305Y351D01*
X315Y351D02*
X317Y351D01*
X324Y351D02*
X326Y351D01*
X330Y351D02*
X333Y351D01*
X336Y351D02*
X338Y351D01*
X352Y351D02*
X354Y351D01*
X390Y351D02*
X592Y351D01*
X645Y351D02*
X652Y351D01*
X0Y350D02*
X7Y350D01*
X33Y350D02*
X35Y350D01*
X70Y350D02*
X72Y350D01*
X81Y350D02*
X83Y350D01*
X113Y350D02*
X115Y350D01*
X123Y350D02*
X125Y350D01*
X154Y350D02*
X167Y350D01*
X182Y350D02*
X184Y350D01*
X198Y350D02*
X209Y350D01*
X224Y350D02*
X230Y350D01*
X240Y350D02*
X253Y350D01*
X261Y350D02*
X274Y350D01*
X303Y350D02*
X305Y350D01*
X315Y350D02*
X317Y350D01*
X324Y350D02*
X326Y350D01*
X330Y350D02*
X332Y350D01*
X336Y350D02*
X338Y350D01*
X352Y350D02*
X354Y350D01*
X389Y350D02*
X591Y350D01*
X645Y350D02*
X652Y350D01*
X0Y349D02*
X7Y349D01*
X33Y349D02*
X35Y349D01*
X70Y349D02*
X72Y349D01*
X81Y349D02*
X83Y349D01*
X113Y349D02*
X115Y349D01*
X122Y349D02*
X125Y349D01*
X154Y349D02*
X160Y349D01*
X165Y349D02*
X168Y349D01*
X182Y349D02*
X184Y349D01*
X197Y349D02*
X200Y349D01*
X207Y349D02*
X210Y349D01*
X224Y349D02*
X226Y349D01*
X240Y349D02*
X242Y349D01*
X247Y349D02*
X253Y349D01*
X261Y349D02*
X263Y349D01*
X272Y349D02*
X274Y349D01*
X303Y349D02*
X305Y349D01*
X315Y349D02*
X317Y349D01*
X324Y349D02*
X326Y349D01*
X331Y349D02*
X332Y349D01*
X336Y349D02*
X338Y349D01*
X352Y349D02*
X354Y349D01*
X388Y349D02*
X590Y349D01*
X645Y349D02*
X652Y349D01*
X0Y348D02*
X7Y348D01*
X33Y348D02*
X35Y348D01*
X70Y348D02*
X72Y348D01*
X81Y348D02*
X83Y348D01*
X114Y348D02*
X116Y348D01*
X122Y348D02*
X124Y348D01*
X154Y348D02*
X158Y348D01*
X166Y348D02*
X168Y348D01*
X182Y348D02*
X184Y348D01*
X197Y348D02*
X199Y348D01*
X208Y348D02*
X211Y348D01*
X224Y348D02*
X226Y348D01*
X240Y348D02*
X242Y348D01*
X249Y348D02*
X253Y348D01*
X272Y348D02*
X274Y348D01*
X303Y348D02*
X305Y348D01*
X315Y348D02*
X317Y348D01*
X324Y348D02*
X326Y348D01*
X336Y348D02*
X338Y348D01*
X352Y348D02*
X354Y348D01*
X387Y348D02*
X589Y348D01*
X645Y348D02*
X652Y348D01*
X0Y347D02*
X7Y347D01*
X33Y347D02*
X35Y347D01*
X70Y347D02*
X72Y347D01*
X81Y347D02*
X83Y347D01*
X114Y347D02*
X116Y347D01*
X122Y347D02*
X124Y347D01*
X154Y347D02*
X157Y347D01*
X166Y347D02*
X168Y347D01*
X182Y347D02*
X184Y347D01*
X197Y347D02*
X199Y347D01*
X209Y347D02*
X211Y347D01*
X224Y347D02*
X226Y347D01*
X240Y347D02*
X242Y347D01*
X250Y347D02*
X253Y347D01*
X270Y347D02*
X274Y347D01*
X303Y347D02*
X305Y347D01*
X315Y347D02*
X317Y347D01*
X324Y347D02*
X326Y347D01*
X336Y347D02*
X338Y347D01*
X352Y347D02*
X354Y347D01*
X386Y347D02*
X588Y347D01*
X645Y347D02*
X652Y347D01*
X0Y346D02*
X7Y346D01*
X28Y346D02*
X28Y346D01*
X33Y346D02*
X35Y346D01*
X70Y346D02*
X72Y346D01*
X81Y346D02*
X83Y346D01*
X114Y346D02*
X117Y346D01*
X121Y346D02*
X123Y346D01*
X154Y346D02*
X157Y346D01*
X166Y346D02*
X168Y346D01*
X182Y346D02*
X184Y346D01*
X197Y346D02*
X199Y346D01*
X209Y346D02*
X211Y346D01*
X224Y346D02*
X226Y346D01*
X240Y346D02*
X242Y346D01*
X251Y346D02*
X253Y346D01*
X267Y346D02*
X273Y346D01*
X303Y346D02*
X305Y346D01*
X315Y346D02*
X317Y346D01*
X324Y346D02*
X326Y346D01*
X336Y346D02*
X338Y346D01*
X352Y346D02*
X354Y346D01*
X385Y346D02*
X587Y346D01*
X645Y346D02*
X652Y346D01*
X0Y345D02*
X7Y345D01*
X27Y345D02*
X29Y345D01*
X33Y345D02*
X35Y345D01*
X70Y345D02*
X72Y345D01*
X81Y345D02*
X83Y345D01*
X115Y345D02*
X117Y345D01*
X121Y345D02*
X123Y345D01*
X154Y345D02*
X156Y345D01*
X166Y345D02*
X168Y345D01*
X182Y345D02*
X184Y345D01*
X197Y345D02*
X199Y345D01*
X208Y345D02*
X211Y345D01*
X224Y345D02*
X226Y345D01*
X240Y345D02*
X242Y345D01*
X251Y345D02*
X253Y345D01*
X265Y345D02*
X271Y345D01*
X303Y345D02*
X305Y345D01*
X315Y345D02*
X317Y345D01*
X324Y345D02*
X326Y345D01*
X336Y345D02*
X338Y345D01*
X352Y345D02*
X354Y345D01*
X385Y345D02*
X413Y345D01*
X645Y345D02*
X652Y345D01*
X0Y344D02*
X7Y344D01*
X27Y344D02*
X29Y344D01*
X33Y344D02*
X35Y344D01*
X53Y344D02*
X57Y344D01*
X70Y344D02*
X72Y344D01*
X81Y344D02*
X83Y344D01*
X95Y344D02*
X100Y344D01*
X115Y344D02*
X117Y344D01*
X120Y344D02*
X123Y344D01*
X154Y344D02*
X156Y344D01*
X166Y344D02*
X168Y344D01*
X182Y344D02*
X184Y344D01*
X197Y344D02*
X211Y344D01*
X224Y344D02*
X226Y344D01*
X240Y344D02*
X242Y344D01*
X251Y344D02*
X253Y344D01*
X263Y344D02*
X269Y344D01*
X303Y344D02*
X305Y344D01*
X315Y344D02*
X317Y344D01*
X324Y344D02*
X326Y344D01*
X336Y344D02*
X338Y344D01*
X352Y344D02*
X354Y344D01*
X384Y344D02*
X408Y344D01*
X645Y344D02*
X652Y344D01*
X0Y343D02*
X7Y343D01*
X27Y343D02*
X29Y343D01*
X33Y343D02*
X35Y343D01*
X53Y343D02*
X58Y343D01*
X70Y343D02*
X72Y343D01*
X81Y343D02*
X83Y343D01*
X95Y343D02*
X100Y343D01*
X115Y343D02*
X118Y343D01*
X120Y343D02*
X122Y343D01*
X154Y343D02*
X156Y343D01*
X166Y343D02*
X168Y343D01*
X182Y343D02*
X184Y343D01*
X197Y343D02*
X211Y343D01*
X224Y343D02*
X226Y343D01*
X240Y343D02*
X242Y343D01*
X251Y343D02*
X253Y343D01*
X262Y343D02*
X267Y343D01*
X303Y343D02*
X305Y343D01*
X315Y343D02*
X317Y343D01*
X324Y343D02*
X326Y343D01*
X336Y343D02*
X338Y343D01*
X352Y343D02*
X354Y343D01*
X383Y343D02*
X406Y343D01*
X645Y343D02*
X652Y343D01*
X0Y342D02*
X7Y342D01*
X27Y342D02*
X29Y342D01*
X33Y342D02*
X35Y342D01*
X53Y342D02*
X58Y342D01*
X70Y342D02*
X72Y342D01*
X81Y342D02*
X83Y342D01*
X95Y342D02*
X100Y342D01*
X116Y342D02*
X118Y342D01*
X120Y342D02*
X122Y342D01*
X154Y342D02*
X157Y342D01*
X166Y342D02*
X168Y342D01*
X182Y342D02*
X184Y342D01*
X198Y342D02*
X211Y342D01*
X224Y342D02*
X226Y342D01*
X240Y342D02*
X242Y342D01*
X251Y342D02*
X253Y342D01*
X261Y342D02*
X265Y342D01*
X303Y342D02*
X305Y342D01*
X315Y342D02*
X317Y342D01*
X324Y342D02*
X326Y342D01*
X336Y342D02*
X338Y342D01*
X352Y342D02*
X354Y342D01*
X383Y342D02*
X404Y342D01*
X645Y342D02*
X652Y342D01*
X0Y341D02*
X7Y341D01*
X27Y341D02*
X29Y341D01*
X33Y341D02*
X35Y341D01*
X53Y341D02*
X58Y341D01*
X70Y341D02*
X72Y341D01*
X81Y341D02*
X83Y341D01*
X95Y341D02*
X100Y341D01*
X116Y341D02*
X121Y341D01*
X154Y341D02*
X157Y341D01*
X166Y341D02*
X168Y341D01*
X182Y341D02*
X184Y341D01*
X209Y341D02*
X211Y341D01*
X224Y341D02*
X226Y341D01*
X240Y341D02*
X242Y341D01*
X251Y341D02*
X253Y341D01*
X261Y341D02*
X263Y341D01*
X303Y341D02*
X305Y341D01*
X315Y341D02*
X317Y341D01*
X324Y341D02*
X326Y341D01*
X336Y341D02*
X338Y341D01*
X352Y341D02*
X354Y341D01*
X382Y341D02*
X401Y341D01*
X645Y341D02*
X652Y341D01*
X0Y340D02*
X7Y340D01*
X27Y340D02*
X29Y340D01*
X33Y340D02*
X35Y340D01*
X53Y340D02*
X57Y340D01*
X70Y340D02*
X72Y340D01*
X81Y340D02*
X83Y340D01*
X96Y340D02*
X100Y340D01*
X117Y340D02*
X121Y340D01*
X154Y340D02*
X158Y340D01*
X166Y340D02*
X168Y340D01*
X182Y340D02*
X184Y340D01*
X208Y340D02*
X210Y340D01*
X224Y340D02*
X226Y340D01*
X240Y340D02*
X242Y340D01*
X251Y340D02*
X253Y340D01*
X261Y340D02*
X263Y340D01*
X303Y340D02*
X305Y340D01*
X315Y340D02*
X317Y340D01*
X324Y340D02*
X326Y340D01*
X336Y340D02*
X338Y340D01*
X352Y340D02*
X354Y340D01*
X382Y340D02*
X400Y340D01*
X609Y340D02*
X609Y340D01*
X645Y340D02*
X652Y340D01*
X0Y339D02*
X7Y339D01*
X27Y339D02*
X29Y339D01*
X33Y339D02*
X35Y339D01*
X70Y339D02*
X72Y339D01*
X81Y339D02*
X83Y339D01*
X117Y339D02*
X121Y339D01*
X154Y339D02*
X160Y339D01*
X165Y339D02*
X168Y339D01*
X182Y339D02*
X184Y339D01*
X207Y339D02*
X210Y339D01*
X224Y339D02*
X226Y339D01*
X240Y339D02*
X242Y339D01*
X251Y339D02*
X253Y339D01*
X261Y339D02*
X263Y339D01*
X272Y339D02*
X274Y339D01*
X303Y339D02*
X306Y339D01*
X314Y339D02*
X317Y339D01*
X324Y339D02*
X326Y339D01*
X336Y339D02*
X338Y339D01*
X351Y339D02*
X354Y339D01*
X381Y339D02*
X399Y339D01*
X608Y339D02*
X610Y339D01*
X645Y339D02*
X652Y339D01*
X0Y338D02*
X7Y338D01*
X27Y338D02*
X40Y338D01*
X70Y338D02*
X83Y338D01*
X117Y338D02*
X120Y338D01*
X154Y338D02*
X167Y338D01*
X178Y338D02*
X188Y338D01*
X197Y338D02*
X209Y338D01*
X220Y338D02*
X230Y338D01*
X240Y338D02*
X241Y338D01*
X251Y338D02*
X253Y338D01*
X261Y338D02*
X274Y338D01*
X304Y338D02*
X316Y338D01*
X324Y338D02*
X326Y338D01*
X336Y338D02*
X338Y338D01*
X346Y338D02*
X359Y338D01*
X381Y338D02*
X398Y338D01*
X607Y338D02*
X610Y338D01*
X645Y338D02*
X652Y338D01*
X0Y337D02*
X7Y337D01*
X27Y337D02*
X41Y337D01*
X70Y337D02*
X83Y337D01*
X118Y337D02*
X120Y337D01*
X155Y337D02*
X156Y337D01*
X158Y337D02*
X166Y337D01*
X177Y337D02*
X188Y337D01*
X197Y337D02*
X208Y337D01*
X220Y337D02*
X230Y337D01*
X240Y337D02*
X241Y337D01*
X251Y337D02*
X253Y337D01*
X262Y337D02*
X273Y337D01*
X305Y337D02*
X316Y337D01*
X325Y337D02*
X326Y337D01*
X336Y337D02*
X338Y337D01*
X346Y337D02*
X359Y337D01*
X381Y337D02*
X397Y337D01*
X606Y337D02*
X611Y337D01*
X645Y337D02*
X652Y337D01*
X0Y336D02*
X7Y336D01*
X28Y336D02*
X40Y336D01*
X71Y336D02*
X81Y336D01*
X119Y336D02*
X119Y336D01*
X155Y336D02*
X156Y336D01*
X160Y336D02*
X164Y336D01*
X178Y336D02*
X187Y336D01*
X198Y336D02*
X207Y336D01*
X220Y336D02*
X230Y336D01*
X240Y336D02*
X241Y336D01*
X252Y336D02*
X252Y336D01*
X264Y336D02*
X272Y336D01*
X306Y336D02*
X314Y336D01*
X325Y336D02*
X326Y336D01*
X337Y336D02*
X337Y336D01*
X346Y336D02*
X359Y336D01*
X380Y336D02*
X396Y336D01*
X605Y336D02*
X611Y336D01*
X645Y336D02*
X652Y336D01*
X0Y335D02*
X7Y335D01*
X380Y335D02*
X395Y335D01*
X604Y335D02*
X611Y335D01*
X645Y335D02*
X652Y335D01*
X0Y334D02*
X7Y334D01*
X380Y334D02*
X395Y334D01*
X603Y334D02*
X611Y334D01*
X645Y334D02*
X652Y334D01*
X0Y333D02*
X7Y333D01*
X380Y333D02*
X395Y333D01*
X602Y333D02*
X611Y333D01*
X645Y333D02*
X652Y333D01*
X0Y332D02*
X7Y332D01*
X380Y332D02*
X394Y332D01*
X601Y332D02*
X612Y332D01*
X645Y332D02*
X652Y332D01*
X0Y331D02*
X7Y331D01*
X380Y331D02*
X393Y331D01*
X600Y331D02*
X613Y331D01*
X645Y331D02*
X652Y331D01*
X0Y330D02*
X7Y330D01*
X380Y330D02*
X393Y330D01*
X599Y330D02*
X613Y330D01*
X645Y330D02*
X652Y330D01*
X0Y329D02*
X7Y329D01*
X380Y329D02*
X392Y329D01*
X598Y329D02*
X613Y329D01*
X645Y329D02*
X652Y329D01*
X0Y328D02*
X7Y328D01*
X380Y328D02*
X392Y328D01*
X597Y328D02*
X613Y328D01*
X645Y328D02*
X652Y328D01*
X0Y327D02*
X7Y327D01*
X380Y327D02*
X392Y327D01*
X596Y327D02*
X613Y327D01*
X645Y327D02*
X652Y327D01*
X0Y326D02*
X7Y326D01*
X161Y326D02*
X164Y326D01*
X279Y326D02*
X282Y326D01*
X380Y326D02*
X391Y326D01*
X595Y326D02*
X613Y326D01*
X645Y326D02*
X652Y326D01*
X0Y325D02*
X7Y325D01*
X160Y325D02*
X164Y325D01*
X183Y325D02*
X192Y325D01*
X278Y325D02*
X282Y325D01*
X296Y325D02*
X298Y325D01*
X308Y325D02*
X310Y325D01*
X380Y325D02*
X391Y325D01*
X594Y325D02*
X613Y325D01*
X645Y325D02*
X652Y325D01*
X0Y324D02*
X7Y324D01*
X160Y324D02*
X164Y324D01*
X181Y324D02*
X193Y324D01*
X278Y324D02*
X282Y324D01*
X295Y324D02*
X299Y324D01*
X307Y324D02*
X311Y324D01*
X380Y324D02*
X391Y324D01*
X593Y324D02*
X613Y324D01*
X645Y324D02*
X652Y324D01*
X0Y323D02*
X7Y323D01*
X140Y323D02*
X142Y323D01*
X160Y323D02*
X164Y323D01*
X179Y323D02*
X193Y323D01*
X279Y323D02*
X282Y323D01*
X295Y323D02*
X300Y323D01*
X306Y323D02*
X311Y323D01*
X380Y323D02*
X391Y323D01*
X592Y323D02*
X613Y323D01*
X645Y323D02*
X652Y323D01*
X0Y322D02*
X7Y322D01*
X140Y322D02*
X142Y322D01*
X161Y322D02*
X163Y322D01*
X179Y322D02*
X193Y322D01*
X279Y322D02*
X281Y322D01*
X295Y322D02*
X301Y322D01*
X306Y322D02*
X311Y322D01*
X380Y322D02*
X391Y322D01*
X591Y322D02*
X613Y322D01*
X645Y322D02*
X652Y322D01*
X0Y321D02*
X7Y321D01*
X140Y321D02*
X142Y321D01*
X178Y321D02*
X181Y321D01*
X190Y321D02*
X193Y321D01*
X295Y321D02*
X301Y321D01*
X305Y321D02*
X311Y321D01*
X380Y321D02*
X391Y321D01*
X590Y321D02*
X613Y321D01*
X645Y321D02*
X652Y321D01*
X0Y320D02*
X7Y320D01*
X140Y320D02*
X142Y320D01*
X178Y320D02*
X180Y320D01*
X190Y320D02*
X193Y320D01*
X295Y320D02*
X302Y320D01*
X304Y320D02*
X311Y320D01*
X380Y320D02*
X391Y320D01*
X589Y320D02*
X613Y320D01*
X645Y320D02*
X652Y320D01*
X0Y319D02*
X7Y319D01*
X140Y319D02*
X142Y319D01*
X178Y319D02*
X180Y319D01*
X190Y319D02*
X193Y319D01*
X295Y319D02*
X298Y319D01*
X300Y319D02*
X306Y319D01*
X308Y319D02*
X311Y319D01*
X380Y319D02*
X391Y319D01*
X588Y319D02*
X613Y319D01*
X645Y319D02*
X652Y319D01*
X0Y318D02*
X7Y318D01*
X133Y318D02*
X144Y318D01*
X162Y318D02*
X166Y318D01*
X177Y318D02*
X180Y318D01*
X190Y318D02*
X193Y318D01*
X206Y318D02*
X211Y318D01*
X229Y318D02*
X232Y318D01*
X239Y318D02*
X239Y318D01*
X249Y318D02*
X256Y318D01*
X280Y318D02*
X284Y318D01*
X295Y318D02*
X298Y318D01*
X301Y318D02*
X306Y318D01*
X308Y318D02*
X311Y318D01*
X380Y318D02*
X391Y318D01*
X587Y318D02*
X613Y318D01*
X645Y318D02*
X652Y318D01*
X0Y317D02*
X7Y317D01*
X132Y317D02*
X145Y317D01*
X161Y317D02*
X167Y317D01*
X177Y317D02*
X180Y317D01*
X190Y317D02*
X193Y317D01*
X204Y317D02*
X213Y317D01*
X227Y317D02*
X234Y317D01*
X238Y317D02*
X240Y317D01*
X248Y317D02*
X259Y317D01*
X279Y317D02*
X285Y317D01*
X295Y317D02*
X298Y317D01*
X301Y317D02*
X305Y317D01*
X308Y317D02*
X311Y317D01*
X380Y317D02*
X391Y317D01*
X586Y317D02*
X613Y317D01*
X645Y317D02*
X652Y317D01*
X0Y316D02*
X7Y316D01*
X132Y316D02*
X145Y316D01*
X160Y316D02*
X167Y316D01*
X178Y316D02*
X180Y316D01*
X190Y316D02*
X193Y316D01*
X203Y316D02*
X215Y316D01*
X226Y316D02*
X235Y316D01*
X238Y316D02*
X240Y316D01*
X248Y316D02*
X260Y316D01*
X278Y316D02*
X285Y316D01*
X295Y316D02*
X298Y316D01*
X302Y316D02*
X304Y316D01*
X308Y316D02*
X311Y316D01*
X380Y316D02*
X391Y316D01*
X585Y316D02*
X613Y316D01*
X645Y316D02*
X652Y316D01*
X0Y315D02*
X7Y315D01*
X133Y315D02*
X145Y315D01*
X160Y315D02*
X167Y315D01*
X178Y315D02*
X181Y315D01*
X190Y315D02*
X193Y315D01*
X202Y315D02*
X215Y315D01*
X225Y315D02*
X240Y315D01*
X249Y315D02*
X261Y315D01*
X278Y315D02*
X285Y315D01*
X295Y315D02*
X298Y315D01*
X302Y315D02*
X304Y315D01*
X308Y315D02*
X311Y315D01*
X380Y315D02*
X391Y315D01*
X584Y315D02*
X613Y315D01*
X645Y315D02*
X652Y315D01*
X0Y314D02*
X7Y314D01*
X140Y314D02*
X142Y314D01*
X160Y314D02*
X163Y314D01*
X178Y314D02*
X183Y314D01*
X190Y314D02*
X193Y314D01*
X201Y314D02*
X205Y314D01*
X213Y314D02*
X216Y314D01*
X225Y314D02*
X227Y314D01*
X233Y314D02*
X240Y314D01*
X258Y314D02*
X262Y314D01*
X278Y314D02*
X281Y314D01*
X295Y314D02*
X298Y314D01*
X302Y314D02*
X304Y314D01*
X308Y314D02*
X311Y314D01*
X380Y314D02*
X391Y314D01*
X583Y314D02*
X613Y314D01*
X645Y314D02*
X652Y314D01*
X0Y313D02*
X7Y313D01*
X140Y313D02*
X142Y313D01*
X160Y313D02*
X163Y313D01*
X179Y313D02*
X193Y313D01*
X201Y313D02*
X204Y313D01*
X214Y313D02*
X216Y313D01*
X225Y313D02*
X227Y313D01*
X234Y313D02*
X240Y313D01*
X260Y313D02*
X263Y313D01*
X278Y313D02*
X281Y313D01*
X295Y313D02*
X298Y313D01*
X308Y313D02*
X311Y313D01*
X380Y313D02*
X391Y313D01*
X582Y313D02*
X598Y313D01*
X645Y313D02*
X652Y313D01*
X0Y312D02*
X7Y312D01*
X140Y312D02*
X142Y312D01*
X160Y312D02*
X163Y312D01*
X179Y312D02*
X193Y312D01*
X201Y312D02*
X203Y312D01*
X214Y312D02*
X216Y312D01*
X225Y312D02*
X227Y312D01*
X236Y312D02*
X240Y312D01*
X261Y312D02*
X263Y312D01*
X278Y312D02*
X281Y312D01*
X295Y312D02*
X298Y312D01*
X308Y312D02*
X311Y312D01*
X380Y312D02*
X391Y312D01*
X581Y312D02*
X597Y312D01*
X645Y312D02*
X652Y312D01*
X0Y311D02*
X7Y311D01*
X140Y311D02*
X142Y311D01*
X160Y311D02*
X163Y311D01*
X179Y311D02*
X193Y311D01*
X201Y311D02*
X203Y311D01*
X214Y311D02*
X216Y311D01*
X225Y311D02*
X226Y311D01*
X237Y311D02*
X240Y311D01*
X261Y311D02*
X264Y311D01*
X278Y311D02*
X281Y311D01*
X295Y311D02*
X298Y311D01*
X308Y311D02*
X311Y311D01*
X380Y311D02*
X391Y311D01*
X580Y311D02*
X596Y311D01*
X645Y311D02*
X652Y311D01*
X0Y310D02*
X7Y310D01*
X140Y310D02*
X142Y310D01*
X160Y310D02*
X163Y310D01*
X178Y310D02*
X181Y310D01*
X190Y310D02*
X193Y310D01*
X201Y310D02*
X203Y310D01*
X214Y310D02*
X216Y310D01*
X238Y310D02*
X240Y310D01*
X261Y310D02*
X264Y310D01*
X278Y310D02*
X281Y310D01*
X295Y310D02*
X298Y310D01*
X308Y310D02*
X311Y310D01*
X380Y310D02*
X391Y310D01*
X579Y310D02*
X595Y310D01*
X645Y310D02*
X652Y310D01*
X0Y309D02*
X7Y309D01*
X140Y309D02*
X142Y309D01*
X160Y309D02*
X163Y309D01*
X178Y309D02*
X180Y309D01*
X190Y309D02*
X193Y309D01*
X201Y309D02*
X203Y309D01*
X214Y309D02*
X216Y309D01*
X238Y309D02*
X240Y309D01*
X261Y309D02*
X264Y309D01*
X278Y309D02*
X281Y309D01*
X295Y309D02*
X298Y309D01*
X308Y309D02*
X311Y309D01*
X380Y309D02*
X391Y309D01*
X578Y309D02*
X594Y309D01*
X645Y309D02*
X652Y309D01*
X0Y308D02*
X7Y308D01*
X140Y308D02*
X142Y308D01*
X160Y308D02*
X163Y308D01*
X178Y308D02*
X180Y308D01*
X190Y308D02*
X193Y308D01*
X201Y308D02*
X203Y308D01*
X214Y308D02*
X216Y308D01*
X238Y308D02*
X240Y308D01*
X261Y308D02*
X264Y308D01*
X278Y308D02*
X281Y308D01*
X295Y308D02*
X298Y308D01*
X308Y308D02*
X311Y308D01*
X380Y308D02*
X391Y308D01*
X577Y308D02*
X594Y308D01*
X645Y308D02*
X652Y308D01*
X0Y307D02*
X7Y307D01*
X140Y307D02*
X142Y307D01*
X160Y307D02*
X163Y307D01*
X177Y307D02*
X180Y307D01*
X190Y307D02*
X193Y307D01*
X201Y307D02*
X203Y307D01*
X214Y307D02*
X216Y307D01*
X238Y307D02*
X240Y307D01*
X261Y307D02*
X264Y307D01*
X278Y307D02*
X281Y307D01*
X295Y307D02*
X298Y307D01*
X308Y307D02*
X311Y307D01*
X380Y307D02*
X391Y307D01*
X576Y307D02*
X593Y307D01*
X645Y307D02*
X652Y307D01*
X0Y306D02*
X7Y306D01*
X140Y306D02*
X142Y306D01*
X160Y306D02*
X163Y306D01*
X177Y306D02*
X180Y306D01*
X190Y306D02*
X193Y306D01*
X201Y306D02*
X203Y306D01*
X214Y306D02*
X216Y306D01*
X238Y306D02*
X240Y306D01*
X261Y306D02*
X264Y306D01*
X278Y306D02*
X281Y306D01*
X295Y306D02*
X298Y306D01*
X308Y306D02*
X311Y306D01*
X380Y306D02*
X391Y306D01*
X575Y306D02*
X592Y306D01*
X645Y306D02*
X652Y306D01*
X0Y305D02*
X7Y305D01*
X131Y305D02*
X132Y305D01*
X140Y305D02*
X142Y305D01*
X160Y305D02*
X163Y305D01*
X178Y305D02*
X180Y305D01*
X190Y305D02*
X193Y305D01*
X201Y305D02*
X204Y305D01*
X214Y305D02*
X216Y305D01*
X238Y305D02*
X240Y305D01*
X260Y305D02*
X263Y305D01*
X278Y305D02*
X281Y305D01*
X295Y305D02*
X298Y305D01*
X308Y305D02*
X311Y305D01*
X380Y305D02*
X391Y305D01*
X574Y305D02*
X591Y305D01*
X645Y305D02*
X652Y305D01*
X0Y304D02*
X7Y304D01*
X130Y304D02*
X133Y304D01*
X140Y304D02*
X142Y304D01*
X160Y304D02*
X163Y304D01*
X178Y304D02*
X181Y304D01*
X190Y304D02*
X193Y304D01*
X201Y304D02*
X204Y304D01*
X213Y304D02*
X216Y304D01*
X238Y304D02*
X240Y304D01*
X259Y304D02*
X263Y304D01*
X278Y304D02*
X281Y304D01*
X295Y304D02*
X298Y304D01*
X308Y304D02*
X311Y304D01*
X380Y304D02*
X391Y304D01*
X573Y304D02*
X590Y304D01*
X645Y304D02*
X652Y304D01*
X0Y303D02*
X7Y303D01*
X131Y303D02*
X134Y303D01*
X139Y303D02*
X142Y303D01*
X160Y303D02*
X163Y303D01*
X178Y303D02*
X182Y303D01*
X190Y303D02*
X193Y303D01*
X202Y303D02*
X206Y303D01*
X212Y303D02*
X216Y303D01*
X238Y303D02*
X240Y303D01*
X257Y303D02*
X262Y303D01*
X278Y303D02*
X281Y303D01*
X295Y303D02*
X298Y303D01*
X308Y303D02*
X311Y303D01*
X380Y303D02*
X391Y303D01*
X572Y303D02*
X589Y303D01*
X645Y303D02*
X652Y303D01*
X0Y302D02*
X7Y302D01*
X131Y302D02*
X142Y302D01*
X156Y302D02*
X167Y302D01*
X179Y302D02*
X193Y302D01*
X203Y302D02*
X215Y302D01*
X238Y302D02*
X240Y302D01*
X249Y302D02*
X261Y302D01*
X274Y302D02*
X285Y302D01*
X295Y302D02*
X298Y302D01*
X308Y302D02*
X311Y302D01*
X380Y302D02*
X391Y302D01*
X571Y302D02*
X588Y302D01*
X645Y302D02*
X652Y302D01*
X0Y301D02*
X7Y301D01*
X132Y301D02*
X141Y301D01*
X156Y301D02*
X168Y301D01*
X180Y301D02*
X193Y301D01*
X204Y301D02*
X214Y301D01*
X238Y301D02*
X240Y301D01*
X248Y301D02*
X259Y301D01*
X274Y301D02*
X286Y301D01*
X296Y301D02*
X298Y301D01*
X309Y301D02*
X311Y301D01*
X380Y301D02*
X391Y301D01*
X570Y301D02*
X587Y301D01*
X645Y301D02*
X652Y301D01*
X0Y300D02*
X7Y300D01*
X133Y300D02*
X139Y300D01*
X156Y300D02*
X167Y300D01*
X182Y300D02*
X193Y300D01*
X205Y300D02*
X212Y300D01*
X238Y300D02*
X239Y300D01*
X249Y300D02*
X258Y300D01*
X274Y300D02*
X285Y300D01*
X296Y300D02*
X297Y300D01*
X309Y300D02*
X310Y300D01*
X380Y300D02*
X391Y300D01*
X569Y300D02*
X586Y300D01*
X645Y300D02*
X652Y300D01*
X0Y299D02*
X7Y299D01*
X380Y299D02*
X391Y299D01*
X568Y299D02*
X584Y299D01*
X645Y299D02*
X652Y299D01*
X0Y298D02*
X7Y298D01*
X380Y298D02*
X391Y298D01*
X567Y298D02*
X583Y298D01*
X645Y298D02*
X652Y298D01*
X0Y297D02*
X7Y297D01*
X380Y297D02*
X391Y297D01*
X566Y297D02*
X582Y297D01*
X645Y297D02*
X652Y297D01*
X0Y296D02*
X7Y296D01*
X380Y296D02*
X391Y296D01*
X565Y296D02*
X581Y296D01*
X645Y296D02*
X652Y296D01*
X0Y295D02*
X7Y295D01*
X380Y295D02*
X391Y295D01*
X564Y295D02*
X580Y295D01*
X645Y295D02*
X652Y295D01*
X0Y294D02*
X7Y294D01*
X380Y294D02*
X391Y294D01*
X563Y294D02*
X580Y294D01*
X645Y294D02*
X652Y294D01*
X0Y293D02*
X7Y293D01*
X380Y293D02*
X391Y293D01*
X562Y293D02*
X579Y293D01*
X645Y293D02*
X652Y293D01*
X0Y292D02*
X7Y292D01*
X380Y292D02*
X391Y292D01*
X561Y292D02*
X578Y292D01*
X645Y292D02*
X652Y292D01*
X0Y291D02*
X7Y291D01*
X380Y291D02*
X391Y291D01*
X560Y291D02*
X577Y291D01*
X645Y291D02*
X652Y291D01*
X0Y290D02*
X7Y290D01*
X380Y290D02*
X391Y290D01*
X559Y290D02*
X576Y290D01*
X645Y290D02*
X652Y290D01*
X0Y289D02*
X7Y289D01*
X145Y289D02*
X153Y289D01*
X166Y289D02*
X180Y289D01*
X190Y289D02*
X204Y289D01*
X380Y289D02*
X391Y289D01*
X558Y289D02*
X575Y289D01*
X645Y289D02*
X652Y289D01*
X0Y288D02*
X7Y288D01*
X145Y288D02*
X154Y288D01*
X165Y288D02*
X180Y288D01*
X189Y288D02*
X204Y288D01*
X380Y288D02*
X391Y288D01*
X557Y288D02*
X574Y288D01*
X645Y288D02*
X652Y288D01*
X0Y287D02*
X7Y287D01*
X145Y287D02*
X154Y287D01*
X165Y287D02*
X180Y287D01*
X189Y287D02*
X203Y287D01*
X380Y287D02*
X391Y287D01*
X556Y287D02*
X572Y287D01*
X645Y287D02*
X652Y287D01*
X0Y286D02*
X7Y286D01*
X145Y286D02*
X147Y286D01*
X151Y286D02*
X154Y286D01*
X165Y286D02*
X167Y286D01*
X189Y286D02*
X191Y286D01*
X380Y286D02*
X391Y286D01*
X555Y286D02*
X571Y286D01*
X645Y286D02*
X652Y286D01*
X0Y285D02*
X7Y285D01*
X145Y285D02*
X147Y285D01*
X151Y285D02*
X154Y285D01*
X165Y285D02*
X167Y285D01*
X189Y285D02*
X191Y285D01*
X380Y285D02*
X391Y285D01*
X554Y285D02*
X570Y285D01*
X645Y285D02*
X652Y285D01*
X0Y284D02*
X7Y284D01*
X145Y284D02*
X147Y284D01*
X151Y284D02*
X154Y284D01*
X165Y284D02*
X167Y284D01*
X189Y284D02*
X191Y284D01*
X380Y284D02*
X391Y284D01*
X553Y284D02*
X569Y284D01*
X645Y284D02*
X652Y284D01*
X0Y283D02*
X7Y283D01*
X145Y283D02*
X147Y283D01*
X151Y283D02*
X154Y283D01*
X165Y283D02*
X167Y283D01*
X189Y283D02*
X191Y283D01*
X380Y283D02*
X391Y283D01*
X552Y283D02*
X568Y283D01*
X645Y283D02*
X652Y283D01*
X0Y282D02*
X7Y282D01*
X145Y282D02*
X147Y282D01*
X151Y282D02*
X154Y282D01*
X165Y282D02*
X167Y282D01*
X189Y282D02*
X191Y282D01*
X380Y282D02*
X391Y282D01*
X551Y282D02*
X567Y282D01*
X645Y282D02*
X652Y282D01*
X0Y281D02*
X7Y281D01*
X145Y281D02*
X147Y281D01*
X151Y281D02*
X154Y281D01*
X165Y281D02*
X167Y281D01*
X189Y281D02*
X191Y281D01*
X380Y281D02*
X391Y281D01*
X550Y281D02*
X567Y281D01*
X645Y281D02*
X652Y281D01*
X0Y280D02*
X7Y280D01*
X145Y280D02*
X147Y280D01*
X151Y280D02*
X154Y280D01*
X165Y280D02*
X167Y280D01*
X189Y280D02*
X191Y280D01*
X380Y280D02*
X391Y280D01*
X549Y280D02*
X566Y280D01*
X645Y280D02*
X652Y280D01*
X0Y279D02*
X7Y279D01*
X145Y279D02*
X147Y279D01*
X151Y279D02*
X154Y279D01*
X165Y279D02*
X168Y279D01*
X189Y279D02*
X192Y279D01*
X380Y279D02*
X391Y279D01*
X548Y279D02*
X565Y279D01*
X645Y279D02*
X652Y279D01*
X0Y278D02*
X7Y278D01*
X143Y278D02*
X156Y278D01*
X165Y278D02*
X179Y278D01*
X189Y278D02*
X201Y278D01*
X380Y278D02*
X391Y278D01*
X547Y278D02*
X564Y278D01*
X645Y278D02*
X652Y278D01*
X0Y277D02*
X7Y277D01*
X142Y277D02*
X156Y277D01*
X166Y277D02*
X180Y277D01*
X190Y277D02*
X201Y277D01*
X380Y277D02*
X391Y277D01*
X546Y277D02*
X563Y277D01*
X645Y277D02*
X652Y277D01*
X0Y276D02*
X7Y276D01*
X142Y276D02*
X157Y276D01*
X167Y276D02*
X180Y276D01*
X189Y276D02*
X200Y276D01*
X380Y276D02*
X391Y276D01*
X545Y276D02*
X562Y276D01*
X645Y276D02*
X652Y276D01*
X0Y275D02*
X7Y275D01*
X142Y275D02*
X144Y275D01*
X155Y275D02*
X157Y275D01*
X178Y275D02*
X180Y275D01*
X189Y275D02*
X192Y275D01*
X380Y275D02*
X391Y275D01*
X544Y275D02*
X561Y275D01*
X645Y275D02*
X652Y275D01*
X0Y274D02*
X7Y274D01*
X142Y274D02*
X144Y274D01*
X155Y274D02*
X157Y274D01*
X178Y274D02*
X180Y274D01*
X189Y274D02*
X191Y274D01*
X380Y274D02*
X391Y274D01*
X543Y274D02*
X560Y274D01*
X645Y274D02*
X652Y274D01*
X0Y273D02*
X7Y273D01*
X142Y273D02*
X144Y273D01*
X155Y273D02*
X157Y273D01*
X178Y273D02*
X180Y273D01*
X189Y273D02*
X191Y273D01*
X380Y273D02*
X391Y273D01*
X542Y273D02*
X558Y273D01*
X645Y273D02*
X652Y273D01*
X0Y272D02*
X7Y272D01*
X142Y272D02*
X144Y272D01*
X155Y272D02*
X157Y272D01*
X178Y272D02*
X180Y272D01*
X189Y272D02*
X191Y272D01*
X380Y272D02*
X391Y272D01*
X541Y272D02*
X557Y272D01*
X645Y272D02*
X652Y272D01*
X0Y271D02*
X7Y271D01*
X142Y271D02*
X144Y271D01*
X155Y271D02*
X157Y271D01*
X178Y271D02*
X180Y271D01*
X189Y271D02*
X191Y271D01*
X380Y271D02*
X391Y271D01*
X540Y271D02*
X556Y271D01*
X645Y271D02*
X652Y271D01*
X0Y270D02*
X7Y270D01*
X142Y270D02*
X144Y270D01*
X155Y270D02*
X157Y270D01*
X178Y270D02*
X180Y270D01*
X189Y270D02*
X191Y270D01*
X380Y270D02*
X391Y270D01*
X539Y270D02*
X555Y270D01*
X645Y270D02*
X652Y270D01*
X0Y269D02*
X7Y269D01*
X142Y269D02*
X144Y269D01*
X155Y269D02*
X157Y269D01*
X178Y269D02*
X180Y269D01*
X189Y269D02*
X191Y269D01*
X380Y269D02*
X391Y269D01*
X538Y269D02*
X555Y269D01*
X645Y269D02*
X652Y269D01*
X0Y268D02*
X7Y268D01*
X142Y268D02*
X144Y268D01*
X154Y268D02*
X157Y268D01*
X178Y268D02*
X180Y268D01*
X189Y268D02*
X191Y268D01*
X380Y268D02*
X391Y268D01*
X537Y268D02*
X556Y268D01*
X645Y268D02*
X652Y268D01*
X0Y267D02*
X7Y267D01*
X142Y267D02*
X157Y267D01*
X166Y267D02*
X180Y267D01*
X189Y267D02*
X204Y267D01*
X380Y267D02*
X391Y267D01*
X536Y267D02*
X557Y267D01*
X645Y267D02*
X652Y267D01*
X0Y266D02*
X7Y266D01*
X142Y266D02*
X156Y266D01*
X165Y266D02*
X180Y266D01*
X189Y266D02*
X204Y266D01*
X380Y266D02*
X391Y266D01*
X535Y266D02*
X558Y266D01*
X645Y266D02*
X652Y266D01*
X0Y265D02*
X7Y265D01*
X143Y265D02*
X155Y265D01*
X166Y265D02*
X180Y265D01*
X190Y265D02*
X204Y265D01*
X380Y265D02*
X391Y265D01*
X534Y265D02*
X559Y265D01*
X645Y265D02*
X652Y265D01*
X0Y264D02*
X7Y264D01*
X380Y264D02*
X391Y264D01*
X533Y264D02*
X560Y264D01*
X645Y264D02*
X652Y264D01*
X0Y263D02*
X7Y263D01*
X380Y263D02*
X391Y263D01*
X532Y263D02*
X559Y263D01*
X645Y263D02*
X652Y263D01*
X0Y262D02*
X7Y262D01*
X380Y262D02*
X391Y262D01*
X531Y262D02*
X548Y262D01*
X645Y262D02*
X652Y262D01*
X0Y261D02*
X7Y261D01*
X380Y261D02*
X391Y261D01*
X530Y261D02*
X547Y261D01*
X645Y261D02*
X652Y261D01*
X0Y260D02*
X7Y260D01*
X380Y260D02*
X391Y260D01*
X529Y260D02*
X545Y260D01*
X645Y260D02*
X652Y260D01*
X0Y259D02*
X7Y259D01*
X380Y259D02*
X391Y259D01*
X528Y259D02*
X544Y259D01*
X645Y259D02*
X652Y259D01*
X0Y258D02*
X7Y258D01*
X380Y258D02*
X391Y258D01*
X527Y258D02*
X543Y258D01*
X645Y258D02*
X652Y258D01*
X0Y257D02*
X7Y257D01*
X380Y257D02*
X391Y257D01*
X526Y257D02*
X542Y257D01*
X645Y257D02*
X652Y257D01*
X0Y256D02*
X7Y256D01*
X380Y256D02*
X391Y256D01*
X525Y256D02*
X542Y256D01*
X645Y256D02*
X652Y256D01*
X0Y255D02*
X7Y255D01*
X380Y255D02*
X391Y255D01*
X524Y255D02*
X543Y255D01*
X645Y255D02*
X652Y255D01*
X0Y254D02*
X7Y254D01*
X380Y254D02*
X391Y254D01*
X523Y254D02*
X544Y254D01*
X645Y254D02*
X652Y254D01*
X0Y253D02*
X7Y253D01*
X380Y253D02*
X391Y253D01*
X522Y253D02*
X545Y253D01*
X645Y253D02*
X652Y253D01*
X0Y252D02*
X7Y252D01*
X380Y252D02*
X391Y252D01*
X521Y252D02*
X546Y252D01*
X645Y252D02*
X652Y252D01*
X0Y251D02*
X7Y251D01*
X380Y251D02*
X391Y251D01*
X520Y251D02*
X546Y251D01*
X645Y251D02*
X652Y251D01*
X0Y250D02*
X7Y250D01*
X380Y250D02*
X391Y250D01*
X519Y250D02*
X545Y250D01*
X645Y250D02*
X652Y250D01*
X0Y249D02*
X7Y249D01*
X380Y249D02*
X391Y249D01*
X518Y249D02*
X535Y249D01*
X645Y249D02*
X652Y249D01*
X0Y248D02*
X7Y248D01*
X380Y248D02*
X391Y248D01*
X517Y248D02*
X534Y248D01*
X645Y248D02*
X652Y248D01*
X0Y247D02*
X7Y247D01*
X380Y247D02*
X391Y247D01*
X516Y247D02*
X532Y247D01*
X645Y247D02*
X652Y247D01*
X0Y246D02*
X7Y246D01*
X380Y246D02*
X391Y246D01*
X515Y246D02*
X531Y246D01*
X645Y246D02*
X652Y246D01*
X0Y245D02*
X7Y245D01*
X380Y245D02*
X391Y245D01*
X514Y245D02*
X530Y245D01*
X645Y245D02*
X652Y245D01*
X0Y244D02*
X7Y244D01*
X380Y244D02*
X391Y244D01*
X513Y244D02*
X529Y244D01*
X645Y244D02*
X652Y244D01*
X0Y243D02*
X7Y243D01*
X380Y243D02*
X391Y243D01*
X512Y243D02*
X528Y243D01*
X645Y243D02*
X652Y243D01*
X0Y242D02*
X7Y242D01*
X380Y242D02*
X391Y242D01*
X511Y242D02*
X527Y242D01*
X645Y242D02*
X652Y242D01*
X0Y241D02*
X7Y241D01*
X380Y241D02*
X391Y241D01*
X510Y241D02*
X527Y241D01*
X645Y241D02*
X652Y241D01*
X0Y240D02*
X7Y240D01*
X380Y240D02*
X391Y240D01*
X509Y240D02*
X527Y240D01*
X645Y240D02*
X652Y240D01*
X0Y239D02*
X7Y239D01*
X380Y239D02*
X391Y239D01*
X508Y239D02*
X528Y239D01*
X645Y239D02*
X652Y239D01*
X0Y238D02*
X7Y238D01*
X380Y238D02*
X391Y238D01*
X416Y238D02*
X419Y238D01*
X507Y238D02*
X529Y238D01*
X645Y238D02*
X652Y238D01*
X0Y237D02*
X7Y237D01*
X380Y237D02*
X391Y237D01*
X417Y237D02*
X420Y237D01*
X506Y237D02*
X530Y237D01*
X645Y237D02*
X652Y237D01*
X0Y236D02*
X7Y236D01*
X380Y236D02*
X391Y236D01*
X418Y236D02*
X421Y236D01*
X505Y236D02*
X531Y236D01*
X645Y236D02*
X652Y236D01*
X0Y235D02*
X7Y235D01*
X380Y235D02*
X391Y235D01*
X419Y235D02*
X422Y235D01*
X504Y235D02*
X530Y235D01*
X645Y235D02*
X652Y235D01*
X0Y234D02*
X7Y234D01*
X380Y234D02*
X391Y234D01*
X420Y234D02*
X423Y234D01*
X503Y234D02*
X519Y234D01*
X645Y234D02*
X652Y234D01*
X0Y233D02*
X7Y233D01*
X380Y233D02*
X391Y233D01*
X421Y233D02*
X424Y233D01*
X502Y233D02*
X518Y233D01*
X645Y233D02*
X652Y233D01*
X0Y232D02*
X7Y232D01*
X380Y232D02*
X391Y232D01*
X422Y232D02*
X425Y232D01*
X501Y232D02*
X517Y232D01*
X645Y232D02*
X652Y232D01*
X0Y231D02*
X7Y231D01*
X380Y231D02*
X391Y231D01*
X423Y231D02*
X423Y231D01*
X446Y231D02*
X472Y231D01*
X500Y231D02*
X516Y231D01*
X645Y231D02*
X652Y231D01*
X0Y230D02*
X7Y230D01*
X380Y230D02*
X391Y230D01*
X446Y230D02*
X471Y230D01*
X499Y230D02*
X515Y230D01*
X645Y230D02*
X652Y230D01*
X0Y229D02*
X7Y229D01*
X380Y229D02*
X391Y229D01*
X446Y229D02*
X470Y229D01*
X498Y229D02*
X514Y229D01*
X645Y229D02*
X652Y229D01*
X0Y228D02*
X7Y228D01*
X380Y228D02*
X391Y228D01*
X447Y228D02*
X469Y228D01*
X497Y228D02*
X514Y228D01*
X645Y228D02*
X652Y228D01*
X0Y227D02*
X7Y227D01*
X309Y227D02*
X316Y227D01*
X380Y227D02*
X391Y227D01*
X448Y227D02*
X468Y227D01*
X496Y227D02*
X513Y227D01*
X645Y227D02*
X652Y227D01*
X0Y226D02*
X7Y226D01*
X308Y226D02*
X316Y226D01*
X380Y226D02*
X391Y226D01*
X449Y226D02*
X467Y226D01*
X495Y226D02*
X512Y226D01*
X645Y226D02*
X652Y226D01*
X0Y225D02*
X7Y225D01*
X308Y225D02*
X316Y225D01*
X380Y225D02*
X391Y225D01*
X449Y225D02*
X466Y225D01*
X494Y225D02*
X511Y225D01*
X645Y225D02*
X652Y225D01*
X0Y224D02*
X7Y224D01*
X308Y224D02*
X317Y224D01*
X380Y224D02*
X391Y224D01*
X449Y224D02*
X465Y224D01*
X493Y224D02*
X510Y224D01*
X645Y224D02*
X652Y224D01*
X0Y223D02*
X7Y223D01*
X308Y223D02*
X317Y223D01*
X380Y223D02*
X391Y223D01*
X448Y223D02*
X464Y223D01*
X492Y223D02*
X510Y223D01*
X645Y223D02*
X652Y223D01*
X0Y222D02*
X7Y222D01*
X307Y222D02*
X317Y222D01*
X380Y222D02*
X391Y222D01*
X447Y222D02*
X463Y222D01*
X491Y222D02*
X511Y222D01*
X645Y222D02*
X652Y222D01*
X0Y221D02*
X7Y221D01*
X307Y221D02*
X317Y221D01*
X380Y221D02*
X391Y221D01*
X446Y221D02*
X462Y221D01*
X490Y221D02*
X512Y221D01*
X645Y221D02*
X652Y221D01*
X0Y220D02*
X7Y220D01*
X307Y220D02*
X317Y220D01*
X380Y220D02*
X391Y220D01*
X447Y220D02*
X461Y220D01*
X489Y220D02*
X513Y220D01*
X645Y220D02*
X652Y220D01*
X0Y219D02*
X7Y219D01*
X307Y219D02*
X318Y219D01*
X380Y219D02*
X391Y219D01*
X447Y219D02*
X460Y219D01*
X488Y219D02*
X514Y219D01*
X645Y219D02*
X652Y219D01*
X0Y218D02*
X7Y218D01*
X307Y218D02*
X318Y218D01*
X380Y218D02*
X391Y218D01*
X448Y218D02*
X459Y218D01*
X487Y218D02*
X513Y218D01*
X645Y218D02*
X652Y218D01*
X0Y217D02*
X7Y217D01*
X306Y217D02*
X318Y217D01*
X380Y217D02*
X391Y217D01*
X448Y217D02*
X458Y217D01*
X486Y217D02*
X502Y217D01*
X645Y217D02*
X652Y217D01*
X0Y216D02*
X7Y216D01*
X283Y216D02*
X285Y216D01*
X306Y216D02*
X318Y216D01*
X340Y216D02*
X342Y216D01*
X380Y216D02*
X391Y216D01*
X448Y216D02*
X457Y216D01*
X485Y216D02*
X501Y216D01*
X645Y216D02*
X652Y216D01*
X0Y215D02*
X7Y215D01*
X282Y215D02*
X286Y215D01*
X306Y215D02*
X318Y215D01*
X338Y215D02*
X343Y215D01*
X380Y215D02*
X391Y215D01*
X448Y215D02*
X456Y215D01*
X484Y215D02*
X501Y215D01*
X645Y215D02*
X652Y215D01*
X0Y214D02*
X7Y214D01*
X281Y214D02*
X288Y214D01*
X304Y214D02*
X321Y214D01*
X337Y214D02*
X344Y214D01*
X380Y214D02*
X391Y214D01*
X448Y214D02*
X455Y214D01*
X483Y214D02*
X500Y214D01*
X645Y214D02*
X652Y214D01*
X0Y213D02*
X7Y213D01*
X280Y213D02*
X289Y213D01*
X301Y213D02*
X324Y213D01*
X335Y213D02*
X345Y213D01*
X380Y213D02*
X391Y213D01*
X448Y213D02*
X454Y213D01*
X482Y213D02*
X499Y213D01*
X645Y213D02*
X652Y213D01*
X0Y212D02*
X7Y212D01*
X279Y212D02*
X291Y212D01*
X298Y212D02*
X326Y212D01*
X334Y212D02*
X346Y212D01*
X380Y212D02*
X391Y212D01*
X448Y212D02*
X453Y212D01*
X481Y212D02*
X498Y212D01*
X645Y212D02*
X652Y212D01*
X0Y211D02*
X7Y211D01*
X278Y211D02*
X292Y211D01*
X296Y211D02*
X328Y211D01*
X332Y211D02*
X346Y211D01*
X380Y211D02*
X391Y211D01*
X448Y211D02*
X452Y211D01*
X480Y211D02*
X497Y211D01*
X645Y211D02*
X652Y211D01*
X0Y210D02*
X7Y210D01*
X279Y210D02*
X346Y210D01*
X380Y210D02*
X391Y210D01*
X448Y210D02*
X451Y210D01*
X479Y210D02*
X496Y210D01*
X645Y210D02*
X652Y210D01*
X0Y209D02*
X7Y209D01*
X279Y209D02*
X345Y209D01*
X380Y209D02*
X391Y209D01*
X448Y209D02*
X450Y209D01*
X478Y209D02*
X495Y209D01*
X645Y209D02*
X652Y209D01*
X0Y208D02*
X7Y208D01*
X280Y208D02*
X344Y208D01*
X380Y208D02*
X391Y208D01*
X447Y208D02*
X449Y208D01*
X477Y208D02*
X493Y208D01*
X645Y208D02*
X652Y208D01*
X0Y207D02*
X7Y207D01*
X281Y207D02*
X344Y207D01*
X380Y207D02*
X391Y207D01*
X447Y207D02*
X448Y207D01*
X476Y207D02*
X493Y207D01*
X645Y207D02*
X652Y207D01*
X0Y206D02*
X7Y206D01*
X281Y206D02*
X343Y206D01*
X380Y206D02*
X391Y206D01*
X446Y206D02*
X447Y206D01*
X475Y206D02*
X493Y206D01*
X645Y206D02*
X652Y206D01*
X0Y205D02*
X7Y205D01*
X282Y205D02*
X342Y205D01*
X380Y205D02*
X391Y205D01*
X446Y205D02*
X446Y205D01*
X474Y205D02*
X494Y205D01*
X645Y205D02*
X652Y205D01*
X0Y204D02*
X7Y204D01*
X283Y204D02*
X342Y204D01*
X380Y204D02*
X391Y204D01*
X445Y204D02*
X445Y204D01*
X473Y204D02*
X495Y204D01*
X645Y204D02*
X652Y204D01*
X0Y203D02*
X7Y203D01*
X283Y203D02*
X341Y203D01*
X380Y203D02*
X391Y203D01*
X444Y203D02*
X444Y203D01*
X472Y203D02*
X496Y203D01*
X645Y203D02*
X652Y203D01*
X0Y202D02*
X7Y202D01*
X284Y202D02*
X340Y202D01*
X380Y202D02*
X391Y202D01*
X443Y202D02*
X443Y202D01*
X471Y202D02*
X497Y202D01*
X645Y202D02*
X652Y202D01*
X0Y201D02*
X7Y201D01*
X285Y201D02*
X340Y201D01*
X380Y201D02*
X391Y201D01*
X470Y201D02*
X496Y201D01*
X645Y201D02*
X652Y201D01*
X0Y200D02*
X7Y200D01*
X285Y200D02*
X340Y200D01*
X380Y200D02*
X391Y200D01*
X441Y200D02*
X441Y200D01*
X469Y200D02*
X495Y200D01*
X645Y200D02*
X652Y200D01*
X0Y199D02*
X7Y199D01*
X284Y199D02*
X340Y199D01*
X380Y199D02*
X391Y199D01*
X440Y199D02*
X440Y199D01*
X468Y199D02*
X485Y199D01*
X645Y199D02*
X652Y199D01*
X0Y198D02*
X7Y198D01*
X284Y198D02*
X309Y198D01*
X316Y198D02*
X341Y198D01*
X380Y198D02*
X391Y198D01*
X439Y198D02*
X439Y198D01*
X467Y198D02*
X484Y198D01*
X645Y198D02*
X652Y198D01*
X0Y197D02*
X7Y197D01*
X283Y197D02*
X305Y197D01*
X319Y197D02*
X341Y197D01*
X380Y197D02*
X391Y197D01*
X437Y197D02*
X438Y197D01*
X466Y197D02*
X483Y197D01*
X645Y197D02*
X652Y197D01*
X0Y196D02*
X7Y196D01*
X283Y196D02*
X304Y196D01*
X321Y196D02*
X342Y196D01*
X380Y196D02*
X391Y196D01*
X421Y196D02*
X424Y196D01*
X435Y196D02*
X437Y196D01*
X465Y196D02*
X482Y196D01*
X645Y196D02*
X652Y196D01*
X0Y195D02*
X7Y195D01*
X282Y195D02*
X302Y195D01*
X322Y195D02*
X342Y195D01*
X380Y195D02*
X391Y195D01*
X420Y195D02*
X436Y195D01*
X464Y195D02*
X480Y195D01*
X645Y195D02*
X652Y195D01*
X0Y194D02*
X7Y194D01*
X282Y194D02*
X301Y194D01*
X324Y194D02*
X343Y194D01*
X380Y194D02*
X391Y194D01*
X419Y194D02*
X435Y194D01*
X463Y194D02*
X479Y194D01*
X645Y194D02*
X652Y194D01*
X0Y193D02*
X7Y193D01*
X281Y193D02*
X300Y193D01*
X325Y193D02*
X343Y193D01*
X380Y193D02*
X391Y193D01*
X418Y193D02*
X434Y193D01*
X462Y193D02*
X478Y193D01*
X645Y193D02*
X652Y193D01*
X0Y192D02*
X7Y192D01*
X281Y192D02*
X299Y192D01*
X325Y192D02*
X344Y192D01*
X380Y192D02*
X391Y192D01*
X417Y192D02*
X433Y192D01*
X461Y192D02*
X478Y192D01*
X645Y192D02*
X652Y192D01*
X0Y191D02*
X7Y191D01*
X281Y191D02*
X298Y191D01*
X326Y191D02*
X344Y191D01*
X380Y191D02*
X391Y191D01*
X416Y191D02*
X432Y191D01*
X460Y191D02*
X479Y191D01*
X645Y191D02*
X652Y191D01*
X0Y190D02*
X7Y190D01*
X280Y190D02*
X298Y190D01*
X327Y190D02*
X344Y190D01*
X380Y190D02*
X391Y190D01*
X415Y190D02*
X431Y190D01*
X459Y190D02*
X480Y190D01*
X645Y190D02*
X652Y190D01*
X0Y189D02*
X7Y189D01*
X280Y189D02*
X297Y189D01*
X327Y189D02*
X345Y189D01*
X380Y189D02*
X391Y189D01*
X414Y189D02*
X430Y189D01*
X458Y189D02*
X481Y189D01*
X645Y189D02*
X652Y189D01*
X0Y188D02*
X7Y188D01*
X275Y188D02*
X297Y188D01*
X328Y188D02*
X350Y188D01*
X380Y188D02*
X391Y188D01*
X413Y188D02*
X429Y188D01*
X457Y188D02*
X482Y188D01*
X645Y188D02*
X652Y188D01*
X0Y187D02*
X7Y187D01*
X269Y187D02*
X297Y187D01*
X328Y187D02*
X355Y187D01*
X380Y187D02*
X391Y187D01*
X412Y187D02*
X428Y187D01*
X456Y187D02*
X481Y187D01*
X645Y187D02*
X652Y187D01*
X0Y186D02*
X7Y186D01*
X268Y186D02*
X296Y186D01*
X328Y186D02*
X357Y186D01*
X380Y186D02*
X391Y186D01*
X411Y186D02*
X427Y186D01*
X455Y186D02*
X480Y186D01*
X645Y186D02*
X652Y186D01*
X0Y185D02*
X7Y185D01*
X268Y185D02*
X296Y185D01*
X328Y185D02*
X357Y185D01*
X380Y185D02*
X391Y185D01*
X410Y185D02*
X426Y185D01*
X454Y185D02*
X471Y185D01*
X645Y185D02*
X652Y185D01*
X0Y184D02*
X7Y184D01*
X268Y184D02*
X296Y184D01*
X329Y184D02*
X357Y184D01*
X380Y184D02*
X391Y184D01*
X409Y184D02*
X425Y184D01*
X453Y184D02*
X470Y184D01*
X645Y184D02*
X652Y184D01*
X0Y183D02*
X7Y183D01*
X268Y183D02*
X296Y183D01*
X329Y183D02*
X357Y183D01*
X380Y183D02*
X391Y183D01*
X408Y183D02*
X424Y183D01*
X452Y183D02*
X469Y183D01*
X645Y183D02*
X652Y183D01*
X0Y182D02*
X7Y182D01*
X268Y182D02*
X296Y182D01*
X329Y182D02*
X357Y182D01*
X380Y182D02*
X391Y182D01*
X407Y182D02*
X423Y182D01*
X451Y182D02*
X467Y182D01*
X645Y182D02*
X652Y182D01*
X0Y181D02*
X7Y181D01*
X268Y181D02*
X296Y181D01*
X329Y181D02*
X357Y181D01*
X380Y181D02*
X391Y181D01*
X406Y181D02*
X422Y181D01*
X450Y181D02*
X466Y181D01*
X645Y181D02*
X652Y181D01*
X0Y180D02*
X7Y180D01*
X268Y180D02*
X296Y180D01*
X329Y180D02*
X357Y180D01*
X380Y180D02*
X391Y180D01*
X405Y180D02*
X421Y180D01*
X449Y180D02*
X465Y180D01*
X645Y180D02*
X652Y180D01*
X0Y179D02*
X7Y179D01*
X268Y179D02*
X296Y179D01*
X328Y179D02*
X357Y179D01*
X380Y179D02*
X391Y179D01*
X404Y179D02*
X420Y179D01*
X448Y179D02*
X464Y179D01*
X645Y179D02*
X652Y179D01*
X0Y178D02*
X7Y178D01*
X268Y178D02*
X296Y178D01*
X328Y178D02*
X356Y178D01*
X380Y178D02*
X391Y178D01*
X403Y178D02*
X419Y178D01*
X447Y178D02*
X463Y178D01*
X645Y178D02*
X652Y178D01*
X0Y177D02*
X7Y177D01*
X274Y177D02*
X297Y177D01*
X328Y177D02*
X351Y177D01*
X380Y177D02*
X391Y177D01*
X402Y177D02*
X418Y177D01*
X446Y177D02*
X462Y177D01*
X645Y177D02*
X652Y177D01*
X0Y176D02*
X7Y176D01*
X279Y176D02*
X297Y176D01*
X327Y176D02*
X345Y176D01*
X380Y176D02*
X391Y176D01*
X401Y176D02*
X417Y176D01*
X445Y176D02*
X461Y176D01*
X645Y176D02*
X652Y176D01*
X0Y175D02*
X7Y175D01*
X280Y175D02*
X298Y175D01*
X327Y175D02*
X344Y175D01*
X380Y175D02*
X391Y175D01*
X400Y175D02*
X416Y175D01*
X444Y175D02*
X461Y175D01*
X645Y175D02*
X652Y175D01*
X0Y174D02*
X7Y174D01*
X280Y174D02*
X298Y174D01*
X326Y174D02*
X344Y174D01*
X380Y174D02*
X391Y174D01*
X399Y174D02*
X415Y174D01*
X443Y174D02*
X460Y174D01*
X645Y174D02*
X652Y174D01*
X0Y173D02*
X7Y173D01*
X281Y173D02*
X299Y173D01*
X326Y173D02*
X344Y173D01*
X380Y173D02*
X391Y173D01*
X398Y173D02*
X414Y173D01*
X442Y173D02*
X459Y173D01*
X645Y173D02*
X652Y173D01*
X0Y172D02*
X7Y172D01*
X281Y172D02*
X300Y172D01*
X325Y172D02*
X344Y172D01*
X380Y172D02*
X391Y172D01*
X397Y172D02*
X413Y172D01*
X441Y172D02*
X458Y172D01*
X645Y172D02*
X652Y172D01*
X0Y171D02*
X7Y171D01*
X281Y171D02*
X301Y171D01*
X324Y171D02*
X343Y171D01*
X380Y171D02*
X391Y171D01*
X396Y171D02*
X412Y171D01*
X440Y171D02*
X457Y171D01*
X645Y171D02*
X652Y171D01*
X0Y170D02*
X7Y170D01*
X282Y170D02*
X302Y170D01*
X323Y170D02*
X343Y170D01*
X380Y170D02*
X391Y170D01*
X395Y170D02*
X411Y170D01*
X439Y170D02*
X456Y170D01*
X645Y170D02*
X652Y170D01*
X0Y169D02*
X7Y169D01*
X282Y169D02*
X303Y169D01*
X321Y169D02*
X342Y169D01*
X380Y169D02*
X391Y169D01*
X394Y169D02*
X410Y169D01*
X438Y169D02*
X454Y169D01*
X645Y169D02*
X652Y169D01*
X0Y168D02*
X7Y168D01*
X282Y168D02*
X303Y168D01*
X321Y168D02*
X342Y168D01*
X380Y168D02*
X391Y168D01*
X393Y168D02*
X409Y168D01*
X437Y168D02*
X453Y168D01*
X645Y168D02*
X652Y168D01*
X0Y167D02*
X7Y167D01*
X283Y167D02*
X303Y167D01*
X322Y167D02*
X342Y167D01*
X436Y167D02*
X452Y167D01*
X645Y167D02*
X652Y167D01*
X0Y166D02*
X7Y166D01*
X283Y166D02*
X302Y166D01*
X322Y166D02*
X341Y166D01*
X435Y166D02*
X451Y166D01*
X645Y166D02*
X652Y166D01*
X0Y165D02*
X7Y165D01*
X284Y165D02*
X302Y165D01*
X323Y165D02*
X340Y165D01*
X434Y165D02*
X450Y165D01*
X645Y165D02*
X652Y165D01*
X0Y164D02*
X7Y164D01*
X285Y164D02*
X301Y164D01*
X323Y164D02*
X340Y164D01*
X433Y164D02*
X449Y164D01*
X645Y164D02*
X652Y164D01*
X0Y163D02*
X7Y163D01*
X284Y163D02*
X301Y163D01*
X323Y163D02*
X340Y163D01*
X432Y163D02*
X448Y163D01*
X645Y163D02*
X652Y163D01*
X0Y162D02*
X7Y162D01*
X284Y162D02*
X301Y162D01*
X324Y162D02*
X341Y162D01*
X431Y162D02*
X448Y162D01*
X645Y162D02*
X652Y162D01*
X0Y161D02*
X7Y161D01*
X283Y161D02*
X300Y161D01*
X324Y161D02*
X342Y161D01*
X430Y161D02*
X447Y161D01*
X645Y161D02*
X652Y161D01*
X0Y160D02*
X7Y160D01*
X282Y160D02*
X300Y160D01*
X325Y160D02*
X342Y160D01*
X429Y160D02*
X446Y160D01*
X645Y160D02*
X652Y160D01*
X0Y159D02*
X7Y159D01*
X282Y159D02*
X299Y159D01*
X325Y159D02*
X343Y159D01*
X428Y159D02*
X445Y159D01*
X645Y159D02*
X652Y159D01*
X0Y158D02*
X7Y158D01*
X281Y158D02*
X299Y158D01*
X325Y158D02*
X344Y158D01*
X427Y158D02*
X444Y158D01*
X645Y158D02*
X652Y158D01*
X0Y157D02*
X7Y157D01*
X280Y157D02*
X299Y157D01*
X326Y157D02*
X344Y157D01*
X426Y157D02*
X443Y157D01*
X645Y157D02*
X652Y157D01*
X0Y156D02*
X7Y156D01*
X279Y156D02*
X298Y156D01*
X326Y156D02*
X345Y156D01*
X425Y156D02*
X441Y156D01*
X645Y156D02*
X652Y156D01*
X0Y155D02*
X7Y155D01*
X279Y155D02*
X298Y155D01*
X327Y155D02*
X346Y155D01*
X424Y155D02*
X440Y155D01*
X645Y155D02*
X652Y155D01*
X0Y154D02*
X7Y154D01*
X278Y154D02*
X292Y154D01*
X294Y154D02*
X297Y154D01*
X327Y154D02*
X330Y154D01*
X332Y154D02*
X346Y154D01*
X423Y154D02*
X439Y154D01*
X645Y154D02*
X652Y154D01*
X0Y153D02*
X7Y153D01*
X279Y153D02*
X291Y153D01*
X296Y153D02*
X297Y153D01*
X328Y153D02*
X328Y153D01*
X334Y153D02*
X346Y153D01*
X422Y153D02*
X438Y153D01*
X645Y153D02*
X652Y153D01*
X0Y152D02*
X7Y152D01*
X280Y152D02*
X289Y152D01*
X335Y152D02*
X345Y152D01*
X421Y152D02*
X437Y152D01*
X645Y152D02*
X652Y152D01*
X0Y151D02*
X7Y151D01*
X281Y151D02*
X288Y151D01*
X337Y151D02*
X344Y151D01*
X420Y151D02*
X436Y151D01*
X645Y151D02*
X652Y151D01*
X0Y150D02*
X7Y150D01*
X282Y150D02*
X286Y150D01*
X338Y150D02*
X343Y150D01*
X419Y150D02*
X435Y150D01*
X645Y150D02*
X652Y150D01*
X0Y149D02*
X7Y149D01*
X283Y149D02*
X285Y149D01*
X339Y149D02*
X342Y149D01*
X418Y149D02*
X434Y149D01*
X645Y149D02*
X652Y149D01*
X0Y148D02*
X7Y148D01*
X284Y148D02*
X284Y148D01*
X341Y148D02*
X341Y148D01*
X417Y148D02*
X434Y148D01*
X645Y148D02*
X652Y148D01*
X0Y147D02*
X7Y147D01*
X416Y147D02*
X433Y147D01*
X645Y147D02*
X652Y147D01*
X0Y146D02*
X7Y146D01*
X415Y146D02*
X432Y146D01*
X645Y146D02*
X652Y146D01*
X0Y145D02*
X7Y145D01*
X414Y145D02*
X431Y145D01*
X645Y145D02*
X652Y145D01*
X0Y144D02*
X7Y144D01*
X413Y144D02*
X430Y144D01*
X645Y144D02*
X652Y144D01*
X0Y143D02*
X7Y143D01*
X412Y143D02*
X428Y143D01*
X645Y143D02*
X652Y143D01*
X0Y142D02*
X7Y142D01*
X411Y142D02*
X427Y142D01*
X645Y142D02*
X652Y142D01*
X0Y141D02*
X7Y141D01*
X410Y141D02*
X426Y141D01*
X645Y141D02*
X652Y141D01*
X0Y140D02*
X7Y140D01*
X293Y140D02*
X293Y140D01*
X325Y140D02*
X325Y140D01*
X409Y140D02*
X425Y140D01*
X645Y140D02*
X652Y140D01*
X0Y139D02*
X7Y139D01*
X293Y139D02*
X293Y139D01*
X325Y139D02*
X325Y139D01*
X408Y139D02*
X424Y139D01*
X645Y139D02*
X652Y139D01*
X0Y138D02*
X7Y138D01*
X293Y138D02*
X293Y138D01*
X325Y138D02*
X325Y138D01*
X337Y138D02*
X338Y138D01*
X346Y138D02*
X348Y138D01*
X355Y138D02*
X357Y138D01*
X365Y138D02*
X366Y138D01*
X407Y138D02*
X423Y138D01*
X645Y138D02*
X652Y138D01*
X0Y137D02*
X7Y137D01*
X258Y137D02*
X261Y137D01*
X267Y137D02*
X270Y137D01*
X276Y137D02*
X279Y137D01*
X283Y137D02*
X283Y137D01*
X286Y137D02*
X287Y137D01*
X290Y137D02*
X290Y137D01*
X293Y137D02*
X297Y137D01*
X303Y137D02*
X306Y137D01*
X312Y137D02*
X315Y137D01*
X321Y137D02*
X325Y137D01*
X335Y137D02*
X340Y137D01*
X345Y137D02*
X349Y137D01*
X354Y137D02*
X358Y137D01*
X363Y137D02*
X368Y137D01*
X406Y137D02*
X422Y137D01*
X645Y137D02*
X652Y137D01*
X0Y136D02*
X7Y136D01*
X257Y136D02*
X258Y136D01*
X261Y136D02*
X262Y136D01*
X266Y136D02*
X267Y136D01*
X270Y136D02*
X271Y136D01*
X275Y136D02*
X276Y136D01*
X279Y136D02*
X280Y136D01*
X283Y136D02*
X283Y136D01*
X286Y136D02*
X287Y136D01*
X290Y136D02*
X290Y136D01*
X293Y136D02*
X294Y136D01*
X297Y136D02*
X298Y136D01*
X302Y136D02*
X303Y136D01*
X306Y136D02*
X307Y136D01*
X311Y136D02*
X312Y136D01*
X315Y136D02*
X316Y136D01*
X320Y136D02*
X321Y136D01*
X324Y136D02*
X325Y136D01*
X335Y136D02*
X336Y136D01*
X339Y136D02*
X340Y136D01*
X344Y136D02*
X346Y136D01*
X348Y136D02*
X350Y136D01*
X353Y136D02*
X355Y136D01*
X358Y136D02*
X359Y136D01*
X363Y136D02*
X364Y136D01*
X367Y136D02*
X368Y136D01*
X645Y136D02*
X652Y136D01*
X0Y135D02*
X7Y135D01*
X257Y135D02*
X257Y135D01*
X262Y135D02*
X263Y135D01*
X266Y135D02*
X266Y135D01*
X271Y135D02*
X271Y135D01*
X275Y135D02*
X275Y135D01*
X280Y135D02*
X280Y135D01*
X283Y135D02*
X283Y135D01*
X286Y135D02*
X287Y135D01*
X290Y135D02*
X290Y135D01*
X293Y135D02*
X293Y135D01*
X298Y135D02*
X298Y135D01*
X302Y135D02*
X302Y135D01*
X307Y135D02*
X307Y135D01*
X311Y135D02*
X311Y135D01*
X316Y135D02*
X316Y135D01*
X319Y135D02*
X320Y135D01*
X325Y135D02*
X325Y135D01*
X334Y135D02*
X335Y135D01*
X340Y135D02*
X341Y135D01*
X344Y135D02*
X345Y135D01*
X349Y135D02*
X350Y135D01*
X353Y135D02*
X354Y135D01*
X358Y135D02*
X359Y135D01*
X363Y135D02*
X364Y135D01*
X368Y135D02*
X369Y135D01*
X645Y135D02*
X652Y135D01*
X0Y134D02*
X7Y134D01*
X257Y134D02*
X258Y134D01*
X262Y134D02*
X263Y134D01*
X271Y134D02*
X272Y134D01*
X275Y134D02*
X276Y134D01*
X283Y134D02*
X283Y134D01*
X286Y134D02*
X287Y134D01*
X290Y134D02*
X290Y134D01*
X293Y134D02*
X293Y134D01*
X298Y134D02*
X298Y134D01*
X302Y134D02*
X302Y134D01*
X307Y134D02*
X307Y134D01*
X310Y134D02*
X312Y134D01*
X316Y134D02*
X316Y134D01*
X319Y134D02*
X320Y134D01*
X325Y134D02*
X325Y134D01*
X334Y134D02*
X335Y134D01*
X340Y134D02*
X341Y134D01*
X344Y134D02*
X347Y134D01*
X349Y134D02*
X350Y134D01*
X353Y134D02*
X354Y134D01*
X358Y134D02*
X359Y134D01*
X362Y134D02*
X363Y134D01*
X368Y134D02*
X369Y134D01*
X645Y134D02*
X652Y134D01*
X0Y133D02*
X7Y133D01*
X258Y133D02*
X263Y133D01*
X271Y133D02*
X272Y133D01*
X275Y133D02*
X278Y133D01*
X283Y133D02*
X283Y133D01*
X286Y133D02*
X287Y133D01*
X290Y133D02*
X290Y133D01*
X293Y133D02*
X293Y133D01*
X298Y133D02*
X298Y133D01*
X307Y133D02*
X307Y133D01*
X310Y133D02*
X314Y133D01*
X319Y133D02*
X320Y133D01*
X325Y133D02*
X325Y133D01*
X334Y133D02*
X335Y133D01*
X340Y133D02*
X341Y133D01*
X345Y133D02*
X350Y133D01*
X353Y133D02*
X354Y133D01*
X358Y133D02*
X359Y133D01*
X362Y133D02*
X363Y133D01*
X368Y133D02*
X369Y133D01*
X645Y133D02*
X652Y133D01*
X0Y132D02*
X7Y132D01*
X260Y132D02*
X263Y132D01*
X271Y132D02*
X272Y132D01*
X275Y132D02*
X275Y132D01*
X278Y132D02*
X280Y132D01*
X283Y132D02*
X283Y132D01*
X286Y132D02*
X287Y132D01*
X290Y132D02*
X290Y132D01*
X293Y132D02*
X293Y132D01*
X298Y132D02*
X298Y132D01*
X307Y132D02*
X307Y132D01*
X310Y132D02*
X311Y132D01*
X314Y132D02*
X316Y132D01*
X319Y132D02*
X320Y132D01*
X325Y132D02*
X325Y132D01*
X334Y132D02*
X335Y132D01*
X340Y132D02*
X341Y132D01*
X344Y132D02*
X344Y132D01*
X347Y132D02*
X350Y132D01*
X353Y132D02*
X354Y132D01*
X358Y132D02*
X359Y132D01*
X362Y132D02*
X363Y132D01*
X368Y132D02*
X369Y132D01*
X645Y132D02*
X652Y132D01*
X0Y131D02*
X7Y131D01*
X257Y131D02*
X257Y131D01*
X262Y131D02*
X263Y131D01*
X271Y131D02*
X272Y131D01*
X275Y131D02*
X275Y131D01*
X280Y131D02*
X280Y131D01*
X283Y131D02*
X283Y131D01*
X286Y131D02*
X287Y131D01*
X290Y131D02*
X290Y131D01*
X293Y131D02*
X293Y131D01*
X298Y131D02*
X298Y131D01*
X307Y131D02*
X307Y131D01*
X310Y131D02*
X311Y131D01*
X315Y131D02*
X316Y131D01*
X319Y131D02*
X320Y131D01*
X325Y131D02*
X325Y131D01*
X334Y131D02*
X335Y131D01*
X340Y131D02*
X341Y131D01*
X344Y131D02*
X345Y131D01*
X349Y131D02*
X350Y131D01*
X353Y131D02*
X354Y131D01*
X358Y131D02*
X359Y131D01*
X363Y131D02*
X364Y131D01*
X368Y131D02*
X369Y131D01*
X645Y131D02*
X652Y131D01*
X0Y130D02*
X7Y130D01*
X257Y130D02*
X258Y130D01*
X262Y130D02*
X262Y130D01*
X271Y130D02*
X272Y130D01*
X275Y130D02*
X275Y130D01*
X280Y130D02*
X280Y130D01*
X283Y130D02*
X283Y130D01*
X286Y130D02*
X287Y130D01*
X290Y130D02*
X290Y130D01*
X293Y130D02*
X293Y130D01*
X297Y130D02*
X298Y130D01*
X307Y130D02*
X307Y130D01*
X310Y130D02*
X311Y130D01*
X316Y130D02*
X316Y130D01*
X319Y130D02*
X320Y130D01*
X325Y130D02*
X325Y130D01*
X334Y130D02*
X335Y130D01*
X340Y130D02*
X341Y130D01*
X344Y130D02*
X346Y130D01*
X348Y130D02*
X350Y130D01*
X353Y130D02*
X355Y130D01*
X358Y130D02*
X359Y130D01*
X363Y130D02*
X364Y130D01*
X367Y130D02*
X368Y130D01*
X645Y130D02*
X652Y130D01*
X0Y129D02*
X7Y129D01*
X258Y129D02*
X262Y129D01*
X271Y129D02*
X272Y129D01*
X275Y129D02*
X275Y129D01*
X277Y129D02*
X280Y129D01*
X283Y129D02*
X290Y129D01*
X293Y129D02*
X298Y129D01*
X307Y129D02*
X307Y129D01*
X310Y129D02*
X311Y129D01*
X313Y129D02*
X316Y129D01*
X319Y129D02*
X320Y129D01*
X325Y129D02*
X325Y129D01*
X334Y129D02*
X335Y129D01*
X340Y129D02*
X341Y129D01*
X345Y129D02*
X349Y129D01*
X354Y129D02*
X359Y129D01*
X363Y129D02*
X368Y129D01*
X645Y129D02*
X652Y129D01*
X0Y128D02*
X7Y128D01*
X259Y128D02*
X260Y128D01*
X277Y128D02*
X279Y128D01*
X284Y128D02*
X285Y128D01*
X288Y128D02*
X289Y128D01*
X295Y128D02*
X296Y128D01*
X313Y128D02*
X314Y128D01*
X325Y128D02*
X325Y128D01*
X335Y128D02*
X335Y128D01*
X341Y128D02*
X341Y128D01*
X346Y128D02*
X348Y128D01*
X356Y128D02*
X359Y128D01*
X365Y128D02*
X366Y128D01*
X645Y128D02*
X652Y128D01*
X0Y127D02*
X7Y127D01*
X358Y127D02*
X359Y127D01*
X645Y127D02*
X652Y127D01*
X0Y126D02*
X7Y126D01*
X358Y126D02*
X359Y126D01*
X645Y126D02*
X652Y126D01*
X0Y125D02*
X7Y125D01*
X359Y125D02*
X359Y125D01*
X645Y125D02*
X652Y125D01*
X0Y124D02*
X7Y124D01*
X645Y124D02*
X652Y124D01*
X0Y123D02*
X7Y123D01*
X645Y123D02*
X652Y123D01*
X0Y122D02*
X7Y122D01*
X645Y122D02*
X652Y122D01*
X0Y121D02*
X7Y121D01*
X645Y121D02*
X652Y121D01*
X0Y120D02*
X7Y120D01*
X645Y120D02*
X652Y120D01*
X0Y119D02*
X7Y119D01*
X645Y119D02*
X652Y119D01*
X0Y118D02*
X7Y118D01*
X645Y118D02*
X652Y118D01*
X0Y117D02*
X7Y117D01*
X645Y117D02*
X652Y117D01*
X0Y116D02*
X7Y116D01*
X645Y116D02*
X652Y116D01*
X0Y115D02*
X7Y115D01*
X645Y115D02*
X652Y115D01*
X0Y114D02*
X7Y114D01*
X645Y114D02*
X652Y114D01*
X0Y113D02*
X7Y113D01*
X645Y113D02*
X652Y113D01*
X0Y112D02*
X7Y112D01*
X645Y112D02*
X652Y112D01*
X0Y111D02*
X7Y111D01*
X645Y111D02*
X652Y111D01*
X0Y110D02*
X7Y110D01*
X645Y110D02*
X652Y110D01*
X0Y109D02*
X7Y109D01*
X645Y109D02*
X652Y109D01*
X0Y108D02*
X7Y108D01*
X645Y108D02*
X652Y108D01*
X0Y107D02*
X7Y107D01*
X645Y107D02*
X652Y107D01*
X0Y106D02*
X7Y106D01*
X645Y106D02*
X652Y106D01*
X0Y105D02*
X7Y105D01*
X645Y105D02*
X652Y105D01*
X0Y104D02*
X7Y104D01*
X645Y104D02*
X652Y104D01*
X0Y103D02*
X7Y103D01*
X645Y103D02*
X652Y103D01*
X0Y102D02*
X7Y102D01*
X645Y102D02*
X652Y102D01*
X0Y101D02*
X7Y101D01*
X645Y101D02*
X652Y101D01*
X0Y100D02*
X7Y100D01*
X645Y100D02*
X652Y100D01*
X0Y99D02*
X7Y99D01*
X645Y99D02*
X652Y99D01*
X0Y98D02*
X7Y98D01*
X645Y98D02*
X652Y98D01*
X0Y97D02*
X7Y97D01*
X645Y97D02*
X652Y97D01*
X0Y96D02*
X7Y96D01*
X645Y96D02*
X652Y96D01*
X0Y95D02*
X7Y95D01*
X645Y95D02*
X652Y95D01*
X0Y94D02*
X7Y94D01*
X645Y94D02*
X652Y94D01*
X0Y93D02*
X7Y93D01*
X645Y93D02*
X652Y93D01*
X0Y92D02*
X7Y92D01*
X645Y92D02*
X652Y92D01*
X0Y91D02*
X7Y91D01*
X645Y91D02*
X652Y91D01*
X0Y90D02*
X7Y90D01*
X645Y90D02*
X652Y90D01*
X0Y89D02*
X7Y89D01*
X645Y89D02*
X652Y89D01*
X0Y88D02*
X7Y88D01*
X645Y88D02*
X652Y88D01*
X0Y87D02*
X7Y87D01*
X645Y87D02*
X652Y87D01*
X0Y86D02*
X7Y86D01*
X645Y86D02*
X652Y86D01*
X0Y85D02*
X7Y85D01*
X645Y85D02*
X652Y85D01*
X0Y84D02*
X7Y84D01*
X645Y84D02*
X652Y84D01*
X0Y83D02*
X7Y83D01*
X645Y83D02*
X652Y83D01*
X0Y82D02*
X7Y82D01*
X645Y82D02*
X652Y82D01*
X0Y81D02*
X7Y81D01*
X645Y81D02*
X652Y81D01*
X0Y80D02*
X7Y80D01*
X645Y80D02*
X652Y80D01*
X0Y79D02*
X7Y79D01*
X645Y79D02*
X652Y79D01*
X0Y78D02*
X7Y78D01*
X645Y78D02*
X652Y78D01*
X0Y77D02*
X7Y77D01*
X645Y77D02*
X652Y77D01*
X0Y76D02*
X7Y76D01*
X645Y76D02*
X652Y76D01*
X0Y75D02*
X7Y75D01*
X645Y75D02*
X652Y75D01*
X0Y74D02*
X7Y74D01*
X645Y74D02*
X652Y74D01*
X0Y73D02*
X7Y73D01*
X645Y73D02*
X652Y73D01*
X0Y72D02*
X7Y72D01*
X645Y72D02*
X652Y72D01*
X0Y71D02*
X7Y71D01*
X645Y71D02*
X652Y71D01*
X0Y70D02*
X7Y70D01*
X645Y70D02*
X652Y70D01*
X0Y69D02*
X7Y69D01*
X645Y69D02*
X652Y69D01*
X0Y68D02*
X7Y68D01*
X645Y68D02*
X652Y68D01*
X0Y67D02*
X7Y67D01*
X645Y67D02*
X652Y67D01*
X0Y66D02*
X7Y66D01*
X645Y66D02*
X652Y66D01*
X0Y65D02*
X7Y65D01*
X645Y65D02*
X652Y65D01*
X0Y64D02*
X7Y64D01*
X645Y64D02*
X652Y64D01*
X0Y63D02*
X7Y63D01*
X645Y63D02*
X652Y63D01*
X0Y62D02*
X7Y62D01*
X645Y62D02*
X652Y62D01*
X0Y61D02*
X7Y61D01*
X645Y61D02*
X652Y61D01*
X0Y60D02*
X7Y60D01*
X645Y60D02*
X652Y60D01*
X0Y59D02*
X7Y59D01*
X645Y59D02*
X652Y59D01*
X0Y58D02*
X7Y58D01*
X645Y58D02*
X652Y58D01*
X0Y57D02*
X7Y57D01*
X645Y57D02*
X652Y57D01*
X0Y56D02*
X7Y56D01*
X645Y56D02*
X652Y56D01*
X0Y55D02*
X7Y55D01*
X645Y55D02*
X652Y55D01*
X0Y54D02*
X7Y54D01*
X645Y54D02*
X652Y54D01*
X0Y53D02*
X7Y53D01*
X645Y53D02*
X652Y53D01*
X0Y52D02*
X7Y52D01*
X645Y52D02*
X652Y52D01*
X0Y51D02*
X7Y51D01*
X645Y51D02*
X652Y51D01*
X0Y50D02*
X7Y50D01*
X645Y50D02*
X652Y50D01*
X0Y49D02*
X7Y49D01*
X645Y49D02*
X652Y49D01*
X0Y48D02*
X7Y48D01*
X645Y48D02*
X652Y48D01*
X0Y47D02*
X7Y47D01*
X645Y47D02*
X652Y47D01*
X0Y46D02*
X7Y46D01*
X645Y46D02*
X652Y46D01*
X0Y45D02*
X7Y45D01*
X645Y45D02*
X652Y45D01*
X0Y44D02*
X7Y44D01*
X645Y44D02*
X652Y44D01*
X0Y43D02*
X7Y43D01*
X645Y43D02*
X652Y43D01*
X0Y42D02*
X7Y42D01*
X645Y42D02*
X652Y42D01*
X0Y41D02*
X7Y41D01*
X645Y41D02*
X652Y41D01*
X0Y40D02*
X7Y40D01*
X645Y40D02*
X652Y40D01*
X0Y39D02*
X7Y39D01*
X645Y39D02*
X652Y39D01*
X0Y38D02*
X7Y38D01*
X645Y38D02*
X652Y38D01*
X0Y37D02*
X7Y37D01*
X645Y37D02*
X652Y37D01*
X0Y36D02*
X7Y36D01*
X645Y36D02*
X652Y36D01*
X0Y35D02*
X7Y35D01*
X645Y35D02*
X652Y35D01*
X0Y34D02*
X7Y34D01*
X645Y34D02*
X652Y34D01*
X0Y33D02*
X7Y33D01*
X645Y33D02*
X652Y33D01*
X0Y32D02*
X7Y32D01*
X645Y32D02*
X652Y32D01*
X0Y31D02*
X7Y31D01*
X645Y31D02*
X652Y31D01*
X0Y30D02*
X7Y30D01*
X645Y30D02*
X652Y30D01*
X0Y29D02*
X7Y29D01*
X645Y29D02*
X652Y29D01*
X0Y28D02*
X7Y28D01*
X645Y28D02*
X652Y28D01*
X0Y27D02*
X7Y27D01*
X645Y27D02*
X652Y27D01*
X0Y26D02*
X7Y26D01*
X645Y26D02*
X652Y26D01*
X0Y25D02*
X7Y25D01*
X645Y25D02*
X652Y25D01*
X0Y24D02*
X7Y24D01*
X645Y24D02*
X652Y24D01*
X0Y23D02*
X7Y23D01*
X645Y23D02*
X652Y23D01*
X0Y22D02*
X7Y22D01*
X645Y22D02*
X652Y22D01*
X0Y21D02*
X7Y21D01*
X645Y21D02*
X652Y21D01*
X0Y20D02*
X7Y20D01*
X645Y20D02*
X652Y20D01*
X0Y19D02*
X7Y19D01*
X645Y19D02*
X652Y19D01*
X0Y18D02*
X7Y18D01*
X645Y18D02*
X652Y18D01*
X0Y17D02*
X7Y17D01*
X645Y17D02*
X652Y17D01*
X0Y16D02*
X7Y16D01*
X645Y16D02*
X652Y16D01*
X0Y15D02*
X7Y15D01*
X645Y15D02*
X652Y15D01*
X0Y14D02*
X7Y14D01*
X645Y14D02*
X652Y14D01*
X0Y13D02*
X7Y13D01*
X645Y13D02*
X652Y13D01*
X0Y12D02*
X7Y12D01*
X645Y12D02*
X652Y12D01*
X0Y11D02*
X7Y11D01*
X645Y11D02*
X652Y11D01*
X0Y10D02*
X7Y10D01*
X645Y10D02*
X652Y10D01*
X0Y9D02*
X652Y9D01*
X0Y8D02*
X652Y8D01*
X0Y7D02*
X652Y7D01*
X0Y6D02*
X652Y6D01*
X0Y5D02*
X652Y5D01*
X0Y4D02*
X652Y4D01*
X0Y3D02*
X652Y3D01*
X0Y2D02*
X652Y2D01*
D02*
G04 End of Silk0*
M02*