G04 MADE WITH FRITZING*
G04 WWW.FRITZING.ORG*
G04 DOUBLE SIDED*
G04 HOLES PLATED*
G04 CONTOUR ON CENTER OF CONTOUR VECTOR*
%ASAXBY*%
%FSLAX23Y23*%
%MOIN*%
%OFA0B0*%
%SFA1.0B1.0*%
%ADD10C,0.042426*%
%ADD11R,0.047244X0.043307*%
%ADD12C,0.016000*%
%ADD13R,0.001000X0.001000*%
%LNCOPPER1*%
G90*
G70*
G54D10*
X51Y259D03*
X101Y259D03*
X151Y259D03*
X201Y259D03*
X51Y64D03*
X101Y64D03*
X151Y64D03*
X201Y64D03*
G54D11*
X100Y190D03*
X167Y190D03*
X100Y125D03*
X167Y125D03*
G54D12*
X100Y206D02*
X100Y242D01*
D02*
X82Y125D02*
X64Y125D01*
D02*
X64Y125D02*
X50Y137D01*
D02*
X50Y137D02*
X51Y242D01*
D02*
X167Y174D02*
X167Y141D01*
G54D13*
X198Y267D02*
X202Y267D01*
X196Y266D02*
X204Y266D01*
X195Y265D02*
X205Y265D01*
X194Y264D02*
X206Y264D01*
X194Y263D02*
X207Y263D01*
X193Y262D02*
X207Y262D01*
X193Y261D02*
X207Y261D01*
X193Y260D02*
X208Y260D01*
X193Y259D02*
X208Y259D01*
X193Y258D02*
X208Y258D01*
X193Y257D02*
X208Y257D01*
X193Y256D02*
X208Y256D01*
X193Y255D02*
X208Y255D01*
X193Y254D02*
X208Y254D01*
X193Y253D02*
X208Y253D01*
X193Y252D02*
X208Y252D01*
X193Y251D02*
X208Y251D01*
X193Y250D02*
X208Y250D01*
X193Y249D02*
X208Y249D01*
X193Y248D02*
X208Y248D01*
X193Y247D02*
X208Y247D01*
X193Y246D02*
X208Y246D01*
X193Y245D02*
X208Y245D01*
X193Y244D02*
X208Y244D01*
X193Y243D02*
X208Y243D01*
X193Y242D02*
X208Y242D01*
X193Y241D02*
X208Y241D01*
X193Y240D02*
X208Y240D01*
X193Y239D02*
X208Y239D01*
X193Y238D02*
X208Y238D01*
X193Y237D02*
X208Y237D01*
X193Y236D02*
X208Y236D01*
X193Y235D02*
X208Y235D01*
X193Y234D02*
X207Y234D01*
X192Y233D02*
X207Y233D01*
X192Y232D02*
X207Y232D01*
X192Y231D02*
X207Y231D01*
X192Y230D02*
X207Y230D01*
X192Y229D02*
X207Y229D01*
X191Y228D02*
X207Y228D01*
X191Y227D02*
X206Y227D01*
X191Y226D02*
X206Y226D01*
X191Y225D02*
X206Y225D01*
X191Y224D02*
X206Y224D01*
X190Y223D02*
X205Y223D01*
X190Y222D02*
X205Y222D01*
X190Y221D02*
X205Y221D01*
X189Y220D02*
X205Y220D01*
X189Y219D02*
X204Y219D01*
X188Y218D02*
X204Y218D01*
X188Y217D02*
X204Y217D01*
X188Y216D02*
X203Y216D01*
X187Y215D02*
X203Y215D01*
X187Y214D02*
X203Y214D01*
X186Y213D02*
X202Y213D01*
X186Y212D02*
X202Y212D01*
X185Y211D02*
X202Y211D01*
X184Y210D02*
X201Y210D01*
X184Y209D02*
X201Y209D01*
X183Y208D02*
X200Y208D01*
X182Y207D02*
X200Y207D01*
X182Y206D02*
X199Y206D01*
X181Y205D02*
X199Y205D01*
X180Y204D02*
X198Y204D01*
X179Y203D02*
X198Y203D01*
X178Y202D02*
X197Y202D01*
X177Y201D02*
X196Y201D01*
X176Y200D02*
X196Y200D01*
X175Y199D02*
X195Y199D01*
X164Y198D02*
X169Y198D01*
X174Y198D02*
X195Y198D01*
X162Y197D02*
X194Y197D01*
X161Y196D02*
X193Y196D01*
X160Y195D02*
X192Y195D01*
X160Y194D02*
X192Y194D01*
X159Y193D02*
X191Y193D01*
X159Y192D02*
X190Y192D01*
X159Y191D02*
X189Y191D01*
X159Y190D02*
X188Y190D01*
X159Y189D02*
X187Y189D01*
X159Y188D02*
X186Y188D01*
X160Y187D02*
X184Y187D01*
X160Y186D02*
X183Y186D01*
X161Y185D02*
X182Y185D01*
X162Y184D02*
X180Y184D01*
X163Y183D02*
X179Y183D01*
X165Y182D02*
X176Y182D01*
X167Y181D02*
X174Y181D01*
X164Y133D02*
X169Y133D01*
X162Y132D02*
X171Y132D01*
X161Y131D02*
X174Y131D01*
X160Y130D02*
X176Y130D01*
X160Y129D02*
X178Y129D01*
X159Y128D02*
X180Y128D01*
X159Y127D02*
X181Y127D01*
X159Y126D02*
X183Y126D01*
X159Y125D02*
X184Y125D01*
X159Y124D02*
X186Y124D01*
X159Y123D02*
X187Y123D01*
X160Y122D02*
X188Y122D01*
X160Y121D02*
X189Y121D01*
X161Y120D02*
X190Y120D01*
X162Y119D02*
X191Y119D01*
X164Y118D02*
X192Y118D01*
X167Y117D02*
X193Y117D01*
X169Y116D02*
X194Y116D01*
X171Y115D02*
X195Y115D01*
X173Y114D02*
X196Y114D01*
X175Y113D02*
X196Y113D01*
X176Y112D02*
X197Y112D01*
X177Y111D02*
X198Y111D01*
X179Y110D02*
X199Y110D01*
X180Y109D02*
X199Y109D01*
X181Y108D02*
X200Y108D01*
X182Y107D02*
X200Y107D01*
X183Y106D02*
X201Y106D01*
X184Y105D02*
X201Y105D01*
X184Y104D02*
X202Y104D01*
X185Y103D02*
X202Y103D01*
X186Y102D02*
X203Y102D01*
X187Y101D02*
X203Y101D01*
X187Y100D02*
X204Y100D01*
X188Y99D02*
X204Y99D01*
X188Y98D02*
X204Y98D01*
X189Y97D02*
X205Y97D01*
X189Y96D02*
X205Y96D01*
X190Y95D02*
X205Y95D01*
X190Y94D02*
X206Y94D01*
X191Y93D02*
X206Y93D01*
X191Y92D02*
X206Y92D01*
X191Y91D02*
X206Y91D01*
X192Y90D02*
X207Y90D01*
X192Y89D02*
X207Y89D01*
X192Y88D02*
X207Y88D01*
X192Y87D02*
X207Y87D01*
X192Y86D02*
X207Y86D01*
X193Y85D02*
X208Y85D01*
X193Y84D02*
X208Y84D01*
X193Y83D02*
X208Y83D01*
X193Y82D02*
X208Y82D01*
X193Y81D02*
X208Y81D01*
X193Y80D02*
X208Y80D01*
X193Y79D02*
X208Y79D01*
X193Y78D02*
X208Y78D01*
X193Y77D02*
X208Y77D01*
X193Y76D02*
X208Y76D01*
X193Y75D02*
X208Y75D01*
X193Y74D02*
X208Y74D01*
X193Y73D02*
X208Y73D01*
X193Y72D02*
X208Y72D01*
X193Y71D02*
X208Y71D01*
X193Y70D02*
X208Y70D01*
X193Y69D02*
X208Y69D01*
X193Y68D02*
X208Y68D01*
X193Y67D02*
X208Y67D01*
X193Y66D02*
X208Y66D01*
X193Y65D02*
X208Y65D01*
X193Y64D02*
X208Y64D01*
X193Y63D02*
X207Y63D01*
X193Y62D02*
X207Y62D01*
X193Y61D02*
X207Y61D01*
X194Y60D02*
X206Y60D01*
X195Y59D02*
X205Y59D01*
X196Y58D02*
X204Y58D01*
X198Y57D02*
X202Y57D01*
D02*
G04 End of Copper1*
M02*