G04 MADE WITH FRITZING*
G04 WWW.FRITZING.ORG*
G04 DOUBLE SIDED*
G04 HOLES PLATED*
G04 CONTOUR ON CENTER OF CONTOUR VECTOR*
%ASAXBY*%
%FSLAX23Y23*%
%MOIN*%
%OFA0B0*%
%SFA1.0B1.0*%
%ADD10R,0.655324X0.456693X0.639324X0.440693*%
%ADD11C,0.008000*%
%ADD12R,0.001000X0.001000*%
%LNSILK0*%
G90*
G70*
G54D11*
X4Y453D02*
X651Y453D01*
X651Y4D01*
X4Y4D01*
X4Y453D01*
D02*
G36*
X566Y148D02*
X597Y148D01*
X597Y117D01*
X566Y117D01*
X566Y148D01*
G37*
D02*
G36*
X533Y148D02*
X564Y148D01*
X564Y117D01*
X533Y117D01*
X533Y148D01*
G37*
D02*
G36*
X599Y148D02*
X630Y148D01*
X630Y117D01*
X599Y117D01*
X599Y148D01*
G37*
D02*
G36*
X508Y366D02*
X508Y365D01*
X511Y365D01*
X511Y365D01*
X512Y365D01*
X512Y364D01*
X513Y364D01*
X513Y364D01*
X512Y364D01*
X512Y363D01*
X511Y363D01*
X511Y363D01*
X511Y363D01*
X511Y362D01*
X510Y362D01*
X510Y362D01*
X510Y362D01*
X510Y361D01*
X509Y361D01*
X509Y360D01*
X509Y360D01*
X509Y360D01*
X421Y360D01*
X421Y359D01*
X419Y359D01*
X419Y359D01*
X418Y359D01*
X418Y358D01*
X417Y358D01*
X417Y358D01*
X416Y358D01*
X416Y357D01*
X415Y357D01*
X415Y357D01*
X414Y357D01*
X414Y356D01*
X414Y356D01*
X414Y356D01*
X413Y356D01*
X413Y355D01*
X413Y355D01*
X413Y355D01*
X412Y355D01*
X412Y353D01*
X412Y353D01*
X412Y353D01*
X411Y353D01*
X411Y352D01*
X411Y352D01*
X411Y350D01*
X410Y350D01*
X410Y271D01*
X404Y271D01*
X404Y355D01*
X405Y355D01*
X405Y357D01*
X405Y357D01*
X405Y358D01*
X406Y358D01*
X406Y359D01*
X406Y359D01*
X406Y359D01*
X407Y359D01*
X407Y360D01*
X407Y360D01*
X407Y361D01*
X408Y361D01*
X408Y362D01*
X408Y362D01*
X408Y362D01*
X409Y362D01*
X409Y363D01*
X410Y363D01*
X410Y363D01*
X411Y363D01*
X411Y364D01*
X412Y364D01*
X412Y364D01*
X413Y364D01*
X413Y365D01*
X414Y365D01*
X414Y365D01*
X417Y365D01*
X417Y366D01*
X508Y366D01*
G37*
D02*
G36*
X508Y360D02*
X508Y359D01*
X508Y359D01*
X508Y359D01*
X507Y359D01*
X507Y358D01*
X507Y358D01*
X507Y358D01*
X506Y358D01*
X506Y357D01*
X505Y357D01*
X505Y357D01*
X505Y357D01*
X505Y356D01*
X504Y356D01*
X504Y356D01*
X504Y356D01*
X504Y355D01*
X503Y355D01*
X503Y355D01*
X503Y355D01*
X503Y354D01*
X502Y354D01*
X502Y353D01*
X502Y353D01*
X502Y353D01*
X501Y353D01*
X501Y352D01*
X501Y352D01*
X501Y352D01*
X500Y352D01*
X500Y351D01*
X499Y351D01*
X499Y351D01*
X499Y351D01*
X499Y350D01*
X498Y350D01*
X498Y350D01*
X498Y350D01*
X498Y349D01*
X497Y349D01*
X497Y349D01*
X497Y349D01*
X497Y348D01*
X496Y348D01*
X496Y347D01*
X496Y347D01*
X496Y347D01*
X495Y347D01*
X495Y346D01*
X495Y346D01*
X495Y346D01*
X494Y346D01*
X494Y345D01*
X494Y345D01*
X494Y345D01*
X493Y345D01*
X493Y344D01*
X492Y344D01*
X492Y344D01*
X492Y344D01*
X492Y343D01*
X491Y343D01*
X491Y343D01*
X491Y343D01*
X491Y342D01*
X490Y342D01*
X490Y342D01*
X490Y342D01*
X490Y341D01*
X489Y341D01*
X489Y340D01*
X489Y340D01*
X489Y340D01*
X488Y340D01*
X488Y339D01*
X488Y339D01*
X488Y339D01*
X487Y339D01*
X487Y338D01*
X486Y338D01*
X486Y338D01*
X486Y338D01*
X486Y337D01*
X485Y337D01*
X485Y337D01*
X485Y337D01*
X485Y336D01*
X484Y336D01*
X484Y336D01*
X484Y336D01*
X484Y335D01*
X475Y335D01*
X475Y336D01*
X476Y336D01*
X476Y336D01*
X476Y336D01*
X476Y337D01*
X477Y337D01*
X477Y337D01*
X477Y337D01*
X477Y338D01*
X478Y338D01*
X478Y338D01*
X478Y338D01*
X478Y339D01*
X479Y339D01*
X479Y339D01*
X479Y339D01*
X479Y340D01*
X480Y340D01*
X480Y340D01*
X481Y340D01*
X481Y341D01*
X481Y341D01*
X481Y342D01*
X482Y342D01*
X482Y342D01*
X482Y342D01*
X482Y343D01*
X483Y343D01*
X483Y343D01*
X483Y343D01*
X483Y344D01*
X484Y344D01*
X484Y344D01*
X484Y344D01*
X484Y345D01*
X485Y345D01*
X485Y345D01*
X485Y345D01*
X485Y346D01*
X486Y346D01*
X486Y346D01*
X486Y346D01*
X486Y347D01*
X487Y347D01*
X487Y347D01*
X488Y347D01*
X488Y348D01*
X488Y348D01*
X488Y349D01*
X489Y349D01*
X489Y349D01*
X489Y349D01*
X489Y350D01*
X490Y350D01*
X490Y350D01*
X490Y350D01*
X490Y351D01*
X491Y351D01*
X491Y351D01*
X491Y351D01*
X491Y352D01*
X492Y352D01*
X492Y352D01*
X492Y352D01*
X492Y353D01*
X493Y353D01*
X493Y353D01*
X494Y353D01*
X494Y354D01*
X494Y354D01*
X494Y355D01*
X495Y355D01*
X495Y355D01*
X495Y355D01*
X495Y356D01*
X496Y356D01*
X496Y356D01*
X496Y356D01*
X496Y357D01*
X497Y357D01*
X497Y357D01*
X497Y357D01*
X497Y358D01*
X498Y358D01*
X498Y358D01*
X498Y358D01*
X498Y359D01*
X499Y359D01*
X499Y360D01*
X508Y360D01*
G37*
D02*
G36*
X424Y352D02*
X424Y352D01*
X424Y352D01*
X424Y351D01*
X425Y351D01*
X425Y351D01*
X421Y351D01*
X421Y350D01*
X420Y350D01*
X420Y349D01*
X421Y349D01*
X421Y347D01*
X419Y347D01*
X419Y348D01*
X419Y348D01*
X419Y350D01*
X419Y350D01*
X419Y351D01*
X420Y351D01*
X420Y352D01*
X420Y352D01*
X420Y352D01*
X424Y352D01*
G37*
D02*
G36*
X443Y352D02*
X443Y351D01*
X444Y351D01*
X444Y351D01*
X444Y351D01*
X444Y350D01*
X440Y350D01*
X440Y350D01*
X440Y350D01*
X440Y347D01*
X440Y347D01*
X440Y347D01*
X438Y347D01*
X438Y350D01*
X439Y350D01*
X439Y351D01*
X439Y351D01*
X439Y351D01*
X440Y351D01*
X440Y352D01*
X443Y352D01*
G37*
D02*
G36*
X461Y351D02*
X461Y350D01*
X462Y350D01*
X462Y350D01*
X463Y350D01*
X463Y349D01*
X459Y349D01*
X459Y349D01*
X458Y349D01*
X458Y346D01*
X459Y346D01*
X459Y346D01*
X457Y346D01*
X457Y347D01*
X456Y347D01*
X456Y348D01*
X457Y348D01*
X457Y349D01*
X457Y349D01*
X457Y350D01*
X458Y350D01*
X458Y350D01*
X458Y350D01*
X458Y351D01*
X461Y351D01*
G37*
D02*
G36*
X425Y351D02*
X425Y347D01*
X423Y347D01*
X423Y348D01*
X424Y348D01*
X424Y350D01*
X423Y350D01*
X423Y351D01*
X425Y351D01*
G37*
D02*
G36*
X445Y350D02*
X445Y347D01*
X443Y347D01*
X443Y347D01*
X443Y347D01*
X443Y350D01*
X442Y350D01*
X442Y350D01*
X445Y350D01*
G37*
D02*
G36*
X463Y349D02*
X463Y349D01*
X463Y349D01*
X463Y346D01*
X463Y346D01*
X463Y346D01*
X461Y346D01*
X461Y347D01*
X462Y347D01*
X462Y348D01*
X461Y348D01*
X461Y349D01*
X460Y349D01*
X460Y349D01*
X463Y349D01*
G37*
D02*
G36*
X425Y347D02*
X425Y347D01*
X419Y347D01*
X419Y347D01*
X425Y347D01*
G37*
D02*
G36*
X425Y347D02*
X425Y347D01*
X419Y347D01*
X419Y347D01*
X425Y347D01*
G37*
D02*
G36*
X444Y347D02*
X444Y346D01*
X439Y346D01*
X439Y347D01*
X444Y347D01*
G37*
D02*
G36*
X444Y347D02*
X444Y346D01*
X439Y346D01*
X439Y347D01*
X444Y347D01*
G37*
D02*
G36*
X425Y347D02*
X425Y346D01*
X426Y346D01*
X426Y346D01*
X426Y346D01*
X426Y345D01*
X427Y345D01*
X427Y345D01*
X427Y345D01*
X427Y344D01*
X428Y344D01*
X428Y344D01*
X429Y344D01*
X429Y343D01*
X429Y343D01*
X429Y343D01*
X430Y343D01*
X430Y342D01*
X430Y342D01*
X430Y342D01*
X431Y342D01*
X431Y341D01*
X431Y341D01*
X431Y340D01*
X432Y340D01*
X432Y340D01*
X432Y340D01*
X432Y339D01*
X433Y339D01*
X433Y339D01*
X433Y339D01*
X433Y338D01*
X434Y338D01*
X434Y338D01*
X434Y338D01*
X434Y337D01*
X435Y337D01*
X435Y337D01*
X436Y337D01*
X436Y336D01*
X436Y336D01*
X436Y336D01*
X437Y336D01*
X437Y335D01*
X437Y335D01*
X437Y334D01*
X438Y334D01*
X438Y334D01*
X438Y334D01*
X438Y333D01*
X439Y333D01*
X439Y333D01*
X439Y333D01*
X439Y332D01*
X440Y332D01*
X440Y332D01*
X440Y332D01*
X440Y331D01*
X441Y331D01*
X441Y331D01*
X442Y331D01*
X442Y330D01*
X442Y330D01*
X442Y330D01*
X443Y330D01*
X443Y329D01*
X443Y329D01*
X443Y329D01*
X444Y329D01*
X444Y328D01*
X444Y328D01*
X444Y327D01*
X445Y327D01*
X445Y327D01*
X445Y327D01*
X445Y314D01*
X446Y314D01*
X446Y312D01*
X444Y312D01*
X444Y326D01*
X444Y326D01*
X444Y327D01*
X443Y327D01*
X443Y327D01*
X443Y327D01*
X443Y328D01*
X442Y328D01*
X442Y329D01*
X442Y329D01*
X442Y329D01*
X441Y329D01*
X441Y330D01*
X440Y330D01*
X440Y330D01*
X440Y330D01*
X440Y331D01*
X439Y331D01*
X439Y331D01*
X439Y331D01*
X439Y332D01*
X438Y332D01*
X438Y332D01*
X438Y332D01*
X438Y333D01*
X437Y333D01*
X437Y333D01*
X437Y333D01*
X437Y334D01*
X436Y334D01*
X436Y334D01*
X436Y334D01*
X436Y335D01*
X435Y335D01*
X435Y336D01*
X434Y336D01*
X434Y336D01*
X434Y336D01*
X434Y337D01*
X433Y337D01*
X433Y337D01*
X433Y337D01*
X433Y338D01*
X432Y338D01*
X432Y338D01*
X432Y338D01*
X432Y339D01*
X431Y339D01*
X431Y339D01*
X431Y339D01*
X431Y340D01*
X430Y340D01*
X430Y340D01*
X430Y340D01*
X430Y341D01*
X429Y341D01*
X429Y342D01*
X429Y342D01*
X429Y342D01*
X428Y342D01*
X428Y343D01*
X427Y343D01*
X427Y343D01*
X427Y343D01*
X427Y344D01*
X426Y344D01*
X426Y344D01*
X426Y344D01*
X426Y345D01*
X425Y345D01*
X425Y345D01*
X425Y345D01*
X425Y346D01*
X420Y346D01*
X420Y346D01*
X420Y346D01*
X420Y347D01*
X425Y347D01*
G37*
D02*
G36*
X444Y346D02*
X444Y346D01*
X443Y346D01*
X443Y345D01*
X442Y345D01*
X442Y341D01*
X442Y341D01*
X442Y340D01*
X443Y340D01*
X443Y340D01*
X443Y340D01*
X443Y339D01*
X444Y339D01*
X444Y339D01*
X444Y339D01*
X444Y338D01*
X445Y338D01*
X445Y338D01*
X445Y338D01*
X445Y337D01*
X446Y337D01*
X446Y337D01*
X446Y337D01*
X446Y336D01*
X447Y336D01*
X447Y336D01*
X447Y336D01*
X447Y335D01*
X448Y335D01*
X448Y334D01*
X449Y334D01*
X449Y334D01*
X449Y334D01*
X449Y333D01*
X450Y333D01*
X450Y333D01*
X450Y333D01*
X450Y332D01*
X451Y332D01*
X451Y332D01*
X451Y332D01*
X451Y331D01*
X452Y331D01*
X452Y331D01*
X452Y331D01*
X452Y330D01*
X453Y330D01*
X453Y330D01*
X453Y330D01*
X453Y329D01*
X454Y329D01*
X454Y329D01*
X455Y329D01*
X455Y320D01*
X453Y320D01*
X453Y327D01*
X453Y327D01*
X453Y328D01*
X452Y328D01*
X452Y329D01*
X452Y329D01*
X452Y329D01*
X451Y329D01*
X451Y330D01*
X451Y330D01*
X451Y330D01*
X450Y330D01*
X450Y331D01*
X450Y331D01*
X450Y331D01*
X449Y331D01*
X449Y332D01*
X449Y332D01*
X449Y332D01*
X448Y332D01*
X448Y333D01*
X447Y333D01*
X447Y333D01*
X447Y333D01*
X447Y334D01*
X446Y334D01*
X446Y334D01*
X446Y334D01*
X446Y335D01*
X445Y335D01*
X445Y336D01*
X445Y336D01*
X445Y336D01*
X444Y336D01*
X444Y337D01*
X444Y337D01*
X444Y337D01*
X443Y337D01*
X443Y338D01*
X443Y338D01*
X443Y338D01*
X442Y338D01*
X442Y339D01*
X442Y339D01*
X442Y339D01*
X441Y339D01*
X441Y340D01*
X440Y340D01*
X440Y345D01*
X440Y345D01*
X440Y346D01*
X439Y346D01*
X439Y346D01*
X444Y346D01*
G37*
D02*
G36*
X463Y346D02*
X463Y345D01*
X457Y345D01*
X457Y346D01*
X463Y346D01*
G37*
D02*
G36*
X463Y346D02*
X463Y345D01*
X457Y345D01*
X457Y346D01*
X463Y346D01*
G37*
D02*
G36*
X463Y345D02*
X463Y344D01*
X460Y344D01*
X460Y344D01*
X459Y344D01*
X459Y344D01*
X458Y344D01*
X458Y345D01*
X457Y345D01*
X457Y345D01*
X463Y345D01*
G37*
D02*
G36*
X463Y344D02*
X463Y344D01*
X464Y344D01*
X464Y343D01*
X464Y343D01*
X464Y343D01*
X465Y343D01*
X465Y342D01*
X465Y342D01*
X465Y342D01*
X466Y342D01*
X466Y341D01*
X466Y341D01*
X466Y340D01*
X467Y340D01*
X467Y340D01*
X468Y340D01*
X468Y339D01*
X468Y339D01*
X468Y339D01*
X469Y339D01*
X469Y338D01*
X469Y338D01*
X469Y338D01*
X470Y338D01*
X470Y337D01*
X470Y337D01*
X470Y337D01*
X471Y337D01*
X471Y336D01*
X469Y336D01*
X469Y337D01*
X469Y337D01*
X469Y337D01*
X468Y337D01*
X468Y338D01*
X468Y338D01*
X468Y338D01*
X467Y338D01*
X467Y339D01*
X466Y339D01*
X466Y339D01*
X466Y339D01*
X466Y340D01*
X465Y340D01*
X465Y340D01*
X465Y340D01*
X465Y341D01*
X464Y341D01*
X464Y342D01*
X464Y342D01*
X464Y342D01*
X463Y342D01*
X463Y343D01*
X463Y343D01*
X463Y343D01*
X462Y343D01*
X462Y344D01*
X462Y344D01*
X462Y344D01*
X463Y344D01*
G37*
D02*
G36*
X457Y340D02*
X457Y339D01*
X458Y339D01*
X458Y339D01*
X458Y339D01*
X458Y338D01*
X455Y338D01*
X455Y338D01*
X454Y338D01*
X454Y336D01*
X455Y336D01*
X455Y335D01*
X452Y335D01*
X452Y338D01*
X453Y338D01*
X453Y339D01*
X453Y339D01*
X453Y339D01*
X454Y339D01*
X454Y340D01*
X457Y340D01*
G37*
D02*
G36*
X459Y338D02*
X459Y335D01*
X457Y335D01*
X457Y336D01*
X457Y336D01*
X457Y338D01*
X457Y338D01*
X457Y338D01*
X459Y338D01*
G37*
D02*
G36*
X473Y337D02*
X473Y336D01*
X472Y336D01*
X472Y337D01*
X473Y337D01*
G37*
D02*
G36*
X473Y336D02*
X473Y336D01*
X470Y336D01*
X470Y336D01*
X473Y336D01*
G37*
D02*
G36*
X473Y336D02*
X473Y336D01*
X470Y336D01*
X470Y336D01*
X473Y336D01*
G37*
D02*
G36*
X474Y336D02*
X474Y335D01*
X470Y335D01*
X470Y336D01*
X474Y336D01*
G37*
D02*
G36*
X483Y335D02*
X483Y334D01*
X470Y334D01*
X470Y335D01*
X483Y335D01*
G37*
D02*
G36*
X483Y335D02*
X483Y334D01*
X470Y334D01*
X470Y335D01*
X483Y335D01*
G37*
D02*
G36*
X458Y335D02*
X458Y334D01*
X453Y334D01*
X453Y335D01*
X458Y335D01*
G37*
D02*
G36*
X458Y335D02*
X458Y334D01*
X453Y334D01*
X453Y335D01*
X458Y335D01*
G37*
D02*
G36*
X483Y334D02*
X483Y334D01*
X482Y334D01*
X482Y333D01*
X482Y333D01*
X482Y333D01*
X481Y333D01*
X481Y332D01*
X481Y332D01*
X481Y332D01*
X480Y332D01*
X480Y331D01*
X479Y331D01*
X479Y331D01*
X479Y331D01*
X479Y330D01*
X478Y330D01*
X478Y330D01*
X478Y330D01*
X478Y329D01*
X477Y329D01*
X477Y329D01*
X477Y329D01*
X477Y328D01*
X476Y328D01*
X476Y327D01*
X468Y327D01*
X468Y328D01*
X468Y328D01*
X468Y329D01*
X469Y329D01*
X469Y329D01*
X469Y329D01*
X469Y330D01*
X470Y330D01*
X470Y330D01*
X470Y330D01*
X470Y331D01*
X471Y331D01*
X471Y332D01*
X470Y332D01*
X470Y333D01*
X470Y333D01*
X470Y333D01*
X469Y333D01*
X469Y334D01*
X470Y334D01*
X470Y334D01*
X483Y334D01*
G37*
D02*
G36*
X458Y334D02*
X458Y334D01*
X459Y334D01*
X459Y333D01*
X459Y333D01*
X459Y333D01*
X460Y333D01*
X460Y332D01*
X460Y332D01*
X460Y332D01*
X461Y332D01*
X461Y331D01*
X462Y331D01*
X462Y331D01*
X462Y331D01*
X462Y330D01*
X463Y330D01*
X463Y330D01*
X463Y330D01*
X463Y329D01*
X462Y329D01*
X462Y330D01*
X461Y330D01*
X461Y330D01*
X460Y330D01*
X460Y331D01*
X460Y331D01*
X460Y331D01*
X459Y331D01*
X459Y332D01*
X459Y332D01*
X459Y332D01*
X458Y332D01*
X458Y333D01*
X458Y333D01*
X458Y333D01*
X454Y333D01*
X454Y334D01*
X453Y334D01*
X453Y334D01*
X458Y334D01*
G37*
D02*
G36*
X429Y331D02*
X429Y330D01*
X429Y330D01*
X429Y330D01*
X430Y330D01*
X430Y329D01*
X426Y329D01*
X426Y329D01*
X425Y329D01*
X425Y326D01*
X426Y326D01*
X426Y326D01*
X424Y326D01*
X424Y329D01*
X424Y329D01*
X424Y330D01*
X425Y330D01*
X425Y330D01*
X425Y330D01*
X425Y331D01*
X429Y331D01*
G37*
D02*
G36*
X465Y330D02*
X465Y329D01*
X464Y329D01*
X464Y330D01*
X465Y330D01*
G37*
D02*
G36*
X465Y329D02*
X465Y329D01*
X462Y329D01*
X462Y329D01*
X465Y329D01*
G37*
D02*
G36*
X465Y329D02*
X465Y329D01*
X462Y329D01*
X462Y329D01*
X465Y329D01*
G37*
D02*
G36*
X430Y329D02*
X430Y329D01*
X430Y329D01*
X430Y326D01*
X428Y326D01*
X428Y327D01*
X429Y327D01*
X429Y328D01*
X428Y328D01*
X428Y329D01*
X427Y329D01*
X427Y329D01*
X430Y329D01*
G37*
D02*
G36*
X466Y329D02*
X466Y328D01*
X466Y328D01*
X466Y327D01*
X463Y327D01*
X463Y329D01*
X466Y329D01*
G37*
D02*
G36*
X476Y327D02*
X476Y327D01*
X462Y327D01*
X462Y327D01*
X476Y327D01*
G37*
D02*
G36*
X476Y327D02*
X476Y327D01*
X462Y327D01*
X462Y327D01*
X476Y327D01*
G37*
D02*
G36*
X475Y327D02*
X475Y326D01*
X475Y326D01*
X475Y326D01*
X474Y326D01*
X474Y325D01*
X473Y325D01*
X473Y325D01*
X473Y325D01*
X473Y324D01*
X472Y324D01*
X472Y324D01*
X472Y324D01*
X472Y323D01*
X471Y323D01*
X471Y323D01*
X471Y323D01*
X471Y322D01*
X470Y322D01*
X470Y321D01*
X470Y321D01*
X470Y321D01*
X469Y321D01*
X469Y320D01*
X469Y320D01*
X469Y320D01*
X468Y320D01*
X468Y319D01*
X459Y319D01*
X459Y320D01*
X460Y320D01*
X460Y320D01*
X460Y320D01*
X460Y321D01*
X461Y321D01*
X461Y321D01*
X462Y321D01*
X462Y322D01*
X462Y322D01*
X462Y323D01*
X463Y323D01*
X463Y323D01*
X463Y323D01*
X463Y324D01*
X464Y324D01*
X464Y324D01*
X463Y324D01*
X463Y325D01*
X463Y325D01*
X463Y325D01*
X462Y325D01*
X462Y326D01*
X462Y326D01*
X462Y327D01*
X475Y327D01*
G37*
D02*
G36*
X430Y326D02*
X430Y325D01*
X424Y325D01*
X424Y326D01*
X430Y326D01*
G37*
D02*
G36*
X430Y326D02*
X430Y325D01*
X424Y325D01*
X424Y326D01*
X430Y326D01*
G37*
D02*
G36*
X430Y325D02*
X430Y325D01*
X431Y325D01*
X431Y324D01*
X431Y324D01*
X431Y324D01*
X432Y324D01*
X432Y323D01*
X432Y323D01*
X432Y323D01*
X433Y323D01*
X433Y322D01*
X433Y322D01*
X433Y321D01*
X434Y321D01*
X434Y321D01*
X434Y321D01*
X434Y320D01*
X435Y320D01*
X435Y320D01*
X436Y320D01*
X436Y319D01*
X436Y319D01*
X436Y319D01*
X437Y319D01*
X437Y318D01*
X437Y318D01*
X437Y318D01*
X438Y318D01*
X438Y305D01*
X438Y305D01*
X438Y304D01*
X437Y304D01*
X437Y317D01*
X436Y317D01*
X436Y317D01*
X436Y317D01*
X436Y318D01*
X435Y318D01*
X435Y318D01*
X434Y318D01*
X434Y319D01*
X434Y319D01*
X434Y319D01*
X433Y319D01*
X433Y320D01*
X433Y320D01*
X433Y320D01*
X432Y320D01*
X432Y321D01*
X432Y321D01*
X432Y321D01*
X431Y321D01*
X431Y322D01*
X431Y322D01*
X431Y323D01*
X430Y323D01*
X430Y323D01*
X430Y323D01*
X430Y324D01*
X429Y324D01*
X429Y324D01*
X425Y324D01*
X425Y325D01*
X424Y325D01*
X424Y325D01*
X430Y325D01*
G37*
D02*
G36*
X457Y321D02*
X457Y321D01*
X457Y321D01*
X457Y320D01*
X456Y320D01*
X456Y321D01*
X456Y321D01*
X456Y321D01*
X457Y321D01*
G37*
D02*
G36*
X458Y320D02*
X458Y320D01*
X453Y320D01*
X453Y320D01*
X458Y320D01*
G37*
D02*
G36*
X458Y320D02*
X458Y320D01*
X453Y320D01*
X453Y320D01*
X458Y320D01*
G37*
D02*
G36*
X458Y320D02*
X458Y319D01*
X453Y319D01*
X453Y320D01*
X458Y320D01*
G37*
D02*
G36*
X468Y319D02*
X468Y319D01*
X454Y319D01*
X454Y319D01*
X468Y319D01*
G37*
D02*
G36*
X468Y319D02*
X468Y319D01*
X454Y319D01*
X454Y319D01*
X468Y319D01*
G37*
D02*
G36*
X467Y319D02*
X467Y318D01*
X466Y318D01*
X466Y318D01*
X466Y318D01*
X466Y317D01*
X465Y317D01*
X465Y317D01*
X465Y317D01*
X465Y316D01*
X464Y316D01*
X464Y316D01*
X464Y316D01*
X464Y315D01*
X463Y315D01*
X463Y314D01*
X463Y314D01*
X463Y314D01*
X462Y314D01*
X462Y313D01*
X462Y313D01*
X462Y313D01*
X461Y313D01*
X461Y312D01*
X460Y312D01*
X460Y312D01*
X460Y312D01*
X460Y311D01*
X459Y311D01*
X459Y311D01*
X451Y311D01*
X451Y311D01*
X451Y311D01*
X451Y312D01*
X452Y312D01*
X452Y312D01*
X452Y312D01*
X452Y313D01*
X453Y313D01*
X453Y313D01*
X453Y313D01*
X453Y314D01*
X454Y314D01*
X454Y314D01*
X455Y314D01*
X455Y315D01*
X455Y315D01*
X455Y317D01*
X455Y317D01*
X455Y317D01*
X454Y317D01*
X454Y318D01*
X453Y318D01*
X453Y319D01*
X467Y319D01*
G37*
D02*
G36*
X448Y313D02*
X448Y312D01*
X449Y312D01*
X449Y312D01*
X447Y312D01*
X447Y312D01*
X447Y312D01*
X447Y313D01*
X448Y313D01*
G37*
D02*
G36*
X421Y313D02*
X421Y312D01*
X423Y312D01*
X423Y312D01*
X423Y312D01*
X423Y311D01*
X424Y311D01*
X424Y311D01*
X419Y311D01*
X419Y308D01*
X418Y308D01*
X418Y308D01*
X417Y308D01*
X417Y310D01*
X418Y310D01*
X418Y311D01*
X418Y311D01*
X418Y312D01*
X419Y312D01*
X419Y312D01*
X420Y312D01*
X420Y313D01*
X421Y313D01*
G37*
D02*
G36*
X449Y312D02*
X449Y311D01*
X445Y311D01*
X445Y312D01*
X449Y312D01*
G37*
D02*
G36*
X449Y312D02*
X449Y311D01*
X445Y311D01*
X445Y312D01*
X449Y312D01*
G37*
D02*
G36*
X450Y311D02*
X450Y311D01*
X445Y311D01*
X445Y311D01*
X450Y311D01*
G37*
D02*
G36*
X459Y311D02*
X459Y310D01*
X445Y310D01*
X445Y311D01*
X459Y311D01*
G37*
D02*
G36*
X459Y311D02*
X459Y310D01*
X445Y310D01*
X445Y311D01*
X459Y311D01*
G37*
D02*
G36*
X424Y311D02*
X424Y310D01*
X424Y310D01*
X424Y308D01*
X424Y308D01*
X424Y308D01*
X422Y308D01*
X422Y311D01*
X424Y311D01*
G37*
D02*
G36*
X458Y310D02*
X458Y310D01*
X458Y310D01*
X458Y309D01*
X457Y309D01*
X457Y308D01*
X457Y308D01*
X457Y308D01*
X456Y308D01*
X456Y307D01*
X456Y307D01*
X456Y307D01*
X455Y307D01*
X455Y306D01*
X455Y306D01*
X455Y306D01*
X454Y306D01*
X454Y305D01*
X453Y305D01*
X453Y305D01*
X453Y305D01*
X453Y304D01*
X452Y304D01*
X452Y304D01*
X452Y304D01*
X452Y303D01*
X443Y303D01*
X443Y304D01*
X444Y304D01*
X444Y304D01*
X444Y304D01*
X444Y305D01*
X445Y305D01*
X445Y305D01*
X445Y305D01*
X445Y306D01*
X446Y306D01*
X446Y306D01*
X446Y306D01*
X446Y308D01*
X446Y308D01*
X446Y308D01*
X445Y308D01*
X445Y309D01*
X445Y309D01*
X445Y310D01*
X458Y310D01*
G37*
D02*
G36*
X424Y308D02*
X424Y307D01*
X418Y307D01*
X418Y308D01*
X424Y308D01*
G37*
D02*
G36*
X424Y308D02*
X424Y307D01*
X418Y307D01*
X418Y308D01*
X424Y308D01*
G37*
D02*
G36*
X423Y307D02*
X423Y307D01*
X424Y307D01*
X424Y306D01*
X421Y306D01*
X421Y306D01*
X420Y306D01*
X420Y306D01*
X419Y306D01*
X419Y307D01*
X418Y307D01*
X418Y307D01*
X423Y307D01*
G37*
D02*
G36*
X424Y306D02*
X424Y306D01*
X425Y306D01*
X425Y305D01*
X425Y305D01*
X425Y305D01*
X426Y305D01*
X426Y304D01*
X426Y304D01*
X426Y304D01*
X427Y304D01*
X427Y303D01*
X427Y303D01*
X427Y303D01*
X428Y303D01*
X428Y302D01*
X429Y302D01*
X429Y301D01*
X429Y301D01*
X429Y301D01*
X430Y301D01*
X430Y300D01*
X430Y300D01*
X430Y300D01*
X431Y300D01*
X431Y299D01*
X431Y299D01*
X431Y299D01*
X432Y299D01*
X432Y298D01*
X430Y298D01*
X430Y299D01*
X429Y299D01*
X429Y299D01*
X429Y299D01*
X429Y300D01*
X428Y300D01*
X428Y300D01*
X427Y300D01*
X427Y301D01*
X427Y301D01*
X427Y301D01*
X426Y301D01*
X426Y302D01*
X426Y302D01*
X426Y303D01*
X425Y303D01*
X425Y303D01*
X425Y303D01*
X425Y304D01*
X424Y304D01*
X424Y304D01*
X424Y304D01*
X424Y305D01*
X423Y305D01*
X423Y305D01*
X423Y305D01*
X423Y306D01*
X422Y306D01*
X422Y306D01*
X424Y306D01*
G37*
D02*
G36*
X440Y305D02*
X440Y304D01*
X439Y304D01*
X439Y305D01*
X440Y305D01*
G37*
D02*
G36*
X441Y304D02*
X441Y304D01*
X437Y304D01*
X437Y304D01*
X441Y304D01*
G37*
D02*
G36*
X441Y304D02*
X441Y304D01*
X437Y304D01*
X437Y304D01*
X441Y304D01*
G37*
D02*
G36*
X442Y304D02*
X442Y303D01*
X438Y303D01*
X438Y304D01*
X442Y304D01*
G37*
D02*
G36*
X451Y303D02*
X451Y303D01*
X438Y303D01*
X438Y303D01*
X451Y303D01*
G37*
D02*
G36*
X451Y303D02*
X451Y303D01*
X438Y303D01*
X438Y303D01*
X451Y303D01*
G37*
D02*
G36*
X451Y303D02*
X451Y302D01*
X450Y302D01*
X450Y301D01*
X450Y301D01*
X450Y301D01*
X449Y301D01*
X449Y300D01*
X449Y300D01*
X449Y300D01*
X448Y300D01*
X448Y299D01*
X447Y299D01*
X447Y299D01*
X447Y299D01*
X447Y298D01*
X446Y298D01*
X446Y298D01*
X446Y298D01*
X446Y297D01*
X445Y297D01*
X445Y297D01*
X437Y297D01*
X437Y297D01*
X437Y297D01*
X437Y298D01*
X438Y298D01*
X438Y298D01*
X438Y298D01*
X438Y299D01*
X439Y299D01*
X439Y300D01*
X438Y300D01*
X438Y301D01*
X438Y301D01*
X438Y301D01*
X437Y301D01*
X437Y303D01*
X451Y303D01*
G37*
D02*
G36*
X433Y299D02*
X433Y298D01*
X433Y298D01*
X433Y299D01*
X433Y299D01*
G37*
D02*
G36*
X434Y298D02*
X434Y298D01*
X430Y298D01*
X430Y298D01*
X434Y298D01*
G37*
D02*
G36*
X434Y298D02*
X434Y298D01*
X430Y298D01*
X430Y298D01*
X434Y298D01*
G37*
D02*
G36*
X434Y298D02*
X434Y297D01*
X435Y297D01*
X435Y297D01*
X431Y297D01*
X431Y297D01*
X431Y297D01*
X431Y298D01*
X434Y298D01*
G37*
D02*
G36*
X445Y297D02*
X445Y296D01*
X431Y296D01*
X431Y297D01*
X445Y297D01*
G37*
D02*
G36*
X445Y297D02*
X445Y296D01*
X431Y296D01*
X431Y297D01*
X445Y297D01*
G37*
D02*
G36*
X444Y296D02*
X444Y295D01*
X444Y295D01*
X444Y295D01*
X443Y295D01*
X443Y294D01*
X443Y294D01*
X443Y294D01*
X442Y294D01*
X442Y293D01*
X442Y293D01*
X442Y293D01*
X441Y293D01*
X441Y292D01*
X440Y292D01*
X440Y292D01*
X440Y292D01*
X440Y291D01*
X439Y291D01*
X439Y291D01*
X439Y291D01*
X439Y290D01*
X438Y290D01*
X438Y290D01*
X438Y290D01*
X438Y289D01*
X437Y289D01*
X437Y288D01*
X437Y288D01*
X437Y288D01*
X436Y288D01*
X436Y287D01*
X436Y287D01*
X436Y287D01*
X435Y287D01*
X435Y286D01*
X434Y286D01*
X434Y286D01*
X434Y286D01*
X434Y285D01*
X433Y285D01*
X433Y285D01*
X433Y285D01*
X433Y284D01*
X432Y284D01*
X432Y284D01*
X432Y284D01*
X432Y283D01*
X431Y283D01*
X431Y282D01*
X431Y282D01*
X431Y282D01*
X430Y282D01*
X430Y281D01*
X430Y281D01*
X430Y281D01*
X429Y281D01*
X429Y280D01*
X429Y280D01*
X429Y280D01*
X428Y280D01*
X428Y279D01*
X427Y279D01*
X427Y279D01*
X427Y279D01*
X427Y278D01*
X426Y278D01*
X426Y278D01*
X426Y278D01*
X426Y277D01*
X425Y277D01*
X425Y277D01*
X425Y277D01*
X425Y276D01*
X424Y276D01*
X424Y275D01*
X424Y275D01*
X424Y275D01*
X423Y275D01*
X423Y274D01*
X423Y274D01*
X423Y274D01*
X422Y274D01*
X422Y273D01*
X421Y273D01*
X421Y273D01*
X421Y273D01*
X421Y272D01*
X420Y272D01*
X420Y272D01*
X420Y272D01*
X420Y271D01*
X419Y271D01*
X419Y271D01*
X411Y271D01*
X411Y271D01*
X411Y271D01*
X411Y272D01*
X412Y272D01*
X412Y272D01*
X412Y272D01*
X412Y273D01*
X413Y273D01*
X413Y273D01*
X413Y273D01*
X413Y274D01*
X414Y274D01*
X414Y274D01*
X414Y274D01*
X414Y275D01*
X415Y275D01*
X415Y275D01*
X416Y275D01*
X416Y276D01*
X416Y276D01*
X416Y277D01*
X417Y277D01*
X417Y277D01*
X417Y277D01*
X417Y278D01*
X418Y278D01*
X418Y278D01*
X418Y278D01*
X418Y279D01*
X419Y279D01*
X419Y279D01*
X419Y279D01*
X419Y280D01*
X420Y280D01*
X420Y280D01*
X420Y280D01*
X420Y281D01*
X421Y281D01*
X421Y281D01*
X421Y281D01*
X421Y282D01*
X422Y282D01*
X422Y282D01*
X423Y282D01*
X423Y283D01*
X423Y283D01*
X423Y284D01*
X424Y284D01*
X424Y284D01*
X424Y284D01*
X424Y285D01*
X425Y285D01*
X425Y285D01*
X425Y285D01*
X425Y286D01*
X426Y286D01*
X426Y286D01*
X426Y286D01*
X426Y287D01*
X427Y287D01*
X427Y287D01*
X427Y287D01*
X427Y288D01*
X428Y288D01*
X428Y288D01*
X429Y288D01*
X429Y289D01*
X429Y289D01*
X429Y290D01*
X430Y290D01*
X430Y290D01*
X430Y290D01*
X430Y291D01*
X431Y291D01*
X431Y291D01*
X431Y291D01*
X431Y292D01*
X432Y292D01*
X432Y292D01*
X432Y292D01*
X432Y293D01*
X432Y293D01*
X432Y294D01*
X431Y294D01*
X431Y294D01*
X431Y294D01*
X431Y295D01*
X430Y295D01*
X430Y296D01*
X444Y296D01*
G37*
D02*
G36*
X419Y271D02*
X419Y270D01*
X404Y270D01*
X404Y271D01*
X419Y271D01*
G37*
D02*
G36*
X419Y271D02*
X419Y270D01*
X404Y270D01*
X404Y271D01*
X419Y271D01*
G37*
D02*
G36*
X418Y270D02*
X418Y269D01*
X418Y269D01*
X418Y269D01*
X417Y269D01*
X417Y268D01*
X417Y268D01*
X417Y268D01*
X416Y268D01*
X416Y267D01*
X416Y267D01*
X416Y267D01*
X415Y267D01*
X415Y266D01*
X414Y266D01*
X414Y266D01*
X414Y266D01*
X414Y265D01*
X413Y265D01*
X413Y265D01*
X413Y265D01*
X413Y264D01*
X412Y264D01*
X412Y263D01*
X412Y263D01*
X412Y263D01*
X411Y263D01*
X411Y262D01*
X411Y262D01*
X411Y262D01*
X410Y262D01*
X410Y261D01*
X410Y261D01*
X410Y261D01*
X409Y261D01*
X409Y260D01*
X408Y260D01*
X408Y260D01*
X408Y260D01*
X408Y259D01*
X407Y259D01*
X407Y259D01*
X407Y259D01*
X407Y258D01*
X406Y258D01*
X406Y258D01*
X406Y258D01*
X406Y257D01*
X405Y257D01*
X405Y258D01*
X405Y258D01*
X405Y260D01*
X404Y260D01*
X404Y270D01*
X418Y270D01*
G37*
D02*
G36*
X520Y357D02*
X520Y357D01*
X520Y357D01*
X520Y356D01*
X521Y356D01*
X521Y353D01*
X521Y353D01*
X521Y344D01*
X514Y344D01*
X514Y343D01*
X514Y343D01*
X514Y343D01*
X513Y343D01*
X513Y342D01*
X513Y342D01*
X513Y342D01*
X512Y342D01*
X512Y341D01*
X511Y341D01*
X511Y340D01*
X511Y340D01*
X511Y340D01*
X510Y340D01*
X510Y339D01*
X510Y339D01*
X510Y339D01*
X509Y339D01*
X509Y338D01*
X509Y338D01*
X509Y338D01*
X508Y338D01*
X508Y337D01*
X508Y337D01*
X508Y337D01*
X507Y337D01*
X507Y336D01*
X507Y336D01*
X507Y336D01*
X506Y336D01*
X506Y335D01*
X505Y335D01*
X505Y334D01*
X505Y334D01*
X505Y334D01*
X504Y334D01*
X504Y333D01*
X504Y333D01*
X504Y333D01*
X503Y333D01*
X503Y332D01*
X503Y332D01*
X503Y332D01*
X502Y332D01*
X502Y331D01*
X502Y331D01*
X502Y331D01*
X501Y331D01*
X501Y330D01*
X501Y330D01*
X501Y330D01*
X500Y330D01*
X500Y329D01*
X499Y329D01*
X499Y329D01*
X499Y329D01*
X499Y328D01*
X498Y328D01*
X498Y327D01*
X498Y327D01*
X498Y327D01*
X497Y327D01*
X497Y326D01*
X497Y326D01*
X497Y326D01*
X496Y326D01*
X496Y325D01*
X496Y325D01*
X496Y325D01*
X495Y325D01*
X495Y324D01*
X495Y324D01*
X495Y324D01*
X494Y324D01*
X494Y323D01*
X494Y323D01*
X494Y323D01*
X493Y323D01*
X493Y322D01*
X492Y322D01*
X492Y321D01*
X493Y321D01*
X493Y320D01*
X494Y320D01*
X494Y320D01*
X494Y320D01*
X494Y319D01*
X495Y319D01*
X495Y318D01*
X489Y318D01*
X489Y318D01*
X488Y318D01*
X488Y317D01*
X488Y317D01*
X488Y317D01*
X487Y317D01*
X487Y316D01*
X486Y316D01*
X486Y316D01*
X486Y316D01*
X486Y314D01*
X486Y314D01*
X486Y314D01*
X487Y314D01*
X487Y313D01*
X488Y313D01*
X488Y313D01*
X488Y313D01*
X488Y312D01*
X488Y312D01*
X488Y312D01*
X482Y312D01*
X482Y311D01*
X482Y311D01*
X482Y311D01*
X481Y311D01*
X481Y310D01*
X481Y310D01*
X481Y310D01*
X480Y310D01*
X480Y309D01*
X479Y309D01*
X479Y308D01*
X479Y308D01*
X479Y308D01*
X478Y308D01*
X478Y307D01*
X479Y307D01*
X479Y306D01*
X479Y306D01*
X479Y306D01*
X480Y306D01*
X480Y305D01*
X481Y305D01*
X481Y305D01*
X480Y305D01*
X480Y304D01*
X475Y304D01*
X475Y304D01*
X474Y304D01*
X474Y303D01*
X473Y303D01*
X473Y303D01*
X473Y303D01*
X473Y302D01*
X472Y302D01*
X472Y301D01*
X472Y301D01*
X472Y301D01*
X471Y301D01*
X471Y300D01*
X471Y300D01*
X471Y300D01*
X470Y300D01*
X470Y299D01*
X470Y299D01*
X470Y298D01*
X470Y298D01*
X470Y298D01*
X471Y298D01*
X471Y297D01*
X471Y297D01*
X471Y297D01*
X472Y297D01*
X472Y296D01*
X471Y296D01*
X471Y295D01*
X466Y295D01*
X466Y295D01*
X465Y295D01*
X465Y294D01*
X465Y294D01*
X465Y294D01*
X464Y294D01*
X464Y293D01*
X464Y293D01*
X464Y293D01*
X463Y293D01*
X463Y292D01*
X463Y292D01*
X463Y292D01*
X462Y292D01*
X462Y291D01*
X462Y291D01*
X462Y290D01*
X462Y290D01*
X462Y289D01*
X463Y289D01*
X463Y288D01*
X463Y288D01*
X463Y287D01*
X463Y287D01*
X463Y287D01*
X457Y287D01*
X457Y286D01*
X457Y286D01*
X457Y286D01*
X456Y286D01*
X456Y285D01*
X456Y285D01*
X456Y285D01*
X455Y285D01*
X455Y284D01*
X455Y284D01*
X455Y284D01*
X454Y284D01*
X454Y282D01*
X455Y282D01*
X455Y282D01*
X455Y282D01*
X455Y281D01*
X456Y281D01*
X456Y280D01*
X455Y280D01*
X455Y280D01*
X450Y280D01*
X450Y279D01*
X450Y279D01*
X450Y279D01*
X449Y279D01*
X449Y278D01*
X449Y278D01*
X449Y278D01*
X448Y278D01*
X448Y277D01*
X447Y277D01*
X447Y277D01*
X447Y277D01*
X447Y276D01*
X446Y276D01*
X446Y275D01*
X446Y275D01*
X446Y275D01*
X445Y275D01*
X445Y274D01*
X445Y274D01*
X445Y274D01*
X444Y274D01*
X444Y273D01*
X444Y273D01*
X444Y273D01*
X443Y273D01*
X443Y272D01*
X443Y272D01*
X443Y272D01*
X442Y272D01*
X442Y271D01*
X442Y271D01*
X442Y271D01*
X441Y271D01*
X441Y270D01*
X440Y270D01*
X440Y269D01*
X440Y269D01*
X440Y269D01*
X439Y269D01*
X439Y268D01*
X439Y268D01*
X439Y268D01*
X438Y268D01*
X438Y267D01*
X438Y267D01*
X438Y267D01*
X437Y267D01*
X437Y266D01*
X437Y266D01*
X437Y266D01*
X436Y266D01*
X436Y265D01*
X436Y265D01*
X436Y265D01*
X435Y265D01*
X435Y264D01*
X434Y264D01*
X434Y263D01*
X434Y263D01*
X434Y263D01*
X433Y263D01*
X433Y262D01*
X433Y262D01*
X433Y262D01*
X432Y262D01*
X432Y261D01*
X432Y261D01*
X432Y261D01*
X431Y261D01*
X431Y260D01*
X431Y260D01*
X431Y260D01*
X430Y260D01*
X430Y259D01*
X430Y259D01*
X430Y259D01*
X429Y259D01*
X429Y258D01*
X429Y258D01*
X429Y258D01*
X428Y258D01*
X428Y257D01*
X427Y257D01*
X427Y256D01*
X427Y256D01*
X427Y256D01*
X426Y256D01*
X426Y255D01*
X426Y255D01*
X426Y255D01*
X417Y255D01*
X417Y255D01*
X418Y255D01*
X418Y256D01*
X418Y256D01*
X418Y256D01*
X419Y256D01*
X419Y257D01*
X419Y257D01*
X419Y258D01*
X420Y258D01*
X420Y258D01*
X420Y258D01*
X420Y259D01*
X421Y259D01*
X421Y259D01*
X421Y259D01*
X421Y260D01*
X422Y260D01*
X422Y260D01*
X423Y260D01*
X423Y261D01*
X423Y261D01*
X423Y261D01*
X424Y261D01*
X424Y262D01*
X424Y262D01*
X424Y262D01*
X425Y262D01*
X425Y263D01*
X425Y263D01*
X425Y263D01*
X426Y263D01*
X426Y264D01*
X426Y264D01*
X426Y265D01*
X427Y265D01*
X427Y265D01*
X427Y265D01*
X427Y266D01*
X428Y266D01*
X428Y266D01*
X429Y266D01*
X429Y267D01*
X429Y267D01*
X429Y267D01*
X430Y267D01*
X430Y268D01*
X430Y268D01*
X430Y268D01*
X431Y268D01*
X431Y269D01*
X431Y269D01*
X431Y269D01*
X432Y269D01*
X432Y270D01*
X432Y270D01*
X432Y271D01*
X433Y271D01*
X433Y271D01*
X433Y271D01*
X433Y272D01*
X434Y272D01*
X434Y272D01*
X434Y272D01*
X434Y273D01*
X435Y273D01*
X435Y273D01*
X436Y273D01*
X436Y274D01*
X436Y274D01*
X436Y274D01*
X437Y274D01*
X437Y275D01*
X437Y275D01*
X437Y275D01*
X438Y275D01*
X438Y276D01*
X438Y276D01*
X438Y277D01*
X439Y277D01*
X439Y277D01*
X439Y277D01*
X439Y278D01*
X440Y278D01*
X440Y278D01*
X440Y278D01*
X440Y279D01*
X441Y279D01*
X441Y279D01*
X442Y279D01*
X442Y280D01*
X442Y280D01*
X442Y280D01*
X443Y280D01*
X443Y281D01*
X443Y281D01*
X443Y281D01*
X444Y281D01*
X444Y282D01*
X444Y282D01*
X444Y282D01*
X445Y282D01*
X445Y283D01*
X445Y283D01*
X445Y284D01*
X446Y284D01*
X446Y284D01*
X446Y284D01*
X446Y285D01*
X447Y285D01*
X447Y285D01*
X447Y285D01*
X447Y286D01*
X448Y286D01*
X448Y286D01*
X449Y286D01*
X449Y287D01*
X449Y287D01*
X449Y287D01*
X450Y287D01*
X450Y288D01*
X450Y288D01*
X450Y288D01*
X451Y288D01*
X451Y289D01*
X451Y289D01*
X451Y290D01*
X452Y290D01*
X452Y290D01*
X452Y290D01*
X452Y291D01*
X453Y291D01*
X453Y291D01*
X453Y291D01*
X453Y292D01*
X454Y292D01*
X454Y292D01*
X455Y292D01*
X455Y293D01*
X455Y293D01*
X455Y293D01*
X456Y293D01*
X456Y294D01*
X456Y294D01*
X456Y294D01*
X457Y294D01*
X457Y295D01*
X457Y295D01*
X457Y295D01*
X458Y295D01*
X458Y296D01*
X458Y296D01*
X458Y297D01*
X459Y297D01*
X459Y297D01*
X459Y297D01*
X459Y298D01*
X460Y298D01*
X460Y298D01*
X460Y298D01*
X460Y299D01*
X461Y299D01*
X461Y299D01*
X462Y299D01*
X462Y300D01*
X462Y300D01*
X462Y300D01*
X463Y300D01*
X463Y301D01*
X463Y301D01*
X463Y301D01*
X464Y301D01*
X464Y302D01*
X464Y302D01*
X464Y303D01*
X465Y303D01*
X465Y303D01*
X465Y303D01*
X465Y304D01*
X466Y304D01*
X466Y304D01*
X466Y304D01*
X466Y305D01*
X467Y305D01*
X467Y305D01*
X468Y305D01*
X468Y306D01*
X468Y306D01*
X468Y306D01*
X469Y306D01*
X469Y307D01*
X469Y307D01*
X469Y307D01*
X470Y307D01*
X470Y308D01*
X470Y308D01*
X470Y308D01*
X471Y308D01*
X471Y309D01*
X471Y309D01*
X471Y310D01*
X472Y310D01*
X472Y310D01*
X472Y310D01*
X472Y311D01*
X473Y311D01*
X473Y311D01*
X473Y311D01*
X473Y312D01*
X474Y312D01*
X474Y312D01*
X475Y312D01*
X475Y313D01*
X475Y313D01*
X475Y313D01*
X476Y313D01*
X476Y314D01*
X476Y314D01*
X476Y314D01*
X477Y314D01*
X477Y315D01*
X477Y315D01*
X477Y316D01*
X478Y316D01*
X478Y316D01*
X478Y316D01*
X478Y317D01*
X479Y317D01*
X479Y317D01*
X479Y317D01*
X479Y318D01*
X480Y318D01*
X480Y318D01*
X481Y318D01*
X481Y319D01*
X481Y319D01*
X481Y319D01*
X482Y319D01*
X482Y320D01*
X482Y320D01*
X482Y320D01*
X483Y320D01*
X483Y321D01*
X483Y321D01*
X483Y321D01*
X484Y321D01*
X484Y322D01*
X484Y322D01*
X484Y323D01*
X485Y323D01*
X485Y323D01*
X485Y323D01*
X485Y324D01*
X486Y324D01*
X486Y324D01*
X486Y324D01*
X486Y325D01*
X487Y325D01*
X487Y325D01*
X488Y325D01*
X488Y326D01*
X488Y326D01*
X488Y326D01*
X489Y326D01*
X489Y327D01*
X489Y327D01*
X489Y327D01*
X490Y327D01*
X490Y328D01*
X490Y328D01*
X490Y329D01*
X491Y329D01*
X491Y329D01*
X491Y329D01*
X491Y330D01*
X492Y330D01*
X492Y330D01*
X492Y330D01*
X492Y331D01*
X493Y331D01*
X493Y331D01*
X494Y331D01*
X494Y332D01*
X494Y332D01*
X494Y332D01*
X495Y332D01*
X495Y333D01*
X495Y333D01*
X495Y333D01*
X496Y333D01*
X496Y334D01*
X496Y334D01*
X496Y334D01*
X497Y334D01*
X497Y335D01*
X497Y335D01*
X497Y336D01*
X498Y336D01*
X498Y336D01*
X498Y336D01*
X498Y337D01*
X499Y337D01*
X499Y337D01*
X499Y337D01*
X499Y338D01*
X500Y338D01*
X500Y338D01*
X501Y338D01*
X501Y339D01*
X501Y339D01*
X501Y339D01*
X502Y339D01*
X502Y340D01*
X502Y340D01*
X502Y340D01*
X503Y340D01*
X503Y341D01*
X503Y341D01*
X503Y342D01*
X504Y342D01*
X504Y342D01*
X504Y342D01*
X504Y343D01*
X505Y343D01*
X505Y343D01*
X505Y343D01*
X505Y344D01*
X506Y344D01*
X506Y344D01*
X507Y344D01*
X507Y345D01*
X507Y345D01*
X507Y345D01*
X508Y345D01*
X508Y346D01*
X508Y346D01*
X508Y346D01*
X509Y346D01*
X509Y347D01*
X509Y347D01*
X509Y347D01*
X510Y347D01*
X510Y348D01*
X510Y348D01*
X510Y349D01*
X511Y349D01*
X511Y349D01*
X511Y349D01*
X511Y350D01*
X512Y350D01*
X512Y350D01*
X513Y350D01*
X513Y351D01*
X513Y351D01*
X513Y351D01*
X514Y351D01*
X514Y352D01*
X514Y352D01*
X514Y352D01*
X515Y352D01*
X515Y353D01*
X515Y353D01*
X515Y353D01*
X516Y353D01*
X516Y354D01*
X516Y354D01*
X516Y355D01*
X517Y355D01*
X517Y355D01*
X517Y355D01*
X517Y356D01*
X518Y356D01*
X518Y356D01*
X518Y356D01*
X518Y357D01*
X519Y357D01*
X519Y357D01*
X520Y357D01*
G37*
D02*
G36*
X521Y344D02*
X521Y261D01*
X521Y261D01*
X521Y259D01*
X520Y259D01*
X520Y258D01*
X520Y258D01*
X520Y256D01*
X519Y256D01*
X519Y255D01*
X518Y255D01*
X518Y255D01*
X505Y255D01*
X505Y255D01*
X507Y255D01*
X507Y256D01*
X508Y256D01*
X508Y256D01*
X509Y256D01*
X509Y257D01*
X510Y257D01*
X510Y258D01*
X510Y258D01*
X510Y258D01*
X511Y258D01*
X511Y259D01*
X511Y259D01*
X511Y259D01*
X512Y259D01*
X512Y260D01*
X513Y260D01*
X513Y260D01*
X513Y260D01*
X513Y261D01*
X514Y261D01*
X514Y262D01*
X514Y262D01*
X514Y264D01*
X515Y264D01*
X515Y266D01*
X515Y266D01*
X515Y344D01*
X521Y344D01*
G37*
D02*
G36*
X494Y318D02*
X494Y317D01*
X492Y317D01*
X492Y316D01*
X491Y316D01*
X491Y317D01*
X491Y317D01*
X491Y317D01*
X490Y317D01*
X490Y318D01*
X490Y318D01*
X490Y318D01*
X494Y318D01*
G37*
D02*
G36*
X495Y317D02*
X495Y316D01*
X495Y316D01*
X495Y316D01*
X496Y316D01*
X496Y315D01*
X496Y315D01*
X496Y314D01*
X497Y314D01*
X497Y314D01*
X497Y314D01*
X497Y313D01*
X498Y313D01*
X498Y313D01*
X498Y313D01*
X498Y312D01*
X499Y312D01*
X499Y312D01*
X499Y312D01*
X499Y311D01*
X500Y311D01*
X500Y311D01*
X501Y311D01*
X501Y310D01*
X501Y310D01*
X501Y310D01*
X502Y310D01*
X502Y309D01*
X502Y309D01*
X502Y308D01*
X506Y308D01*
X506Y308D01*
X507Y308D01*
X507Y307D01*
X507Y307D01*
X507Y307D01*
X503Y307D01*
X503Y306D01*
X503Y306D01*
X503Y304D01*
X503Y304D01*
X503Y304D01*
X501Y304D01*
X501Y307D01*
X502Y307D01*
X502Y308D01*
X501Y308D01*
X501Y308D01*
X501Y308D01*
X501Y309D01*
X500Y309D01*
X500Y310D01*
X499Y310D01*
X499Y310D01*
X499Y310D01*
X499Y311D01*
X498Y311D01*
X498Y311D01*
X498Y311D01*
X498Y312D01*
X497Y312D01*
X497Y312D01*
X497Y312D01*
X497Y313D01*
X496Y313D01*
X496Y313D01*
X496Y313D01*
X496Y314D01*
X495Y314D01*
X495Y314D01*
X495Y314D01*
X495Y315D01*
X494Y315D01*
X494Y316D01*
X494Y316D01*
X494Y316D01*
X493Y316D01*
X493Y317D01*
X495Y317D01*
G37*
D02*
G36*
X487Y312D02*
X487Y311D01*
X488Y311D01*
X488Y311D01*
X488Y311D01*
X488Y310D01*
X485Y310D01*
X485Y310D01*
X484Y310D01*
X484Y310D01*
X484Y310D01*
X484Y311D01*
X483Y311D01*
X483Y311D01*
X483Y311D01*
X483Y312D01*
X487Y312D01*
G37*
D02*
G36*
X488Y310D02*
X488Y298D01*
X489Y298D01*
X489Y297D01*
X489Y297D01*
X489Y297D01*
X490Y297D01*
X490Y296D01*
X490Y296D01*
X490Y295D01*
X491Y295D01*
X491Y295D01*
X491Y295D01*
X491Y294D01*
X492Y294D01*
X492Y294D01*
X492Y294D01*
X492Y293D01*
X493Y293D01*
X493Y293D01*
X494Y293D01*
X494Y292D01*
X494Y292D01*
X494Y292D01*
X495Y292D01*
X495Y291D01*
X495Y291D01*
X495Y291D01*
X496Y291D01*
X496Y290D01*
X494Y290D01*
X494Y291D01*
X494Y291D01*
X494Y291D01*
X493Y291D01*
X493Y292D01*
X492Y292D01*
X492Y292D01*
X492Y292D01*
X492Y293D01*
X491Y293D01*
X491Y293D01*
X491Y293D01*
X491Y294D01*
X490Y294D01*
X490Y294D01*
X490Y294D01*
X490Y295D01*
X489Y295D01*
X489Y295D01*
X489Y295D01*
X489Y296D01*
X488Y296D01*
X488Y297D01*
X488Y297D01*
X488Y297D01*
X487Y297D01*
X487Y310D01*
X488Y310D01*
G37*
D02*
G36*
X508Y307D02*
X508Y304D01*
X505Y304D01*
X505Y304D01*
X506Y304D01*
X506Y306D01*
X505Y306D01*
X505Y306D01*
X505Y306D01*
X505Y307D01*
X508Y307D01*
G37*
D02*
G36*
X479Y304D02*
X479Y304D01*
X480Y304D01*
X480Y303D01*
X481Y303D01*
X481Y303D01*
X478Y303D01*
X478Y302D01*
X477Y302D01*
X477Y303D01*
X476Y303D01*
X476Y303D01*
X476Y303D01*
X476Y304D01*
X475Y304D01*
X475Y304D01*
X479Y304D01*
G37*
D02*
G36*
X507Y304D02*
X507Y303D01*
X502Y303D01*
X502Y304D01*
X507Y304D01*
G37*
D02*
G36*
X507Y304D02*
X507Y303D01*
X502Y303D01*
X502Y304D01*
X507Y304D01*
G37*
D02*
G36*
X507Y303D02*
X507Y303D01*
X506Y303D01*
X506Y302D01*
X503Y302D01*
X503Y303D01*
X502Y303D01*
X502Y303D01*
X507Y303D01*
G37*
D02*
G36*
X481Y303D02*
X481Y288D01*
X481Y288D01*
X481Y288D01*
X482Y288D01*
X482Y287D01*
X482Y287D01*
X482Y287D01*
X483Y287D01*
X483Y286D01*
X483Y286D01*
X483Y286D01*
X484Y286D01*
X484Y285D01*
X484Y285D01*
X484Y285D01*
X485Y285D01*
X485Y284D01*
X485Y284D01*
X485Y284D01*
X486Y284D01*
X486Y283D01*
X486Y283D01*
X486Y282D01*
X487Y282D01*
X487Y282D01*
X488Y282D01*
X488Y281D01*
X488Y281D01*
X488Y281D01*
X489Y281D01*
X489Y280D01*
X489Y280D01*
X489Y280D01*
X490Y280D01*
X490Y279D01*
X490Y279D01*
X490Y279D01*
X491Y279D01*
X491Y278D01*
X491Y278D01*
X491Y278D01*
X492Y278D01*
X492Y277D01*
X492Y277D01*
X492Y277D01*
X493Y277D01*
X493Y276D01*
X494Y276D01*
X494Y275D01*
X494Y275D01*
X494Y275D01*
X495Y275D01*
X495Y274D01*
X495Y274D01*
X495Y274D01*
X496Y274D01*
X496Y273D01*
X496Y273D01*
X496Y273D01*
X497Y273D01*
X497Y272D01*
X497Y272D01*
X497Y272D01*
X498Y272D01*
X498Y271D01*
X498Y271D01*
X498Y271D01*
X499Y271D01*
X499Y270D01*
X499Y270D01*
X499Y269D01*
X500Y269D01*
X500Y269D01*
X501Y269D01*
X501Y268D01*
X499Y268D01*
X499Y269D01*
X498Y269D01*
X498Y269D01*
X498Y269D01*
X498Y270D01*
X497Y270D01*
X497Y271D01*
X497Y271D01*
X497Y271D01*
X496Y271D01*
X496Y272D01*
X496Y272D01*
X496Y272D01*
X495Y272D01*
X495Y273D01*
X495Y273D01*
X495Y273D01*
X494Y273D01*
X494Y274D01*
X494Y274D01*
X494Y274D01*
X493Y274D01*
X493Y275D01*
X492Y275D01*
X492Y275D01*
X492Y275D01*
X492Y276D01*
X491Y276D01*
X491Y277D01*
X491Y277D01*
X491Y277D01*
X490Y277D01*
X490Y278D01*
X490Y278D01*
X490Y278D01*
X489Y278D01*
X489Y279D01*
X489Y279D01*
X489Y279D01*
X488Y279D01*
X488Y280D01*
X488Y280D01*
X488Y280D01*
X487Y280D01*
X487Y281D01*
X486Y281D01*
X486Y281D01*
X486Y281D01*
X486Y282D01*
X485Y282D01*
X485Y282D01*
X485Y282D01*
X485Y283D01*
X484Y283D01*
X484Y284D01*
X484Y284D01*
X484Y284D01*
X483Y284D01*
X483Y285D01*
X483Y285D01*
X483Y285D01*
X482Y285D01*
X482Y286D01*
X482Y286D01*
X482Y286D01*
X481Y286D01*
X481Y287D01*
X481Y287D01*
X481Y287D01*
X480Y287D01*
X480Y288D01*
X479Y288D01*
X479Y302D01*
X479Y302D01*
X479Y303D01*
X481Y303D01*
G37*
D02*
G36*
X471Y295D02*
X471Y295D01*
X471Y295D01*
X471Y294D01*
X470Y294D01*
X470Y294D01*
X469Y294D01*
X469Y293D01*
X468Y293D01*
X468Y294D01*
X468Y294D01*
X468Y294D01*
X467Y294D01*
X467Y295D01*
X466Y295D01*
X466Y295D01*
X471Y295D01*
G37*
D02*
G36*
X472Y294D02*
X472Y286D01*
X472Y286D01*
X472Y286D01*
X473Y286D01*
X473Y285D01*
X473Y285D01*
X473Y285D01*
X474Y285D01*
X474Y284D01*
X475Y284D01*
X475Y284D01*
X475Y284D01*
X475Y283D01*
X476Y283D01*
X476Y282D01*
X476Y282D01*
X476Y282D01*
X477Y282D01*
X477Y281D01*
X477Y281D01*
X477Y281D01*
X478Y281D01*
X478Y280D01*
X478Y280D01*
X478Y280D01*
X479Y280D01*
X479Y279D01*
X479Y279D01*
X479Y279D01*
X480Y279D01*
X480Y278D01*
X481Y278D01*
X481Y278D01*
X481Y278D01*
X481Y277D01*
X482Y277D01*
X482Y277D01*
X482Y277D01*
X482Y276D01*
X483Y276D01*
X483Y275D01*
X483Y275D01*
X483Y275D01*
X484Y275D01*
X484Y274D01*
X484Y274D01*
X484Y274D01*
X485Y274D01*
X485Y269D01*
X485Y269D01*
X485Y268D01*
X486Y268D01*
X486Y268D01*
X486Y268D01*
X486Y267D01*
X482Y267D01*
X482Y266D01*
X482Y266D01*
X482Y266D01*
X482Y266D01*
X482Y265D01*
X480Y265D01*
X480Y267D01*
X481Y267D01*
X481Y268D01*
X481Y268D01*
X481Y268D01*
X482Y268D01*
X482Y269D01*
X483Y269D01*
X483Y269D01*
X483Y269D01*
X483Y274D01*
X483Y274D01*
X483Y274D01*
X482Y274D01*
X482Y275D01*
X482Y275D01*
X482Y275D01*
X481Y275D01*
X481Y276D01*
X481Y276D01*
X481Y277D01*
X480Y277D01*
X480Y277D01*
X479Y277D01*
X479Y278D01*
X479Y278D01*
X479Y278D01*
X478Y278D01*
X478Y279D01*
X478Y279D01*
X478Y279D01*
X477Y279D01*
X477Y280D01*
X477Y280D01*
X477Y280D01*
X476Y280D01*
X476Y281D01*
X476Y281D01*
X476Y281D01*
X475Y281D01*
X475Y282D01*
X475Y282D01*
X475Y282D01*
X474Y282D01*
X474Y283D01*
X473Y283D01*
X473Y284D01*
X473Y284D01*
X473Y284D01*
X472Y284D01*
X472Y285D01*
X472Y285D01*
X472Y285D01*
X471Y285D01*
X471Y286D01*
X471Y286D01*
X471Y286D01*
X470Y286D01*
X470Y294D01*
X472Y294D01*
G37*
D02*
G36*
X499Y291D02*
X499Y290D01*
X497Y290D01*
X497Y291D01*
X499Y291D01*
G37*
D02*
G36*
X500Y290D02*
X500Y290D01*
X495Y290D01*
X495Y290D01*
X500Y290D01*
G37*
D02*
G36*
X500Y290D02*
X500Y290D01*
X495Y290D01*
X495Y290D01*
X500Y290D01*
G37*
D02*
G36*
X501Y290D02*
X501Y289D01*
X501Y289D01*
X501Y288D01*
X497Y288D01*
X497Y286D01*
X495Y286D01*
X495Y286D01*
X495Y286D01*
X495Y288D01*
X495Y288D01*
X495Y290D01*
X501Y290D01*
G37*
D02*
G36*
X501Y288D02*
X501Y288D01*
X502Y288D01*
X502Y286D01*
X501Y286D01*
X501Y286D01*
X499Y286D01*
X499Y288D01*
X501Y288D01*
G37*
D02*
G36*
X462Y287D02*
X462Y286D01*
X463Y286D01*
X463Y286D01*
X461Y286D01*
X461Y285D01*
X460Y285D01*
X460Y286D01*
X459Y286D01*
X459Y286D01*
X459Y286D01*
X459Y287D01*
X462Y287D01*
G37*
D02*
G36*
X501Y286D02*
X501Y285D01*
X495Y285D01*
X495Y286D01*
X501Y286D01*
G37*
D02*
G36*
X501Y286D02*
X501Y285D01*
X495Y285D01*
X495Y286D01*
X501Y286D01*
G37*
D02*
G36*
X463Y286D02*
X463Y285D01*
X464Y285D01*
X464Y285D01*
X464Y285D01*
X464Y284D01*
X465Y284D01*
X465Y284D01*
X465Y284D01*
X465Y283D01*
X466Y283D01*
X466Y282D01*
X466Y282D01*
X466Y282D01*
X467Y282D01*
X467Y281D01*
X468Y281D01*
X468Y281D01*
X466Y281D01*
X466Y281D01*
X465Y281D01*
X465Y282D01*
X465Y282D01*
X465Y282D01*
X464Y282D01*
X464Y283D01*
X464Y283D01*
X464Y284D01*
X463Y284D01*
X463Y284D01*
X463Y284D01*
X463Y285D01*
X462Y285D01*
X462Y285D01*
X462Y285D01*
X462Y286D01*
X463Y286D01*
G37*
D02*
G36*
X501Y285D02*
X501Y285D01*
X500Y285D01*
X500Y284D01*
X499Y284D01*
X499Y284D01*
X497Y284D01*
X497Y284D01*
X496Y284D01*
X496Y285D01*
X496Y285D01*
X496Y285D01*
X501Y285D01*
G37*
D02*
G36*
X470Y281D02*
X470Y281D01*
X469Y281D01*
X469Y281D01*
X470Y281D01*
G37*
D02*
G36*
X471Y281D02*
X471Y280D01*
X466Y280D01*
X466Y281D01*
X471Y281D01*
G37*
D02*
G36*
X471Y281D02*
X471Y280D01*
X466Y280D01*
X466Y281D01*
X471Y281D01*
G37*
D02*
G36*
X472Y280D02*
X472Y280D01*
X472Y280D01*
X472Y279D01*
X468Y279D01*
X468Y279D01*
X468Y279D01*
X468Y277D01*
X468Y277D01*
X468Y277D01*
X469Y277D01*
X469Y276D01*
X466Y276D01*
X466Y277D01*
X466Y277D01*
X466Y279D01*
X466Y279D01*
X466Y280D01*
X472Y280D01*
G37*
D02*
G36*
X455Y280D02*
X455Y279D01*
X455Y279D01*
X455Y279D01*
X456Y279D01*
X456Y278D01*
X453Y278D01*
X453Y278D01*
X452Y278D01*
X452Y278D01*
X452Y278D01*
X452Y279D01*
X451Y279D01*
X451Y279D01*
X451Y279D01*
X451Y280D01*
X455Y280D01*
G37*
D02*
G36*
X472Y279D02*
X472Y278D01*
X473Y278D01*
X473Y278D01*
X472Y278D01*
X472Y276D01*
X470Y276D01*
X470Y277D01*
X471Y277D01*
X471Y279D01*
X470Y279D01*
X470Y279D01*
X472Y279D01*
G37*
D02*
G36*
X456Y278D02*
X456Y278D01*
X457Y278D01*
X457Y277D01*
X457Y277D01*
X457Y277D01*
X458Y277D01*
X458Y276D01*
X458Y276D01*
X458Y275D01*
X459Y275D01*
X459Y275D01*
X459Y275D01*
X459Y274D01*
X460Y274D01*
X460Y274D01*
X460Y274D01*
X460Y273D01*
X461Y273D01*
X461Y273D01*
X462Y273D01*
X462Y272D01*
X462Y272D01*
X462Y272D01*
X463Y272D01*
X463Y271D01*
X463Y271D01*
X463Y271D01*
X464Y271D01*
X464Y270D01*
X462Y270D01*
X462Y271D01*
X461Y271D01*
X461Y271D01*
X460Y271D01*
X460Y272D01*
X460Y272D01*
X460Y272D01*
X459Y272D01*
X459Y273D01*
X459Y273D01*
X459Y273D01*
X458Y273D01*
X458Y274D01*
X458Y274D01*
X458Y274D01*
X457Y274D01*
X457Y275D01*
X457Y275D01*
X457Y275D01*
X456Y275D01*
X456Y276D01*
X456Y276D01*
X456Y277D01*
X455Y277D01*
X455Y277D01*
X455Y277D01*
X455Y278D01*
X454Y278D01*
X454Y278D01*
X456Y278D01*
G37*
D02*
G36*
X472Y276D02*
X472Y275D01*
X466Y275D01*
X466Y276D01*
X472Y276D01*
G37*
D02*
G36*
X472Y276D02*
X472Y275D01*
X466Y275D01*
X466Y276D01*
X472Y276D01*
G37*
D02*
G36*
X471Y275D02*
X471Y275D01*
X470Y275D01*
X470Y274D01*
X468Y274D01*
X468Y275D01*
X467Y275D01*
X467Y275D01*
X471Y275D01*
G37*
D02*
G36*
X466Y271D02*
X466Y270D01*
X464Y270D01*
X464Y271D01*
X466Y271D01*
G37*
D02*
G36*
X467Y270D02*
X467Y269D01*
X462Y269D01*
X462Y270D01*
X467Y270D01*
G37*
D02*
G36*
X467Y270D02*
X467Y269D01*
X462Y269D01*
X462Y270D01*
X467Y270D01*
G37*
D02*
G36*
X468Y269D02*
X468Y269D01*
X465Y269D01*
X465Y268D01*
X464Y268D01*
X464Y266D01*
X462Y266D01*
X462Y266D01*
X462Y266D01*
X462Y268D01*
X462Y268D01*
X462Y269D01*
X463Y269D01*
X463Y269D01*
X468Y269D01*
G37*
D02*
G36*
X503Y269D02*
X503Y268D01*
X502Y268D01*
X502Y269D01*
X503Y269D01*
G37*
D02*
G36*
X468Y269D02*
X468Y268D01*
X469Y268D01*
X469Y266D01*
X466Y266D01*
X466Y267D01*
X467Y267D01*
X467Y268D01*
X466Y268D01*
X466Y268D01*
X465Y268D01*
X465Y269D01*
X468Y269D01*
G37*
D02*
G36*
X505Y268D02*
X505Y268D01*
X499Y268D01*
X499Y268D01*
X505Y268D01*
G37*
D02*
G36*
X505Y268D02*
X505Y268D01*
X499Y268D01*
X499Y268D01*
X505Y268D01*
G37*
D02*
G36*
X505Y268D02*
X505Y267D01*
X502Y267D01*
X502Y266D01*
X501Y266D01*
X501Y265D01*
X502Y265D01*
X502Y264D01*
X502Y264D01*
X502Y263D01*
X500Y263D01*
X500Y264D01*
X499Y264D01*
X499Y267D01*
X500Y267D01*
X500Y268D01*
X505Y268D01*
G37*
D02*
G36*
X486Y267D02*
X486Y267D01*
X487Y267D01*
X487Y265D01*
X486Y265D01*
X486Y265D01*
X485Y265D01*
X485Y267D01*
X486Y267D01*
G37*
D02*
G36*
X506Y267D02*
X506Y263D01*
X503Y263D01*
X503Y264D01*
X504Y264D01*
X504Y266D01*
X504Y266D01*
X504Y267D01*
X506Y267D01*
G37*
D02*
G36*
X468Y266D02*
X468Y265D01*
X462Y265D01*
X462Y266D01*
X468Y266D01*
G37*
D02*
G36*
X468Y266D02*
X468Y265D01*
X462Y265D01*
X462Y266D01*
X468Y266D01*
G37*
D02*
G36*
X468Y265D02*
X468Y265D01*
X467Y265D01*
X467Y264D01*
X466Y264D01*
X466Y263D01*
X464Y263D01*
X464Y264D01*
X463Y264D01*
X463Y265D01*
X463Y265D01*
X463Y265D01*
X468Y265D01*
G37*
D02*
G36*
X486Y265D02*
X486Y264D01*
X481Y264D01*
X481Y265D01*
X486Y265D01*
G37*
D02*
G36*
X486Y265D02*
X486Y264D01*
X481Y264D01*
X481Y265D01*
X486Y265D01*
G37*
D02*
G36*
X486Y264D02*
X486Y263D01*
X485Y263D01*
X485Y263D01*
X484Y263D01*
X484Y262D01*
X483Y262D01*
X483Y263D01*
X482Y263D01*
X482Y263D01*
X481Y263D01*
X481Y264D01*
X486Y264D01*
G37*
D02*
G36*
X505Y263D02*
X505Y263D01*
X500Y263D01*
X500Y263D01*
X505Y263D01*
G37*
D02*
G36*
X505Y263D02*
X505Y263D01*
X500Y263D01*
X500Y263D01*
X505Y263D01*
G37*
D02*
G36*
X505Y263D02*
X505Y262D01*
X504Y262D01*
X504Y262D01*
X502Y262D01*
X502Y262D01*
X501Y262D01*
X501Y263D01*
X505Y263D01*
G37*
D02*
G36*
X518Y255D02*
X518Y254D01*
X417Y254D01*
X417Y255D01*
X518Y255D01*
G37*
D02*
G36*
X518Y255D02*
X518Y254D01*
X417Y254D01*
X417Y255D01*
X518Y255D01*
G37*
D02*
G36*
X518Y254D02*
X518Y254D01*
X517Y254D01*
X517Y253D01*
X517Y253D01*
X517Y253D01*
X516Y253D01*
X516Y252D01*
X516Y252D01*
X516Y252D01*
X515Y252D01*
X515Y251D01*
X514Y251D01*
X514Y250D01*
X513Y250D01*
X513Y250D01*
X512Y250D01*
X512Y249D01*
X510Y249D01*
X510Y249D01*
X415Y249D01*
X415Y249D01*
X413Y249D01*
X413Y250D01*
X412Y250D01*
X412Y250D01*
X413Y250D01*
X413Y251D01*
X413Y251D01*
X413Y252D01*
X414Y252D01*
X414Y252D01*
X414Y252D01*
X414Y253D01*
X415Y253D01*
X415Y253D01*
X416Y253D01*
X416Y254D01*
X416Y254D01*
X416Y254D01*
X518Y254D01*
G37*
D02*
G54D12*
X29Y441D02*
X37Y441D01*
X43Y441D02*
X53Y441D01*
X64Y441D02*
X69Y441D01*
X594Y441D02*
X594Y441D01*
X602Y441D02*
X609Y441D01*
X28Y440D02*
X37Y440D01*
X43Y440D02*
X53Y440D01*
X63Y440D02*
X69Y440D01*
X88Y440D02*
X97Y440D01*
X108Y440D02*
X113Y440D01*
X137Y440D02*
X146Y440D01*
X157Y440D02*
X163Y440D01*
X191Y440D02*
X196Y440D01*
X207Y440D02*
X212Y440D01*
X237Y440D02*
X245Y440D01*
X256Y440D02*
X262Y440D01*
X293Y440D02*
X303Y440D01*
X347Y440D02*
X352Y440D01*
X393Y440D02*
X404Y440D01*
X452Y440D02*
X454Y440D01*
X494Y440D02*
X501Y440D01*
X531Y440D02*
X537Y440D01*
X544Y440D02*
X545Y440D01*
X551Y440D02*
X554Y440D01*
X560Y440D02*
X565Y440D01*
X585Y440D02*
X586Y440D01*
X594Y440D02*
X595Y440D01*
X601Y440D02*
X609Y440D01*
X27Y439D02*
X29Y439D01*
X35Y439D02*
X37Y439D01*
X43Y439D02*
X45Y439D01*
X47Y439D02*
X49Y439D01*
X51Y439D02*
X53Y439D01*
X62Y439D02*
X68Y439D01*
X87Y439D02*
X97Y439D01*
X108Y439D02*
X113Y439D01*
X137Y439D02*
X146Y439D01*
X157Y439D02*
X162Y439D01*
X191Y439D02*
X196Y439D01*
X207Y439D02*
X212Y439D01*
X236Y439D02*
X246Y439D01*
X256Y439D02*
X262Y439D01*
X293Y439D02*
X303Y439D01*
X346Y439D02*
X352Y439D01*
X393Y439D02*
X404Y439D01*
X452Y439D02*
X454Y439D01*
X494Y439D02*
X501Y439D01*
X530Y439D02*
X537Y439D01*
X543Y439D02*
X545Y439D01*
X551Y439D02*
X554Y439D01*
X560Y439D02*
X566Y439D01*
X585Y439D02*
X586Y439D01*
X594Y439D02*
X595Y439D01*
X602Y439D02*
X609Y439D01*
X27Y438D02*
X28Y438D01*
X36Y438D02*
X37Y438D01*
X43Y438D02*
X44Y438D01*
X47Y438D02*
X49Y438D01*
X52Y438D02*
X53Y438D01*
X61Y438D02*
X63Y438D01*
X66Y438D02*
X67Y438D01*
X87Y438D02*
X88Y438D01*
X108Y438D02*
X109Y438D01*
X136Y438D02*
X138Y438D01*
X157Y438D02*
X158Y438D01*
X191Y438D02*
X192Y438D01*
X207Y438D02*
X208Y438D01*
X236Y438D02*
X237Y438D01*
X244Y438D02*
X246Y438D01*
X256Y438D02*
X258Y438D01*
X293Y438D02*
X294Y438D01*
X302Y438D02*
X303Y438D01*
X346Y438D02*
X348Y438D01*
X351Y438D02*
X352Y438D01*
X393Y438D02*
X395Y438D01*
X403Y438D02*
X403Y438D01*
X453Y438D02*
X454Y438D01*
X500Y438D02*
X501Y438D01*
X530Y438D02*
X531Y438D01*
X534Y438D02*
X535Y438D01*
X543Y438D02*
X545Y438D01*
X550Y438D02*
X554Y438D01*
X565Y438D02*
X567Y438D01*
X585Y438D02*
X586Y438D01*
X594Y438D02*
X595Y438D01*
X608Y438D02*
X609Y438D01*
X27Y437D02*
X28Y437D01*
X36Y437D02*
X37Y437D01*
X47Y437D02*
X49Y437D01*
X61Y437D02*
X62Y437D01*
X66Y437D02*
X67Y437D01*
X87Y437D02*
X88Y437D01*
X108Y437D02*
X109Y437D01*
X136Y437D02*
X138Y437D01*
X157Y437D02*
X158Y437D01*
X191Y437D02*
X192Y437D01*
X207Y437D02*
X208Y437D01*
X236Y437D02*
X237Y437D01*
X245Y437D02*
X246Y437D01*
X256Y437D02*
X258Y437D01*
X293Y437D02*
X294Y437D01*
X302Y437D02*
X303Y437D01*
X346Y437D02*
X348Y437D01*
X351Y437D02*
X352Y437D01*
X393Y437D02*
X395Y437D01*
X453Y437D02*
X454Y437D01*
X500Y437D02*
X501Y437D01*
X529Y437D02*
X531Y437D01*
X534Y437D02*
X535Y437D01*
X543Y437D02*
X545Y437D01*
X550Y437D02*
X554Y437D01*
X566Y437D02*
X568Y437D01*
X585Y437D02*
X586Y437D01*
X594Y437D02*
X595Y437D01*
X608Y437D02*
X609Y437D01*
X27Y436D02*
X29Y436D01*
X36Y436D02*
X37Y436D01*
X47Y436D02*
X49Y436D01*
X60Y436D02*
X62Y436D01*
X66Y436D02*
X67Y436D01*
X87Y436D02*
X88Y436D01*
X108Y436D02*
X109Y436D01*
X136Y436D02*
X138Y436D01*
X157Y436D02*
X158Y436D01*
X191Y436D02*
X192Y436D01*
X207Y436D02*
X208Y436D01*
X236Y436D02*
X237Y436D01*
X245Y436D02*
X246Y436D01*
X256Y436D02*
X258Y436D01*
X293Y436D02*
X294Y436D01*
X302Y436D02*
X303Y436D01*
X346Y436D02*
X348Y436D01*
X351Y436D02*
X352Y436D01*
X393Y436D02*
X395Y436D01*
X453Y436D02*
X454Y436D01*
X500Y436D02*
X501Y436D01*
X529Y436D02*
X530Y436D01*
X534Y436D02*
X535Y436D01*
X543Y436D02*
X545Y436D01*
X550Y436D02*
X554Y436D01*
X567Y436D02*
X568Y436D01*
X585Y436D02*
X586Y436D01*
X594Y436D02*
X595Y436D01*
X608Y436D02*
X609Y436D01*
X27Y435D02*
X37Y435D01*
X47Y435D02*
X49Y435D01*
X60Y435D02*
X61Y435D01*
X66Y435D02*
X67Y435D01*
X87Y435D02*
X88Y435D01*
X108Y435D02*
X109Y435D01*
X136Y435D02*
X138Y435D01*
X157Y435D02*
X158Y435D01*
X191Y435D02*
X192Y435D01*
X207Y435D02*
X208Y435D01*
X236Y435D02*
X237Y435D01*
X245Y435D02*
X246Y435D01*
X256Y435D02*
X258Y435D01*
X293Y435D02*
X303Y435D01*
X346Y435D02*
X348Y435D01*
X351Y435D02*
X352Y435D01*
X393Y435D02*
X395Y435D01*
X453Y435D02*
X454Y435D01*
X500Y435D02*
X501Y435D01*
X528Y435D02*
X530Y435D01*
X534Y435D02*
X535Y435D01*
X543Y435D02*
X545Y435D01*
X549Y435D02*
X554Y435D01*
X567Y435D02*
X569Y435D01*
X585Y435D02*
X587Y435D01*
X593Y435D02*
X595Y435D01*
X608Y435D02*
X609Y435D01*
X28Y434D02*
X37Y434D01*
X47Y434D02*
X49Y434D01*
X59Y434D02*
X61Y434D01*
X66Y434D02*
X67Y434D01*
X87Y434D02*
X88Y434D01*
X108Y434D02*
X109Y434D01*
X136Y434D02*
X138Y434D01*
X157Y434D02*
X158Y434D01*
X191Y434D02*
X192Y434D01*
X207Y434D02*
X208Y434D01*
X236Y434D02*
X237Y434D01*
X245Y434D02*
X246Y434D01*
X256Y434D02*
X258Y434D01*
X293Y434D02*
X303Y434D01*
X346Y434D02*
X348Y434D01*
X351Y434D02*
X352Y434D01*
X394Y434D02*
X395Y434D01*
X453Y434D02*
X454Y434D01*
X500Y434D02*
X501Y434D01*
X528Y434D02*
X529Y434D01*
X534Y434D02*
X535Y434D01*
X543Y434D02*
X545Y434D01*
X549Y434D02*
X550Y434D01*
X552Y434D02*
X554Y434D01*
X568Y434D02*
X570Y434D01*
X586Y434D02*
X587Y434D01*
X593Y434D02*
X594Y434D01*
X608Y434D02*
X609Y434D01*
X31Y433D02*
X33Y433D01*
X36Y433D02*
X37Y433D01*
X47Y433D02*
X49Y433D01*
X59Y433D02*
X61Y433D01*
X66Y433D02*
X67Y433D01*
X87Y433D02*
X94Y433D01*
X108Y433D02*
X109Y433D01*
X136Y433D02*
X145Y433D01*
X157Y433D02*
X158Y433D01*
X191Y433D02*
X192Y433D01*
X207Y433D02*
X208Y433D01*
X236Y433D02*
X237Y433D01*
X245Y433D02*
X246Y433D01*
X256Y433D02*
X258Y433D01*
X293Y433D02*
X302Y433D01*
X346Y433D02*
X348Y433D01*
X350Y433D02*
X352Y433D01*
X394Y433D02*
X397Y433D01*
X453Y433D02*
X454Y433D01*
X495Y433D02*
X501Y433D01*
X527Y433D02*
X529Y433D01*
X534Y433D02*
X535Y433D01*
X543Y433D02*
X545Y433D01*
X548Y433D02*
X550Y433D01*
X552Y433D02*
X554Y433D01*
X568Y433D02*
X570Y433D01*
X586Y433D02*
X587Y433D01*
X592Y433D02*
X594Y433D01*
X602Y433D02*
X609Y433D01*
X31Y432D02*
X32Y432D01*
X36Y432D02*
X37Y432D01*
X47Y432D02*
X49Y432D01*
X59Y432D02*
X61Y432D01*
X66Y432D02*
X67Y432D01*
X88Y432D02*
X95Y432D01*
X108Y432D02*
X109Y432D01*
X137Y432D02*
X146Y432D01*
X157Y432D02*
X158Y432D01*
X191Y432D02*
X192Y432D01*
X207Y432D02*
X208Y432D01*
X215Y432D02*
X215Y432D01*
X219Y432D02*
X225Y432D01*
X236Y432D02*
X237Y432D01*
X245Y432D02*
X246Y432D01*
X256Y432D02*
X258Y432D01*
X263Y432D02*
X264Y432D01*
X268Y432D02*
X273Y432D01*
X293Y432D02*
X294Y432D01*
X305Y432D02*
X306Y432D01*
X310Y432D02*
X315Y432D01*
X345Y432D02*
X354Y432D01*
X395Y432D02*
X398Y432D01*
X453Y432D02*
X454Y432D01*
X459Y432D02*
X459Y432D01*
X463Y432D02*
X469Y432D01*
X494Y432D02*
X501Y432D01*
X504Y432D02*
X504Y432D01*
X509Y432D02*
X514Y432D01*
X527Y432D02*
X529Y432D01*
X534Y432D02*
X535Y432D01*
X543Y432D02*
X545Y432D01*
X548Y432D02*
X549Y432D01*
X552Y432D02*
X554Y432D01*
X569Y432D02*
X570Y432D01*
X586Y432D02*
X588Y432D01*
X592Y432D02*
X593Y432D01*
X601Y432D02*
X609Y432D01*
X30Y431D02*
X32Y431D01*
X36Y431D02*
X37Y431D01*
X47Y431D02*
X49Y431D01*
X59Y431D02*
X61Y431D01*
X66Y431D02*
X67Y431D01*
X87Y431D02*
X94Y431D01*
X104Y431D02*
X104Y431D01*
X108Y431D02*
X109Y431D01*
X138Y431D02*
X147Y431D01*
X153Y431D02*
X153Y431D01*
X157Y431D02*
X158Y431D01*
X187Y431D02*
X187Y431D01*
X191Y431D02*
X192Y431D01*
X203Y431D02*
X203Y431D01*
X207Y431D02*
X208Y431D01*
X215Y431D02*
X225Y431D01*
X236Y431D02*
X237Y431D01*
X245Y431D02*
X246Y431D01*
X256Y431D02*
X258Y431D01*
X263Y431D02*
X273Y431D01*
X293Y431D02*
X294Y431D01*
X305Y431D02*
X315Y431D01*
X344Y431D02*
X354Y431D01*
X397Y431D02*
X399Y431D01*
X445Y431D02*
X454Y431D01*
X459Y431D02*
X469Y431D01*
X493Y431D02*
X501Y431D01*
X504Y431D02*
X514Y431D01*
X527Y431D02*
X529Y431D01*
X534Y431D02*
X535Y431D01*
X543Y431D02*
X545Y431D01*
X547Y431D02*
X549Y431D01*
X552Y431D02*
X554Y431D01*
X560Y431D02*
X564Y431D01*
X569Y431D02*
X570Y431D01*
X587Y431D02*
X588Y431D01*
X592Y431D02*
X593Y431D01*
X601Y431D02*
X602Y431D01*
X30Y430D02*
X31Y430D01*
X36Y430D02*
X37Y430D01*
X47Y430D02*
X49Y430D01*
X60Y430D02*
X61Y430D01*
X66Y430D02*
X67Y430D01*
X87Y430D02*
X88Y430D01*
X103Y430D02*
X104Y430D01*
X108Y430D02*
X109Y430D01*
X145Y430D02*
X147Y430D01*
X153Y430D02*
X154Y430D01*
X157Y430D02*
X158Y430D01*
X186Y430D02*
X187Y430D01*
X191Y430D02*
X192Y430D01*
X202Y430D02*
X204Y430D01*
X207Y430D02*
X208Y430D01*
X216Y430D02*
X219Y430D01*
X225Y430D02*
X225Y430D01*
X236Y430D02*
X237Y430D01*
X245Y430D02*
X246Y430D01*
X252Y430D02*
X253Y430D01*
X256Y430D02*
X258Y430D01*
X264Y430D02*
X267Y430D01*
X293Y430D02*
X294Y430D01*
X306Y430D02*
X310Y430D01*
X344Y430D02*
X345Y430D01*
X353Y430D02*
X354Y430D01*
X398Y430D02*
X399Y430D01*
X444Y430D02*
X454Y430D01*
X460Y430D02*
X463Y430D01*
X469Y430D02*
X469Y430D01*
X493Y430D02*
X495Y430D01*
X505Y430D02*
X508Y430D01*
X528Y430D02*
X529Y430D01*
X534Y430D02*
X535Y430D01*
X543Y430D02*
X545Y430D01*
X547Y430D02*
X548Y430D01*
X552Y430D02*
X554Y430D01*
X560Y430D02*
X564Y430D01*
X569Y430D02*
X570Y430D01*
X587Y430D02*
X589Y430D01*
X591Y430D02*
X593Y430D01*
X601Y430D02*
X602Y430D01*
X29Y429D02*
X31Y429D01*
X36Y429D02*
X37Y429D01*
X47Y429D02*
X49Y429D01*
X60Y429D02*
X62Y429D01*
X66Y429D02*
X67Y429D01*
X87Y429D02*
X88Y429D01*
X103Y429D02*
X105Y429D01*
X108Y429D02*
X109Y429D01*
X145Y429D02*
X147Y429D01*
X153Y429D02*
X154Y429D01*
X157Y429D02*
X158Y429D01*
X186Y429D02*
X187Y429D01*
X191Y429D02*
X192Y429D01*
X202Y429D02*
X204Y429D01*
X207Y429D02*
X208Y429D01*
X236Y429D02*
X237Y429D01*
X245Y429D02*
X246Y429D01*
X252Y429D02*
X253Y429D01*
X256Y429D02*
X258Y429D01*
X293Y429D02*
X294Y429D01*
X344Y429D02*
X345Y429D01*
X353Y429D02*
X354Y429D01*
X398Y429D02*
X399Y429D01*
X444Y429D02*
X446Y429D01*
X453Y429D02*
X454Y429D01*
X493Y429D02*
X495Y429D01*
X528Y429D02*
X530Y429D01*
X534Y429D02*
X535Y429D01*
X543Y429D02*
X548Y429D01*
X552Y429D02*
X554Y429D01*
X560Y429D02*
X563Y429D01*
X569Y429D02*
X570Y429D01*
X588Y429D02*
X589Y429D01*
X591Y429D02*
X592Y429D01*
X601Y429D02*
X602Y429D01*
X28Y428D02*
X30Y428D01*
X36Y428D02*
X37Y428D01*
X47Y428D02*
X49Y428D01*
X61Y428D02*
X62Y428D01*
X66Y428D02*
X67Y428D01*
X87Y428D02*
X88Y428D01*
X103Y428D02*
X105Y428D01*
X108Y428D02*
X109Y428D01*
X145Y428D02*
X147Y428D01*
X153Y428D02*
X154Y428D01*
X157Y428D02*
X158Y428D01*
X186Y428D02*
X187Y428D01*
X191Y428D02*
X192Y428D01*
X202Y428D02*
X204Y428D01*
X207Y428D02*
X208Y428D01*
X236Y428D02*
X237Y428D01*
X245Y428D02*
X246Y428D01*
X252Y428D02*
X253Y428D01*
X256Y428D02*
X258Y428D01*
X293Y428D02*
X294Y428D01*
X344Y428D02*
X345Y428D01*
X353Y428D02*
X354Y428D01*
X398Y428D02*
X399Y428D01*
X444Y428D02*
X445Y428D01*
X453Y428D02*
X454Y428D01*
X493Y428D02*
X495Y428D01*
X529Y428D02*
X530Y428D01*
X534Y428D02*
X535Y428D01*
X543Y428D02*
X548Y428D01*
X552Y428D02*
X554Y428D01*
X560Y428D02*
X561Y428D01*
X569Y428D02*
X570Y428D01*
X588Y428D02*
X592Y428D01*
X601Y428D02*
X602Y428D01*
X28Y427D02*
X30Y427D01*
X36Y427D02*
X37Y427D01*
X47Y427D02*
X49Y427D01*
X61Y427D02*
X63Y427D01*
X66Y427D02*
X67Y427D01*
X87Y427D02*
X88Y427D01*
X103Y427D02*
X105Y427D01*
X108Y427D02*
X109Y427D01*
X145Y427D02*
X147Y427D01*
X153Y427D02*
X154Y427D01*
X157Y427D02*
X158Y427D01*
X186Y427D02*
X187Y427D01*
X191Y427D02*
X192Y427D01*
X202Y427D02*
X204Y427D01*
X207Y427D02*
X208Y427D01*
X236Y427D02*
X237Y427D01*
X245Y427D02*
X246Y427D01*
X252Y427D02*
X253Y427D01*
X256Y427D02*
X258Y427D01*
X293Y427D02*
X294Y427D01*
X344Y427D02*
X345Y427D01*
X353Y427D02*
X354Y427D01*
X398Y427D02*
X399Y427D01*
X444Y427D02*
X445Y427D01*
X453Y427D02*
X454Y427D01*
X493Y427D02*
X495Y427D01*
X529Y427D02*
X531Y427D01*
X534Y427D02*
X535Y427D01*
X543Y427D02*
X547Y427D01*
X552Y427D02*
X554Y427D01*
X560Y427D02*
X561Y427D01*
X569Y427D02*
X570Y427D01*
X588Y427D02*
X592Y427D01*
X601Y427D02*
X602Y427D01*
X27Y426D02*
X29Y426D01*
X36Y426D02*
X37Y426D01*
X47Y426D02*
X49Y426D01*
X62Y426D02*
X68Y426D01*
X87Y426D02*
X88Y426D01*
X103Y426D02*
X105Y426D01*
X108Y426D02*
X109Y426D01*
X145Y426D02*
X147Y426D01*
X153Y426D02*
X154Y426D01*
X157Y426D02*
X158Y426D01*
X186Y426D02*
X188Y426D01*
X191Y426D02*
X192Y426D01*
X202Y426D02*
X204Y426D01*
X207Y426D02*
X208Y426D01*
X236Y426D02*
X237Y426D01*
X245Y426D02*
X246Y426D01*
X252Y426D02*
X253Y426D01*
X256Y426D02*
X258Y426D01*
X293Y426D02*
X294Y426D01*
X344Y426D02*
X345Y426D01*
X353Y426D02*
X354Y426D01*
X398Y426D02*
X399Y426D01*
X444Y426D02*
X446Y426D01*
X453Y426D02*
X454Y426D01*
X493Y426D02*
X495Y426D01*
X502Y426D02*
X503Y426D01*
X530Y426D02*
X531Y426D01*
X534Y426D02*
X535Y426D01*
X543Y426D02*
X547Y426D01*
X552Y426D02*
X554Y426D01*
X560Y426D02*
X561Y426D01*
X568Y426D02*
X570Y426D01*
X589Y426D02*
X591Y426D01*
X601Y426D02*
X603Y426D01*
X608Y426D02*
X611Y426D01*
X27Y425D02*
X28Y425D01*
X36Y425D02*
X37Y425D01*
X47Y425D02*
X49Y425D01*
X62Y425D02*
X69Y425D01*
X87Y425D02*
X97Y425D01*
X103Y425D02*
X113Y425D01*
X137Y425D02*
X147Y425D01*
X153Y425D02*
X162Y425D01*
X186Y425D02*
X196Y425D01*
X202Y425D02*
X212Y425D01*
X236Y425D02*
X246Y425D01*
X252Y425D02*
X261Y425D01*
X293Y425D02*
X295Y425D01*
X344Y425D02*
X354Y425D01*
X398Y425D02*
X399Y425D01*
X444Y425D02*
X454Y425D01*
X493Y425D02*
X503Y425D01*
X530Y425D02*
X537Y425D01*
X543Y425D02*
X546Y425D01*
X552Y425D02*
X554Y425D01*
X560Y425D02*
X569Y425D01*
X589Y425D02*
X591Y425D01*
X601Y425D02*
X611Y425D01*
X36Y424D02*
X36Y424D01*
X48Y424D02*
X48Y424D01*
X64Y424D02*
X69Y424D01*
X88Y424D02*
X97Y424D01*
X103Y424D02*
X113Y424D01*
X137Y424D02*
X147Y424D01*
X153Y424D02*
X163Y424D01*
X186Y424D02*
X196Y424D01*
X203Y424D02*
X212Y424D01*
X236Y424D02*
X245Y424D01*
X252Y424D02*
X262Y424D01*
X293Y424D02*
X295Y424D01*
X344Y424D02*
X354Y424D01*
X398Y424D02*
X399Y424D01*
X444Y424D02*
X454Y424D01*
X494Y424D02*
X502Y424D01*
X531Y424D02*
X537Y424D01*
X543Y424D02*
X546Y424D01*
X553Y424D02*
X553Y424D01*
X561Y424D02*
X568Y424D01*
X590Y424D02*
X590Y424D01*
X602Y424D02*
X609Y424D01*
X238Y423D02*
X244Y423D01*
X253Y423D02*
X261Y423D01*
X346Y423D02*
X352Y423D01*
X236Y364D02*
X239Y364D01*
X359Y364D02*
X363Y364D01*
X109Y363D02*
X116Y363D01*
X131Y363D02*
X144Y363D01*
X156Y363D02*
X169Y363D01*
X235Y363D02*
X239Y363D01*
X258Y363D02*
X269Y363D01*
X359Y363D02*
X363Y363D01*
X377Y363D02*
X381Y363D01*
X390Y363D02*
X393Y363D01*
X108Y362D02*
X117Y362D01*
X130Y362D02*
X145Y362D01*
X155Y362D02*
X170Y362D01*
X235Y362D02*
X239Y362D01*
X256Y362D02*
X269Y362D01*
X359Y362D02*
X363Y362D01*
X377Y362D02*
X381Y362D01*
X389Y362D02*
X393Y362D01*
X108Y361D02*
X117Y361D01*
X129Y361D02*
X145Y361D01*
X154Y361D02*
X170Y361D01*
X214Y361D02*
X216Y361D01*
X235Y361D02*
X239Y361D01*
X255Y361D02*
X269Y361D01*
X359Y361D02*
X363Y361D01*
X377Y361D02*
X382Y361D01*
X388Y361D02*
X393Y361D01*
X108Y360D02*
X117Y360D01*
X129Y360D02*
X144Y360D01*
X154Y360D02*
X169Y360D01*
X214Y360D02*
X216Y360D01*
X236Y360D02*
X238Y360D01*
X254Y360D02*
X269Y360D01*
X360Y360D02*
X362Y360D01*
X377Y360D02*
X383Y360D01*
X388Y360D02*
X393Y360D01*
X108Y359D02*
X110Y359D01*
X115Y359D02*
X117Y359D01*
X129Y359D02*
X132Y359D01*
X154Y359D02*
X156Y359D01*
X214Y359D02*
X216Y359D01*
X254Y359D02*
X257Y359D01*
X267Y359D02*
X269Y359D01*
X377Y359D02*
X383Y359D01*
X387Y359D02*
X393Y359D01*
X108Y358D02*
X110Y358D01*
X115Y358D02*
X117Y358D01*
X129Y358D02*
X132Y358D01*
X154Y358D02*
X156Y358D01*
X214Y358D02*
X216Y358D01*
X253Y358D02*
X256Y358D01*
X267Y358D02*
X269Y358D01*
X377Y358D02*
X384Y358D01*
X386Y358D02*
X393Y358D01*
X108Y357D02*
X110Y357D01*
X115Y357D02*
X117Y357D01*
X129Y357D02*
X132Y357D01*
X154Y357D02*
X156Y357D01*
X214Y357D02*
X216Y357D01*
X253Y357D02*
X256Y357D01*
X267Y357D02*
X269Y357D01*
X377Y357D02*
X380Y357D01*
X382Y357D02*
X389Y357D01*
X391Y357D02*
X393Y357D01*
X108Y356D02*
X110Y356D01*
X115Y356D02*
X117Y356D01*
X129Y356D02*
X132Y356D01*
X154Y356D02*
X156Y356D01*
X207Y356D02*
X218Y356D01*
X237Y356D02*
X241Y356D01*
X253Y356D02*
X256Y356D01*
X267Y356D02*
X269Y356D01*
X284Y356D02*
X288Y356D01*
X308Y356D02*
X310Y356D01*
X329Y356D02*
X336Y356D01*
X361Y356D02*
X365Y356D01*
X377Y356D02*
X380Y356D01*
X382Y356D02*
X388Y356D01*
X391Y356D02*
X393Y356D01*
X108Y355D02*
X110Y355D01*
X115Y355D02*
X117Y355D01*
X129Y355D02*
X132Y355D01*
X154Y355D02*
X156Y355D01*
X205Y355D02*
X219Y355D01*
X235Y355D02*
X243Y355D01*
X253Y355D02*
X256Y355D01*
X267Y355D02*
X269Y355D01*
X281Y355D02*
X291Y355D01*
X305Y355D02*
X312Y355D01*
X317Y355D02*
X319Y355D01*
X328Y355D02*
X339Y355D01*
X359Y355D02*
X367Y355D01*
X377Y355D02*
X380Y355D01*
X383Y355D02*
X387Y355D01*
X391Y355D02*
X393Y355D01*
X108Y354D02*
X110Y354D01*
X115Y354D02*
X117Y354D01*
X129Y354D02*
X132Y354D01*
X154Y354D02*
X156Y354D01*
X205Y354D02*
X220Y354D01*
X235Y354D02*
X243Y354D01*
X253Y354D02*
X256Y354D01*
X267Y354D02*
X269Y354D01*
X280Y354D02*
X292Y354D01*
X304Y354D02*
X313Y354D01*
X316Y354D02*
X319Y354D01*
X328Y354D02*
X340Y354D01*
X359Y354D02*
X367Y354D01*
X377Y354D02*
X380Y354D01*
X384Y354D02*
X387Y354D01*
X391Y354D02*
X393Y354D01*
X108Y353D02*
X110Y353D01*
X115Y353D02*
X117Y353D01*
X129Y353D02*
X132Y353D01*
X154Y353D02*
X157Y353D01*
X206Y353D02*
X219Y353D01*
X235Y353D02*
X242Y353D01*
X253Y353D02*
X256Y353D01*
X267Y353D02*
X269Y353D01*
X279Y353D02*
X293Y353D01*
X303Y353D02*
X314Y353D01*
X316Y353D02*
X319Y353D01*
X328Y353D02*
X341Y353D01*
X359Y353D02*
X366Y353D01*
X377Y353D02*
X380Y353D01*
X384Y353D02*
X386Y353D01*
X391Y353D02*
X393Y353D01*
X108Y352D02*
X110Y352D01*
X115Y352D02*
X117Y352D01*
X129Y352D02*
X132Y352D01*
X154Y352D02*
X157Y352D01*
X214Y352D02*
X216Y352D01*
X235Y352D02*
X238Y352D01*
X254Y352D02*
X258Y352D01*
X267Y352D02*
X269Y352D01*
X278Y352D02*
X282Y352D01*
X290Y352D02*
X293Y352D01*
X303Y352D02*
X306Y352D01*
X311Y352D02*
X319Y352D01*
X338Y352D02*
X342Y352D01*
X359Y352D02*
X362Y352D01*
X377Y352D02*
X380Y352D01*
X384Y352D02*
X386Y352D01*
X391Y352D02*
X393Y352D01*
X106Y351D02*
X119Y351D01*
X129Y351D02*
X144Y351D01*
X155Y351D02*
X166Y351D01*
X214Y351D02*
X216Y351D01*
X235Y351D02*
X238Y351D01*
X255Y351D02*
X269Y351D01*
X278Y351D02*
X281Y351D01*
X291Y351D02*
X294Y351D01*
X303Y351D02*
X305Y351D01*
X312Y351D02*
X319Y351D01*
X339Y351D02*
X343Y351D01*
X359Y351D02*
X362Y351D01*
X377Y351D02*
X380Y351D01*
X391Y351D02*
X393Y351D01*
X105Y350D02*
X120Y350D01*
X130Y350D02*
X145Y350D01*
X155Y350D02*
X167Y350D01*
X214Y350D02*
X216Y350D01*
X235Y350D02*
X238Y350D01*
X255Y350D02*
X269Y350D01*
X278Y350D02*
X280Y350D01*
X292Y350D02*
X294Y350D01*
X303Y350D02*
X305Y350D01*
X314Y350D02*
X319Y350D01*
X340Y350D02*
X343Y350D01*
X359Y350D02*
X362Y350D01*
X377Y350D02*
X380Y350D01*
X391Y350D02*
X393Y350D01*
X105Y349D02*
X120Y349D01*
X131Y349D02*
X145Y349D01*
X155Y349D02*
X166Y349D01*
X214Y349D02*
X216Y349D01*
X235Y349D02*
X238Y349D01*
X255Y349D02*
X269Y349D01*
X278Y349D02*
X280Y349D01*
X292Y349D02*
X294Y349D01*
X303Y349D02*
X305Y349D01*
X315Y349D02*
X319Y349D01*
X341Y349D02*
X344Y349D01*
X359Y349D02*
X362Y349D01*
X377Y349D02*
X380Y349D01*
X391Y349D02*
X393Y349D01*
X104Y348D02*
X107Y348D01*
X118Y348D02*
X120Y348D01*
X143Y348D02*
X145Y348D01*
X154Y348D02*
X158Y348D01*
X214Y348D02*
X216Y348D01*
X235Y348D02*
X238Y348D01*
X254Y348D02*
X258Y348D01*
X267Y348D02*
X269Y348D01*
X278Y348D02*
X280Y348D01*
X292Y348D02*
X294Y348D01*
X316Y348D02*
X319Y348D01*
X341Y348D02*
X344Y348D01*
X359Y348D02*
X362Y348D01*
X377Y348D02*
X380Y348D01*
X391Y348D02*
X393Y348D01*
X104Y347D02*
X107Y347D01*
X118Y347D02*
X121Y347D01*
X143Y347D02*
X145Y347D01*
X154Y347D02*
X157Y347D01*
X214Y347D02*
X216Y347D01*
X235Y347D02*
X238Y347D01*
X254Y347D02*
X257Y347D01*
X267Y347D02*
X269Y347D01*
X278Y347D02*
X280Y347D01*
X292Y347D02*
X294Y347D01*
X316Y347D02*
X319Y347D01*
X341Y347D02*
X344Y347D01*
X359Y347D02*
X362Y347D01*
X377Y347D02*
X380Y347D01*
X391Y347D02*
X393Y347D01*
X104Y346D02*
X107Y346D01*
X118Y346D02*
X121Y346D01*
X143Y346D02*
X145Y346D01*
X154Y346D02*
X156Y346D01*
X214Y346D02*
X216Y346D01*
X235Y346D02*
X238Y346D01*
X253Y346D02*
X256Y346D01*
X267Y346D02*
X269Y346D01*
X278Y346D02*
X280Y346D01*
X292Y346D02*
X294Y346D01*
X316Y346D02*
X319Y346D01*
X341Y346D02*
X344Y346D01*
X359Y346D02*
X362Y346D01*
X377Y346D02*
X380Y346D01*
X391Y346D02*
X393Y346D01*
X104Y345D02*
X107Y345D01*
X118Y345D02*
X121Y345D01*
X143Y345D02*
X145Y345D01*
X154Y345D02*
X156Y345D01*
X214Y345D02*
X216Y345D01*
X235Y345D02*
X238Y345D01*
X253Y345D02*
X256Y345D01*
X267Y345D02*
X269Y345D01*
X278Y345D02*
X280Y345D01*
X292Y345D02*
X294Y345D01*
X316Y345D02*
X319Y345D01*
X341Y345D02*
X344Y345D01*
X359Y345D02*
X362Y345D01*
X377Y345D02*
X380Y345D01*
X391Y345D02*
X393Y345D01*
X104Y344D02*
X107Y344D01*
X118Y344D02*
X121Y344D01*
X143Y344D02*
X145Y344D01*
X154Y344D02*
X156Y344D01*
X214Y344D02*
X216Y344D01*
X235Y344D02*
X238Y344D01*
X253Y344D02*
X256Y344D01*
X267Y344D02*
X269Y344D01*
X278Y344D02*
X280Y344D01*
X292Y344D02*
X294Y344D01*
X316Y344D02*
X319Y344D01*
X341Y344D02*
X344Y344D01*
X359Y344D02*
X362Y344D01*
X377Y344D02*
X380Y344D01*
X391Y344D02*
X393Y344D01*
X104Y343D02*
X107Y343D01*
X118Y343D02*
X121Y343D01*
X143Y343D02*
X145Y343D01*
X154Y343D02*
X156Y343D01*
X214Y343D02*
X216Y343D01*
X235Y343D02*
X238Y343D01*
X253Y343D02*
X256Y343D01*
X267Y343D02*
X269Y343D01*
X278Y343D02*
X280Y343D01*
X292Y343D02*
X294Y343D01*
X316Y343D02*
X319Y343D01*
X341Y343D02*
X343Y343D01*
X359Y343D02*
X362Y343D01*
X377Y343D02*
X380Y343D01*
X391Y343D02*
X393Y343D01*
X104Y342D02*
X107Y342D01*
X118Y342D02*
X121Y342D01*
X143Y342D02*
X145Y342D01*
X154Y342D02*
X156Y342D01*
X204Y342D02*
X206Y342D01*
X214Y342D02*
X216Y342D01*
X235Y342D02*
X238Y342D01*
X253Y342D02*
X256Y342D01*
X267Y342D02*
X269Y342D01*
X278Y342D02*
X281Y342D01*
X291Y342D02*
X294Y342D01*
X316Y342D02*
X319Y342D01*
X339Y342D02*
X343Y342D01*
X359Y342D02*
X362Y342D01*
X377Y342D02*
X380Y342D01*
X391Y342D02*
X393Y342D01*
X104Y341D02*
X107Y341D01*
X118Y341D02*
X121Y341D01*
X143Y341D02*
X145Y341D01*
X154Y341D02*
X156Y341D01*
X204Y341D02*
X206Y341D01*
X214Y341D02*
X216Y341D01*
X235Y341D02*
X238Y341D01*
X254Y341D02*
X257Y341D01*
X267Y341D02*
X269Y341D01*
X278Y341D02*
X281Y341D01*
X290Y341D02*
X294Y341D01*
X316Y341D02*
X319Y341D01*
X338Y341D02*
X342Y341D01*
X359Y341D02*
X362Y341D01*
X377Y341D02*
X380Y341D01*
X391Y341D02*
X393Y341D01*
X104Y340D02*
X107Y340D01*
X118Y340D02*
X120Y340D01*
X142Y340D02*
X145Y340D01*
X154Y340D02*
X157Y340D01*
X204Y340D02*
X208Y340D01*
X212Y340D02*
X216Y340D01*
X235Y340D02*
X238Y340D01*
X254Y340D02*
X259Y340D01*
X266Y340D02*
X269Y340D01*
X279Y340D02*
X283Y340D01*
X288Y340D02*
X293Y340D01*
X316Y340D02*
X319Y340D01*
X336Y340D02*
X341Y340D01*
X359Y340D02*
X362Y340D01*
X377Y340D02*
X380Y340D01*
X391Y340D02*
X393Y340D01*
X105Y339D02*
X120Y339D01*
X129Y339D02*
X145Y339D01*
X154Y339D02*
X170Y339D01*
X204Y339D02*
X215Y339D01*
X230Y339D02*
X243Y339D01*
X255Y339D02*
X269Y339D01*
X280Y339D02*
X292Y339D01*
X316Y339D02*
X319Y339D01*
X328Y339D02*
X340Y339D01*
X354Y339D02*
X366Y339D01*
X377Y339D02*
X380Y339D01*
X391Y339D02*
X393Y339D01*
X105Y338D02*
X120Y338D01*
X129Y338D02*
X145Y338D01*
X155Y338D02*
X170Y338D01*
X205Y338D02*
X215Y338D01*
X230Y338D02*
X243Y338D01*
X256Y338D02*
X269Y338D01*
X281Y338D02*
X291Y338D01*
X316Y338D02*
X319Y338D01*
X328Y338D02*
X339Y338D01*
X354Y338D02*
X367Y338D01*
X377Y338D02*
X379Y338D01*
X391Y338D02*
X393Y338D01*
X106Y337D02*
X119Y337D01*
X130Y337D02*
X145Y337D01*
X156Y337D02*
X169Y337D01*
X207Y337D02*
X213Y337D01*
X231Y337D02*
X242Y337D01*
X258Y337D02*
X269Y337D01*
X282Y337D02*
X290Y337D01*
X317Y337D02*
X318Y337D01*
X328Y337D02*
X338Y337D01*
X355Y337D02*
X366Y337D01*
X378Y337D02*
X379Y337D01*
X391Y337D02*
X393Y337D01*
X160Y328D02*
X162Y328D01*
X47Y327D02*
X57Y327D01*
X83Y327D02*
X93Y327D01*
X159Y327D02*
X162Y327D01*
X227Y327D02*
X228Y327D01*
X237Y327D02*
X238Y327D01*
X46Y326D02*
X57Y326D01*
X82Y326D02*
X93Y326D01*
X159Y326D02*
X162Y326D01*
X226Y326D02*
X228Y326D01*
X236Y326D02*
X238Y326D01*
X46Y325D02*
X48Y325D01*
X82Y325D02*
X84Y325D01*
X92Y325D02*
X94Y325D01*
X226Y325D02*
X228Y325D01*
X236Y325D02*
X238Y325D01*
X46Y324D02*
X48Y324D01*
X82Y324D02*
X84Y324D01*
X92Y324D02*
X94Y324D01*
X226Y324D02*
X228Y324D01*
X236Y324D02*
X238Y324D01*
X46Y323D02*
X48Y323D01*
X82Y323D02*
X84Y323D01*
X92Y323D02*
X94Y323D01*
X226Y323D02*
X228Y323D01*
X236Y323D02*
X238Y323D01*
X46Y322D02*
X48Y322D01*
X82Y322D02*
X84Y322D01*
X92Y322D02*
X94Y322D01*
X121Y322D02*
X124Y322D01*
X129Y322D02*
X129Y322D01*
X139Y322D02*
X145Y322D01*
X160Y322D02*
X164Y322D01*
X174Y322D02*
X182Y322D01*
X193Y322D02*
X197Y322D01*
X201Y322D02*
X201Y322D01*
X211Y322D02*
X217Y322D01*
X226Y322D02*
X228Y322D01*
X236Y322D02*
X238Y322D01*
X46Y321D02*
X48Y321D01*
X82Y321D02*
X84Y321D01*
X92Y321D02*
X94Y321D01*
X120Y321D02*
X126Y321D01*
X128Y321D02*
X130Y321D01*
X138Y321D02*
X146Y321D01*
X159Y321D02*
X164Y321D01*
X173Y321D02*
X183Y321D01*
X191Y321D02*
X198Y321D01*
X200Y321D02*
X202Y321D01*
X210Y321D02*
X218Y321D01*
X227Y321D02*
X229Y321D01*
X236Y321D02*
X238Y321D01*
X46Y320D02*
X48Y320D01*
X82Y320D02*
X84Y320D01*
X92Y320D02*
X94Y320D01*
X119Y320D02*
X130Y320D01*
X137Y320D02*
X147Y320D01*
X159Y320D02*
X164Y320D01*
X173Y320D02*
X183Y320D01*
X191Y320D02*
X202Y320D01*
X209Y320D02*
X219Y320D01*
X227Y320D02*
X229Y320D01*
X235Y320D02*
X237Y320D01*
X46Y319D02*
X56Y319D01*
X82Y319D02*
X84Y319D01*
X92Y319D02*
X94Y319D01*
X119Y319D02*
X120Y319D01*
X125Y319D02*
X130Y319D01*
X137Y319D02*
X138Y319D01*
X146Y319D02*
X147Y319D01*
X159Y319D02*
X161Y319D01*
X173Y319D02*
X173Y319D01*
X182Y319D02*
X183Y319D01*
X190Y319D02*
X192Y319D01*
X197Y319D02*
X202Y319D01*
X209Y319D02*
X211Y319D01*
X218Y319D02*
X220Y319D01*
X228Y319D02*
X229Y319D01*
X235Y319D02*
X237Y319D01*
X47Y318D02*
X57Y318D01*
X82Y318D02*
X84Y318D01*
X92Y318D02*
X94Y318D01*
X119Y318D02*
X120Y318D01*
X127Y318D02*
X130Y318D01*
X136Y318D02*
X138Y318D01*
X146Y318D02*
X148Y318D01*
X159Y318D02*
X161Y318D01*
X180Y318D02*
X183Y318D01*
X190Y318D02*
X192Y318D01*
X198Y318D02*
X202Y318D01*
X208Y318D02*
X210Y318D01*
X218Y318D02*
X220Y318D01*
X228Y318D02*
X230Y318D01*
X235Y318D02*
X236Y318D01*
X48Y317D02*
X58Y317D01*
X82Y317D02*
X84Y317D01*
X92Y317D02*
X94Y317D01*
X119Y317D02*
X120Y317D01*
X128Y317D02*
X130Y317D01*
X136Y317D02*
X138Y317D01*
X146Y317D02*
X148Y317D01*
X159Y317D02*
X161Y317D01*
X178Y317D02*
X183Y317D01*
X191Y317D02*
X191Y317D01*
X199Y317D02*
X202Y317D01*
X208Y317D02*
X210Y317D01*
X218Y317D02*
X220Y317D01*
X228Y317D02*
X230Y317D01*
X234Y317D02*
X236Y317D01*
X56Y316D02*
X58Y316D01*
X70Y316D02*
X70Y316D01*
X82Y316D02*
X84Y316D01*
X92Y316D02*
X94Y316D01*
X118Y316D02*
X120Y316D01*
X128Y316D02*
X130Y316D01*
X136Y316D02*
X138Y316D01*
X146Y316D02*
X148Y316D01*
X159Y316D02*
X161Y316D01*
X176Y316D02*
X181Y316D01*
X200Y316D02*
X202Y316D01*
X208Y316D02*
X220Y316D01*
X229Y316D02*
X230Y316D01*
X234Y316D02*
X236Y316D01*
X56Y315D02*
X58Y315D01*
X68Y315D02*
X72Y315D01*
X82Y315D02*
X84Y315D01*
X92Y315D02*
X94Y315D01*
X118Y315D02*
X120Y315D01*
X128Y315D02*
X130Y315D01*
X136Y315D02*
X138Y315D01*
X146Y315D02*
X148Y315D01*
X159Y315D02*
X161Y315D01*
X174Y315D02*
X179Y315D01*
X200Y315D02*
X202Y315D01*
X208Y315D02*
X220Y315D01*
X229Y315D02*
X231Y315D01*
X233Y315D02*
X235Y315D01*
X56Y314D02*
X58Y314D01*
X68Y314D02*
X72Y314D01*
X82Y314D02*
X84Y314D01*
X92Y314D02*
X94Y314D01*
X118Y314D02*
X120Y314D01*
X128Y314D02*
X130Y314D01*
X136Y314D02*
X138Y314D01*
X146Y314D02*
X148Y314D01*
X159Y314D02*
X161Y314D01*
X173Y314D02*
X176Y314D01*
X200Y314D02*
X202Y314D01*
X209Y314D02*
X220Y314D01*
X230Y314D02*
X231Y314D01*
X233Y314D02*
X235Y314D01*
X56Y313D02*
X58Y313D01*
X68Y313D02*
X72Y313D01*
X82Y313D02*
X84Y313D01*
X92Y313D02*
X94Y313D01*
X118Y313D02*
X120Y313D01*
X128Y313D02*
X130Y313D01*
X136Y313D02*
X138Y313D01*
X146Y313D02*
X148Y313D01*
X159Y313D02*
X161Y313D01*
X173Y313D02*
X174Y313D01*
X200Y313D02*
X202Y313D01*
X218Y313D02*
X220Y313D01*
X230Y313D02*
X234Y313D01*
X56Y312D02*
X58Y312D01*
X68Y312D02*
X72Y312D01*
X82Y312D02*
X84Y312D01*
X92Y312D02*
X94Y312D01*
X118Y312D02*
X120Y312D01*
X128Y312D02*
X130Y312D01*
X136Y312D02*
X138Y312D01*
X146Y312D02*
X148Y312D01*
X159Y312D02*
X161Y312D01*
X172Y312D02*
X174Y312D01*
X200Y312D02*
X202Y312D01*
X218Y312D02*
X220Y312D01*
X230Y312D02*
X234Y312D01*
X56Y311D02*
X58Y311D01*
X82Y311D02*
X84Y311D01*
X92Y311D02*
X94Y311D01*
X118Y311D02*
X120Y311D01*
X128Y311D02*
X130Y311D01*
X137Y311D02*
X139Y311D01*
X145Y311D02*
X147Y311D01*
X159Y311D02*
X161Y311D01*
X173Y311D02*
X175Y311D01*
X182Y311D02*
X184Y311D01*
X200Y311D02*
X202Y311D01*
X217Y311D02*
X219Y311D01*
X231Y311D02*
X234Y311D01*
X46Y310D02*
X58Y310D01*
X82Y310D02*
X94Y310D01*
X118Y310D02*
X120Y310D01*
X128Y310D02*
X130Y310D01*
X138Y310D02*
X147Y310D01*
X156Y310D02*
X164Y310D01*
X173Y310D02*
X184Y310D01*
X200Y310D02*
X202Y310D01*
X209Y310D02*
X219Y310D01*
X231Y310D02*
X233Y310D01*
X46Y309D02*
X58Y309D01*
X83Y309D02*
X93Y309D01*
X118Y309D02*
X120Y309D01*
X128Y309D02*
X130Y309D01*
X139Y309D02*
X145Y309D01*
X156Y309D02*
X164Y309D01*
X174Y309D02*
X183Y309D01*
X201Y309D02*
X202Y309D01*
X209Y309D02*
X218Y309D01*
X232Y309D02*
X233Y309D01*
X535Y238D02*
X536Y238D01*
X555Y238D02*
X556Y238D01*
X587Y238D02*
X589Y238D01*
X604Y238D02*
X606Y238D01*
X624Y238D02*
X626Y238D01*
X535Y237D02*
X537Y237D01*
X555Y237D02*
X557Y237D01*
X587Y237D02*
X589Y237D01*
X604Y237D02*
X606Y237D01*
X624Y237D02*
X626Y237D01*
X535Y236D02*
X537Y236D01*
X555Y236D02*
X557Y236D01*
X587Y236D02*
X590Y236D01*
X604Y236D02*
X606Y236D01*
X624Y236D02*
X626Y236D01*
X535Y235D02*
X537Y235D01*
X545Y235D02*
X546Y235D01*
X555Y235D02*
X557Y235D01*
X568Y235D02*
X580Y235D01*
X588Y235D02*
X590Y235D01*
X604Y235D02*
X606Y235D01*
X624Y235D02*
X626Y235D01*
X167Y234D02*
X175Y234D01*
X535Y234D02*
X537Y234D01*
X545Y234D02*
X547Y234D01*
X555Y234D02*
X557Y234D01*
X568Y234D02*
X580Y234D01*
X588Y234D02*
X590Y234D01*
X604Y234D02*
X606Y234D01*
X624Y234D02*
X626Y234D01*
X167Y233D02*
X175Y233D01*
X535Y233D02*
X537Y233D01*
X545Y233D02*
X547Y233D01*
X555Y233D02*
X557Y233D01*
X568Y233D02*
X580Y233D01*
X588Y233D02*
X590Y233D01*
X604Y233D02*
X606Y233D01*
X623Y233D02*
X626Y233D01*
X167Y232D02*
X175Y232D01*
X535Y232D02*
X537Y232D01*
X545Y232D02*
X547Y232D01*
X555Y232D02*
X557Y232D01*
X568Y232D02*
X570Y232D01*
X578Y232D02*
X580Y232D01*
X588Y232D02*
X590Y232D01*
X604Y232D02*
X626Y232D01*
X167Y231D02*
X175Y231D01*
X535Y231D02*
X537Y231D01*
X545Y231D02*
X547Y231D01*
X555Y231D02*
X557Y231D01*
X568Y231D02*
X570Y231D01*
X578Y231D02*
X580Y231D01*
X588Y231D02*
X590Y231D01*
X604Y231D02*
X626Y231D01*
X167Y230D02*
X176Y230D01*
X535Y230D02*
X537Y230D01*
X545Y230D02*
X547Y230D01*
X555Y230D02*
X557Y230D01*
X568Y230D02*
X570Y230D01*
X578Y230D02*
X580Y230D01*
X588Y230D02*
X590Y230D01*
X604Y230D02*
X626Y230D01*
X166Y229D02*
X176Y229D01*
X535Y229D02*
X537Y229D01*
X545Y229D02*
X547Y229D01*
X555Y229D02*
X557Y229D01*
X568Y229D02*
X570Y229D01*
X578Y229D02*
X580Y229D01*
X588Y229D02*
X590Y229D01*
X624Y229D02*
X626Y229D01*
X166Y228D02*
X176Y228D01*
X535Y228D02*
X537Y228D01*
X544Y228D02*
X547Y228D01*
X555Y228D02*
X557Y228D01*
X568Y228D02*
X570Y228D01*
X578Y228D02*
X580Y228D01*
X588Y228D02*
X590Y228D01*
X624Y228D02*
X626Y228D01*
X166Y227D02*
X176Y227D01*
X535Y227D02*
X557Y227D01*
X568Y227D02*
X570Y227D01*
X578Y227D02*
X590Y227D01*
X618Y227D02*
X626Y227D01*
X166Y226D02*
X176Y226D01*
X535Y226D02*
X556Y226D01*
X568Y226D02*
X570Y226D01*
X578Y226D02*
X590Y226D01*
X617Y226D02*
X626Y226D01*
X144Y225D02*
X144Y225D01*
X166Y225D02*
X177Y225D01*
X198Y225D02*
X198Y225D01*
X536Y225D02*
X545Y225D01*
X547Y225D02*
X556Y225D01*
X568Y225D02*
X570Y225D01*
X579Y225D02*
X589Y225D01*
X617Y225D02*
X626Y225D01*
X143Y224D02*
X146Y224D01*
X166Y224D02*
X177Y224D01*
X197Y224D02*
X199Y224D01*
X142Y223D02*
X147Y223D01*
X165Y223D02*
X177Y223D01*
X195Y223D02*
X200Y223D01*
X141Y222D02*
X148Y222D01*
X162Y222D02*
X180Y222D01*
X194Y222D02*
X201Y222D01*
X140Y221D02*
X150Y221D01*
X159Y221D02*
X183Y221D01*
X192Y221D02*
X202Y221D01*
X139Y220D02*
X151Y220D01*
X157Y220D02*
X185Y220D01*
X191Y220D02*
X203Y220D01*
X139Y219D02*
X153Y219D01*
X155Y219D02*
X187Y219D01*
X189Y219D02*
X203Y219D01*
X140Y218D02*
X202Y218D01*
X141Y217D02*
X202Y217D01*
X141Y216D02*
X201Y216D01*
X142Y215D02*
X200Y215D01*
X143Y214D02*
X200Y214D01*
X143Y213D02*
X199Y213D01*
X549Y213D02*
X552Y213D01*
X583Y213D02*
X585Y213D01*
X619Y213D02*
X621Y213D01*
X144Y212D02*
X198Y212D01*
X549Y212D02*
X553Y212D01*
X582Y212D02*
X586Y212D01*
X618Y212D02*
X622Y212D01*
X145Y211D02*
X198Y211D01*
X548Y211D02*
X553Y211D01*
X582Y211D02*
X586Y211D01*
X618Y211D02*
X622Y211D01*
X145Y210D02*
X197Y210D01*
X548Y210D02*
X553Y210D01*
X582Y210D02*
X586Y210D01*
X618Y210D02*
X622Y210D01*
X145Y209D02*
X197Y209D01*
X548Y209D02*
X553Y209D01*
X582Y209D02*
X586Y209D01*
X618Y209D02*
X622Y209D01*
X145Y208D02*
X166Y208D01*
X175Y208D02*
X198Y208D01*
X549Y208D02*
X552Y208D01*
X582Y208D02*
X586Y208D01*
X618Y208D02*
X622Y208D01*
X144Y207D02*
X163Y207D01*
X178Y207D02*
X198Y207D01*
X143Y206D02*
X161Y206D01*
X180Y206D02*
X199Y206D01*
X143Y205D02*
X160Y205D01*
X181Y205D02*
X199Y205D01*
X143Y204D02*
X159Y204D01*
X182Y204D02*
X200Y204D01*
X142Y203D02*
X158Y203D01*
X184Y203D02*
X200Y203D01*
X142Y202D02*
X157Y202D01*
X184Y202D02*
X201Y202D01*
X141Y201D02*
X156Y201D01*
X185Y201D02*
X201Y201D01*
X141Y200D02*
X155Y200D01*
X186Y200D02*
X201Y200D01*
X141Y199D02*
X154Y199D01*
X187Y199D02*
X201Y199D01*
X137Y198D02*
X154Y198D01*
X187Y198D02*
X206Y198D01*
X131Y197D02*
X153Y197D01*
X188Y197D02*
X211Y197D01*
X129Y196D02*
X153Y196D01*
X188Y196D02*
X213Y196D01*
X535Y196D02*
X536Y196D01*
X555Y196D02*
X556Y196D01*
X570Y196D02*
X588Y196D01*
X616Y196D02*
X624Y196D01*
X129Y195D02*
X152Y195D01*
X189Y195D02*
X213Y195D01*
X535Y195D02*
X537Y195D01*
X555Y195D02*
X557Y195D01*
X569Y195D02*
X590Y195D01*
X614Y195D02*
X625Y195D01*
X129Y194D02*
X152Y194D01*
X189Y194D02*
X213Y194D01*
X535Y194D02*
X537Y194D01*
X555Y194D02*
X557Y194D01*
X568Y194D02*
X590Y194D01*
X614Y194D02*
X626Y194D01*
X129Y193D02*
X152Y193D01*
X189Y193D02*
X213Y193D01*
X535Y193D02*
X537Y193D01*
X545Y193D02*
X546Y193D01*
X555Y193D02*
X557Y193D01*
X568Y193D02*
X570Y193D01*
X588Y193D02*
X590Y193D01*
X604Y193D02*
X616Y193D01*
X624Y193D02*
X626Y193D01*
X129Y192D02*
X152Y192D01*
X189Y192D02*
X213Y192D01*
X535Y192D02*
X537Y192D01*
X545Y192D02*
X547Y192D01*
X555Y192D02*
X557Y192D01*
X568Y192D02*
X570Y192D01*
X588Y192D02*
X590Y192D01*
X604Y192D02*
X616Y192D01*
X624Y192D02*
X626Y192D01*
X129Y191D02*
X152Y191D01*
X190Y191D02*
X213Y191D01*
X535Y191D02*
X537Y191D01*
X545Y191D02*
X547Y191D01*
X555Y191D02*
X557Y191D01*
X568Y191D02*
X570Y191D01*
X588Y191D02*
X590Y191D01*
X604Y191D02*
X616Y191D01*
X624Y191D02*
X626Y191D01*
X129Y190D02*
X152Y190D01*
X190Y190D02*
X213Y190D01*
X535Y190D02*
X537Y190D01*
X545Y190D02*
X547Y190D01*
X555Y190D02*
X557Y190D01*
X568Y190D02*
X570Y190D01*
X588Y190D02*
X590Y190D01*
X604Y190D02*
X606Y190D01*
X614Y190D02*
X616Y190D01*
X624Y190D02*
X626Y190D01*
X129Y189D02*
X152Y189D01*
X189Y189D02*
X213Y189D01*
X535Y189D02*
X537Y189D01*
X545Y189D02*
X547Y189D01*
X555Y189D02*
X557Y189D01*
X568Y189D02*
X570Y189D01*
X588Y189D02*
X590Y189D01*
X604Y189D02*
X606Y189D01*
X614Y189D02*
X616Y189D01*
X624Y189D02*
X626Y189D01*
X132Y188D02*
X152Y188D01*
X189Y188D02*
X210Y188D01*
X535Y188D02*
X537Y188D01*
X545Y188D02*
X547Y188D01*
X555Y188D02*
X557Y188D01*
X568Y188D02*
X570Y188D01*
X588Y188D02*
X590Y188D01*
X604Y188D02*
X606Y188D01*
X614Y188D02*
X616Y188D01*
X624Y188D02*
X626Y188D01*
X137Y187D02*
X152Y187D01*
X189Y187D02*
X205Y187D01*
X535Y187D02*
X537Y187D01*
X545Y187D02*
X547Y187D01*
X555Y187D02*
X557Y187D01*
X568Y187D02*
X570Y187D01*
X588Y187D02*
X590Y187D01*
X604Y187D02*
X616Y187D01*
X624Y187D02*
X626Y187D01*
X141Y186D02*
X152Y186D01*
X189Y186D02*
X202Y186D01*
X535Y186D02*
X537Y186D01*
X545Y186D02*
X547Y186D01*
X555Y186D02*
X557Y186D01*
X568Y186D02*
X570Y186D01*
X588Y186D02*
X590Y186D01*
X604Y186D02*
X616Y186D01*
X624Y186D02*
X626Y186D01*
X141Y185D02*
X153Y185D01*
X189Y185D02*
X201Y185D01*
X535Y185D02*
X537Y185D01*
X544Y185D02*
X547Y185D01*
X555Y185D02*
X557Y185D01*
X568Y185D02*
X570Y185D01*
X588Y185D02*
X590Y185D01*
X605Y185D02*
X616Y185D01*
X624Y185D02*
X626Y185D01*
X141Y184D02*
X153Y184D01*
X188Y184D02*
X201Y184D01*
X535Y184D02*
X556Y184D01*
X568Y184D02*
X590Y184D01*
X614Y184D02*
X626Y184D01*
X142Y183D02*
X153Y183D01*
X188Y183D02*
X201Y183D01*
X535Y183D02*
X556Y183D01*
X569Y183D02*
X589Y183D01*
X614Y183D02*
X625Y183D01*
X142Y182D02*
X154Y182D01*
X187Y182D02*
X200Y182D01*
X536Y182D02*
X544Y182D01*
X548Y182D02*
X555Y182D01*
X570Y182D02*
X588Y182D01*
X616Y182D02*
X624Y182D01*
X142Y181D02*
X155Y181D01*
X187Y181D02*
X200Y181D01*
X143Y180D02*
X155Y180D01*
X186Y180D02*
X200Y180D01*
X143Y179D02*
X156Y179D01*
X185Y179D02*
X199Y179D01*
X144Y178D02*
X157Y178D01*
X184Y178D02*
X199Y178D01*
X144Y177D02*
X158Y177D01*
X183Y177D02*
X198Y177D01*
X145Y176D02*
X159Y176D01*
X182Y176D02*
X198Y176D01*
X145Y175D02*
X160Y175D01*
X181Y175D02*
X197Y175D01*
X536Y175D02*
X541Y175D01*
X569Y175D02*
X574Y175D01*
X605Y175D02*
X610Y175D01*
X145Y174D02*
X160Y174D01*
X182Y174D02*
X198Y174D01*
X535Y174D02*
X543Y174D01*
X568Y174D02*
X577Y174D01*
X604Y174D02*
X613Y174D01*
X144Y173D02*
X160Y173D01*
X182Y173D02*
X198Y173D01*
X535Y173D02*
X546Y173D01*
X568Y173D02*
X579Y173D01*
X604Y173D02*
X615Y173D01*
X143Y172D02*
X160Y172D01*
X183Y172D02*
X199Y172D01*
X541Y172D02*
X548Y172D01*
X575Y172D02*
X582Y172D01*
X610Y172D02*
X618Y172D01*
X143Y171D02*
X159Y171D01*
X183Y171D02*
X200Y171D01*
X544Y171D02*
X551Y171D01*
X577Y171D02*
X585Y171D01*
X613Y171D02*
X620Y171D01*
X142Y170D02*
X159Y170D01*
X183Y170D02*
X200Y170D01*
X546Y170D02*
X554Y170D01*
X580Y170D02*
X587Y170D01*
X616Y170D02*
X623Y170D01*
X141Y169D02*
X158Y169D01*
X184Y169D02*
X201Y169D01*
X549Y169D02*
X556Y169D01*
X582Y169D02*
X589Y169D01*
X618Y169D02*
X625Y169D01*
X141Y168D02*
X158Y168D01*
X184Y168D02*
X202Y168D01*
X551Y168D02*
X557Y168D01*
X585Y168D02*
X590Y168D01*
X621Y168D02*
X626Y168D01*
X140Y167D02*
X158Y167D01*
X185Y167D02*
X202Y167D01*
X550Y167D02*
X556Y167D01*
X583Y167D02*
X590Y167D01*
X619Y167D02*
X626Y167D01*
X139Y166D02*
X157Y166D01*
X185Y166D02*
X203Y166D01*
X547Y166D02*
X555Y166D01*
X581Y166D02*
X588Y166D01*
X617Y166D02*
X624Y166D01*
X139Y165D02*
X151Y165D01*
X156Y165D02*
X157Y165D01*
X186Y165D02*
X187Y165D01*
X191Y165D02*
X203Y165D01*
X545Y165D02*
X552Y165D01*
X578Y165D02*
X586Y165D01*
X614Y165D02*
X621Y165D01*
X140Y164D02*
X150Y164D01*
X193Y164D02*
X202Y164D01*
X542Y164D02*
X550Y164D01*
X576Y164D02*
X583Y164D01*
X612Y164D02*
X619Y164D01*
X141Y163D02*
X148Y163D01*
X194Y163D02*
X201Y163D01*
X535Y163D02*
X547Y163D01*
X569Y163D02*
X580Y163D01*
X604Y163D02*
X616Y163D01*
X142Y162D02*
X147Y162D01*
X195Y162D02*
X200Y162D01*
X535Y162D02*
X544Y162D01*
X568Y162D02*
X578Y162D01*
X604Y162D02*
X614Y162D01*
X143Y161D02*
X145Y161D01*
X197Y161D02*
X199Y161D01*
X535Y161D02*
X542Y161D01*
X569Y161D02*
X575Y161D01*
X604Y161D02*
X611Y161D01*
X153Y153D02*
X153Y153D01*
X183Y153D02*
X183Y153D01*
X153Y152D02*
X153Y152D01*
X183Y152D02*
X183Y152D01*
X153Y151D02*
X153Y151D01*
X183Y151D02*
X183Y151D01*
X121Y150D02*
X123Y150D01*
X129Y150D02*
X131Y150D01*
X137Y150D02*
X140Y150D01*
X147Y150D02*
X147Y150D01*
X150Y150D02*
X150Y150D01*
X153Y150D02*
X156Y150D01*
X163Y150D02*
X165Y150D01*
X171Y150D02*
X173Y150D01*
X180Y150D02*
X183Y150D01*
X193Y150D02*
X197Y150D01*
X202Y150D02*
X206Y150D01*
X211Y150D02*
X214Y150D01*
X220Y150D02*
X223Y150D01*
X120Y149D02*
X121Y149D01*
X123Y149D02*
X124Y149D01*
X128Y149D02*
X129Y149D01*
X131Y149D02*
X132Y149D01*
X136Y149D02*
X137Y149D01*
X140Y149D02*
X141Y149D01*
X143Y149D02*
X144Y149D01*
X147Y149D02*
X147Y149D01*
X150Y149D02*
X150Y149D01*
X153Y149D02*
X154Y149D01*
X156Y149D02*
X157Y149D01*
X162Y149D02*
X163Y149D01*
X165Y149D02*
X166Y149D01*
X170Y149D02*
X171Y149D01*
X173Y149D02*
X174Y149D01*
X178Y149D02*
X180Y149D01*
X182Y149D02*
X183Y149D01*
X192Y149D02*
X194Y149D01*
X196Y149D02*
X198Y149D01*
X201Y149D02*
X203Y149D01*
X205Y149D02*
X206Y149D01*
X210Y149D02*
X212Y149D01*
X214Y149D02*
X215Y149D01*
X219Y149D02*
X221Y149D01*
X223Y149D02*
X224Y149D01*
X119Y148D02*
X120Y148D01*
X124Y148D02*
X124Y148D01*
X128Y148D02*
X128Y148D01*
X132Y148D02*
X133Y148D01*
X136Y148D02*
X136Y148D01*
X141Y148D02*
X141Y148D01*
X143Y148D02*
X144Y148D01*
X147Y148D02*
X147Y148D01*
X150Y148D02*
X150Y148D01*
X153Y148D02*
X153Y148D01*
X157Y148D02*
X158Y148D01*
X161Y148D02*
X162Y148D01*
X166Y148D02*
X166Y148D01*
X170Y148D02*
X170Y148D01*
X174Y148D02*
X175Y148D01*
X178Y148D02*
X178Y148D01*
X183Y148D02*
X183Y148D01*
X192Y148D02*
X193Y148D01*
X197Y148D02*
X198Y148D01*
X201Y148D02*
X202Y148D01*
X206Y148D02*
X207Y148D01*
X210Y148D02*
X211Y148D01*
X215Y148D02*
X216Y148D01*
X219Y148D02*
X220Y148D01*
X223Y148D02*
X224Y148D01*
X119Y147D02*
X120Y147D01*
X124Y147D02*
X124Y147D01*
X128Y147D02*
X128Y147D01*
X132Y147D02*
X133Y147D01*
X136Y147D02*
X137Y147D01*
X141Y147D02*
X141Y147D01*
X143Y147D02*
X144Y147D01*
X147Y147D02*
X147Y147D01*
X150Y147D02*
X150Y147D01*
X153Y147D02*
X153Y147D01*
X158Y147D02*
X158Y147D01*
X166Y147D02*
X166Y147D01*
X169Y147D02*
X170Y147D01*
X175Y147D02*
X175Y147D01*
X178Y147D02*
X178Y147D01*
X183Y147D02*
X183Y147D01*
X192Y147D02*
X193Y147D01*
X197Y147D02*
X198Y147D01*
X201Y147D02*
X204Y147D01*
X206Y147D02*
X207Y147D01*
X210Y147D02*
X211Y147D01*
X215Y147D02*
X216Y147D01*
X219Y147D02*
X219Y147D01*
X224Y147D02*
X224Y147D01*
X120Y146D02*
X122Y146D01*
X124Y146D02*
X124Y146D01*
X132Y146D02*
X133Y146D01*
X136Y146D02*
X139Y146D01*
X143Y146D02*
X144Y146D01*
X147Y146D02*
X147Y146D01*
X150Y146D02*
X150Y146D01*
X153Y146D02*
X153Y146D01*
X158Y146D02*
X158Y146D01*
X166Y146D02*
X166Y146D01*
X169Y146D02*
X173Y146D01*
X178Y146D02*
X178Y146D01*
X183Y146D02*
X183Y146D01*
X192Y146D02*
X193Y146D01*
X197Y146D02*
X198Y146D01*
X202Y146D02*
X207Y146D01*
X210Y146D02*
X211Y146D01*
X215Y146D02*
X216Y146D01*
X219Y146D02*
X219Y146D01*
X224Y146D02*
X224Y146D01*
X122Y145D02*
X124Y145D01*
X132Y145D02*
X133Y145D01*
X136Y145D02*
X136Y145D01*
X139Y145D02*
X141Y145D01*
X143Y145D02*
X144Y145D01*
X147Y145D02*
X147Y145D01*
X150Y145D02*
X150Y145D01*
X153Y145D02*
X153Y145D01*
X158Y145D02*
X158Y145D01*
X166Y145D02*
X166Y145D01*
X169Y145D02*
X170Y145D01*
X173Y145D02*
X174Y145D01*
X178Y145D02*
X178Y145D01*
X183Y145D02*
X183Y145D01*
X192Y145D02*
X193Y145D01*
X197Y145D02*
X198Y145D01*
X201Y145D02*
X201Y145D01*
X205Y145D02*
X207Y145D01*
X210Y145D02*
X211Y145D01*
X215Y145D02*
X216Y145D01*
X219Y145D02*
X219Y145D01*
X224Y145D02*
X224Y145D01*
X119Y144D02*
X119Y144D01*
X124Y144D02*
X124Y144D01*
X132Y144D02*
X133Y144D01*
X136Y144D02*
X136Y144D01*
X141Y144D02*
X141Y144D01*
X143Y144D02*
X144Y144D01*
X147Y144D02*
X147Y144D01*
X150Y144D02*
X150Y144D01*
X153Y144D02*
X153Y144D01*
X158Y144D02*
X158Y144D01*
X166Y144D02*
X166Y144D01*
X169Y144D02*
X170Y144D01*
X174Y144D02*
X175Y144D01*
X178Y144D02*
X178Y144D01*
X183Y144D02*
X183Y144D01*
X192Y144D02*
X193Y144D01*
X197Y144D02*
X198Y144D01*
X201Y144D02*
X202Y144D01*
X206Y144D02*
X207Y144D01*
X210Y144D02*
X211Y144D01*
X215Y144D02*
X216Y144D01*
X219Y144D02*
X220Y144D01*
X223Y144D02*
X224Y144D01*
X119Y143D02*
X120Y143D01*
X123Y143D02*
X124Y143D01*
X132Y143D02*
X133Y143D01*
X136Y143D02*
X136Y143D01*
X141Y143D02*
X141Y143D01*
X144Y143D02*
X144Y143D01*
X147Y143D02*
X147Y143D01*
X150Y143D02*
X150Y143D01*
X153Y143D02*
X154Y143D01*
X157Y143D02*
X158Y143D01*
X166Y143D02*
X166Y143D01*
X169Y143D02*
X170Y143D01*
X174Y143D02*
X175Y143D01*
X178Y143D02*
X178Y143D01*
X183Y143D02*
X183Y143D01*
X192Y143D02*
X193Y143D01*
X197Y143D02*
X198Y143D01*
X201Y143D02*
X203Y143D01*
X205Y143D02*
X206Y143D01*
X210Y143D02*
X216Y143D01*
X219Y143D02*
X224Y143D01*
X120Y142D02*
X123Y142D01*
X132Y142D02*
X133Y142D01*
X136Y142D02*
X136Y142D01*
X138Y142D02*
X140Y142D01*
X144Y142D02*
X150Y142D01*
X154Y142D02*
X157Y142D01*
X166Y142D02*
X166Y142D01*
X169Y142D02*
X170Y142D01*
X172Y142D02*
X174Y142D01*
X178Y142D02*
X178Y142D01*
X183Y142D02*
X183Y142D01*
X192Y142D02*
X193Y142D01*
X197Y142D02*
X198Y142D01*
X202Y142D02*
X206Y142D01*
X211Y142D02*
X216Y142D01*
X220Y142D02*
X223Y142D01*
X215Y141D02*
X216Y141D01*
X215Y140D02*
X216Y140D01*
X215Y139D02*
X216Y139D01*
X216Y138D02*
X216Y138D01*
X84Y133D02*
X85Y133D01*
X92Y133D02*
X100Y133D01*
X84Y132D02*
X85Y132D01*
X92Y132D02*
X100Y132D01*
X84Y131D02*
X85Y131D01*
X92Y131D02*
X93Y131D01*
X99Y131D02*
X100Y131D01*
X84Y130D02*
X85Y130D01*
X92Y130D02*
X93Y130D01*
X99Y130D02*
X100Y130D01*
X84Y129D02*
X85Y129D01*
X92Y129D02*
X93Y129D01*
X99Y129D02*
X100Y129D01*
X84Y128D02*
X85Y128D01*
X92Y128D02*
X93Y128D01*
X99Y128D02*
X100Y128D01*
X84Y127D02*
X85Y127D01*
X92Y127D02*
X93Y127D01*
X99Y127D02*
X100Y127D01*
X84Y126D02*
X85Y126D01*
X92Y126D02*
X93Y126D01*
X99Y126D02*
X100Y126D01*
X84Y125D02*
X86Y125D01*
X91Y125D02*
X93Y125D01*
X99Y125D02*
X100Y125D01*
X84Y124D02*
X93Y124D01*
X99Y124D02*
X100Y124D01*
X84Y123D02*
X92Y123D01*
X100Y123D02*
X100Y123D01*
X84Y117D02*
X87Y117D01*
X84Y116D02*
X90Y116D01*
X86Y115D02*
X94Y115D01*
X88Y114D02*
X97Y114D01*
X88Y113D02*
X89Y113D01*
X93Y113D02*
X100Y113D01*
X88Y112D02*
X89Y112D01*
X95Y112D02*
X100Y112D01*
X88Y111D02*
X89Y111D01*
X92Y111D02*
X99Y111D01*
X88Y110D02*
X96Y110D01*
X86Y109D02*
X93Y109D01*
X84Y108D02*
X89Y108D01*
X84Y107D02*
X86Y107D01*
X38Y36D02*
X47Y36D01*
X58Y36D02*
X59Y36D01*
X96Y36D02*
X96Y36D01*
X108Y36D02*
X109Y36D01*
X138Y36D02*
X146Y36D01*
X159Y36D02*
X160Y36D01*
X183Y36D02*
X193Y36D01*
X200Y36D02*
X207Y36D01*
X215Y36D02*
X223Y36D01*
X249Y36D02*
X258Y36D01*
X303Y36D02*
X308Y36D01*
X350Y36D02*
X359Y36D01*
X399Y36D02*
X407Y36D01*
X457Y36D02*
X457Y36D01*
X484Y36D02*
X488Y36D01*
X498Y36D02*
X503Y36D01*
X513Y36D02*
X513Y36D01*
X521Y36D02*
X521Y36D01*
X539Y36D02*
X544Y36D01*
X550Y36D02*
X550Y36D01*
X557Y36D02*
X559Y36D01*
X565Y36D02*
X569Y36D01*
X584Y36D02*
X584Y36D01*
X592Y36D02*
X593Y36D01*
X600Y36D02*
X608Y36D01*
X615Y36D02*
X615Y36D01*
X624Y36D02*
X624Y36D01*
X37Y35D02*
X47Y35D01*
X58Y35D02*
X59Y35D01*
X96Y35D02*
X97Y35D01*
X108Y35D02*
X109Y35D01*
X138Y35D02*
X146Y35D01*
X159Y35D02*
X160Y35D01*
X183Y35D02*
X193Y35D01*
X199Y35D02*
X207Y35D01*
X214Y35D02*
X223Y35D01*
X248Y35D02*
X258Y35D01*
X303Y35D02*
X308Y35D01*
X349Y35D02*
X359Y35D01*
X398Y35D02*
X408Y35D01*
X456Y35D02*
X457Y35D01*
X483Y35D02*
X489Y35D01*
X498Y35D02*
X504Y35D01*
X513Y35D02*
X514Y35D01*
X521Y35D02*
X522Y35D01*
X538Y35D02*
X544Y35D01*
X550Y35D02*
X551Y35D01*
X557Y35D02*
X559Y35D01*
X565Y35D02*
X570Y35D01*
X584Y35D02*
X585Y35D01*
X591Y35D02*
X593Y35D01*
X599Y35D02*
X609Y35D01*
X615Y35D02*
X616Y35D01*
X623Y35D02*
X624Y35D01*
X37Y34D02*
X39Y34D01*
X57Y34D02*
X60Y34D01*
X89Y34D02*
X90Y34D01*
X95Y34D02*
X97Y34D01*
X107Y34D02*
X109Y34D01*
X145Y34D02*
X146Y34D01*
X158Y34D02*
X160Y34D01*
X183Y34D02*
X184Y34D01*
X187Y34D02*
X189Y34D01*
X191Y34D02*
X193Y34D01*
X198Y34D02*
X200Y34D01*
X206Y34D02*
X208Y34D01*
X214Y34D02*
X215Y34D01*
X222Y34D02*
X223Y34D01*
X248Y34D02*
X249Y34D01*
X257Y34D02*
X258Y34D01*
X303Y34D02*
X304Y34D01*
X349Y34D02*
X350Y34D01*
X398Y34D02*
X406Y34D01*
X450Y34D02*
X450Y34D01*
X456Y34D02*
X457Y34D01*
X488Y34D02*
X490Y34D01*
X503Y34D02*
X505Y34D01*
X513Y34D02*
X514Y34D01*
X521Y34D02*
X522Y34D01*
X537Y34D02*
X539Y34D01*
X541Y34D02*
X542Y34D01*
X550Y34D02*
X551Y34D01*
X556Y34D02*
X559Y34D01*
X569Y34D02*
X571Y34D01*
X584Y34D02*
X585Y34D01*
X591Y34D02*
X593Y34D01*
X603Y34D02*
X605Y34D01*
X615Y34D02*
X616Y34D01*
X623Y34D02*
X624Y34D01*
X37Y33D02*
X38Y33D01*
X57Y33D02*
X60Y33D01*
X89Y33D02*
X90Y33D01*
X95Y33D02*
X97Y33D01*
X107Y33D02*
X110Y33D01*
X145Y33D02*
X146Y33D01*
X158Y33D02*
X161Y33D01*
X184Y33D02*
X184Y33D01*
X187Y33D02*
X188Y33D01*
X192Y33D02*
X192Y33D01*
X199Y33D02*
X199Y33D01*
X206Y33D02*
X207Y33D01*
X213Y33D02*
X215Y33D01*
X222Y33D02*
X223Y33D01*
X248Y33D02*
X249Y33D01*
X257Y33D02*
X258Y33D01*
X303Y33D02*
X304Y33D01*
X349Y33D02*
X350Y33D01*
X398Y33D02*
X399Y33D01*
X449Y33D02*
X451Y33D01*
X456Y33D02*
X457Y33D01*
X489Y33D02*
X491Y33D01*
X504Y33D02*
X505Y33D01*
X513Y33D02*
X514Y33D01*
X521Y33D02*
X522Y33D01*
X537Y33D02*
X538Y33D01*
X541Y33D02*
X542Y33D01*
X550Y33D02*
X551Y33D01*
X556Y33D02*
X559Y33D01*
X570Y33D02*
X572Y33D01*
X584Y33D02*
X585Y33D01*
X590Y33D02*
X593Y33D01*
X603Y33D02*
X605Y33D01*
X615Y33D02*
X616Y33D01*
X623Y33D02*
X624Y33D01*
X37Y32D02*
X38Y32D01*
X57Y32D02*
X60Y32D01*
X89Y32D02*
X90Y32D01*
X95Y32D02*
X97Y32D01*
X107Y32D02*
X110Y32D01*
X145Y32D02*
X146Y32D01*
X158Y32D02*
X161Y32D01*
X187Y32D02*
X188Y32D01*
X205Y32D02*
X207Y32D01*
X213Y32D02*
X215Y32D01*
X222Y32D02*
X223Y32D01*
X248Y32D02*
X249Y32D01*
X257Y32D02*
X258Y32D01*
X303Y32D02*
X304Y32D01*
X349Y32D02*
X350Y32D01*
X398Y32D02*
X399Y32D01*
X449Y32D02*
X451Y32D01*
X456Y32D02*
X457Y32D01*
X490Y32D02*
X491Y32D01*
X505Y32D02*
X506Y32D01*
X513Y32D02*
X514Y32D01*
X521Y32D02*
X522Y32D01*
X536Y32D02*
X538Y32D01*
X541Y32D02*
X542Y32D01*
X550Y32D02*
X551Y32D01*
X555Y32D02*
X559Y32D01*
X571Y32D02*
X573Y32D01*
X584Y32D02*
X585Y32D01*
X590Y32D02*
X593Y32D01*
X603Y32D02*
X605Y32D01*
X615Y32D02*
X616Y32D01*
X623Y32D02*
X624Y32D01*
X37Y31D02*
X38Y31D01*
X56Y31D02*
X60Y31D01*
X89Y31D02*
X90Y31D01*
X95Y31D02*
X97Y31D01*
X106Y31D02*
X110Y31D01*
X145Y31D02*
X146Y31D01*
X157Y31D02*
X161Y31D01*
X187Y31D02*
X188Y31D01*
X204Y31D02*
X206Y31D01*
X214Y31D02*
X223Y31D01*
X248Y31D02*
X249Y31D01*
X257Y31D02*
X258Y31D01*
X303Y31D02*
X304Y31D01*
X349Y31D02*
X350Y31D01*
X398Y31D02*
X399Y31D01*
X449Y31D02*
X451Y31D01*
X456Y31D02*
X457Y31D01*
X490Y31D02*
X492Y31D01*
X505Y31D02*
X506Y31D01*
X513Y31D02*
X514Y31D01*
X521Y31D02*
X522Y31D01*
X536Y31D02*
X537Y31D01*
X541Y31D02*
X542Y31D01*
X550Y31D02*
X551Y31D01*
X555Y31D02*
X556Y31D01*
X558Y31D02*
X559Y31D01*
X572Y31D02*
X573Y31D01*
X584Y31D02*
X585Y31D01*
X589Y31D02*
X593Y31D01*
X603Y31D02*
X605Y31D01*
X615Y31D02*
X616Y31D01*
X623Y31D02*
X624Y31D01*
X37Y30D02*
X38Y30D01*
X56Y30D02*
X61Y30D01*
X89Y30D02*
X90Y30D01*
X95Y30D02*
X97Y30D01*
X106Y30D02*
X111Y30D01*
X145Y30D02*
X146Y30D01*
X157Y30D02*
X158Y30D01*
X160Y30D02*
X162Y30D01*
X187Y30D02*
X188Y30D01*
X204Y30D02*
X205Y30D01*
X214Y30D02*
X223Y30D01*
X248Y30D02*
X249Y30D01*
X257Y30D02*
X258Y30D01*
X303Y30D02*
X304Y30D01*
X349Y30D02*
X350Y30D01*
X398Y30D02*
X399Y30D01*
X449Y30D02*
X451Y30D01*
X456Y30D02*
X457Y30D01*
X491Y30D02*
X492Y30D01*
X506Y30D02*
X507Y30D01*
X513Y30D02*
X515Y30D01*
X520Y30D02*
X521Y30D01*
X535Y30D02*
X537Y30D01*
X541Y30D02*
X542Y30D01*
X550Y30D02*
X551Y30D01*
X554Y30D02*
X556Y30D01*
X558Y30D02*
X559Y30D01*
X572Y30D02*
X574Y30D01*
X584Y30D02*
X585Y30D01*
X589Y30D02*
X590Y30D01*
X592Y30D02*
X593Y30D01*
X603Y30D02*
X605Y30D01*
X615Y30D02*
X616Y30D01*
X622Y30D02*
X624Y30D01*
X37Y29D02*
X39Y29D01*
X56Y29D02*
X57Y29D01*
X60Y29D02*
X61Y29D01*
X89Y29D02*
X90Y29D01*
X95Y29D02*
X97Y29D01*
X106Y29D02*
X107Y29D01*
X110Y29D02*
X111Y29D01*
X145Y29D02*
X146Y29D01*
X157Y29D02*
X158Y29D01*
X161Y29D02*
X162Y29D01*
X187Y29D02*
X188Y29D01*
X203Y29D02*
X204Y29D01*
X216Y29D02*
X223Y29D01*
X248Y29D02*
X249Y29D01*
X257Y29D02*
X258Y29D01*
X303Y29D02*
X304Y29D01*
X349Y29D02*
X358Y29D01*
X398Y29D02*
X400Y29D01*
X449Y29D02*
X451Y29D01*
X456Y29D02*
X457Y29D01*
X491Y29D02*
X492Y29D01*
X506Y29D02*
X507Y29D01*
X514Y29D02*
X515Y29D01*
X520Y29D02*
X521Y29D01*
X535Y29D02*
X536Y29D01*
X541Y29D02*
X542Y29D01*
X550Y29D02*
X551Y29D01*
X554Y29D02*
X555Y29D01*
X558Y29D02*
X559Y29D01*
X573Y29D02*
X574Y29D01*
X584Y29D02*
X585Y29D01*
X588Y29D02*
X590Y29D01*
X592Y29D02*
X593Y29D01*
X603Y29D02*
X605Y29D01*
X615Y29D02*
X617Y29D01*
X622Y29D02*
X623Y29D01*
X38Y28D02*
X45Y28D01*
X56Y28D02*
X57Y28D01*
X60Y28D02*
X61Y28D01*
X89Y28D02*
X90Y28D01*
X95Y28D02*
X97Y28D01*
X106Y28D02*
X107Y28D01*
X110Y28D02*
X111Y28D01*
X139Y28D02*
X146Y28D01*
X157Y28D02*
X158Y28D01*
X161Y28D02*
X162Y28D01*
X187Y28D02*
X188Y28D01*
X202Y28D02*
X204Y28D01*
X217Y28D02*
X219Y28D01*
X222Y28D02*
X223Y28D01*
X248Y28D02*
X249Y28D01*
X257Y28D02*
X258Y28D01*
X303Y28D02*
X304Y28D01*
X349Y28D02*
X359Y28D01*
X398Y28D02*
X406Y28D01*
X417Y28D02*
X419Y28D01*
X449Y28D02*
X451Y28D01*
X456Y28D02*
X457Y28D01*
X491Y28D02*
X492Y28D01*
X506Y28D02*
X507Y28D01*
X514Y28D02*
X515Y28D01*
X519Y28D02*
X521Y28D01*
X535Y28D02*
X536Y28D01*
X541Y28D02*
X542Y28D01*
X550Y28D02*
X551Y28D01*
X554Y28D02*
X555Y28D01*
X558Y28D02*
X559Y28D01*
X573Y28D02*
X574Y28D01*
X584Y28D02*
X585Y28D01*
X588Y28D02*
X589Y28D01*
X592Y28D02*
X593Y28D01*
X603Y28D02*
X605Y28D01*
X616Y28D02*
X617Y28D01*
X622Y28D02*
X623Y28D01*
X38Y27D02*
X45Y27D01*
X55Y27D02*
X57Y27D01*
X60Y27D02*
X62Y27D01*
X89Y27D02*
X91Y27D01*
X95Y27D02*
X97Y27D01*
X105Y27D02*
X107Y27D01*
X110Y27D02*
X112Y27D01*
X138Y27D02*
X146Y27D01*
X156Y27D02*
X158Y27D01*
X161Y27D02*
X162Y27D01*
X187Y27D02*
X188Y27D01*
X201Y27D02*
X203Y27D01*
X217Y27D02*
X218Y27D01*
X222Y27D02*
X223Y27D01*
X248Y27D02*
X249Y27D01*
X257Y27D02*
X258Y27D01*
X303Y27D02*
X304Y27D01*
X351Y27D02*
X359Y27D01*
X398Y27D02*
X406Y27D01*
X410Y27D02*
X421Y27D01*
X449Y27D02*
X451Y27D01*
X456Y27D02*
X457Y27D01*
X491Y27D02*
X492Y27D01*
X506Y27D02*
X507Y27D01*
X515Y27D02*
X516Y27D01*
X519Y27D02*
X520Y27D01*
X535Y27D02*
X536Y27D01*
X541Y27D02*
X542Y27D01*
X550Y27D02*
X551Y27D01*
X553Y27D02*
X554Y27D01*
X558Y27D02*
X559Y27D01*
X565Y27D02*
X568Y27D01*
X573Y27D02*
X574Y27D01*
X584Y27D02*
X585Y27D01*
X587Y27D02*
X589Y27D01*
X592Y27D02*
X593Y27D01*
X603Y27D02*
X605Y27D01*
X616Y27D02*
X618Y27D01*
X621Y27D02*
X623Y27D01*
X37Y26D02*
X39Y26D01*
X55Y26D02*
X56Y26D01*
X60Y26D02*
X62Y26D01*
X88Y26D02*
X97Y26D01*
X105Y26D02*
X106Y26D01*
X110Y26D02*
X112Y26D01*
X138Y26D02*
X139Y26D01*
X156Y26D02*
X157Y26D01*
X161Y26D02*
X163Y26D01*
X187Y26D02*
X188Y26D01*
X200Y26D02*
X202Y26D01*
X216Y26D02*
X218Y26D01*
X222Y26D02*
X223Y26D01*
X248Y26D02*
X249Y26D01*
X257Y26D02*
X258Y26D01*
X298Y26D02*
X299Y26D01*
X303Y26D02*
X304Y26D01*
X358Y26D02*
X359Y26D01*
X398Y26D02*
X400Y26D01*
X411Y26D02*
X416Y26D01*
X420Y26D02*
X421Y26D01*
X448Y26D02*
X457Y26D01*
X490Y26D02*
X492Y26D01*
X505Y26D02*
X507Y26D01*
X515Y26D02*
X516Y26D01*
X519Y26D02*
X520Y26D01*
X536Y26D02*
X537Y26D01*
X541Y26D02*
X542Y26D01*
X550Y26D02*
X551Y26D01*
X553Y26D02*
X554Y26D01*
X558Y26D02*
X559Y26D01*
X565Y26D02*
X568Y26D01*
X573Y26D02*
X574Y26D01*
X584Y26D02*
X585Y26D01*
X587Y26D02*
X588Y26D01*
X592Y26D02*
X593Y26D01*
X603Y26D02*
X605Y26D01*
X617Y26D02*
X618Y26D01*
X621Y26D02*
X622Y26D01*
X37Y25D02*
X38Y25D01*
X55Y25D02*
X62Y25D01*
X88Y25D02*
X97Y25D01*
X105Y25D02*
X112Y25D01*
X138Y25D02*
X139Y25D01*
X156Y25D02*
X163Y25D01*
X187Y25D02*
X188Y25D01*
X200Y25D02*
X201Y25D01*
X215Y25D02*
X217Y25D01*
X222Y25D02*
X223Y25D01*
X248Y25D02*
X249Y25D01*
X257Y25D02*
X258Y25D01*
X298Y25D02*
X300Y25D01*
X303Y25D02*
X304Y25D01*
X358Y25D02*
X359Y25D01*
X398Y25D02*
X399Y25D01*
X413Y25D02*
X413Y25D01*
X449Y25D02*
X457Y25D01*
X490Y25D02*
X491Y25D01*
X505Y25D02*
X506Y25D01*
X515Y25D02*
X519Y25D01*
X536Y25D02*
X537Y25D01*
X541Y25D02*
X542Y25D01*
X550Y25D02*
X554Y25D01*
X558Y25D02*
X559Y25D01*
X565Y25D02*
X566Y25D01*
X573Y25D02*
X574Y25D01*
X584Y25D02*
X585Y25D01*
X587Y25D02*
X588Y25D01*
X592Y25D02*
X593Y25D01*
X603Y25D02*
X605Y25D01*
X617Y25D02*
X618Y25D01*
X620Y25D02*
X622Y25D01*
X37Y24D02*
X38Y24D01*
X54Y24D02*
X62Y24D01*
X89Y24D02*
X90Y24D01*
X104Y24D02*
X112Y24D01*
X138Y24D02*
X139Y24D01*
X155Y24D02*
X163Y24D01*
X187Y24D02*
X188Y24D01*
X199Y24D02*
X201Y24D01*
X215Y24D02*
X216Y24D01*
X222Y24D02*
X223Y24D01*
X248Y24D02*
X249Y24D01*
X257Y24D02*
X258Y24D01*
X298Y24D02*
X300Y24D01*
X303Y24D02*
X304Y24D01*
X358Y24D02*
X359Y24D01*
X398Y24D02*
X399Y24D01*
X449Y24D02*
X451Y24D01*
X489Y24D02*
X491Y24D01*
X504Y24D02*
X506Y24D01*
X516Y24D02*
X519Y24D01*
X537Y24D02*
X538Y24D01*
X541Y24D02*
X542Y24D01*
X550Y24D02*
X553Y24D01*
X558Y24D02*
X559Y24D01*
X565Y24D02*
X566Y24D01*
X573Y24D02*
X574Y24D01*
X584Y24D02*
X588Y24D01*
X592Y24D02*
X593Y24D01*
X603Y24D02*
X605Y24D01*
X617Y24D02*
X621Y24D01*
X37Y23D02*
X38Y23D01*
X54Y23D02*
X63Y23D01*
X89Y23D02*
X90Y23D01*
X104Y23D02*
X113Y23D01*
X138Y23D02*
X139Y23D01*
X155Y23D02*
X164Y23D01*
X187Y23D02*
X188Y23D01*
X198Y23D02*
X200Y23D01*
X207Y23D02*
X208Y23D01*
X214Y23D02*
X216Y23D01*
X222Y23D02*
X223Y23D01*
X248Y23D02*
X249Y23D01*
X257Y23D02*
X258Y23D01*
X298Y23D02*
X300Y23D01*
X303Y23D02*
X304Y23D01*
X358Y23D02*
X359Y23D01*
X398Y23D02*
X399Y23D01*
X449Y23D02*
X451Y23D01*
X489Y23D02*
X490Y23D01*
X504Y23D02*
X505Y23D01*
X516Y23D02*
X519Y23D01*
X537Y23D02*
X538Y23D01*
X541Y23D02*
X542Y23D01*
X550Y23D02*
X553Y23D01*
X558Y23D02*
X559Y23D01*
X565Y23D02*
X566Y23D01*
X573Y23D02*
X574Y23D01*
X584Y23D02*
X587Y23D01*
X592Y23D02*
X593Y23D01*
X603Y23D02*
X605Y23D01*
X618Y23D02*
X621Y23D01*
X37Y22D02*
X38Y22D01*
X54Y22D02*
X55Y22D01*
X62Y22D02*
X63Y22D01*
X89Y22D02*
X90Y22D01*
X104Y22D02*
X105Y22D01*
X112Y22D02*
X113Y22D01*
X138Y22D02*
X139Y22D01*
X155Y22D02*
X156Y22D01*
X163Y22D02*
X164Y22D01*
X187Y22D02*
X188Y22D01*
X198Y22D02*
X208Y22D01*
X214Y22D02*
X215Y22D01*
X222Y22D02*
X223Y22D01*
X248Y22D02*
X249Y22D01*
X257Y22D02*
X258Y22D01*
X298Y22D02*
X300Y22D01*
X303Y22D02*
X304Y22D01*
X358Y22D02*
X359Y22D01*
X398Y22D02*
X399Y22D01*
X449Y22D02*
X451Y22D01*
X484Y22D02*
X490Y22D01*
X498Y22D02*
X505Y22D01*
X516Y22D02*
X518Y22D01*
X538Y22D02*
X544Y22D01*
X550Y22D02*
X552Y22D01*
X558Y22D02*
X559Y22D01*
X565Y22D02*
X573Y22D01*
X584Y22D02*
X587Y22D01*
X592Y22D02*
X593Y22D01*
X603Y22D02*
X605Y22D01*
X618Y22D02*
X621Y22D01*
X37Y21D02*
X47Y21D01*
X54Y21D02*
X55Y21D01*
X62Y21D02*
X63Y21D01*
X89Y21D02*
X90Y21D01*
X104Y21D02*
X105Y21D01*
X112Y21D02*
X113Y21D01*
X138Y21D02*
X148Y21D01*
X154Y21D02*
X156Y21D01*
X163Y21D02*
X164Y21D01*
X187Y21D02*
X188Y21D01*
X199Y21D02*
X207Y21D01*
X213Y21D02*
X215Y21D01*
X222Y21D02*
X223Y21D01*
X248Y21D02*
X258Y21D01*
X298Y21D02*
X308Y21D01*
X349Y21D02*
X359Y21D01*
X398Y21D02*
X407Y21D01*
X449Y21D02*
X451Y21D01*
X483Y21D02*
X489Y21D01*
X498Y21D02*
X504Y21D01*
X517Y21D02*
X518Y21D01*
X538Y21D02*
X544Y21D01*
X550Y21D02*
X552Y21D01*
X558Y21D02*
X559Y21D01*
X566Y21D02*
X573Y21D01*
X584Y21D02*
X586Y21D01*
X592Y21D02*
X593Y21D01*
X599Y21D02*
X609Y21D01*
X619Y21D02*
X620Y21D01*
X38Y20D02*
X47Y20D01*
X53Y20D02*
X55Y20D01*
X62Y20D02*
X63Y20D01*
X89Y20D02*
X90Y20D01*
X103Y20D02*
X105Y20D01*
X112Y20D02*
X113Y20D01*
X138Y20D02*
X148Y20D01*
X154Y20D02*
X156Y20D01*
X163Y20D02*
X164Y20D01*
X249Y20D02*
X257Y20D01*
X298Y20D02*
X308Y20D01*
X349Y20D02*
X359Y20D01*
X398Y20D02*
X408Y20D01*
X449Y20D02*
X451Y20D01*
X584Y20D02*
X586Y20D01*
X593Y20D02*
X593Y20D01*
X600Y20D02*
X608Y20D01*
X619Y20D02*
X620Y20D01*
X140Y19D02*
X145Y19D01*
X299Y19D02*
X307Y19D01*
X399Y19D02*
X407Y19D01*
X450Y19D02*
X450Y19D01*
D02*
G04 End of Silk0*
M02*