G04 MADE WITH FRITZING*
G04 WWW.FRITZING.ORG*
G04 DOUBLE SIDED*
G04 HOLES PLATED*
G04 CONTOUR ON CENTER OF CONTOUR VECTOR*
%ASAXBY*%
%FSLAX23Y23*%
%MOIN*%
%OFA0B0*%
%SFA1.0B1.0*%
%ADD10R,0.655324X0.456693X0.639324X0.440693*%
%ADD11C,0.008000*%
%ADD12C,0.005865*%
%ADD13R,0.001000X0.001000*%
%LNSILK1*%
G90*
G70*
G54D11*
X4Y453D02*
X651Y453D01*
X651Y4D01*
X4Y4D01*
X4Y453D01*
D02*
X487Y226D02*
X521Y226D01*
D02*
X521Y114D02*
X487Y114D01*
D02*
X472Y159D02*
X472Y181D01*
D02*
X363Y265D02*
X363Y316D01*
D02*
X505Y316D02*
X505Y265D01*
G54D12*
D02*
X128Y300D02*
X117Y300D01*
D02*
X117Y288D02*
X117Y300D01*
D02*
X271Y300D02*
X283Y300D01*
D02*
X283Y300D02*
X283Y288D01*
D02*
X117Y148D02*
X117Y136D01*
D02*
X117Y136D02*
X128Y136D01*
D02*
X271Y136D02*
X283Y148D01*
G54D13*
X27Y441D02*
X32Y441D01*
X43Y441D02*
X53Y441D01*
X59Y441D02*
X67Y441D01*
X587Y441D02*
X594Y441D01*
X602Y441D02*
X602Y441D01*
X611Y441D02*
X611Y441D01*
X27Y440D02*
X34Y440D01*
X43Y440D02*
X53Y440D01*
X59Y440D02*
X69Y440D01*
X87Y440D02*
X93Y440D01*
X103Y440D02*
X113Y440D01*
X137Y440D02*
X142Y440D01*
X153Y440D02*
X162Y440D01*
X186Y440D02*
X192Y440D01*
X203Y440D02*
X208Y440D01*
X236Y440D02*
X241Y440D01*
X253Y440D02*
X261Y440D01*
X293Y440D02*
X303Y440D01*
X347Y440D02*
X352Y440D01*
X394Y440D02*
X404Y440D01*
X444Y440D02*
X447Y440D01*
X496Y440D02*
X503Y440D01*
X532Y440D02*
X537Y440D01*
X544Y440D02*
X546Y440D01*
X553Y440D02*
X554Y440D01*
X560Y440D02*
X566Y440D01*
X587Y440D02*
X595Y440D01*
X601Y440D02*
X602Y440D01*
X610Y440D02*
X611Y440D01*
X29Y439D02*
X34Y439D01*
X43Y439D02*
X45Y439D01*
X47Y439D02*
X49Y439D01*
X52Y439D02*
X53Y439D01*
X59Y439D02*
X61Y439D01*
X67Y439D02*
X69Y439D01*
X88Y439D02*
X93Y439D01*
X104Y439D02*
X113Y439D01*
X137Y439D02*
X142Y439D01*
X153Y439D02*
X163Y439D01*
X187Y439D02*
X192Y439D01*
X203Y439D02*
X208Y439D01*
X236Y439D02*
X241Y439D01*
X252Y439D02*
X262Y439D01*
X293Y439D02*
X303Y439D01*
X346Y439D02*
X352Y439D01*
X394Y439D02*
X404Y439D01*
X444Y439D02*
X446Y439D01*
X496Y439D02*
X503Y439D01*
X531Y439D02*
X537Y439D01*
X544Y439D02*
X546Y439D01*
X552Y439D02*
X554Y439D01*
X560Y439D02*
X567Y439D01*
X587Y439D02*
X594Y439D01*
X601Y439D02*
X602Y439D01*
X610Y439D02*
X611Y439D01*
X29Y438D02*
X30Y438D01*
X33Y438D02*
X35Y438D01*
X43Y438D02*
X44Y438D01*
X48Y438D02*
X49Y438D01*
X52Y438D02*
X53Y438D01*
X59Y438D02*
X61Y438D01*
X68Y438D02*
X69Y438D01*
X92Y438D02*
X93Y438D01*
X112Y438D02*
X114Y438D01*
X141Y438D02*
X142Y438D01*
X162Y438D02*
X163Y438D01*
X191Y438D02*
X192Y438D01*
X207Y438D02*
X208Y438D01*
X240Y438D02*
X241Y438D01*
X252Y438D02*
X253Y438D01*
X261Y438D02*
X262Y438D01*
X293Y438D02*
X294Y438D01*
X302Y438D02*
X303Y438D01*
X346Y438D02*
X348Y438D01*
X351Y438D02*
X352Y438D01*
X394Y438D02*
X394Y438D01*
X402Y438D02*
X404Y438D01*
X444Y438D02*
X446Y438D01*
X496Y438D02*
X497Y438D01*
X530Y438D02*
X532Y438D01*
X544Y438D02*
X547Y438D01*
X552Y438D02*
X554Y438D01*
X562Y438D02*
X563Y438D01*
X566Y438D02*
X567Y438D01*
X587Y438D02*
X588Y438D01*
X601Y438D02*
X602Y438D01*
X610Y438D02*
X611Y438D01*
X29Y437D02*
X30Y437D01*
X34Y437D02*
X35Y437D01*
X48Y437D02*
X49Y437D01*
X59Y437D02*
X61Y437D01*
X68Y437D02*
X69Y437D01*
X92Y437D02*
X93Y437D01*
X112Y437D02*
X114Y437D01*
X141Y437D02*
X142Y437D01*
X162Y437D02*
X163Y437D01*
X191Y437D02*
X192Y437D01*
X207Y437D02*
X208Y437D01*
X240Y437D02*
X241Y437D01*
X252Y437D02*
X253Y437D01*
X261Y437D02*
X262Y437D01*
X293Y437D02*
X294Y437D01*
X302Y437D02*
X303Y437D01*
X346Y437D02*
X348Y437D01*
X351Y437D02*
X352Y437D01*
X402Y437D02*
X404Y437D01*
X444Y437D02*
X446Y437D01*
X496Y437D02*
X497Y437D01*
X529Y437D02*
X531Y437D01*
X544Y437D02*
X547Y437D01*
X552Y437D02*
X554Y437D01*
X562Y437D02*
X563Y437D01*
X566Y437D02*
X568Y437D01*
X587Y437D02*
X588Y437D01*
X601Y437D02*
X602Y437D01*
X610Y437D02*
X611Y437D01*
X29Y436D02*
X30Y436D01*
X34Y436D02*
X36Y436D01*
X48Y436D02*
X49Y436D01*
X59Y436D02*
X61Y436D01*
X68Y436D02*
X69Y436D01*
X92Y436D02*
X93Y436D01*
X112Y436D02*
X114Y436D01*
X141Y436D02*
X142Y436D01*
X162Y436D02*
X163Y436D01*
X191Y436D02*
X192Y436D01*
X207Y436D02*
X208Y436D01*
X240Y436D02*
X241Y436D01*
X252Y436D02*
X253Y436D01*
X261Y436D02*
X262Y436D01*
X293Y436D02*
X294Y436D01*
X302Y436D02*
X303Y436D01*
X346Y436D02*
X348Y436D01*
X351Y436D02*
X352Y436D01*
X402Y436D02*
X404Y436D01*
X444Y436D02*
X446Y436D01*
X496Y436D02*
X497Y436D01*
X529Y436D02*
X531Y436D01*
X544Y436D02*
X548Y436D01*
X552Y436D02*
X554Y436D01*
X562Y436D02*
X563Y436D01*
X567Y436D02*
X568Y436D01*
X587Y436D02*
X588Y436D01*
X601Y436D02*
X603Y436D01*
X610Y436D02*
X611Y436D01*
X29Y435D02*
X30Y435D01*
X35Y435D02*
X36Y435D01*
X48Y435D02*
X49Y435D01*
X59Y435D02*
X69Y435D01*
X92Y435D02*
X93Y435D01*
X112Y435D02*
X114Y435D01*
X141Y435D02*
X142Y435D01*
X162Y435D02*
X163Y435D01*
X191Y435D02*
X192Y435D01*
X207Y435D02*
X208Y435D01*
X240Y435D02*
X241Y435D01*
X252Y435D02*
X253Y435D01*
X261Y435D02*
X262Y435D01*
X293Y435D02*
X303Y435D01*
X346Y435D02*
X348Y435D01*
X351Y435D02*
X352Y435D01*
X402Y435D02*
X404Y435D01*
X444Y435D02*
X446Y435D01*
X496Y435D02*
X497Y435D01*
X528Y435D02*
X530Y435D01*
X544Y435D02*
X545Y435D01*
X547Y435D02*
X548Y435D01*
X552Y435D02*
X554Y435D01*
X562Y435D02*
X563Y435D01*
X567Y435D02*
X569Y435D01*
X587Y435D02*
X588Y435D01*
X602Y435D02*
X603Y435D01*
X609Y435D02*
X611Y435D01*
X29Y434D02*
X30Y434D01*
X35Y434D02*
X37Y434D01*
X48Y434D02*
X49Y434D01*
X59Y434D02*
X68Y434D01*
X92Y434D02*
X93Y434D01*
X112Y434D02*
X113Y434D01*
X141Y434D02*
X142Y434D01*
X162Y434D02*
X163Y434D01*
X176Y434D02*
X180Y434D01*
X185Y434D02*
X185Y434D01*
X191Y434D02*
X192Y434D01*
X207Y434D02*
X208Y434D01*
X240Y434D02*
X241Y434D01*
X252Y434D02*
X253Y434D01*
X261Y434D02*
X262Y434D01*
X280Y434D02*
X284Y434D01*
X289Y434D02*
X289Y434D01*
X293Y434D02*
X303Y434D01*
X346Y434D02*
X348Y434D01*
X351Y434D02*
X352Y434D01*
X402Y434D02*
X404Y434D01*
X431Y434D02*
X434Y434D01*
X440Y434D02*
X440Y434D01*
X444Y434D02*
X446Y434D01*
X482Y434D02*
X485Y434D01*
X496Y434D02*
X497Y434D01*
X528Y434D02*
X529Y434D01*
X544Y434D02*
X545Y434D01*
X547Y434D02*
X548Y434D01*
X552Y434D02*
X554Y434D01*
X562Y434D02*
X563Y434D01*
X568Y434D02*
X569Y434D01*
X587Y434D02*
X588Y434D01*
X602Y434D02*
X603Y434D01*
X609Y434D02*
X610Y434D01*
X29Y433D02*
X30Y433D01*
X36Y433D02*
X37Y433D01*
X48Y433D02*
X49Y433D01*
X59Y433D02*
X61Y433D01*
X63Y433D02*
X65Y433D01*
X92Y433D02*
X93Y433D01*
X106Y433D02*
X113Y433D01*
X141Y433D02*
X142Y433D01*
X154Y433D02*
X163Y433D01*
X175Y433D02*
X185Y433D01*
X191Y433D02*
X192Y433D01*
X207Y433D02*
X208Y433D01*
X226Y433D02*
X231Y433D01*
X235Y433D02*
X236Y433D01*
X240Y433D02*
X241Y433D01*
X252Y433D02*
X253Y433D01*
X261Y433D02*
X262Y433D01*
X279Y433D02*
X289Y433D01*
X294Y433D02*
X303Y433D01*
X346Y433D02*
X348Y433D01*
X350Y433D02*
X352Y433D01*
X400Y433D02*
X403Y433D01*
X430Y433D02*
X440Y433D01*
X444Y433D02*
X446Y433D01*
X481Y433D02*
X491Y433D01*
X496Y433D02*
X502Y433D01*
X527Y433D02*
X529Y433D01*
X544Y433D02*
X545Y433D01*
X547Y433D02*
X549Y433D01*
X552Y433D02*
X554Y433D01*
X562Y433D02*
X563Y433D01*
X568Y433D02*
X570Y433D01*
X587Y433D02*
X594Y433D01*
X602Y433D02*
X604Y433D01*
X609Y433D02*
X610Y433D01*
X29Y432D02*
X30Y432D01*
X36Y432D02*
X37Y432D01*
X48Y432D02*
X49Y432D01*
X59Y432D02*
X61Y432D01*
X64Y432D02*
X65Y432D01*
X92Y432D02*
X93Y432D01*
X106Y432D02*
X113Y432D01*
X141Y432D02*
X142Y432D01*
X153Y432D02*
X162Y432D01*
X175Y432D02*
X175Y432D01*
X180Y432D02*
X185Y432D01*
X191Y432D02*
X192Y432D01*
X207Y432D02*
X208Y432D01*
X225Y432D02*
X235Y432D01*
X240Y432D02*
X241Y432D01*
X252Y432D02*
X253Y432D01*
X261Y432D02*
X262Y432D01*
X279Y432D02*
X279Y432D01*
X284Y432D02*
X288Y432D01*
X302Y432D02*
X303Y432D01*
X345Y432D02*
X354Y432D01*
X399Y432D02*
X402Y432D01*
X430Y432D02*
X430Y432D01*
X434Y432D02*
X440Y432D01*
X444Y432D02*
X446Y432D01*
X480Y432D02*
X481Y432D01*
X485Y432D02*
X490Y432D01*
X496Y432D02*
X503Y432D01*
X527Y432D02*
X529Y432D01*
X544Y432D02*
X545Y432D01*
X548Y432D02*
X549Y432D01*
X552Y432D02*
X554Y432D01*
X562Y432D02*
X563Y432D01*
X569Y432D02*
X570Y432D01*
X587Y432D02*
X595Y432D01*
X603Y432D02*
X604Y432D01*
X608Y432D02*
X610Y432D01*
X29Y431D02*
X30Y431D01*
X35Y431D02*
X37Y431D01*
X48Y431D02*
X49Y431D01*
X59Y431D02*
X61Y431D01*
X64Y431D02*
X66Y431D01*
X92Y431D02*
X93Y431D01*
X97Y431D02*
X97Y431D01*
X107Y431D02*
X113Y431D01*
X141Y431D02*
X142Y431D01*
X146Y431D02*
X146Y431D01*
X153Y431D02*
X161Y431D01*
X191Y431D02*
X192Y431D01*
X196Y431D02*
X196Y431D01*
X207Y431D02*
X208Y431D01*
X212Y431D02*
X212Y431D01*
X225Y431D02*
X225Y431D01*
X231Y431D02*
X235Y431D01*
X240Y431D02*
X241Y431D01*
X252Y431D02*
X253Y431D01*
X261Y431D02*
X262Y431D01*
X302Y431D02*
X303Y431D01*
X344Y431D02*
X354Y431D01*
X398Y431D02*
X401Y431D01*
X437Y431D02*
X438Y431D01*
X444Y431D02*
X454Y431D01*
X488Y431D02*
X488Y431D01*
X496Y431D02*
X504Y431D01*
X527Y431D02*
X529Y431D01*
X534Y431D02*
X537Y431D01*
X544Y431D02*
X545Y431D01*
X548Y431D02*
X550Y431D01*
X552Y431D02*
X554Y431D01*
X562Y431D02*
X563Y431D01*
X568Y431D02*
X570Y431D01*
X594Y431D02*
X595Y431D01*
X603Y431D02*
X605Y431D01*
X608Y431D02*
X609Y431D01*
X29Y430D02*
X30Y430D01*
X35Y430D02*
X36Y430D01*
X48Y430D02*
X49Y430D01*
X59Y430D02*
X61Y430D01*
X65Y430D02*
X67Y430D01*
X92Y430D02*
X93Y430D01*
X96Y430D02*
X97Y430D01*
X112Y430D02*
X113Y430D01*
X141Y430D02*
X142Y430D01*
X145Y430D02*
X147Y430D01*
X153Y430D02*
X154Y430D01*
X191Y430D02*
X192Y430D01*
X195Y430D02*
X196Y430D01*
X207Y430D02*
X208Y430D01*
X211Y430D02*
X213Y430D01*
X240Y430D02*
X241Y430D01*
X245Y430D02*
X246Y430D01*
X252Y430D02*
X253Y430D01*
X261Y430D02*
X262Y430D01*
X302Y430D02*
X303Y430D01*
X344Y430D02*
X345Y430D01*
X353Y430D02*
X354Y430D01*
X398Y430D02*
X400Y430D01*
X444Y430D02*
X454Y430D01*
X502Y430D02*
X504Y430D01*
X527Y430D02*
X529Y430D01*
X533Y430D02*
X538Y430D01*
X544Y430D02*
X545Y430D01*
X549Y430D02*
X550Y430D01*
X552Y430D02*
X554Y430D01*
X562Y430D02*
X563Y430D01*
X568Y430D02*
X569Y430D01*
X594Y430D02*
X595Y430D01*
X603Y430D02*
X605Y430D01*
X607Y430D02*
X609Y430D01*
X29Y429D02*
X30Y429D01*
X34Y429D02*
X36Y429D01*
X48Y429D02*
X49Y429D01*
X59Y429D02*
X61Y429D01*
X66Y429D02*
X67Y429D01*
X92Y429D02*
X93Y429D01*
X96Y429D02*
X97Y429D01*
X112Y429D02*
X114Y429D01*
X141Y429D02*
X142Y429D01*
X145Y429D02*
X147Y429D01*
X153Y429D02*
X154Y429D01*
X191Y429D02*
X192Y429D01*
X195Y429D02*
X196Y429D01*
X207Y429D02*
X208Y429D01*
X211Y429D02*
X213Y429D01*
X240Y429D02*
X241Y429D01*
X245Y429D02*
X246Y429D01*
X252Y429D02*
X253Y429D01*
X261Y429D02*
X262Y429D01*
X302Y429D02*
X303Y429D01*
X344Y429D02*
X345Y429D01*
X353Y429D02*
X354Y429D01*
X398Y429D02*
X399Y429D01*
X444Y429D02*
X446Y429D01*
X453Y429D02*
X454Y429D01*
X502Y429D02*
X504Y429D01*
X527Y429D02*
X529Y429D01*
X534Y429D02*
X538Y429D01*
X544Y429D02*
X545Y429D01*
X549Y429D02*
X554Y429D01*
X562Y429D02*
X563Y429D01*
X567Y429D02*
X569Y429D01*
X594Y429D02*
X595Y429D01*
X604Y429D02*
X605Y429D01*
X607Y429D02*
X609Y429D01*
X29Y428D02*
X30Y428D01*
X34Y428D02*
X35Y428D01*
X48Y428D02*
X49Y428D01*
X59Y428D02*
X61Y428D01*
X66Y428D02*
X68Y428D01*
X92Y428D02*
X93Y428D01*
X96Y428D02*
X97Y428D01*
X112Y428D02*
X114Y428D01*
X141Y428D02*
X142Y428D01*
X145Y428D02*
X147Y428D01*
X153Y428D02*
X154Y428D01*
X191Y428D02*
X192Y428D01*
X195Y428D02*
X196Y428D01*
X207Y428D02*
X208Y428D01*
X211Y428D02*
X213Y428D01*
X240Y428D02*
X241Y428D01*
X245Y428D02*
X246Y428D01*
X252Y428D02*
X253Y428D01*
X261Y428D02*
X262Y428D01*
X302Y428D02*
X303Y428D01*
X344Y428D02*
X345Y428D01*
X353Y428D02*
X354Y428D01*
X398Y428D02*
X399Y428D01*
X444Y428D02*
X446Y428D01*
X453Y428D02*
X454Y428D01*
X502Y428D02*
X504Y428D01*
X527Y428D02*
X529Y428D01*
X536Y428D02*
X538Y428D01*
X544Y428D02*
X545Y428D01*
X550Y428D02*
X554Y428D01*
X562Y428D02*
X563Y428D01*
X567Y428D02*
X568Y428D01*
X594Y428D02*
X595Y428D01*
X604Y428D02*
X608Y428D01*
X29Y427D02*
X30Y427D01*
X33Y427D02*
X35Y427D01*
X48Y427D02*
X49Y427D01*
X59Y427D02*
X61Y427D01*
X67Y427D02*
X68Y427D01*
X92Y427D02*
X93Y427D01*
X96Y427D02*
X97Y427D01*
X112Y427D02*
X114Y427D01*
X141Y427D02*
X142Y427D01*
X145Y427D02*
X147Y427D01*
X153Y427D02*
X154Y427D01*
X191Y427D02*
X192Y427D01*
X195Y427D02*
X196Y427D01*
X207Y427D02*
X208Y427D01*
X211Y427D02*
X213Y427D01*
X240Y427D02*
X241Y427D01*
X245Y427D02*
X246Y427D01*
X252Y427D02*
X253Y427D01*
X261Y427D02*
X262Y427D01*
X302Y427D02*
X303Y427D01*
X344Y427D02*
X345Y427D01*
X353Y427D02*
X354Y427D01*
X398Y427D02*
X399Y427D01*
X444Y427D02*
X446Y427D01*
X453Y427D02*
X454Y427D01*
X502Y427D02*
X504Y427D01*
X527Y427D02*
X529Y427D01*
X536Y427D02*
X538Y427D01*
X544Y427D02*
X545Y427D01*
X550Y427D02*
X554Y427D01*
X562Y427D02*
X563Y427D01*
X566Y427D02*
X568Y427D01*
X594Y427D02*
X595Y427D01*
X605Y427D02*
X608Y427D01*
X28Y426D02*
X34Y426D01*
X48Y426D02*
X49Y426D01*
X59Y426D02*
X61Y426D01*
X67Y426D02*
X69Y426D01*
X92Y426D02*
X93Y426D01*
X96Y426D02*
X97Y426D01*
X112Y426D02*
X114Y426D01*
X141Y426D02*
X142Y426D01*
X145Y426D02*
X147Y426D01*
X153Y426D02*
X154Y426D01*
X191Y426D02*
X192Y426D01*
X195Y426D02*
X196Y426D01*
X207Y426D02*
X208Y426D01*
X211Y426D02*
X213Y426D01*
X240Y426D02*
X241Y426D01*
X245Y426D02*
X246Y426D01*
X252Y426D02*
X253Y426D01*
X261Y426D02*
X262Y426D01*
X302Y426D02*
X303Y426D01*
X344Y426D02*
X345Y426D01*
X353Y426D02*
X354Y426D01*
X398Y426D02*
X399Y426D01*
X444Y426D02*
X446Y426D01*
X453Y426D02*
X454Y426D01*
X494Y426D02*
X495Y426D01*
X502Y426D02*
X504Y426D01*
X527Y426D02*
X529Y426D01*
X536Y426D02*
X537Y426D01*
X544Y426D02*
X545Y426D01*
X551Y426D02*
X554Y426D01*
X562Y426D02*
X563Y426D01*
X566Y426D02*
X567Y426D01*
X585Y426D02*
X588Y426D01*
X593Y426D02*
X595Y426D01*
X605Y426D02*
X607Y426D01*
X27Y425D02*
X34Y425D01*
X48Y425D02*
X49Y425D01*
X59Y425D02*
X60Y425D01*
X68Y425D02*
X69Y425D01*
X87Y425D02*
X97Y425D01*
X104Y425D02*
X113Y425D01*
X137Y425D02*
X147Y425D01*
X153Y425D02*
X163Y425D01*
X187Y425D02*
X196Y425D01*
X203Y425D02*
X213Y425D01*
X236Y425D02*
X246Y425D01*
X252Y425D02*
X262Y425D01*
X301Y425D02*
X303Y425D01*
X344Y425D02*
X354Y425D01*
X398Y425D02*
X399Y425D01*
X444Y425D02*
X454Y425D01*
X494Y425D02*
X503Y425D01*
X528Y425D02*
X537Y425D01*
X544Y425D02*
X545Y425D01*
X551Y425D02*
X554Y425D01*
X560Y425D02*
X567Y425D01*
X585Y425D02*
X595Y425D01*
X605Y425D02*
X607Y425D01*
X28Y424D02*
X32Y424D01*
X48Y424D02*
X48Y424D01*
X60Y424D02*
X60Y424D01*
X69Y424D02*
X69Y424D01*
X87Y424D02*
X97Y424D01*
X104Y424D02*
X113Y424D01*
X137Y424D02*
X147Y424D01*
X153Y424D02*
X163Y424D01*
X187Y424D02*
X196Y424D01*
X203Y424D02*
X212Y424D01*
X236Y424D02*
X246Y424D01*
X252Y424D02*
X262Y424D01*
X301Y424D02*
X303Y424D01*
X345Y424D02*
X354Y424D01*
X398Y424D02*
X399Y424D01*
X445Y424D02*
X454Y424D01*
X495Y424D02*
X503Y424D01*
X529Y424D02*
X536Y424D01*
X544Y424D02*
X545Y424D01*
X551Y424D02*
X554Y424D01*
X560Y424D02*
X566Y424D01*
X587Y424D02*
X594Y424D01*
X606Y424D02*
X606Y424D01*
X237Y423D02*
X245Y423D01*
X254Y423D02*
X260Y423D01*
X346Y423D02*
X352Y423D01*
X613Y351D02*
X618Y351D01*
X630Y351D02*
X632Y351D01*
X612Y350D02*
X619Y350D01*
X628Y350D02*
X632Y350D01*
X611Y349D02*
X620Y349D01*
X627Y349D02*
X632Y349D01*
X611Y348D02*
X613Y348D01*
X618Y348D02*
X620Y348D01*
X625Y348D02*
X630Y348D01*
X611Y347D02*
X613Y347D01*
X618Y347D02*
X620Y347D01*
X623Y347D02*
X628Y347D01*
X611Y346D02*
X613Y346D01*
X618Y346D02*
X626Y346D01*
X611Y345D02*
X613Y345D01*
X618Y345D02*
X625Y345D01*
X611Y344D02*
X613Y344D01*
X618Y344D02*
X623Y344D01*
X611Y343D02*
X613Y343D01*
X618Y343D02*
X621Y343D01*
X611Y342D02*
X613Y342D01*
X618Y342D02*
X620Y342D01*
X611Y341D02*
X613Y341D01*
X618Y341D02*
X620Y341D01*
X611Y340D02*
X632Y340D01*
X611Y339D02*
X632Y339D01*
X611Y338D02*
X632Y338D01*
X79Y332D02*
X87Y332D01*
X103Y332D02*
X117Y332D01*
X76Y331D02*
X88Y331D01*
X103Y331D02*
X118Y331D01*
X75Y330D02*
X89Y330D01*
X103Y330D02*
X119Y330D01*
X611Y330D02*
X630Y330D01*
X74Y329D02*
X88Y329D01*
X103Y329D02*
X118Y329D01*
X611Y329D02*
X632Y329D01*
X74Y328D02*
X87Y328D01*
X103Y328D02*
X117Y328D01*
X629Y328D02*
X632Y328D01*
X73Y327D02*
X77Y327D01*
X103Y327D02*
X106Y327D01*
X630Y327D02*
X632Y327D01*
X73Y326D02*
X77Y326D01*
X103Y326D02*
X106Y326D01*
X630Y326D02*
X632Y326D01*
X72Y325D02*
X76Y325D01*
X103Y325D02*
X106Y325D01*
X619Y325D02*
X632Y325D01*
X72Y324D02*
X76Y324D01*
X103Y324D02*
X106Y324D01*
X618Y324D02*
X632Y324D01*
X71Y323D02*
X75Y323D01*
X103Y323D02*
X106Y323D01*
X619Y323D02*
X632Y323D01*
X71Y322D02*
X75Y322D01*
X103Y322D02*
X106Y322D01*
X629Y322D02*
X632Y322D01*
X70Y321D02*
X74Y321D01*
X103Y321D02*
X106Y321D01*
X630Y321D02*
X632Y321D01*
X70Y320D02*
X74Y320D01*
X103Y320D02*
X106Y320D01*
X630Y320D02*
X632Y320D01*
X69Y319D02*
X73Y319D01*
X103Y319D02*
X106Y319D01*
X611Y319D02*
X632Y319D01*
X69Y318D02*
X73Y318D01*
X103Y318D02*
X115Y318D01*
X611Y318D02*
X631Y318D01*
X69Y317D02*
X72Y317D01*
X103Y317D02*
X117Y317D01*
X611Y317D02*
X630Y317D01*
X69Y316D02*
X72Y316D01*
X103Y316D02*
X118Y316D01*
X69Y315D02*
X72Y315D01*
X103Y315D02*
X118Y315D01*
X69Y314D02*
X72Y314D01*
X103Y314D02*
X119Y314D01*
X69Y313D02*
X73Y313D01*
X115Y313D02*
X119Y313D01*
X70Y312D02*
X73Y312D01*
X115Y312D02*
X119Y312D01*
X70Y311D02*
X74Y311D01*
X115Y311D02*
X119Y311D01*
X71Y310D02*
X74Y310D01*
X115Y310D02*
X119Y310D01*
X614Y310D02*
X620Y310D01*
X71Y309D02*
X75Y309D01*
X115Y309D02*
X119Y309D01*
X612Y309D02*
X622Y309D01*
X72Y308D02*
X75Y308D01*
X115Y308D02*
X119Y308D01*
X611Y308D02*
X623Y308D01*
X72Y307D02*
X76Y307D01*
X115Y307D02*
X119Y307D01*
X611Y307D02*
X614Y307D01*
X621Y307D02*
X624Y307D01*
X73Y306D02*
X76Y306D01*
X115Y306D02*
X119Y306D01*
X611Y306D02*
X613Y306D01*
X622Y306D02*
X624Y306D01*
X73Y305D02*
X77Y305D01*
X100Y305D02*
X102Y305D01*
X115Y305D02*
X119Y305D01*
X611Y305D02*
X613Y305D01*
X622Y305D02*
X624Y305D01*
X74Y304D02*
X78Y304D01*
X99Y304D02*
X104Y304D01*
X115Y304D02*
X119Y304D01*
X611Y304D02*
X613Y304D01*
X622Y304D02*
X624Y304D01*
X74Y303D02*
X88Y303D01*
X99Y303D02*
X118Y303D01*
X611Y303D02*
X613Y303D01*
X622Y303D02*
X624Y303D01*
X75Y302D02*
X89Y302D01*
X100Y302D02*
X118Y302D01*
X611Y302D02*
X613Y302D01*
X622Y302D02*
X624Y302D01*
X76Y301D02*
X88Y301D01*
X101Y301D02*
X117Y301D01*
X611Y301D02*
X613Y301D01*
X622Y301D02*
X624Y301D01*
X78Y300D02*
X88Y300D01*
X104Y300D02*
X116Y300D01*
X611Y300D02*
X613Y300D01*
X622Y300D02*
X624Y300D01*
X611Y299D02*
X613Y299D01*
X622Y299D02*
X624Y299D01*
X611Y298D02*
X632Y298D01*
X611Y297D02*
X632Y297D01*
X611Y296D02*
X631Y296D01*
X310Y256D02*
X321Y256D01*
X333Y256D02*
X344Y256D01*
X309Y255D02*
X322Y255D01*
X332Y255D02*
X344Y255D01*
X308Y254D02*
X322Y254D01*
X332Y254D02*
X344Y254D01*
X307Y253D02*
X321Y253D01*
X333Y253D02*
X344Y253D01*
X307Y252D02*
X311Y252D01*
X341Y252D02*
X344Y252D01*
X613Y252D02*
X625Y252D01*
X306Y251D02*
X310Y251D01*
X341Y251D02*
X344Y251D01*
X613Y251D02*
X626Y251D01*
X306Y250D02*
X310Y250D01*
X341Y250D02*
X344Y250D01*
X612Y250D02*
X626Y250D01*
X305Y249D02*
X309Y249D01*
X341Y249D02*
X344Y249D01*
X613Y249D02*
X626Y249D01*
X305Y248D02*
X309Y248D01*
X341Y248D02*
X344Y248D01*
X623Y248D02*
X626Y248D01*
X304Y247D02*
X308Y247D01*
X341Y247D02*
X344Y247D01*
X623Y247D02*
X626Y247D01*
X304Y246D02*
X308Y246D01*
X341Y246D02*
X344Y246D01*
X623Y246D02*
X626Y246D01*
X303Y245D02*
X307Y245D01*
X341Y245D02*
X344Y245D01*
X623Y245D02*
X626Y245D01*
X303Y244D02*
X307Y244D01*
X341Y244D02*
X344Y244D01*
X595Y244D02*
X626Y244D01*
X303Y243D02*
X306Y243D01*
X341Y243D02*
X344Y243D01*
X595Y243D02*
X626Y243D01*
X302Y242D02*
X306Y242D01*
X341Y242D02*
X344Y242D01*
X595Y242D02*
X626Y242D01*
X302Y241D02*
X306Y241D01*
X341Y241D02*
X344Y241D01*
X595Y241D02*
X626Y241D01*
X302Y240D02*
X306Y240D01*
X341Y240D02*
X344Y240D01*
X595Y240D02*
X626Y240D01*
X302Y239D02*
X306Y239D01*
X341Y239D02*
X344Y239D01*
X595Y239D02*
X598Y239D01*
X623Y239D02*
X626Y239D01*
X303Y238D02*
X306Y238D01*
X341Y238D02*
X344Y238D01*
X349Y238D02*
X352Y238D01*
X595Y238D02*
X598Y238D01*
X623Y238D02*
X626Y238D01*
X303Y237D02*
X307Y237D01*
X341Y237D02*
X344Y237D01*
X349Y237D02*
X352Y237D01*
X595Y237D02*
X598Y237D01*
X623Y237D02*
X626Y237D01*
X303Y236D02*
X307Y236D01*
X341Y236D02*
X344Y236D01*
X349Y236D02*
X352Y236D01*
X595Y236D02*
X598Y236D01*
X623Y236D02*
X626Y236D01*
X304Y235D02*
X308Y235D01*
X341Y235D02*
X344Y235D01*
X349Y235D02*
X352Y235D01*
X595Y235D02*
X598Y235D01*
X623Y235D02*
X626Y235D01*
X304Y234D02*
X308Y234D01*
X341Y234D02*
X344Y234D01*
X349Y234D02*
X352Y234D01*
X595Y234D02*
X598Y234D01*
X623Y234D02*
X626Y234D01*
X305Y233D02*
X309Y233D01*
X341Y233D02*
X344Y233D01*
X349Y233D02*
X352Y233D01*
X595Y233D02*
X598Y233D01*
X623Y233D02*
X626Y233D01*
X305Y232D02*
X309Y232D01*
X341Y232D02*
X344Y232D01*
X349Y232D02*
X352Y232D01*
X596Y232D02*
X597Y232D01*
X624Y232D02*
X625Y232D01*
X306Y231D02*
X310Y231D01*
X341Y231D02*
X344Y231D01*
X349Y231D02*
X352Y231D01*
X306Y230D02*
X310Y230D01*
X341Y230D02*
X344Y230D01*
X349Y230D02*
X352Y230D01*
X307Y229D02*
X311Y229D01*
X341Y229D02*
X344Y229D01*
X349Y229D02*
X352Y229D01*
X307Y228D02*
X321Y228D01*
X333Y228D02*
X352Y228D01*
X308Y227D02*
X322Y227D01*
X309Y226D02*
X322Y226D01*
X310Y225D02*
X321Y225D01*
X599Y222D02*
X604Y222D01*
X624Y222D02*
X625Y222D01*
X597Y221D02*
X606Y221D01*
X622Y221D02*
X626Y221D01*
X596Y220D02*
X607Y220D01*
X620Y220D02*
X626Y220D01*
X596Y219D02*
X608Y219D01*
X619Y219D02*
X626Y219D01*
X595Y218D02*
X599Y218D01*
X604Y218D02*
X608Y218D01*
X617Y218D02*
X624Y218D01*
X595Y217D02*
X598Y217D01*
X605Y217D02*
X608Y217D01*
X615Y217D02*
X623Y217D01*
X595Y216D02*
X598Y216D01*
X605Y216D02*
X608Y216D01*
X614Y216D02*
X621Y216D01*
X595Y215D02*
X598Y215D01*
X605Y215D02*
X608Y215D01*
X612Y215D02*
X619Y215D01*
X595Y214D02*
X598Y214D01*
X605Y214D02*
X618Y214D01*
X595Y213D02*
X598Y213D01*
X605Y213D02*
X616Y213D01*
X595Y212D02*
X598Y212D01*
X605Y212D02*
X614Y212D01*
X595Y211D02*
X598Y211D01*
X605Y211D02*
X612Y211D01*
X595Y210D02*
X598Y210D01*
X605Y210D02*
X611Y210D01*
X595Y209D02*
X598Y209D01*
X605Y209D02*
X609Y209D01*
X595Y208D02*
X598Y208D01*
X605Y208D02*
X608Y208D01*
X595Y207D02*
X598Y207D01*
X605Y207D02*
X608Y207D01*
X595Y206D02*
X598Y206D01*
X605Y206D02*
X609Y206D01*
X595Y205D02*
X626Y205D01*
X595Y204D02*
X626Y204D01*
X595Y203D02*
X626Y203D01*
X595Y202D02*
X625Y202D01*
X83Y136D02*
X85Y136D01*
X83Y135D02*
X88Y135D01*
X84Y134D02*
X91Y134D01*
X87Y133D02*
X95Y133D01*
X368Y133D02*
X377Y133D01*
X390Y133D02*
X405Y133D01*
X87Y132D02*
X88Y132D01*
X91Y132D02*
X98Y132D01*
X366Y132D02*
X378Y132D01*
X389Y132D02*
X407Y132D01*
X87Y131D02*
X88Y131D01*
X94Y131D02*
X99Y131D01*
X365Y131D02*
X378Y131D01*
X389Y131D02*
X408Y131D01*
X87Y130D02*
X88Y130D01*
X92Y130D02*
X99Y130D01*
X364Y130D02*
X378Y130D01*
X389Y130D02*
X408Y130D01*
X87Y129D02*
X96Y129D01*
X364Y129D02*
X369Y129D01*
X405Y129D02*
X408Y129D01*
X85Y128D02*
X93Y128D01*
X363Y128D02*
X367Y128D01*
X405Y128D02*
X408Y128D01*
X83Y127D02*
X89Y127D01*
X363Y127D02*
X366Y127D01*
X405Y127D02*
X408Y127D01*
X83Y126D02*
X86Y126D01*
X362Y126D02*
X366Y126D01*
X405Y126D02*
X408Y126D01*
X362Y125D02*
X365Y125D01*
X405Y125D02*
X408Y125D01*
X361Y124D02*
X365Y124D01*
X405Y124D02*
X408Y124D01*
X361Y123D02*
X364Y123D01*
X405Y123D02*
X408Y123D01*
X360Y122D02*
X364Y122D01*
X405Y122D02*
X408Y122D01*
X360Y121D02*
X363Y121D01*
X405Y121D02*
X408Y121D01*
X83Y120D02*
X90Y120D01*
X99Y120D02*
X99Y120D01*
X359Y120D02*
X363Y120D01*
X405Y120D02*
X408Y120D01*
X83Y119D02*
X91Y119D01*
X98Y119D02*
X99Y119D01*
X359Y119D02*
X362Y119D01*
X394Y119D02*
X408Y119D01*
X83Y118D02*
X92Y118D01*
X98Y118D02*
X99Y118D01*
X359Y118D02*
X362Y118D01*
X393Y118D02*
X407Y118D01*
X589Y118D02*
X599Y118D01*
X611Y118D02*
X628Y118D01*
X83Y117D02*
X84Y117D01*
X90Y117D02*
X92Y117D01*
X98Y117D02*
X99Y117D01*
X359Y117D02*
X362Y117D01*
X393Y117D02*
X407Y117D01*
X587Y117D02*
X600Y117D01*
X611Y117D02*
X629Y117D01*
X83Y116D02*
X84Y116D01*
X90Y116D02*
X92Y116D01*
X98Y116D02*
X99Y116D01*
X359Y116D02*
X362Y116D01*
X393Y116D02*
X407Y116D01*
X586Y116D02*
X600Y116D01*
X611Y116D02*
X630Y116D01*
X83Y115D02*
X84Y115D01*
X90Y115D02*
X92Y115D01*
X98Y115D02*
X99Y115D01*
X359Y115D02*
X362Y115D01*
X394Y115D02*
X408Y115D01*
X586Y115D02*
X600Y115D01*
X611Y115D02*
X630Y115D01*
X83Y114D02*
X84Y114D01*
X90Y114D02*
X92Y114D01*
X98Y114D02*
X99Y114D01*
X359Y114D02*
X363Y114D01*
X405Y114D02*
X408Y114D01*
X585Y114D02*
X590Y114D01*
X627Y114D02*
X630Y114D01*
X83Y113D02*
X84Y113D01*
X90Y113D02*
X92Y113D01*
X98Y113D02*
X99Y113D01*
X360Y113D02*
X363Y113D01*
X405Y113D02*
X408Y113D01*
X585Y113D02*
X589Y113D01*
X627Y113D02*
X630Y113D01*
X83Y112D02*
X84Y112D01*
X90Y112D02*
X92Y112D01*
X98Y112D02*
X99Y112D01*
X360Y112D02*
X364Y112D01*
X405Y112D02*
X408Y112D01*
X584Y112D02*
X588Y112D01*
X627Y112D02*
X630Y112D01*
X83Y111D02*
X84Y111D01*
X91Y111D02*
X99Y111D01*
X361Y111D02*
X364Y111D01*
X405Y111D02*
X408Y111D01*
X584Y111D02*
X588Y111D01*
X627Y111D02*
X630Y111D01*
X83Y110D02*
X84Y110D01*
X91Y110D02*
X99Y110D01*
X361Y110D02*
X365Y110D01*
X405Y110D02*
X408Y110D01*
X583Y110D02*
X587Y110D01*
X627Y110D02*
X630Y110D01*
X362Y109D02*
X365Y109D01*
X405Y109D02*
X408Y109D01*
X583Y109D02*
X587Y109D01*
X627Y109D02*
X630Y109D01*
X362Y108D02*
X366Y108D01*
X405Y108D02*
X408Y108D01*
X582Y108D02*
X586Y108D01*
X627Y108D02*
X630Y108D01*
X363Y107D02*
X366Y107D01*
X405Y107D02*
X408Y107D01*
X582Y107D02*
X586Y107D01*
X627Y107D02*
X630Y107D01*
X363Y106D02*
X367Y106D01*
X405Y106D02*
X408Y106D01*
X581Y106D02*
X585Y106D01*
X627Y106D02*
X630Y106D01*
X364Y105D02*
X369Y105D01*
X405Y105D02*
X408Y105D01*
X581Y105D02*
X584Y105D01*
X627Y105D02*
X630Y105D01*
X364Y104D02*
X378Y104D01*
X389Y104D02*
X408Y104D01*
X581Y104D02*
X584Y104D01*
X614Y104D02*
X630Y104D01*
X365Y103D02*
X378Y103D01*
X389Y103D02*
X408Y103D01*
X581Y103D02*
X584Y103D01*
X612Y103D02*
X630Y103D01*
X366Y102D02*
X378Y102D01*
X389Y102D02*
X407Y102D01*
X581Y102D02*
X584Y102D01*
X611Y102D02*
X629Y102D01*
X368Y101D02*
X377Y101D01*
X390Y101D02*
X405Y101D01*
X581Y101D02*
X584Y101D01*
X611Y101D02*
X629Y101D01*
X581Y100D02*
X584Y100D01*
X611Y100D02*
X614Y100D01*
X581Y99D02*
X585Y99D01*
X610Y99D02*
X614Y99D01*
X581Y98D02*
X585Y98D01*
X610Y98D02*
X614Y98D01*
X582Y97D02*
X586Y97D01*
X610Y97D02*
X614Y97D01*
X582Y96D02*
X586Y96D01*
X610Y96D02*
X614Y96D01*
X583Y95D02*
X587Y95D01*
X610Y95D02*
X614Y95D01*
X583Y94D02*
X587Y94D01*
X610Y94D02*
X614Y94D01*
X584Y93D02*
X588Y93D01*
X610Y93D02*
X614Y93D01*
X584Y92D02*
X588Y92D01*
X610Y92D02*
X614Y92D01*
X585Y91D02*
X589Y91D01*
X610Y91D02*
X614Y91D01*
X585Y90D02*
X599Y90D01*
X610Y90D02*
X629Y90D01*
X586Y89D02*
X600Y89D01*
X610Y89D02*
X630Y89D01*
X587Y88D02*
X597Y88D01*
X610Y88D02*
X630Y88D01*
X588Y87D02*
X594Y87D01*
X610Y87D02*
X630Y87D01*
X591Y86D02*
X592Y86D01*
X612Y86D02*
X629Y86D01*
X42Y36D02*
X43Y36D01*
X54Y36D02*
X63Y36D01*
X92Y36D02*
X93Y36D01*
X104Y36D02*
X105Y36D01*
X143Y36D02*
X144Y36D01*
X157Y36D02*
X164Y36D01*
X183Y36D02*
X191Y36D01*
X199Y36D02*
X206Y36D01*
X214Y36D02*
X223Y36D01*
X249Y36D02*
X258Y36D01*
X299Y36D02*
X304Y36D01*
X349Y36D02*
X359Y36D01*
X399Y36D02*
X407Y36D01*
X449Y36D02*
X449Y36D01*
X481Y36D02*
X481Y36D01*
X489Y36D02*
X489Y36D01*
X500Y36D02*
X505Y36D01*
X516Y36D02*
X520Y36D01*
X540Y36D02*
X544Y36D01*
X550Y36D02*
X552Y36D01*
X559Y36D02*
X559Y36D01*
X565Y36D02*
X570Y36D01*
X584Y36D02*
X585Y36D01*
X593Y36D02*
X593Y36D01*
X599Y36D02*
X608Y36D01*
X614Y36D02*
X615Y36D01*
X622Y36D02*
X622Y36D01*
X42Y35D02*
X43Y35D01*
X54Y35D02*
X63Y35D01*
X91Y35D02*
X93Y35D01*
X104Y35D02*
X105Y35D01*
X142Y35D02*
X144Y35D01*
X157Y35D02*
X164Y35D01*
X183Y35D02*
X192Y35D01*
X199Y35D02*
X207Y35D01*
X213Y35D02*
X223Y35D01*
X248Y35D02*
X258Y35D01*
X299Y35D02*
X304Y35D01*
X350Y35D02*
X359Y35D01*
X398Y35D02*
X408Y35D01*
X448Y35D02*
X450Y35D01*
X480Y35D02*
X481Y35D01*
X489Y35D02*
X490Y35D01*
X499Y35D02*
X505Y35D01*
X514Y35D02*
X521Y35D01*
X539Y35D02*
X544Y35D01*
X550Y35D02*
X552Y35D01*
X558Y35D02*
X559Y35D01*
X565Y35D02*
X571Y35D01*
X584Y35D02*
X585Y35D01*
X592Y35D02*
X593Y35D01*
X599Y35D02*
X608Y35D01*
X614Y35D02*
X616Y35D01*
X622Y35D02*
X623Y35D01*
X41Y34D02*
X43Y34D01*
X62Y34D02*
X64Y34D01*
X91Y34D02*
X93Y34D01*
X104Y34D02*
X105Y34D01*
X111Y34D02*
X112Y34D01*
X142Y34D02*
X144Y34D01*
X157Y34D02*
X158Y34D01*
X183Y34D02*
X185Y34D01*
X191Y34D02*
X193Y34D01*
X198Y34D02*
X200Y34D01*
X206Y34D02*
X208Y34D01*
X213Y34D02*
X215Y34D01*
X217Y34D02*
X219Y34D01*
X222Y34D02*
X223Y34D01*
X248Y34D02*
X249Y34D01*
X257Y34D02*
X258Y34D01*
X303Y34D02*
X304Y34D01*
X358Y34D02*
X359Y34D01*
X399Y34D02*
X408Y34D01*
X448Y34D02*
X450Y34D01*
X456Y34D02*
X456Y34D01*
X480Y34D02*
X481Y34D01*
X489Y34D02*
X490Y34D01*
X498Y34D02*
X500Y34D01*
X513Y34D02*
X515Y34D01*
X538Y34D02*
X540Y34D01*
X550Y34D02*
X553Y34D01*
X558Y34D02*
X559Y34D01*
X567Y34D02*
X568Y34D01*
X570Y34D02*
X572Y34D01*
X584Y34D02*
X585Y34D01*
X592Y34D02*
X593Y34D01*
X603Y34D02*
X604Y34D01*
X614Y34D02*
X616Y34D01*
X622Y34D02*
X623Y34D01*
X41Y33D02*
X44Y33D01*
X62Y33D02*
X64Y33D01*
X91Y33D02*
X94Y33D01*
X104Y33D02*
X105Y33D01*
X111Y33D02*
X112Y33D01*
X142Y33D02*
X145Y33D01*
X157Y33D02*
X158Y33D01*
X183Y33D02*
X184Y33D01*
X192Y33D02*
X193Y33D01*
X199Y33D02*
X200Y33D01*
X207Y33D02*
X207Y33D01*
X214Y33D02*
X214Y33D01*
X218Y33D02*
X219Y33D01*
X222Y33D02*
X223Y33D01*
X248Y33D02*
X249Y33D01*
X257Y33D02*
X258Y33D01*
X303Y33D02*
X304Y33D01*
X358Y33D02*
X359Y33D01*
X407Y33D02*
X408Y33D01*
X448Y33D02*
X450Y33D01*
X455Y33D02*
X456Y33D01*
X480Y33D02*
X481Y33D01*
X489Y33D02*
X490Y33D01*
X498Y33D02*
X499Y33D01*
X513Y33D02*
X514Y33D01*
X537Y33D02*
X539Y33D01*
X550Y33D02*
X553Y33D01*
X558Y33D02*
X559Y33D01*
X567Y33D02*
X568Y33D01*
X571Y33D02*
X572Y33D01*
X584Y33D02*
X585Y33D01*
X592Y33D02*
X593Y33D01*
X603Y33D02*
X604Y33D01*
X614Y33D02*
X617Y33D01*
X622Y33D02*
X623Y33D01*
X41Y32D02*
X44Y32D01*
X62Y32D02*
X64Y32D01*
X91Y32D02*
X94Y32D01*
X104Y32D02*
X105Y32D01*
X111Y32D02*
X112Y32D01*
X142Y32D02*
X145Y32D01*
X157Y32D02*
X158Y32D01*
X183Y32D02*
X184Y32D01*
X191Y32D02*
X193Y32D01*
X199Y32D02*
X201Y32D01*
X218Y32D02*
X219Y32D01*
X248Y32D02*
X249Y32D01*
X257Y32D02*
X258Y32D01*
X303Y32D02*
X304Y32D01*
X358Y32D02*
X359Y32D01*
X407Y32D02*
X408Y32D01*
X448Y32D02*
X450Y32D01*
X455Y32D02*
X456Y32D01*
X480Y32D02*
X481Y32D01*
X489Y32D02*
X490Y32D01*
X497Y32D02*
X499Y32D01*
X513Y32D02*
X514Y32D01*
X536Y32D02*
X538Y32D01*
X550Y32D02*
X553Y32D01*
X558Y32D02*
X559Y32D01*
X567Y32D02*
X568Y32D01*
X571Y32D02*
X573Y32D01*
X584Y32D02*
X585Y32D01*
X592Y32D02*
X593Y32D01*
X603Y32D02*
X604Y32D01*
X614Y32D02*
X617Y32D01*
X622Y32D02*
X623Y32D01*
X40Y31D02*
X44Y31D01*
X62Y31D02*
X64Y31D01*
X90Y31D02*
X94Y31D01*
X104Y31D02*
X105Y31D01*
X111Y31D02*
X112Y31D01*
X141Y31D02*
X145Y31D01*
X157Y31D02*
X158Y31D01*
X183Y31D02*
X192Y31D01*
X200Y31D02*
X202Y31D01*
X218Y31D02*
X219Y31D01*
X248Y31D02*
X249Y31D01*
X257Y31D02*
X258Y31D01*
X303Y31D02*
X304Y31D01*
X358Y31D02*
X359Y31D01*
X407Y31D02*
X408Y31D01*
X448Y31D02*
X450Y31D01*
X455Y31D02*
X456Y31D01*
X480Y31D02*
X482Y31D01*
X488Y31D02*
X490Y31D01*
X497Y31D02*
X498Y31D01*
X512Y31D02*
X513Y31D01*
X536Y31D02*
X537Y31D01*
X550Y31D02*
X551Y31D01*
X553Y31D02*
X554Y31D01*
X558Y31D02*
X559Y31D01*
X567Y31D02*
X568Y31D01*
X572Y31D02*
X573Y31D01*
X584Y31D02*
X585Y31D01*
X592Y31D02*
X593Y31D01*
X603Y31D02*
X604Y31D01*
X614Y31D02*
X618Y31D01*
X622Y31D02*
X623Y31D01*
X40Y30D02*
X41Y30D01*
X43Y30D02*
X45Y30D01*
X62Y30D02*
X64Y30D01*
X90Y30D02*
X91Y30D01*
X93Y30D02*
X95Y30D01*
X104Y30D02*
X105Y30D01*
X111Y30D02*
X112Y30D01*
X141Y30D02*
X142Y30D01*
X144Y30D02*
X145Y30D01*
X157Y30D02*
X158Y30D01*
X183Y30D02*
X192Y30D01*
X201Y30D02*
X203Y30D01*
X218Y30D02*
X219Y30D01*
X248Y30D02*
X249Y30D01*
X257Y30D02*
X258Y30D01*
X303Y30D02*
X304Y30D01*
X358Y30D02*
X359Y30D01*
X407Y30D02*
X408Y30D01*
X448Y30D02*
X450Y30D01*
X455Y30D02*
X456Y30D01*
X481Y30D02*
X482Y30D01*
X488Y30D02*
X489Y30D01*
X496Y30D02*
X498Y30D01*
X512Y30D02*
X513Y30D01*
X535Y30D02*
X536Y30D01*
X550Y30D02*
X551Y30D01*
X553Y30D02*
X554Y30D01*
X558Y30D02*
X559Y30D01*
X567Y30D02*
X568Y30D01*
X572Y30D02*
X574Y30D01*
X585Y30D02*
X586Y30D01*
X591Y30D02*
X593Y30D01*
X603Y30D02*
X604Y30D01*
X614Y30D02*
X615Y30D01*
X617Y30D02*
X618Y30D01*
X622Y30D02*
X623Y30D01*
X40Y29D02*
X41Y29D01*
X44Y29D02*
X45Y29D01*
X61Y29D02*
X63Y29D01*
X90Y29D02*
X91Y29D01*
X93Y29D02*
X95Y29D01*
X104Y29D02*
X105Y29D01*
X111Y29D02*
X112Y29D01*
X141Y29D02*
X142Y29D01*
X144Y29D02*
X146Y29D01*
X157Y29D02*
X158Y29D01*
X183Y29D02*
X190Y29D01*
X202Y29D02*
X203Y29D01*
X218Y29D02*
X219Y29D01*
X248Y29D02*
X249Y29D01*
X257Y29D02*
X258Y29D01*
X303Y29D02*
X304Y29D01*
X351Y29D02*
X359Y29D01*
X386Y29D02*
X390Y29D01*
X406Y29D02*
X408Y29D01*
X448Y29D02*
X450Y29D01*
X455Y29D02*
X456Y29D01*
X481Y29D02*
X482Y29D01*
X488Y29D02*
X489Y29D01*
X496Y29D02*
X497Y29D01*
X511Y29D02*
X512Y29D01*
X535Y29D02*
X536Y29D01*
X550Y29D02*
X551Y29D01*
X554Y29D02*
X555Y29D01*
X558Y29D02*
X559Y29D01*
X567Y29D02*
X568Y29D01*
X573Y29D02*
X574Y29D01*
X585Y29D02*
X586Y29D01*
X591Y29D02*
X592Y29D01*
X603Y29D02*
X604Y29D01*
X614Y29D02*
X615Y29D01*
X617Y29D02*
X619Y29D01*
X622Y29D02*
X623Y29D01*
X39Y28D02*
X41Y28D01*
X44Y28D02*
X45Y28D01*
X56Y28D02*
X63Y28D01*
X89Y28D02*
X91Y28D01*
X94Y28D02*
X95Y28D01*
X104Y28D02*
X105Y28D01*
X111Y28D02*
X112Y28D01*
X140Y28D02*
X142Y28D01*
X145Y28D02*
X146Y28D01*
X157Y28D02*
X164Y28D01*
X183Y28D02*
X184Y28D01*
X187Y28D02*
X189Y28D01*
X202Y28D02*
X204Y28D01*
X218Y28D02*
X219Y28D01*
X248Y28D02*
X249Y28D01*
X257Y28D02*
X258Y28D01*
X303Y28D02*
X304Y28D01*
X349Y28D02*
X359Y28D01*
X385Y28D02*
X395Y28D01*
X400Y28D02*
X408Y28D01*
X448Y28D02*
X450Y28D01*
X455Y28D02*
X456Y28D01*
X481Y28D02*
X483Y28D01*
X487Y28D02*
X489Y28D01*
X496Y28D02*
X497Y28D01*
X511Y28D02*
X512Y28D01*
X535Y28D02*
X536Y28D01*
X550Y28D02*
X551Y28D01*
X554Y28D02*
X555Y28D01*
X558Y28D02*
X559Y28D01*
X567Y28D02*
X568Y28D01*
X573Y28D02*
X574Y28D01*
X585Y28D02*
X587Y28D01*
X591Y28D02*
X592Y28D01*
X603Y28D02*
X604Y28D01*
X614Y28D02*
X615Y28D01*
X618Y28D02*
X619Y28D01*
X622Y28D02*
X623Y28D01*
X39Y27D02*
X41Y27D01*
X44Y27D02*
X45Y27D01*
X56Y27D02*
X63Y27D01*
X89Y27D02*
X91Y27D01*
X94Y27D02*
X95Y27D01*
X104Y27D02*
X106Y27D01*
X110Y27D02*
X112Y27D01*
X140Y27D02*
X141Y27D01*
X145Y27D02*
X146Y27D01*
X157Y27D02*
X164Y27D01*
X183Y27D02*
X184Y27D01*
X188Y27D02*
X189Y27D01*
X203Y27D02*
X205Y27D01*
X218Y27D02*
X219Y27D01*
X248Y27D02*
X249Y27D01*
X257Y27D02*
X258Y27D01*
X303Y27D02*
X304Y27D01*
X349Y27D02*
X357Y27D01*
X385Y27D02*
X386Y27D01*
X390Y27D02*
X395Y27D01*
X400Y27D02*
X408Y27D01*
X448Y27D02*
X450Y27D01*
X455Y27D02*
X456Y27D01*
X482Y27D02*
X483Y27D01*
X487Y27D02*
X488Y27D01*
X496Y27D02*
X497Y27D01*
X511Y27D02*
X512Y27D01*
X535Y27D02*
X536Y27D01*
X540Y27D02*
X544Y27D01*
X550Y27D02*
X551Y27D01*
X554Y27D02*
X556Y27D01*
X558Y27D02*
X559Y27D01*
X567Y27D02*
X568Y27D01*
X572Y27D02*
X574Y27D01*
X586Y27D02*
X587Y27D01*
X590Y27D02*
X591Y27D01*
X603Y27D02*
X604Y27D01*
X614Y27D02*
X615Y27D01*
X618Y27D02*
X619Y27D01*
X622Y27D02*
X623Y27D01*
X39Y26D02*
X40Y26D01*
X44Y26D02*
X46Y26D01*
X62Y26D02*
X64Y26D01*
X89Y26D02*
X90Y26D01*
X94Y26D02*
X96Y26D01*
X104Y26D02*
X113Y26D01*
X140Y26D02*
X141Y26D01*
X145Y26D02*
X147Y26D01*
X163Y26D02*
X165Y26D01*
X183Y26D02*
X184Y26D01*
X189Y26D02*
X190Y26D01*
X204Y26D02*
X206Y26D01*
X218Y26D02*
X219Y26D01*
X248Y26D02*
X249Y26D01*
X257Y26D02*
X258Y26D01*
X303Y26D02*
X304Y26D01*
X307Y26D02*
X308Y26D01*
X349Y26D02*
X350Y26D01*
X406Y26D02*
X408Y26D01*
X448Y26D02*
X457Y26D01*
X482Y26D02*
X484Y26D01*
X486Y26D02*
X488Y26D01*
X496Y26D02*
X497Y26D01*
X511Y26D02*
X513Y26D01*
X535Y26D02*
X536Y26D01*
X540Y26D02*
X544Y26D01*
X550Y26D02*
X551Y26D01*
X555Y26D02*
X556Y26D01*
X558Y26D02*
X559Y26D01*
X567Y26D02*
X568Y26D01*
X572Y26D02*
X573Y26D01*
X586Y26D02*
X587Y26D01*
X590Y26D02*
X591Y26D01*
X603Y26D02*
X604Y26D01*
X614Y26D02*
X615Y26D01*
X619Y26D02*
X620Y26D01*
X622Y26D02*
X623Y26D01*
X39Y25D02*
X46Y25D01*
X62Y25D02*
X64Y25D01*
X89Y25D02*
X96Y25D01*
X104Y25D02*
X112Y25D01*
X140Y25D02*
X147Y25D01*
X163Y25D02*
X165Y25D01*
X183Y25D02*
X184Y25D01*
X189Y25D02*
X191Y25D01*
X205Y25D02*
X206Y25D01*
X218Y25D02*
X219Y25D01*
X248Y25D02*
X249Y25D01*
X257Y25D02*
X258Y25D01*
X303Y25D02*
X304Y25D01*
X307Y25D02*
X309Y25D01*
X349Y25D02*
X350Y25D01*
X407Y25D02*
X408Y25D01*
X448Y25D02*
X457Y25D01*
X483Y25D02*
X484Y25D01*
X486Y25D02*
X487Y25D01*
X496Y25D02*
X498Y25D01*
X512Y25D02*
X513Y25D01*
X535Y25D02*
X536Y25D01*
X543Y25D02*
X544Y25D01*
X550Y25D02*
X551Y25D01*
X555Y25D02*
X559Y25D01*
X567Y25D02*
X568Y25D01*
X571Y25D02*
X573Y25D01*
X587Y25D02*
X591Y25D01*
X603Y25D02*
X604Y25D01*
X614Y25D02*
X615Y25D01*
X619Y25D02*
X623Y25D01*
X38Y24D02*
X46Y24D01*
X62Y24D02*
X64Y24D01*
X88Y24D02*
X96Y24D01*
X111Y24D02*
X112Y24D01*
X139Y24D02*
X147Y24D01*
X163Y24D02*
X165Y24D01*
X183Y24D02*
X184Y24D01*
X190Y24D02*
X191Y24D01*
X205Y24D02*
X207Y24D01*
X218Y24D02*
X219Y24D01*
X248Y24D02*
X249Y24D01*
X257Y24D02*
X258Y24D01*
X303Y24D02*
X304Y24D01*
X307Y24D02*
X309Y24D01*
X349Y24D02*
X350Y24D01*
X407Y24D02*
X408Y24D01*
X455Y24D02*
X456Y24D01*
X483Y24D02*
X487Y24D01*
X497Y24D02*
X498Y24D01*
X512Y24D02*
X514Y24D01*
X535Y24D02*
X536Y24D01*
X543Y24D02*
X544Y24D01*
X550Y24D02*
X551Y24D01*
X556Y24D02*
X559Y24D01*
X567Y24D02*
X568Y24D01*
X571Y24D02*
X572Y24D01*
X587Y24D02*
X590Y24D01*
X603Y24D02*
X604Y24D01*
X614Y24D02*
X615Y24D01*
X619Y24D02*
X623Y24D01*
X38Y23D02*
X47Y23D01*
X62Y23D02*
X64Y23D01*
X88Y23D02*
X97Y23D01*
X111Y23D02*
X112Y23D01*
X139Y23D02*
X148Y23D01*
X163Y23D02*
X165Y23D01*
X183Y23D02*
X184Y23D01*
X190Y23D02*
X192Y23D01*
X198Y23D02*
X199Y23D01*
X206Y23D02*
X208Y23D01*
X218Y23D02*
X219Y23D01*
X248Y23D02*
X249Y23D01*
X257Y23D02*
X258Y23D01*
X303Y23D02*
X304Y23D01*
X307Y23D02*
X309Y23D01*
X349Y23D02*
X350Y23D01*
X407Y23D02*
X408Y23D01*
X455Y23D02*
X456Y23D01*
X483Y23D02*
X487Y23D01*
X497Y23D02*
X499Y23D01*
X513Y23D02*
X514Y23D01*
X535Y23D02*
X536Y23D01*
X543Y23D02*
X544Y23D01*
X550Y23D02*
X551Y23D01*
X556Y23D02*
X559Y23D01*
X567Y23D02*
X568Y23D01*
X570Y23D02*
X572Y23D01*
X587Y23D02*
X590Y23D01*
X603Y23D02*
X604Y23D01*
X614Y23D02*
X615Y23D01*
X620Y23D02*
X623Y23D01*
X38Y22D02*
X39Y22D01*
X46Y22D02*
X47Y22D01*
X62Y22D02*
X64Y22D01*
X88Y22D02*
X89Y22D01*
X96Y22D02*
X97Y22D01*
X111Y22D02*
X112Y22D01*
X139Y22D02*
X140Y22D01*
X146Y22D02*
X148Y22D01*
X155Y22D02*
X155Y22D01*
X163Y22D02*
X165Y22D01*
X183Y22D02*
X184Y22D01*
X191Y22D02*
X192Y22D01*
X199Y22D02*
X208Y22D01*
X218Y22D02*
X219Y22D01*
X248Y22D02*
X250Y22D01*
X257Y22D02*
X258Y22D01*
X303Y22D02*
X304Y22D01*
X307Y22D02*
X309Y22D01*
X349Y22D02*
X350Y22D01*
X407Y22D02*
X408Y22D01*
X455Y22D02*
X456Y22D01*
X484Y22D02*
X486Y22D01*
X498Y22D02*
X500Y22D01*
X513Y22D02*
X515Y22D01*
X535Y22D02*
X544Y22D01*
X550Y22D02*
X551Y22D01*
X557Y22D02*
X559Y22D01*
X565Y22D02*
X571Y22D01*
X588Y22D02*
X589Y22D01*
X599Y22D02*
X608Y22D01*
X614Y22D02*
X615Y22D01*
X620Y22D02*
X623Y22D01*
X37Y21D02*
X39Y21D01*
X46Y21D02*
X47Y21D01*
X54Y21D02*
X64Y21D01*
X87Y21D02*
X89Y21D01*
X96Y21D02*
X97Y21D01*
X111Y21D02*
X112Y21D01*
X138Y21D02*
X140Y21D01*
X147Y21D02*
X148Y21D01*
X154Y21D02*
X164Y21D01*
X183Y21D02*
X184Y21D01*
X191Y21D02*
X193Y21D01*
X199Y21D02*
X207Y21D01*
X218Y21D02*
X219Y21D01*
X248Y21D02*
X258Y21D01*
X299Y21D02*
X309Y21D01*
X349Y21D02*
X359Y21D01*
X399Y21D02*
X408Y21D01*
X455Y21D02*
X456Y21D01*
X484Y21D02*
X486Y21D01*
X499Y21D02*
X505Y21D01*
X514Y21D02*
X521Y21D01*
X536Y21D02*
X543Y21D01*
X550Y21D02*
X551Y21D01*
X557Y21D02*
X559Y21D01*
X565Y21D02*
X570Y21D01*
X588Y21D02*
X589Y21D01*
X599Y21D02*
X608Y21D01*
X614Y21D02*
X615Y21D01*
X621Y21D02*
X623Y21D01*
X37Y20D02*
X38Y20D01*
X46Y20D02*
X47Y20D01*
X54Y20D02*
X63Y20D01*
X87Y20D02*
X88Y20D01*
X96Y20D02*
X97Y20D01*
X111Y20D02*
X112Y20D01*
X138Y20D02*
X139Y20D01*
X147Y20D02*
X148Y20D01*
X155Y20D02*
X164Y20D01*
X249Y20D02*
X258Y20D01*
X298Y20D02*
X309Y20D01*
X349Y20D02*
X359Y20D01*
X398Y20D02*
X408Y20D01*
X455Y20D02*
X456Y20D01*
X485Y20D02*
X485Y20D01*
X500Y20D02*
X505Y20D01*
X515Y20D02*
X520Y20D01*
X158Y19D02*
X163Y19D01*
X300Y19D02*
X307Y19D01*
X399Y19D02*
X407Y19D01*
X456Y19D02*
X456Y19D01*
D02*
G04 End of Silk1*
M02*