; NON-PLATED HOLES START AT T1
; THROUGH (PLATED) HOLES START AT T100
M48
INCH
T100C0.022741
T101C0.012992
T102C0.019685
T103C0.010000
%
T100
X002498Y003956
X005026Y000629
X001498Y003956
X002998Y003956
X004026Y000629
X005526Y000629
X001026Y000629
X002526Y000629
X001526Y000629
X004498Y003956
X003498Y003956
X004998Y003956
X006026Y000629
X003998Y003956
X000498Y003956
X001998Y003956
X003026Y000629
X004526Y000629
X000998Y003956
X002026Y000629
X003526Y000629
X000526Y000629
X005498Y003956
X005998Y003956
T101
X002262Y002460
X001711Y001889
X005050Y001531
X004270Y001712
X005491Y002873
T102
X000518Y001192
T103
X000392Y001633
X000766Y002755
X000766Y001751
T00
M30
